<?xml version="1.0" encoding="UTF-8" standalone="no"?>
<svg
   xmlns:dc="http://purl.org/dc/elements/1.1/"
   xmlns:cc="http://creativecommons.org/ns#"
   xmlns:rdf="http://www.w3.org/1999/02/22-rdf-syntax-ns#"
   xmlns:svg="http://www.w3.org/2000/svg"
   xmlns="http://www.w3.org/2000/svg"
   xmlns:sodipodi="http://sodipodi.sourceforge.net/DTD/sodipodi-0.dtd"
   xmlns:inkscape="http://www.inkscape.org/namespaces/inkscape"
   version="1.1"
   width="105"
   height="30"
   id="svg2"
   inkscape:version="0.91 r13725"
   sodipodi:docname="MadHat.svg"
   inkscape:export-filename="/home/stephane/rivierajug/sponsors/MadHat.png"
   inkscape:export-xdpi="214.28999"
   inkscape:export-ydpi="214.28999">
  <metadata
     id="metadata34">
    <rdf:RDF>
      <cc:Work
         rdf:about="">
        <dc:format>image/svg+xml</dc:format>
        <dc:type
           rdf:resource="http://purl.org/dc/dcmitype/StillImage" />
        <dc:title></dc:title>
      </cc:Work>
    </rdf:RDF>
  </metadata>
  <defs
     id="defs32" />
  <sodipodi:namedview
     pagecolor="#ffffff"
     bordercolor="#666666"
     borderopacity="1"
     objecttolerance="10"
     gridtolerance="10"
     guidetolerance="10"
     inkscape:pageopacity="0"
     inkscape:pageshadow="2"
     inkscape:window-width="1411"
     inkscape:window-height="969"
     id="namedview30"
     showgrid="false"
     inkscape:zoom="6"
     inkscape:cx="14.981944"
     inkscape:cy="33.707617"
     inkscape:window-x="2030"
     inkscape:window-y="50"
     inkscape:window-maximized="0"
     inkscape:current-layer="svg2" />
  <g
     transform="matrix(0.07352206,0,0,0.07352206,-62.817152,-71.539531)"
     id="g6">
    <rect
       style="fill:#000000"
       height="390"
       width="390"
       y="982.62"
       x="864.15002"
       id="rect8" />
    <path
       style="fill:#c41501"
       inkscape:connector-curvature="0"
       d="m 883.21,590.2 c 0,106.87 -86.633,193.5 -193.5,193.5 -106.867,0 -193.5,-86.633 -193.5,-193.5 0,-106.867 86.633,-193.5 193.5,-193.5 106.867,0 193.5,86.633 193.5,193.5 z"
       transform="matrix(0.94315245,0,0,0.94315245,408.64888,620.97412)"
       id="path10-3" />
    <path
       style="fill:#080202"
       inkscape:connector-curvature="0"
       d="m 981.1,1297.5 c -6.3567,-2.9602 -10.475,-7.6684 -15.569,-17.801 -3.4156,-6.7932 -5.9645,-9.9439 -16.341,-20.198 -10.549,-10.425 -12.871,-13.314 -16.358,-20.355 -5.4785,-11.06 -6.7818,-17.624 -5.5186,-27.794 0.5527,-4.4497 2.0483,-10.219 3.37,-13 3.3029,-6.9492 12.837,-15.909 24.476,-23 19.877,-12.111 20.403,-13.748 8.6697,-26.96 -9.3115,-10.485 -13.23,-22.258 -13.207,-39.684 0.022,-16.933 3.4393,-29.368 10.715,-38.989 4.3227,-5.7165 11.593,-11.364 17.159,-13.327 5.4671,-1.9289 6.2437,-0.3583 2.791,5.6438 -1.3658,2.3743 -2.7672,5.684 -3.1143,7.355 -1.4367,6.9178 6.8983,24.488 15.314,32.282 4.9187,4.5552 13.569,8.7953 19.621,9.6178 3.7268,0.5064 8.0557,0 17,-1.9979 17.225,-3.8433 36.311,-4.4164 50,-1.5013 5.5,1.1712 12.661,2.5858 15.912,3.1435 18.113,3.1064 35.816,-10.393 43.054,-32.83 1.9654,-6.093 1.4932,-9.5657 -2.2473,-16.528 -3.5474,-6.6029 -2.1762,-7.7077 5.2223,-4.2077 7.3345,3.4697 15.443,11.501 18.766,18.588 4.7094,10.043 5.9758,15.782 6.5238,29.565 0.8017,20.16 -2.7959,31.642 -13.657,43.585 -10.785,11.86 -10.074,14.263 7.4251,25.076 21.774,13.455 29.055,23.022 30.228,39.72 1.2502,17.797 -8.9178,35.589 -30.597,53.539 -2.0583,1.7042 -4.9674,6.1195 -7.4783,11.35 -6.8157,14.199 -15.392,21.061 -26.319,21.061 -7.0799,0 -7.9126,-2.7255 -3.1743,-10.389 3.8018,-6.1492 4.7805,-12.892 2.5087,-17.285 -1.3502,-2.611 -3.0376,-3.4977 -12.855,-6.7546 -14.182,-4.7047 -23.684,-9.2661 -35.919,-17.241 l -9.6056,-6.2617 -3.8558,1.9658 c -4.5556,2.3226 -7.2223,2.4398 -9.8741,0.4341 -3.0341,-2.2949 -4.6428,-1.8336 -13.19,3.7818 -11.072,7.2741 -23.068,13.103 -34.931,16.974 -14.488,4.7272 -14.941,5.1202 -14.922,12.948 0.014,5.5204 0.471,7.1331 3.25,11.464 3.4904,5.4392 3.9024,7.2959 2.0339,9.1645 -1.9733,1.9732 -9.8735,1.379 -15.307,-1.1514 z m 83.552,-58.697 c 5.2572,-5.6278 7.2812,-12.938 7.3241,-26.452 0.043,-13.575 -1.0027,-18.242 -5.6326,-25.13 -5.9861,-8.9065 -12.258,-8.1331 -17.936,2.2117 -7.3766,13.44 -5.6854,39.907 3.1545,49.37 2.1807,2.3346 3.7129,3.0482 6.5449,3.0482 2.832,0 4.3642,-0.7136 6.5449,-3.0482 z m -15.38,-60.399 c 5.8762,-3.4972 6.7647,-8.9403 2.8368,-17.378 -5.5375,-11.895 -24.764,-27.352 -40.502,-32.563 -14.606,-4.8354 -29.634,-3.6532 -36.556,2.8758 -6.4409,6.0745 -5.1935,16.458 3.3247,27.675 7.7585,10.217 19.699,17.128 35.232,20.392 9.8197,2.0637 31.538,1.4528 35.665,-1.0033 z m 59.835,-0.045 c 20.558,-5.7127 36.022,-20.686 37.258,-36.075 0.5112,-6.3696 0.4965,-6.4143 -3.4083,-10.319 -4.8255,-4.8256 -10.137,-6.4412 -20.849,-6.3416 -15.161,0.141 -32.002,7.9859 -45.571,21.228 -8.8298,8.6171 -12.929,15.705 -12.929,22.356 0,5.3876 2.0567,8.1848 7.5,10.2 5.3762,1.9905 29.454,1.3262 38,-1.0485 z"
       id="path12" />
    <path
       style="fill:#e6c360"
       inkscape:connector-curvature="0"
       d="m 992.91,1125.5 c -7.5054,0.1697 -13.981,2.1399 -17.875,5.8125 -6.4409,6.0745 -5.1744,16.47 3.3438,27.688 7.7585,10.217 19.686,17.111 35.219,20.375 9.8197,2.0637 31.529,1.4561 35.656,-1 5.8762,-3.4972 6.7716,-8.9377 2.8438,-17.375 -5.5375,-11.895 -24.762,-27.352 -40.5,-32.562 -6.39,-2.1155 -12.85,-3.0695 -18.687,-2.9375 z m 129.19,0.094 c -15.161,0.141 -31.994,7.977 -45.563,21.219 -8.8297,8.6171 -12.937,15.724 -12.937,22.375 0,5.3876 2.0567,8.1721 7.5,10.188 5.3761,1.9905 29.454,1.3435 38,-1.0312 20.558,-5.7128 36.015,-20.705 37.25,-36.094 0.5111,-6.3696 0.4985,-6.4078 -3.4063,-10.312 -4.8255,-4.8256 -10.132,-6.4433 -20.844,-6.3437 z"
       id="path14" />
  </g>
  <g
     id="g4177"
     transform="translate(0.58925565,-18.098359)">
    <path
       inkscape:connector-curvature="0"
       id="path23-2"
       style="fill:#000000"
       d="m 77.959352,30.210289 c -0.771,0 -1.462,0.222 -2.041,0.58 -0.602,0.352 -1.091,0.897 -1.383,1.459 l -0.041,0 0,-4.731 -1.001,-0.296 0,13.339 1.001,0 0,-6.188 c 0,-0.411 0.031,-0.696 0.137,-0.997 0.432,-1.26 1.619,-2.292 3.054,-2.292 2.072,0 2.79,1.661 2.79,3.483 l 0,5.994 1.001,0 0,-6.103 c 0,-3.769 -2.558,-4.248 -3.517,-4.248" />
    <path
       inkscape:connector-curvature="0"
       id="path25-3"
       style="fill:#000000"
       d="m 90.462352,38.157589 c 0,0.801 0.032,1.628 0.148,2.403 l -0.922,0 -0.148,-1.449 -0.047,0 c -0.491,0.78 -1.619,1.68 -3.228,1.68 -2.037,0 -2.986,-1.433 -2.986,-2.781 0,-2.335 2.064,-3.743 6.183,-3.699 l 0,-0.27 c 0,-1.002 -0.195,-2.998 -2.591,-2.983 -0.886,0 -1.809,0.237 -2.542,0.754 l -0.318,-0.727 c 0.926,-0.627 2.055,-0.875 2.971,-0.875 2.921,0 3.48,2.192 3.48,4 l 0,3.947 z m -1,-3.005 c -2.206,-0.063 -5.117,0.271 -5.117,2.7 0,1.454 0.96,2.108 2.015,2.108 1.687,0 2.647,-1.044 2.997,-2.029 0.072,-0.215 0.105,-0.433 0.105,-0.607 l 0,-2.172 z" />
    <path
       inkscape:connector-curvature="0"
       id="path27-4"
       style="fill:#000000"
       d="m 94.449652,28.212289 0,2.229 2.887,0 0,0.812 -2.887,0 0,6.577 c 0,1.287 0.399,2.093 1.488,2.093 0.521,0 0.891,-0.068 1.15,-0.159 l 0.121,0.775 c -0.327,0.138 -0.786,0.243 -1.397,0.243 -0.739,0 -1.352,-0.232 -1.748,-0.716 -0.458,-0.532 -0.615,-1.381 -0.615,-2.414 l 0,-6.399 -1.708,0 0,-0.812 1.708,0 0,-1.86 1.001,-0.369 z" />
    <g
       id="use3884-2"
       transform="translate(68.887852,17.873889)">
      <path
         inkscape:connector-curvature="0"
         id="path4185"
         style="fill:#000000"
         d="m 29.7137,22.1489 0.133,0 0.201,0.33 0.13,0 -0.218,-0.336 c 0.113,-0.014 0.198,-0.073 0.198,-0.209 0,-0.151 -0.089,-0.217 -0.268,-0.217 l -0.291,0 0,0.762 0.115,0 0,-0.33 z m 0,-0.098 0,-0.237 0.157,0 c 0.079,0 0.165,0.019 0.165,0.112 0,0.118 -0.086,0.125 -0.184,0.125 l -0.138,0 z" />
      <path
         inkscape:connector-curvature="0"
         id="path4187"
         style="fill:#000000"
         d="m 30.5965,22.0991 c 0,0.411 -0.334,0.745 -0.746,0.745 -0.412,0 -0.747,-0.334 -0.747,-0.745 0,-0.411 0.335,-0.747 0.747,-0.747 0.412,0 0.746,0.336 0.746,0.747 m -0.746,-0.614 c -0.34,0 -0.615,0.274 -0.615,0.615 0,0.337 0.275,0.611 0.615,0.611 0.338,0 0.613,-0.274 0.613,-0.611 0,-0.341 -0.275,-0.615 -0.613,-0.615" />
    </g>
  </g>
  <text
     xml:space="preserve"
     style="font-style:normal;font-weight:normal;font-size:40px;line-height:125%;font-family:Sans;letter-spacing:0px;word-spacing:0px;fill:#000000;fill-opacity:1;stroke:none;stroke-width:1px;stroke-linecap:butt;stroke-linejoin:miter;stroke-opacity:1"
     x="35.812866"
     y="22.45323"
     id="text4176"
     sodipodi:linespacing="125%"><tspan
       sodipodi:role="line"
       id="tspan4178"
       x="35.812866"
       y="22.45323"
       style="font-style:normal;font-variant:normal;font-weight:800;font-stretch:normal;font-size:20px;line-height:125%;font-family:Overpass;-inkscape-font-specification:'Overpass Ultra-Bold';text-align:start;letter-spacing:-1.09000003px;writing-mode:lr-tb;text-anchor:start">mad</tspan></text>
  <path
     d="M 14.111566,3.7858485 C 12.862215,3.8759776 12.731784,4.010805 12.498034,4.2592098 12.168294,4.6116661 11.733036,3.8041674 11.733036,3.8041674 11.471441,3.7492106 11.155623,3.3286078 11.326355,2.9365826 11.49489,2.5482212 11.805579,2.6639969 11.902303,2.7849018 c 0.117974,0.1472843 0.370775,0.3883615 0.69905,0.3795684 0.328276,-0.00879 0.706378,-0.077672 1.234697,-0.077672 0.534912,0 0.893964,0.19931 0.913748,0.371508 0.01832,0.1458187 -0.04323,0.2835771 -0.638232,0.3275426 m 1.313102,-2.0641777 -0.0059,0 c -0.01905,0 -0.03444,-0.014655 -0.03444,-0.032241 0,-0.01319 0.0081,-0.024914 0.01978,-0.030043 0.242543,-0.1274998 0.603793,-0.2300858 1.017068,-0.2711202 0.123836,-0.01319 0.245473,-0.020517 0.361982,-0.020517 l 0.06228,0 c 0.693922,0.016121 1.248619,0.2916374 1.240559,0.6155162 -0.0088,0.3238788 -0.57668,0.5737491 -1.271335,0.5590939 -0.223491,-0.00586 -0.434525,-0.038103 -0.615516,-0.090862 -0.02271,-0.00513 -0.03737,-0.023448 -0.03737,-0.045431 0,-0.02125 0.01465,-0.039569 0.0381,-0.045431 0.431594,-0.099655 0.723964,-0.2637927 0.703447,-0.4184045 -0.02784,-0.2044393 -0.592801,-0.3158184 -1.264006,-0.2484048 -0.07401,0.00733 -0.145086,0.016853 -0.214698,0.027845 m 5.634904,4.8515869 c -0.106982,0.3590511 -0.258663,0.81849 -0.935731,1.1658171 -0.09892,0.05056 -0.13556,-0.032241 -0.09086,-0.1099136 C 20.289397,7.1939041 20.334095,7.085456 20.408837,6.9147236 20.512202,6.6633869 20.567892,6.306534 20.360522,5.563518 19.953841,4.1002014 19.103843,2.1430063 18.487594,1.5091712 17.891862,0.896586 16.813243,0.7236552 15.83721,0.9742582 15.478159,1.0658529 14.775445,1.4307661 13.472602,1.1376632 11.217907,0.6298623 10.88377,1.7583087 10.754805,2.2499889 c -0.130431,0.4916802 -0.44112,1.8890487 -0.44112,1.8890487 -0.103319,0.5700852 -0.238879,1.5593077 3.262968,2.2268498 1.631118,0.3099563 1.713187,0.7320246 1.786463,1.0346534 0.129698,0.5429733 0.336336,0.8536624 0.569353,1.009007 0.233016,0.1553446 0,0.2843099 -0.258664,0.3099564 C 14.979884,8.7920472 12.411569,8.055626 10.89183,7.1931705 9.6490736,6.4340338 9.6285564,5.7511039 9.9128663,5.17076 8.0355418,4.9677862 6.6264493,5.3466218 6.3714497,6.2354565 5.932528,7.759592 9.7245477,10.363812 14.042687,11.671051 c 4.531372,1.370989 9.191709,0.413275 9.709769,-2.4334873 0.235215,-1.2933169 -0.854395,-2.250298 -2.692884,-2.664306"
     style="fill:#e93442"
     id="path10"
     inkscape:connector-curvature="0" />
</svg>
