<?xml version="1.0" encoding="utf-8"?>
<!-- Generator: Adobe Illustrator 22.0.0, SVG Export Plug-In . SVG Version: 6.00 Build 0)  -->
<svg version="1.1" id="mascotte" xmlns="http://www.w3.org/2000/svg" xmlns:xlink="http://www.w3.org/1999/xlink" x="0px" y="0px"
	 viewBox="0 0 245.8 245.8" style="enable-background:new 0 0 245.8 245.8;" xml:space="preserve">
<style type="text/css">
	.st0{opacity:0.6;}
	.st1{fill-rule:evenodd;clip-rule:evenodd;fill:#FFDF43;}
	.st2{fill-rule:evenodd;clip-rule:evenodd;fill:url(#SVGID_1_);}
	.st3{fill-rule:evenodd;clip-rule:evenodd;fill:#FAB010;}
	.st4{fill-rule:evenodd;clip-rule:evenodd;fill:#157EBF;}
	.st5{opacity:0.6;fill:#FFE565;}
	.st6{opacity:0.6;fill:#FCDE48;}
	.st7{fill-rule:evenodd;clip-rule:evenodd;fill:#AA5D0A;}
	.st8{fill-rule:evenodd;clip-rule:evenodd;fill:#FDFEFE;}
	.st9{fill:#C8650D;}
	.st10{fill-rule:evenodd;clip-rule:evenodd;fill:#C8650D;}
	.st11{fill-rule:evenodd;clip-rule:evenodd;}
	.st12{clip-path:url(#SVGID_4_);}
	.st13{clip-path:url(#SVGID_5_);}
	.st14{fill:none;stroke:#FFFFFF;stroke-width:4;stroke-miterlimit:10;}
	.st15{fill:none;stroke:#FFFFFF;stroke-width:0.75;stroke-miterlimit:10;}
	.st16{fill:none;stroke:#FFFFFF;stroke-width:2;stroke-miterlimit:10;}
	.st17{fill:none;stroke:#FFFFFF;stroke-width:1.75;stroke-miterlimit:10;}
	.st18{fill:none;stroke:#FFFFFF;stroke-width:0.25;stroke-miterlimit:10;}
	.st19{clip-path:url(#SVGID_8_);}
	.st20{clip-path:url(#SVGID_9_);}
	.st21{fill-rule:evenodd;clip-rule:evenodd;fill:url(#SVGID_10_);}
	.st22{clip-path:url(#SVGID_13_);}
	.st23{clip-path:url(#SVGID_14_);}
	.st24{clip-path:url(#SVGID_17_);}
	.st25{clip-path:url(#SVGID_18_);}
	.st26{fill-rule:evenodd;clip-rule:evenodd;fill:url(#SVGID_19_);}
	.st27{clip-path:url(#SVGID_22_);}
	.st28{clip-path:url(#SVGID_23_);}
	.st29{clip-path:url(#SVGID_26_);}
	.st30{clip-path:url(#SVGID_27_);}
	.st31{fill:none;}
	.st32{fill:#4D2200;}
	.st33{fill:#3B5172;}
	.st34{fill:#60BFBB;}
	.st35{fill:#B3E5E2;}
	.st36{fill:#9BFFF8;}
	.st37{fill:url(#XMLID_7_);}
	.st38{fill:url(#XMLID_8_);}
	.st39{fill:url(#XMLID_9_);}
	.st40{fill:url(#XMLID_10_);}
	.st41{fill:url(#XMLID_11_);}
	.st42{fill:url(#XMLID_12_);}
	.st43{fill:url(#XMLID_13_);}
	.st44{fill:url(#XMLID_15_);}
	.st45{fill:url(#XMLID_16_);}
	.st46{fill:url(#XMLID_18_);}
	.st47{fill:url(#XMLID_20_);}
	.st48{fill:url(#XMLID_21_);}
	.st49{fill:url(#XMLID_22_);}
	.st50{fill:url(#XMLID_23_);}
	.st51{fill:url(#XMLID_25_);}
	.st52{fill:url(#XMLID_26_);}
	.st53{fill:url(#XMLID_27_);}
	.st54{fill-rule:evenodd;clip-rule:evenodd;fill:url(#SVGID_28_);}
	.st55{fill:#C95534;}
	.st56{fill:url(#SVGID_29_);}
	.st57{fill:#A2CBF1;}
	.st58{fill:#157EBF;}
	.st59{clip-path:url(#SVGID_31_);fill:none;stroke:#2B89E0;stroke-width:2.8631;stroke-miterlimit:10;}
	.st60{fill:url(#SVGID_32_);}
	.st61{clip-path:url(#SVGID_34_);fill:none;stroke:#2B89E0;stroke-width:2.8631;stroke-miterlimit:10;}
	.st62{fill:#CC5D3F;}
	.st63{fill:#FFC66B;}
	.st64{fill:#FFE3A3;}
	.st65{fill:#2B89E0;}
	.st66{fill-rule:evenodd;clip-rule:evenodd;fill:#FAB315;}
	.st67{clip-path:url(#SVGID_37_);}
	.st68{clip-path:url(#SVGID_38_);}
	.st69{clip-path:url(#SVGID_41_);}
	.st70{clip-path:url(#SVGID_42_);}
	.st71{fill-rule:evenodd;clip-rule:evenodd;fill:url(#SVGID_43_);}
	.st72{clip-path:url(#SVGID_46_);}
	.st73{clip-path:url(#SVGID_47_);}
	.st74{clip-path:url(#SVGID_50_);}
	.st75{clip-path:url(#SVGID_51_);}
	.st76{fill-rule:evenodd;clip-rule:evenodd;fill:url(#SVGID_52_);}
	.st77{fill-rule:evenodd;clip-rule:evenodd;fill:#42433E;}
	.st78{clip-path:url(#SVGID_54_);}
	.st79{fill-rule:evenodd;clip-rule:evenodd;fill:#FFFFFF;}
	.st80{clip-path:url(#SVGID_57_);}
	.st81{clip-path:url(#SVGID_58_);}
	.st82{clip-path:url(#SVGID_61_);}
	.st83{clip-path:url(#SVGID_62_);}
	.st84{fill-rule:evenodd;clip-rule:evenodd;fill:url(#SVGID_63_);}
	.st85{clip-path:url(#SVGID_65_);}
	.st86{fill:#FAB010;}
	.st87{clip-path:url(#SVGID_68_);}
	.st88{clip-path:url(#SVGID_69_);}
	.st89{clip-path:url(#SVGID_72_);}
	.st90{clip-path:url(#SVGID_73_);}
	.st91{fill-rule:evenodd;clip-rule:evenodd;fill:url(#SVGID_74_);}
	.st92{fill:#AA5D0A;}
	.st93{clip-path:url(#SVGID_77_);}
	.st94{clip-path:url(#SVGID_78_);}
	.st95{clip-path:url(#SVGID_81_);}
	.st96{clip-path:url(#SVGID_82_);}
	.st97{fill-rule:evenodd;clip-rule:evenodd;fill:url(#SVGID_83_);}
	.st98{fill-rule:evenodd;clip-rule:evenodd;fill:#E9AB48;}
	.st99{fill-rule:evenodd;clip-rule:evenodd;fill:#AA2C0A;}
	.st100{fill-rule:evenodd;clip-rule:evenodd;fill:#FFE565;}
	.st101{fill-rule:evenodd;clip-rule:evenodd;fill:#753E22;}
	.st102{fill-rule:evenodd;clip-rule:evenodd;fill:#3CB13C;}
	.st103{clip-path:url(#SVGID_86_);}
	.st104{clip-path:url(#SVGID_87_);}
	.st105{clip-path:url(#SVGID_90_);}
	.st106{clip-path:url(#SVGID_91_);}
	.st107{fill-rule:evenodd;clip-rule:evenodd;fill:url(#SVGID_92_);}
	.st108{clip-path:url(#SVGID_95_);}
	.st109{clip-path:url(#SVGID_96_);}
	.st110{clip-path:url(#SVGID_99_);}
	.st111{clip-path:url(#SVGID_100_);}
	.st112{fill-rule:evenodd;clip-rule:evenodd;fill:url(#SVGID_101_);}
	.st113{fill:#A7A89E;}
	.st114{fill:none;stroke:#A7A89E;stroke-width:0.25;stroke-miterlimit:10;}
	.st115{fill:#FDBA1D;}
	.st116{fill:#FFFFFF;}
	.st117{fill:#42433E;}
	.st118{fill:#2B2B28;}
	.st119{fill:#111110;}
	.st120{clip-path:url(#SVGID_104_);}
	.st121{clip-path:url(#SVGID_105_);}
	.st122{clip-path:url(#SVGID_108_);}
	.st123{clip-path:url(#SVGID_109_);}
	.st124{fill-rule:evenodd;clip-rule:evenodd;fill:#33383F;}
	.st125{fill:#272E35;}
	.st126{fill-rule:evenodd;clip-rule:evenodd;fill:url(#SVGID_110_);}
	.st127{fill-rule:evenodd;clip-rule:evenodd;fill:#434E5B;}
	.st128{opacity:0.5;fill-rule:evenodd;clip-rule:evenodd;fill:#FDFEFE;}
	.st129{fill-rule:evenodd;clip-rule:evenodd;fill:#FF4100;}
	.st130{fill-rule:evenodd;clip-rule:evenodd;fill:#7A1A00;}
	.st131{fill-rule:evenodd;clip-rule:evenodd;fill:#11A700;}
	.st132{fill-rule:evenodd;clip-rule:evenodd;fill:#165500;}
	.st133{fill-rule:evenodd;clip-rule:evenodd;fill:#0072CC;}
	.st134{fill-rule:evenodd;clip-rule:evenodd;fill:#00446F;}
	.st135{fill-rule:evenodd;clip-rule:evenodd;fill:url(#SVGID_111_);}
	.st136{fill-rule:evenodd;clip-rule:evenodd;fill:url(#SVGID_112_);}
	.st137{fill-rule:evenodd;clip-rule:evenodd;fill:#FCCF4E;}
	.st138{clip-path:url(#SVGID_115_);}
	.st139{clip-path:url(#SVGID_116_);}
	.st140{fill:none;stroke:#FFFFFF;stroke-width:3.3578;stroke-miterlimit:10;}
	.st141{fill:none;stroke:#FFFFFF;stroke-width:0.6296;stroke-miterlimit:10;}
	.st142{fill:none;stroke:#FFFFFF;stroke-width:1.6789;stroke-miterlimit:10;}
	.st143{fill:none;stroke:#FFFFFF;stroke-width:1.4691;stroke-miterlimit:10;}
	.st144{fill:none;stroke:#FFFFFF;stroke-width:0.2099;stroke-miterlimit:10;}
	.st145{clip-path:url(#SVGID_119_);}
	.st146{clip-path:url(#SVGID_120_);}
	.st147{fill-rule:evenodd;clip-rule:evenodd;fill:none;stroke:#AA5D0A;stroke-width:0.9654;stroke-miterlimit:10;}
	.st148{fill-rule:evenodd;clip-rule:evenodd;fill:#272E35;}
	.st149{fill:#33383F;}
	.st150{fill-rule:evenodd;clip-rule:evenodd;fill:url(#SVGID_121_);}
	.st151{fill:#4F0000;}
	.st152{fill:url(#SVGID_122_);}
	.st153{clip-path:url(#SVGID_124_);}
	.st154{fill:#EF7031;}
	.st155{fill:#F9CC02;}
	.st156{fill:#929497;}
	.st157{fill:#FF4100;}
	.st158{fill:#231F20;}
	.st159{fill:#B3B3B3;}
	.st160{fill:#58595B;}
	.st161{fill-rule:evenodd;clip-rule:evenodd;fill:#FAB212;}
	.st162{fill-rule:evenodd;clip-rule:evenodd;fill:url(#SVGID_125_);}
	.st163{clip-path:url(#SVGID_128_);}
	.st164{clip-path:url(#SVGID_129_);}
	.st165{fill:none;stroke:#FFFFFF;stroke-width:3.7719;stroke-miterlimit:10;}
	.st166{fill:none;stroke:#FFFFFF;stroke-width:0.7072;stroke-miterlimit:10;}
	.st167{fill:none;stroke:#FFFFFF;stroke-width:1.8859;stroke-miterlimit:10;}
	.st168{fill:none;stroke:#FFFFFF;stroke-width:1.6502;stroke-miterlimit:10;}
	.st169{fill:none;stroke:#FFFFFF;stroke-width:0.2357;stroke-miterlimit:10;}
	.st170{clip-path:url(#SVGID_132_);}
	.st171{clip-path:url(#SVGID_133_);}
	.st172{fill:#FFD28C;}
	.st173{fill:#EEB96C;}
	.st174{fill:#DB84B5;}
	.st175{fill:#62B146;}
	.st176{fill:#A9C63D;}
	.st177{fill:#957F4B;}
	.st178{fill:#AD9568;}
	.st179{fill:#825F26;}
	.st180{fill:#CE7829;}
	.st181{fill:#AC5A26;}
	.st182{fill-rule:evenodd;clip-rule:evenodd;fill:none;stroke:#EAA211;stroke-width:5;stroke-miterlimit:10;}
	.st183{fill-rule:evenodd;clip-rule:evenodd;fill:url(#SVGID_134_);}
	.st184{fill:#FA852D;}
	.st185{fill:#F5752A;}
	.st186{fill:#F99E29;}
	.st187{fill-rule:evenodd;clip-rule:evenodd;fill:none;stroke:#FABA24;stroke-width:5;stroke-miterlimit:10;}
	.st188{fill-rule:evenodd;clip-rule:evenodd;fill:#EAA211;}
	.st189{fill-rule:evenodd;clip-rule:evenodd;fill:#FABA24;}
	.st190{fill:url(#SVGID_135_);}
	.st191{fill:url(#SVGID_136_);}
	.st192{filter:url(#Adobe_OpacityMaskFilter);}
	.st193{filter:url(#Adobe_OpacityMaskFilter_1_);}
	.st194{mask:url(#SVGID_137_);fill:url(#SVGID_138_);}
	.st195{opacity:0.14;fill:url(#SVGID_139_);}
	.st196{filter:url(#Adobe_OpacityMaskFilter_2_);}
	.st197{filter:url(#Adobe_OpacityMaskFilter_3_);}
	.st198{mask:url(#SVGID_140_);fill:url(#SVGID_141_);}
	.st199{opacity:0.14;fill:url(#SVGID_142_);}
	.st200{fill:url(#SVGID_143_);}
	.st201{fill:url(#SVGID_144_);}
	.st202{fill:url(#SVGID_145_);}
	.st203{fill:url(#SVGID_146_);}
	.st204{fill:#CBEAF6;}
	.st205{fill:#96D7ED;}
	.st206{fill:#F06888;}
	.st207{fill:#F395BE;}
	.st208{fill:#C84C27;}
	.st209{fill:#F16822;}
	.st210{fill:#F37940;}
	.st211{fill:#F37B4C;}
	.st212{fill:#4C3427;}
	.st213{fill:#9F3022;}
	.st214{fill-rule:evenodd;clip-rule:evenodd;fill:url(#SVGID_147_);}
	
		.st215{fill-rule:evenodd;clip-rule:evenodd;fill:none;stroke:#FAB010;stroke-width:10.343;stroke-linecap:round;stroke-linejoin:round;stroke-miterlimit:10;}
	
		.st216{fill-rule:evenodd;clip-rule:evenodd;fill:none;stroke:#FAB010;stroke-width:11;stroke-linecap:round;stroke-linejoin:round;stroke-miterlimit:10;}
	.st217{clip-path:url(#SVGID_150_);}
	.st218{clip-path:url(#SVGID_151_);}
	.st219{fill:none;stroke:#FFFFFF;stroke-width:4.33;stroke-miterlimit:10;}
	.st220{fill:none;stroke:#FFFFFF;stroke-width:0.8119;stroke-miterlimit:10;}
	.st221{fill:none;stroke:#FFFFFF;stroke-width:2.165;stroke-miterlimit:10;}
	.st222{fill:none;stroke:#FFFFFF;stroke-width:1.8944;stroke-miterlimit:10;}
	.st223{fill:none;stroke:#FFFFFF;stroke-width:0.2706;stroke-miterlimit:10;}
	.st224{clip-path:url(#SVGID_154_);}
	.st225{clip-path:url(#SVGID_155_);}
	.st226{fill:none;stroke:#A7A89E;stroke-width:0.2797;stroke-miterlimit:10;}
	
		.st227{fill-rule:evenodd;clip-rule:evenodd;fill:none;stroke:#FFFFFF;stroke-width:0.75;stroke-linecap:round;stroke-miterlimit:10;}
	.st228{fill-rule:evenodd;clip-rule:evenodd;fill:none;stroke:#FFFFFF;stroke-width:2.5187;stroke-miterlimit:10;}
	.st229{fill:#4F2706;}
	.st230{opacity:0.25;fill:#FFFFFF;}
	.st231{fill-rule:evenodd;clip-rule:evenodd;fill:#A7A89E;}
	.st232{fill-rule:evenodd;clip-rule:evenodd;fill:none;stroke:#42433E;stroke-width:0.9637;stroke-miterlimit:10;}
	.st233{opacity:0.5;fill:url(#SVGID_156_);}
	.st234{fill:#AEAFA3;}
	.st235{fill-rule:evenodd;clip-rule:evenodd;fill:url(#SVGID_157_);}
	.st236{fill:url(#SVGID_158_);}
	.st237{opacity:0.4;}
	.st238{fill:url(#SVGID_159_);}
	.st239{fill-rule:evenodd;clip-rule:evenodd;fill:none;stroke:#FAB011;stroke-width:5.3617;stroke-miterlimit:10;}
	
		.st240{fill-rule:evenodd;clip-rule:evenodd;fill:none;stroke:#FABA24;stroke-width:3;stroke-linecap:round;stroke-linejoin:round;stroke-miterlimit:10;}
	
		.st241{fill-rule:evenodd;clip-rule:evenodd;fill:none;stroke:#FABA24;stroke-width:2;stroke-linecap:round;stroke-linejoin:round;stroke-miterlimit:10;}
	
		.st242{fill-rule:evenodd;clip-rule:evenodd;fill:none;stroke:#FABA24;stroke-width:2.5;stroke-linecap:round;stroke-linejoin:round;stroke-miterlimit:10;}
	.st243{fill-rule:evenodd;clip-rule:evenodd;fill:url(#SVGID_160_);}
	.st244{fill-rule:evenodd;clip-rule:evenodd;fill:url(#SVGID_161_);}
	.st245{opacity:0.5;fill:#FFE3A3;}
	.st246{fill-rule:evenodd;clip-rule:evenodd;fill:#32383F;}
	.st247{fill:#32383F;}
	.st248{fill:url(#SVGID_162_);}
	.st249{filter:url(#Adobe_OpacityMaskFilter_4_);}
	.st250{filter:url(#Adobe_OpacityMaskFilter_5_);}
	.st251{mask:url(#SVGID_163_);fill:url(#SVGID_164_);}
	.st252{opacity:0.5;fill:url(#SVGID_165_);}
	.st253{filter:url(#Adobe_OpacityMaskFilter_6_);}
	.st254{filter:url(#Adobe_OpacityMaskFilter_7_);}
	.st255{mask:url(#SVGID_166_);fill:url(#SVGID_167_);}
	.st256{opacity:0.5;fill:url(#SVGID_168_);}
	.st257{fill:url(#SVGID_169_);}
	.st258{opacity:0.5;}
	.st259{fill:#FFFDF0;}
	.st260{fill-rule:evenodd;clip-rule:evenodd;fill:none;stroke:#32383F;stroke-width:2;stroke-linecap:round;stroke-miterlimit:10;}
	.st261{opacity:0.2;}
	.st262{fill:none;stroke:#FDFEFE;stroke-width:2;stroke-miterlimit:10;}
	.st263{fill:none;stroke:#FDFEFE;stroke-width:2;stroke-miterlimit:10;stroke-dasharray:1.0301,8.2408;}
</style>
<g>
	<g id="Shape_9_20_" class="st0">
		<g>
			<path class="st1" d="M66.8,100.7c7.8-12.8,16-23.3,36.2-27.9c20.1-4.6,42.4,1.8,55.1,10.7c12.6,8.9,35.9,36.4,27.5,63.6
				c-8.3,27.2-43.1,28-59.7,27.3c-16.7-0.7-42.8-1.8-58-21.2C55.2,136.9,55.5,119.2,66.8,100.7z"/>
		</g>
	</g>
	<g>
		
			<radialGradient id="SVGID_1_" cx="117.4219" cy="99.5724" r="52.434" gradientTransform="matrix(-1 0 0 1 245.76 0)" gradientUnits="userSpaceOnUse">
			<stop  offset="0" style="stop-color:#FCD253"/>
			<stop  offset="1" style="stop-color:#FAB010"/>
		</radialGradient>
		<path class="st2" d="M88.6,92.7c-14.7,15.5-23.4,36-6.8,58c11.7,15.4,49.9,18.3,69.1,12c18.4-6.1,27.7-20.9,18.1-44.8
			C159.4,93.9,138.3,86.6,131,85C122.9,83.2,102.8,77.7,88.6,92.7z"/>
	</g>
	<path class="st3" d="M189.7,111.8c0,0-4.9-0.1-6.8,0.4c-2,0.5-4.1,1.9-4.1,1.9s3.1,0.8,4.7,0.2
		C184.9,113.6,189.7,111.8,189.7,111.8z"/>
	<path class="st3" d="M184.8,92.9c0,0-6.6,1.5-9.2,2.6c-2.6,1.1-5.5,3.2-5.5,3.2s4.2-0.2,6.3-1.3C178.5,96.2,184.8,92.9,184.8,92.9z
		"/>
	<path class="st3" d="M116.4,59.3c0,0-1.5,6.9-1.2,9.9c0.3,3,1.8,6.7,1.8,6.7s2.1-4.1,1.6-6.6C118,66.8,116.4,59.3,116.4,59.3z"/>
	<path class="st3" d="M150,66.4c0,0-3.5,4.3-4.2,6.1c-0.6,1.6-0.6,3.7-0.6,3.7s2.2-1.3,2.6-2.7C148.1,72.5,150,66.4,150,66.4z"/>
	<path class="st3" d="M72.8,171.1c0,0,5.4-3.2,7-4.8c1.4-1.4,2.5-3.5,2.5-3.5s-2.7,0.5-3.8,1.8C77.7,165.5,72.8,171.1,72.8,171.1z"
		/>
	<path class="st3" d="M84.9,58c0,0,3.5,11.3,6.3,16.6c2.8,5.4,7.5,6.7,7.5,6.7s-0.3-4.7-2.5-8.9C94,68.4,84.9,58,84.9,58z"/>
	<g>
		<path class="st4" d="M105.4,188.4c2.8-0.2,9.6,0.6,3,4.1c-5.8,3.2-12.6,5-16.3,5.4c-4.5,0.5-9.8-3.8-5.9-4.9
			c3.9-1.1,6.7-2,9.8-2.6C99.9,189.8,103.2,188.6,105.4,188.4z"/>
		<path class="st3" d="M108.6,160.4c-0.6,4.8-1.3,8.9-2.2,13.3c-0.5,2.6-3,10.9-4.2,13.1c-1,1.8-4.5,2.6-7.9,3.7
			c-3.5,1.1-10,2.9-4.4,4.5c2.6,0.8,6.8,0,11.3-1.3c4.4-1.2,7.5-2.8,7.8-4.4c0.5-2.8,2.2-8.7,2.7-12.3c0.8-4.9,0.9-8.1,1.7-13.6
			C114.3,156.8,109.1,156.6,108.6,160.4z"/>
		<path class="st4" d="M101.7,193.9c0,0-0.8-2.3-2.9-3.3c-3.5-1.6-5.8-1-7.9-0.2c-2.1,0.8-1.9,2.1-1.9,2.1s1.2-0.5,3.2-0.4
			s3.1,1.7,3.3,3.1C97.6,195.8,101.7,193.9,101.7,193.9z"/>
	</g>
	<g>
		<path class="st4" d="M126.6,185.4c-2.5,0.1-8.4,1.5-2.3,4c5.5,2.2,11.6,3.2,15,3.2c4,0,8.3-4.3,4.7-4.9c-3.6-0.6-6.1-1.1-8.9-1.3
			C131.7,186.1,128.6,185.3,126.6,185.4z"/>
		<path class="st3" d="M134,163.2c-1.2,4.2-2.3,8-3.1,11.9c-0.5,2.3-1.3,6.8-1.6,8.6c-0.3,1.8,4.2,1.9,7.4,2.5
			c3.2,0.6,9.2,1.6,4.4,3.5c-2.3,0.9-6.1,0.7-10.1,0c-4-0.7-7.3-1.6-7.4-3.2c-0.1-2.5,0.9-5.5,1.7-8.7c1.1-4.3,2.5-9,3.8-13.9
			C130.7,158.3,135,159.9,134,163.2z"/>
		<path class="st4" d="M130.4,190c0,0,0.5-2.1,2.3-3.2c2.9-1.8,5-1.5,7-0.9c2,0.5,1.9,1.7,1.9,1.7s-1.1-0.3-2.8,0
			c-1.7,0.3-2.6,1.9-2.6,3C134.3,191.2,130.4,190,130.4,190z"/>
	</g>
	<g>
		<path class="st3" d="M59.8,145.2c0,0,2.2,4.5,7.1,4.5c4.9,0,10.2-4.5,10.2-4.5s1.7-1.3,2.9,0c1.2,1.3-0.1,1.9-1.1,2.7
			s-7.7,6.7-14.2,6.1c-6.5-0.5-9.7-8.2-9.7-8.2c-1.1,0.1-9.3-2.5-2.6-5.1C58.3,138.3,64.2,144.1,59.8,145.2z"/>
	</g>
	<g>
		<g>
			<path class="st3" d="M165.9,142.5c2.2,4.2,4.9,7.1,7.4,11.7c2.8,5.1,6.4,5.1,10.6,1.6c3.6-2.9,5.2-3.8,8.7-6.1
				c2.6,0.4,4.9-1.4,5.5-3.6c0.9-3.2,0.5-6.1-2.2-6.9s-4.6-1.2-6.2,0.6c-1.6,1.8-1.3,3.3-1.3,5.2c-1.5,1.2-3.4,3.2-5.2,4.3
				c-1.7,1-3.1,3.5-5.3,1.3c-2.2-2.2-6.6-8.1-8.1-10.2s-1.6-1.4-3-0.8C165.5,140.1,165.2,141.1,165.9,142.5z"/>
		</g>
		<path class="st3" d="M188.6,141.7c0.3-1.4-1.3-5.7,0.8-6.4c2.1-0.7,3.2,4.1,2.3,5.7C190.7,141.3,189.7,141.5,188.6,141.7z"/>
	</g>
	<polygon class="st5" points="80.7,92.9 69.7,98.9 56.6,92.6 57.2,74.3 74.6,69.1 83.9,80.6 	"/>
	<polygon class="st6" points="87.5,98 80.1,101.4 70.4,96.6 69.6,84.9 81.3,82.1 88.8,89.9 	"/>
	<g>
		<path class="st77" d="M70.2,148c0.5,0.1,1.1,0.1,1.6,0l27.6-6c5.2-1.1,5.7-2,6.7-3.1c0,0,1-1.1-1.8-1.9
			c-1.2-0.3-41.5-5.3-41.5-5.3c-0.4,0-11,2.8-11.4,2.9l-14.9,4.1c-0.5,0.1-0.5,0.9,0,1.1L70.2,148z"/>
		<polygon class="st113" points="96.4,141 92.3,142.1 57.5,136.8 60.9,136.3 		"/>
		<polygon class="st114" points="87.6,135.5 81.2,137.6 69.9,135.9 75.2,134.1 		"/>
		<polygon class="st114" points="87.6,135.5 85,136.2 73.8,134.6 75.2,134.1 		"/>
		<polygon class="st113" points="90.2,142.5 85,143.7 52.1,137.5 55,137 		"/>
		<polygon class="st113" points="82.7,144.4 78.3,145.3 46.8,138.5 50.3,137.9 		"/>
		<polygon class="st113" points="76.2,146 71.7,146.9 42,139.3 45.1,138.8 		"/>
		<path class="st77" d="M62.6,94.4l-27.9,8c-1.7,0.5-2.8,2.1-2.6,3.8l2.3,30.3c0.1,1.6,1.2,2.9,2.8,3.3l29,7.2
			c2.4,0.6,4.7-1.3,4.5-3.8l-3.4-45.6C67.1,95.3,64.8,93.7,62.6,94.4z"/>
		<g>
			<path class="st115" d="M52.1,123.9c0.2-4.6-2-9.8-4.9-11.5c-2.9-1.7-5.3,0.6-5.5,5.3c-0.2,4.5,1.9,9.5,4.6,11.3l0-0.2l0.1,0
				c0,0,0,0,0,0c0-0.1,0-0.1,0.1-0.2c0-0.1,0-0.1,0.1-0.2c0-0.1,0-0.1,0-0.2c0-0.1,0-0.1,0-0.2c0-0.1,0-0.1,0-0.2c0-0.1,0-0.1,0-0.2
				c0-0.1,0-0.1,0-0.2c0-0.1,0-0.2,0-0.2c0-0.1,0-0.1,0-0.2c0-0.1,0-0.2,0-0.3c0-0.1,0-0.1,0-0.2c0-0.1,0-0.2,0-0.4
				c0-0.1,0-0.1,0-0.2c0-0.2,0-0.4,0-0.6c0.2-2.8-0.3-5.4-0.3-5.4s-0.5-0.2-0.9,0.5c-0.4,0.7-0.2,1.8-0.2,1.8s-0.3-0.8-0.4-1.3
				c-0.1-0.5-0.1-1.1,0-1.8c0.1-1,0.7-1,0.7-1s-0.9-1-1.3-0.6c-0.5,0.5-0.7,2.4-0.7,2.4s-0.4-2.6,0.2-3.7c0.6-1.1,2,0.3,2,0.3
				s-0.1-0.4-0.9-1.3c-0.9-1-1.4-0.9-1.4-0.9s0.3-0.5,1.1-0.3c0.8,0.2,1.4,1.5,1.4,1.5s0.2-0.6,1.1-0.4c0.9,0.2,1.4,2.1,1.4,2.1
				s-0.5-0.8-1.1-0.9c-0.6-0.1-0.7,0.6-0.7,0.6s1.3,0.7,2,2.3c0.8,1.5,0.6,3.6,0.6,3.6s-0.3-1.6-1.1-2.9c-0.8-1.3-1.2-1-1.2-1
				s0.7,0.9,1,2.2c0.3,1.3-0.3,3.2-0.3,3.2s0.1-1.5-0.2-2.7c-0.3-1.2-0.7-1.7-0.7-1.7s0.6,3.2,0.4,6.4c0,0.5-0.1,1-0.1,1.4
				c0,0.2-0.1,0.3-0.1,0.5c0,0.2-0.1,0.4-0.1,0.7l0.1,0.1l-0.2,0.1C49.8,130.6,52,128.2,52.1,123.9z"/>
			<path class="st115" d="M47.2,129.3c0,0,0,0.1,0,0.2c0,0-0.8-0.4-0.8-0.5c0,0,0-0.1,0-0.1l-0.1,0l0,0.2c0.3,0.2,0.8,0.5,0.8,0.5
				l0.2-0.1L47.2,129.3z"/>
			<path class="st116" d="M47.2,129.4c0,0,0-0.1,0-0.2c0-0.2,0.1-0.4,0.1-0.7c0-0.2,0.1-0.3,0.1-0.5c0.1-0.5,0.1-0.9,0.1-1.4
				c0.2-3.2-0.4-6.4-0.4-6.4s0.4,0.5,0.7,1.7c0.3,1.2,0.2,2.7,0.2,2.7s0.5-1.9,0.3-3.2c-0.3-1.4-1-2.2-1-2.2s0.4-0.3,1.2,1
				c0.7,1.3,1.1,2.9,1.1,2.9s0.1-2.1-0.6-3.6c-0.8-1.6-2-2.3-2-2.3s0-0.6,0.7-0.6c0.6,0.1,1.1,0.9,1.1,0.9s-0.5-1.8-1.4-2.1
				c-0.9-0.2-1.1,0.4-1.1,0.4s-0.6-1.3-1.4-1.5c-0.9-0.2-1.1,0.3-1.1,0.3s0.5-0.1,1.4,0.9c0.8,0.9,0.9,1.3,0.9,1.3s-1.4-1.4-2-0.3
				c-0.6,1.1-0.2,3.7-0.2,3.7s0.2-1.9,0.7-2.4c0.5-0.5,1.3,0.6,1.3,0.6s-0.6-0.1-0.7,1c-0.1,0.6,0,1.3,0,1.8
				c0.1,0.5,0.4,1.3,0.4,1.3s-0.2-1,0.2-1.8c0.4-0.7,0.9-0.5,0.9-0.5s0.5,2.6,0.3,5.4c0,0.2,0,0.4,0,0.6c0,0.1,0,0.1,0,0.2
				c0,0.1,0,0.2,0,0.4c0,0.1,0,0.1,0,0.2c0,0.1,0,0.2,0,0.3c0,0.1,0,0.1,0,0.2c0,0.1,0,0.2,0,0.2c0,0.1,0,0.1,0,0.2
				c0,0.1,0,0.1,0,0.2c0,0.1,0,0.1,0,0.2c0,0.1,0,0.1,0,0.2c0,0.1,0,0.1,0,0.2c0,0.1,0,0.1-0.1,0.2c0,0.1,0,0.1-0.1,0.2c0,0,0,0,0,0
				c0,0,0,0.1,0,0.1C46.4,129,47.2,129.4,47.2,129.4z"/>
		</g>
		<polygon class="st117" points="90.9,139.9 85.8,141.3 83.7,141.3 89.4,139.9 		"/>
		<polygon class="st117" points="85.7,139.2 80.6,140.5 79.3,140.4 84.9,139.1 		"/>
		<path class="st117" d="M86.1,141.7c-0.1,0-5.4,1.6-5.4,1.6l-1.4-0.2l5.7-1.7L86.1,141.7z"/>
		<polygon class="st117" points="79.3,140.4 74.4,142.1 73.6,142 78.5,140.3 		"/>
		<polygon class="st117" points="75.7,139.9 71,141.4 70.5,141.3 75,139.8 		"/>
		<polygon class="st117" points="71.5,139.4 70,140.3 69,140.3 71.1,139.3 		"/>
		<polygon class="st117" points="76.4,142.9 72.2,144.2 71.4,144.2 75.7,142.7 		"/>
		<polygon class="st117" points="72.3,142.1 69.4,143.2 68.7,143 71.8,142 		"/>
		<polygon class="st117" points="73.1,145 68.7,146.3 67.8,146 72.4,144.8 		"/>
		<path class="st118" d="M103.7,140.3c-0.2,0-35.3,7.4-32.5,7.9c1.5,0.3,8.9,0,31.9-6.9C103.1,141.2,105.1,140.2,103.7,140.3z"/>
		<path class="st119" d="M76.3,146.8l3.3-0.7c0,0,0.4,0.9,0.3,0.9c-0.1,0-3.3,0.6-3.3,0.6L76.3,146.8z"/>
		<polygon class="st117" points="78.8,146.4 79.5,146.2 79.7,147 79.1,147 		"/>
		<path class="st119" d="M80.2,146l3.3-0.7c0,0,0.4,0.9,0.3,0.9s-3.3,0.6-3.3,0.6L80.2,146z"/>
		<polygon class="st117" points="82.8,145.5 83.4,145.4 83.7,146.1 83.1,146.2 		"/>
		<ellipse class="st119" cx="85.2" cy="145.3" rx="0.5" ry="0.5"/>
		<path class="st117" d="M85.1,145.8c0.2,0,0.2-0.2,0.2-0.5c0-0.3-0.1-0.5-0.2-0.5c0,0,0.4,0,0.4,0.5
			C85.6,145.8,85.1,145.8,85.1,145.8z"/>
	</g>
	<line class="st114" x1="80.9" y1="134.7" x2="79.4" y2="135.4"/>
	<g>
		<path d="M114.5,78.2c0.8-1.1,1.7-2,2.8-2.9c1.1-0.8,2.3-1.5,3.6-2c1.3-0.4,2.7-0.6,4.1-0.4c1.4,0.3,2.6,1.1,3.4,2.1
			c-1.1-0.7-2.3-1.2-3.6-1.4c-1.2-0.1-2.5,0.1-3.7,0.5c-1.2,0.4-2.3,1-3.4,1.7C116.6,76.6,115.5,77.3,114.5,78.2z"/>
	</g>
	<g>
		<path d="M138.4,84.8c0.6-0.9,1.4-1.6,2.2-2.3c0.9-0.6,1.8-1.2,2.9-1.4c1.1-0.3,2.2-0.3,3.3,0.1c1.1,0.4,1.9,1.2,2.5,2.1
			c-0.9-0.6-1.7-1.1-2.7-1.3c-0.9-0.2-1.9-0.1-2.8,0.2c-0.9,0.2-1.8,0.7-2.7,1.1C140.1,83.7,139.2,84.3,138.4,84.8z"/>
	</g>
	<g>
		<path class="st9" d="M145.1,93.4c0.4,0,3.2,0.3,4.9,1.5c1.2,0.9,2.1,1.9,2.1,2.7c0,0.5-0.4,0.8-1.2,0.9c-0.1,0-0.2,0-0.4,0
			c-1.8,0-3.5-1.4-4.4-1.9c-1-0.6-1.9-1.5-2.3-2.2c-0.1-0.1-0.1-0.2-0.1-0.3C143.8,93.6,144.6,93.4,145.1,93.4
			C145,93.4,145.1,93.4,145.1,93.4"/>
	</g>
	<path class="st10" d="M106,86.1c5.1-1.9,11.6-1,13.4,2.3c0.9,1.6-1.6,3.8-6.3,4.7c-3.1,0.6-6.1,1.3-8.7-1.3
		C102.9,90.3,101.9,87.6,106,86.1z"/>
	<path class="st11" d="M105.1,75.9l48.8,13.9c0,0,0.8,8.9-7.7,6.9c-8.5-2-13.2-10.9-13.2-10.9s-3,7.9-14,5.3
		C108.1,88.5,105.1,75.9,105.1,75.9z"/>
	<g>
		<defs>
			<path id="SVGID_102_" d="M132.4,84.7l-0.3,0.7c-0.1,0.3-2.9,7.1-12.8,4.7c-7.9-1.9-11.4-9.4-12.6-12.8L132.4,84.7z"/>
		</defs>
		<defs>
			<path id="SVGID_103_" d="M132.4,84.7l-0.3,0.7c-0.1,0.3-2.9,7.1-12.8,4.7c-7.9-1.9-11.4-9.4-12.6-12.8L132.4,84.7z"/>
		</defs>
		<clipPath id="SVGID_4_">
			<use xlink:href="#SVGID_102_"  style="overflow:visible;"/>
		</clipPath>
		<clipPath id="SVGID_5_" class="st12">
			<use xlink:href="#SVGID_103_"  style="overflow:visible;"/>
		</clipPath>
		<g class="st13">
			<line class="st14" x1="119.5" y1="77.1" x2="133.1" y2="105.6"/>
			<line class="st14" x1="119.5" y1="77.1" x2="133.1" y2="105.6"/>
			<line class="st15" x1="127.8" y1="80.1" x2="140.2" y2="106.2"/>
			<line class="st15" x1="127.8" y1="80.1" x2="140.2" y2="106.2"/>
			<line class="st16" x1="124.7" y1="78.7" x2="137.7" y2="106"/>
			<line class="st16" x1="124.7" y1="78.7" x2="137.7" y2="106"/>
			<line class="st17" x1="107.6" y1="75.2" x2="121.7" y2="104.8"/>
			<line class="st17" x1="107.6" y1="75.2" x2="121.7" y2="104.8"/>
			<line class="st18" x1="105.5" y1="75" x2="119.6" y2="104.6"/>
			<line class="st18" x1="105.5" y1="75" x2="119.6" y2="104.6"/>
		</g>
	</g>
	<g>
		<defs>
			<path id="SVGID_106_" d="M133.9,85.1l0.1,0.2c0,0.1,4.6,8.5,12.5,10.4c2.1,0.5,3.7,0.3,4.8-0.6c1.4-1.2,1.6-3.4,1.7-4.5
				L133.9,85.1z"/>
		</defs>
		<defs>
			<path id="SVGID_107_" d="M133.9,85.1l0.1,0.2c0,0.1,4.6,8.5,12.5,10.4c2.1,0.5,3.7,0.3,4.8-0.6c1.4-1.2,1.6-3.4,1.7-4.5
				L133.9,85.1z"/>
		</defs>
		<clipPath id="SVGID_8_">
			<use xlink:href="#SVGID_106_"  style="overflow:visible;"/>
		</clipPath>
		<clipPath id="SVGID_9_" class="st19">
			<use xlink:href="#SVGID_107_"  style="overflow:visible;"/>
		</clipPath>
		<g class="st20">
			<line class="st14" x1="140.9" y1="82.9" x2="152.5" y2="107.1"/>
			<line class="st14" x1="140.9" y1="82.9" x2="152.5" y2="107.1"/>
			<line class="st15" x1="137.1" y1="82.6" x2="148.6" y2="106.8"/>
			<line class="st15" x1="137.1" y1="82.6" x2="148.6" y2="106.8"/>
		</g>
	</g>
	<g>
		<path class="st7" d="M123.7,94.5l-1.7-1c0,0-0.3,2.4,0.2,4.1c0.7,2.1,2.4,4.3,4.8,4.8c2.4,0.5,3.7,0,4.3-1c0.6-1,0.1-1.5,0-1.7
			c-0.1-0.2-1.9-2.9-1.9-2.9"/>
		<path class="st8" d="M131.7,99.1c0,0,0.7,2.1-1.2,2.6c-1.9,0.6-3.7,0.8-5.3-0.7s-2.5-2.9-2.6-4.1s0.2-1.9,0.2-1.9s4.5,3.6,6,3.8
			c1.5,0.2,1.7,0.2,1.7,0.2H131.7z"/>
		<path class="st8" d="M133.6,96.9c0,0-0.6,3.3-2.6,3.4c-2,0.1-2.8,0.1-4.1-0.2c-1.2-0.4-3.4-2.4-4.1-3.6c-0.7-1.2-0.5-2.6-0.5-2.6
			s2.4,2,4.8,2.6C128.6,96.8,131.4,97.3,133.6,96.9z"/>
		<path class="st7" d="M135,96.7c0,0-4.6,0.5-8-0.8c-3.4-1.4-5.2-2.5-5.2-2.5s4.4,3.3,6,3.7C129.3,97.5,132,97.3,135,96.7z"/>
	</g>
</g>
</svg>
