<?xml version="1.0" encoding="utf-8"?>
<!-- Generator: Adobe Illustrator 22.0.0, SVG Export Plug-In . SVG Version: 6.00 Build 0)  -->
<svg version="1.1" id="mascotte" xmlns="http://www.w3.org/2000/svg" xmlns:xlink="http://www.w3.org/1999/xlink" x="0px" y="0px"
	 viewBox="0 0 245.8 245.8" style="enable-background:new 0 0 245.8 245.8;" xml:space="preserve">
<style type="text/css">
	.st0{opacity:0.6;}
	.st1{fill-rule:evenodd;clip-rule:evenodd;fill:#FFDF43;}
	.st2{fill-rule:evenodd;clip-rule:evenodd;fill:url(#SVGID_1_);}
	.st3{fill-rule:evenodd;clip-rule:evenodd;fill:#FAB010;}
	.st4{fill-rule:evenodd;clip-rule:evenodd;fill:#157EBF;}
	.st5{opacity:0.6;fill:#FFE565;}
	.st6{opacity:0.6;fill:#FCDE48;}
	.st7{fill-rule:evenodd;clip-rule:evenodd;fill:#AA5D0A;}
	.st8{fill-rule:evenodd;clip-rule:evenodd;fill:#FDFEFE;}
	.st9{fill:#C8650D;}
	.st10{fill-rule:evenodd;clip-rule:evenodd;fill:#C8650D;}
	.st11{fill-rule:evenodd;clip-rule:evenodd;}
	.st12{clip-path:url(#SVGID_4_);}
	.st13{clip-path:url(#SVGID_5_);}
	.st14{fill:none;stroke:#FFFFFF;stroke-width:4;stroke-miterlimit:10;}
	.st15{fill:none;stroke:#FFFFFF;stroke-width:0.75;stroke-miterlimit:10;}
	.st16{fill:none;stroke:#FFFFFF;stroke-width:2;stroke-miterlimit:10;}
	.st17{fill:none;stroke:#FFFFFF;stroke-width:1.75;stroke-miterlimit:10;}
	.st18{fill:none;stroke:#FFFFFF;stroke-width:0.25;stroke-miterlimit:10;}
	.st19{clip-path:url(#SVGID_8_);}
	.st20{clip-path:url(#SVGID_9_);}
	.st21{fill-rule:evenodd;clip-rule:evenodd;fill:url(#SVGID_10_);}
	.st22{clip-path:url(#SVGID_13_);}
	.st23{clip-path:url(#SVGID_14_);}
	.st24{clip-path:url(#SVGID_17_);}
	.st25{clip-path:url(#SVGID_18_);}
	.st26{fill-rule:evenodd;clip-rule:evenodd;fill:url(#SVGID_19_);}
	.st27{clip-path:url(#SVGID_22_);}
	.st28{clip-path:url(#SVGID_23_);}
	.st29{clip-path:url(#SVGID_26_);}
	.st30{clip-path:url(#SVGID_27_);}
	.st31{fill:none;}
	.st32{fill:#4D2200;}
	.st33{fill:#3B5172;}
	.st34{fill:#60BFBB;}
	.st35{fill:#B3E5E2;}
	.st36{fill:#9BFFF8;}
	.st37{fill:url(#XMLID_7_);}
	.st38{fill:url(#XMLID_8_);}
	.st39{fill:url(#XMLID_9_);}
	.st40{fill:url(#XMLID_10_);}
	.st41{fill:url(#XMLID_11_);}
	.st42{fill:url(#XMLID_12_);}
	.st43{fill:url(#XMLID_13_);}
	.st44{fill:url(#XMLID_15_);}
	.st45{fill:url(#XMLID_16_);}
	.st46{fill:url(#XMLID_18_);}
	.st47{fill:url(#XMLID_20_);}
	.st48{fill:url(#XMLID_21_);}
	.st49{fill:url(#XMLID_22_);}
	.st50{fill:url(#XMLID_23_);}
	.st51{fill:url(#XMLID_25_);}
	.st52{fill:url(#XMLID_26_);}
	.st53{fill:url(#XMLID_27_);}
	.st54{fill-rule:evenodd;clip-rule:evenodd;fill:url(#SVGID_28_);}
	.st55{fill:#C95534;}
	.st56{fill:url(#SVGID_29_);}
	.st57{fill:#A2CBF1;}
	.st58{fill:#157EBF;}
	.st59{clip-path:url(#SVGID_31_);fill:none;stroke:#2B89E0;stroke-width:2.8631;stroke-miterlimit:10;}
	.st60{fill:url(#SVGID_32_);}
	.st61{clip-path:url(#SVGID_34_);fill:none;stroke:#2B89E0;stroke-width:2.8631;stroke-miterlimit:10;}
	.st62{fill:#CC5D3F;}
	.st63{fill:#FFC66B;}
	.st64{fill:#FFE3A3;}
	.st65{fill:#2B89E0;}
	.st66{fill-rule:evenodd;clip-rule:evenodd;fill:#FAB315;}
	.st67{clip-path:url(#SVGID_37_);}
	.st68{clip-path:url(#SVGID_38_);}
	.st69{clip-path:url(#SVGID_41_);}
	.st70{clip-path:url(#SVGID_42_);}
	.st71{fill-rule:evenodd;clip-rule:evenodd;fill:url(#SVGID_43_);}
	.st72{clip-path:url(#SVGID_46_);}
	.st73{clip-path:url(#SVGID_47_);}
	.st74{clip-path:url(#SVGID_50_);}
	.st75{clip-path:url(#SVGID_51_);}
	.st76{fill-rule:evenodd;clip-rule:evenodd;fill:url(#SVGID_52_);}
	.st77{fill-rule:evenodd;clip-rule:evenodd;fill:#42433E;}
	.st78{clip-path:url(#SVGID_54_);}
	.st79{fill-rule:evenodd;clip-rule:evenodd;fill:#FFFFFF;}
	.st80{clip-path:url(#SVGID_57_);}
	.st81{clip-path:url(#SVGID_58_);}
	.st82{clip-path:url(#SVGID_61_);}
	.st83{clip-path:url(#SVGID_62_);}
	.st84{fill-rule:evenodd;clip-rule:evenodd;fill:url(#SVGID_63_);}
	.st85{clip-path:url(#SVGID_65_);}
	.st86{fill:#FAB010;}
	.st87{clip-path:url(#SVGID_68_);}
	.st88{clip-path:url(#SVGID_69_);}
	.st89{clip-path:url(#SVGID_72_);}
	.st90{clip-path:url(#SVGID_73_);}
	.st91{fill-rule:evenodd;clip-rule:evenodd;fill:url(#SVGID_74_);}
	.st92{fill:#AA5D0A;}
	.st93{clip-path:url(#SVGID_77_);}
	.st94{clip-path:url(#SVGID_78_);}
	.st95{clip-path:url(#SVGID_81_);}
	.st96{clip-path:url(#SVGID_82_);}
	.st97{fill-rule:evenodd;clip-rule:evenodd;fill:url(#SVGID_83_);}
	.st98{fill-rule:evenodd;clip-rule:evenodd;fill:#E9AB48;}
	.st99{fill-rule:evenodd;clip-rule:evenodd;fill:#AA2C0A;}
	.st100{fill-rule:evenodd;clip-rule:evenodd;fill:#FFE565;}
	.st101{fill-rule:evenodd;clip-rule:evenodd;fill:#753E22;}
	.st102{fill-rule:evenodd;clip-rule:evenodd;fill:#3CB13C;}
	.st103{clip-path:url(#SVGID_86_);}
	.st104{clip-path:url(#SVGID_87_);}
	.st105{clip-path:url(#SVGID_90_);}
	.st106{clip-path:url(#SVGID_91_);}
	.st107{fill-rule:evenodd;clip-rule:evenodd;fill:url(#SVGID_92_);}
	.st108{clip-path:url(#SVGID_95_);}
	.st109{clip-path:url(#SVGID_96_);}
	.st110{clip-path:url(#SVGID_99_);}
	.st111{clip-path:url(#SVGID_100_);}
	.st112{fill-rule:evenodd;clip-rule:evenodd;fill:url(#SVGID_101_);}
	.st113{fill:#A7A89E;}
	.st114{fill:none;stroke:#A7A89E;stroke-width:0.25;stroke-miterlimit:10;}
	.st115{fill:#FDBA1D;}
	.st116{fill:#FFFFFF;}
	.st117{fill:#42433E;}
	.st118{fill:#2B2B28;}
	.st119{fill:#111110;}
	.st120{clip-path:url(#SVGID_104_);}
	.st121{clip-path:url(#SVGID_105_);}
	.st122{clip-path:url(#SVGID_108_);}
	.st123{clip-path:url(#SVGID_109_);}
	.st124{fill-rule:evenodd;clip-rule:evenodd;fill:#33383F;}
	.st125{fill:#272E35;}
	.st126{fill-rule:evenodd;clip-rule:evenodd;fill:url(#SVGID_110_);}
	.st127{fill-rule:evenodd;clip-rule:evenodd;fill:#434E5B;}
	.st128{opacity:0.5;fill-rule:evenodd;clip-rule:evenodd;fill:#FDFEFE;}
	.st129{fill-rule:evenodd;clip-rule:evenodd;fill:#FF4100;}
	.st130{fill-rule:evenodd;clip-rule:evenodd;fill:#7A1A00;}
	.st131{fill-rule:evenodd;clip-rule:evenodd;fill:#11A700;}
	.st132{fill-rule:evenodd;clip-rule:evenodd;fill:#165500;}
	.st133{fill-rule:evenodd;clip-rule:evenodd;fill:#0072CC;}
	.st134{fill-rule:evenodd;clip-rule:evenodd;fill:#00446F;}
	.st135{fill-rule:evenodd;clip-rule:evenodd;fill:url(#SVGID_111_);}
	.st136{fill-rule:evenodd;clip-rule:evenodd;fill:url(#SVGID_112_);}
	.st137{fill-rule:evenodd;clip-rule:evenodd;fill:#FCCF4E;}
	.st138{clip-path:url(#SVGID_115_);}
	.st139{clip-path:url(#SVGID_116_);}
	.st140{fill:none;stroke:#FFFFFF;stroke-width:3.3578;stroke-miterlimit:10;}
	.st141{fill:none;stroke:#FFFFFF;stroke-width:0.6296;stroke-miterlimit:10;}
	.st142{fill:none;stroke:#FFFFFF;stroke-width:1.6789;stroke-miterlimit:10;}
	.st143{fill:none;stroke:#FFFFFF;stroke-width:1.4691;stroke-miterlimit:10;}
	.st144{fill:none;stroke:#FFFFFF;stroke-width:0.2099;stroke-miterlimit:10;}
	.st145{clip-path:url(#SVGID_119_);}
	.st146{clip-path:url(#SVGID_120_);}
	.st147{fill-rule:evenodd;clip-rule:evenodd;fill:none;stroke:#AA5D0A;stroke-width:0.9654;stroke-miterlimit:10;}
	.st148{fill-rule:evenodd;clip-rule:evenodd;fill:#272E35;}
	.st149{fill:#33383F;}
	.st150{fill-rule:evenodd;clip-rule:evenodd;fill:url(#SVGID_121_);}
	.st151{fill:#4F0000;}
	.st152{fill:url(#SVGID_122_);}
	.st153{clip-path:url(#SVGID_124_);}
	.st154{fill:#EF7031;}
	.st155{fill:#F9CC02;}
	.st156{fill:#929497;}
	.st157{fill:#FF4100;}
	.st158{fill:#231F20;}
	.st159{fill:#B3B3B3;}
	.st160{fill:#58595B;}
	.st161{fill-rule:evenodd;clip-rule:evenodd;fill:#FAB212;}
	.st162{fill-rule:evenodd;clip-rule:evenodd;fill:url(#SVGID_125_);}
	.st163{clip-path:url(#SVGID_128_);}
	.st164{clip-path:url(#SVGID_129_);}
	.st165{fill:none;stroke:#FFFFFF;stroke-width:3.7719;stroke-miterlimit:10;}
	.st166{fill:none;stroke:#FFFFFF;stroke-width:0.7072;stroke-miterlimit:10;}
	.st167{fill:none;stroke:#FFFFFF;stroke-width:1.8859;stroke-miterlimit:10;}
	.st168{fill:none;stroke:#FFFFFF;stroke-width:1.6502;stroke-miterlimit:10;}
	.st169{fill:none;stroke:#FFFFFF;stroke-width:0.2357;stroke-miterlimit:10;}
	.st170{clip-path:url(#SVGID_132_);}
	.st171{clip-path:url(#SVGID_133_);}
	.st172{fill:#FFD28C;}
	.st173{fill:#EEB96C;}
	.st174{fill:#DB84B5;}
	.st175{fill:#62B146;}
	.st176{fill:#A9C63D;}
	.st177{fill:#957F4B;}
	.st178{fill:#AD9568;}
	.st179{fill:#825F26;}
	.st180{fill:#CE7829;}
	.st181{fill:#AC5A26;}
	.st182{fill-rule:evenodd;clip-rule:evenodd;fill:none;stroke:#EAA211;stroke-width:5;stroke-miterlimit:10;}
	.st183{fill-rule:evenodd;clip-rule:evenodd;fill:url(#SVGID_134_);}
	.st184{fill:#FA852D;}
	.st185{fill:#F5752A;}
	.st186{fill:#F99E29;}
	.st187{fill-rule:evenodd;clip-rule:evenodd;fill:none;stroke:#FABA24;stroke-width:5;stroke-miterlimit:10;}
	.st188{fill-rule:evenodd;clip-rule:evenodd;fill:#EAA211;}
	.st189{fill-rule:evenodd;clip-rule:evenodd;fill:#FABA24;}
	.st190{fill:url(#SVGID_135_);}
	.st191{fill:url(#SVGID_136_);}
	.st192{filter:url(#Adobe_OpacityMaskFilter);}
	.st193{filter:url(#Adobe_OpacityMaskFilter_1_);}
	.st194{mask:url(#SVGID_137_);fill:url(#SVGID_138_);}
	.st195{opacity:0.14;fill:url(#SVGID_139_);}
	.st196{filter:url(#Adobe_OpacityMaskFilter_2_);}
	.st197{filter:url(#Adobe_OpacityMaskFilter_3_);}
	.st198{mask:url(#SVGID_140_);fill:url(#SVGID_141_);}
	.st199{opacity:0.14;fill:url(#SVGID_142_);}
	.st200{fill:url(#SVGID_143_);}
	.st201{fill:url(#SVGID_144_);}
	.st202{fill:url(#SVGID_145_);}
	.st203{fill:url(#SVGID_146_);}
	.st204{fill:#CBEAF6;}
	.st205{fill:#96D7ED;}
	.st206{fill:#F06888;}
	.st207{fill:#F395BE;}
	.st208{fill:#C84C27;}
	.st209{fill:#F16822;}
	.st210{fill:#F37940;}
	.st211{fill:#F37B4C;}
	.st212{fill:#4C3427;}
	.st213{fill:#9F3022;}
	.st214{fill-rule:evenodd;clip-rule:evenodd;fill:url(#SVGID_147_);}
	
		.st215{fill-rule:evenodd;clip-rule:evenodd;fill:none;stroke:#FAB010;stroke-width:10.343;stroke-linecap:round;stroke-linejoin:round;stroke-miterlimit:10;}
	
		.st216{fill-rule:evenodd;clip-rule:evenodd;fill:none;stroke:#FAB010;stroke-width:11;stroke-linecap:round;stroke-linejoin:round;stroke-miterlimit:10;}
	.st217{clip-path:url(#SVGID_150_);}
	.st218{clip-path:url(#SVGID_151_);}
	.st219{fill:none;stroke:#FFFFFF;stroke-width:4.33;stroke-miterlimit:10;}
	.st220{fill:none;stroke:#FFFFFF;stroke-width:0.8119;stroke-miterlimit:10;}
	.st221{fill:none;stroke:#FFFFFF;stroke-width:2.165;stroke-miterlimit:10;}
	.st222{fill:none;stroke:#FFFFFF;stroke-width:1.8944;stroke-miterlimit:10;}
	.st223{fill:none;stroke:#FFFFFF;stroke-width:0.2706;stroke-miterlimit:10;}
	.st224{clip-path:url(#SVGID_154_);}
	.st225{clip-path:url(#SVGID_155_);}
	.st226{fill:none;stroke:#A7A89E;stroke-width:0.2797;stroke-miterlimit:10;}
	
		.st227{fill-rule:evenodd;clip-rule:evenodd;fill:none;stroke:#FFFFFF;stroke-width:0.75;stroke-linecap:round;stroke-miterlimit:10;}
	.st228{fill-rule:evenodd;clip-rule:evenodd;fill:none;stroke:#FFFFFF;stroke-width:2.5187;stroke-miterlimit:10;}
	.st229{fill:#4F2706;}
	.st230{opacity:0.25;fill:#FFFFFF;}
	.st231{fill-rule:evenodd;clip-rule:evenodd;fill:#A7A89E;}
	.st232{fill-rule:evenodd;clip-rule:evenodd;fill:none;stroke:#42433E;stroke-width:0.9637;stroke-miterlimit:10;}
	.st233{opacity:0.5;fill:url(#SVGID_156_);}
	.st234{fill:#AEAFA3;}
	.st235{fill-rule:evenodd;clip-rule:evenodd;fill:url(#SVGID_157_);}
	.st236{fill:url(#SVGID_158_);}
	.st237{opacity:0.4;}
	.st238{fill:url(#SVGID_159_);}
	.st239{fill-rule:evenodd;clip-rule:evenodd;fill:none;stroke:#FAB011;stroke-width:5.3617;stroke-miterlimit:10;}
	
		.st240{fill-rule:evenodd;clip-rule:evenodd;fill:none;stroke:#FABA24;stroke-width:3;stroke-linecap:round;stroke-linejoin:round;stroke-miterlimit:10;}
	
		.st241{fill-rule:evenodd;clip-rule:evenodd;fill:none;stroke:#FABA24;stroke-width:2;stroke-linecap:round;stroke-linejoin:round;stroke-miterlimit:10;}
	
		.st242{fill-rule:evenodd;clip-rule:evenodd;fill:none;stroke:#FABA24;stroke-width:2.5;stroke-linecap:round;stroke-linejoin:round;stroke-miterlimit:10;}
	.st243{fill-rule:evenodd;clip-rule:evenodd;fill:url(#SVGID_160_);}
	.st244{fill-rule:evenodd;clip-rule:evenodd;fill:url(#SVGID_161_);}
	.st245{opacity:0.5;fill:#FFE3A3;}
	.st246{fill-rule:evenodd;clip-rule:evenodd;fill:#32383F;}
	.st247{fill:#32383F;}
	.st248{fill:url(#SVGID_162_);}
	.st249{filter:url(#Adobe_OpacityMaskFilter_4_);}
	.st250{filter:url(#Adobe_OpacityMaskFilter_5_);}
	.st251{mask:url(#SVGID_163_);fill:url(#SVGID_164_);}
	.st252{opacity:0.5;fill:url(#SVGID_165_);}
	.st253{filter:url(#Adobe_OpacityMaskFilter_6_);}
	.st254{filter:url(#Adobe_OpacityMaskFilter_7_);}
	.st255{mask:url(#SVGID_166_);fill:url(#SVGID_167_);}
	.st256{opacity:0.5;fill:url(#SVGID_168_);}
	.st257{fill:url(#SVGID_169_);}
	.st258{opacity:0.5;}
	.st259{fill:#FFFDF0;}
	.st260{fill-rule:evenodd;clip-rule:evenodd;fill:none;stroke:#32383F;stroke-width:2;stroke-linecap:round;stroke-miterlimit:10;}
	.st261{opacity:0.2;}
	.st262{fill:none;stroke:#FDFEFE;stroke-width:2;stroke-miterlimit:10;}
	.st263{fill:none;stroke:#FDFEFE;stroke-width:2;stroke-miterlimit:10;stroke-dasharray:1.0301,8.2408;}
</style>
<g>
	<path class="st172" d="M77,187c-2.6-0.5-5.6-1.7-8.3-1.2c-2,0.4-5.1,1.7-6.3,3c-2.1,2.2,2.8,3.1,4.9,3.2c2.4,0.1,4.9-0.2,7.2,0
		c1.5,0.1,2.9,0.6,4.4,0.7c2.3,0.1,6.5-1,5.8-3.1C84,187.5,79.1,187.4,77,187z"/>
	<path class="st172" d="M114.8,173.9c-4.2-0.6-9-2.1-13.4-1.5c-3.3,0.4-8.2,2.2-10.1,3.7c-3.3,2.8,4.4,3.9,7.9,4
		c3.9,0.1,7.8-0.2,11.6,0c2.4,0.1,4.7,0.8,7.1,0.8c3.7,0.1,10.4-1.3,9.3-3.9C126.1,174.5,118.2,174.4,114.8,173.9z"/>
	<path class="st173" d="M121.3,177.7c-0.6,0.5-3.5,0.4-4.4,0.4c-2.2,0.1-4.4,0.1-6.6,0.3c-1.7,0.1-3.5,0.3-5.2,0.2
		c-1.3-0.1-2.9-0.5-3.5-1.2c-0.6-0.8,0.9-1.6,2.3-1.7c1.6-0.2,3.5-0.2,5.2-0.2c1,0,2.1,0.2,3.1,0.2c0.9,0.1,1.9,0.1,2.8,0.2
		C115.8,176,122.3,176.8,121.3,177.7z"/>
	<g>
		<path class="st174" d="M121.6,173.3c-0.6,0.8-0.4,2.2-1.5,2.6c-1.1,0.3-2-0.9-2-1.9c0-0.7,0.9-1.3,0.5-2c-0.4-0.8-1.3-0.2-1.9-0.6
			c-0.4-0.3-0.9-1.7-0.3-2c0.8-0.4,0.9,1.5,1.6,0.5c-0.4-0.9-1.9-1.7-2.1-2.7c-0.2-0.8,0.4-0.9,1-0.6c0.3,0.2,0.3,0.5,0.6,0.7
			c0.2,0.2,0.5,0.1,0.7,0.2c0.4,0.3,0.3,1,0.9,1c0.5,0,0.4-0.5,0.3-0.8c-0.2-0.7-0.8-1.1-1-1.8c-0.4-1.2,0.7-2.9,1.3-1.1
			c1.7-0.9-1.6-2.1-1.7-2.8c0-0.4,0-0.7,0.4-0.8c0.6-0.1,0.4,0.5,0.8,0.7c1,0.3,0.8-0.6,1.2-1.1c0.7-0.7,1.4-0.3,1.2,0.7
			c-0.1,0.8-0.6,1-0.5,1.9c0.1,0.8,0.3,1.3,0.1,2c-0.2,0.6-0.8,1.2-0.5,1.9c0.3,0.6,1.5,1,1.6,0.1c0.1-0.5-1.1-1.1-0.6-1.8
			c0.7-1,0.7,0.9,1,1.1c0.9,0.8,0.9-0.7,1.3-1c1.3-0.7,1.4,2.4,0.1,3c-1,0.5-3.6-0.3-2.7,1.7c0.2,0.5,0.9,1.2,1.5,0.8
			c0.6-0.5-0.7-1.5,0.3-1.5c0.9-0.1,0.2,1.4,1.1,1.3c0.7-0.1,0.6-1.2,1.2-1.4c1.5-0.4,1.6,2.4,0.2,2.9
			C124.1,173,122.7,171.7,121.6,173.3z"/>
		<g>
			<path class="st175" d="M111.9,174c-2,2.4-3.8-2.2-3.7-3.7c0.1-1.1,0.8-2,0.9-3.2c0.2-2.6-2.9-3.2-3-5.6c-0.1-1.4,0.8-2.1,1-3.3
				c0.2-1.2-0.4-1.8-1-2.8c-0.7-1.1-1-1.9-0.8-3.3c0.2-1.1,1.1-1.8,1.2-2.7c0.1-0.9-1.5-1.8-0.7-2.9c0.8-0.9,2.7-0.1,3.3,0.5
				c1.9,2,0.4,4.5,0.9,6.8c0.2,1.1,1,2,1.1,3.1c0.2,1.2-0.4,2-0.5,3c-0.3,2.3,1.7,4.1,1.7,6.3c0,2-1,3.7-0.4,5.6
				C112.1,172.8,112.6,173.1,111.9,174z"/>
			<path class="st176" d="M116.5,171.9c0.2,1.6-0.7,3.3-2.5,2.9c-1.9-0.3-1.4-2.4-1.4-3.9c0-1.4-0.7-1.7-1.4-2.7
				c-0.8-1.3-0.5-1.7,0.1-2.9c0.7-1.2,0.8-1.5,0.3-2.9c-0.3-0.9-1.1-2.1-0.9-3.1c0.3-1,2-1.7,2.6-2.5c0.5-0.6,0.9-2.1,2-2.2
				c1.3,0,1.5,1.6,1.1,2.4c-0.9,2-2.2,2.3-1.4,4.6c0.3,0.9,0.8,1.7,0.5,2.7c-0.2,0.9-0.9,1.6-0.9,2.6
				C114.8,168.4,116.4,170.2,116.5,171.9z"/>
			<path class="st176" d="M104,170.2c-0.2,1.3-0.2,4.3,1.4,4.9c2,0.7,1.5-1.8,1.9-2.9c0.5-1.1,1.3-0.8,0.8-2.4
				c-0.4-1.2-1.1-1.7-0.7-3.1c0.3-1.1,1-2.1,0.8-3.4c-0.2-1-1-1.7-0.9-2.9c0.1-1.2,0.7-1.6-0.1-2.8c-0.7-1.1-1.1-1.2-1.4-2.6
				c-0.3-1.1-0.5-1.9-1.9-1c-2,1.2-0.1,3.4,0.3,4.9c0.6,2-1,3.4-0.6,5.5C103.9,166.6,104.3,168,104,170.2z"/>
			<path class="st177" d="M104.4,177.6c-0.8-0.1-2-0.3-2.3-1.1c-0.3-0.7-0.1-1.7,0.2-2.4c0.6-1.5,1.9-3,3.3-3.8
				c0.7-0.4,1.7-0.8,2.5-0.6c0.7,0.1,1.2,0.7,1.8,1.1c2,1.3,5.2,1.2,5.9,3.8c0.8,2.7-4,2.8-5.7,3
				C108.3,177.8,106.3,177.8,104.4,177.6z"/>
			<path class="st178" d="M111.3,176.9c-1,0-2-0.2-2.9-0.5c-0.8-0.2-1.6-0.3-2.4-0.5c-1.1-0.3-1.7-1.2-1.5-2.4
				c0.1-0.6,0.5-0.8,0.8-1.3c0.2-0.4,0.2-0.8,0.5-1.2c0.6-0.7,1.6-1,2.5-0.7c0.9,0.3,1.2,1.1,2,1.5c0.9,0.4,2,0.4,3,0.7
				c1.1,0.3,2.4,1.8,2,3C114.8,176.9,112.6,176.9,111.3,176.9z"/>
			<path class="st177" d="M120.9,177.3c1.8-1.1-1.3-3.8-2.5-3.9c-0.8-0.1-1.6,0.1-2.3,0.6c-0.7,0.5-1.7,1.7-1.3,2.6
				c0.4,1,1.9,0.9,2.7,0.8C118.6,177.3,120,177.8,120.9,177.3z"/>
			<path class="st178" d="M117.7,176c-0.7-0.8-1.2-1.5-0.2-2.2c0.8-0.5,1.4-0.3,2.1,0.3c0.5,0.4,1.8,1.4,1,2.2
				C120,176.9,118.2,176.6,117.7,176z"/>
			<path class="st179" d="M112.5,177.2c0.2,1.9,3.8,0.7,2.7-0.8C114.4,175.4,112.3,175.8,112.5,177.2z"/>
			<path class="st177" d="M113.8,177c0.3,0,0.7-0.1,0.9-0.3c0.3-0.6-0.8-0.7-1.1-0.5C113.1,176.4,113.2,176.9,113.8,177z"/>
		</g>
	</g>
	<path class="st31" d="M203.5,173.6c0.5,0,1,0,1.5,0H203.5z"/>
	<g>
		<g>
			<g>
				<path class="st180" d="M66.7,177c0.6,1.1,1.3,2.7,2.4,3.5c1.5,1.1,2.8-0.1,3.3-1.6c0.5-1.4,0.3-3.2,0-4.5
					c-0.5-1.8-2.2-2.2-3.8-1.6C66.4,173.7,65.5,174.9,66.7,177z"/>
				<path class="st180" d="M79,179.5c-0.3,0.2-0.6,0.4-1,0.6c-2,1.2-4,2.4-5.9,3.7c-0.6,0.4-1.2,0.5-1.8,0.3
					c-0.7-0.2-1.2-0.8-1.6-1.7c-0.5-1.6,0.8-3.2,1.6-4.4c0.9-1.3,2.2-4.2,3.7-4.9c1.6-0.7,4.5,1.4,5.5,2.6
					C81.1,177.5,80.4,178.6,79,179.5z"/>
				<path class="st181" d="M79.1,177.7c1.6-1.5-3.6-5.3-4.3-3.4C74.3,175.7,77.8,179,79.1,177.7z"/>
				<path class="st173" d="M81.6,189.1c-0.5,0.5-2.7,0.4-3.4,0.4c-1.7,0.1-3.4,0.2-5.1,0.3c-1.3,0.1-2.7,0.3-4,0.2
					c-1-0.1-2.3-0.6-2.7-1.3c-0.4-0.8,0.7-1.7,1.7-1.8c1.2-0.2,2.7-0.3,4-0.2c0.8,0,1.6,0.2,2.4,0.3c0.7,0.1,1.5,0.1,2.2,0.2
					C77.4,187.3,82.4,188.2,81.6,189.1z"/>
				<path class="st181" d="M67.8,178.9c0,0.1,0.2,0.1,0.1,0.1c-1-1.5,0.8-1.9,1.7-2.4c1-0.5,1.7-1.6,2.7-2.2
					c0.6,0.5,0.2,1.9,0.3,2.7c0.2,0.9,0.9,1.4,1.2,2.2c-0.5,0.3-0.9-0.2-1.3-0.5c-0.6-0.3-0.9-0.4-1.6-0.4c-1.2-0.1-2.3,0-2.9,1
					c-0.1,0-0.1-0.1-0.2-0.2V178.9z"/>
				<path class="st181" d="M79,179.5c-0.3,0.2-0.6,0.4-1,0.6c-2,1.2-4,2.4-5.9,3.7c-0.6,0.4-1.2,0.5-1.8,0.3
					c0.2-1.1,0.9-2.3,1.2-2.9c0.7-1.3,1.8-2.7,3.4-2.8c1-0.1,2.2,0,3.2,0.5C78.4,179,78.7,179.2,79,179.5z"/>
				<path class="st180" d="M70.4,187.6c1-0.1,2.3-1.4,2.8-2.2c0.6-0.9,0.9-2.2,0.8-3.3c-0.2-1.7-0.6-4.3-2.8-4.5
					c-1-0.1-2.3,0.8-3,1.4c-1.2,0.9-1.2,1.7-1.2,3.1C66.8,184.1,67.8,187.8,70.4,187.6z"/>
				<path class="st181" d="M72.5,186.6c-0.6,0.6-1.8,1.4-2.2,0.3c-0.3-0.7,0-1.8,0.2-2.5c0.2-1,0.6-2.4,1.6-3
					c0.3-0.2,1.1-0.4,1.5-0.1c0.5,0.3,0.4,0.8,0.4,1.3C73.9,184.1,73.5,185.6,72.5,186.6z"/>
				<path class="st181" d="M69.7,181.9c0.8-0.3,1.8-1.4,1.8-2.3c0-1.5-1.9-0.2-2.4,0.2C68.2,180.6,68,182.5,69.7,181.9z"/>
				<path class="st180" d="M77.2,189.6c1.9-0.8,4.7-2.1,4.8-4.5c0.1-2.1-1.8-4-3.7-4.6c-1.9-0.6-3.9,0.2-5.2,1.6
					c-1.2,1.3-2.4,3.6-2.3,5.5C70.9,191,74.9,190.6,77.2,189.6z"/>
				<path class="st181" d="M77.3,182c-1.1,1.5,1.3,5.2,2.9,3.7C81.8,184.2,78.8,179.9,77.3,182z"/>
			</g>
			<path class="st181" d="M68.5,174.5c0.3-0.1,2.5-1,1.4-1.5c-0.5-0.2-1.4,0.3-1.9,0.5c-0.4,0.2-1.1,0.4-1.1,0.9
				C66.9,175.1,68.1,174.6,68.5,174.5z"/>
		</g>
		<path class="st181" d="M71.5,187.9C71.5,187.9,71.5,187.9,71.5,187.9C71.5,187.9,71.5,187.9,71.5,187.9
			C71.4,187.9,71.5,187.9,71.5,187.9C71.5,187.9,71.5,187.9,71.5,187.9C71.5,187.9,71.5,187.9,71.5,187.9
			C71.5,188,71.5,187.9,71.5,187.9c0,0.1,0.1,0.2,0,0.1c0,0,0,0.1,0,0.1c0,0.1,0.1,0.3,0.3,0.3c0.1,0,0.3-0.1,0.3-0.3
			c0-0.4-0.2-0.7-0.6-0.7c-0.1,0-0.3,0.1-0.3,0.3C71.2,187.7,71.3,187.9,71.5,187.9L71.5,187.9z"/>
		<path class="st181" d="M72.1,187c0,0.3,0.1,0.5,0.2,0.7c0.2,0.2,0.6-0.1,0.4-0.4c0,0-0.1-0.1-0.1-0.1c0,0,0,0,0,0c0,0,0,0,0-0.1
			c0,0,0-0.1,0-0.1c0-0.1-0.1-0.3-0.3-0.3C72.3,186.7,72.1,186.8,72.1,187L72.1,187z"/>
		<path class="st181" d="M71.3,186.3c0,0.1,0,0.2,0.1,0.3c0,0.1,0.1,0.2,0.2,0.2c0.1,0.1,0.3,0.1,0.4,0c0.1-0.1,0.1-0.3,0-0.4
			c0,0-0.1-0.1-0.1-0.1c0,0,0-0.1,0,0c0,0,0,0,0,0c0,0,0,0.1,0,0c0,0,0,0.1,0,0c0,0,0-0.1,0-0.1c0-0.1-0.1-0.3-0.3-0.3
			C71.5,186.1,71.3,186.2,71.3,186.3L71.3,186.3z"/>
		<path class="st181" d="M75.7,182.2C75.7,182.2,75.7,182.2,75.7,182.2c0-0.4-0.5-0.4-0.5,0c0,0.2,0,0.4,0,0.7c0,0.3,0.5,0.3,0.5,0
			C75.7,182.6,75.7,182.4,75.7,182.2c0-0.4-0.5-0.4-0.5,0c0,0,0,0,0,0C75.2,182.5,75.7,182.5,75.7,182.2L75.7,182.2z"/>
		<path class="st181" d="M76.2,184.5C76.2,184.5,76.2,184.5,76.2,184.5C76.2,184.5,76.2,184.5,76.2,184.5
			C76.2,184.5,76.2,184.5,76.2,184.5c-0.1-0.1-0.1-0.1-0.1-0.1c0-0.1,0,0,0,0c0,0,0,0,0,0c0-0.1,0,0,0,0c0,0,0,0.1,0,0.1
			c0,0.1,0.1,0.3,0.3,0.3c0.1,0,0.3-0.1,0.3-0.3c0-0.1,0-0.2,0-0.3c-0.1-0.2-0.2-0.3-0.4-0.3c-0.1,0-0.3,0.1-0.3,0.3
			C75.9,184.4,76.1,184.5,76.2,184.5L76.2,184.5z"/>
		<path class="st181" d="M74.5,183.9c0,0.3,0.2,0.5,0.2,0.8c0,0.3,0.5,0.3,0.5,0c0-0.3-0.2-0.5-0.2-0.8
			C75,183.6,74.5,183.6,74.5,183.9L74.5,183.9z"/>
		<path class="st181" d="M72.9,175.1c0,0.3,0.2,0.6,0.4,0.8c0.2,0.2,0.6-0.1,0.4-0.4c-0.1-0.1-0.1-0.2-0.2-0.2c0,0,0-0.1,0-0.1
			c0,0,0,0,0-0.1c0-0.1,0,0,0,0C73.4,174.7,72.9,174.7,72.9,175.1L72.9,175.1z"/>
		<path class="st181" d="M73.8,177c0.1,0.1,0.1,0.1,0.2,0.2c0.1,0,0.2,0.1,0.3,0.1c0.1,0,0.3-0.1,0.3-0.3c0-0.1-0.1-0.3-0.3-0.3
			c0,0-0.1,0-0.1,0c0,0,0.1,0,0,0c0,0,0.1,0,0,0c0,0,0,0,0,0c0.1,0,0,0,0,0c0,0-0.1-0.1-0.1-0.1c-0.1-0.1-0.3-0.1-0.4,0
			C73.7,176.7,73.7,176.9,73.8,177L73.8,177z"/>
		<path class="st181" d="M67.7,183.5c0,0.4,0.4,0.6,0.7,0.6c0.1,0,0.3-0.1,0.3-0.3c0-0.1-0.1-0.3-0.3-0.3c0,0,0,0-0.1,0
			c-0.1,0,0,0,0,0c0,0-0.1,0,0,0c0,0,0,0-0.1,0c0,0,0,0,0,0c0,0,0,0,0,0c0-0.1,0,0.1,0,0c0-0.1,0,0.1,0,0c0-0.1-0.1-0.3-0.3-0.3
			C67.8,183.2,67.7,183.3,67.7,183.5L67.7,183.5z"/>
		<path class="st181" d="M68.6,185.5C68.6,185.5,68.7,185.5,68.6,185.5c0.1,0,0.1,0,0.1,0c0.1,0-0.1,0,0,0c0,0,0,0,0,0
			c0.1,0-0.1,0,0,0C68.7,185.5,68.7,185.5,68.6,185.5C68.7,185.4,68.7,185.4,68.6,185.5C68.7,185.4,68.7,185.4,68.6,185.5
			c0.1-0.1,0.1-0.1,0.1-0.1c0,0.1,0.1,0.3,0.3,0.3c0.1,0,0.3-0.1,0.3-0.3c0-0.1-0.1-0.3-0.2-0.4c-0.1-0.1-0.2-0.1-0.4-0.1
			c-0.1,0-0.3,0.1-0.3,0.3C68.3,185.4,68.4,185.5,68.6,185.5L68.6,185.5z"/>
	</g>
	<g id="Shape_9_26_" class="st0">
		<g>
			<path class="st1" d="M184.7,92.2c-7.8-12.8-18.8-19.9-39.1-24.5c-20.1-4.6-42.4,1.8-55.1,10.7c-12.6,8.9-28.6,27-20.3,54.1
				c8.3,27.2,35.8,37.5,52.5,36.8c16.7-0.7,42.8-1.8,58-21.2C193.4,131.8,196,110.7,184.7,92.2z"/>
		</g>
	</g>
	<path class="st182" d="M148.7,160.6c1.5,1.6,3.3,3,5.4,3.8c3,1.2,6.6,1,9.5-0.6c2.9-1.6,4.9-5.5,7.3-4.3"/>
	<g>
		
			<radialGradient id="SVGID_1_" cx="166.8099" cy="108.9805" r="56.8885" gradientTransform="matrix(0.7538 0.4543 -0.5096 0.8456 95.2246 -29.3787)" gradientUnits="userSpaceOnUse">
			<stop  offset="0" style="stop-color:#FCD253"/>
			<stop  offset="1" style="stop-color:#FAB010"/>
		</radialGradient>
		<path class="st2" d="M145.2,86c-6.3-2-26-5.4-45.4,10.5c-19.5,15.9-19.9,32.6-9.2,46.1c11.2,14,41.6,29,58.2,21.3
			c23.8-11,27.6-32.3,24.5-52.1C170.1,92.5,152.1,88.1,145.2,86z"/>
	</g>
	<g>
		<g>
			<g>
				<path class="st184" d="M112.8,102.6c-1.2-0.4-2.8-0.7-3.8-1.5c1.2-0.6,2.5-2.3,3.1-3.4c0.9-1.5,1.2-3.1,1.3-4.8
					c-0.8-0.2-1.7,0.9-2.3,1.3c-0.9,0.6-1.8,1.1-2.8,1.4c-1.3,0.5-3.1,0.9-4.1,1.6l-0.6-0.5c-0.9-0.4-3.3-3.1-4.3-2.5
					c-0.8,0.5,0.1,4.1,0.2,4.9c-0.6,0.3-1.1,0.8-1.8,1.1c-1,0.5-2.1,0.9-3.2,1.2c-1.4,0.4-4.1,1-5,2.3c3.4,1.7,7.2,0.1,10.7,0.3
					c-0.2,2.3-1.4,4.3-2.1,6.5c-0.7,2.2,1.6,1.4,2.8,0.6c1.6-1,3.1-2.8,3.9-4.5c0.3-0.6,0.3-1.1,0.9-1.3c0.8-0.3,2,0.3,2.8,0.4
					c2.5,0.5,6.5,0.7,8.6-1.1C116.8,103.8,113.8,102.9,112.8,102.6z"/>
				<path class="st185" d="M100.8,101.2c-3.2,1-7.2,2.9-10.5,2c-0.3,0.2-0.5,0.4-0.7,0.7c3.4,1.7,7.2,0.1,10.7,0.3
					C100.7,103.2,100.9,102.3,100.8,101.2z"/>
				<path class="st185" d="M111.2,96.2c-1.5,1.5-3.1,3-5.2,3.4c1,0.7,2,1,3.1,1.5c1.2-0.6,2.5-2.3,3.1-3.4c0.9-1.5,1.2-3.1,1.3-4.8
					c-0.1,0-0.2,0-0.3,0C112.8,94.1,112.1,95.3,111.2,96.2z"/>
				<path class="st185" d="M99.3,94.3c-0.6,0.7,0.1,3.8,0.3,4.8c0.2-0.2,0.3-0.5,0.4-0.6C100.3,97,100,95.6,99.3,94.3z"/>
				<path class="st185" d="M116.8,104.3c-3.4,2.1-8.4-0.3-11.9-1.9c0,0.1,0,0.2,0,0.3c-0.1,0.4-0.1,0.8-0.1,0.7
					c-0.2,0.9-0.1,0.8-0.4,1.7c-0.1,0.3-0.2,0.7-0.3,1c-1,2.7-2.8,5.3-5.8,5.7c0.5,0.5,1.9,0,2.7-0.6c1.6-1,3.1-2.8,3.9-4.5
					c0.2-0.5,0.3-0.9,0.7-1.2c0-0.1,0-0.3,0-0.4c0,0.1,0,0.3,0,0.4c0.1,0,0.1-0.1,0.2-0.1c0.8-0.3,2,0.3,2.8,0.4
					c2.5,0.5,6.5,0.7,8.6-1.1C117.2,104.6,117,104.4,116.8,104.3z M105.4,104.1C105.4,104.1,105.4,104.1,105.4,104.1
					C105.4,104.1,105.4,104.1,105.4,104.1z M105.5,105c0-0.1,0-0.1,0-0.2C105.5,104.8,105.5,104.9,105.5,105z M105.5,104.5
					C105.4,104.5,105.4,104.5,105.5,104.5C105.4,104.5,105.4,104.5,105.5,104.5z M105.1,103.4C105.1,103.4,105.1,103.4,105.1,103.4
					C105.1,103.4,105.1,103.4,105.1,103.4z M105.3,103.7C105.3,103.7,105.3,103.7,105.3,103.7C105.3,103.7,105.3,103.7,105.3,103.7z
					"/>
			</g>
			<path class="st186" d="M100.2,108.4c-0.2,0.1-0.9,0.9-0.4,1c0.5,0.1,1-0.7,0.7-1.1C100.4,108.1,100.2,108.2,100.2,108.4
				L100.2,108.4z"/>
			<path class="st186" d="M101.4,105.6c-0.2,0.1-0.9,0.9-0.4,1c0.5,0.1,1-0.7,0.7-1.1C101.6,105.3,101.4,105.4,101.4,105.6
				L101.4,105.6z"/>
			<path class="st186" d="M102.7,102.4c0.3,0.3,0,1-0.2,1.3c-0.1,0.1-0.3,0.4-0.5,0.4c-0.3,0-0.3-0.5-0.2-0.7
				c0.1-0.2,0.1-0.4,0.2-0.6C102.1,102.6,102.3,102.1,102.7,102.4z"/>
			<path class="st186" d="M102.3,99.4c0.1-0.1,0.8-0.2,0.9,0c-0.2-0.4,0.5-0.7,0.8-0.9c-0.2,0-0.4,0-0.7-0.1c-0.1,0-0.3-0.1-0.4-0.2
				c-0.1,0.2-0.4,0.6-0.7,0.6C102.4,99,102.3,99.2,102.3,99.4L102.3,99.4z"/>
			<path class="st186" d="M107.1,101.3c0.2,0.1,0.5,0.5,0.1,0.6c-0.3,0.1-0.8-0.1-0.9-0.3c-0.1-0.2,0-0.4,0.2-0.4
				C106.6,101.1,106.9,101.2,107.1,101.3z"/>
			<path class="st186" d="M108.8,102.5c-0.1-0.2,0.1-0.3,0.2-0.3c0.2,0,0.5,0.1,0.6,0.2C109.9,102.8,109,102.9,108.8,102.5z"/>
			<path class="st186" d="M111.7,103c0.2-0.1,0.9,0.2,0.7,0.5c-0.1,0.3-0.7,0-0.9-0.2C111.5,103.2,111.6,103.1,111.7,103z"/>
			<path class="st186" d="M107.3,97.1c0.2-0.5-0.7-0.1-0.9-0.1c-0.2,0.1-0.5,0.2-0.2,0.4c0.2,0.1,0.5,0.1,0.7,0
				C107,97.4,107.3,97.3,107.3,97.1z"/>
			<path class="st186" d="M108.7,96.3c0.2,0.1,0.6,0,0.8-0.2c0.1-0.1,0.2-0.1,0.2-0.3c-0.1-0.2-0.4,0-0.5,0
				C109.1,95.9,108.5,96.2,108.7,96.3z"/>
			<path class="st186" d="M110.7,95c0.2,0.1,0.5,0,0.6-0.1c0.1-0.1,0.2-0.1,0.1-0.2c-0.1-0.2-0.3,0-0.4,0
				C111,94.7,110.5,94.9,110.7,95z"/>
			<path class="st186" d="M101.8,96.5c0.2,0.1,0.3,0.4,0.2,0.6c-0.1,0.2-0.4,0.2-0.5,0c-0.1-0.1-0.1-0.2-0.1-0.3
				C101.4,96.5,101.6,96.3,101.8,96.5z"/>
			<path class="st186" d="M100.8,95.7c-0.3,0-0.5-0.6-0.1-0.5C101.1,95.2,101,95.8,100.8,95.7L100.8,95.7z"/>
			<path class="st186" d="M100.1,94.5c0.1,0.1,0,0.3-0.2,0.2C99.7,94.6,99.9,94.3,100.1,94.5z"/>
			<path class="st186" d="M98.5,100.5c-0.1,0.2,0,0.3,0.2,0.3c0.2,0,0.7-0.1,0.8-0.4C99.5,100,98.6,100.3,98.5,100.5z"/>
			<path class="st186" d="M95.9,101.8c0.2,0.1,0.5,0,0.6-0.1c0.1-0.1,0.1-0.3-0.1-0.3C96.2,101.4,95.6,101.6,95.9,101.8z"/>
			<path class="st186" d="M92.8,102.7c0.2,0.1,0.5,0,0.6-0.1c0.1-0.1,0.1-0.3-0.1-0.3C93.1,102.3,92.5,102.5,92.8,102.7z"/>
		</g>
	</g>
	<path class="st3" d="M195.9,122.8c0,0-4.6-1.5-6.7-1.6c-2-0.1-4.5,0.6-4.5,0.6s2.7,1.7,4.4,1.5
		C190.8,123.2,195.9,122.8,195.9,122.8z"/>
	<path class="st3" d="M187.7,87.8c0,0-6.6,1.5-9.2,2.6c-2.6,1.1-5.5,3.2-5.5,3.2s4.2-0.2,6.3-1.3C181.4,91.1,187.7,87.8,187.7,87.8z
		"/>
	<path class="st3" d="M119.3,54.2c0,0-1.5,6.9-1.2,9.9c0.3,3,1.8,6.7,1.8,6.7s2.1-4.1,1.6-6.6C120.9,61.7,119.3,54.2,119.3,54.2z"/>
	<path class="st3" d="M152.9,61.3c0,0-3.5,4.3-4.2,6.1c-0.6,1.6-0.6,3.7-0.6,3.7s2.2-1.3,2.6-2.7C151,67.4,152.9,61.3,152.9,61.3z"
		/>
	<path class="st3" d="M57.7,106.8c0,0,5.7,2.7,7.9,3.2c2,0.4,4.3,0.1,4.3,0.1s-1.9-1.9-3.6-2.1C65,107.8,57.7,106.8,57.7,106.8z"/>
	<path class="st3" d="M87.8,52.9c0,0,3.5,11.3,6.3,16.6c2.8,5.4,7.5,6.7,7.5,6.7s-0.3-4.7-2.5-8.9C96.9,63.3,87.8,52.9,87.8,52.9z"
		/>
	<g>
		<path class="st4" d="M50.1,163.5c-0.4,1.2,5.3-4.5,12.3-13.2c1.2-1.4,2.3-3.2,3.5-5.1c2.3-3.6,3.6-5,5.1-7.3
			c1.8-3,3.8-5.4,4.6-7.2c1-2.3,2.6-8.3-2.1-4.1c-4.2,3.8-7.6,8.9-9.3,11.8c-2.5,4.2-5.8,7.2-8.5,10.1c-2.7,2.9-12.8,10.8-10.7,10.7
			C50.5,159,50.1,163.5,50.1,163.5z"/>
		<path class="st3" d="M91.9,141.7c-4.5,1.3-9.5,3.2-12,0.2c-1.6-1.6-4.2-5.3-5.1-6.8c-1-1.5-2.9,2.3-4.5,4.6c-0.8,1.1-2,2.8-3,3.7
			c-0.2,0.2-0.5,0.4-0.7,0.4c-0.1,0-0.2,0-0.3,0c0,0-0.1,0-0.1,0c0,0-0.1,0-0.1-0.1c-0.3-0.2-0.4-0.9-0.2-2.3c0.1-0.6,0.3-1.3,0.5-2
			c0.1-0.4,0.3-0.7,0.4-1.1c0.1-0.2,0.2-0.4,0.3-0.6c0-0.1,0.1-0.2,0.1-0.3c0-0.1,0.1-0.2,0.1-0.3c0.8-1.5,1.8-3.2,3-4.7
			c2.2-3.1,4.4-5.5,5.4-4.6c1.7,1.5,3,4.7,4.7,7.5c2.7,4,4.6,4.1,10.8,2.3c1.4-0.4,2.3-0.3,2.8,0.1c0.1,0,0.1,0.1,0.2,0.1
			c0.1,0,0.1,0.1,0.1,0.2c0.1,0.1,0.2,0.2,0.2,0.3c0.1,0.2,0.1,0.5,0.1,0.8c0,0.3-0.1,0.5-0.2,0.8c-0.1,0.3-0.3,0.5-0.5,0.7
			C93.4,141.1,92.8,141.5,91.9,141.7z"/>
		<path class="st4" d="M71.4,129.6c0,0,1.4,1.5,1.5,3.7c0.1,3.5-1.1,5.3-2.4,6.8c-1.3,1.5-2.2,0.8-2.2,0.8s0.7-0.9,1.3-2.6
			c0.5-1.7-0.3-3.3-1.2-3.9C68.7,132.4,71.4,129.6,71.4,129.6z"/>
	</g>
	<g>
		<path class="st3" d="M90.6,128.7c-4-0.3-8.6-0.3-9.7-3.4c-0.8-1.8-1.8-5.5-2.1-7c-0.4-1.5-3,1-5,2.3c-1,0.7-2.5,1.7-3.5,2.1
			c-0.3,0.1-0.5,0.1-0.7,0.1c-0.1,0-0.2,0-0.2-0.1c0,0-0.1,0-0.1-0.1c0,0,0-0.1-0.1-0.1c-0.1-0.3,0-0.9,0.5-1.9c0.2-0.5,0.6-1,1-1.5
			c0.2-0.2,0.4-0.5,0.7-0.8c0.1-0.1,0.2-0.3,0.4-0.4c0.1-0.1,0.1-0.1,0.2-0.2c0.1-0.1,0.1-0.1,0.2-0.2c1.1-1,2.4-2,3.8-2.9
			c2.7-1.9,5.1-3.1,5.7-2.1c0.9,1.7,1,4.7,1.6,7.4c1,4,2.5,4.6,8,5.1c1.3,0.1,1.9,0.5,2.2,0.9c0,0.1,0.1,0.1,0.1,0.2
			c0,0.1,0.1,0.1,0.1,0.2c0,0.1,0.1,0.2,0.1,0.3c0,0.2,0,0.4-0.1,0.6c-0.1,0.2-0.2,0.4-0.4,0.6c-0.2,0.2-0.4,0.3-0.7,0.4
			C92,128.6,91.3,128.7,90.6,128.7z"/>
		<path class="st4" d="M50.3,134.2c-0.8,1.6,5.7-2.4,14-7.3c1.4-0.8,2.8-1.9,4.3-3c3-2.2,4.4-2.9,6.2-4.4c2.3-1.9,4.6-3.2,5.8-4.4
			c1.5-1.5,4.6-5.9-0.5-3.9c-4.5,1.8-8.7,4.9-11,6.8c-3.2,2.6-6.8,4.1-9.8,5.6s-13.5,5.2-11.7,5.5C50.8,129.3,50.3,134.2,50.3,134.2
			z"/>
		<path class="st4" d="M77.6,112.8c0,0,0.7,1.7,0.1,3.4c-1,2.9-2.5,3.9-4,4.8c-1.5,0.8-2,0-2,0s0.8-0.5,1.8-1.7
			c0.9-1.2,0.7-2.7,0.2-3.5C74.6,114.3,77.6,112.8,77.6,112.8z"/>
	</g>
	<path class="st187" d="M135.2,148c-6.6,7.1,2.1,13.8,4.1,14.7c3,1.3,16.3,4.5,19.2,2.9c2.9-1.5,5-5.4,7.3-4.3"/>
	<path class="st188" d="M168.5,155.7c0.2-4.6,2.1-6.2,3.8,0.4c0.6,0.1,1.3,0.2,2.2,0.4c5.5,1.3,7.2,4.1,7.2,4.1s0.5,2.2-1.1,1.8
		c-1.6-0.4-5.5-2.2-5.5-2.2s3.7,1.6,3.2,2.7c-1.5,3-6.5,3.6-8.4,3c-2-0.6-2.8-0.9-3.8-2.3c-0.3-0.5-0.1-1.4,0.4-2.3
		C164.6,160.9,165.2,154.9,168.5,155.7z"/>
	<path class="st189" d="M165.7,157.3c0.2-4.6,2.1-6.2,3.8,0.4c0.6,0.1,1.3,0.2,2.2,0.4c5.5,1.3,7.2,4.1,7.2,4.1s0.5,2.2-1.1,1.8
		c-1.6-0.4-5.5-2.2-5.5-2.2s3.7,1.6,3.2,2.7c-1.5,3-6.5,3.6-8.4,3c-2-0.6-2.8-0.9-3.8-2.3c-0.3-0.5-0.1-1.4,0.4-2.3
		C161.8,162.6,162.4,156.6,165.7,157.3z"/>
	<polygon class="st5" points="83.6,87.8 72.6,93.8 59.5,87.5 60,69.2 77.5,64 86.8,75.5 	"/>
	<polygon class="st6" points="90.4,92.9 83,96.3 73.3,91.5 72.5,79.8 84.2,77 91.7,84.9 	"/>
	<g>
		<path d="M139.3,120.5c2.1-1.3,4.2-2.5,6.4-3.7c1.1-0.6,2.1-1.2,3.2-1.8c1-0.6,2.1-1.2,2.9-2.2c-0.5,1.2-1.5,2-2.5,2.8
			c-1,0.8-2.1,1.4-3.1,2C144,118.9,141.7,119.9,139.3,120.5z"/>
	</g>
	<g>
		<path d="M157.4,115.7c0.8-0.8,1.8-1.3,2.9-1.8c1.1-0.4,2.3-0.6,3.5-0.5c1.2,0.1,2.4,0.7,3.2,1.5c0.9,0.8,1.4,1.9,1.8,2.9
			c-0.7-0.9-1.4-1.7-2.3-2.3c-0.9-0.6-1.8-1-2.8-1.1c-1-0.1-2.1,0-3.1,0.2C159.5,114.9,158.5,115.3,157.4,115.7z"/>
	</g>
	<g>
		<path class="st9" d="M163.5,134.8c0.3-0.1,3.2-0.8,5.1-0.2c1.5,0.4,2.6,1.1,2.9,1.8c0.1,0.4-0.1,0.9-0.9,1.2
			c-0.1,0-0.2,0.1-0.3,0.1c-1.7,0.6-3.8-0.2-4.7-0.4c-1.1-0.3-2.3-0.8-2.9-1.4c-0.1-0.1-0.1-0.2-0.2-0.2
			C162.4,135.3,163.1,134.9,163.5,134.8C163.5,134.8,163.5,134.8,163.5,134.8"/>
	</g>
	<path class="st10" d="M137,136c4.2-3.4,10.7-4.7,13.4-2.1c1.4,1.3-0.2,4.1-4.4,6.5c-2.7,1.5-5.3,3.2-8.7,1.6
		C135.5,141,133.7,138.7,137,136z"/>
	<g>
		<path class="st9" d="M152.4,139.5c0.8,0.5,1.6,1.1,2.1,2c0.6,0.8,1,1.8,0.9,2.9c-0.1,1.1-0.7,2.1-1.5,2.7
			c-0.4,0.3-0.8,0.5-1.3,0.8c-0.5,0.2-0.9,0.3-1.4,0.4c0.4-0.3,0.7-0.6,1.1-0.9c0.3-0.3,0.7-0.6,1-0.9c0.6-0.6,1-1.4,1-2.2
			c0.1-0.8-0.2-1.6-0.5-2.4C153.5,141.1,153,140.3,152.4,139.5z"/>
	</g>
	<g>
		<path class="st9" d="M163.1,140.2c-0.2,0-0.3,0.1-0.5,0.1c-0.1,0-0.3,0.1-0.4,0.2c-0.2,0.2-0.3,0.3-0.3,0.6c-0.1,0.5,0,1,0.1,1.6
			c0.1,0.6,0.3,1.1,0.4,1.7c0.2,0.6,0.3,1.1,0.6,1.7c-0.6-0.2-1-0.8-1.4-1.4c-0.3-0.6-0.6-1.2-0.7-1.8c-0.1-0.6-0.2-1.4,0.2-2.1
			c0.1-0.2,0.2-0.3,0.4-0.5c0.2-0.1,0.4-0.2,0.5-0.3c0.2,0,0.4,0,0.5,0C162.8,140.1,163,140.1,163.1,140.2z"/>
	</g>
	<g>
		<g>
			
				<linearGradient id="SVGID_4_" gradientUnits="userSpaceOnUse" x1="153.3441" y1="137.1932" x2="153.3441" y2="124.7286" gradientTransform="matrix(0.9946 -0.1042 0.1042 0.9946 -11.2569 17.2458)">
				<stop  offset="1.528620e-02" style="stop-color:#FFEFE4"/>
				<stop  offset="1" style="stop-color:#FFFFFF"/>
			</linearGradient>
			<path style="fill:url(#SVGID_4_);" d="M168.8,120c-1.1-0.3-2.2-0.5-3.3-0.6c-4.7-0.4-9.6,0.3-14.2,0.9c-2.5,0.3-5.2,0.6-7.7,1.2
				c-1.4,0.3-2.8,0.8-4.1,1.4c-0.2,0.1-0.3,0.2-0.5,0.3c-2.3,1.2-3.5,3.7-2.9,6.2c0.4,1.6,0.8,3.2,1.2,4.8c0.4,1.3,1,2.5,2.1,3.2
				c1.3,0.9,3,1.4,4.5,1.8c0.2,0,0.3,0.1,0.5,0.1c1,0.2,2,0.2,2.9-0.1c1.5-0.5,2.4-1.8,3.2-3.1c0.9-1.6,1.8-3.1,2.7-4.7
				c0.3-0.6,0.7-1.6,1.4-1.6c0.1,0,0.2,0,0.4,0c0.7,0.1,1.1,0.7,1.5,1.2c0.6,0.7,1.2,1.3,1.9,2c0.8,0.8,1.6,1.6,2.3,2.5
				c1,1.2,2.3,2,3.9,2c1.3,0,2.5-0.6,3.6-1.2c0.6-0.3,1.3-0.7,1.9-1.1c0.6-0.4,1.2-0.8,1.6-1.4c0.7-0.9,1.1-2,1.1-3.1
				c0-1.6,0.2-3.2,0.1-4.8c0-1.5-0.3-2.9-1.4-4.1C170.8,120.9,169.9,120.3,168.8,120z"/>
			
				<linearGradient id="SVGID_5_" gradientUnits="userSpaceOnUse" x1="134.0282" y1="128.649" x2="172.6612" y2="128.649" gradientTransform="matrix(0.9946 -0.1042 0.1042 0.9946 -11.2569 17.2458)">
				<stop  offset="1.528620e-02" style="stop-color:#157EBF"/>
				<stop  offset="0.2408" style="stop-color:#1479B7"/>
				<stop  offset="0.5847" style="stop-color:#126BA2"/>
				<stop  offset="1" style="stop-color:#0E5480"/>
			</linearGradient>
			<path style="fill:url(#SVGID_5_);" d="M172.1,121.1c-0.8-0.9-1.9-1.5-3-1.9c-1.2-0.3-2.4-0.5-3.5-0.6c-2.5-0.2-5.3-0.1-8.9,0.3
				c-1.6,0.2-3.2,0.4-4.8,0.6l-0.8,0.1c-0.5,0.1-1,0.1-1.5,0.2c-2,0.3-4.2,0.5-6.2,1c-1.5,0.3-2.9,0.8-4.3,1.4
				c-0.2,0.1-0.4,0.2-0.5,0.3c-2.6,1.3-4,4.2-3.3,7.1c0.1,0.3,0.1,0.6,0.2,0.9c0.3,1.3,0.6,2.6,1,3.9c0.5,1.7,1.3,2.9,2.4,3.7
				c1.4,0.9,3.1,1.4,4.8,1.9c0.2,0,0.3,0.1,0.5,0.1c1.2,0.3,2.3,0.2,3.4-0.1c1.8-0.6,2.9-2.2,3.6-3.5c0.2-0.3,0.3-0.6,0.5-0.8
				c0.1,0,0.1,0,0.2-0.1c0.3-0.1,0.8-0.2,1-0.5c0.6-0.5,1-1.2,1.1-1.9c0-0.3,0.1-0.6,0.2-0.8c0.1-0.3,0.3-0.5,0.6-0.6
				c0.4-0.1,0.7,0.3,0.9,0.6c0.4,0.6,0.6,1.3,1,1.8c0.4,0.6,1.1,0.9,1.8,1c0.2,0,0.6,0.1,0.8,0c0.3,0.3,0.6,0.6,0.8,0.9
				c1.2,1.4,2.8,2.2,4.5,2.2c0.2,0,0.3,0,0.5,0c0,0,0,0,0,0c1.3-0.1,2.5-0.7,3.5-1.3c0.7-0.4,1.3-0.8,1.9-1.2l0.1-0.1
				c0.6-0.4,1.2-0.8,1.7-1.5c0.8-1,1.2-2.3,1.2-3.6c0-0.5,0-1,0.1-1.5c0-1.1,0.1-2.2,0.1-3.4C173.6,124.3,173.4,122.6,172.1,121.1z
				 M172.1,125.7c0,1.1,0,2.2-0.1,3.3c0,0.5,0,1-0.1,1.5c0,1-0.4,1.9-0.9,2.7c-0.3,0.4-0.8,0.8-1.3,1.1l-0.1,0.1
				c-0.6,0.4-1.2,0.7-1.8,1.1c-0.9,0.5-1.9,1-2.9,1.1c0,0,0,0,0,0c-0.1,0-0.2,0-0.3,0c-1.5,0-2.6-0.9-3.3-1.7
				c-0.5-0.6-1.1-1.2-1.6-1.8c-0.2-0.2-0.5-0.5-0.7-0.7l-1.9-2c-0.1-0.1-0.2-0.2-0.2-0.3c-0.4-0.5-0.9-1-1.7-1.2
				c-0.1,0-0.3-0.1-0.5,0c0,0-0.1,0-0.1,0c-1,0.1-1.5,1-1.8,1.7c-0.1,0.1-0.1,0.2-0.2,0.3c-0.5,0.9-1,1.8-1.5,2.7
				c-0.4,0.7-0.8,1.4-1.2,2c-0.6,1-1.5,2.3-2.8,2.8c-0.7,0.3-1.6,0.3-2.5,0.1c-0.2,0-0.3-0.1-0.5-0.1c-1.5-0.4-3.1-0.8-4.3-1.6
				c-0.8-0.6-1.4-1.5-1.8-2.8c-0.4-1.3-0.7-2.6-1-3.8c-0.1-0.3-0.1-0.6-0.2-0.9c-0.5-2.1,0.5-4.3,2.4-5.3c0.2-0.1,0.3-0.2,0.5-0.2
				c1.3-0.6,2.6-1,4-1.3l0,0c1.9-0.5,4-0.7,6-1c0.5-0.1,1-0.1,1.6-0.2l0.8-0.1c1.6-0.2,3.2-0.4,4.8-0.6c3.5-0.4,6.1-0.4,8.6-0.3
				c1,0.1,2,0.3,3.2,0.6c0.9,0.2,1.7,0.7,2.3,1.4C171.7,123.1,172.1,124.1,172.1,125.7z"/>
		</g>
		<defs>
			<filter id="Adobe_OpacityMaskFilter" filterUnits="userSpaceOnUse" x="157.2" y="130.5" width="16" height="7.8">
				<feFlood  style="flood-color:white;flood-opacity:1" result="back"/>
				<feBlend  in="SourceGraphic" in2="back" mode="normal"/>
			</filter>
		</defs>
		<mask maskUnits="userSpaceOnUse" x="157.2" y="130.5" width="16" height="7.8" id="SVGID_8_">
			<g class="st192">
				<defs>
					<filter id="Adobe_OpacityMaskFilter_1_" filterUnits="userSpaceOnUse" x="157.2" y="130.5" width="16" height="7.8">
						<feFlood  style="flood-color:white;flood-opacity:1" result="back"/>
						<feBlend  in="SourceGraphic" in2="back" mode="normal"/>
					</filter>
				</defs>
				<mask maskUnits="userSpaceOnUse" x="157.2" y="130.5" width="16" height="7.8" id="SVGID_8_">
				</mask>
				
					<linearGradient id="SVGID_9_" gradientUnits="userSpaceOnUse" x1="134.0287" y1="134.4415" x2="172.6617" y2="134.4415" gradientTransform="matrix(0.9946 -0.1042 0.1042 0.9946 -11.2569 17.2458)">
					<stop  offset="4.444360e-03" style="stop-color:#000000"/>
					<stop  offset="9.062082e-02" style="stop-color:#0F0F0F"/>
					<stop  offset="0.2569" style="stop-color:#373737"/>
					<stop  offset="0.4865" style="stop-color:#777777"/>
					<stop  offset="0.7675" style="stop-color:#CECECE"/>
					<stop  offset="0.9145" style="stop-color:#FFFFFF"/>
				</linearGradient>
				<path style="mask:url(#SVGID_8_);fill:url(#SVGID_9_);" d="M166.9,131.8c-2.8-0.4-5.6-0.7-8.4-1.1c-0.4-0.1-0.8-0.1-1.3-0.2
					c0,0,0,0,0,0c0.5,0.7,1.2,1.3,1.6,2c0.2,0.4,0.3,0.7,0.4,0.9c0.2,0.5,0.2,1,0.1,1.5c0,0.1,0,0.1,0,0.2c0.3,0.3,0.8,0.8,0.8,0.9
					c1.2,1.4,2.8,2.2,4.5,2.2c0.2,0,0.3,0,0.5,0c0,0,0,0,0,0c1.3-0.1,2.5-0.8,3.5-1.3c0.7-0.4,1.3-0.8,1.9-1.2l0.1-0.1
					c0.6-0.4,1.2-0.8,1.7-1.5c0.3-0.5,0.6-1,0.8-1.5C171.1,132.3,169,132,166.9,131.8z"/>
			</g>
		</mask>
		
			<linearGradient id="SVGID_10_" gradientUnits="userSpaceOnUse" x1="134.0287" y1="134.4415" x2="172.6617" y2="134.4415" gradientTransform="matrix(0.9946 -0.1042 0.1042 0.9946 -11.2569 17.2458)">
			<stop  offset="4.444360e-03" style="stop-color:#000000"/>
			<stop  offset="0.9145" style="stop-color:#000000"/>
		</linearGradient>
		<path style="opacity:0.14;fill:url(#SVGID_10_);" d="M166.9,131.8c-2.8-0.4-5.6-0.7-8.4-1.1c-0.4-0.1-0.8-0.1-1.3-0.2c0,0,0,0,0,0
			c0.5,0.7,1.2,1.3,1.6,2c0.2,0.4,0.3,0.7,0.4,0.9c0.2,0.5,0.2,1,0.1,1.5c0,0.1,0,0.1,0,0.2c0.3,0.3,0.8,0.8,0.8,0.9
			c1.2,1.4,2.8,2.2,4.5,2.2c0.2,0,0.3,0,0.5,0c0,0,0,0,0,0c1.3-0.1,2.5-0.8,3.5-1.3c0.7-0.4,1.3-0.8,1.9-1.2l0.1-0.1
			c0.6-0.4,1.2-0.8,1.7-1.5c0.3-0.5,0.6-1,0.8-1.5C171.1,132.3,169,132,166.9,131.8z"/>
		<defs>
			<filter id="Adobe_OpacityMaskFilter_2_" filterUnits="userSpaceOnUse" x="135.2" y="127.5" width="17.9" height="12.7">
				<feFlood  style="flood-color:white;flood-opacity:1" result="back"/>
				<feBlend  in="SourceGraphic" in2="back" mode="normal"/>
			</filter>
		</defs>
		<mask maskUnits="userSpaceOnUse" x="135.2" y="127.5" width="17.9" height="12.7" id="SVGID_13_">
			<g class="st196">
				<defs>
					<filter id="Adobe_OpacityMaskFilter_3_" filterUnits="userSpaceOnUse" x="135.2" y="127.5" width="17.9" height="12.7">
						<feFlood  style="flood-color:white;flood-opacity:1" result="back"/>
						<feBlend  in="SourceGraphic" in2="back" mode="normal"/>
					</filter>
				</defs>
				<mask maskUnits="userSpaceOnUse" x="135.2" y="127.5" width="17.9" height="12.7" id="SVGID_13_">
				</mask>
				
					<linearGradient id="SVGID_14_" gradientUnits="userSpaceOnUse" x1="134.0287" y1="131.8222" x2="172.6617" y2="131.8222" gradientTransform="matrix(0.9946 -0.1042 0.1042 0.9946 -11.2569 17.2458)">
					<stop  offset="4.444360e-03" style="stop-color:#000000"/>
					<stop  offset="9.062082e-02" style="stop-color:#0F0F0F"/>
					<stop  offset="0.2569" style="stop-color:#373737"/>
					<stop  offset="0.4865" style="stop-color:#777777"/>
					<stop  offset="0.7675" style="stop-color:#CECECE"/>
					<stop  offset="0.9145" style="stop-color:#FFFFFF"/>
				</linearGradient>
				<path style="mask:url(#SVGID_13_);fill:url(#SVGID_14_);" d="M153,130.4c0-0.2,0.1-0.3,0.1-0.5c0,0,0,0,0,0
					c-1-0.2-2.1-0.3-3.1-0.5c-4.9-0.7-9.8-1.3-14.8-1.8c-0.1,0.7,0,1.3,0.2,2c0.1,0.3,0.1,0.6,0.2,0.9c0.3,1.3,0.6,2.6,1,3.9
					c0.5,1.7,1.3,2.9,2.4,3.7c1.4,0.9,3.1,1.4,4.8,1.9c0.2,0,0.3,0.1,0.5,0.1c1.2,0.3,2.3,0.2,3.4-0.1c1.8-0.6,2.9-2.2,3.6-3.5
					c0.2-0.3,0.3-0.6,0.5-0.8c0,0,0,0,0,0c0.2-1.6,0.5-3.1,1.1-4.6C152.8,130.8,152.9,130.6,153,130.4z"/>
			</g>
		</mask>
		
			<linearGradient id="SVGID_17_" gradientUnits="userSpaceOnUse" x1="134.0287" y1="131.8222" x2="172.6617" y2="131.8222" gradientTransform="matrix(0.9946 -0.1042 0.1042 0.9946 -11.2569 17.2458)">
			<stop  offset="4.444360e-03" style="stop-color:#000000"/>
			<stop  offset="0.9145" style="stop-color:#000000"/>
		</linearGradient>
		<path style="opacity:0.14;fill:url(#SVGID_17_);" d="M153,130.4c0-0.2,0.1-0.3,0.1-0.5c0,0,0,0,0,0c-1-0.2-2.1-0.3-3.1-0.5
			c-4.9-0.7-9.8-1.3-14.8-1.8c-0.1,0.7,0,1.3,0.2,2c0.1,0.3,0.1,0.6,0.2,0.9c0.3,1.3,0.6,2.6,1,3.9c0.5,1.7,1.3,2.9,2.4,3.7
			c1.4,0.9,3.1,1.4,4.8,1.9c0.2,0,0.3,0.1,0.5,0.1c1.2,0.3,2.3,0.2,3.4-0.1c1.8-0.6,2.9-2.2,3.6-3.5c0.2-0.3,0.3-0.6,0.5-0.8
			c0,0,0,0,0,0c0.2-1.6,0.5-3.1,1.1-4.6C152.8,130.8,152.9,130.6,153,130.4z"/>
	</g>
	<g>
		
			<linearGradient id="SVGID_18_" gradientUnits="userSpaceOnUse" x1="151.5188" y1="151.7627" x2="159.3261" y2="151.7627" gradientTransform="matrix(0.9742 -0.2256 0.2256 0.9742 -27.2517 31.2932)">
			<stop  offset="1.528620e-02" style="stop-color:#157EBF"/>
			<stop  offset="0.2408" style="stop-color:#1479B7"/>
			<stop  offset="0.5847" style="stop-color:#126BA2"/>
			<stop  offset="1" style="stop-color:#0E5480"/>
		</linearGradient>
		<path style="fill:url(#SVGID_18_);" d="M158.9,146.5c1.1-0.2,2.3-0.9,2.9-2.1c0.5-0.9,0.5-2.5-0.5-3c-0.6-0.3-1.4-0.1-1.9,0.3
			c-0.2,0.2-0.4,0.5-0.7,0.6c-0.4,0.3-1,0.3-1.5,0.1s-1-0.3-1.5-0.3s-1,0.2-1.3,0.8c-0.3,0.8,0.1,2,0.6,2.5c0.7,0.6,1.6,0.9,2.4,1
			C158,146.6,158.4,146.6,158.9,146.5z"/>
		<g>
			<path class="st64" d="M151.9,151.2c-1.6,0.4-3.2,0.5-4.8,0.4c-3.1-0.2-6.2-1.6-8.7-3.9c-2.2-2-3.7-4.7-4.4-7.7l-6.1-26.4
				c-0.1-0.6,0.2-1.2,0.8-1.3c0.6-0.1,1.2,0.2,1.3,0.8l6.1,26.4c0.6,2.6,1.9,4.8,3.8,6.6c2.2,2,4.7,3.1,7.4,3.3
				c2.2,0.1,4.5-0.3,6.4-1.1c1.5-0.7,3.4-1.9,3.8-4.2c0.1-0.6,0.7-1,1.3-0.9c0.6,0.1,1,0.7,0.9,1.3c-0.5,2.5-2.2,4.5-5,5.8
				C153.7,150.7,152.8,151,151.9,151.2z"/>
		</g>
		
			<linearGradient id="SVGID_19_" gradientUnits="userSpaceOnUse" x1="132.2629" y1="116.8877" x2="135.0521" y2="116.8877" gradientTransform="matrix(0.9742 -0.2256 0.2256 0.9742 -27.2517 31.2932)">
			<stop  offset="1.528620e-02" style="stop-color:#157EBF"/>
			<stop  offset="0.2408" style="stop-color:#1479B7"/>
			<stop  offset="0.5847" style="stop-color:#126BA2"/>
			<stop  offset="1" style="stop-color:#0E5480"/>
		</linearGradient>
		<path style="fill:url(#SVGID_19_);" d="M130.9,116.6l-2,0.5c-0.3,0.1-0.5,0-0.6-0.3l-0.7-3c0-0.2,0.1-0.4,0.3-0.5l2-0.5
			c0.2,0,0.4,0.1,0.5,0.3l0.7,3C131.1,116.4,131,116.6,130.9,116.6z"/>
		
			<linearGradient id="SVGID_22_" gradientUnits="userSpaceOnUse" x1="132.2784" y1="119.6939" x2="134.9126" y2="119.6939" gradientTransform="matrix(0.9742 -0.2256 0.2256 0.9742 -27.2517 31.2932)">
			<stop  offset="1.528620e-02" style="stop-color:#157EBF"/>
			<stop  offset="0.2408" style="stop-color:#1479B7"/>
			<stop  offset="0.5847" style="stop-color:#126BA2"/>
			<stop  offset="1" style="stop-color:#0E5480"/>
		</linearGradient>
		<path style="fill:url(#SVGID_22_);" d="M131.1,118l-2.3,0.5c-0.1,0-0.2,0-0.2-0.1l-0.2-0.7c0-0.1,0-0.2,0.1-0.2l2.3-0.5
			c0.1,0,0.2,0,0.2,0.1l0.2,0.7C131.3,117.9,131.2,118,131.1,118z"/>
		
			<linearGradient id="SVGID_23_" gradientUnits="userSpaceOnUse" x1="152.6156" y1="154.3691" x2="154.7022" y2="154.3691" gradientTransform="matrix(0.9742 -0.2256 0.2256 0.9742 -27.2517 31.2932)">
			<stop  offset="1.528620e-02" style="stop-color:#157EBF"/>
			<stop  offset="0.2408" style="stop-color:#1479B7"/>
			<stop  offset="0.5847" style="stop-color:#126BA2"/>
			<stop  offset="1" style="stop-color:#0E5480"/>
		</linearGradient>
		<path style="fill:url(#SVGID_23_);" d="M158.4,147.1c-0.1-0.5-0.6-0.9-1.1-1c-0.2-0.1-0.3-0.1-0.5,0c-0.1,0-0.2,0.1-0.2,0.2
			c-0.1,0.1-0.2,0.3-0.4,0.4c0.6-0.2,1.3,0.1,1.5,0.6c0.1,0.2,0.1,0.5,0.2,0.8c0.2-0.2,0.3-0.4,0.5-0.7c0,0,0.1-0.1,0.1-0.1
			C158.4,147.2,158.4,147.1,158.4,147.1z"/>
	</g>
	<g>
		<g>
			<path class="st204" d="M133.1,80.1c3.3,2.3,7.4-2.3,3.8-4.7C133.9,73.4,130,77.9,133.1,80.1z"/>
			<path class="st205" d="M134.4,75.4c-1.6,0.4-2.6,2.3-1.5,3.7c0.5,0.6,1.2,1.1,2,1.2c0.8,0.1,1.6-0.3,2.1-0.9c0.8-1,1.3-2.7,0-3.5
				c-0.7-0.5-1.6-0.7-2.4-0.5C134.6,75.3,134.5,75.3,134.4,75.4z"/>
			<path class="st116" d="M135.9,76.6c0.1,0,0.3,0,0.4-0.1c0.5-0.5-0.4-1.2-0.7-0.7C135.3,76.2,135.6,76.6,135.9,76.6z"/>
		</g>
		<path class="st204" d="M132.9,77.5c-0.3-1.4,2.6-2.4,2.2-1.2C134.9,76.6,132.9,77.8,132.9,77.5z"/>
	</g>
	<g>
		<g>
			<path class="st204" d="M109,51.8c3.3,2.3,7.4-2.3,3.8-4.7C109.9,45.1,105.9,49.6,109,51.8z"/>
			<path class="st205" d="M110.3,47.1c-1.6,0.4-2.6,2.3-1.5,3.7c0.5,0.6,1.2,1.1,2,1.2c0.8,0.1,1.6-0.3,2.1-0.9c0.8-1,1.3-2.7,0-3.5
				c-0.7-0.5-1.6-0.7-2.4-0.5C110.5,47.1,110.4,47.1,110.3,47.1z"/>
			<path class="st116" d="M111.8,48.4c0.1,0,0.3,0,0.4-0.1c0.5-0.5-0.4-1.2-0.7-0.7C111.2,47.9,111.5,48.3,111.8,48.4z"/>
		</g>
		<path class="st204" d="M108.8,49.2c-0.3-1.4,2.6-2.4,2.2-1.2C110.8,48.4,108.9,49.5,108.8,49.2z"/>
	</g>
	<g>
		<g>
			<path class="st204" d="M123.8,100.4c1.8,1.3,4.1-1.3,2.1-2.6C124.2,96.7,122.1,99.2,123.8,100.4z"/>
			<path class="st205" d="M124.5,97.8c-0.9,0.2-1.5,1.3-0.8,2c0.3,0.3,0.7,0.6,1.1,0.7c0.4,0,0.9-0.1,1.2-0.5c0.5-0.5,0.7-1.5,0-2
				c-0.4-0.3-0.9-0.4-1.3-0.3C124.6,97.8,124.5,97.8,124.5,97.8z"/>
			<path class="st116" d="M125.3,98.5c0.1,0,0.1,0,0.2-0.1c0.3-0.3-0.2-0.7-0.4-0.4C125,98.2,125.1,98.5,125.3,98.5z"/>
		</g>
		<path class="st204" d="M123.6,99c-0.1-0.8,1.5-1.3,1.2-0.6C124.8,98.5,123.7,99.1,123.6,99z"/>
	</g>
	<g>
		<g>
			<path class="st204" d="M126.5,72.3c1.8,1.3,4.1-1.3,2.1-2.6C126.9,68.6,124.8,71.1,126.5,72.3z"/>
			<path class="st205" d="M127.2,69.7c-0.9,0.2-1.5,1.3-0.8,2c0.3,0.3,0.7,0.6,1.1,0.7c0.4,0,0.9-0.1,1.2-0.5c0.5-0.5,0.7-1.5,0-2
				c-0.4-0.3-0.9-0.4-1.3-0.3C127.3,69.7,127.3,69.7,127.2,69.7z"/>
			<path class="st116" d="M128,70.4c0.1,0,0.1,0,0.2-0.1c0.3-0.3-0.2-0.7-0.4-0.4C127.7,70.1,127.9,70.4,128,70.4z"/>
		</g>
		<path class="st204" d="M126.4,70.9c-0.1-0.8,1.5-1.3,1.2-0.6C127.5,70.4,126.4,71,126.4,70.9z"/>
	</g>
	<g>
		<g>
			<path class="st204" d="M68.7,170c1.2,0.9,2.8-0.9,1.4-1.8C69,167.5,67.5,169.2,68.7,170z"/>
			<path class="st205" d="M69.1,168.2c-0.6,0.2-1,0.9-0.6,1.4c0.2,0.2,0.5,0.4,0.8,0.5c0.3,0,0.6-0.1,0.8-0.3c0.3-0.4,0.5-1,0-1.3
				c-0.3-0.2-0.6-0.3-0.9-0.2C69.2,168.2,69.2,168.2,69.1,168.2z"/>
			<path class="st116" d="M69.7,168.7c0,0,0.1,0,0.1,0c0.2-0.2-0.1-0.5-0.3-0.3C69.5,168.5,69.6,168.7,69.7,168.7z"/>
		</g>
		<path class="st204" d="M68.6,169c-0.1-0.5,1-0.9,0.8-0.4C69.3,168.7,68.6,169.1,68.6,169z"/>
	</g>
	<g>
		<path class="st172" d="M217.9,168.2c1.8,0,4.1,1.2,4.3,2.5c0.2,2-7.6,2.1-9.5,2.3c-2.3,0.3-3.1,1-4.9,2c-2.3,1.3-5.7,1-8.5,0.8
			c-3.5-0.2-6.8-0.1-10.2,0.1c-2.7,0.2-5.8,0.2-8.4-0.4c-3.3-0.8-5.4-2.4-4.8-4.8c0.7-2.4,3.4-2.3,6.3-2.6c3.4-0.5,6.4-1.3,10-1.2
			c2.2,0.1,4.4,0.2,6.6,0.2c2,0,4,0.3,6,0.3c1.1,0,2.1-0.3,3.2-0.3c1.6,0,2.8,0.4,4.3,0.7C214.1,168.2,216.2,168.2,217.9,168.2z"/>
		<path class="st173" d="M215.1,169.1c0.8,0.3,0.4,0.8-0.4,1.2c-1,0.5-2.7,0.5-3.8,0.8c-1.7,0.5-3.4,1.1-5.2,1.4
			c-1.4,0.3-2.9,0.2-4.3,0.5c-3.5,0.7-7.1-0.3-10.6-0.6c-1.5-0.1-2.9-0.4-4.2-0.9c-0.4-0.2-1.7-0.5-1.8-0.9
			c-0.3-1.1,3.7-1.5,4.8-1.8c2-0.5,3.8-0.8,6-1c2.6-0.2,5.1,0,7.7,0c1.5,0,3.1-0.1,4.6,0.1c1.3,0.2,2.5,0.8,3.9,0.8
			C212.8,168.7,214,168.7,215.1,169.1z"/>
		<g>
			<path class="st206" d="M193.5,159.2c0.1,0.3,0.3,0.6,0.5,0.9c1.1,1.7,3.1,2.5,5.7,1.5c0.8,0.1,1.5,0.3,2.1,1
				c0.1,0.1,0.2,0.3,0.2,0.5c0,0.1,0.1,0.2,0.1,0.3c0,0.1,0,0.1,0,0.2c-0.1,2.4,2.2,4.6,4.7,4.1c0.4-0.1,0.7-0.1,1.1-0.2
				c1.8-0.5,3.4-1.7,4.6-3.2c0.6-0.8,1.1-1.6,1.4-2.5c0.2-0.5,0.3-0.9,0.4-1.4c1-4.3,0.2-8.7-3.2-11.4c0,0-0.1,0-0.1-0.1
				c-0.2-0.1-0.4-0.3-0.6-0.4c-0.5-0.4-1.1-0.7-1.8-1c-0.4-0.2-0.8-0.3-1.2-0.4c-0.3-0.1-0.6-0.2-0.9-0.3c-1-0.2-2-0.4-3-0.4
				c-0.4,0-0.7,0-1.1,0.1h0c-1.5,0.1-3.1,0.6-4.5,1.3c-0.3,0.2-0.6,0.3-0.8,0.5c-0.1,0-0.1,0.1-0.2,0.1c-0.3,0.2-0.7,0.5-1,0.7
				c-0.5,0.4-1,0.9-1.4,1.4c-0.2,0.2-0.3,0.4-0.5,0.7C192.4,153.6,191.8,156.7,193.5,159.2z"/>
			<path class="st206" d="M211.7,152.5c0.3-0.3,1.1-0.8,1-1.3c0-0.4-0.7-0.8-1-0.9c-0.7-0.4-1.3-0.6-2.1-0.7
				c-1.2-0.2-2.5-0.1-3.6,0.6c-0.9,0.6-1.8,1.4-2.2,2.5c-0.5,1.3-0.8,2.7-0.9,4.1c-0.1,1.4-0.1,2.7,0.2,4.1c0.6,2.1,1.7,4.1,3.6,5.3
				c0.5,0.3,1.5,0.7,2,0.6c1.8-0.4,1.4-3.1,1.3-4.3c-0.3-2.8-0.3-5.7,0.8-8.3C211,153.4,211.2,152.8,211.7,152.5z"/>
			<path class="st206" d="M195.6,152.8c1.7-0.2,3.5,1,4.7,2.3c0.8,0.9,1,1.7,1.3,2.8c0.2,0.8,0.7,2,0.5,2.9
				c-0.3,1.4-1.4,2.1-2.6,2.3c-1.2,0.3-2.4,0.6-3.6,0c-1.8-0.9-2.4-3.1-2.8-5.1c-0.3-1.2-0.6-2.6-0.1-3.8
				C193.3,153.2,194.6,152.9,195.6,152.8z"/>
			<path class="st207" d="M194.1,151.2c0.4,0,0.8,0,1.2,0.1c0.7,0.1,1.4,0.3,2.1,0.6c1.5,0.7,2.5,1.8,3.5,3c0.5,0.7,0.9,1.4,1.3,2.1
				c0.3,0.7,0.4,1.3,0.6,2c0.3,1.4,0,2.8-0.6,4.1c0,0,0,0,0,0c-0.1,0.2,0,0.3,0.1,0.4c0.1,0.1,0.4,0.1,0.5-0.1c0.7-1.4,1-3,0.7-4.6
				c-0.1-0.4-0.1-0.9-0.2-1.3c-0.1-0.4-0.3-0.7-0.5-1c-0.4-0.8-0.9-1.5-1.5-2.2c-0.6-0.7-1.1-1.4-1.9-2c-0.7-0.6-1.5-1-2.4-1.3
				c-0.7-0.3-1.5-0.5-2.3-0.5C194.4,150.7,194.2,150.9,194.1,151.2z"/>
			<path class="st207" d="M197.1,148.3c0.3,0.1,0.5,0.1,0.8,0.2c1.1,0.3,2,0.8,2.8,1.5c0.8,0.7,1.4,1.4,2,2.3c0.5,0.8,0.9,2,0.9,3
				c0,0.4,0.7,0.4,0.7,0c0-1.1-0.4-2.4-1-3.3c-0.6-1-1.4-1.8-2.2-2.6c-0.9-0.8-1.9-1.3-3.1-1.6C197.7,147.9,197.4,148.1,197.1,148.3
				z"/>
			<path class="st207" d="M202.4,146.4c0.5,0.3,0.9,0.6,1.3,1c0.5,0.6,0.9,1.2,1.3,1.9c0.3,0.5,0.9,1.6,0.6,2.2
				c-0.2,0.4,0.5,0.6,0.6,0.2c0.3-0.7-0.2-1.7-0.5-2.3c-0.4-0.9-0.9-1.7-1.6-2.4c-0.2-0.2-0.4-0.4-0.7-0.6
				C203.2,146.4,202.8,146.4,202.4,146.4z"/>
			<path class="st207" d="M207.4,148.8c0.1,0.6,0,1.1-0.1,1.7c-0.1,0.4,0.6,0.6,0.6,0.2c0.1-0.7,0.3-1.2,0.2-1.8
				c-0.1-0.6-0.3-1.3-0.6-1.9c-0.3-0.1-0.6-0.2-0.9-0.3c0.1,0.2,0.2,0.3,0.3,0.5C207,147.7,207.3,148.2,207.4,148.8z"/>
			<path class="st207" d="M210.1,150.7c0.5-0.3,0.9-1.3,0.9-1.9c0,0-0.1,0-0.1-0.1c-0.2-0.1-0.4-0.3-0.6-0.4c0,0.5-0.1,1.5-0.6,1.8
				C209.4,150.4,209.8,151,210.1,150.7z"/>
			<g>
				<path class="st206" d="M203.5,160.2c0.1,0.3,0.1,0.6,0.2,1c0.1,0.2,0.1,0.5,0.2,0.7c0.5,1.4,1.3,2.6,2.4,3.5
					c0.5,0.4,1.1,0.8,1.7,1.1c0.1,0,0.2,0.1,0.3,0.1c0,0,0.1,0,0.1,0.1c0.1,0,0.3,0.1,0.4,0.1c0.9,0.2,1.8,0.3,2.7-0.1
					c0.1-0.1,0.3-0.1,0.4-0.2c0.1,0,0.2-0.1,0.3-0.2c0.3-0.2,0.6-0.3,0.8-0.5l0,0c3.4-2.5,4.4-8.2,2.5-11.8c-0.8-1.6-2.2-3-3.9-3.7
					c-0.6-0.3-1.2-0.4-1.9-0.5c-0.8-0.1-1.7,0.1-2.6,0.5c-0.5,0.3-1,0.6-1.4,1c-0.2,0.2-0.3,0.4-0.5,0.5c0,0-0.1,0.1-0.1,0.1
					c-0.1,0.1-0.1,0.2-0.2,0.3c-0.6,0.9-1,1.9-1.3,3c-0.1,0.3-0.1,0.5-0.2,0.8C203.3,157.6,203.3,159,203.5,160.2z"/>
				<path class="st207" d="M209.8,149.9c0.1,0.1,0.1,0.1,0.3,0.1c0.4,0,0.9,0.6,1.2,0.8c0.5,0.4,0.9,0.9,1.3,1.4
					c0.7,0.8,1.4,2.2,1.4,3.4c0,0.4,0.7,0.4,0.7,0c0-1.4-0.8-2.8-1.6-3.8c-0.4-0.5-0.8-1-1.3-1.4
					C211.1,150.1,210.4,149.9,209.8,149.9z"/>
				<path class="st207" d="M205,152.4c0.1,0,0.2-0.1,0.2-0.2v0c0.5-0.3,1.7,0,2.2,0.1c0.7,0.1,1.4,0.4,2,0.7
					c0.6,0.3,1.2,0.7,1.8,1.2c0.3,0.2,0.8,0.6,0.9,0.9c0.1,0.1,0.1,0.2,0.2,0.3c0.3,0.3,0.8-0.2,0.5-0.5c-0.3-0.3-0.5-0.7-0.8-1
					c-0.3-0.3-0.6-0.5-0.9-0.8c-0.7-0.5-1.4-0.9-2.2-1.2c-0.8-0.3-1.7-0.5-2.6-0.5c-0.2,0-0.3,0-0.5,0c-0.2,0.2-0.3,0.4-0.5,0.5
					c0,0-0.1,0.1-0.1,0.1C205.2,152.2,205.1,152.3,205,152.4z"/>
				<path class="st207" d="M203.6,156.2c0.4-0.2,0.9-0.3,1.3-0.3c0.8-0.1,1.5-0.1,2.3-0.1c0.8,0,1.6,0,2.4,0.3
					c0.4,0.1,0.7,0.2,1.1,0.4c0.3,0.1,0.8,0.2,0.9,0.4c0.2,0.4,0.8,0,0.6-0.3c-0.1-0.3-0.4-0.4-0.7-0.5c-0.5-0.2-1-0.3-1.5-0.5
					c-1-0.3-2-0.4-3-0.4c-0.8,0-2.1,0-3.1,0.3C203.7,155.7,203.6,155.9,203.6,156.2z"/>
				<path class="st207" d="M203.7,161.2c0.1,0.2,0.1,0.5,0.2,0.7c0.7-1,2.2-1.7,3.2-2c0.8-0.2,1.5-0.5,2.3-0.6
					c0.6-0.1,1.5-0.3,2.1-0.1c0.4,0.2,0.7-0.4,0.3-0.6c-0.7-0.3-1.6-0.2-2.4,0c-1.1,0.2-2.2,0.5-3.2,0.9
					C205.4,159.9,204.4,160.4,203.7,161.2z"/>
				<path class="st207" d="M208,166.5c0.1,0,0.2,0.1,0.3,0.1c0,0,0,0,0,0c0,0,0,0,0,0h0.2c0.1,0,0.3,0.1,0.4,0.1c0,0,0-0.1-0.1-0.1
					c0-0.1-0.1-0.3-0.1-0.4c0-0.2,0-0.4,0-0.5c0.1-0.3,0.1-0.6,0.3-0.9c0.3-0.6,0.7-1.1,1.1-1.5c0.5-0.5,0.9-0.9,1.4-1.3
					c0.4-0.4,0.9-1.1,1.4-1.2c0.4-0.1,0.2-0.7-0.2-0.6c-0.8,0.2-1.2,0.9-1.7,1.4c-0.7,0.7-1.4,1.3-2,2c-0.5,0.6-0.9,1.3-1,2.1
					C208.1,165.8,208,166.1,208,166.5z"/>
				<path class="st207" d="M211.9,166.5c0.1,0,0.2-0.1,0.3-0.2c0.3-0.2,0.6-0.3,0.8-0.5l0,0c0.8-1.5,1.3-3.2,1.4-4.9
					c0.2-0.2,0.1-0.6-0.2-0.6h-0.1c-0.2,0-0.3,0.2-0.3,0.3C213.8,162.8,213,164.8,211.9,166.5z"/>
			</g>
			<path class="st206" d="M216.5,160c-0.2-0.9-0.7-1.7-0.9-2.5c-0.3-0.8-0.2-1.6-0.1-2.5c0.2-1.5-1.5-2.3-2.9-1.7
				c-0.9,0.4-1.2,1-1.5,1.8c-0.4,1.3-0.1,3.2,0.3,4.4c0.2,0.7,0.6,1.4,1.4,1.7c0.6,0.2,1.7,0.3,2.4,0.3
				C216.2,161.4,216.7,160.9,216.5,160z"/>
			<path class="st206" d="M211.5,156.9c0,0.8,0.1,1.6,0.4,2.3c0.2,0.4,0.3,0.8,0.6,1.1c0.1,0.2,0.3,0.3,0.4,0.5
				c0.7,0.6,1.7,0.8,2.6,0.5h0c0.6-0.2,1.2-0.6,1.7-1.1c0,0,0,0,0,0c0.5-0.6,0.9-1.5,0.9-2.4c0-1.4-0.5-2.6-1.7-3.4
				c-1.1-0.7-2.4-1.5-3.4-0.8c-0.3,0.2-0.5,0.4-0.7,0.7c0,0,0,0,0,0c-0.3,0.5-0.5,1.2-0.6,1.9C211.5,156.4,211.5,156.7,211.5,156.9z
				"/>
			<g>
				<path class="st208" d="M204.5,151.3c-0.1,0.4-0.2,0.9-0.7,0.5c-0.2-0.2-0.3-0.6-0.4-0.9c-0.1-0.3-0.1-0.6-0.1-0.9
					c0.4,0.3,0.9,0.7,1.3,1.1C204.5,151.2,204.5,151.2,204.5,151.3z"/>
				<path class="st209" d="M203.6,145.4c0.3-0.8,0.8-1.7,1.5-2.3c0.4-0.3,0.8-0.4,1.1-0.7c1.1-0.9,0.5,1.2,0.2,1.6
					c-0.3,0.5-0.2,0.5-0.1,1.1c0,0.3-0.2,0.7-0.3,1c-0.3,0.8-0.3,1.7-0.6,2.5c-0.2,0.5,0,1-0.2,1.5c-0.1,0.3-0.4,0.6-0.6,0.9
					c-0.4-0.4-0.9-0.7-1.3-1.1c0-0.4,0-0.8-0.1-1.2C203.1,147.7,203.1,146.5,203.6,145.4z"/>
				<path class="st209" d="M204.6,151.1c0.3-0.6,1.1-1,1.4-1.5c0.5-0.9,0.8-1.8,1.4-2.6c1-1.3,1.3-2.7,1.8-4.2c1,1.3,1,3.4,0.4,5
					c-0.6,1.6-1.5,3.4-3.1,4.3c-0.2,0.1-0.4,0.2-0.7,0.3C205.4,151.9,205,151.5,204.6,151.1z"/>
				<path class="st208" d="M205.8,152.3c-0.6,0.2-1.4,0.1-1.4-0.6c0-0.2,0.1-0.4,0.2-0.6C205,151.5,205.4,151.9,205.8,152.3z"/>
				<path class="st208" d="M187,155.2c-0.4,0.2-0.9-0.1-1.4-0.6c0.3-0.6,0.6-1.1,1-1.7C187,153.6,187.6,154.8,187,155.2z"/>
				<path class="st209" d="M185.1,150.5c0.5,0.7,1,1.3,1.4,2.1c0,0.1,0.1,0.2,0.2,0.4c-0.4,0.5-0.7,1.1-1,1.7
					c-0.5-0.5-1-1.2-1.2-1.5c-0.5-0.7-1.2-1.1-1.6-1.9c-0.2-0.4-0.4-0.7-0.6-1c-0.1-0.2,0-0.2-0.2-0.4c-0.2-0.2-0.4-0.3-0.6-0.5
					c-0.2-0.3-0.2-0.6-0.5-0.9c-0.3-0.3-0.5-0.6-0.5-0.9C182.2,148,183.9,149.1,185.1,150.5z"/>
				<path class="st209" d="M178.3,149.7c0.6,0.2,1.1,0.7,1.6,1c0.8,0.5,1.6,0.8,2.3,1.4c0.9,0.8,1.8,1.5,2.8,2.2
					c0.1,0.1,0.4,0.2,0.6,0.3c-0.2,0.5-0.4,1-0.6,1.5c-0.1,0-0.2,0-0.2,0c-1.6,0.1-3.2-1-4.2-2.2c-0.3-0.4-0.4-0.7-0.7-1.1
					c-0.3-0.4-0.6-0.6-0.8-1C178.8,151.3,178.1,150.3,178.3,149.7z"/>
				<path class="st208" d="M186.6,155.3c0.1,0.5-1,0.7-1.6,0.8c0.1-0.5,0.3-1,0.6-1.5C186.1,154.7,186.6,155,186.6,155.3z"/>
				<g>
					<path class="st209" d="M190,168.8c-1.1-0.4-2.1-1.6-2.5-2.7c-0.2-0.5-0.3-1-0.2-1.5c0.1-0.5,0.3-1.3,0.9-1
						c1.1,0.4,1.1,1.6,0.9,2.4c-0.1,0.6,0.1,1,0.3,1.6C189.6,167.7,190,168.8,190,168.8z"/>
					<path class="st208" d="M188.3,163.6c0.9,0.3,1,1.1,1,1.8c-0.7-0.1-1.2-0.7-1.7-1.2c0,0,0-0.1-0.1-0.1
						C187.6,163.7,187.8,163.4,188.3,163.6z"/>
					<g>
						<path class="st209" d="M190.7,162.9c-0.2,0.4-0.4,0.8-0.6,1.2c-0.4,1-1.2,1.2-2,0.3c-0.8-0.8-0.5-1.5,0-2.4
							c0.3-0.6,1.1-1.8,2-1.6c0.5,0.1,0.9,0.6,1,1.1C191.3,162.2,191,162.4,190.7,162.9z"/>
						<path class="st208" d="M189.2,160.7c0.3-0.2,0.6-0.3,0.9-0.3c0.5,0.1,0.9,0.6,1,1.1c0.1,0.4,0.1,0.6,0,0.8
							C190.3,162,189.6,161.4,189.2,160.7z"/>
						<path class="st209" d="M193.1,161.6c-0.6,0.1-0.9,0.6-1.5,0.7c-0.5,0.2-1.9-1.1-2-1.7c-0.2-1.1,2-1.6,2.8-1.6
							c0.9,0,2.1,0.2,2.8,0.8c0.4,0.4,0.3,1.1-0.1,1.4C194.6,161.7,193.8,161.5,193.1,161.6z"/>
					</g>
					<path class="st210" d="M193,160.2c-0.9-0.1-1.5,0.2-2.2,0.5c-0.2,0.1-0.5,0.1-0.6-0.2c-0.1-0.3,0.1-0.4,0.3-0.6
						c0.3-0.2,0.7-0.4,1.1-0.4c0.3,0,0.6-0.2,0.9-0.2c0.3,0,0.6,0,0.9,0c0.4,0,1.5,0.5,1.2,1.1C194.3,160.8,193.3,160.2,193,160.2z"
						/>
					<path class="st211" d="M189,161.3c1.1-0.3-0.1,1.5-0.2,1.7c-0.1,0.3-0.2,1.1-0.7,0.9c-0.5-0.2-0.1-1.2,0-1.5
						C188.3,162,188.6,161.4,189,161.3z"/>
				</g>
				<path class="st208" d="M200.3,156.5c0.4,0.7,0.7,1.3,0.3,2c-0.5,0.7-1.4,1.1-2,1.6c-0.6,0.5-1.3,0.8-2,0.9
					c-0.6,0.1-1.4-0.4-1.9-0.7c-0.3-0.2-0.7-0.4-0.9-0.7c-0.1-0.2-0.1-0.5-0.1-0.7c-0.1-0.8-0.4-1.5,0-2.3c0.4-0.7,1.1-0.9,1.8-1
					c0.4-0.1,0.8-0.1,1.3-0.1c0.5,0,0.8,0.1,1.2-0.1C198.9,155.1,199.8,155.8,200.3,156.5z"/>
				<path class="st209" d="M196.3,154.9c-0.2-0.9,0.8-2.4,1.8-1.8c0.7,0.4,0.9,1.7,0.9,2.4c0,0.7-0.3,2.2-1.2,1.6
					C197.4,156.8,196.4,155.3,196.3,154.9z"/>
				<path class="st209" d="M192.1,155.8c-0.2-0.9,0.8-2.4,1.8-1.8c0.7,0.4,0.8,1.7,0.8,2.4c0,0.7-0.3,2.3-1.2,1.6
					C193.2,157.7,192.2,156.2,192.1,155.8z"/>
				<g>
					<path class="st212" d="M198.2,153.6c0.1,1.1-1.3,2.7-2.3,1.5c-0.7-0.9-0.9-2.5,0.3-3C197.1,151.7,198.1,152.7,198.2,153.6z"/>
					<path class="st116" d="M196.7,153.4c-0.4,0.7-1.2-0.3-0.6-0.7C196.5,152.4,197,153,196.7,153.4z"/>
				</g>
				<g>
					<path class="st212" d="M193.9,154.4c0.1,0.9-1.1,2.3-2,1.3c-0.6-0.7-0.7-2.1,0.3-2.6C193,152.7,193.8,153.6,193.9,154.4z"/>
					<path class="st116" d="M192.7,154.4c-0.4,0.7-1.2-0.3-0.6-0.7C192.5,153.4,193,154,192.7,154.4z"/>
				</g>
				<g>
					<path class="st209" d="M194.8,171c-1.2,0-2.6-0.7-3.4-1.6c-0.4-0.4-0.7-0.9-0.8-1.4c-0.1-0.5-0.2-1.4,0.4-1.4
						c1.2-0.1,1.6,1.1,1.8,2c0.1,0.6,0.5,1,0.9,1.4C193.9,170.1,194.7,171,194.8,171z"/>
					<path class="st208" d="M191,166.6c0.9-0.1,1.4,0.6,1.7,1.4c-0.7,0.2-1.4-0.1-2.1-0.5c0,0-0.1,0-0.1-0.1
						C190.5,167.1,190.6,166.7,191,166.6z"/>
					<g>
						<path class="st209" d="M193,165c-0.1,0.5-0.1,0.9,0,1.4c0.1,1.1-0.6,1.7-1.7,1.2c-1.1-0.5-1.1-1.2-1-2.3
							c0.1-0.7,0.3-2.3,1.2-2.5c0.5-0.1,1,0.2,1.4,0.6C193.3,164,193.1,164.3,193,165z"/>
						<path class="st208" d="M190.7,163.5c0.2-0.3,0.4-0.6,0.8-0.7c0.5-0.1,1,0.2,1.4,0.6c0.2,0.3,0.3,0.6,0.3,0.8
							C192.3,164.2,191.4,163.9,190.7,163.5z"/>
						<path class="st209" d="M194.7,162.6c-0.5,0.4-0.6,1-1.1,1.3c-0.4,0.4-2.2-0.2-2.6-0.8c-0.6-1,1.2-2.4,1.9-2.8
							c0.8-0.4,2-0.7,2.9-0.3c0.5,0.2,0.7,0.9,0.5,1.4C196.1,162,195.2,162.2,194.7,162.6z"/>
					</g>
					<path class="st210" d="M194,161.3c-0.8,0.3-1.3,0.8-1.9,1.4c-0.2,0.2-0.4,0.3-0.6,0.1c-0.2-0.2-0.1-0.5,0-0.7
						c0.2-0.4,0.5-0.6,0.8-0.9c0.3-0.2,0.5-0.5,0.8-0.6c0.2-0.1,0.6-0.3,0.8-0.4c0.4-0.2,1.6-0.2,1.5,0.5
						C195.4,161.3,194.3,161.2,194,161.3z"/>
					<path class="st211" d="M190.8,164.1c0.9-0.8,0.5,1.5,0.5,1.7c0,0.4,0.3,1.2-0.3,1.2c-0.6,0-0.6-1.1-0.6-1.5
						C190.5,165.1,190.4,164.4,190.8,164.1z"/>
				</g>
				<g>
					<path class="st209" d="M204.6,172.4c-1.3,0.7-3.3,0.7-4.7,0.1c-0.7-0.3-1.3-0.6-1.7-1.2c-0.4-0.6-1-1.5-0.3-1.9
						c1.3-0.8,2.5,0.4,3.2,1.3c0.5,0.6,1.1,0.9,1.8,1.1C203.1,171.8,204.6,172.4,204.6,172.4z"/>
					<path class="st208" d="M197.9,169.3c1-0.6,2,0,2.7,0.7c-0.7,0.6-1.7,0.6-2.6,0.6c-0.1,0-0.1,0-0.2,0
						C197.5,170.2,197.4,169.6,197.9,169.3z"/>
					<g>
						<path class="st209" d="M199.2,166.2c0.2,0.6,0.4,1.1,0.7,1.7c0.7,1.3,0.3,2.4-1.3,2.4c-1.5,0.1-1.9-0.8-2.4-2.2
							c-0.3-0.9-1-2.9,0-3.6c0.6-0.4,1.3-0.4,1.9-0.1C199,164.9,199,165.4,199.2,166.2z"/>
						<path class="st208" d="M195.8,165.7c0-0.5,0.1-0.9,0.5-1.2c0.6-0.4,1.3-0.4,1.9-0.1c0.5,0.2,0.7,0.5,0.8,0.8
							C198,165.6,196.8,165.9,195.8,165.7z"/>
						<path class="st209" d="M199.9,162.4c-0.4,0.7-0.2,1.5-0.5,2.2c-0.3,0.7-2.6,1-3.4,0.5c-1.3-0.8,0-3.6,0.6-4.5
							c0.7-1,1.9-2,3.1-2.1c0.7,0,1.3,0.7,1.4,1.4C201.1,160.9,200.3,161.6,199.9,162.4z"/>
					</g>
					<path class="st210" d="M198.4,161.2c-0.8,0.8-1,1.8-1.3,2.8c-0.1,0.3-0.3,0.6-0.7,0.5c-0.4-0.1-0.4-0.5-0.4-0.9
						c0-0.6,0.2-1,0.4-1.5c0.2-0.4,0.3-0.8,0.5-1.2c0.2-0.3,0.5-0.6,0.7-0.9c0.4-0.4,1.7-1.1,2-0.3
						C200,160.4,198.7,160.9,198.4,161.2z"/>
					<path class="st211" d="M196.2,166.4c0.6-1.5,1.4,1.4,1.5,1.7c0.2,0.4,1,1.3,0.4,1.6c-0.7,0.3-1.3-1-1.5-1.4
						C196.4,167.8,196,167,196.2,166.4z"/>
				</g>
				<g>
					<path class="st209" d="M210.6,168.5c-0.6,1.2-2.1,2-3.4,2.1c-0.6,0-1.2,0-1.8-0.3c-0.6-0.3-1.4-0.9-1.1-1.6
						c0.6-1.3,2-0.7,2.9-0.2c0.7,0.3,1.2,0.3,1.9,0.2C209.2,168.6,210.6,168.5,210.6,168.5z"/>
					<path class="st208" d="M204.3,168.7c0.4-1,1.4-0.9,2.2-0.6c-0.2,0.9-0.9,1.3-1.6,1.7c0,0-0.1,0-0.1,0.1
						C204.4,169.6,204.1,169.2,204.3,168.7z"/>
					<g>
						<path class="st209" d="M203.8,165.4c0.4,0.4,0.8,0.8,1.3,1.1c1.1,0.8,1.3,1.9,0.2,2.7c-1.1,0.7-1.8,0.1-2.8-0.9
							c-0.7-0.7-2-2.1-1.7-3.1c0.2-0.6,0.8-0.9,1.4-0.9C203,164.4,203.2,164.8,203.8,165.4z"/>
						<path class="st208" d="M201,166.5c-0.2-0.4-0.3-0.9-0.2-1.3c0.2-0.6,0.8-0.9,1.4-0.9c0.4,0,0.7,0.1,0.9,0.3
							C202.6,165.5,201.8,166.2,201,166.5z"/>
						<path class="st209" d="M202.4,161.8c0.1,0.8,0.6,1.4,0.7,2.1c0.1,0.7-1.4,2-2.2,1.9c-1.3-0.2-1.7-3.1-1.6-4.2
							c0.1-1.1,0.4-2.6,1.3-3.1c0.5-0.3,1.3,0,1.6,0.6C202.6,160,202.3,161,202.4,161.8z"/>
					</g>
					<path class="st210" d="M200.8,161.5c-0.2,1,0.1,2,0.3,3c0.1,0.3,0,0.6-0.3,0.7c-0.3,0.1-0.5-0.3-0.7-0.6
						c-0.3-0.5-0.4-1-0.4-1.5c0-0.4-0.2-0.9-0.2-1.3c0-0.3,0.1-0.8,0.1-1.1c0.1-0.5,0.7-1.7,1.4-1.1
						C201.6,160.1,200.9,161,200.8,161.5z"/>
					<path class="st211" d="M201.7,166.9c-0.3-1.5,1.7,0.6,1.9,0.8c0.3,0.3,1.3,0.7,1,1.2c-0.3,0.6-1.4-0.3-1.8-0.6
						C202.4,168,201.8,167.5,201.7,166.9z"/>
				</g>
				<path class="st213" d="M198.3,157.6c-0.7,0.7-2.2,0.8-3.1,0.4c0.3,0.7,0.7,1.4,1.6,1.4C197.8,159.5,197.9,158.3,198.3,157.6
					L198.3,157.6z"/>
				<path class="st209" d="M191.8,158.6c0.4,0.1,1.5,0.4,1.7,0.1c0.2-0.3-0.2-0.9-0.4-1.1c-0.6-0.6-1.6-0.8-2.3-1.2
					c-0.8-0.5-1.5-1.1-2.1-1.7c-0.4-0.4-0.7-1.1-1.2-1.3c-0.7-0.3-1.2,1.1-1.5,1.7c-0.4,0.7-1,1.3-0.3,2c1,1,2.6,1.2,3.9,1.4
					C190.4,158.5,191.1,158.5,191.8,158.6z"/>
				<path class="st209" d="M201.2,158c-0.7,0.2-2.4,0.2-1.8-1c0.2-0.3,0.7-0.5,0.9-0.8c0.6-0.7,0.7-1.7,1-2.5
					c0.3-0.8,0.6-1.7,0.9-2.5c0.7-1.8,3.2,0.7,3.2,2c0,1.3-0.9,2.9-1.9,3.6C202.9,157.3,202,157.7,201.2,158z"/>
				<path class="st210" d="M203.6,152.8c-0.3,0.8-0.8,1.5-1.2,2.3c-0.2,0.6-0.6,1.3-1,1.8c-0.2,0.2-1,0.5-1.1,0.1
					c-0.1-0.4,0.5-1.1,0.7-1.4c0.4-0.5,0.6-1.2,0.8-1.8c0.2-0.6,0.3-1.2,0.5-1.7c0.1-0.2,0.1-0.5,0.3-0.7c0.2-0.2,0.5-0.3,0.7-0.2
					c0.3,0,0.3,0.1,0.4,0.4C203.8,151.9,203.8,152.5,203.6,152.8z"/>
				<path class="st210" d="M203.7,148.6c0,0.2,0,0.6,0.3,0.7c0.3,0.1,0.4-0.3,0.5-0.5c0.1-0.3,0-0.5,0-0.8c0-0.7,0.1-1.4,0.3-2.1
					c0.1-0.5,0.5-1,0.8-1.5c0.2-0.3,0.5-0.6,0.5-1c0.1-0.8-1,0.2-1.1,0.3c-0.7,0.7-1.2,1.8-1.3,2.8
					C203.6,147.3,203.6,148,203.7,148.6z"/>
				<path class="st210" d="M185.5,153c0.4,0.2,0.4-0.6,0.3-0.8c-0.1-0.3-0.4-0.6-0.6-0.9c-0.5-0.7-1.1-1.4-1.8-2
					c-0.2-0.2-1.6-1.4-1.7-0.7c0,0.3,0.2,0.7,0.5,0.9c0.5,0.5,1,0.8,1.4,1.4C184,151.6,184.6,152.7,185.5,153z"/>
				<path class="st210" d="M188.4,155.1c0.5,0.6,1.5,1.1,2.2,1.4c0.5,0.2,1,0.4,1.4,0.7c0.3,0.2,0.2,0.4-0.1,0.4
					c-0.5,0.1-1.2-0.3-1.6-0.5c-0.7-0.3-1.4-0.6-2-1c-0.4-0.3-1.1-0.6-1.3-1.1c-0.2-0.4-0.1-1.4,0.5-1.3
					C188,153.9,188.1,154.7,188.4,155.1z"/>
			</g>
			<path class="st207" d="M212.1,154.3c0,0,0.1,0,0.1,0c0.6-0.3,2.2,0.2,2.8,0.6c0.4,0.2,0.8,0.5,1.2,0.8c0.2,0.1,0.5,0.4,0.6,0.6
				c0,0.2,0.1,0.3,0.3,0.3h0c0.2,0,0.4-0.2,0.3-0.4c-0.2-0.9-1.7-1.7-2.4-2c-0.6-0.2-1.4-0.6-2.2-0.6
				C212.6,153.7,212.3,153.9,212.1,154.3C212.1,154.3,212.1,154.3,212.1,154.3z"/>
			<path class="st207" d="M211.5,156.9c0.5-0.3,1.1-0.6,1.7-0.6c0.5,0,1.1,0,1.6,0c0.6,0.1,1,0.4,1.5,0.5c0.4,0.1,0.6-0.6,0.2-0.6
				c-0.6-0.1-1.1-0.5-1.7-0.5c-0.6,0-1.2-0.1-1.8,0c-0.5,0-1,0.3-1.5,0.5C211.5,156.4,211.5,156.7,211.5,156.9z"/>
			<path class="st207" d="M212.4,160.3c0.1,0.2,0.3,0.3,0.4,0.5c0,0,0.1-0.1,0.1-0.1c0.4-0.4,0.8-0.8,1.1-1.2
				c0.4-0.4,0.8-0.8,1.3-1.1c0.4-0.3,1-0.8,1.4-0.9c0,0,0,0,0,0c0.3-0.1,0.2-0.5,0-0.6c-0.1,0-0.1,0-0.2,0c-0.5,0.1-1,0.5-1.4,0.8
				c-0.4,0.3-0.8,0.6-1.1,0.9c-0.5,0.4-0.9,0.8-1.3,1.3C212.7,160,212.6,160.1,212.4,160.3z"/>
			<path class="st207" d="M215.4,161.3c0.6-0.2,1.2-0.6,1.7-1.1c0,0,0,0,0,0c0.2-0.3,0.3-0.7,0.4-1.1c0.1-0.5,0.1-1.1,0.1-1.6
				c0-0.2,0-0.5-0.2-0.7c-0.2-0.2-0.4-0.1-0.5,0c-0.1,0.1-0.1,0.3,0,0.4c0,0,0,0.1,0,0.2c0,0.2,0,0.6,0,0.7c0,0.4,0,0.8-0.2,1.2
				C216.5,160.1,216,160.7,215.4,161.3z"/>
			<path class="st207" d="M216.7,157.2c0.7,1,1.7-0.6,1.1-1.3C216.9,154.9,216.3,156.5,216.7,157.2z"/>
		</g>
		<g>
			<g>
				<path class="st204" d="M187.6,146.5c1.1,0.8,2.4-0.8,1.3-1.5C187.9,144.3,186.6,145.7,187.6,146.5z"/>
				<path class="st205" d="M188.1,144.9c-0.5,0.1-0.9,0.7-0.5,1.2c0.2,0.2,0.4,0.4,0.7,0.4c0.3,0,0.5-0.1,0.7-0.3
					c0.3-0.3,0.4-0.9,0-1.2C188.7,144.9,188.4,144.8,188.1,144.9C188.1,144.9,188.1,144.9,188.1,144.9z"/>
				<path class="st116" d="M188.6,145.3c0,0,0.1,0,0.1,0c0.2-0.2-0.1-0.4-0.2-0.2C188.4,145.2,188.4,145.3,188.6,145.3z"/>
			</g>
			<path class="st204" d="M187.5,145.6c-0.1-0.5,0.9-0.8,0.7-0.4C188.2,145.3,187.6,145.7,187.5,145.6z"/>
		</g>
		<g>
			<g>
				<path class="st204" d="M190.2,143.1c1.2,0.9,2.8-0.9,1.4-1.8C190.5,140.6,189,142.3,190.2,143.1z"/>
				<path class="st205" d="M190.6,141.3c-0.6,0.2-1,0.9-0.6,1.4c0.2,0.2,0.5,0.4,0.8,0.5c0.3,0,0.6-0.1,0.8-0.3c0.3-0.4,0.5-1,0-1.3
					c-0.3-0.2-0.6-0.3-0.9-0.2C190.7,141.3,190.7,141.3,190.6,141.3z"/>
				<path class="st116" d="M191.2,141.8c0,0,0.1,0,0.1,0c0.2-0.2-0.1-0.5-0.3-0.3C191,141.6,191.1,141.8,191.2,141.8z"/>
			</g>
			<path class="st204" d="M190.1,142.1c-0.1-0.5,1-0.9,0.8-0.4C190.8,141.8,190.1,142.2,190.1,142.1z"/>
		</g>
		<g>
			<g>
				<path class="st204" d="M186.1,138.1c2.4,1.7,5.4-1.7,2.8-3.5C186.7,133.2,183.8,136.5,186.1,138.1z"/>
				<path class="st205" d="M187,134.7c-1.1,0.3-1.9,1.7-1.1,2.7c0.4,0.4,0.9,0.8,1.5,0.9c0.6,0.1,1.2-0.2,1.6-0.6
					c0.6-0.7,0.9-2,0-2.6c-0.5-0.3-1.1-0.5-1.7-0.4C187.2,134.6,187.1,134.6,187,134.7z"/>
				<path class="st116" d="M188.1,135.6c0.1,0,0.2,0,0.3-0.1c0.3-0.3-0.3-0.9-0.5-0.5C187.7,135.2,187.9,135.5,188.1,135.6z"/>
			</g>
			<path class="st204" d="M185.9,136.2c-0.2-1,1.9-1.7,1.6-0.9C187.4,135.6,185.9,136.4,185.9,136.2z"/>
		</g>
	</g>
	<g>
		<g>
			<path class="st204" d="M73,159.8c2.4,1.7,5.4-1.7,2.8-3.5C73.6,154.9,70.7,158.2,73,159.8z"/>
			<path class="st205" d="M74,156.3c-1.1,0.3-1.9,1.7-1.1,2.7c0.4,0.4,0.9,0.8,1.5,0.9c0.6,0.1,1.2-0.2,1.6-0.6c0.6-0.7,0.9-2,0-2.6
				c-0.5-0.3-1.1-0.5-1.7-0.4C74.1,156.3,74,156.3,74,156.3z"/>
			<path class="st116" d="M75.1,157.3c0.1,0,0.2,0,0.3-0.1c0.3-0.3-0.3-0.9-0.5-0.5C74.6,156.9,74.8,157.2,75.1,157.3z"/>
		</g>
		<path class="st204" d="M72.8,157.9c-0.2-1,1.9-1.7,1.6-0.9C74.3,157.2,72.9,158.1,72.8,157.9z"/>
	</g>
	<g>
		<g>
			<path class="st204" d="M132.9,47.4c1.8,1.3,4.1-1.3,2.1-2.6C133.3,43.7,131.1,46.2,132.9,47.4z"/>
			<path class="st205" d="M133.6,44.8c-0.9,0.2-1.5,1.3-0.8,2c0.3,0.3,0.7,0.6,1.1,0.7c0.4,0,0.9-0.1,1.2-0.5c0.5-0.5,0.7-1.5,0-2
				c-0.4-0.3-0.9-0.4-1.3-0.3C133.7,44.8,133.6,44.8,133.6,44.8z"/>
			<path class="st116" d="M134.4,45.5c0.1,0,0.1,0,0.2-0.1c0.3-0.3-0.2-0.7-0.4-0.4C134.1,45.3,134.2,45.5,134.4,45.5z"/>
		</g>
		<path class="st204" d="M132.7,46c-0.1-0.8,1.5-1.3,1.2-0.6C133.8,45.5,132.7,46.2,132.7,46z"/>
	</g>
</g>
</svg>
