<?xml version="1.0" encoding="utf-8"?>
<!-- Generator: Adobe Illustrator 22.0.0, SVG Export Plug-In . SVG Version: 6.00 Build 0)  -->
<svg version="1.1" id="mascotte" xmlns="http://www.w3.org/2000/svg" xmlns:xlink="http://www.w3.org/1999/xlink" x="0px" y="0px"
	 viewBox="0 0 245.8 245.8" style="enable-background:new 0 0 245.8 245.8;" xml:space="preserve">
<style type="text/css">
	.st0{opacity:0.6;}
	.st1{fill-rule:evenodd;clip-rule:evenodd;fill:#FFDF43;}
	.st2{fill-rule:evenodd;clip-rule:evenodd;fill:url(#SVGID_1_);}
	.st3{fill-rule:evenodd;clip-rule:evenodd;fill:#FAB010;}
	.st4{fill-rule:evenodd;clip-rule:evenodd;fill:#157EBF;}
	.st5{opacity:0.6;fill:#FFE565;}
	.st6{opacity:0.6;fill:#FCDE48;}
	.st7{fill-rule:evenodd;clip-rule:evenodd;fill:#AA5D0A;}
	.st8{fill-rule:evenodd;clip-rule:evenodd;fill:#FDFEFE;}
	.st9{fill:#C8650D;}
	.st10{fill-rule:evenodd;clip-rule:evenodd;fill:#C8650D;}
	.st11{fill-rule:evenodd;clip-rule:evenodd;}
	.st12{clip-path:url(#SVGID_4_);}
	.st13{clip-path:url(#SVGID_5_);}
	.st14{fill:none;stroke:#FFFFFF;stroke-width:4;stroke-miterlimit:10;}
	.st15{fill:none;stroke:#FFFFFF;stroke-width:0.75;stroke-miterlimit:10;}
	.st16{fill:none;stroke:#FFFFFF;stroke-width:2;stroke-miterlimit:10;}
	.st17{fill:none;stroke:#FFFFFF;stroke-width:1.75;stroke-miterlimit:10;}
	.st18{fill:none;stroke:#FFFFFF;stroke-width:0.25;stroke-miterlimit:10;}
	.st19{clip-path:url(#SVGID_8_);}
	.st20{clip-path:url(#SVGID_9_);}
	.st21{fill-rule:evenodd;clip-rule:evenodd;fill:url(#SVGID_10_);}
	.st22{clip-path:url(#SVGID_13_);}
	.st23{clip-path:url(#SVGID_14_);}
	.st24{clip-path:url(#SVGID_17_);}
	.st25{clip-path:url(#SVGID_18_);}
	.st26{fill-rule:evenodd;clip-rule:evenodd;fill:url(#SVGID_19_);}
	.st27{clip-path:url(#SVGID_22_);}
	.st28{clip-path:url(#SVGID_23_);}
	.st29{clip-path:url(#SVGID_26_);}
	.st30{clip-path:url(#SVGID_27_);}
	.st31{fill:none;}
	.st32{fill:#4D2200;}
	.st33{fill:#3B5172;}
	.st34{fill:#60BFBB;}
	.st35{fill:#B3E5E2;}
	.st36{fill:#9BFFF8;}
	.st37{fill:url(#XMLID_7_);}
	.st38{fill:url(#XMLID_8_);}
	.st39{fill:url(#XMLID_9_);}
	.st40{fill:url(#XMLID_10_);}
	.st41{fill:url(#XMLID_11_);}
	.st42{fill:url(#XMLID_12_);}
	.st43{fill:url(#XMLID_13_);}
	.st44{fill:url(#XMLID_15_);}
	.st45{fill:url(#XMLID_16_);}
	.st46{fill:url(#XMLID_18_);}
	.st47{fill:url(#XMLID_20_);}
	.st48{fill:url(#XMLID_21_);}
	.st49{fill:url(#XMLID_22_);}
	.st50{fill:url(#XMLID_23_);}
	.st51{fill:url(#XMLID_25_);}
	.st52{fill:url(#XMLID_26_);}
	.st53{fill:url(#XMLID_27_);}
	.st54{fill-rule:evenodd;clip-rule:evenodd;fill:url(#SVGID_28_);}
	.st55{fill:#C95534;}
	.st56{fill:url(#SVGID_29_);}
	.st57{fill:#A2CBF1;}
	.st58{fill:#157EBF;}
	.st59{clip-path:url(#SVGID_31_);fill:none;stroke:#2B89E0;stroke-width:2.8631;stroke-miterlimit:10;}
	.st60{fill:url(#SVGID_32_);}
	.st61{clip-path:url(#SVGID_34_);fill:none;stroke:#2B89E0;stroke-width:2.8631;stroke-miterlimit:10;}
	.st62{fill:#CC5D3F;}
	.st63{fill:#FFC66B;}
	.st64{fill:#FFE3A3;}
	.st65{fill:#2B89E0;}
	.st66{fill-rule:evenodd;clip-rule:evenodd;fill:#FAB315;}
	.st67{clip-path:url(#SVGID_37_);}
	.st68{clip-path:url(#SVGID_38_);}
	.st69{clip-path:url(#SVGID_41_);}
	.st70{clip-path:url(#SVGID_42_);}
	.st71{fill-rule:evenodd;clip-rule:evenodd;fill:url(#SVGID_43_);}
	.st72{clip-path:url(#SVGID_46_);}
	.st73{clip-path:url(#SVGID_47_);}
	.st74{clip-path:url(#SVGID_50_);}
	.st75{clip-path:url(#SVGID_51_);}
	.st76{fill-rule:evenodd;clip-rule:evenodd;fill:url(#SVGID_52_);}
	.st77{fill-rule:evenodd;clip-rule:evenodd;fill:#42433E;}
	.st78{clip-path:url(#SVGID_54_);}
	.st79{fill-rule:evenodd;clip-rule:evenodd;fill:#FFFFFF;}
	.st80{clip-path:url(#SVGID_57_);}
	.st81{clip-path:url(#SVGID_58_);}
	.st82{clip-path:url(#SVGID_61_);}
	.st83{clip-path:url(#SVGID_62_);}
	.st84{fill-rule:evenodd;clip-rule:evenodd;fill:url(#SVGID_63_);}
	.st85{clip-path:url(#SVGID_65_);}
	.st86{fill:#FAB010;}
	.st87{clip-path:url(#SVGID_68_);}
	.st88{clip-path:url(#SVGID_69_);}
	.st89{clip-path:url(#SVGID_72_);}
	.st90{clip-path:url(#SVGID_73_);}
	.st91{fill-rule:evenodd;clip-rule:evenodd;fill:url(#SVGID_74_);}
	.st92{fill:#AA5D0A;}
	.st93{clip-path:url(#SVGID_77_);}
	.st94{clip-path:url(#SVGID_78_);}
	.st95{clip-path:url(#SVGID_81_);}
	.st96{clip-path:url(#SVGID_82_);}
	.st97{fill-rule:evenodd;clip-rule:evenodd;fill:url(#SVGID_83_);}
	.st98{fill-rule:evenodd;clip-rule:evenodd;fill:#E9AB48;}
	.st99{fill-rule:evenodd;clip-rule:evenodd;fill:#AA2C0A;}
	.st100{fill-rule:evenodd;clip-rule:evenodd;fill:#FFE565;}
	.st101{fill-rule:evenodd;clip-rule:evenodd;fill:#753E22;}
	.st102{fill-rule:evenodd;clip-rule:evenodd;fill:#3CB13C;}
	.st103{clip-path:url(#SVGID_86_);}
	.st104{clip-path:url(#SVGID_87_);}
	.st105{clip-path:url(#SVGID_90_);}
	.st106{clip-path:url(#SVGID_91_);}
	.st107{fill-rule:evenodd;clip-rule:evenodd;fill:url(#SVGID_92_);}
	.st108{clip-path:url(#SVGID_95_);}
	.st109{clip-path:url(#SVGID_96_);}
	.st110{clip-path:url(#SVGID_99_);}
	.st111{clip-path:url(#SVGID_100_);}
	.st112{fill-rule:evenodd;clip-rule:evenodd;fill:url(#SVGID_101_);}
	.st113{fill:#A7A89E;}
	.st114{fill:none;stroke:#A7A89E;stroke-width:0.25;stroke-miterlimit:10;}
	.st115{fill:#FDBA1D;}
	.st116{fill:#FFFFFF;}
	.st117{fill:#42433E;}
	.st118{fill:#2B2B28;}
	.st119{fill:#111110;}
	.st120{clip-path:url(#SVGID_104_);}
	.st121{clip-path:url(#SVGID_105_);}
	.st122{clip-path:url(#SVGID_108_);}
	.st123{clip-path:url(#SVGID_109_);}
	.st124{fill-rule:evenodd;clip-rule:evenodd;fill:#33383F;}
	.st125{fill:#272E35;}
	.st126{fill-rule:evenodd;clip-rule:evenodd;fill:url(#SVGID_110_);}
	.st127{fill-rule:evenodd;clip-rule:evenodd;fill:#434E5B;}
	.st128{opacity:0.5;fill-rule:evenodd;clip-rule:evenodd;fill:#FDFEFE;}
	.st129{fill-rule:evenodd;clip-rule:evenodd;fill:#FF4100;}
	.st130{fill-rule:evenodd;clip-rule:evenodd;fill:#7A1A00;}
	.st131{fill-rule:evenodd;clip-rule:evenodd;fill:#11A700;}
	.st132{fill-rule:evenodd;clip-rule:evenodd;fill:#165500;}
	.st133{fill-rule:evenodd;clip-rule:evenodd;fill:#0072CC;}
	.st134{fill-rule:evenodd;clip-rule:evenodd;fill:#00446F;}
	.st135{fill-rule:evenodd;clip-rule:evenodd;fill:url(#SVGID_111_);}
	.st136{fill-rule:evenodd;clip-rule:evenodd;fill:url(#SVGID_112_);}
	.st137{fill-rule:evenodd;clip-rule:evenodd;fill:#FCCF4E;}
	.st138{clip-path:url(#SVGID_115_);}
	.st139{clip-path:url(#SVGID_116_);}
	.st140{fill:none;stroke:#FFFFFF;stroke-width:3.3578;stroke-miterlimit:10;}
	.st141{fill:none;stroke:#FFFFFF;stroke-width:0.6296;stroke-miterlimit:10;}
	.st142{fill:none;stroke:#FFFFFF;stroke-width:1.6789;stroke-miterlimit:10;}
	.st143{fill:none;stroke:#FFFFFF;stroke-width:1.4691;stroke-miterlimit:10;}
	.st144{fill:none;stroke:#FFFFFF;stroke-width:0.2099;stroke-miterlimit:10;}
	.st145{clip-path:url(#SVGID_119_);}
	.st146{clip-path:url(#SVGID_120_);}
	.st147{fill-rule:evenodd;clip-rule:evenodd;fill:none;stroke:#AA5D0A;stroke-width:0.9654;stroke-miterlimit:10;}
	.st148{fill-rule:evenodd;clip-rule:evenodd;fill:#272E35;}
	.st149{fill:#33383F;}
	.st150{fill-rule:evenodd;clip-rule:evenodd;fill:url(#SVGID_121_);}
	.st151{fill:#4F0000;}
	.st152{fill:url(#SVGID_122_);}
	.st153{clip-path:url(#SVGID_124_);}
	.st154{fill:#EF7031;}
	.st155{fill:#F9CC02;}
	.st156{fill:#929497;}
	.st157{fill:#FF4100;}
	.st158{fill:#231F20;}
	.st159{fill:#B3B3B3;}
	.st160{fill:#58595B;}
	.st161{fill-rule:evenodd;clip-rule:evenodd;fill:#FAB212;}
	.st162{fill-rule:evenodd;clip-rule:evenodd;fill:url(#SVGID_125_);}
	.st163{clip-path:url(#SVGID_128_);}
	.st164{clip-path:url(#SVGID_129_);}
	.st165{fill:none;stroke:#FFFFFF;stroke-width:3.7719;stroke-miterlimit:10;}
	.st166{fill:none;stroke:#FFFFFF;stroke-width:0.7072;stroke-miterlimit:10;}
	.st167{fill:none;stroke:#FFFFFF;stroke-width:1.8859;stroke-miterlimit:10;}
	.st168{fill:none;stroke:#FFFFFF;stroke-width:1.6502;stroke-miterlimit:10;}
	.st169{fill:none;stroke:#FFFFFF;stroke-width:0.2357;stroke-miterlimit:10;}
	.st170{clip-path:url(#SVGID_132_);}
	.st171{clip-path:url(#SVGID_133_);}
	.st172{fill:#FFD28C;}
	.st173{fill:#EEB96C;}
	.st174{fill:#DB84B5;}
	.st175{fill:#62B146;}
	.st176{fill:#A9C63D;}
	.st177{fill:#957F4B;}
	.st178{fill:#AD9568;}
	.st179{fill:#825F26;}
	.st180{fill:#CE7829;}
	.st181{fill:#AC5A26;}
	.st182{fill-rule:evenodd;clip-rule:evenodd;fill:none;stroke:#EAA211;stroke-width:5;stroke-miterlimit:10;}
	.st183{fill-rule:evenodd;clip-rule:evenodd;fill:url(#SVGID_134_);}
	.st184{fill:#FA852D;}
	.st185{fill:#F5752A;}
	.st186{fill:#F99E29;}
	.st187{fill-rule:evenodd;clip-rule:evenodd;fill:none;stroke:#FABA24;stroke-width:5;stroke-miterlimit:10;}
	.st188{fill-rule:evenodd;clip-rule:evenodd;fill:#EAA211;}
	.st189{fill-rule:evenodd;clip-rule:evenodd;fill:#FABA24;}
	.st190{fill:url(#SVGID_135_);}
	.st191{fill:url(#SVGID_136_);}
	.st192{filter:url(#Adobe_OpacityMaskFilter);}
	.st193{filter:url(#Adobe_OpacityMaskFilter_1_);}
	.st194{mask:url(#SVGID_137_);fill:url(#SVGID_138_);}
	.st195{opacity:0.14;fill:url(#SVGID_139_);}
	.st196{filter:url(#Adobe_OpacityMaskFilter_2_);}
	.st197{filter:url(#Adobe_OpacityMaskFilter_3_);}
	.st198{mask:url(#SVGID_140_);fill:url(#SVGID_141_);}
	.st199{opacity:0.14;fill:url(#SVGID_142_);}
	.st200{fill:url(#SVGID_143_);}
	.st201{fill:url(#SVGID_144_);}
	.st202{fill:url(#SVGID_145_);}
	.st203{fill:url(#SVGID_146_);}
	.st204{fill:#CBEAF6;}
	.st205{fill:#96D7ED;}
	.st206{fill:#F06888;}
	.st207{fill:#F395BE;}
	.st208{fill:#C84C27;}
	.st209{fill:#F16822;}
	.st210{fill:#F37940;}
	.st211{fill:#F37B4C;}
	.st212{fill:#4C3427;}
	.st213{fill:#9F3022;}
	.st214{fill-rule:evenodd;clip-rule:evenodd;fill:url(#SVGID_147_);}
	
		.st215{fill-rule:evenodd;clip-rule:evenodd;fill:none;stroke:#FAB010;stroke-width:10.343;stroke-linecap:round;stroke-linejoin:round;stroke-miterlimit:10;}
	
		.st216{fill-rule:evenodd;clip-rule:evenodd;fill:none;stroke:#FAB010;stroke-width:11;stroke-linecap:round;stroke-linejoin:round;stroke-miterlimit:10;}
	.st217{clip-path:url(#SVGID_150_);}
	.st218{clip-path:url(#SVGID_151_);}
	.st219{fill:none;stroke:#FFFFFF;stroke-width:4.33;stroke-miterlimit:10;}
	.st220{fill:none;stroke:#FFFFFF;stroke-width:0.8119;stroke-miterlimit:10;}
	.st221{fill:none;stroke:#FFFFFF;stroke-width:2.165;stroke-miterlimit:10;}
	.st222{fill:none;stroke:#FFFFFF;stroke-width:1.8944;stroke-miterlimit:10;}
	.st223{fill:none;stroke:#FFFFFF;stroke-width:0.2706;stroke-miterlimit:10;}
	.st224{clip-path:url(#SVGID_154_);}
	.st225{clip-path:url(#SVGID_155_);}
	.st226{fill:none;stroke:#A7A89E;stroke-width:0.2797;stroke-miterlimit:10;}
	
		.st227{fill-rule:evenodd;clip-rule:evenodd;fill:none;stroke:#FFFFFF;stroke-width:0.75;stroke-linecap:round;stroke-miterlimit:10;}
	.st228{fill-rule:evenodd;clip-rule:evenodd;fill:none;stroke:#FFFFFF;stroke-width:2.5187;stroke-miterlimit:10;}
	.st229{fill:#4F2706;}
	.st230{opacity:0.25;fill:#FFFFFF;}
	.st231{fill-rule:evenodd;clip-rule:evenodd;fill:#A7A89E;}
	.st232{fill-rule:evenodd;clip-rule:evenodd;fill:none;stroke:#42433E;stroke-width:0.9637;stroke-miterlimit:10;}
	.st233{opacity:0.5;fill:url(#SVGID_156_);}
	.st234{fill:#AEAFA3;}
	.st235{fill-rule:evenodd;clip-rule:evenodd;fill:url(#SVGID_157_);}
	.st236{fill:url(#SVGID_158_);}
	.st237{opacity:0.4;}
	.st238{fill:url(#SVGID_159_);}
	.st239{fill-rule:evenodd;clip-rule:evenodd;fill:none;stroke:#FAB011;stroke-width:5.3617;stroke-miterlimit:10;}
	
		.st240{fill-rule:evenodd;clip-rule:evenodd;fill:none;stroke:#FABA24;stroke-width:3;stroke-linecap:round;stroke-linejoin:round;stroke-miterlimit:10;}
	
		.st241{fill-rule:evenodd;clip-rule:evenodd;fill:none;stroke:#FABA24;stroke-width:2;stroke-linecap:round;stroke-linejoin:round;stroke-miterlimit:10;}
	
		.st242{fill-rule:evenodd;clip-rule:evenodd;fill:none;stroke:#FABA24;stroke-width:2.5;stroke-linecap:round;stroke-linejoin:round;stroke-miterlimit:10;}
	.st243{fill-rule:evenodd;clip-rule:evenodd;fill:url(#SVGID_160_);}
	.st244{fill-rule:evenodd;clip-rule:evenodd;fill:url(#SVGID_161_);}
	.st245{opacity:0.5;fill:#FFE3A3;}
	.st246{fill-rule:evenodd;clip-rule:evenodd;fill:#32383F;}
	.st247{fill:#32383F;}
	.st248{fill:url(#SVGID_162_);}
	.st249{filter:url(#Adobe_OpacityMaskFilter_4_);}
	.st250{filter:url(#Adobe_OpacityMaskFilter_5_);}
	.st251{mask:url(#SVGID_163_);fill:url(#SVGID_164_);}
	.st252{opacity:0.5;fill:url(#SVGID_165_);}
	.st253{filter:url(#Adobe_OpacityMaskFilter_6_);}
	.st254{filter:url(#Adobe_OpacityMaskFilter_7_);}
	.st255{mask:url(#SVGID_166_);fill:url(#SVGID_167_);}
	.st256{opacity:0.5;fill:url(#SVGID_168_);}
	.st257{fill:url(#SVGID_169_);}
	.st258{opacity:0.5;}
	.st259{fill:#FFFDF0;}
	.st260{fill-rule:evenodd;clip-rule:evenodd;fill:none;stroke:#32383F;stroke-width:2;stroke-linecap:round;stroke-miterlimit:10;}
	.st261{opacity:0.2;}
	.st262{fill:none;stroke:#FDFEFE;stroke-width:2;stroke-miterlimit:10;}
	.st263{fill:none;stroke:#FDFEFE;stroke-width:2;stroke-miterlimit:10;stroke-dasharray:1.0301,8.2408;}
</style>
<g>
	<g id="Shape_9_34_" class="st0">
		<g>
			<path class="st1" d="M182,126.3c-7.3-12-15.1-22-34.2-26.3c-19-4.3-40,1.7-51.9,10.1c-11.9,8.3-33.8,34.4-26,60
				c7.9,25.7,40.6,26.4,56.3,25.8c15.8-0.7,40.3-1.7,54.7-20C192.9,160.4,192.6,143.7,182,126.3z"/>
		</g>
	</g>
	<g>
		<radialGradient id="SVGID_1_" cx="123.9733" cy="125.2503" r="49.4434" gradientUnits="userSpaceOnUse">
			<stop  offset="0" style="stop-color:#FCD253"/>
			<stop  offset="1" style="stop-color:#FAB010"/>
		</radialGradient>
		<path class="st2" d="M121.5,111.5c-6.9,1.5-26.8,8.4-35.9,31c-9.1,22.6-0.3,36.5,17.1,42.2c18.1,6,54.2,3.2,65.1-11.3
			c15.7-20.7,7.5-40.1-6.4-54.7C148,104.6,129.1,109.8,121.5,111.5z"/>
	</g>
	<g>
		<path class="st151" d="M102.8,149.2c0,0,10.2-3.8-3.2-10.1c2-8.4,16.1,3.5,20.8,4.8c4.6,1.2,17.3-2.5,22.3,0.7
			c2.6,1.8,7.6,6.9,3.3,21.1c-4.2,14.2-14.2,14.3-15.5,14.2c-7.2-0.1-10.6-9.6-15.4-11.1c-4.8-1.5-17.3,1.2-16.4-5.1
			c11.7-2.3,7.3-7.4,7.3-7.4l-47.1-14.5c0,0-3,1.9-3.9,2.1c-0.9,0.2-7.9-3.7-7.9-3.7s-5.3,4.1-6.4-1.4c-0.7-3.8,17.4-4.2,18.2-3.7
			c0.8,0.5,1.5,2.7,1.5,2.7L102.8,149.2z"/>
		
			<linearGradient id="SVGID_4_" gradientUnits="userSpaceOnUse" x1="-312.9266" y1="496.7481" x2="-312.9266" y2="410.4421" gradientTransform="matrix(-0.2799 0.96 0.96 0.2799 -404.8845 330.4063)">
			<stop  offset="5.668049e-02" style="stop-color:#FF4100"/>
			<stop  offset="0.559" style="stop-color:#A80000"/>
			<stop  offset="1" style="stop-color:#5C1C23"/>
		</linearGradient>
		<path style="fill:url(#SVGID_4_);" d="M103.6,149.5c0,0,10.2-3.8-3.2-10.1c2-8.4,16.1,3.5,20.8,4.8c4.6,1.2,17.3-2.5,22.3,0.7
			c2.6,1.8,7.6,6.9,3.3,21.1c-4.2,14.2-14.2,14.3-15.5,14.2c-7.2-0.1-10.6-9.6-15.4-11.1c-4.8-1.5-17.3,1.2-16.4-5.1
			c11.7-2.3,7.3-7.4,7.3-7.4L59.7,142c0,0-3,1.9-3.9,2.1c-0.9,0.2-7.9-3.7-7.9-3.7s-5.3,4.1-6.4-1.4c-0.7-3.8,17.4-4.2,18.2-3.7
			c0.8,0.5,1.5,2.7,1.5,2.7L103.6,149.5z"/>
		<g>
			<defs>
				<path id="SVGID_123_" d="M103.6,149.5c0,0,10.2-3.8-3.2-10.1c2-8.4,16.1,3.5,20.8,4.8c4.6,1.2,17.3-2.5,22.3,0.7
					c2.6,1.8,7.6,6.9,3.3,21.1c-4.2,14.2-14.2,14.3-15.5,14.2c-7.2-0.1-10.6-9.6-15.4-11.1c-4.8-1.5-17.3,1.2-16.4-5.1
					c11.7-2.3,7.3-7.4,7.3-7.4L59.7,142c0,0-3,1.9-3.9,2.1c-0.9,0.2-7.9-3.7-7.9-3.7s-5.3,4.1-6.4-1.4c-0.7-3.8,17.4-4.2,18.2-3.7
					c0.8,0.5,1.5,2.7,1.5,2.7L103.6,149.5z"/>
			</defs>
			<clipPath id="SVGID_5_">
				<use xlink:href="#SVGID_123_"  style="overflow:visible;"/>
			</clipPath>
			<g class="st13">
				<g id="_x32_FpoYl_2_">
					<g>
						<path class="st154" d="M151.2,164.2c0.1-2.1-0.4-4.2-1.3-6.1c-1-2.3-2.5-4.3-4.2-6.1c-2-2.1-4.5-3.4-7.3-4
							c-3-0.7-6-0.5-8.9,0.4c-0.5,0.2-1.1,0.3-1.6,0.6c2,0.5,3.5,1.6,4.6,3.4c-0.4-0.2-0.8-0.4-1.3-0.5c-3.8-1.3-7.5-0.9-11,0.9
							c-3.2,1.7-5.7,4.1-7.9,6.9c0,0,0,0.1-0.1,0.2c0.3,0,0.5-0.2,0.7-0.2c1.7-0.5,3.5-0.4,5.1,0.3c2.3,0.9,4,2.5,5.7,4.3
							c1.4,1.5,2.8,3.1,4.4,4.5c0.9,0.7,1.7,1.4,2.8,1.8c0.3,0.1,0.5,0.3,0.8,0.4c0.1,0,0.3,0,0.1,0.1c-0.2,0.1-0.4,0.1-0.6,0.1
							c-1.8,0.5-3.7,0.7-5.6,0.5c-0.9-0.1-1.8-0.4-2.7-0.8c0.4,0.7,0.8,1.2,1.3,1.7c1.4,1.4,3.1,2.4,5,3.1c2.9,1.1,5.8,1.6,8.9,1.6
							c4.5,0,8-2.2,10.6-5.7c0.4-0.5,0.5-1.1,0.7-1.6c0.2-0.5,0.6-1,0.8-1.6c0.5-1.1,0.8-2.2,0.9-3.4
							C151.2,164.7,151.2,164.4,151.2,164.2z"/>
					</g>
				</g>
				<path class="st155" d="M150.3,167.6C150.3,167.6,150.2,167.6,150.3,167.6c-0.7,1.4-1.6,2.5-2.8,3.3c-2.7,1.8-5.5,2-8.4,0.6
					c-0.7-0.4-1.3-0.9-1.9-1.5c2.3,0.8,4.6,1.3,6.9,0.2c-0.1-0.2-0.2-0.2-0.4-0.2c-0.5,0-1-0.1-1.4-0.2c-1.3-0.4-2.4-1.1-3.4-2
					c-1.4-1.3-2.3-3-3.8-4.1c-1.5-1.1-3-2.3-4.8-3c-0.8-0.3-1.8-0.7-2.7-0.6c4.1-3.2,10.2-3.3,14.4-0.1c0.2,0.1,0.3,0.3,0.5,0.3
					c-0.5-1.5-1.7-2.4-3.1-3c0.8-0.3,1.5-0.5,2.2-0.6c1.6-0.2,3.3-0.1,4.8,0.7c2.3,1.2,3.5,3.2,4.1,5.7c0.1,0.4,0.1,0.8,0.2,1.2
					C150.8,165.4,150.7,166.5,150.3,167.6z"/>
			</g>
		</g>
		<path d="M108.2,147.5c0.2-0.3,0.5-0.5,1-0.6c1.8-0.3,3.8,0.1,5.6,0.5c2.2,0.5,4.4,0.8,6.7,1.2c1.1,0.2,2.2,0.5,3.3,0.8
			c1,0.3,2,0.4,2.9,0.7c1.3,0.4,3.4,1,3.9,2.5c1.1,3.7-2.9,11.1-3,15.5c0,4.4,3.6,6.4,1.1,8.8c-2.5,2.4-10.2-8.2-14-9.4
			c-3.7-1.2-15.1,0.8-14.4-2.3c0.1-1.2,6.7,0.3,7.8-5.7c0.4-2.4-0.3-4.9-0.8-7.3C108.2,151.2,107.4,148.7,108.2,147.5z"/>
		<path d="M133.3,166.9c1,0.3,2.1-0.3,2.4-1.2l2.2-7.4c0.3-1-0.3-2-1.3-2.3l0,0c-1-0.3-2.1,0.3-2.4,1.2l-2.2,7.4
			C131.7,165.6,132.3,166.6,133.3,166.9L133.3,166.9z"/>
		<path class="st156" d="M112.1,159.6c-0.7-0.2-1.1-0.9-0.9-1.7l1.8-6.3c0.2-0.7,0.9-1.1,1.7-0.9c0.7,0.2,1.1,0.9,0.9,1.7l-1.8,6.3
			C113.5,159.4,112.8,159.8,112.1,159.6z M111.4,158.1c-0.2,0.6,0.2,1.2,0.7,1.4c0.6,0.2,1.2-0.2,1.4-0.7l1.8-6.3
			c0.2-0.6-0.2-1.2-0.7-1.4c-0.6-0.2-1.2,0.2-1.4,0.7L111.4,158.1z"/>
		<g>
			<g>
				<path class="st116" d="M57,137.3c0.3,0.1,0.7-0.1,0.8-0.4c0.1-0.3-0.1-0.7-0.4-0.8c-0.3-0.1-0.7,0.1-0.8,0.4
					C56.5,136.9,56.7,137.2,57,137.3z"/>
			</g>
			<g>
				<path class="st116" d="M54.4,137.5c0.3,0.1,0.7-0.1,0.8-0.4c0.1-0.3-0.1-0.7-0.4-0.8c-0.3-0.1-0.7,0.1-0.8,0.4
					C53.8,137.1,54,137.4,54.4,137.5z"/>
			</g>
			<g>
				<path class="st116" d="M52,137.6c0.3,0.1,0.7-0.1,0.8-0.4c0.1-0.3-0.1-0.7-0.4-0.8c-0.3-0.1-0.7,0.1-0.8,0.4
					C51.4,137.2,51.6,137.5,52,137.6z"/>
			</g>
			<g>
				<path class="st116" d="M49.6,137.8c0.3,0.1,0.7-0.1,0.8-0.4c0.1-0.3-0.1-0.7-0.4-0.8c-0.3-0.1-0.7,0.1-0.8,0.4
					C49.1,137.3,49.3,137.7,49.6,137.8z"/>
			</g>
			<g>
				<path class="st116" d="M47,137.9c0.3,0.1,0.7-0.1,0.8-0.4c0.1-0.3-0.1-0.7-0.4-0.8c-0.3-0.1-0.7,0.1-0.8,0.4
					C46.5,137.4,46.7,137.8,47,137.9z"/>
			</g>
			<g>
				<path class="st116" d="M44.8,138c0.3,0.1,0.7-0.1,0.8-0.4c0.1-0.3-0.1-0.7-0.4-0.8c-0.3-0.1-0.7,0.1-0.8,0.4
					C44.2,137.5,44.4,137.9,44.8,138z"/>
			</g>
		</g>
		<g>
			
				<ellipse transform="matrix(0.6245 -0.7811 0.7811 0.6245 -84.843 157.7493)" class="st157" cx="121.6" cy="167.1" rx="1.8" ry="1.8"/>
			<path class="st157" d="M124.2,172c0.7,0.2,1.4-0.2,1.7-0.9c0.2-0.7-0.2-1.4-0.9-1.7c-0.7-0.2-1.4,0.2-1.7,0.9
				C123.1,171,123.5,171.8,124.2,172z"/>
			<path class="st157" d="M127.2,174.8c0.5,0.1,1.1-0.1,1.2-0.7c0.2-0.5-0.1-1.1-0.7-1.2c-0.5-0.2-1.1,0.1-1.2,0.7
				C126.4,174.1,126.6,174.7,127.2,174.8z"/>
			<path class="st157" d="M121,168.6c0.8,0.2,1.6-0.2,1.9-1c0.2-0.8-0.2-1.6-1-1.9c-0.8-0.2-1.6,0.2-1.9,1
				C119.7,167.5,120.2,168.3,121,168.6z"/>
			<path class="st157" d="M124.1,171.8c0.6,0.2,1.2-0.2,1.4-0.8c0.2-0.6-0.2-1.2-0.8-1.4c-0.6-0.2-1.2,0.2-1.4,0.8
				C123.2,171,123.5,171.6,124.1,171.8z"/>
			<path class="st157" d="M127.1,174.7c0.4,0.1,0.9-0.1,1-0.6c0.1-0.4-0.1-0.9-0.6-1c-0.4-0.1-0.9,0.1-1,0.6
				C126.4,174.1,126.7,174.6,127.1,174.7z"/>
		</g>
		<g>
			<g>
				<g>
					<path class="st158" d="M124.2,164c0.6,0.2,1.2-0.2,1.4-0.8l2.4-8.3c0.2-0.6-0.2-1.2-0.8-1.4l0,0c-0.6-0.2-1.2,0.2-1.4,0.8
						l-2.4,8.3C123.2,163.2,123.6,163.8,124.2,164L124.2,164z"/>
					<path class="st158" d="M124.1,164.1c-0.7-0.2-1-0.9-0.8-1.5l2.4-8.3c0.2-0.7,0.9-1,1.5-0.8c0.7,0.2,1,0.9,0.8,1.5l-2.4,8.3
						C125.5,163.9,124.8,164.3,124.1,164.1z M123.5,162.7c-0.2,0.5,0.2,1.1,0.7,1.2c0.5,0.2,1.1-0.2,1.2-0.7l2.4-8.3
						c0.2-0.5-0.2-1.1-0.7-1.2c-0.5-0.2-1.1,0.2-1.2,0.7L123.5,162.7z"/>
				</g>
				<g>
					
						<rect x="121.5" y="156.3" transform="matrix(0.2799 -0.96 0.96 0.2799 -61.9141 234.8853)" class="st116" width="8.3" height="4.9"/>
					<path class="st158" d="M122,162.1l2.4-8.2l4.9,1.4l-2.4,8.2L122,162.1z M124.5,154.2l-2.3,7.7l4.5,1.3l2.3-7.7L124.5,154.2z"/>
				</g>
			</g>
			<g>
				
					<rect x="96.5" y="107.2" transform="matrix(0.2799 -0.96 0.96 0.2799 -72.7095 199.448)" class="st159" width="0.1" height="82.1"/>
				
					<rect x="89.9" y="103.6" transform="matrix(0.2799 -0.96 0.96 0.2799 -79.7206 194.6951)" class="st159" width="0.1" height="93.8"/>
				
					<rect x="91.1" y="104.2" transform="matrix(0.2799 -0.96 0.96 0.2799 -78.4241 195.5958)" class="st159" width="0.1" height="91.7"/>
				
					<rect x="92.5" y="105" transform="matrix(0.2799 -0.96 0.96 0.2799 -76.9718 196.6214)" class="st159" width="0.1" height="89.2"/>
				
					<rect x="93.8" y="105.7" transform="matrix(0.2799 -0.96 0.96 0.2799 -75.6027 197.5725)" class="st159" width="0.1" height="86.9"/>
				
					<rect x="95.1" y="106.4" transform="matrix(0.2799 -0.96 0.96 0.2799 -74.2383 198.4364)" class="st159" width="0.1" height="84.7"/>
			</g>
		</g>
		<path class="st156" d="M121.8,162.1l2.4-8.3l5.1,1.5l-2.4,8.3L121.8,162.1z M124.5,154.2l-2.2,7.6l4.5,1.3l2.2-7.6L124.5,154.2z"
			/>
		<g>
			<path class="st116" d="M109,155.1c0.6-2.1,0.8-3.9,0.8-3.9l-0.2,0c0,0-0.4,3.1-1.5,5.8l0.2,0.1
				C108.6,156.4,108.8,155.7,109,155.1z"/>
			<path class="st116" d="M107.7,154c0.5-1.7,0.7-3,0.7-3.1l-0.2,0c0,0-0.5,3.1-1.6,5.7l0.2,0.1C107.2,155.7,107.5,154.8,107.7,154z
				"/>
			<path class="st116" d="M106.1,153.4c0.5-1.7,0.7-3,0.7-3l-0.2,0c0,0-0.5,3-1.6,5.6l0.2,0.1C105.6,155.2,105.9,154.3,106.1,153.4z
				"/>
			<path class="st116" d="M104.5,153c0.5-1.7,0.7-3,0.7-3l-0.2,0c0,0-0.5,3-1.6,5.6l0.2,0.1C103.9,154.7,104.2,153.8,104.5,153z"/>
			<path class="st116" d="M102.8,152.7c0.5-1.6,0.7-3.2,0.8-3.2l-0.2,0c0,0-0.6,3.5-1.6,5.5l0.2,0.1
				C102.3,154.4,102.5,153.5,102.8,152.7z"/>
			
				<rect x="98.1" y="151.7" transform="matrix(0.2799 -0.96 0.96 0.2799 -73.0062 206.249)" class="st116" width="5.8" height="0.2"/>
			
				<rect x="96.2" y="151.1" transform="matrix(0.2799 -0.96 0.96 0.2799 -73.8733 203.9504)" class="st116" width="5.7" height="0.2"/>
			
				<rect x="94.6" y="150.6" transform="matrix(0.2799 -0.96 0.96 0.2799 -74.6045 202.038)" class="st116" width="5.6" height="0.2"/>
			
				<rect x="92.5" y="150" transform="matrix(0.2799 -0.96 0.96 0.2799 -75.5136 199.5368)" class="st116" width="5.5" height="0.2"/>
			
				<rect x="90.4" y="149.4" transform="matrix(0.2799 -0.96 0.96 0.2799 -76.4668 197.0518)" class="st116" width="5.4" height="0.2"/>
			
				<rect x="88.1" y="148.7" transform="matrix(0.2799 -0.96 0.96 0.2799 -77.4761 194.3694)" class="st116" width="5.4" height="0.2"/>
			
				<rect x="86.1" y="148.1" transform="matrix(0.2799 -0.96 0.96 0.2799 -78.3729 191.937)" class="st116" width="5.3" height="0.2"/>
			
				<rect x="83.6" y="147.4" transform="matrix(0.2799 -0.96 0.96 0.2799 -79.4783 188.9989)" class="st116" width="5.2" height="0.2"/>
			
				<rect x="81.5" y="146.7" transform="matrix(0.2799 -0.96 0.96 0.2799 -80.4197 186.473)" class="st116" width="5.2" height="0.2"/>
			
				<rect x="78.8" y="145.9" transform="matrix(0.2799 -0.96 0.96 0.2799 -81.6133 183.2766)" class="st116" width="5.1" height="0.2"/>
			
				<rect x="76.3" y="145.2" transform="matrix(0.2799 -0.96 0.96 0.2799 -82.783 180.2168)" class="st116" width="4.9" height="0.2"/>
			
				<rect x="73.7" y="144.4" transform="matrix(0.2799 -0.96 0.96 0.2799 -83.9364 177.1511)" class="st116" width="4.9" height="0.2"/>
			
				<rect x="70.7" y="143.6" transform="matrix(0.2799 -0.96 0.96 0.2799 -85.2979 173.6537)" class="st116" width="4.8" height="0.2"/>
			
				<rect x="68.2" y="142.8" transform="matrix(0.2799 -0.96 0.96 0.2799 -86.3973 170.7317)" class="st116" width="4.8" height="0.2"/>
			<rect x="65.3" y="142" transform="matrix(0.2799 -0.96 0.96 0.2799 -87.711 167.2889)" class="st116" width="4.7" height="0.2"/>
			
				<rect x="62.3" y="141.1" transform="matrix(0.2799 -0.96 0.96 0.2799 -89.0467 163.6902)" class="st116" width="4.6" height="0.2"/>
			
				<rect x="59.4" y="140.3" transform="matrix(0.2799 -0.96 0.96 0.2799 -90.3842 160.2563)" class="st116" width="4.5" height="0.2"/>
		</g>
		<g>
			<path class="st158" d="M125.9,156.9c0.1,0,0.2,0,0.3-0.2c0-0.1,0-0.2-0.2-0.3c-0.1,0-0.2,0-0.3,0.2
				C125.7,156.8,125.7,156.9,125.9,156.9z"/>
			<path class="st158" d="M125.6,157.8c0.1,0,0.2,0,0.3-0.2c0-0.1,0-0.2-0.2-0.3c-0.1,0-0.2,0-0.3,0.2
				C125.4,157.7,125.5,157.8,125.6,157.8z"/>
			<path class="st158" d="M125.4,158.6c0.1,0,0.2,0,0.3-0.2c0-0.1,0-0.2-0.2-0.3c-0.1,0-0.2,0-0.3,0.2
				C125.2,158.4,125.2,158.6,125.4,158.6z"/>
			<path class="st158" d="M125.1,159.3c0.1,0,0.2,0,0.3-0.2c0-0.1,0-0.2-0.2-0.3c-0.1,0-0.2,0-0.3,0.2
				C125,159.2,125,159.3,125.1,159.3z"/>
			<path class="st158" d="M124.9,160.1c0.1,0,0.2,0,0.3-0.2c0-0.1,0-0.2-0.2-0.3c-0.1,0-0.2,0-0.3,0.2
				C124.7,160,124.8,160.1,124.9,160.1z"/>
			<path class="st158" d="M124.7,160.9c0.1,0,0.2,0,0.3-0.2c0-0.1,0-0.2-0.2-0.3c-0.1,0-0.2,0-0.3,0.2
				C124.5,160.7,124.6,160.8,124.7,160.9z"/>
		</g>
		<g>
			<path class="st158" d="M113.8,153.4c0.1,0,0.2,0,0.3-0.2c0-0.1,0-0.2-0.2-0.3c-0.1,0-0.2,0-0.3,0.2
				C113.7,153.2,113.7,153.4,113.8,153.4z"/>
			<path class="st158" d="M113.6,154.3c0.1,0,0.2,0,0.3-0.2c0-0.1,0-0.2-0.2-0.3c-0.1,0-0.2,0-0.3,0.2
				C113.4,154.1,113.4,154.3,113.6,154.3z"/>
			<path class="st158" d="M113.3,155.1c0.1,0,0.2,0,0.3-0.2c0-0.1,0-0.2-0.2-0.3c-0.1,0-0.2,0-0.3,0.2
				C113.2,154.9,113.2,155,113.3,155.1z"/>
			<path class="st158" d="M113.1,155.8c0.1,0,0.2,0,0.3-0.2c0-0.1,0-0.2-0.2-0.3c-0.1,0-0.2,0-0.3,0.2
				C112.9,155.7,113,155.8,113.1,155.8z"/>
			<path class="st158" d="M112.9,156.6c0.1,0,0.2,0,0.3-0.2c0-0.1,0-0.2-0.2-0.3c-0.1,0-0.2,0-0.3,0.2
				C112.7,156.5,112.8,156.6,112.9,156.6z"/>
			<path class="st158" d="M112.7,157.4c0.1,0,0.2,0,0.3-0.2c0-0.1,0-0.2-0.2-0.3c-0.1,0-0.2,0-0.3,0.2
				C112.5,157.2,112.6,157.3,112.7,157.4z"/>
		</g>
		<path class="st160" d="M129,176.2c0.2,0.1,0.5-0.1,0.5-0.3c0.1-0.2-0.1-0.5-0.3-0.5c-0.2-0.1-0.5,0.1-0.5,0.3
			C128.7,175.9,128.8,176.1,129,176.2z"/>
		<path class="st160" d="M102.5,166.1c0.2,0.1,0.5-0.1,0.5-0.3c0.1-0.2-0.1-0.5-0.3-0.5c-0.2-0.1-0.5,0.1-0.5,0.3
			C102.1,165.8,102.3,166,102.5,166.1z"/>
		<path class="st160" d="M109,148.9c0.2,0.1,0.5-0.1,0.5-0.3c0.1-0.2-0.1-0.5-0.3-0.5c-0.2-0.1-0.5,0.1-0.5,0.3
			C108.6,148.6,108.8,148.9,109,148.9z"/>
		<path class="st160" d="M129.9,153.3c0.2,0.1,0.5-0.1,0.5-0.3c0.1-0.2-0.1-0.5-0.3-0.5c-0.2-0.1-0.5,0.1-0.5,0.3
			C129.6,153,129.7,153.2,129.9,153.3z"/>
	</g>
	<path class="st3" d="M185,182.7c0,0-3.2-3.3-4.9-4.3c-1.7-1-4-1.4-4-1.4s1.6,2.6,3,3.2C180.6,180.8,185,182.7,185,182.7z"/>
	<path class="st3" d="M165.7,101.2c0,0-3,2.1-3.9,3.3c-1,1.2-1.6,3-1.6,3s2.2-0.9,2.9-2C163.7,104.4,165.7,101.2,165.7,101.2z"/>
	<path class="st3" d="M187.9,121.8c0,0-4.5,0.9-6.2,1.8c-1.7,0.9-3.4,2.6-3.4,2.6s3,0.1,4.3-0.8C184,124.4,187.9,121.8,187.9,121.8z
		"/>
	<path class="st3" d="M198,155.6c0,0-6.2-1.2-8.9-1.2s-6,0.7-6,0.7s3.7,1.4,6,1.2C191.3,156.1,198,155.6,198,155.6z"/>
	<path class="st3" d="M64.1,131.4c0,0,5.8,2.5,8.5,3.1c2.6,0.6,6,0.6,6,0.6s-3.3-2.2-5.6-2.5C70.7,132.4,64.1,131.4,64.1,131.4z"/>
	<path class="st3" d="M65.1,179.2c0,0,5.8-1.2,7.7-2.1c1.7-0.8,3.3-2.3,3.3-2.3s-2.5-0.4-3.9,0.4C71.2,175.8,65.1,179.2,65.1,179.2z
		"/>
	<g>
		<path class="st86" d="M132.5,89.6c-0.4,1.6-0.8,3.2-1.3,4.7l-0.5-0.6l1.8-0.4l0.5,1c-0.9,1-1.9,2-2.8,3l-0.7-1.4
			c0.8-0.2,1.6-0.4,2.5-0.5l1,1.1c-0.2,0.8-0.5,1.6-0.9,2.4c-0.3,0.8-0.7,1.5-1.2,2.3l-0.2,0c-0.1-0.9,0-1.7,0.1-2.6
			c0.1-0.8,0.2-1.7,0.4-2.5l1,1.1c-0.8,0.2-1.7,0.3-2.5,0.4l-0.7-1.4c1.1-0.8,2.1-1.7,3.2-2.6l0.5,1l-1.8,0.2l-0.5-0.6
			c0.7-1.5,1.3-3,2-4.5L132.5,89.6z"/>
	</g>
	<g>
		<path class="st86" d="M110.8,88.4c1,1.1,1.9,2.2,2.8,3.3c0.9,1.1,1.8,2.2,2.8,3.3l-0.7,1.2c-1.2-0.1-2.4-0.1-3.6-0.2l1-1.6
			c0.5,0.6,1,1.2,1.4,1.8c0.4,0.6,0.8,1.3,1.2,1.9c0.7,1.3,1.4,2.7,1.8,4.2l-0.2,0.1c-1.3-0.9-2.3-2-3.3-3.2c-0.5-0.6-1-1.2-1.4-1.8
			c-0.4-0.6-0.8-1.3-1.2-1.9l1-1.6c1.2,0.2,2.4,0.5,3.6,0.7l-0.7,1.2c-0.8-1.2-1.6-2.4-2.3-3.7c-0.8-1.2-1.5-2.5-2.2-3.7L110.8,88.4
			z"/>
	</g>
	<g>
		<path class="st86" d="M89.2,89.8c1.5,1.9,2.9,3.8,4.3,5.6c1.4,1.9,2.8,3.8,4.2,5.7l-2.5,0.3c0.3-1.3,0.6-2.6,0.9-3.9l3.2,0.4
			c0.1,1,0.3,2,0.5,2.9c0.1,1,0.2,2,0.2,2.9l-3.6-0.9c0.5-0.7,1-1.4,1.6-2.1l3,0.1c0.4,1,0.7,2.1,1,3.2c0.3,1.1,0.5,2.2,0.7,3.4
			l-0.3,0.2c-0.9-0.8-1.6-1.6-2.4-2.5c-0.7-0.9-1.4-1.7-2-2.7l3,0.1c-0.4,0.8-0.8,1.5-1.2,2.3l-3.6-0.9c-0.1-1-0.2-2-0.1-2.9
			c0-1,0.1-2,0.1-3l3.2,0.4c-0.5,1.2-0.9,2.5-1.4,3.8l-2.5,0.3c-1.1-2.1-2.2-4.2-3.3-6.3c-1.1-2.1-2.2-4.2-3.2-6.3L89.2,89.8z"/>
	</g>
	<polygon class="st5" points="89.3,119 79,124.6 66.6,118.7 67.1,101.4 83.6,96.5 92.3,107.4 	"/>
	<polygon class="st6" points="95.8,123.7 88.8,127 79.7,122.4 78.9,111.4 89.9,108.8 97,116.2 	"/>
	<path class="st4" d="M99.8,193.7c2.5,0.1,8.5,1.4,1.9,3.8c-5.9,2.1-12.3,3.1-15.8,3.1c-4.1,0-8.1-4.1-4.3-4.7
		c3.8-0.6,6.4-1,9.3-1.3C94.6,194.4,97.8,193.7,99.8,193.7z"/>
	<path class="st3" d="M97.5,179.1c-2.9,3.4-5.5,3.2-5.1,7c0.3,2.2,3.9,4.6,4.1,6.3c0.1,1.7-3.7,1.6-7.1,2.2
		c-3.3,0.6-9.6,1.5-4.9,3.4c2.2,0.9,6.2,0.6,10.4,0c4.2-0.6,7.7-1.6,7.9-3c0.4-2.4-2.2-4.2-4.1-6.5c-2.3-2.7-1.1-4.2,2.5-5.6
		S99.8,176.4,97.5,179.1z"/>
	<path class="st4" d="M95.4,198.1c0,0-0.3-2-2-3.1c-2.8-1.7-5-1.4-7.1-0.9c-2.1,0.5-2.1,1.6-2.1,1.6s1.2-0.3,2.9,0
		c1.7,0.3,2.5,1.8,2.4,2.9C91.3,199.3,95.4,198.1,95.4,198.1z"/>
	<path class="st4" d="M164.3,194.1c-2,0.1-6.8,1.2-1.8,3.2c4.4,1.8,9.4,2.6,12.1,2.6c3.2,0,6.7-3.5,3.8-4c-2.9-0.5-5-0.9-7.2-1.1
		C168.4,194.6,165.9,194,164.3,194.1z"/>
	<path class="st3" d="M155.2,175.5c1.7,3,3.5,6,5.2,8.7c1,1.6,5,7,6.2,7.9c1.1,0.9,3.3,2,5.8,2.5c2.6,0.5,7.4,1.3,3.5,2.8
		c-1.8,0.7-4.9,0.5-8.1,0c-3.3-0.5-5.6-1.4-5.9-2.5c-0.6-2-2.7-4.9-4-7.2c-1.8-3-3-5.6-5-9.1C150.5,174.6,153.8,173.2,155.2,175.5z"
		/>
	<path class="st4" d="M167.4,197.7c0,0,0.4-1.7,1.8-2.6c2.3-1.4,4.1-1.2,5.7-0.8c1.6,0.4,1.5,1.4,1.5,1.4s-0.9-0.2-2.3,0
		c-1.4,0.2-2.1,1.5-2.1,2.5C170.5,198.7,167.4,197.7,167.4,197.7z"/>
	<path class="st3" d="M83.9,151.9c1.1-0.1-5.8,3.7-10.2,5.8c-3.2,1.5-9.3,2.4-12.5,2.9c-1-1.7-0.5-4.6-2.2-3.6
		c-1.3,0.8-1.4,2.5-1.4,3.6c-0.6,0-1.2,0.1-2.1,0.2c-5.2,0.8-8.8,4.7-8.8,4.7s-0.1,1.4,1.5,1.2c1.6-0.2,6.4-2.6,6.4-2.6
		s0.2,3,1.2,3.2c1.1,0.2,1.2,3,3.2,2.6c1.9-0.4,2.7-0.6,3.8-1.9c0.3-0.4,0.2-1.3-0.2-2.2c1.7,0,6.9-0.2,13.6-2.5
		c8.2-2.9,10.8-6.5,10.8-6.5L83.9,151.9z"/>
	<path class="st161" d="M162.5,146.4c-9.5,0.4-15.8,5.3-19.8,8c-2.9,2-8.8,3.9-11.8,4.8c-1.2-1.5-1.2-4.5-2.8-3.2
		c-1.2,1-1,2.7-0.8,3.8c-0.6,0.1-1.2,0.6-2,0.5c-3.2-0.3-3.4-1.4-3.4-1.4c0.2-2-2.3-5.6-2.2,1.9c0,1.6,5.2,2.9,5.2,2.9
		s0.6,2.9,1.7,2.9c1.1,0,1.7,2.8,3.5,2c1.8-0.7,2.6-1,3.4-2.4c0.3-0.5,0-1.3-0.5-2.1c1.7-0.3,6.8-1.3,13-4.6
		c7.6-4.2,20.2-8.8,20.2-8.8L162.5,146.4z"/>
	<g>
		<path d="M108.1,106.7c0.4,0.4,0.7,0.8,1,1.3l-0.2-0.1c0.5-0.3,1-0.5,1.5-0.8c0.1-0.1,0.3,0,0.4,0.1l0,0l0,0c0.3,0.7,0.6,1.4,1,2.1
			l-0.4-0.3c2.6-0.1,5.3-0.1,7.9,0.1l-0.2,0.1c0.3-0.3,0.6-0.7,0.9-1l0,0.2c-0.3-0.4-0.6-0.8-0.8-1.3c0.4,0.3,0.7,0.7,1.1,1.1
			c0.1,0.1,0.1,0.1,0,0.2l0,0c-0.2,0.4-0.5,0.7-0.7,1.1c0,0.1-0.1,0.1-0.2,0.1l0,0c-2.6,0.2-5.3,0.2-7.9,0.1l0,0
			c-0.2,0-0.3-0.1-0.4-0.3c-0.3-0.7-0.5-1.4-0.8-2.1l0.4,0.2c-0.5,0.2-1.1,0.4-1.6,0.5l0,0c-0.1,0-0.2,0-0.2-0.1
			C108.5,107.7,108.3,107.2,108.1,106.7z"/>
	</g>
	<g>
		<path d="M120.7,106.2c0,0.6,0.1,1.3,0.1,1.9l0-0.1l1.2,1.3l-0.2-0.1c1.5-0.5,3-1.1,4.5-1.6l1.1-0.4c0.2-0.1,0.4-0.2,0.5-0.2
			c0,0,0,0,0,0l0.2-0.1c0.1-0.1,0.2-0.1,0.3-0.2c0.7-0.4,1.4-0.9,2.1-1.3c2.8-1.6,5.6-3.2,8.4-4.7l0,0c0.1,0,0.1,0,0.2,0
			c1.4,0,2.8,0.1,4.2,0.1l-0.3,0.2c0.8-1.3,1.6-2.6,2.4-3.9l0,0c0,0,0,0,0.1,0c0.5-0.2,1.1-0.3,1.6-0.4c-0.5,0.2-1,0.4-1.6,0.6
			l0.1,0c-0.7,1.4-1.3,2.7-2,4.1c0,0.1-0.1,0.1-0.2,0.2l0,0c-1.4,0-2.8,0.1-4.2,0.1l0.2-0.1c-2.8,1.6-5.6,3.2-8.3,4.8l-2.1,1.2
			l-0.5,0.3c-0.2,0.1-0.4,0.2-0.6,0.2c-0.4,0.1-0.8,0.3-1.2,0.4c-1.5,0.5-3.1,0.9-4.6,1.3l0,0c-0.1,0-0.2,0-0.2-0.1l-1.1-1.4l0,0
			c0,0,0,0,0-0.1C120.6,107.5,120.6,106.8,120.7,106.2z"/>
	</g>
	<g>
		<path class="st7" d="M124,119.3l1.6-0.9c0,0,0.3,2.3-0.2,3.8c-0.6,2-2.3,4.1-4.5,4.5c-2.2,0.5-3.5,0-4.1-0.9s-0.1-1.4,0-1.6
			c0.1-0.2,1.8-2.7,1.8-2.7"/>
		<path class="st8" d="M124,123.6c-0.2,0.3-1.3,1.3-1.3,1.3c-1.5,0.9-3.3,1.8-4.6,1.2c-1.2-0.6-0.3-1.5-0.3-1.5l-0.8,0
			c0,0-0.2,0.2-0.3,0.6c0,0.1,0,0.6,0.5,1c0.4,0.3,0.8,0.6,2.7,0.5c1.8-0.1,3.2-1.3,3.8-2c0.6-0.7,1-1.1,1.2-1.7
			c0,0,0.4-0.8,0.5-1.5c0,0,0-0.7-0.7-0.2C124.3,121.7,124.7,122.2,124,123.6z"/>
		
			<linearGradient id="SVGID_8_" gradientUnits="userSpaceOnUse" x1="198.8871" y1="165.7852" x2="201.3554" y2="159.1264" gradientTransform="matrix(0.937 -0.3493 0.3493 0.937 -123.144 44.6828)">
			<stop  offset="5.668049e-02" style="stop-color:#FF4100"/>
			<stop  offset="0.559" style="stop-color:#A80000"/>
			<stop  offset="1" style="stop-color:#5C1C23"/>
		</linearGradient>
		<path style="fill-rule:evenodd;clip-rule:evenodd;fill:url(#SVGID_8_);" d="M118.6,125.3c0.4,1.6-0.2,3,0.9,3.8
			c1.1,0.8,2.2,1.1,3-1.2c0.8-2.3,1.2-4.3,1.2-6c0-1.7-2.5,1.1-2.5,1.1S118.2,123.7,118.6,125.3z"/>
		<path class="st8" d="M114.8,121.6c0,0,0.6,3.1,2.5,3.2c1.9,0.1,2.7,0.1,3.8-0.2c1.2-0.4,3.2-2.2,3.8-3.4s0.5-2.5,0.5-2.5
			s-2.2,1.8-4.5,2.5C119.5,121.5,116.8,121.9,114.8,121.6z"/>
		<path class="st7" d="M113.4,121.4c0,0,4.4,0.5,7.6-0.8c3.2-1.3,4.9-2.4,4.9-2.4s-4.1,3.1-5.6,3.5
			C118.8,122.1,116.3,122,113.4,121.4z"/>
		<g>
			<path class="st9" d="M108.8,119.3c-0.3,0-3.1,0.3-4.6,1.4c-1.2,0.8-2,1.8-2,2.5c0,0.4,0.3,0.8,1.2,0.8c0.1,0,0.2,0,0.3,0
				c1.7,0,3.3-1.3,4.1-1.8c0.9-0.6,1.8-1.4,2.1-2.1c0.1-0.1,0.1-0.2,0.1-0.3C110,119.4,109.3,119.3,108.8,119.3
				C108.8,119.3,108.8,119.3,108.8,119.3"/>
		</g>
		<path class="st10" d="M147.5,112.5c-4.8-1.8-10.9-1-12.7,2.1c-0.9,1.6,1.5,3.6,5.9,4.5c2.9,0.6,5.7,1.3,8.2-1.2
			C150.4,116.5,151.3,114,147.5,112.5z"/>
		<path class="st11" d="M148,104.9l-46.8,9.7c0,0-1.4,8.3,6.7,7c8.1-1.3,13.1-9.3,13.1-9.3s2.3,7.7,12.8,6
			C144.4,116.5,148,104.9,148,104.9z"/>
		<g>
			<defs>
				<path id="SVGID_126_" d="M121.8,111.3l0.2,0.7c0.1,0.3,2.2,6.9,11.7,5.3c7.6-1.2,11.4-8,12.8-11.1L121.8,111.3z"/>
			</defs>
			<defs>
				<path id="SVGID_127_" d="M121.8,111.3l0.2,0.7c0.1,0.3,2.2,6.9,11.7,5.3c7.6-1.2,11.4-8,12.8-11.1L121.8,111.3z"/>
			</defs>
			<clipPath id="SVGID_9_">
				<use xlink:href="#SVGID_126_"  style="overflow:visible;"/>
			</clipPath>
			<clipPath id="SVGID_10_" class="st20">
				<use xlink:href="#SVGID_127_"  style="overflow:visible;"/>
			</clipPath>
			<g style="clip-path:url(#SVGID_10_);">
				<line class="st165" x1="134.5" y1="105" x2="119.7" y2="130.9"/>
				<line class="st165" x1="134.5" y1="105" x2="119.7" y2="130.9"/>
				<line class="st166" x1="126.5" y1="107.3" x2="113" y2="130.9"/>
				<line class="st166" x1="126.5" y1="107.3" x2="113" y2="130.9"/>
				<line class="st167" x1="129.4" y1="106.2" x2="115.3" y2="130.9"/>
				<line class="st167" x1="129.4" y1="106.2" x2="115.3" y2="130.9"/>
				<line class="st168" x1="145.8" y1="104.1" x2="130.4" y2="130.9"/>
				<line class="st168" x1="145.8" y1="104.1" x2="130.4" y2="130.9"/>
				<line class="st169" x1="147.8" y1="104.1" x2="132.5" y2="130.9"/>
				<line class="st169" x1="147.8" y1="104.1" x2="132.5" y2="130.9"/>
			</g>
		</g>
		<g>
			<defs>
				<path id="SVGID_130_" d="M102.1,115.4c-0.1,1,0,3.1,1.2,4.4c0.9,0.9,2.4,1.2,4.5,0.9c7.6-1.2,12.4-8.8,12.5-8.9l0.1-0.2
					L102.1,115.4z"/>
			</defs>
			<defs>
				<path id="SVGID_131_" d="M102.1,115.4c-0.1,1,0,3.1,1.2,4.4c0.9,0.9,2.4,1.2,4.5,0.9c7.6-1.2,12.4-8.8,12.5-8.9l0.1-0.2
					L102.1,115.4z"/>
			</defs>
			<clipPath id="SVGID_13_">
				<use xlink:href="#SVGID_130_"  style="overflow:visible;"/>
			</clipPath>
			<clipPath id="SVGID_14_" class="st22">
				<use xlink:href="#SVGID_131_"  style="overflow:visible;"/>
			</clipPath>
			<g class="st23">
				<line class="st165" x1="113.9" y1="109" x2="101.3" y2="130.9"/>
				<line class="st165" x1="113.9" y1="109" x2="101.3" y2="130.9"/>
				<line class="st166" x1="117.6" y1="109" x2="105" y2="130.9"/>
				<line class="st166" x1="117.6" y1="109" x2="105" y2="130.9"/>
			</g>
		</g>
	</g>
</g>
</svg>
