<?xml version="1.0" encoding="utf-8"?>
<!-- Generator: Adobe Illustrator 22.0.0, SVG Export Plug-In . SVG Version: 6.00 Build 0)  -->
<svg version="1.1" id="mascotte" xmlns="http://www.w3.org/2000/svg" xmlns:xlink="http://www.w3.org/1999/xlink" x="0px" y="0px"
	 viewBox="0 0 245.8 245.8" style="enable-background:new 0 0 245.8 245.8;" xml:space="preserve">
<style type="text/css">
	.st0{opacity:0.6;}
	.st1{fill-rule:evenodd;clip-rule:evenodd;fill:#FFDF43;}
	.st2{fill-rule:evenodd;clip-rule:evenodd;fill:url(#SVGID_1_);}
	.st3{fill-rule:evenodd;clip-rule:evenodd;fill:#FAB010;}
	.st4{fill-rule:evenodd;clip-rule:evenodd;fill:#157EBF;}
	.st5{opacity:0.6;fill:#FFE565;}
	.st6{opacity:0.6;fill:#FCDE48;}
	.st7{fill-rule:evenodd;clip-rule:evenodd;fill:#AA5D0A;}
	.st8{fill-rule:evenodd;clip-rule:evenodd;fill:#FDFEFE;}
	.st9{fill:#C8650D;}
	.st10{fill-rule:evenodd;clip-rule:evenodd;fill:#C8650D;}
	.st11{fill-rule:evenodd;clip-rule:evenodd;}
	.st12{clip-path:url(#SVGID_4_);}
	.st13{clip-path:url(#SVGID_5_);}
	.st14{fill:none;stroke:#FFFFFF;stroke-width:4;stroke-miterlimit:10;}
	.st15{fill:none;stroke:#FFFFFF;stroke-width:0.75;stroke-miterlimit:10;}
	.st16{fill:none;stroke:#FFFFFF;stroke-width:2;stroke-miterlimit:10;}
	.st17{fill:none;stroke:#FFFFFF;stroke-width:1.75;stroke-miterlimit:10;}
	.st18{fill:none;stroke:#FFFFFF;stroke-width:0.25;stroke-miterlimit:10;}
	.st19{clip-path:url(#SVGID_8_);}
	.st20{clip-path:url(#SVGID_9_);}
	.st21{fill-rule:evenodd;clip-rule:evenodd;fill:url(#SVGID_10_);}
	.st22{clip-path:url(#SVGID_13_);}
	.st23{clip-path:url(#SVGID_14_);}
	.st24{clip-path:url(#SVGID_17_);}
	.st25{clip-path:url(#SVGID_18_);}
	.st26{fill-rule:evenodd;clip-rule:evenodd;fill:url(#SVGID_19_);}
	.st27{clip-path:url(#SVGID_22_);}
	.st28{clip-path:url(#SVGID_23_);}
	.st29{clip-path:url(#SVGID_26_);}
	.st30{clip-path:url(#SVGID_27_);}
	.st31{fill:none;}
	.st32{fill:#4D2200;}
	.st33{fill:#3B5172;}
	.st34{fill:#60BFBB;}
	.st35{fill:#B3E5E2;}
	.st36{fill:#9BFFF8;}
	.st37{fill:url(#XMLID_7_);}
	.st38{fill:url(#XMLID_8_);}
	.st39{fill:url(#XMLID_9_);}
	.st40{fill:url(#XMLID_10_);}
	.st41{fill:url(#XMLID_11_);}
	.st42{fill:url(#XMLID_12_);}
	.st43{fill:url(#XMLID_13_);}
	.st44{fill:url(#XMLID_15_);}
	.st45{fill:url(#XMLID_16_);}
	.st46{fill:url(#XMLID_18_);}
	.st47{fill:url(#XMLID_20_);}
	.st48{fill:url(#XMLID_21_);}
	.st49{fill:url(#XMLID_22_);}
	.st50{fill:url(#XMLID_23_);}
	.st51{fill:url(#XMLID_25_);}
	.st52{fill:url(#XMLID_26_);}
	.st53{fill:url(#XMLID_27_);}
	.st54{fill-rule:evenodd;clip-rule:evenodd;fill:url(#SVGID_28_);}
	.st55{fill:#C95534;}
	.st56{fill:url(#SVGID_29_);}
	.st57{fill:#A2CBF1;}
	.st58{fill:#157EBF;}
	.st59{clip-path:url(#SVGID_31_);fill:none;stroke:#2B89E0;stroke-width:2.8631;stroke-miterlimit:10;}
	.st60{fill:url(#SVGID_32_);}
	.st61{clip-path:url(#SVGID_34_);fill:none;stroke:#2B89E0;stroke-width:2.8631;stroke-miterlimit:10;}
	.st62{fill:#CC5D3F;}
	.st63{fill:#FFC66B;}
	.st64{fill:#FFE3A3;}
	.st65{fill:#2B89E0;}
	.st66{fill-rule:evenodd;clip-rule:evenodd;fill:#FAB315;}
	.st67{clip-path:url(#SVGID_37_);}
	.st68{clip-path:url(#SVGID_38_);}
	.st69{clip-path:url(#SVGID_41_);}
	.st70{clip-path:url(#SVGID_42_);}
	.st71{fill-rule:evenodd;clip-rule:evenodd;fill:url(#SVGID_43_);}
	.st72{clip-path:url(#SVGID_46_);}
	.st73{clip-path:url(#SVGID_47_);}
	.st74{clip-path:url(#SVGID_50_);}
	.st75{clip-path:url(#SVGID_51_);}
	.st76{fill-rule:evenodd;clip-rule:evenodd;fill:url(#SVGID_52_);}
	.st77{fill-rule:evenodd;clip-rule:evenodd;fill:#42433E;}
	.st78{clip-path:url(#SVGID_54_);}
	.st79{fill-rule:evenodd;clip-rule:evenodd;fill:#FFFFFF;}
	.st80{clip-path:url(#SVGID_57_);}
	.st81{clip-path:url(#SVGID_58_);}
	.st82{clip-path:url(#SVGID_61_);}
	.st83{clip-path:url(#SVGID_62_);}
	.st84{fill-rule:evenodd;clip-rule:evenodd;fill:url(#SVGID_63_);}
	.st85{clip-path:url(#SVGID_65_);}
	.st86{fill:#FAB010;}
	.st87{clip-path:url(#SVGID_68_);}
	.st88{clip-path:url(#SVGID_69_);}
	.st89{clip-path:url(#SVGID_72_);}
	.st90{clip-path:url(#SVGID_73_);}
	.st91{fill-rule:evenodd;clip-rule:evenodd;fill:url(#SVGID_74_);}
	.st92{fill:#AA5D0A;}
	.st93{clip-path:url(#SVGID_77_);}
	.st94{clip-path:url(#SVGID_78_);}
	.st95{clip-path:url(#SVGID_81_);}
	.st96{clip-path:url(#SVGID_82_);}
	.st97{fill-rule:evenodd;clip-rule:evenodd;fill:url(#SVGID_83_);}
	.st98{fill-rule:evenodd;clip-rule:evenodd;fill:#E9AB48;}
	.st99{fill-rule:evenodd;clip-rule:evenodd;fill:#AA2C0A;}
	.st100{fill-rule:evenodd;clip-rule:evenodd;fill:#FFE565;}
	.st101{fill-rule:evenodd;clip-rule:evenodd;fill:#753E22;}
	.st102{fill-rule:evenodd;clip-rule:evenodd;fill:#3CB13C;}
	.st103{clip-path:url(#SVGID_86_);}
	.st104{clip-path:url(#SVGID_87_);}
	.st105{clip-path:url(#SVGID_90_);}
	.st106{clip-path:url(#SVGID_91_);}
	.st107{fill-rule:evenodd;clip-rule:evenodd;fill:url(#SVGID_92_);}
	.st108{clip-path:url(#SVGID_95_);}
	.st109{clip-path:url(#SVGID_96_);}
	.st110{clip-path:url(#SVGID_99_);}
	.st111{clip-path:url(#SVGID_100_);}
	.st112{fill-rule:evenodd;clip-rule:evenodd;fill:url(#SVGID_101_);}
	.st113{fill:#A7A89E;}
	.st114{fill:none;stroke:#A7A89E;stroke-width:0.25;stroke-miterlimit:10;}
	.st115{fill:#FDBA1D;}
	.st116{fill:#FFFFFF;}
	.st117{fill:#42433E;}
	.st118{fill:#2B2B28;}
	.st119{fill:#111110;}
	.st120{clip-path:url(#SVGID_104_);}
	.st121{clip-path:url(#SVGID_105_);}
	.st122{clip-path:url(#SVGID_108_);}
	.st123{clip-path:url(#SVGID_109_);}
	.st124{fill-rule:evenodd;clip-rule:evenodd;fill:#33383F;}
	.st125{fill:#272E35;}
	.st126{fill-rule:evenodd;clip-rule:evenodd;fill:url(#SVGID_110_);}
	.st127{fill-rule:evenodd;clip-rule:evenodd;fill:#434E5B;}
	.st128{opacity:0.5;fill-rule:evenodd;clip-rule:evenodd;fill:#FDFEFE;}
	.st129{fill-rule:evenodd;clip-rule:evenodd;fill:#FF4100;}
	.st130{fill-rule:evenodd;clip-rule:evenodd;fill:#7A1A00;}
	.st131{fill-rule:evenodd;clip-rule:evenodd;fill:#11A700;}
	.st132{fill-rule:evenodd;clip-rule:evenodd;fill:#165500;}
	.st133{fill-rule:evenodd;clip-rule:evenodd;fill:#0072CC;}
	.st134{fill-rule:evenodd;clip-rule:evenodd;fill:#00446F;}
	.st135{fill-rule:evenodd;clip-rule:evenodd;fill:url(#SVGID_111_);}
	.st136{fill-rule:evenodd;clip-rule:evenodd;fill:url(#SVGID_112_);}
	.st137{fill-rule:evenodd;clip-rule:evenodd;fill:#FCCF4E;}
	.st138{clip-path:url(#SVGID_115_);}
	.st139{clip-path:url(#SVGID_116_);}
	.st140{fill:none;stroke:#FFFFFF;stroke-width:3.3578;stroke-miterlimit:10;}
	.st141{fill:none;stroke:#FFFFFF;stroke-width:0.6296;stroke-miterlimit:10;}
	.st142{fill:none;stroke:#FFFFFF;stroke-width:1.6789;stroke-miterlimit:10;}
	.st143{fill:none;stroke:#FFFFFF;stroke-width:1.4691;stroke-miterlimit:10;}
	.st144{fill:none;stroke:#FFFFFF;stroke-width:0.2099;stroke-miterlimit:10;}
	.st145{clip-path:url(#SVGID_119_);}
	.st146{clip-path:url(#SVGID_120_);}
	.st147{fill-rule:evenodd;clip-rule:evenodd;fill:none;stroke:#AA5D0A;stroke-width:0.9654;stroke-miterlimit:10;}
	.st148{fill-rule:evenodd;clip-rule:evenodd;fill:#272E35;}
	.st149{fill:#33383F;}
	.st150{fill-rule:evenodd;clip-rule:evenodd;fill:url(#SVGID_121_);}
	.st151{fill:#4F0000;}
	.st152{fill:url(#SVGID_122_);}
	.st153{clip-path:url(#SVGID_124_);}
	.st154{fill:#EF7031;}
	.st155{fill:#F9CC02;}
	.st156{fill:#929497;}
	.st157{fill:#FF4100;}
	.st158{fill:#231F20;}
	.st159{fill:#B3B3B3;}
	.st160{fill:#58595B;}
	.st161{fill-rule:evenodd;clip-rule:evenodd;fill:#FAB212;}
	.st162{fill-rule:evenodd;clip-rule:evenodd;fill:url(#SVGID_125_);}
	.st163{clip-path:url(#SVGID_128_);}
	.st164{clip-path:url(#SVGID_129_);}
	.st165{fill:none;stroke:#FFFFFF;stroke-width:3.7719;stroke-miterlimit:10;}
	.st166{fill:none;stroke:#FFFFFF;stroke-width:0.7072;stroke-miterlimit:10;}
	.st167{fill:none;stroke:#FFFFFF;stroke-width:1.8859;stroke-miterlimit:10;}
	.st168{fill:none;stroke:#FFFFFF;stroke-width:1.6502;stroke-miterlimit:10;}
	.st169{fill:none;stroke:#FFFFFF;stroke-width:0.2357;stroke-miterlimit:10;}
	.st170{clip-path:url(#SVGID_132_);}
	.st171{clip-path:url(#SVGID_133_);}
	.st172{fill:#FFD28C;}
	.st173{fill:#EEB96C;}
	.st174{fill:#DB84B5;}
	.st175{fill:#62B146;}
	.st176{fill:#A9C63D;}
	.st177{fill:#957F4B;}
	.st178{fill:#AD9568;}
	.st179{fill:#825F26;}
	.st180{fill:#CE7829;}
	.st181{fill:#AC5A26;}
	.st182{fill-rule:evenodd;clip-rule:evenodd;fill:none;stroke:#EAA211;stroke-width:5;stroke-miterlimit:10;}
	.st183{fill-rule:evenodd;clip-rule:evenodd;fill:url(#SVGID_134_);}
	.st184{fill:#FA852D;}
	.st185{fill:#F5752A;}
	.st186{fill:#F99E29;}
	.st187{fill-rule:evenodd;clip-rule:evenodd;fill:none;stroke:#FABA24;stroke-width:5;stroke-miterlimit:10;}
	.st188{fill-rule:evenodd;clip-rule:evenodd;fill:#EAA211;}
	.st189{fill-rule:evenodd;clip-rule:evenodd;fill:#FABA24;}
	.st190{fill:url(#SVGID_135_);}
	.st191{fill:url(#SVGID_136_);}
	.st192{filter:url(#Adobe_OpacityMaskFilter);}
	.st193{filter:url(#Adobe_OpacityMaskFilter_1_);}
	.st194{mask:url(#SVGID_137_);fill:url(#SVGID_138_);}
	.st195{opacity:0.14;fill:url(#SVGID_139_);}
	.st196{filter:url(#Adobe_OpacityMaskFilter_2_);}
	.st197{filter:url(#Adobe_OpacityMaskFilter_3_);}
	.st198{mask:url(#SVGID_140_);fill:url(#SVGID_141_);}
	.st199{opacity:0.14;fill:url(#SVGID_142_);}
	.st200{fill:url(#SVGID_143_);}
	.st201{fill:url(#SVGID_144_);}
	.st202{fill:url(#SVGID_145_);}
	.st203{fill:url(#SVGID_146_);}
	.st204{fill:#CBEAF6;}
	.st205{fill:#96D7ED;}
	.st206{fill:#F06888;}
	.st207{fill:#F395BE;}
	.st208{fill:#C84C27;}
	.st209{fill:#F16822;}
	.st210{fill:#F37940;}
	.st211{fill:#F37B4C;}
	.st212{fill:#4C3427;}
	.st213{fill:#9F3022;}
	.st214{fill-rule:evenodd;clip-rule:evenodd;fill:url(#SVGID_147_);}
	
		.st215{fill-rule:evenodd;clip-rule:evenodd;fill:none;stroke:#FAB010;stroke-width:10.343;stroke-linecap:round;stroke-linejoin:round;stroke-miterlimit:10;}
	
		.st216{fill-rule:evenodd;clip-rule:evenodd;fill:none;stroke:#FAB010;stroke-width:11;stroke-linecap:round;stroke-linejoin:round;stroke-miterlimit:10;}
	.st217{clip-path:url(#SVGID_150_);}
	.st218{clip-path:url(#SVGID_151_);}
	.st219{fill:none;stroke:#FFFFFF;stroke-width:4.33;stroke-miterlimit:10;}
	.st220{fill:none;stroke:#FFFFFF;stroke-width:0.8119;stroke-miterlimit:10;}
	.st221{fill:none;stroke:#FFFFFF;stroke-width:2.165;stroke-miterlimit:10;}
	.st222{fill:none;stroke:#FFFFFF;stroke-width:1.8944;stroke-miterlimit:10;}
	.st223{fill:none;stroke:#FFFFFF;stroke-width:0.2706;stroke-miterlimit:10;}
	.st224{clip-path:url(#SVGID_154_);}
	.st225{clip-path:url(#SVGID_155_);}
	.st226{fill:none;stroke:#A7A89E;stroke-width:0.2797;stroke-miterlimit:10;}
	
		.st227{fill-rule:evenodd;clip-rule:evenodd;fill:none;stroke:#FFFFFF;stroke-width:0.75;stroke-linecap:round;stroke-miterlimit:10;}
	.st228{fill-rule:evenodd;clip-rule:evenodd;fill:none;stroke:#FFFFFF;stroke-width:2.5187;stroke-miterlimit:10;}
	.st229{fill:#4F2706;}
	.st230{opacity:0.25;fill:#FFFFFF;}
	.st231{fill-rule:evenodd;clip-rule:evenodd;fill:#A7A89E;}
	.st232{fill-rule:evenodd;clip-rule:evenodd;fill:none;stroke:#42433E;stroke-width:0.9637;stroke-miterlimit:10;}
	.st233{opacity:0.5;fill:url(#SVGID_156_);}
	.st234{fill:#AEAFA3;}
	.st235{fill-rule:evenodd;clip-rule:evenodd;fill:url(#SVGID_157_);}
	.st236{fill:url(#SVGID_158_);}
	.st237{opacity:0.4;}
	.st238{fill:url(#SVGID_159_);}
	.st239{fill-rule:evenodd;clip-rule:evenodd;fill:none;stroke:#FAB011;stroke-width:5.3617;stroke-miterlimit:10;}
	
		.st240{fill-rule:evenodd;clip-rule:evenodd;fill:none;stroke:#FABA24;stroke-width:3;stroke-linecap:round;stroke-linejoin:round;stroke-miterlimit:10;}
	
		.st241{fill-rule:evenodd;clip-rule:evenodd;fill:none;stroke:#FABA24;stroke-width:2;stroke-linecap:round;stroke-linejoin:round;stroke-miterlimit:10;}
	
		.st242{fill-rule:evenodd;clip-rule:evenodd;fill:none;stroke:#FABA24;stroke-width:2.5;stroke-linecap:round;stroke-linejoin:round;stroke-miterlimit:10;}
	.st243{fill-rule:evenodd;clip-rule:evenodd;fill:url(#SVGID_160_);}
	.st244{fill-rule:evenodd;clip-rule:evenodd;fill:url(#SVGID_161_);}
	.st245{opacity:0.5;fill:#FFE3A3;}
	.st246{fill-rule:evenodd;clip-rule:evenodd;fill:#32383F;}
	.st247{fill:#32383F;}
	.st248{fill:url(#SVGID_162_);}
	.st249{filter:url(#Adobe_OpacityMaskFilter_4_);}
	.st250{filter:url(#Adobe_OpacityMaskFilter_5_);}
	.st251{mask:url(#SVGID_163_);fill:url(#SVGID_164_);}
	.st252{opacity:0.5;fill:url(#SVGID_165_);}
	.st253{filter:url(#Adobe_OpacityMaskFilter_6_);}
	.st254{filter:url(#Adobe_OpacityMaskFilter_7_);}
	.st255{mask:url(#SVGID_166_);fill:url(#SVGID_167_);}
	.st256{opacity:0.5;fill:url(#SVGID_168_);}
	.st257{fill:url(#SVGID_169_);}
	.st258{opacity:0.5;}
	.st259{fill:#FFFDF0;}
	.st260{fill-rule:evenodd;clip-rule:evenodd;fill:none;stroke:#32383F;stroke-width:2;stroke-linecap:round;stroke-miterlimit:10;}
	.st261{opacity:0.2;}
	.st262{fill:none;stroke:#FDFEFE;stroke-width:2;stroke-miterlimit:10;}
	.st263{fill:none;stroke:#FDFEFE;stroke-width:2;stroke-miterlimit:10;stroke-dasharray:1.0301,8.2408;}
</style>
<g>
	<g id="Shape_9_24_" class="st0">
		<g>
			<path class="st1" d="M143.7,83.2c-12.7-8.9-34.9-15.2-55.1-10.7c-20.3,4.6-28.5,15.2-36.2,27.9c-11.3,18.5-11.6,36.1,1.1,52.4
				c15.2,19.4,41.2,20.6,58,21.2c16.6,0.7,51.4-0.1,59.7-27.3C179.6,119.7,156.4,92.1,143.7,83.2z"/>
		</g>
	</g>
	<g>
		
			<radialGradient id="SVGID_1_" cx="131.7694" cy="99.3374" r="52.434" gradientTransform="matrix(-1 0 0 1 245.76 0)" gradientUnits="userSpaceOnUse">
			<stop  offset="0" style="stop-color:#FCD253"/>
			<stop  offset="1" style="stop-color:#FAB010"/>
		</radialGradient>
		<path class="st2" d="M74.2,92.4c-14.7,15.5-23.4,36-6.8,58c11.7,15.4,49.9,18.3,69.1,12c18.4-6.1,27.7-20.9,18.1-44.8
			c-9.6-23.9-30.8-31.2-38.1-32.8C108.6,83,88.5,77.4,74.2,92.4z"/>
	</g>
	<path class="st215" d="M140,166.1c-1.1-2.1,0.1-2.8,0.8-3.1c3.5-1.5,24.4-9.8,30.8-17.5c0,0-2.3-2.6-13,4.2"/>
	<path class="st216" d="M97.1,153.6c-11.6-1-23.2-1.3-34.8-1.1c-0.3,1.7,0.6,3.4,2,4.6c1.3,1.1,3,1.8,4.6,2.4
		c8.4,3.1,26.4,6.5,35.2,8.3"/>
	<path class="st3" d="M157.8,84.6c0,0-4.5,1.8-6.1,3.1c-1.6,1.2-3,3.4-3,3.4s3.2-0.5,4.4-1.7C154.2,88.2,157.8,84.6,157.8,84.6z"/>
	<path class="st3" d="M170.4,92.6c0,0-6.6,1.5-9.2,2.6c-2.6,1.1-5.5,3.2-5.5,3.2s4.2-0.2,6.3-1.3C164.1,95.9,170.4,92.6,170.4,92.6z
		"/>
	<path class="st3" d="M102.1,59c0,0-1.5,6.9-1.2,9.9c0.3,3,1.8,6.7,1.8,6.7s2.1-4.1,1.6-6.6C103.7,66.6,102.1,59,102.1,59z"/>
	<path class="st3" d="M37.7,120.3c0,0,6.2,1.2,8.4,1c2-0.1,4.2-1,4.2-1s-2.4-1.4-4-1.1C45.1,119.3,37.7,120.3,37.7,120.3z"/>
	<path class="st3" d="M70.5,57.8c0,0,3.5,11.3,6.3,16.6c2.8,5.4,7.5,6.7,7.5,6.7s-0.3-4.7-2.5-8.9C79.7,68.1,70.5,57.8,70.5,57.8z"
		/>
	<path class="st3" d="M143.5,123.4c-1.1,0.9,8.6-1.5,14.5-3.3c4.2-1.3,10.8-5.6,14.1-7.9c-0.5-2.4-3.4-4.7-1-5.3
		c1.9-0.4,3.5,1.2,4.4,2.3c0.5-0.5,1.2-1,2.1-1.6c1.4-0.9,2.8-1.6,4.3-2.1c4.2-1.4,4,3,2,3.6c-1.4,0.5-2.6,0.8-2.6,0.8
		s2.4,2.9,1.5,4s1.4,3.9-0.8,5.1c-2.2,1.2-3.1,1.8-5.1,1.5c-0.7-0.1-1.3-1-1.7-2.2c-1.6,1.5-6.6,5.8-14.9,9.2
		c-10.1,4.3-15.7,3.1-15.7,3.1L143.5,123.4z"/>
	<g>
		<g>
			<path d="M107.2,88.3c0.9-1.1,1.9-2.1,3.1-3c1.1-0.9,2.4-1.6,3.7-2.2c1.4-0.5,2.9-0.9,4.4-0.6c0.8,0.1,1.5,0.5,2,1
				c0.6,0.5,1,1.1,1.3,1.8c-0.9-1.1-2.2-1.8-3.5-1.9c-1.3-0.1-2.6,0.2-3.9,0.8c-1.3,0.5-2.5,1.2-3.7,1.9
				C109.6,86.7,108.4,87.5,107.2,88.3z"/>
		</g>
		<g>
			<path d="M128.8,97.2c0.7-0.9,1.5-1.7,2.4-2.3c0.9-0.7,1.9-1.2,3-1.6c1.1-0.4,2.4-0.5,3.5-0.1c0.6,0.2,1.1,0.6,1.4,1.1
				c0.4,0.5,0.6,1,0.7,1.5c-0.7-0.9-1.5-1.6-2.4-1.8c-0.9-0.2-2,0-2.9,0.3c-1,0.3-1.9,0.8-2.9,1.3C130.7,96.1,129.8,96.6,128.8,97.2
				z"/>
		</g>
		<g>
			<path class="st9" d="M133,107.6c0.4,0,3.1,0.5,4.4,2c1,1.1,1.5,2.4,1.3,3.2c-0.1,0.5-0.6,0.9-1.5,1c-0.1,0-0.2,0-0.4,0
				c-1.8-0.1-3.1-1.7-3.7-2.5c-0.8-0.8-1.4-1.9-1.6-2.7c0-0.1,0-0.2,0-0.3C131.7,107.7,132.5,107.6,133,107.6
				C133,107.6,133,107.6,133,107.6"/>
		</g>
		<path class="st10" d="M96.6,97.3c5.5-2,11.7-0.7,12.6,3.3c0.4,2-2.6,4.5-7.5,5.3c-3.2,0.6-6.3,1.3-8.2-1.9
			C92.4,102.2,92.2,98.9,96.6,97.3z"/>
		<path class="st11" d="M98.7,85.2l44,18.5c0,0-1.8,10.5-9.5,7.8s-9.9-13.4-9.9-13.4s-5.2,9.2-15.3,5.7S98.7,85.2,98.7,85.2z"/>
		<g>
			<defs>
				<path id="SVGID_148_" d="M123,96.8l-0.5,0.8c-0.2,0.3-4.8,8.2-14,5c-7.2-2.6-8.6-11.5-8.8-15.6L123,96.8z"/>
			</defs>
			<defs>
				<path id="SVGID_149_" d="M123,96.8l-0.5,0.8c-0.2,0.3-4.8,8.2-14,5c-7.2-2.6-8.6-11.5-8.8-15.6L123,96.8z"/>
			</defs>
			<clipPath id="SVGID_4_">
				<use xlink:href="#SVGID_148_"  style="overflow:visible;"/>
			</clipPath>
			<clipPath id="SVGID_5_" class="st12">
				<use xlink:href="#SVGID_149_"  style="overflow:visible;"/>
			</clipPath>
			<g class="st13">
				<line class="st219" x1="112.5" y1="87.3" x2="117.8" y2="121.5"/>
				<line class="st219" x1="112.5" y1="87.3" x2="117.8" y2="121.5"/>
				<line class="st220" x1="119.8" y1="91.2" x2="124.6" y2="122.4"/>
				<line class="st220" x1="119.8" y1="91.2" x2="124.6" y2="122.4"/>
				<line class="st221" x1="117.2" y1="89.4" x2="122.2" y2="122.1"/>
				<line class="st221" x1="117.2" y1="89.4" x2="122.2" y2="122.1"/>
				<line class="st222" x1="101.3" y1="84.5" x2="106.8" y2="120"/>
				<line class="st222" x1="101.3" y1="84.5" x2="106.8" y2="120"/>
				<line class="st223" x1="99.2" y1="84.2" x2="104.8" y2="119.7"/>
				<line class="st223" x1="99.2" y1="84.2" x2="104.8" y2="119.7"/>
			</g>
		</g>
		<g>
			<defs>
				<path id="SVGID_152_" d="M124.3,97.3l0,0.2c0,0.1,2.1,10.2,9.4,12.8c1.9,0.7,3.6,0.5,4.9-0.5c1.7-1.4,2.6-4,2.9-5.3L124.3,97.3z
					"/>
			</defs>
			<defs>
				<path id="SVGID_153_" d="M124.3,97.3l0,0.2c0,0.1,2.1,10.2,9.4,12.8c1.9,0.7,3.6,0.5,4.9-0.5c1.7-1.4,2.6-4,2.9-5.3L124.3,97.3z
					"/>
			</defs>
			<clipPath id="SVGID_8_">
				<use xlink:href="#SVGID_152_"  style="overflow:visible;"/>
			</clipPath>
			<clipPath id="SVGID_9_" class="st19">
				<use xlink:href="#SVGID_153_"  style="overflow:visible;"/>
			</clipPath>
			<g class="st20">
				<line class="st219" x1="131.9" y1="95" x2="136.4" y2="124"/>
				<line class="st219" x1="131.9" y1="95" x2="136.4" y2="124"/>
				<line class="st220" x1="128.2" y1="94.5" x2="132.7" y2="123.5"/>
				<line class="st220" x1="128.2" y1="94.5" x2="132.7" y2="123.5"/>
			</g>
		</g>
		<g>
			<path class="st7" d="M111.8,109.8l-1.9-1c0,0-0.4,3.6,0.2,6c0.7,2.9,2.7,5.7,5.5,5.8c2.8,0.1,4.3-1,5.1-2.6
				c0.8-1.6,0.2-2.2,0-2.5c-0.1-0.3-2.2-3.7-2.2-3.7"/>
			<path class="st8" d="M121,114.5c0,0,0.7,2.9-1.5,4.2c-2.2,1.3-4.3,2.2-6.2,0.3c-1.8-1.9-2.9-3.7-3-5.3c-0.1-1.7,0.3-2.9,0.3-2.9
				s5.2,4.1,6.9,4.1c1.7,0,2-0.1,2-0.1L121,114.5z"/>
			<path class="st8" d="M123.3,110.8c0,0-0.8,5-3.2,5.7c-2.4,0.7-3.3,1-4.8,0.7s-3.9-2.6-4.7-4.2c-0.8-1.6-0.5-3.8-0.5-3.8
				s2.7,2.3,5.5,2.6C117.5,112,120.7,111.9,123.3,110.8z"/>
			<path class="st7" d="M125,110.1c0,0-5.4,2-9.4,0.9c-3.9-1.1-6-2.4-6-2.4s5,3.7,6.9,3.9C118.2,112.8,121.4,111.8,125,110.1z"/>
		</g>
	</g>
	<g>
		<path class="st77" d="M125.7,167.3c-0.6,0.1-1.2,0-1.8-0.2l-29.8-10.4c-5.6-1.9-6.1-3-7-4.4c0,0-1-1.3,2.3-1.9
			c1.3-0.2,46.8-0.4,46.8-0.4c0.4,0,11.9,4.6,12.2,4.7l16,6.5c0.6,0.2,0.5,1.1-0.2,1.2L125.7,167.3z"/>
		<polygon class="st113" points="97.6,156 102,157.7 141.3,156.5 137.7,155.5 		"/>
		<polygon class="st226" points="108.1,151.1 114.9,154.2 127.7,153.9 122.1,151.1 		"/>
		<polygon class="st226" points="108.1,151.1 110.9,152.2 123.6,151.9 122.1,151.1 		"/>
		<polygon class="st113" points="104.3,158.5 109.9,160.5 147.3,158 144.2,157.1 		"/>
		<polygon class="st113" points="112.3,161.6 117.2,163.2 153,159.8 149.2,158.7 		"/>
		<polygon class="st113" points="119.4,164.2 124.3,165.9 158.2,161.3 154.9,160.4 		"/>
		<path class="st77" d="M141.4,108.7l29.9,12.7c1.8,0.8,2.8,2.7,2.4,4.6l-6.6,33.4c-0.3,1.7-1.8,3-3.5,3.3l-33.2,4.1
			c-2.8,0.3-5.1-2.1-4.5-4.9l9.9-50.2C136.3,109.2,139,107.7,141.4,108.7z"/>
		<g>
			<path class="st115" d="M149.1,142.9c0.4-5.2,3.5-10.6,6.9-12.1c3.4-1.5,5.8,1.4,5.4,6.6c-0.4,5-3.3,10.3-6.6,12l0.1-0.2l-0.1,0
				c0,0,0,0,0,0c0-0.1,0-0.1,0-0.2c0-0.1,0-0.1,0-0.2c0-0.1,0-0.1,0-0.2c0-0.1,0-0.1,0-0.2c0-0.1,0-0.1,0-0.2c0-0.1,0-0.2,0-0.2
				c0-0.1,0-0.1,0-0.2c0-0.1,0-0.2,0-0.3c0-0.1,0-0.1,0-0.2c0-0.1,0-0.2,0-0.3c0-0.1,0-0.1,0-0.2c0-0.1,0-0.3,0-0.4
				c0-0.1,0-0.1,0-0.2c0-0.2,0-0.4,0-0.7c0.2-3.1,1.1-5.9,1.1-5.9s0.6-0.2,0.9,0.7c0.3,0.9,0,2,0,2s0.5-0.8,0.6-1.4
				c0.2-0.6,0.3-1.3,0.3-2c0-1.2-0.7-1.2-0.7-1.2s1.1-1,1.6-0.5c0.5,0.6,0.4,2.7,0.4,2.7s0.8-2.8,0.2-4.1c-0.5-1.3-2.3,0.1-2.3,0.1
				s0.1-0.4,1.2-1.4c1.1-1,1.6-0.8,1.6-0.8s-0.2-0.6-1.2-0.5c-1,0.1-1.8,1.5-1.8,1.5s-0.1-0.7-1.1-0.6c-1,0.1-1.8,2.1-1.8,2.1
				s0.6-0.9,1.3-0.9c0.7,0,0.7,0.7,0.7,0.7s-1.5,0.6-2.6,2.2c-1,1.6-1.2,4-1.2,4s0.6-1.8,1.6-3.1c1-1.3,1.4-0.9,1.4-0.9
				s-0.9,0.9-1.4,2.4c-0.5,1.5-0.1,3.6-0.1,3.6s0.1-1.7,0.6-3c0.5-1.3,1.1-1.8,1.1-1.8s-1.1,3.5-1.3,7.1c0,0.6,0,1.1,0,1.6
				c0,0.2,0,0.3,0,0.5c0,0.3,0,0.5,0.1,0.7l-0.1,0.1l0.2,0.2C150.8,150.7,148.7,147.8,149.1,142.9z"/>
			<path class="st115" d="M153.8,149.5c0,0.1,0,0.1,0,0.2c0,0,1-0.4,1-0.4c0,0,0-0.1,0-0.1l0.1,0l-0.1,0.2c-0.4,0.2-1,0.4-1,0.4
				l-0.2-0.2L153.8,149.5z"/>
			<path class="st116" d="M153.8,149.7c0-0.1,0-0.1,0-0.2c0-0.2,0-0.5-0.1-0.7c0-0.2,0-0.3,0-0.5c0-0.5,0-1.1,0-1.6
				c0.2-3.6,1.3-7.1,1.3-7.1s-0.5,0.5-1.1,1.8c-0.5,1.3-0.6,3-0.6,3s-0.3-2.2,0.1-3.6c0.5-1.5,1.4-2.4,1.4-2.4s-0.4-0.4-1.4,0.9
				c-1,1.3-1.6,3.1-1.6,3.1s0.2-2.3,1.2-4c1.1-1.7,2.6-2.2,2.6-2.2s0-0.7-0.7-0.7c-0.7,0-1.3,0.9-1.3,0.9s0.8-2,1.8-2.1
				c1-0.1,1.1,0.6,1.1,0.6s0.8-1.4,1.8-1.5c1-0.1,1.2,0.5,1.2,0.5s-0.5-0.2-1.6,0.8c-1.1,0.9-1.2,1.4-1.2,1.4s1.7-1.4,2.3-0.1
				c0.6,1.3-0.2,4.1-0.2,4.1s0.1-2.1-0.4-2.7c-0.5-0.6-1.6,0.5-1.6,0.5s0.6,0,0.7,1.2c0,0.7-0.1,1.4-0.3,2c-0.2,0.6-0.6,1.4-0.6,1.4
				s0.4-1.1,0-2c-0.3-0.9-0.9-0.7-0.9-0.7s-0.9,2.8-1.1,5.9c0,0.2,0,0.5,0,0.7c0,0.1,0,0.1,0,0.2c0,0.1,0,0.3,0,0.4
				c0,0.1,0,0.1,0,0.2c0,0.1,0,0.2,0,0.3c0,0.1,0,0.1,0,0.2c0,0.1,0,0.2,0,0.3c0,0.1,0,0.1,0,0.2c0,0.1,0,0.2,0,0.2
				c0,0.1,0,0.1,0,0.2c0,0.1,0,0.1,0,0.2c0,0.1,0,0.1,0,0.2c0,0.1,0,0.1,0,0.2c0,0.1,0,0.1,0,0.2c0,0,0,0,0,0c0,0,0,0.1,0,0.1
				C154.8,149.3,153.8,149.7,153.8,149.7z"/>
		</g>
		<polygon class="st117" points="103.9,155.5 109.4,157.7 111.7,158 105.6,155.7 		"/>
		<polygon class="st117" points="109.7,155.5 115.3,157.6 116.7,157.6 110.7,155.4 		"/>
		<path class="st117" d="M109,158.1c0.1,0,5.7,2.5,5.7,2.5l1.6-0.1l-6.2-2.6L109,158.1z"/>
		<polygon class="st117" points="116.7,157.6 121.9,160.2 122.8,160.1 117.6,157.6 		"/>
		<polygon class="st117" points="120.8,157.5 125.8,159.8 126.3,159.8 121.6,157.5 		"/>
		<polygon class="st117" points="125.5,157.5 127.1,158.7 128.1,158.9 125.9,157.5 		"/>
		<polygon class="st117" points="119.6,160.8 124,162.8 124.9,162.8 120.4,160.6 		"/>
		<polygon class="st117" points="124.2,160.5 127.3,162 128.1,161.9 124.8,160.3 		"/>
		<polygon class="st117" points="122.9,163.6 127.7,165.5 128.7,165.3 123.7,163.4 		"/>
		<path class="st118" d="M89.6,154.2c0.2,0,38.3,12.9,35,13.1c-1.7,0.1-9.9-1.2-34.5-12C90.1,155.3,88.1,153.9,89.6,154.2z"/>
		<path class="st227" d="M199.9,176.9c0,0-4.9,6.2-15.1,5.6s-13-4.1-10.9-5.9c2.1-1.8,14-1.1,10.9,2.1c-3.1,3.2-10.6,7.1-16.5,4.5
			c-6-2.6-10.3-5.6-16.3-1.2c-6.1,4.4-6.1-3.1-11.3,1.1c-5.1,4.1-11.9,4.8-15.8,3.5c-4.1-1.5-21.1-16-3.2-20"/>
		<path class="st119" d="M119.2,165.2l-3.6-1.2c0,0-0.5,1-0.5,0.9s3.5,1.1,3.5,1.1L119.2,165.2z"/>
		<polygon class="st117" points="116.5,164.3 115.7,164 115.3,164.8 116,165 		"/>
		<path class="st119" d="M114.9,163.7l-3.6-1.2c0,0-0.5,1-0.5,0.9c0.1,0,3.5,1.1,3.5,1.1L114.9,163.7z"/>
		<polygon class="st117" points="112.1,162.8 111.4,162.6 111,163.4 111.7,163.5 		"/>
		
			<ellipse transform="matrix(0.1198 -0.9928 0.9928 0.1198 -64.7732 251.5629)" class="st119" cx="109.5" cy="162.3" rx="0.6" ry="0.5"/>
		<path class="st117" d="M109.5,162.9c-0.2,0-0.2-0.3-0.2-0.6c0-0.3,0.1-0.5,0.3-0.5c0,0-0.5,0-0.5,0.5S109.5,162.9,109.5,162.9z"/>
	</g>
	<path class="st4" d="M113.9,166.3c1.9,2.5,4.5,10.1-5.1,8.4c-8.5-1.5-15.3-5.6-18.1-8.7c-3.4-3.6,0.6-14.5,4.7-12.2
		c4.1,2.3,7,3.9,9.8,6.1C108.5,162.7,112.4,164.3,113.9,166.3z"/>
	<path class="st4" d="M148.3,158.7c3-2.1,6.3-3.6,10.8-5.8c4.5-2.2,8.5,8.6,4.7,12.1c-3.2,2.9-10.7,6.9-20,8.2
		c-10.4,1.4-7.3-6-5.2-8.4C140.2,162.8,144.5,161.3,148.3,158.7z"/>
	<g>
		<path class="st228" d="M184.8,105c0,0-3.5-3.9-4.3,1.6c-0.7,5.5,2.4,7.9,3.8,6.3C184.4,112.9,185.2,107.2,184.8,105z"/>
		<path class="st3" d="M176.8,108.2c0.2-0.9,1.1-1.7,2.8-2.6c5-2.6,5.4,2.4,3.3,4.1c-0.5,0.4-1.2,0.6-1.2,0.6S176.2,111,176.8,108.2
			z"/>
		<path class="st79" d="M183.9,100.4c-0.2,2.4-1,12.7-1.5,16.1c0,0.3,0.1,0.5,0.3,0.6c1.4,0.8,6.4,3.3,12.1,1.2
			c0.2-0.1,0.4-0.3,0.4-0.5c0.3-1.9,1.6-10.6,2.9-14.9c0.1-0.2,0-0.4-0.1-0.6c-0.8-1-4.3-4.2-13.6-2.5
			C184.2,99.9,184,100.1,183.9,100.4z"/>
		<g>
			<path class="st58" d="M187.7,105.9c-0.3,0.3-0.4,0.6-0.5,1.1l-0.2,1.7c0,0.2-0.1,0.4-0.1,0.6c0,0.2-0.1,0.3-0.2,0.5
				c-0.1,0.1-0.1,0.2-0.3,0.3c-0.1,0.1-0.2,0.1-0.3,0.1l-0.2,0l-0.1,1l0.2,0c0.1,0,0.2,0.1,0.3,0.1c0.1,0.1,0.1,0.2,0.2,0.3
				c0,0.2,0.1,0.4,0,0.5c0,0.2,0,0.4-0.1,0.6l-0.2,1.7c-0.1,0.5,0,0.9,0.2,1.2l0,0c0.2,0.3,0.5,0.6,0.9,0.6l0.8,0.1l0.1-1l-0.5-0.1
				c-0.1,0-0.1,0-0.2-0.1c-0.1-0.1-0.1-0.1-0.1-0.2c0-0.1,0-0.2-0.1-0.3c0-0.1,0-0.3,0-0.4l0.2-1.6c0-0.3,0-0.6,0-0.9
				c0-0.2-0.1-0.4-0.2-0.6c-0.1-0.1-0.2-0.3-0.3-0.4c0.1-0.1,0.3-0.2,0.4-0.3c0.1-0.2,0.3-0.4,0.4-0.6c0.1-0.3,0.2-0.6,0.2-0.8
				l0.2-1.6c0-0.1,0-0.3,0.1-0.4c0-0.1,0.1-0.2,0.1-0.3c0-0.1,0.1-0.1,0.2-0.2c0.1,0,0.1,0,0.2,0l0.5,0.1l0.1-1l-0.8-0.1
				C188.3,105.6,187.9,105.7,187.7,105.9z"/>
			<path class="st58" d="M193.7,111.3c-0.1,0-0.2-0.1-0.3-0.1c-0.1-0.1-0.1-0.2-0.2-0.3c0-0.2-0.1-0.4,0-0.5c0-0.2,0-0.4,0.1-0.6
				l0.2-1.7c0.1-0.5,0-0.9-0.2-1.2l0,0c-0.2-0.3-0.5-0.6-0.9-0.6l-0.8-0.1l-0.1,1l0.5,0.1c0.1,0,0.1,0,0.2,0.1
				c0.1,0.1,0.1,0.1,0.1,0.2c0,0.1,0,0.2,0.1,0.3c0,0.1,0,0.3,0,0.4l-0.2,1.6c0,0.3,0,0.6,0,0.9c0,0.2,0.1,0.4,0.2,0.6
				c0.1,0.1,0.2,0.3,0.3,0.4c-0.1,0.1-0.3,0.2-0.4,0.3c-0.1,0.2-0.3,0.4-0.4,0.6c-0.1,0.3-0.2,0.6-0.2,0.8l-0.2,1.6
				c0,0.1,0,0.3-0.1,0.4c0,0.1-0.1,0.2-0.1,0.3c0,0.1-0.1,0.1-0.2,0.2c-0.1,0-0.1,0-0.2,0l-0.5-0.1l-0.1,1l0.8,0.1
				c0.4,0.1,0.8-0.1,1-0.3c0.3-0.3,0.4-0.6,0.5-1.1l0.2-1.7c0-0.2,0.1-0.4,0.1-0.6c0-0.2,0.1-0.3,0.2-0.5c0.1-0.1,0.1-0.2,0.3-0.3
				c0.1-0.1,0.2-0.1,0.3-0.1l0.2,0l0.1-1L193.7,111.3z"/>
		</g>
		<path class="st77" d="M185.4,100.3c1.9-0.3,8.2-0.4,11.5,1.7c0.5,0.3,0.4,1-0.1,1.2c-2,0.9-7.7,2-11.7-2.1
			C184.9,100.9,185,100.4,185.4,100.3z"/>
		<path class="st229" d="M187.3,102.8c0,0,11.9-2.6,9.7,0.4C197.1,103.4,191.9,105.3,187.3,102.8z"/>
		<path class="st230" d="M191.5,102.5c0,0,4.2-0.7,5.3-0.1c0,0,0.6,0.5-0.6,0.1S191.5,102.5,191.5,102.5z"/>
		<path class="st229" d="M198.9,101.7c0,0,5.4-1.4,5.1,2.3c-0.1,1.7-1.1,1-1.6,0.3C201.7,103.3,201.2,101.5,198.9,101.7z"/>
		<path class="st229" d="M199.8,99.6c0,0,1.6-2.1,3-1.4s-0.7,1-1.5,0.8C200.5,98.9,199.8,99.6,199.8,99.6z"/>
		<path class="st230" d="M203.3,102.5c0,0,1,1.2,0.2,2.2c0,0-0.3-0.2-0.1-0.9S203.3,102.5,203.3,102.5z"/>
		<path class="st230" d="M202,98.4c0,0,0.8-0.1,1,0.3C203.2,99.1,202.5,98.4,202,98.4z"/>
	</g>
	<g>
		<polygon class="st79" points="46.7,165.9 25.3,174.9 47.4,181.8 62.5,169.5 		"/>
		<path class="st77" d="M46.9,184.9l15.2-12.3c0,0,0.5-2.1,0.4-3.1l-15.1,12.3C47.4,181.8,47.5,183.4,46.9,184.9z"/>
		<path class="st231" d="M25.3,174.9c0,0,0.6,1.3,0.2,3.2l21.4,6.8c0,0,0.8-1.2,0.4-3.2L25.3,174.9z"/>
		<path class="st232" d="M28,179c-0.4,1.2-1,2.1-1.6,2c-0.8-0.1-1.2-1.7-0.9-3.6c0.2-1.9,1.1-3.3,1.8-3.2c0.4,0,0.7,0.5,0.8,1.1"/>
		<path class="st232" d="M30.3,179.7c-0.4,1.2-1,2.1-1.6,2c-0.8-0.1-1.2-1.7-0.9-3.6c0.2-1.9,1.1-3.3,1.8-3.2c0.4,0,0.7,0.5,0.8,1.1
			"/>
		<path class="st232" d="M32.3,180.3c-0.4,1.2-1,2.1-1.6,2c-0.8-0.1-1.2-1.7-0.9-3.6c0.2-1.9,1.1-3.3,1.8-3.2c0.4,0,0.7,0.5,0.8,1.1
			"/>
		<path class="st232" d="M34.5,181c-0.4,1.2-1,2.1-1.6,2c-0.8-0.1-1.2-1.7-0.9-3.6c0.2-1.9,1.1-3.3,1.8-3.2c0.4,0,0.7,0.5,0.8,1.1"
			/>
		<path class="st232" d="M36.6,181.6c-0.4,1.2-1,2.1-1.6,2c-0.8-0.1-1.2-1.7-0.9-3.6c0.2-1.9,1.1-3.3,1.8-3.2c0.4,0,0.7,0.5,0.8,1.1
			"/>
		<path class="st232" d="M38.9,182.4c-0.4,1.2-1,2.1-1.6,2c-0.8-0.1-1.2-1.7-0.9-3.6c0.2-1.9,1.1-3.3,1.8-3.2c0.4,0,0.7,0.5,0.8,1.1
			"/>
		<path class="st232" d="M40.9,183c-0.4,1.2-1,2.1-1.6,2c-0.8-0.1-1.2-1.7-0.9-3.6c0.2-1.9,1.1-3.3,1.8-3.2c0.4,0,0.7,0.5,0.8,1.1"
			/>
		<path class="st232" d="M43.1,183.7c-0.4,1.2-1,2.1-1.6,2c-0.8-0.1-1.2-1.7-0.9-3.6c0.2-1.9,1.1-3.3,1.8-3.2c0.4,0,0.7,0.5,0.8,1.1
			"/>
		<path class="st232" d="M45.3,184.5c-0.4,1.2-1,2.1-1.6,2c-0.8-0.1-1.2-1.7-0.9-3.6c0.2-1.9,1.1-3.3,1.8-3.2c0.4,0,0.7,0.5,0.8,1.1
			"/>
		<polygon class="st4" points="47.6,177.8 37.5,174.6 38.6,174.1 48.5,176.9 		"/>
		<polygon class="st4" points="37.1,173.9 36.2,174.2 32.7,173.3 33.6,172.8 		"/>
		<polygon class="st4" points="36.1,172.8 49.1,176.5 50.2,175.6 37.8,172.2 		"/>
		<polygon class="st4" points="51,174.8 51.9,174 45.1,172.1 44.6,172.7 		"/>
		<polygon class="st4" points="53.2,173.4 53.9,172.9 45,170.4 44.4,170.7 		"/>
		<polygon class="st4" points="55.2,172 55.8,171.5 46,169 45.4,169.4 		"/>
		<polygon class="st4" points="57,170.8 57.6,170.3 52.8,169 52.5,169.4 		"/>
	</g>
	<g>
		<path class="st79" d="M67,174.5l1.4-2.3l0,2.5C68.5,174.7,67.9,173.9,67,174.5z"/>
		<path class="st4" d="M68.4,173.1l0-0.9l-0.5,0.8C67.9,173.1,68.3,172.6,68.4,173.1z"/>
		<path class="st4" d="M67,174.5l-5.2,14.1c1.9-1.5,3.5-1.5,4.7,0.6l1.9-14.5C68.1,174.2,67.6,174.2,67,174.5z"/>
		<path class="st79" d="M61.9,188.6c0,0-0.5,1.7,1.1,2.1c1.6,0.4,3.4,0.3,3.6-1.5C66.8,187.5,63.2,185.5,61.9,188.6z"/>
		<path class="st79" d="M66.1,188l0.7-5.2c0,0-1.1-0.5-0.7,1.5c0,0,0.2-1.2,0.6-1.2l-1.1,4.6L66.1,188z"/>
		<g>
			<path class="st116" d="M67.4,182.7c0-0.4-0.2-0.7-0.5-1c-0.3-0.2-0.6-0.4-1-0.5c-0.4-0.1-0.7,0-1,0.2c-0.3,0.2-0.5,0.5-0.7,0.8
				c0.1-0.4,0.3-0.7,0.7-1c0.3-0.2,0.8-0.3,1.2-0.3c0.4,0.1,0.8,0.3,1,0.6C67.3,181.9,67.5,182.4,67.4,182.7z"/>
		</g>
	</g>
	<g>
		<g>
			<path class="st9" d="M56.6,141c-0.1,0-0.2,0-0.2,0c-2.2,0.1-4.1-1.6-4.2-3.8c-0.2-3.8,1.2-7.6,3.7-10.1c0.8-0.8,1.3-1.5,2-2.3
				c0.8-1,1.7-2.2,3.4-3.8c1.5-1.6,4-1.6,5.6-0.1c1.6,1.5,1.6,4,0.1,5.6c-1.3,1.4-2.1,2.3-2.8,3.2c-0.7,0.9-1.5,1.8-2.6,3
				c-0.9,0.9-1.5,2.5-1.4,4C60.2,139,58.7,140.8,56.6,141z"/>
			<path class="st9" d="M56.6,141c-0.6,0.1-1.2,0-1.7-0.2c-0.6-0.2-1.1-0.5-1.5-0.9c-0.4-0.4-0.8-0.9-1-1.5
				c-0.2-0.6-0.2-1.2-0.2-1.8c0-1.2,0.1-2.4,0.4-3.5c0.3-1.2,0.7-2.3,1.3-3.3c0.6-1,1.3-2,2.1-2.8c0.8-0.8,1.5-1.8,2.2-2.7
				c0.7-0.9,1.5-1.8,2.3-2.7c0.2-0.2,0.4-0.4,0.6-0.6c0.2-0.2,0.5-0.4,0.7-0.6c0.5-0.3,1.1-0.5,1.7-0.6c1.2-0.1,2.5,0.3,3.4,1.2
				c0.9,0.9,1.3,2.2,1.2,3.4c-0.1,0.6-0.3,1.2-0.6,1.7c-0.1,0.1-0.2,0.2-0.3,0.4c-0.1,0.1-0.2,0.2-0.3,0.3l-0.6,0.6
				c-0.8,0.8-1.6,1.7-2.3,2.7c-0.7,0.9-1.5,1.8-2.4,2.7c-0.9,0.8-1.4,1.9-1.5,3.1c0,0.3-0.1,0.6-0.1,0.9c0,0.3,0,0.6,0,0.9
				c-0.1,0.6-0.3,1.2-0.6,1.7C58.9,140.2,57.8,140.9,56.6,141z M56.6,141c1.2-0.1,2.3-0.8,2.9-1.8c0.3-0.5,0.5-1.1,0.6-1.6
				c0-0.3,0-0.6,0-0.9c0-0.3,0-0.6,0-0.9c0.1-1.2,0.6-2.3,1.5-3.2c0.8-0.8,1.6-1.8,2.3-2.7c0.7-0.9,1.5-1.9,2.3-2.7l0.6-0.6
				c0.1-0.1,0.2-0.2,0.3-0.3c0.1-0.1,0.2-0.2,0.2-0.4c0.3-0.5,0.5-1,0.5-1.6c0.1-1.1-0.3-2.3-1.1-3.1c-0.8-0.8-2-1.2-3.1-1.1
				c-0.6,0.1-1.1,0.2-1.6,0.5c-0.2,0.1-0.5,0.3-0.7,0.5c-0.2,0.2-0.4,0.4-0.6,0.6c-0.8,0.8-1.6,1.7-2.3,2.7
				c-0.7,0.9-1.5,1.9-2.3,2.7c-0.9,0.8-1.6,1.7-2.2,2.8c-1.2,2-1.8,4.4-1.8,6.7c0,0.6,0,1.2,0.2,1.7c0.2,0.6,0.5,1.1,0.9,1.5
				c0.4,0.4,0.9,0.7,1.5,0.9C55.4,141,56,141.1,56.6,141z"/>
		</g>
		<path class="st86" d="M56.6,141c-0.1,0-0.2,0-0.2,0c-2.2,0.1-4.1-1.6-4.2-3.8c-0.2-3.8,1.2-7.6,3.7-10.2c0.8-0.8,1.3-1.5,2-2.3
			c0.8-1,2.4-3.8,4-5.5c1.5-1.6,3.7-1.5,5.3,0.1c1.6,1.5,1.9,5.1,0.4,6.6c-1.3,1.4-2.6,2.8-3.4,3.7c-0.7,0.9-1.5,1.9-2.6,3
			c-0.9,0.9-1.5,2.5-1.4,4.1C60.3,139,58.7,140.8,56.6,141z"/>
		<path class="st9" d="M59.1,132.8c1.5-0.6,2.9-1.1,4.3-1.9c1.3-0.8,2.7-1.6,4.1-2.2c1.4-0.6,2.9-1.2,4.4-1.7c1.5-0.5,3-0.9,4.5-1.3
			c1.5-0.3,3.1-0.6,4.7-0.7c0.8-0.1,1.6-0.1,2.4-0.1c0.4,0,0.8,0,1.2,0c0.4,0,0.8,0.1,1.2,0.2c1.6,0.5,2.7,2,2.9,3.7
			c0.1,0.4,0,0.8,0,1.2c-0.1,0.4-0.2,0.8-0.4,1.2c-0.4,0.7-0.9,1.4-1.6,1.8c-0.3,0.2-0.7,0.4-1.1,0.5c-0.2,0.1-0.4,0.1-0.6,0.1
			c-0.2,0-0.4,0-0.6,0c-0.8,0-1.6-0.1-2.3,0c-1.6,0.1-3.1,0.3-4.6,0.7c-1.5,0.3-3,0.8-4.5,1.3c-1.5,0.5-2.9,1.1-4.3,1.9
			c-1.4,0.8-2.7,1.6-4.1,2.2c-1.4,0.7-2.9,1.2-4.4,1.7c-0.8,0.2-1.5,0.4-2.3,0.5c-0.8,0.1-1.6,0.1-2.3-0.2c-0.7-0.3-1.4-0.7-1.9-1.4
			c-0.5-0.6-0.8-1.4-0.9-2.1c0.1,0.8,0.4,1.5,0.9,2.1c0.5,0.6,1.2,1.1,1.9,1.3c0.7,0.3,1.5,0.2,2.3,0.1c0.8-0.1,1.5-0.3,2.3-0.6
			c1.5-0.5,2.9-1.1,4.4-1.7c1.4-0.7,2.7-1.5,4.1-2.3c0.7-0.4,1.4-0.8,2.1-1.1c0.7-0.3,1.5-0.6,2.2-0.9c1.5-0.5,3-1,4.5-1.4
			c1.5-0.4,3.1-0.6,4.7-0.7c0.8,0,1.6,0,2.4,0c0.2,0,0.4,0,0.6,0c0.2,0,0.4-0.1,0.5-0.1c0.4-0.1,0.7-0.3,1-0.5
			c0.6-0.4,1.2-1,1.5-1.6c0.2-0.3,0.3-0.7,0.3-1.1c0.1-0.4,0.1-0.7,0-1.1c-0.1-1.5-1.2-2.9-2.6-3.4c-0.4-0.1-0.7-0.2-1.1-0.2
			c-0.4,0-0.8,0-1.2,0c-0.8,0-1.6,0-2.3,0.1c-1.6,0.1-3.1,0.4-4.6,0.7c-1.5,0.3-3,0.8-4.5,1.2c-1.5,0.5-3,1-4.4,1.6
			c-1.4,0.6-2.8,1.4-4.2,2.1C62,131.7,60.5,132.2,59.1,132.8z"/>
		<path class="st86" d="M57.2,141.7c-2.2,0.2-4.1-1.3-4.4-3.5c-0.3-2.2,1.3-4.2,3.5-4.5c0.9-0.1,1.9-0.5,2.8-0.8
			c1.9-0.7,3-1.4,4.3-2.1c1.4-0.8,3-1.7,5.5-2.7c5.9-2.3,10.9-3.2,15.6-2.9c2.2,0.1,3.9,2,3.7,4.2c-0.1,2.2-2,3.9-4.2,3.7
			c-3.5-0.2-7.4,0.5-12.3,2.4c-1.9,0.7-3,1.4-4.3,2.1c-1.4,0.8-3,1.7-5.5,2.7C60.5,141,59,141.5,57.2,141.7
			C57.3,141.7,57.3,141.7,57.2,141.7z"/>
		<path class="st9" d="M79,131.9c0.6-0.1,1.3,0.1,1.9,0.3c0.6,0.2,1.2,0.5,1.7,0.8c1.1,0.6,2.3,1.2,3.5,1.5c1.2,0.4,2.5,0.4,3.7,0.4
			c0.6,0,1.3,0,1.9-0.1c0.3,0,0.6,0,1,0c0.1,0,0.2,0,0.3,0.1c0.1,0,0.2,0.1,0.2,0.2c0.1,0.1,0.2,0.2,0.3,0.4c0,0,0,0.1,0.1,0.1
			l0,0.1c0,0.1,0.1,0.1,0.1,0.2c0.1,0.1,0.1,0.3,0.2,0.4c0.2,0.2,0.4,0.4,0.7,0.5c0.3,0.1,0.6,0.2,0.9,0.2c0.1,0,0.3,0,0.4,0l0.2,0
			l0.2-0.1c0.5-0.2,1-0.7,1.1-1.3c0.1-0.3,0.1-0.6,0.1-0.9c0-0.3-0.2-0.6-0.3-0.9c-0.3-0.6-0.6-1.1-1-1.5c-0.4-0.5-0.9-0.9-1.4-1.1
			c-0.6-0.3-1.2-0.4-1.8-0.4c-0.6-0.1-1.3-0.1-1.9,0l0,0l0,0c-0.3-0.1-0.7-0.2-1-0.3c-0.2-0.1-0.3-0.1-0.5-0.2
			c-0.1,0-0.2-0.1-0.2-0.2c0,0-0.1-0.1-0.1-0.1c0,0,0-0.1-0.1-0.1c0,0,0-0.1,0-0.1c0-0.2,0-0.4,0-0.6c0-0.2,0.1-0.3,0.1-0.5
			c0.1-0.3,0.2-0.7,0.2-1c0.1-0.3,0.2-0.7,0.4-1c0.2-0.3,0.4-0.6,0.7-0.8c0.5-0.5,1.2-0.8,1.8-1.1c0.3-0.1,0.6-0.3,1-0.4
			c0.3-0.1,0.7-0.2,1.1-0.2c0.1,0,0.2,0,0.3,0.1c0.1,0,0.2,0.1,0.3,0.2c0.1,0.1,0.1,0.2,0.2,0.3c0,0.1,0,0.2,0,0.3
			c0,0.4-0.2,0.8-0.4,1.1c-0.2,0.3-0.3,0.5-0.4,0.9c-0.1,0.3-0.1,0.6,0,0.9c0.2,0.6,0.6,1.1,1.2,1.4c0.6,0.2,1.3,0.2,1.8-0.1
			c0.3-0.2,0.5-0.4,0.7-0.7c0.2-0.3,0.4-0.6,0.5-0.9c0.6-1.2,0.8-2.6,0.4-3.9c-0.3-1.3-1.2-2.4-2.4-3c-0.6-0.3-1.2-0.5-1.9-0.6
			c-0.7-0.1-1.3,0-2,0.2l-0.1,0l0-0.1c-0.3-0.7-0.9-1.2-1.7-1.4c-0.8-0.2-1.5-0.4-2.3-0.4c-1.6,0-3.2,0.4-4.5,1.2
			c-1.4,0.8-2.5,2.1-3.3,3.5c-0.8,1.4-1.3,2.9-1.7,4.5l0,0l0,0l-0.8,0.1l0.8-0.1l0,0c0.3-1.6,0.8-3.1,1.6-4.6
			c0.8-1.4,1.9-2.7,3.2-3.6c1.4-0.9,3-1.3,4.6-1.3c0.8,0,1.6,0.1,2.4,0.4c0.8,0.2,1.5,0.8,1.9,1.6l-0.2-0.1c0.7-0.2,1.4-0.3,2.1-0.2
			c0.7,0,1.4,0.2,2,0.6c1.3,0.7,2.2,1.9,2.6,3.2c0.4,1.4,0.2,2.9-0.4,4.1c-0.2,0.3-0.3,0.6-0.5,0.9c-0.2,0.3-0.5,0.6-0.8,0.8
			c-0.6,0.4-1.5,0.5-2.1,0.2c-0.7-0.3-1.2-0.9-1.4-1.6c-0.1-0.4-0.1-0.7,0-1.1c0.1-0.4,0.3-0.7,0.5-1c0.2-0.3,0.3-0.6,0.3-0.8
			c0-0.1,0-0.1,0-0.2c0-0.1,0-0.1-0.1-0.1c0,0-0.1-0.1-0.1-0.1c0,0-0.1,0-0.2,0c-0.3,0-0.6,0.1-0.9,0.2c-0.3,0.1-0.6,0.2-0.9,0.4
			c-0.6,0.3-1.2,0.6-1.7,1c-0.2,0.2-0.5,0.5-0.6,0.7c-0.2,0.3-0.3,0.6-0.4,0.9c-0.1,0.3-0.2,0.7-0.2,1c0,0.2-0.1,0.3-0.1,0.5
			c0,0.2,0,0.3,0,0.5c0,0,0.1,0.1,0.3,0.2c0.1,0.1,0.3,0.1,0.4,0.2c0.3,0.1,0.6,0.2,1,0.3l-0.1,0c0.6,0,1.3,0,1.9,0.1
			c0.6,0.1,1.3,0.2,1.9,0.5c0.6,0.3,1.1,0.7,1.5,1.2c0.4,0.5,0.8,1,1.1,1.6c0.1,0.3,0.2,0.6,0.3,1c0,0.3,0,0.7-0.1,1
			c-0.2,0.6-0.7,1.2-1.3,1.5c-0.1,0-0.2,0.1-0.2,0.1l-0.2,0.1c-0.2,0-0.3,0.1-0.5,0c-0.3,0-0.7-0.1-1-0.2c-0.3-0.1-0.6-0.4-0.8-0.6
			c-0.1-0.1-0.2-0.3-0.3-0.4c0-0.1-0.1-0.2-0.1-0.2l0-0.1c0,0,0-0.1,0-0.1c-0.1-0.1-0.2-0.2-0.3-0.4c-0.1-0.1-0.2-0.1-0.3-0.2
			c-0.3,0-0.6,0-0.9,0c-0.6,0-1.3,0-1.9,0c-1.3,0-2.6,0-3.8-0.4c-1.2-0.4-2.4-1-3.5-1.6c-0.6-0.3-1.1-0.6-1.7-0.8
			C80.3,132,79.7,131.9,79,131.9z"/>
		<path class="st86" d="M95.8,137.2c-1,0.1-2-0.5-2.3-1.5c0-0.1-0.1-0.2-0.1-0.2c-0.4-0.5-0.3-0.4-1.4-0.5c-0.4,0-0.9,0-1.4,0
			c-1.1,0-2.3,0.1-3.5-0.1c-1.6-0.3-3-1-4.2-1.7c-1.4-0.7-2.7-1.4-3.8-1.2c-1.2,0.2-2.3-0.7-2.5-1.9c-0.2-1.2,0.7-2.3,1.9-2.5
			c2.5-0.4,4.6,0.7,6.5,1.7c1.1,0.5,2.1,1.1,3,1.2c0.7,0.1,1.6,0.1,2.5,0.1c0.5,0,1.1,0,1.6,0c2.5,0,3.6,0.6,4.8,2.1
			c0.4,0.5,0.7,1.1,0.9,1.7c0.4,1.2-0.3,2.4-1.5,2.8C96.1,137.1,95.9,137.2,95.8,137.2z"/>
		<path class="st86" d="M90.8,134.9c-0.3,0-0.6,0-0.8-0.1c-1.2-0.3-3.7-1-4.7-3.3c-0.6-1.5-0.3-3.1-0.1-4c0.2-0.7,0.4-1.6,0.8-2.4
			c1-2.1,3-3.6,5.9-4.6c0.9-0.3,2.2-0.6,3.5-0.4c1.6,0.3,3,1.5,3.6,3c0.7,1.8,0.4,3.9-0.8,5.6c-0.7,1-2.1,1.2-3.1,0.5
			c-1-0.7-1.2-2.1-0.5-3.1c0.5-0.7,0.4-1.2,0.3-1.4c-0.1-0.2-0.2-0.3-0.4-0.3c-0.4-0.1-1,0.2-1.3,0.2c-1.2,0.4-2.8,1.1-3.4,2.3
			c-0.2,0.4-0.3,1-0.5,1.5c-0.1,0.3-0.3,1.1-0.2,1.3c0,0.1,0.3,0.4,1.8,0.8c1.2,0.3,1.9,1.5,1.5,2.7
			C92.4,134.2,91.7,134.8,90.8,134.9z"/>
		<path class="st9" d="M84.8,133c-0.7,0-1.5-0.3-1.9-0.9c-0.1-0.2-0.2-0.3-0.3-0.5c-0.1-0.2-0.1-0.3-0.2-0.5
			c-0.1-0.4-0.2-0.7-0.2-1.1c-0.1-1.5,0.3-3,0.7-4.4c0.2-0.7,0.5-1.4,0.9-2.1c0.4-0.6,0.9-1.2,1.5-1.7c0.6-0.5,1.2-0.9,1.8-1.3
			c0.3-0.2,0.7-0.4,1-0.5c0.3-0.2,0.7-0.3,1.1-0.3c0.8,0,1.6,0.4,2.1,1c0.5,0.7,0.6,1.5,0.2,2.3c-0.2,0.4-0.4,0.7-0.7,0.9
			c-0.3,0.2-0.7,0.4-1,0.5c-0.6,0.3-1.3,0.7-1.8,1.2c-0.5,0.5-0.7,1.3-0.9,1.9c-0.1,0.3-0.2,0.7-0.3,1.1c-0.1,0.4-0.2,0.7-0.1,1.1
			c0,0.2,0.1,0.3,0.2,0.5c0,0.2,0.1,0.4,0.1,0.6c0,0.4-0.1,0.7-0.3,1.1C86.2,132.6,85.5,133,84.8,133z M84.8,133
			c0.7,0,1.4-0.5,1.8-1.1c0.2-0.3,0.3-0.7,0.3-1c0-0.2,0-0.4-0.1-0.5c0-0.2-0.1-0.3-0.2-0.5c-0.1-0.4,0-0.7,0.1-1.1
			c0.1-0.4,0.2-0.7,0.3-1.1c0.1-0.4,0.2-0.7,0.3-1.1c0.1-0.3,0.3-0.7,0.6-1c0.5-0.6,1.2-0.9,1.8-1.3c0.3-0.2,0.7-0.3,0.9-0.5
			c0.3-0.2,0.5-0.5,0.6-0.8c0.3-0.6,0.2-1.4-0.2-1.9c-0.4-0.6-1.1-0.9-1.7-0.8c-0.3,0-0.6,0.1-1,0.3c-0.3,0.2-0.7,0.3-1,0.5
			c-0.6,0.4-1.3,0.7-1.8,1.2c-0.6,0.5-1.1,1-1.5,1.6c-0.4,0.6-0.7,1.3-0.9,2c-0.5,1.4-0.9,2.8-0.8,4.3c0,0.4,0.1,0.7,0.2,1.1
			c0,0.2,0.1,0.4,0.2,0.5c0.1,0.2,0.1,0.3,0.3,0.5C83.3,132.7,84,133.1,84.8,133z"/>
		<path class="st86" d="M85.2,133.1c-0.9,0.1-2.2-0.3-2.6-1.1c-1-2-0.1-4.3,0.2-5.6c0.2-0.8,0.4-1.7,0.9-2.6c1-1.9,2.9-3,4.2-3.7
			c1-0.6,2.4-0.3,3,0.8c0.6,1,0.3,2.4-0.8,3c-1,0.6-2.1,1.3-2.6,2.1c-0.2,0.4-0.4,1-0.5,1.6c-0.2,0.7-0.5,1.9-0.2,2.4
			c0.5,1.1,0.1,2.4-1,3C85.7,133,85.4,133.1,85.2,133.1z"/>
		<g>
			<path class="st9" d="M81.6,131.3c-0.6,0.1-1.3-0.1-1.8-0.6c-0.5-0.4-0.7-1.1-0.7-1.7c0.2-1.3,0.4-2.5,0.8-3.7
				c0.4-1.2,1-2.4,1.7-3.4c0.8-1,1.7-2,2.8-2.6c1.1-0.6,2.4-1,3.7-1.1c0.7,0,1.3,0,2,0.1c0.3,0.1,0.6,0.1,1,0.2
				c0.3,0.1,0.6,0.2,0.9,0.4c0.6,0.4,1,1,1.1,1.7c0.1,0.7,0,1.4-0.5,2c-0.4,0.5-1.1,0.9-1.8,1c-0.7,0.1-1.4-0.2-1.8-0.7l0.1,0
				c-1-0.2-2.1,0.1-2.9,0.7c-0.8,0.6-1.4,1.5-1.8,2.5c-0.4,1-0.6,2-0.8,3c0,0.3-0.1,0.5-0.2,0.8c-0.1,0.2-0.2,0.5-0.4,0.7
				C82.6,131,82.1,131.3,81.6,131.3z M81.6,131.3c0.5-0.1,1-0.3,1.4-0.7c0.2-0.2,0.3-0.4,0.4-0.7c0.1-0.2,0.1-0.5,0.2-0.8
				c0.2-1,0.4-2.1,0.8-3.1c0.4-1,1-1.9,1.8-2.6c0.8-0.7,2-1,3-0.9l0,0l0,0c0.4,0.4,1,0.6,1.6,0.6c0.6-0.1,1.1-0.4,1.5-0.9
				c0.4-0.5,0.5-1.1,0.4-1.7c-0.1-0.6-0.5-1.1-0.9-1.5c-0.2-0.2-0.5-0.3-0.8-0.4c-0.3-0.1-0.6-0.2-0.9-0.2c-0.6-0.1-1.2-0.2-1.9-0.1
				c-1.2,0.1-2.5,0.4-3.6,1c-1.1,0.6-2.1,1.4-2.8,2.5c-0.8,1-1.4,2.1-1.8,3.3c-0.4,1.2-0.7,2.5-0.9,3.7c0,0.6,0.2,1.3,0.7,1.7
				C80.3,131.2,81,131.4,81.6,131.3z"/>
			<path class="st9" d="M90.1,119.1l0,0.2l0-0.4l0,0l0,0L90.1,119.1L90.1,119.1z M90.1,119.1L90.1,119.1l0,0.1l0,0l0,0l0-0.4
				L90.1,119.1z"/>
			<path class="st9" d="M90.1,119.1c0,0.1,0.1,0.1,0.1,0.2l-0.2-0.3C90,119,90.1,119,90.1,119.1z M90.1,119.1c0,0.1,0.1,0.1,0.1,0.2
				l-0.2-0.3C90,119,90.1,119,90.1,119.1z"/>
		</g>
		<path class="st86" d="M81.8,131.4c-0.2,0-1,0-1.2-0.1c-1.2-0.2-1.9-1.7-1.7-2.9c0.3-1.4,0.7-3.3,1.6-5c1-1.9,2.4-3.4,4.1-4.3
			c2-1.1,4.5-1.2,6.7-0.4c1,0.4,1.7,1.4,1.7,2.4c0,1-0.7,1.8-1.7,2.1c-0.8,0.2-1.7,0-2.2-0.6c-0.8-0.1-1.7,0-2.4,0.4
			c-0.9,0.4-1.6,1.3-2.2,2.4c-0.5,1-0.9,2.2-1.2,3.8C83.1,130.2,82.8,131.3,81.8,131.4z M90.1,119C90.1,119,90.1,119,90.1,119
			C90.1,119,90.1,119,90.1,119z M90.1,119C90.1,119,90.1,119,90.1,119C90.1,119,90.1,119,90.1,119z"/>
	</g>
	<polygon class="st5" points="66.3,92.7 55.4,98.6 42.3,92.3 42.8,74.1 60.2,68.9 69.5,80.4 	"/>
	<polygon class="st6" points="73.2,97.7 65.7,101.1 56.1,96.3 55.3,84.6 66.9,81.9 74.5,89.7 	"/>
	<polygon class="st79" points="199.4,155.3 198.4,176.5 212.9,165.7 207.5,139 	"/>
	<polygon class="st4" points="199.6,155.1 198.8,174.7 211.9,164.8 207.2,140.3 	"/>
	<ellipse class="st113" cx="212.9" cy="175.6" rx="1.9" ry="1.2"/>
	<path class="st117" d="M210.4,169.5c0.1,0.4,3.1,6.1,3.1,6.1s-0.5,0.7-1,0.5s-3.6-5.4-3.6-5.4L210.4,169.5z"/>
	<path class="st231" d="M198.4,176.5c0,0,3,2.3,3,2c0-0.3,12.7-12.1,12.7-12.1l-1.2-0.7L198.4,176.5z"/>
	<polygon class="st77" points="207.5,139 208.8,139.6 214.1,166.5 212.9,165.7 	"/>
	<g>
		<path class="st58" d="M211.9,164.8l-4.7-24.5l-6.2,12.2C204.1,154.9,208.2,158.8,211.9,164.8L211.9,164.8z"/>
		<linearGradient id="SVGID_10_" gradientUnits="userSpaceOnUse" x1="206.7422" y1="158.1053" x2="201.3955" y2="167.1757">
			<stop  offset="4.444360e-03" style="stop-color:#475468"/>
			<stop  offset="0.1861" style="stop-color:#3D4859"/>
			<stop  offset="0.5362" style="stop-color:#222831"/>
			<stop  offset="0.9145" style="stop-color:#000000"/>
		</linearGradient>
		<path style="opacity:0.5;fill:url(#SVGID_10_);" d="M198.8,174.7l13-9.8c-3.6-6-7.7-10-10.9-12.4l-1.4,2.7L198.8,174.7z"/>
	</g>
	<polygon class="st234" points="208,144.5 199.5,157.5 199.5,157.9 208.1,145 	"/>
	<polygon class="st234" points="208.8,148.4 199.4,160 199.4,160.3 208.9,149.1 	"/>
	<polygon class="st234" points="209.5,152.2 199.4,162.1 199.4,162.5 209.6,152.9 	"/>
	<polygon class="st234" points="210.2,156.1 199.2,165.3 199.2,165.7 210.4,156.9 	"/>
	<polygon class="st234" points="211.3,161.5 199,169.8 199,170.2 211.4,162.2 	"/>
	<polygon class="st234" points="205.4,143.9 207.8,167.9 207,168.5 205.2,144.4 	"/>
	<polygon class="st234" points="202,150.6 203.3,171.3 202.4,172 201.7,151.1 	"/>
	<path class="st3" d="M206.8,143c0,0-3.1-1.7-4.4-2c-1.1-0.3-2.6-0.3-2.6-0.3s0.9,1.1,1.9,1.3C202.4,142.1,206.8,143,206.8,143z"/>
	<path class="st3" d="M200.5,146.2c0,0-3.4-2-5-2.6c-1.6-0.6-3.7-0.9-3.7-0.9s1.9,1.6,3.3,2S200.5,146.2,200.5,146.2z"/>
	<path class="st3" d="M201.3,157.2c0,0-6.8-4.9-10-6.3c-3.2-1.5-7.6-2.4-7.6-2.4s3.7,2.8,6.5,3.7
		C193.1,153.1,201.3,157.2,201.3,157.2z"/>
	<path class="st3" d="M196.3,167.8c0,0-2.3-2.3-3.4-3.1c-1.1-0.8-2.7-1.4-2.7-1.4s1.2,1.6,2.1,2.2
		C193.4,166.1,196.3,167.8,196.3,167.8z"/>
</g>
</svg>
