<?xml version="1.0" encoding="utf-8"?>
<!-- Generator: Adobe Illustrator 22.0.0, SVG Export Plug-In . SVG Version: 6.00 Build 0)  -->
<svg version="1.1" id="mascotte" xmlns="http://www.w3.org/2000/svg" xmlns:xlink="http://www.w3.org/1999/xlink" x="0px" y="0px"
	 viewBox="0 0 245.8 245.8" style="enable-background:new 0 0 245.8 245.8;" xml:space="preserve">
<style type="text/css">
	.st0{opacity:0.6;}
	.st1{fill-rule:evenodd;clip-rule:evenodd;fill:#FFDF43;}
	.st2{fill-rule:evenodd;clip-rule:evenodd;fill:url(#SVGID_1_);}
	.st3{fill-rule:evenodd;clip-rule:evenodd;fill:#FAB010;}
	.st4{fill-rule:evenodd;clip-rule:evenodd;fill:#157EBF;}
	.st5{opacity:0.6;fill:#FFE565;}
	.st6{opacity:0.6;fill:#FCDE48;}
	.st7{fill-rule:evenodd;clip-rule:evenodd;fill:#AA5D0A;}
	.st8{fill-rule:evenodd;clip-rule:evenodd;fill:#FDFEFE;}
	.st9{fill:#C8650D;}
	.st10{fill-rule:evenodd;clip-rule:evenodd;fill:#C8650D;}
	.st11{fill-rule:evenodd;clip-rule:evenodd;}
	.st12{clip-path:url(#SVGID_4_);}
	.st13{clip-path:url(#SVGID_5_);}
	.st14{fill:none;stroke:#FFFFFF;stroke-width:4;stroke-miterlimit:10;}
	.st15{fill:none;stroke:#FFFFFF;stroke-width:0.75;stroke-miterlimit:10;}
	.st16{fill:none;stroke:#FFFFFF;stroke-width:2;stroke-miterlimit:10;}
	.st17{fill:none;stroke:#FFFFFF;stroke-width:1.75;stroke-miterlimit:10;}
	.st18{fill:none;stroke:#FFFFFF;stroke-width:0.25;stroke-miterlimit:10;}
	.st19{clip-path:url(#SVGID_8_);}
	.st20{clip-path:url(#SVGID_9_);}
	.st21{fill-rule:evenodd;clip-rule:evenodd;fill:url(#SVGID_10_);}
	.st22{clip-path:url(#SVGID_13_);}
	.st23{clip-path:url(#SVGID_14_);}
	.st24{clip-path:url(#SVGID_17_);}
	.st25{clip-path:url(#SVGID_18_);}
	.st26{fill-rule:evenodd;clip-rule:evenodd;fill:url(#SVGID_19_);}
	.st27{clip-path:url(#SVGID_22_);}
	.st28{clip-path:url(#SVGID_23_);}
	.st29{clip-path:url(#SVGID_26_);}
	.st30{clip-path:url(#SVGID_27_);}
	.st31{fill:none;}
	.st32{fill:#4D2200;}
	.st33{fill:#3B5172;}
	.st34{fill:#60BFBB;}
	.st35{fill:#B3E5E2;}
	.st36{fill:#9BFFF8;}
	.st37{fill:url(#XMLID_7_);}
	.st38{fill:url(#XMLID_8_);}
	.st39{fill:url(#XMLID_9_);}
	.st40{fill:url(#XMLID_10_);}
	.st41{fill:url(#XMLID_11_);}
	.st42{fill:url(#XMLID_12_);}
	.st43{fill:url(#XMLID_13_);}
	.st44{fill:url(#XMLID_15_);}
	.st45{fill:url(#XMLID_16_);}
	.st46{fill:url(#XMLID_18_);}
	.st47{fill:url(#XMLID_20_);}
	.st48{fill:url(#XMLID_21_);}
	.st49{fill:url(#XMLID_22_);}
	.st50{fill:url(#XMLID_23_);}
	.st51{fill:url(#XMLID_25_);}
	.st52{fill:url(#XMLID_26_);}
	.st53{fill:url(#XMLID_27_);}
	.st54{fill-rule:evenodd;clip-rule:evenodd;fill:url(#SVGID_28_);}
	.st55{fill:#C95534;}
	.st56{fill:url(#SVGID_29_);}
	.st57{fill:#A2CBF1;}
	.st58{fill:#157EBF;}
	.st59{clip-path:url(#SVGID_31_);fill:none;stroke:#2B89E0;stroke-width:2.8631;stroke-miterlimit:10;}
	.st60{fill:url(#SVGID_32_);}
	.st61{clip-path:url(#SVGID_34_);fill:none;stroke:#2B89E0;stroke-width:2.8631;stroke-miterlimit:10;}
	.st62{fill:#CC5D3F;}
	.st63{fill:#FFC66B;}
	.st64{fill:#FFE3A3;}
	.st65{fill:#2B89E0;}
	.st66{fill-rule:evenodd;clip-rule:evenodd;fill:#FAB315;}
	.st67{clip-path:url(#SVGID_37_);}
	.st68{clip-path:url(#SVGID_38_);}
	.st69{clip-path:url(#SVGID_41_);}
	.st70{clip-path:url(#SVGID_42_);}
	.st71{fill-rule:evenodd;clip-rule:evenodd;fill:url(#SVGID_43_);}
	.st72{clip-path:url(#SVGID_46_);}
	.st73{clip-path:url(#SVGID_47_);}
	.st74{clip-path:url(#SVGID_50_);}
	.st75{clip-path:url(#SVGID_51_);}
	.st76{fill-rule:evenodd;clip-rule:evenodd;fill:url(#SVGID_52_);}
	.st77{fill-rule:evenodd;clip-rule:evenodd;fill:#42433E;}
	.st78{clip-path:url(#SVGID_54_);}
	.st79{fill-rule:evenodd;clip-rule:evenodd;fill:#FFFFFF;}
	.st80{clip-path:url(#SVGID_57_);}
	.st81{clip-path:url(#SVGID_58_);}
	.st82{clip-path:url(#SVGID_61_);}
	.st83{clip-path:url(#SVGID_62_);}
	.st84{fill-rule:evenodd;clip-rule:evenodd;fill:url(#SVGID_63_);}
	.st85{clip-path:url(#SVGID_65_);}
	.st86{fill:#FAB010;}
	.st87{clip-path:url(#SVGID_68_);}
	.st88{clip-path:url(#SVGID_69_);}
	.st89{clip-path:url(#SVGID_72_);}
	.st90{clip-path:url(#SVGID_73_);}
	.st91{fill-rule:evenodd;clip-rule:evenodd;fill:url(#SVGID_74_);}
	.st92{fill:#AA5D0A;}
	.st93{clip-path:url(#SVGID_77_);}
	.st94{clip-path:url(#SVGID_78_);}
	.st95{clip-path:url(#SVGID_81_);}
	.st96{clip-path:url(#SVGID_82_);}
	.st97{fill-rule:evenodd;clip-rule:evenodd;fill:url(#SVGID_83_);}
	.st98{fill-rule:evenodd;clip-rule:evenodd;fill:#E9AB48;}
	.st99{fill-rule:evenodd;clip-rule:evenodd;fill:#AA2C0A;}
	.st100{fill-rule:evenodd;clip-rule:evenodd;fill:#FFE565;}
	.st101{fill-rule:evenodd;clip-rule:evenodd;fill:#753E22;}
	.st102{fill-rule:evenodd;clip-rule:evenodd;fill:#3CB13C;}
	.st103{clip-path:url(#SVGID_86_);}
	.st104{clip-path:url(#SVGID_87_);}
	.st105{clip-path:url(#SVGID_90_);}
	.st106{clip-path:url(#SVGID_91_);}
	.st107{fill-rule:evenodd;clip-rule:evenodd;fill:url(#SVGID_92_);}
	.st108{clip-path:url(#SVGID_95_);}
	.st109{clip-path:url(#SVGID_96_);}
	.st110{clip-path:url(#SVGID_99_);}
	.st111{clip-path:url(#SVGID_100_);}
	.st112{fill-rule:evenodd;clip-rule:evenodd;fill:url(#SVGID_101_);}
	.st113{fill:#A7A89E;}
	.st114{fill:none;stroke:#A7A89E;stroke-width:0.25;stroke-miterlimit:10;}
	.st115{fill:#FDBA1D;}
	.st116{fill:#FFFFFF;}
	.st117{fill:#42433E;}
	.st118{fill:#2B2B28;}
	.st119{fill:#111110;}
	.st120{clip-path:url(#SVGID_104_);}
	.st121{clip-path:url(#SVGID_105_);}
	.st122{clip-path:url(#SVGID_108_);}
	.st123{clip-path:url(#SVGID_109_);}
	.st124{fill-rule:evenodd;clip-rule:evenodd;fill:#33383F;}
	.st125{fill:#272E35;}
	.st126{fill-rule:evenodd;clip-rule:evenodd;fill:url(#SVGID_110_);}
	.st127{fill-rule:evenodd;clip-rule:evenodd;fill:#434E5B;}
	.st128{opacity:0.5;fill-rule:evenodd;clip-rule:evenodd;fill:#FDFEFE;}
	.st129{fill-rule:evenodd;clip-rule:evenodd;fill:#FF4100;}
	.st130{fill-rule:evenodd;clip-rule:evenodd;fill:#7A1A00;}
	.st131{fill-rule:evenodd;clip-rule:evenodd;fill:#11A700;}
	.st132{fill-rule:evenodd;clip-rule:evenodd;fill:#165500;}
	.st133{fill-rule:evenodd;clip-rule:evenodd;fill:#0072CC;}
	.st134{fill-rule:evenodd;clip-rule:evenodd;fill:#00446F;}
	.st135{fill-rule:evenodd;clip-rule:evenodd;fill:url(#SVGID_111_);}
	.st136{fill-rule:evenodd;clip-rule:evenodd;fill:url(#SVGID_112_);}
	.st137{fill-rule:evenodd;clip-rule:evenodd;fill:#FCCF4E;}
	.st138{clip-path:url(#SVGID_115_);}
	.st139{clip-path:url(#SVGID_116_);}
	.st140{fill:none;stroke:#FFFFFF;stroke-width:3.3578;stroke-miterlimit:10;}
	.st141{fill:none;stroke:#FFFFFF;stroke-width:0.6296;stroke-miterlimit:10;}
	.st142{fill:none;stroke:#FFFFFF;stroke-width:1.6789;stroke-miterlimit:10;}
	.st143{fill:none;stroke:#FFFFFF;stroke-width:1.4691;stroke-miterlimit:10;}
	.st144{fill:none;stroke:#FFFFFF;stroke-width:0.2099;stroke-miterlimit:10;}
	.st145{clip-path:url(#SVGID_119_);}
	.st146{clip-path:url(#SVGID_120_);}
	.st147{fill-rule:evenodd;clip-rule:evenodd;fill:none;stroke:#AA5D0A;stroke-width:0.9654;stroke-miterlimit:10;}
	.st148{fill-rule:evenodd;clip-rule:evenodd;fill:#272E35;}
	.st149{fill:#33383F;}
	.st150{fill-rule:evenodd;clip-rule:evenodd;fill:url(#SVGID_121_);}
	.st151{fill:#4F0000;}
	.st152{fill:url(#SVGID_122_);}
	.st153{clip-path:url(#SVGID_124_);}
	.st154{fill:#EF7031;}
	.st155{fill:#F9CC02;}
	.st156{fill:#929497;}
	.st157{fill:#FF4100;}
	.st158{fill:#231F20;}
	.st159{fill:#B3B3B3;}
	.st160{fill:#58595B;}
	.st161{fill-rule:evenodd;clip-rule:evenodd;fill:#FAB212;}
	.st162{fill-rule:evenodd;clip-rule:evenodd;fill:url(#SVGID_125_);}
	.st163{clip-path:url(#SVGID_128_);}
	.st164{clip-path:url(#SVGID_129_);}
	.st165{fill:none;stroke:#FFFFFF;stroke-width:3.7719;stroke-miterlimit:10;}
	.st166{fill:none;stroke:#FFFFFF;stroke-width:0.7072;stroke-miterlimit:10;}
	.st167{fill:none;stroke:#FFFFFF;stroke-width:1.8859;stroke-miterlimit:10;}
	.st168{fill:none;stroke:#FFFFFF;stroke-width:1.6502;stroke-miterlimit:10;}
	.st169{fill:none;stroke:#FFFFFF;stroke-width:0.2357;stroke-miterlimit:10;}
	.st170{clip-path:url(#SVGID_132_);}
	.st171{clip-path:url(#SVGID_133_);}
	.st172{fill:#FFD28C;}
	.st173{fill:#EEB96C;}
	.st174{fill:#DB84B5;}
	.st175{fill:#62B146;}
	.st176{fill:#A9C63D;}
	.st177{fill:#957F4B;}
	.st178{fill:#AD9568;}
	.st179{fill:#825F26;}
	.st180{fill:#CE7829;}
	.st181{fill:#AC5A26;}
	.st182{fill-rule:evenodd;clip-rule:evenodd;fill:none;stroke:#EAA211;stroke-width:5;stroke-miterlimit:10;}
	.st183{fill-rule:evenodd;clip-rule:evenodd;fill:url(#SVGID_134_);}
	.st184{fill:#FA852D;}
	.st185{fill:#F5752A;}
	.st186{fill:#F99E29;}
	.st187{fill-rule:evenodd;clip-rule:evenodd;fill:none;stroke:#FABA24;stroke-width:5;stroke-miterlimit:10;}
	.st188{fill-rule:evenodd;clip-rule:evenodd;fill:#EAA211;}
	.st189{fill-rule:evenodd;clip-rule:evenodd;fill:#FABA24;}
	.st190{fill:url(#SVGID_135_);}
	.st191{fill:url(#SVGID_136_);}
	.st192{filter:url(#Adobe_OpacityMaskFilter);}
	.st193{filter:url(#Adobe_OpacityMaskFilter_1_);}
	.st194{mask:url(#SVGID_137_);fill:url(#SVGID_138_);}
	.st195{opacity:0.14;fill:url(#SVGID_139_);}
	.st196{filter:url(#Adobe_OpacityMaskFilter_2_);}
	.st197{filter:url(#Adobe_OpacityMaskFilter_3_);}
	.st198{mask:url(#SVGID_140_);fill:url(#SVGID_141_);}
	.st199{opacity:0.14;fill:url(#SVGID_142_);}
	.st200{fill:url(#SVGID_143_);}
	.st201{fill:url(#SVGID_144_);}
	.st202{fill:url(#SVGID_145_);}
	.st203{fill:url(#SVGID_146_);}
	.st204{fill:#CBEAF6;}
	.st205{fill:#96D7ED;}
	.st206{fill:#F06888;}
	.st207{fill:#F395BE;}
	.st208{fill:#C84C27;}
	.st209{fill:#F16822;}
	.st210{fill:#F37940;}
	.st211{fill:#F37B4C;}
	.st212{fill:#4C3427;}
	.st213{fill:#9F3022;}
	.st214{fill-rule:evenodd;clip-rule:evenodd;fill:url(#SVGID_147_);}
	
		.st215{fill-rule:evenodd;clip-rule:evenodd;fill:none;stroke:#FAB010;stroke-width:10.343;stroke-linecap:round;stroke-linejoin:round;stroke-miterlimit:10;}
	
		.st216{fill-rule:evenodd;clip-rule:evenodd;fill:none;stroke:#FAB010;stroke-width:11;stroke-linecap:round;stroke-linejoin:round;stroke-miterlimit:10;}
	.st217{clip-path:url(#SVGID_150_);}
	.st218{clip-path:url(#SVGID_151_);}
	.st219{fill:none;stroke:#FFFFFF;stroke-width:4.33;stroke-miterlimit:10;}
	.st220{fill:none;stroke:#FFFFFF;stroke-width:0.8119;stroke-miterlimit:10;}
	.st221{fill:none;stroke:#FFFFFF;stroke-width:2.165;stroke-miterlimit:10;}
	.st222{fill:none;stroke:#FFFFFF;stroke-width:1.8944;stroke-miterlimit:10;}
	.st223{fill:none;stroke:#FFFFFF;stroke-width:0.2706;stroke-miterlimit:10;}
	.st224{clip-path:url(#SVGID_154_);}
	.st225{clip-path:url(#SVGID_155_);}
	.st226{fill:none;stroke:#A7A89E;stroke-width:0.2797;stroke-miterlimit:10;}
	
		.st227{fill-rule:evenodd;clip-rule:evenodd;fill:none;stroke:#FFFFFF;stroke-width:0.75;stroke-linecap:round;stroke-miterlimit:10;}
	.st228{fill-rule:evenodd;clip-rule:evenodd;fill:none;stroke:#FFFFFF;stroke-width:2.5187;stroke-miterlimit:10;}
	.st229{fill:#4F2706;}
	.st230{opacity:0.25;fill:#FFFFFF;}
	.st231{fill-rule:evenodd;clip-rule:evenodd;fill:#A7A89E;}
	.st232{fill-rule:evenodd;clip-rule:evenodd;fill:none;stroke:#42433E;stroke-width:0.9637;stroke-miterlimit:10;}
	.st233{opacity:0.5;fill:url(#SVGID_156_);}
	.st234{fill:#AEAFA3;}
	.st235{fill-rule:evenodd;clip-rule:evenodd;fill:url(#SVGID_157_);}
	.st236{fill:url(#SVGID_158_);}
	.st237{opacity:0.4;}
	.st238{fill:url(#SVGID_159_);}
	.st239{fill-rule:evenodd;clip-rule:evenodd;fill:none;stroke:#FAB011;stroke-width:5.3617;stroke-miterlimit:10;}
	
		.st240{fill-rule:evenodd;clip-rule:evenodd;fill:none;stroke:#FABA24;stroke-width:3;stroke-linecap:round;stroke-linejoin:round;stroke-miterlimit:10;}
	
		.st241{fill-rule:evenodd;clip-rule:evenodd;fill:none;stroke:#FABA24;stroke-width:2;stroke-linecap:round;stroke-linejoin:round;stroke-miterlimit:10;}
	
		.st242{fill-rule:evenodd;clip-rule:evenodd;fill:none;stroke:#FABA24;stroke-width:2.5;stroke-linecap:round;stroke-linejoin:round;stroke-miterlimit:10;}
	.st243{fill-rule:evenodd;clip-rule:evenodd;fill:url(#SVGID_160_);}
	.st244{fill-rule:evenodd;clip-rule:evenodd;fill:url(#SVGID_161_);}
	.st245{opacity:0.5;fill:#FFE3A3;}
	.st246{fill-rule:evenodd;clip-rule:evenodd;fill:#32383F;}
	.st247{fill:#32383F;}
	.st248{fill:url(#SVGID_162_);}
	.st249{filter:url(#Adobe_OpacityMaskFilter_4_);}
	.st250{filter:url(#Adobe_OpacityMaskFilter_5_);}
	.st251{mask:url(#SVGID_163_);fill:url(#SVGID_164_);}
	.st252{opacity:0.5;fill:url(#SVGID_165_);}
	.st253{filter:url(#Adobe_OpacityMaskFilter_6_);}
	.st254{filter:url(#Adobe_OpacityMaskFilter_7_);}
	.st255{mask:url(#SVGID_166_);fill:url(#SVGID_167_);}
	.st256{opacity:0.5;fill:url(#SVGID_168_);}
	.st257{fill:url(#SVGID_169_);}
	.st258{opacity:0.5;}
	.st259{fill:#FFFDF0;}
	.st260{fill-rule:evenodd;clip-rule:evenodd;fill:none;stroke:#32383F;stroke-width:2;stroke-linecap:round;stroke-miterlimit:10;}
	.st261{opacity:0.2;}
	.st262{fill:none;stroke:#FDFEFE;stroke-width:2;stroke-miterlimit:10;}
	.st263{fill:none;stroke:#FDFEFE;stroke-width:2;stroke-miterlimit:10;stroke-dasharray:1.0301,8.2408;}
</style>
<g>
	<path class="st124" d="M128.8,88.3C128.8,88.3,128.8,88.3,128.8,88.3c15.4,5.1,10.5,20.3,10.5,20.3l-0.8-0.4
		C138.4,108.2,140.8,92.3,128.8,88.3C128.8,88.3,128.8,88.3,128.8,88.3"/>
	<g>
		<path class="st125" d="M139.5,108.1c0.1-0.1,0.1-0.4,0.2-0.6c0-0.2,0.1-0.4,0.1-0.7c0-0.5,0-0.9,0-1.4c0-0.9,0-1.8-0.1-2.7
			c-0.2-1.8-0.5-3.6-1.2-5.3c-0.6-1.7-1.5-3.3-2.6-4.7c-1.2-1.4-2.6-2.5-4.2-3.3c1.7,0.7,3.3,1.7,4.5,3.1c1.3,1.4,2.2,3,2.8,4.7
			c0.6,1.7,1,3.6,1.1,5.4c0,0.9,0,1.8,0,2.7c0,0.5-0.1,0.9-0.2,1.4C139.8,107.3,139.8,107.8,139.5,108.1z"/>
	</g>
	<g id="Shape_9_28_" class="st0">
		<g>
			<path class="st1" d="M156.8,102.6c-10.6-7.5-29.3-12.8-46.2-9c-17,3.9-23.9,12.7-30.4,23.4c-9.5,15.5-9.7,30.3,1,44
				c12.7,16.3,34.6,17.3,48.7,17.8c14,0.6,43.1-0.1,50.1-22.9C186.9,133.2,167.4,110,156.8,102.6z"/>
		</g>
	</g>
	<g>
		
			<radialGradient id="SVGID_1_" cx="1152.8649" cy="116.1086" r="44.0163" gradientTransform="matrix(-1 0 0 1 1284.7363 0)" gradientUnits="userSpaceOnUse">
			<stop  offset="0" style="stop-color:#FCD253"/>
			<stop  offset="1" style="stop-color:#FAB010"/>
		</radialGradient>
		<path class="st2" d="M98.5,110.3c-12.3,13-19.6,30.2-5.7,48.7c9.8,12.9,41.9,15.3,58,10c15.4-5.1,23.3-17.5,15.2-37.6
			c-8.1-20.1-25.8-26.2-32-27.6C127.3,102.4,110.5,97.7,98.5,110.3z"/>
	</g>
	<path class="st3" d="M84.5,172.9c0,0,2-3.6,3.2-4.8c1.2-1.2,3.1-2.2,3.1-2.2s-0.8,2.6-1.9,3.5C87.8,170.3,84.5,172.9,84.5,172.9z"
		/>
	<path class="st3" d="M75.3,110.5c0,0,5.5,1.2,7.7,2.2c2.2,0.9,4.6,2.7,4.6,2.7s-3.5-0.2-5.3-1.1C80.6,113.3,75.3,110.5,75.3,110.5z
		"/>
	<path class="st3" d="M118.4,83.5c0,0,2.4,3.9,2.9,5.8c0.5,1.9,0.3,4.5,0.3,4.5s-2.2-2-2.4-3.7C119.1,88.5,118.4,83.5,118.4,83.5z"
		/>
	<path class="st3" d="M104.5,88.2c0,0,2.9,3.6,3.5,5.1c0.5,1.3,0.5,3.1,0.5,3.1s-1.9-1.1-2.2-2.2C106.1,93.4,104.5,88.2,104.5,88.2z
		"/>
	<path class="st3" d="M186.2,137.5c0,0-5.1,1.5-6.9,1.6c-1.7,0.1-3.6-0.5-3.6-0.5s1.9-1.3,3.3-1.3
		C180,137.4,186.2,137.5,186.2,137.5z"/>
	<path class="st3" d="M145.2,74.5c0,0-0.4,9.9-1.5,14.9c-1.1,5-4.6,7.1-4.6,7.1s-0.8-3.9,0.1-7.7C140.1,84.9,145.2,74.5,145.2,74.5z
		"/>
	<path class="st3" d="M154.8,89.6c0,0-2.6,5.3-4.3,7.8c-1.8,2.5-4.2,2.8-4.2,2.8s0.5-2.3,1.9-4.2C149.6,94.1,154.8,89.6,154.8,89.6z
		"/>
	<polygon class="st5" points="162.7,110.5 171.9,115.5 182.9,110.2 182.5,94.9 167.8,90.5 160,100.2 	"/>
	<polygon class="st6" points="157,114.8 163.2,117.6 171.3,113.6 172,103.8 162.2,101.5 155.9,108 	"/>
	<g>
		<path class="st4" d="M119.5,190.5c-2.3,0.2-4.5,0.6-7.5,1.1c-3,0.5,0.6,4.2,4,4.1c2.8,0,8-0.8,12.6-2.7c5.1-2.1,0.2-3.3-1.9-3.3
			C125,189.6,122.4,190.2,119.5,190.5z"/>
		<path class="st3" d="M124.6,171.7c1.1,4,2.3,8,3.2,11.6c0.7,2.7,1.5,5.2,1.4,7.3c0,1.3-2.8,2.1-6.2,2.6c-3.4,0.6-6.6,0.8-8.5,0
			c-4-1.6,1-2.5,3.7-3c2.7-0.5,6.5-0.6,6.2-2.1c-0.3-1.5-1-5.3-1.4-7.2c-0.7-3.3-1.6-6.5-2.6-10
			C119.6,168.3,123.3,166.9,124.6,171.7z"/>
		<path class="st4" d="M118.7,194c0-1-0.8-2.3-2.2-2.6c-1.4-0.2-2.4,0-2.4,0s-0.1-1,1.6-1.4c1.7-0.4,3.5-0.7,5.9,0.8
			c1.5,0.9,1.9,2.7,1.9,2.7S120.2,194.6,118.7,194z"/>
	</g>
	<g>
		<path class="st4" d="M140.8,194.7c2.6,0.2,5,0.7,8.4,1.2c3.4,0.6-0.7,4.7-4.5,4.6c-3.2,0-8.9-0.9-14.1-3c-5.8-2.4-0.2-3.6,2.1-3.7
			C134.6,193.7,137.5,194.4,140.8,194.7z"/>
		<path class="st3" d="M133,169.7c-0.4,3.6-0.4,6.4-1.2,10.8c-0.6,3.8-2.7,12.1-2,14.4c0.4,1.4,3.1,2.3,6.9,3c3.8,0.6,7.4,0.9,9.5,0
			c4.5-1.8-1.1-2.7-4.1-3.3c-3-0.6-6-0.9-7-2.3c-1.2-1.7,0.5-9.6,1.1-13.2c0.6-3.7,2-7.9,1.3-10.2
			C136.8,165.7,133.7,164.2,133,169.7z"/>
		<path class="st4" d="M141.7,198.6c0.1-1.1,0.9-2.6,2.5-2.9c1.6-0.3,2.7,0,2.7,0s0.1-1.1-1.8-1.6c-1.9-0.5-3.9-0.8-6.6,0.9
			c-1.7,1-2.1,3-2.1,3S140,199.3,141.7,198.6z"/>
	</g>
	<polygon class="st124" points="103.1,165.1 106.4,192.4 108,192.8 109.4,192 106.4,165.1 	"/>
	<polygon class="st124" points="146.9,164.3 145.7,191.8 147.2,192.5 148.6,191.9 150.1,164.8 	"/>
	<polygon class="st127" points="152.9,157.9 158.1,163.2 156.8,166.6 96.7,166 95.1,163.6 103.9,151 148.8,153.7 	"/>
	
		<ellipse transform="matrix(7.878695e-02 -0.9969 0.9969 7.878695e-02 -31.0471 278.2797)" class="st11" cx="135" cy="155.9" rx="3" ry="16.5"/>
	
		<ellipse transform="matrix(7.878695e-02 -0.9969 0.9969 7.878695e-02 -30.5625 278.2999)" class="st8" cx="135.3" cy="155.7" rx="1.1" ry="7.1"/>
	<path class="st124" d="M119.2,159.3c11.3,3.7,21.6,3.7,31.4,1.8l0.1-2.2c-4.4,2.1-22.8,1-31.4-1.8L119.2,159.3z"/>
	<path class="st124" d="M118.3,159.1l-0.1-6.4c0,0-0.6-0.2-0.6-0.9l-0.1,6.3C117.5,158,117.5,158.8,118.3,159.1z"/>
	<path class="st124" d="M117.9,151.7l8.1,1.7l0.2,0.3l-7.8-1.2C118.5,152.5,117.6,152.2,117.9,151.7z"/>
	<polygon class="st124" points="126.3,153.3 127.4,153.4 127.4,154.4 127.3,154.1 126.5,153.9 	"/>
	<polygon class="st128" points="156.4,163.2 96.9,163.4 98.7,164 154.8,163.9 	"/>
	<path class="st124" d="M112.6,161.9c-0.2,0-11.7,0-11.7,0l2.3-3.1l9.2,0.3L112.6,161.9z"/>
	<path class="st124" d="M111.5,158.6c0,0-3.2-0.2-3.2-0.2l0.8-2.1l2.1,0.3L111.5,158.6z"/>
	<path class="st124" d="M107.2,158.3c-0.1,0-2.8,0-2.8,0l0.9-2.1h2.3L107.2,158.3z"/>
	<ellipse class="st129" cx="112" cy="154.2" rx="1.3" ry="0.6"/>
	<path class="st130" d="M110.7,154.4c0,0.4,0.6,0.6,1.3,0.6s1.3-0.3,1.3-0.7l0.1,1c0,0.4-0.6,0.7-1.3,0.7s-1.3-0.3-1.3-0.7
		L110.7,154.4z"/>
	<ellipse class="st131" cx="108.7" cy="153.7" rx="1.3" ry="0.6"/>
	<path class="st132" d="M107.4,154c0,0.4,0.6,0.6,1.3,0.6s1.3-0.3,1.3-0.7l0.1,1c0,0.4-0.6,0.7-1.3,0.7s-1.3-0.3-1.3-0.7L107.4,154z
		"/>
	<ellipse class="st133" cx="105.4" cy="153.8" rx="1.3" ry="0.6"/>
	<path class="st134" d="M104.1,154.1c0,0.4,0.6,0.6,1.3,0.6s1.3-0.3,1.3-0.7l0.1,1c0,0.4-0.6,0.7-1.3,0.7s-1.3-0.3-1.3-0.7
		L104.1,154.1z"/>
	<polygon class="st127" points="155.5,167.2 152.8,206.5 151.3,207.1 149.9,205.9 152.2,167.2 	"/>
	<polygon class="st128" points="153.6,173 151.8,206.4 151.4,206.6 151,206.3 	"/>
	<polygon class="st127" points="98.5,166.9 101.8,205.1 103.4,205.6 104.7,204.5 101.8,166.9 	"/>
	<polygon class="st128" points="100.3,172.7 102.8,205 103.2,205.2 103.6,204.9 	"/>
	<g>
		<path class="st10" d="M159.1,145.5c-1.2,4.6-1.6,6.4-4.5,5.5c-2.3-0.6-3.2-0.7-6.6-2.2c-2.6-1.1-3.6-2.1-6.5-0.1
			c-0.5,0.4-1,0.9-1.4,1.5c-0.7,0.5-1.3,1.1-1.7,1.8c-0.4,0.6-1.6,2.4-0.8,2.1c0.4-0.1,0.8-0.3,1.1-0.5c-0.5,2.6,0,5.1,2.5,5.1
			c1.2,0,5.1-4.8,5.1-4.8c0,0,2.2,0.9,7,2c6.4,1.4,6.3-0.9,8.2-5C163.2,147.1,159.5,144.1,159.1,145.5z"/>
		<path class="st9" d="M159.1,145.5c-0.3,1-0.5,2-0.8,2.9c-0.3,0.9-0.6,2-1.5,2.6c-0.5,0.3-1,0.3-1.5,0.2c-0.5-0.1-1-0.2-1.5-0.3
			c-1-0.2-2-0.4-3-0.8c-1-0.3-1.9-0.7-2.9-1.1c-0.9-0.4-1.9-0.9-2.8-1.1c-0.9-0.2-1.9,0.1-2.7,0.6c-0.4,0.2-0.9,0.5-1.2,0.8
			c-0.3,0.3-0.6,0.7-0.9,1.1l0,0.1l-0.1,0.1c-0.8,0.6-1.4,1.4-1.9,2.3c-0.1,0.2-0.3,0.4-0.4,0.7c-0.1,0.1-0.1,0.2-0.1,0.3
			c0,0.1-0.1,0.2-0.1,0.2c0-0.1,0,0-0.1-0.2c0,0-0.1-0.1-0.1-0.1c0,0,0,0-0.1,0c-0.1,0-0.1,0-0.1,0l0,0c0.1,0,0.2-0.1,0.3-0.1
			c0.2-0.1,0.4-0.2,0.6-0.3l0.9-0.6l-0.2,1.1c-0.2,1.1-0.2,2.2,0.1,3.1c0.2,0.5,0.4,0.9,0.8,1.1c0.2,0.1,0.4,0.2,0.6,0.3
			c0.1,0,0.2,0,0.4,0c0.1,0,0.1,0,0.2,0c0,0,0,0,0.1,0c0.4-0.1,0.8-0.5,1.2-0.9c0.4-0.4,0.8-0.8,1.2-1.2c0.8-0.8,1.5-1.7,2.3-2.5
			l0.7,0.1c0-0.1-0.2-0.2-0.1-0.2l0,0l0.1,0l0.2,0.1l0.4,0.1l0.8,0.3c0.5,0.2,1,0.3,1.5,0.5c1,0.3,2.1,0.6,3.1,0.8
			c1,0.3,2.1,0.5,3.1,0.6c1,0.1,2.2,0.1,3-0.5c0.9-0.6,1.3-1.6,1.8-2.6l0.6-1.5c0.2-0.5,0.5-1,0.6-1.5c0.3-1,0.1-2.2-0.3-3.1
			c-0.2-0.5-0.6-0.9-1-1.3c-0.2-0.2-0.4-0.3-0.7-0.4C159.5,145.1,159.2,145.2,159.1,145.5z M159.1,145.5c0.1-0.3,0.4-0.4,0.6-0.3
			c0.3,0.1,0.5,0.2,0.7,0.4c0.4,0.3,0.8,0.8,1,1.3c0.5,1,0.6,2.1,0.4,3.2c-0.1,0.5-0.4,1-0.6,1.5l-0.6,1.5c-0.2,0.5-0.4,1-0.7,1.5
			c-0.3,0.5-0.6,1-1.1,1.3c-0.9,0.7-2.1,0.8-3.2,0.7c-1.1-0.1-2.2-0.3-3.2-0.5c-1.1-0.2-2.1-0.5-3.2-0.7c-0.5-0.1-1.1-0.3-1.6-0.4
			l-0.8-0.2l-0.4-0.1l-0.2-0.1l-0.1,0l-0.1,0c0,0-0.2-0.1-0.2-0.2l0.7,0.1c-0.7,0.9-1.5,1.8-2.3,2.6c-0.4,0.4-0.8,0.8-1.2,1.2
			c-0.5,0.4-0.8,0.8-1.6,1.1c-0.1,0-0.2,0.1-0.4,0.1c-0.1,0-0.2,0-0.3,0c-0.2,0-0.3,0-0.5-0.1c-0.3-0.1-0.7-0.2-1-0.4
			c-0.6-0.4-1-1-1.2-1.6c-0.4-1.2-0.3-2.5-0.1-3.6l0.7,0.5c-0.2,0.2-0.5,0.3-0.8,0.4c-0.1,0.1-0.3,0.1-0.4,0.1l-0.2,0
			c-0.1,0-0.1,0-0.2,0c-0.1,0-0.1,0-0.2,0c-0.1,0-0.1-0.1-0.2-0.2c-0.1-0.2-0.1-0.2-0.1-0.3c0-0.3,0.1-0.4,0.1-0.6
			c0.1-0.1,0.1-0.3,0.2-0.4c0.1-0.2,0.3-0.5,0.4-0.7c0.3-0.4,0.6-0.9,1-1.3c0.4-0.4,0.8-0.8,1.3-1.1l-0.1,0.1
			c0.3-0.4,0.6-0.9,1.1-1.2c0.4-0.4,0.9-0.6,1.4-0.9c0.9-0.5,2.1-0.8,3.1-0.5c1,0.3,1.9,0.8,2.8,1.2c0.9,0.4,1.8,0.8,2.8,1.2
			c1,0.3,1.9,0.6,2.9,0.9c0.5,0.1,1,0.3,1.5,0.4c0.5,0.1,1,0.1,1.4-0.2c0.9-0.5,1.2-1.6,1.5-2.5
			C158.6,147.4,158.9,146.5,159.1,145.5z"/>
	</g>
	<g>
		
			<radialGradient id="SVGID_4_" cx="1142.6117" cy="152.5777" r="20.6842" gradientTransform="matrix(-1 0 0 1 1284.7363 0)" gradientUnits="userSpaceOnUse">
			<stop  offset="0" style="stop-color:#FCD253"/>
			<stop  offset="1" style="stop-color:#FAB010"/>
		</radialGradient>
		<path style="fill-rule:evenodd;clip-rule:evenodd;fill:url(#SVGID_4_);" d="M163.9,144.6c0,0-0.7,2.4-2.4,6.3
			c-1.9,4.1-1.8,6.4-8.2,5c-4.8-1-6.9-1.9-7-2c0,0-3.9,4.8-5.1,4.8c-4.4,0-2.7-8.1,0.3-10.1c2.9-1.9,3.9-1,6.5,0.1
			c3.4,1.5,4.3,1.5,6.6,2.2c2.9,0.8,3.2-0.9,4.5-5.5c0.4-1.4,0.5-2,0.5-2s0-0.9,1.7-0.9C163,142.6,164.8,142.7,163.9,144.6z"/>
	</g>
	<g>
		<path class="st10" d="M94.1,131c1.8-0.7,1,4.5,0.8,4.7c-1.2,1.8-1.8,3.3-1.8,4.7c0,1.4,0.8,2.7,1.8,3c1.5,0.5,3.4-0.8,5-1.9
			c0.5-0.4,1.2-0.9,2-1.2c1.7-0.6,3.6-0.3,4.9,0.8c0.4-0.2,2.3-1.1,4.7-0.6c0.8,0.2,3.9-1.2,3.7,0.6c-0.2,1.3-1.6,2-2.5,2.4
			c0.2,0.5,0.4,1,0.6,1.8c1.2,4.6-0.9,8.8-0.9,8.8s-1.2,0.6-1.5-0.8c-0.3-1.4-0.1-6.1-0.1-6.1s-2.5,0.9-3,0c-0.5-0.8-2.9,0-3.2-1.7
			c-0.1-0.3-0.1-0.6-0.1-0.8c-0.2-0.3-0.8-0.6-1.2-0.4c-0.3,0.1-0.6,0.4-1,0.7c-1.9,1.4-4.2,2.8-6.7,2.8c-0.7,0-1.3-0.1-2-0.3
			c-2.8-0.9-4.7-3.8-4.7-7C88.9,138.1,92.9,131.5,94.1,131z"/>
		<path class="st9" d="M94.1,131c0.3-0.1,0.6-0.1,0.8,0.2c0.2,0.2,0.2,0.5,0.3,0.8c0.1,0.6,0.1,1.1,0.1,1.7c0,0.6-0.1,1.1-0.2,1.7
			c0,0.3-0.2,0.5-0.4,0.8c-0.2,0.2-0.3,0.5-0.4,0.7c-0.6,1-1,2.1-1.1,3.2c-0.1,1.1,0.3,2.3,1.2,3c0.4,0.3,1,0.4,1.6,0.3
			c0.6-0.1,1.1-0.3,1.6-0.5c1-0.5,1.9-1.2,2.8-1.9c0.9-0.7,2.1-1.2,3.3-1.2c1.2,0,2.4,0.4,3.4,1.1l-0.3,0c1-0.5,2.1-0.8,3.2-0.8
			c0.6,0,1.1,0,1.7,0.2c0.3,0.1,0.9-0.1,1.4-0.2c0.5-0.1,1.1-0.2,1.8-0.1c0.2,0,0.4,0.1,0.5,0.2c0.2,0.1,0.3,0.4,0.3,0.6
			c0.1,0.4,0,0.7-0.1,1c-0.2,0.6-0.7,1.1-1.1,1.4c-0.5,0.3-1,0.6-1.5,0.8l0.3-0.6c0.3,0.9,0.6,1.8,0.8,2.7c0.2,0.9,0.2,1.9,0.2,2.8
			c0,0.9-0.2,1.9-0.4,2.8c-0.2,0.9-0.5,1.8-0.9,2.7l-0.1,0.2l-0.2,0.1c-0.4,0.2-0.9,0.3-1.4,0c-0.5-0.3-0.7-0.8-0.7-1.2
			c-0.1-0.8-0.1-1.4-0.2-2.1c0-1.4,0-2.7,0.1-4.1l0.6,0.4c-0.7,0.2-1.3,0.4-2.1,0.4c-0.4,0-0.8,0-1.2-0.3c-0.1-0.1-0.2-0.2-0.3-0.3
			c0,0,0,0-0.1-0.1c-0.1,0-0.2-0.1-0.3-0.1c-0.5-0.1-1.3-0.1-2-0.5c-0.4-0.2-0.7-0.6-0.8-1c-0.1-0.4-0.1-0.7-0.2-1l0.1,0.1
			c-0.1-0.2-0.4-0.3-0.6-0.3c-0.2,0-0.4,0.1-0.7,0.3c-0.5,0.4-1.1,0.8-1.7,1.1c-1.1,0.7-2.4,1.4-3.7,1.7c-1.3,0.4-2.8,0.4-4.1-0.1
			c-1.3-0.4-2.4-1.3-3.2-2.4c-0.8-1.1-1.3-2.4-1.5-3.7c-0.1-0.7-0.1-1.4,0.1-2c0.2-0.6,0.4-1.3,0.7-1.9c0.6-1.2,1.2-2.4,1.9-3.5
			c0.4-0.6,0.7-1.1,1.1-1.7C93.1,131.9,93.5,131.3,94.1,131z M94.1,131c-0.6,0.4-1,0.9-1.4,1.4c-0.4,0.5-0.8,1.1-1.1,1.7
			c-0.7,1.1-1.3,2.3-1.9,3.5c-0.5,1.2-1,2.5-0.7,3.8c0.2,1.3,0.7,2.6,1.5,3.6c0.8,1,1.9,1.8,3.1,2.2c1.2,0.4,2.6,0.3,3.8,0
			c1.2-0.4,2.4-1,3.5-1.7c0.5-0.4,1.1-0.8,1.6-1.2c0.1-0.1,0.3-0.2,0.5-0.3c0.2-0.1,0.4-0.2,0.7-0.2c0.4,0,0.8,0.2,1.1,0.6l0,0.1
			l0,0.1c0.1,0.3,0.1,0.7,0.2,0.9c0.1,0.2,0.2,0.4,0.4,0.5c0.4,0.2,1.1,0.2,1.8,0.4c0.2,0,0.4,0.1,0.6,0.2c0.1,0.1,0.2,0.2,0.3,0.3
			c0.1,0.1,0,0,0.1,0.1c0.1,0.1,0.4,0.1,0.7,0.1c0.6,0,1.2-0.2,1.8-0.4l0.6-0.2l0,0.7c-0.1,1.3-0.1,2.7-0.1,4c0,0.7,0,1.4,0.2,1.9
			c0.1,0.6,0.4,0.7,0.8,0.5l-0.2,0.2c0.3-0.8,0.6-1.6,0.8-2.5c0.2-0.9,0.3-1.7,0.4-2.6c0-0.9,0-1.8-0.1-2.6
			c-0.1-0.9-0.5-1.7-0.7-2.5l-0.1-0.4l0.4-0.1c0.9-0.3,1.9-0.9,2.2-1.7c0.1-0.2,0.1-0.4,0.1-0.6c0-0.1,0-0.1-0.2-0.2
			c-0.4-0.1-0.9,0-1.4,0.1c-0.5,0.1-1,0.3-1.7,0.1c-0.5-0.1-1-0.2-1.5-0.2c-1,0-2.1,0.2-3,0.7l-0.2,0.1l-0.1-0.1
			c-0.9-0.7-1.9-1.1-3-1.1c-1.1,0-2.2,0.4-3.1,1c-0.9,0.6-1.9,1.4-2.9,1.9c-0.5,0.2-1.1,0.5-1.7,0.5c-0.6,0.1-1.2,0-1.7-0.4
			c-0.9-0.7-1.3-2-1.2-3.1c0.1-1.2,0.5-2.3,1.1-3.2c0.1-0.2,0.3-0.5,0.5-0.7c0.2-0.2,0.4-0.4,0.4-0.7c0.1-0.6,0.2-1.1,0.2-1.7
			c0-0.6,0-1.1,0-1.7c0-0.3-0.1-0.6-0.3-0.8C94.7,130.9,94.3,130.9,94.1,131z"/>
	</g>
	
		<radialGradient id="SVGID_5_" cx="1174.8064" cy="144.9018" r="19.6998" gradientTransform="matrix(-0.9962 -8.700828e-02 -5.628479e-02 0.6444 1288.4368 153.7396)" gradientUnits="userSpaceOnUse">
		<stop  offset="0" style="stop-color:#FCD253"/>
		<stop  offset="1" style="stop-color:#FAB010"/>
	</radialGradient>
	<path style="fill-rule:evenodd;clip-rule:evenodd;fill:url(#SVGID_5_);" d="M91.5,133.3c0.6-0.9,1.4-1.8,2.6-2.3
		c1.8-0.7,1.5,3.9,1.6,3.9c-0.3,0.1-0.7,0.7-0.8,0.9c-1.2,1.8-1.8,3.3-1.8,4.7c0,1.4,0.8,2.7,1.8,3c1.5,0.5,3.4-0.8,5-1.9
		c0.5-0.4,1.2-0.9,2-1.2c1.7-0.6,3.6-0.3,4.9,0.8c0.4-0.2,2.3-1.1,4.7-0.6c0.8,0.2,3.9-1.2,3.7,0.6c-0.2,1.3-1.6,2-2.5,2.4
		c0.2,0.5,0.4,1,0.6,1.8c1.2,4.6-0.9,8.8-0.9,8.8s-1.2,0.6-1.5-0.8c-0.3-1.4-0.1-6.1-0.1-6.1s-2.5,0.9-3,0c-0.5-0.8-2.9,0-3.2-1.7
		c-0.1-0.3-0.1-0.6-0.1-0.8c-0.2-0.3-0.8-0.6-1.2-0.4c-0.3,0.1-0.6,0.4-1,0.7c-1.9,1.4-4.2,2.8-6.7,2.8c-0.7,0-1.3-0.1-2-0.3
		c-2.8-0.9-4.7-3.8-4.7-7C88.9,138.1,89.7,135.8,91.5,133.3z"/>
	<path class="st137" d="M142,149.5c-1.5,0.2-2.8,1.3-3.6,2.6c-0.4,0.6-1.6,2.4-0.8,2.1c0.9-0.2,1.7-0.9,2.2-1.7L142,149.5z"/>
	<g>
		<path d="M148,106.6c-1.2-0.3-2.4-0.8-3.5-1.3c-1.1-0.5-2.2-1.2-3.2-1.9c-1-0.7-2-1.5-2.9-2.4c-0.4-0.5-0.8-1-1.2-1.6
			c-0.2-0.3-0.3-0.6-0.4-1c-0.1-0.3,0-0.8,0.3-0.9c-0.2,0.3,0,0.6,0.1,0.8c0.1,0.2,0.3,0.4,0.6,0.6c0.4,0.4,0.9,0.7,1.4,1.1l3,2
			c1,0.7,2,1.4,2.9,2.1C146.2,104.9,147.1,105.7,148,106.6z"/>
	</g>
	<g>
		<path d="M114.9,100.3c2.6-1.6,5.2-3.2,8-4.4c1.4-0.6,2.9-1.2,4.6-1.3c0.4,0,0.9,0,1.3,0.1c0.5,0.1,0.9,0.4,1.2,0.8
			c0.6,0.8,0.6,1.7,0.5,2.5l-0.3-0.2c0.7-0.3,1.4-0.6,2.1-0.9c-0.6,0.4-1.3,0.9-1.9,1.3l-0.3,0.2l-0.1-0.4c-0.1-0.7-0.3-1.5-0.8-1.8
			c-0.4-0.3-1-0.3-1.7-0.2c-1.3,0.2-2.7,0.8-4.1,1.4c-1.4,0.6-2.8,1.2-4.2,1.7C117.9,99.6,116.4,100.1,114.9,100.3z"/>
	</g>
	<g>
		<path class="st9" d="M145.4,110.8c0.3,0,2.7,0.3,4.1,1.3c1,0.7,1.8,1.6,1.8,2.2c0,0.4-0.3,0.7-1,0.7c-0.1,0-0.2,0-0.3,0
			c-1.5,0-2.9-1.1-3.7-1.6c-0.8-0.5-1.6-1.3-1.9-1.9c-0.1-0.1-0.1-0.2-0.1-0.2C144.3,110.9,145,110.8,145.4,110.8
			C145.4,110.8,145.4,110.8,145.4,110.8"/>
	</g>
	<path class="st10" d="M110.9,104.8c4.3-1.6,9.7-0.9,11.3,1.9c0.8,1.4-1.3,3.2-5.2,4c-2.6,0.5-5.1,1.1-7.3-1.1
		C108.3,108.3,107.5,106.1,110.9,104.8z"/>
	<path class="st11" d="M110.4,98l41.7,8.6c0,0,1.2,7.4-6,6.2s-11.7-8.3-11.7-8.3s-2,6.8-11.4,5.3S110.4,98,110.4,98z"/>
	<g>
		<defs>
			<path id="SVGID_113_" d="M133.8,103.7l-0.2,0.6c-0.1,0.2-2,6.1-10.5,4.7c-6.7-1.1-10.2-7.1-11.4-9.9L133.8,103.7z"/>
		</defs>
		<defs>
			<path id="SVGID_114_" d="M133.8,103.7l-0.2,0.6c-0.1,0.2-2,6.1-10.5,4.7c-6.7-1.1-10.2-7.1-11.4-9.9L133.8,103.7z"/>
		</defs>
		<clipPath id="SVGID_8_">
			<use xlink:href="#SVGID_113_"  style="overflow:visible;"/>
		</clipPath>
		<clipPath id="SVGID_9_" class="st19">
			<use xlink:href="#SVGID_114_"  style="overflow:visible;"/>
		</clipPath>
		<g class="st20">
			<line class="st140" x1="122.5" y1="98.1" x2="135.7" y2="121.2"/>
			<line class="st140" x1="122.5" y1="98.1" x2="135.7" y2="121.2"/>
			<line class="st141" x1="129.7" y1="100.2" x2="141.7" y2="121.2"/>
			<line class="st141" x1="129.7" y1="100.2" x2="141.7" y2="121.2"/>
			<line class="st142" x1="127" y1="99.1" x2="139.6" y2="121.2"/>
			<line class="st142" x1="127" y1="99.1" x2="139.6" y2="121.2"/>
			<line class="st143" x1="112.5" y1="97.3" x2="126.1" y2="121.2"/>
			<line class="st143" x1="112.5" y1="97.3" x2="126.1" y2="121.2"/>
			<line class="st144" x1="110.7" y1="97.3" x2="124.3" y2="121.2"/>
			<line class="st144" x1="110.7" y1="97.3" x2="124.3" y2="121.2"/>
		</g>
	</g>
	<g>
		<defs>
			<path id="SVGID_117_" d="M135,103.9l0.1,0.1c0,0.1,4.4,6.8,11.1,7.9c1.8,0.3,3.1,0,4-0.8c1.1-1.1,1.2-3,1.1-3.9L135,103.9z"/>
		</defs>
		<defs>
			<path id="SVGID_118_" d="M135,103.9l0.1,0.1c0,0.1,4.4,6.8,11.1,7.9c1.8,0.3,3.1,0,4-0.8c1.1-1.1,1.2-3,1.1-3.9L135,103.9z"/>
		</defs>
		<clipPath id="SVGID_10_">
			<use xlink:href="#SVGID_117_"  style="overflow:visible;"/>
		</clipPath>
		<clipPath id="SVGID_13_" style="clip-path:url(#SVGID_10_);">
			<use xlink:href="#SVGID_118_"  style="overflow:visible;"/>
		</clipPath>
		<g class="st22">
			<line class="st140" x1="140.8" y1="101.6" x2="152" y2="121.2"/>
			<line class="st140" x1="140.8" y1="101.6" x2="152" y2="121.2"/>
			<line class="st141" x1="137.6" y1="101.6" x2="148.8" y2="121.2"/>
			<line class="st141" x1="137.6" y1="101.6" x2="148.8" y2="121.2"/>
		</g>
	</g>
	<path class="st147" d="M138.4,114.8c0.4,0.2,0.6,0.7,0.4,1.1s-0.5,0.7-1,0.6c0.3,0.6,0,1.3-0.5,1.7c-0.5,0.4-1.2,0.5-1.8,0.4
		c-0.6-0.1-1.2-0.3-1.8-0.6c-0.6-0.3-1.2-0.5-1.8-0.7"/>
	<path class="st147" d="M132.3,114.9c0,0,3.2,2,5.4,1.5"/>
	<path class="st8" d="M138.2,114.5c0,0,1.9,1.8-0.9,1.8c-2.8,0-4.8-1.2-5.4-1.5L138.2,114.5z"/>
	<g>
		<path class="st92" d="M138.1,112.3c0.4,0.2,0.7,0.6,1,0.9c0.1,0.2,0.3,0.4,0.3,0.7c0.1,0.3-0.2,0.8-0.5,0.9
			c-0.3,0.1-0.6,0.2-0.8,0.2l-0.6,0.1l-1.3,0.1c-1.7,0-3.4,0-5.1-0.3c1.7-0.4,3.4-0.6,5.1-0.7l1.3,0c0.4,0,0.9,0,1.1,0
			c0.1,0,0.1,0,0.2-0.1c0-0.1,0-0.3-0.1-0.5C138.5,113,138.3,112.7,138.1,112.3z"/>
	</g>
	
		<ellipse transform="matrix(0.1696 -0.9855 0.9855 0.1696 -20.5658 193.4599)" class="st148" cx="104.5" cy="108.9" rx="5.9" ry="3.3"/>
	<path class="st127" d="M128.8,88.3c-1-0.3-2-0.6-3.2-0.7c-15.6-2-19.7,18.8-19.7,18.8L105,103c0,0,2-19.6,20.9-15.5
		C126.9,87.7,127.9,88,128.8,88.3"/>
	<g>
		<path class="st149" d="M125.6,87.6c-2.5-0.2-5.1,0-7.4,0.9c-2.3,0.9-4.3,2.4-5.9,4.3c-1.6,1.9-2.9,4.1-3.9,6.4
			c-1,2.3-1.8,4.7-2.5,7.2c0.3-2.5,1-5,1.9-7.4c0.9-2.4,2.2-4.6,3.9-6.6c1.7-1.9,3.8-3.6,6.3-4.4c1.2-0.4,2.5-0.6,3.8-0.7
			C123.1,87.3,124.3,87.4,125.6,87.6z"/>
	</g>
	
		<ellipse transform="matrix(0.1696 -0.9855 0.9855 0.1696 -20.906 192.8241)" class="st124" cx="104" cy="108.8" rx="5.9" ry="3.3"/>
	<ellipse class="st127" cx="103" cy="108.9" rx="3.1" ry="5.3"/>
	
		<ellipse transform="matrix(0.9876 -0.1568 0.1568 0.9876 -15.8288 17.4338)" class="st124" cx="102.6" cy="109" rx="1.9" ry="3.2"/>
	
		<ellipse transform="matrix(0.9876 -0.1568 0.1568 0.9876 -15.869 17.3221)" class="st124" cx="101.9" cy="109.2" rx="1.5" ry="2.5"/>
</g>
</svg>
