<?xml version="1.0" encoding="utf-8"?>
<!-- Generator: Adobe Illustrator 22.0.0, SVG Export Plug-In . SVG Version: 6.00 Build 0)  -->
<svg version="1.1" id="mascotte" xmlns="http://www.w3.org/2000/svg" xmlns:xlink="http://www.w3.org/1999/xlink" x="0px" y="0px"
	 viewBox="0 0 245.8 245.8" style="enable-background:new 0 0 245.8 245.8;" xml:space="preserve">
<style type="text/css">
	.st0{opacity:0.6;}
	.st1{fill-rule:evenodd;clip-rule:evenodd;fill:#FFDF43;}
	.st2{fill-rule:evenodd;clip-rule:evenodd;fill:url(#SVGID_1_);}
	.st3{fill-rule:evenodd;clip-rule:evenodd;fill:#FAB010;}
	.st4{fill-rule:evenodd;clip-rule:evenodd;fill:#157EBF;}
	.st5{opacity:0.6;fill:#FFE565;}
	.st6{opacity:0.6;fill:#FCDE48;}
	.st7{fill-rule:evenodd;clip-rule:evenodd;fill:#AA5D0A;}
	.st8{fill-rule:evenodd;clip-rule:evenodd;fill:#FDFEFE;}
	.st9{fill:#C8650D;}
	.st10{fill-rule:evenodd;clip-rule:evenodd;fill:#C8650D;}
	.st11{fill-rule:evenodd;clip-rule:evenodd;}
	.st12{clip-path:url(#SVGID_4_);}
	.st13{clip-path:url(#SVGID_5_);}
	.st14{fill:none;stroke:#FFFFFF;stroke-width:4;stroke-miterlimit:10;}
	.st15{fill:none;stroke:#FFFFFF;stroke-width:0.75;stroke-miterlimit:10;}
	.st16{fill:none;stroke:#FFFFFF;stroke-width:2;stroke-miterlimit:10;}
	.st17{fill:none;stroke:#FFFFFF;stroke-width:1.75;stroke-miterlimit:10;}
	.st18{fill:none;stroke:#FFFFFF;stroke-width:0.25;stroke-miterlimit:10;}
	.st19{clip-path:url(#SVGID_8_);}
	.st20{clip-path:url(#SVGID_9_);}
	.st21{fill-rule:evenodd;clip-rule:evenodd;fill:url(#SVGID_10_);}
	.st22{clip-path:url(#SVGID_13_);}
	.st23{clip-path:url(#SVGID_14_);}
	.st24{clip-path:url(#SVGID_17_);}
	.st25{clip-path:url(#SVGID_18_);}
	.st26{fill-rule:evenodd;clip-rule:evenodd;fill:url(#SVGID_19_);}
	.st27{clip-path:url(#SVGID_22_);}
	.st28{clip-path:url(#SVGID_23_);}
	.st29{clip-path:url(#SVGID_26_);}
	.st30{clip-path:url(#SVGID_27_);}
	.st31{fill:none;}
	.st32{fill:#4D2200;}
	.st33{fill:#3B5172;}
	.st34{fill:#60BFBB;}
	.st35{fill:#B3E5E2;}
	.st36{fill:#9BFFF8;}
	.st37{fill:url(#XMLID_7_);}
	.st38{fill:url(#XMLID_8_);}
	.st39{fill:url(#XMLID_9_);}
	.st40{fill:url(#XMLID_10_);}
	.st41{fill:url(#XMLID_11_);}
	.st42{fill:url(#XMLID_12_);}
	.st43{fill:url(#XMLID_13_);}
	.st44{fill:url(#XMLID_15_);}
	.st45{fill:url(#XMLID_16_);}
	.st46{fill:url(#XMLID_18_);}
	.st47{fill:url(#XMLID_20_);}
	.st48{fill:url(#XMLID_21_);}
	.st49{fill:url(#XMLID_22_);}
	.st50{fill:url(#XMLID_23_);}
	.st51{fill:url(#XMLID_25_);}
	.st52{fill:url(#XMLID_26_);}
	.st53{fill:url(#XMLID_27_);}
	.st54{fill-rule:evenodd;clip-rule:evenodd;fill:url(#SVGID_28_);}
	.st55{fill:#C95534;}
	.st56{fill:url(#SVGID_29_);}
	.st57{fill:#A2CBF1;}
	.st58{fill:#157EBF;}
	.st59{clip-path:url(#SVGID_31_);fill:none;stroke:#2B89E0;stroke-width:2.8631;stroke-miterlimit:10;}
	.st60{fill:url(#SVGID_32_);}
	.st61{clip-path:url(#SVGID_34_);fill:none;stroke:#2B89E0;stroke-width:2.8631;stroke-miterlimit:10;}
	.st62{fill:#CC5D3F;}
	.st63{fill:#FFC66B;}
	.st64{fill:#FFE3A3;}
	.st65{fill:#2B89E0;}
	.st66{fill-rule:evenodd;clip-rule:evenodd;fill:#FAB315;}
	.st67{clip-path:url(#SVGID_37_);}
	.st68{clip-path:url(#SVGID_38_);}
	.st69{clip-path:url(#SVGID_41_);}
	.st70{clip-path:url(#SVGID_42_);}
	.st71{fill-rule:evenodd;clip-rule:evenodd;fill:url(#SVGID_43_);}
	.st72{clip-path:url(#SVGID_46_);}
	.st73{clip-path:url(#SVGID_47_);}
	.st74{clip-path:url(#SVGID_50_);}
	.st75{clip-path:url(#SVGID_51_);}
	.st76{fill-rule:evenodd;clip-rule:evenodd;fill:url(#SVGID_52_);}
	.st77{fill-rule:evenodd;clip-rule:evenodd;fill:#42433E;}
	.st78{clip-path:url(#SVGID_54_);}
	.st79{fill-rule:evenodd;clip-rule:evenodd;fill:#FFFFFF;}
	.st80{clip-path:url(#SVGID_57_);}
	.st81{clip-path:url(#SVGID_58_);}
	.st82{clip-path:url(#SVGID_61_);}
	.st83{clip-path:url(#SVGID_62_);}
	.st84{fill-rule:evenodd;clip-rule:evenodd;fill:url(#SVGID_63_);}
	.st85{clip-path:url(#SVGID_65_);}
	.st86{fill:#FAB010;}
	.st87{clip-path:url(#SVGID_68_);}
	.st88{clip-path:url(#SVGID_69_);}
	.st89{clip-path:url(#SVGID_72_);}
	.st90{clip-path:url(#SVGID_73_);}
	.st91{fill-rule:evenodd;clip-rule:evenodd;fill:url(#SVGID_74_);}
	.st92{fill:#AA5D0A;}
	.st93{clip-path:url(#SVGID_77_);}
	.st94{clip-path:url(#SVGID_78_);}
	.st95{clip-path:url(#SVGID_81_);}
	.st96{clip-path:url(#SVGID_82_);}
	.st97{fill-rule:evenodd;clip-rule:evenodd;fill:url(#SVGID_83_);}
	.st98{fill-rule:evenodd;clip-rule:evenodd;fill:#E9AB48;}
	.st99{fill-rule:evenodd;clip-rule:evenodd;fill:#AA2C0A;}
	.st100{fill-rule:evenodd;clip-rule:evenodd;fill:#FFE565;}
	.st101{fill-rule:evenodd;clip-rule:evenodd;fill:#753E22;}
	.st102{fill-rule:evenodd;clip-rule:evenodd;fill:#3CB13C;}
	.st103{clip-path:url(#SVGID_86_);}
	.st104{clip-path:url(#SVGID_87_);}
	.st105{clip-path:url(#SVGID_90_);}
	.st106{clip-path:url(#SVGID_91_);}
	.st107{fill-rule:evenodd;clip-rule:evenodd;fill:url(#SVGID_92_);}
	.st108{clip-path:url(#SVGID_95_);}
	.st109{clip-path:url(#SVGID_96_);}
	.st110{clip-path:url(#SVGID_99_);}
	.st111{clip-path:url(#SVGID_100_);}
	.st112{fill-rule:evenodd;clip-rule:evenodd;fill:url(#SVGID_101_);}
	.st113{fill:#A7A89E;}
	.st114{fill:none;stroke:#A7A89E;stroke-width:0.25;stroke-miterlimit:10;}
	.st115{fill:#FDBA1D;}
	.st116{fill:#FFFFFF;}
	.st117{fill:#42433E;}
	.st118{fill:#2B2B28;}
	.st119{fill:#111110;}
	.st120{clip-path:url(#SVGID_104_);}
	.st121{clip-path:url(#SVGID_105_);}
	.st122{clip-path:url(#SVGID_108_);}
	.st123{clip-path:url(#SVGID_109_);}
	.st124{fill-rule:evenodd;clip-rule:evenodd;fill:#33383F;}
	.st125{fill:#272E35;}
	.st126{fill-rule:evenodd;clip-rule:evenodd;fill:url(#SVGID_110_);}
	.st127{fill-rule:evenodd;clip-rule:evenodd;fill:#434E5B;}
	.st128{opacity:0.5;fill-rule:evenodd;clip-rule:evenodd;fill:#FDFEFE;}
	.st129{fill-rule:evenodd;clip-rule:evenodd;fill:#FF4100;}
	.st130{fill-rule:evenodd;clip-rule:evenodd;fill:#7A1A00;}
	.st131{fill-rule:evenodd;clip-rule:evenodd;fill:#11A700;}
	.st132{fill-rule:evenodd;clip-rule:evenodd;fill:#165500;}
	.st133{fill-rule:evenodd;clip-rule:evenodd;fill:#0072CC;}
	.st134{fill-rule:evenodd;clip-rule:evenodd;fill:#00446F;}
	.st135{fill-rule:evenodd;clip-rule:evenodd;fill:url(#SVGID_111_);}
	.st136{fill-rule:evenodd;clip-rule:evenodd;fill:url(#SVGID_112_);}
	.st137{fill-rule:evenodd;clip-rule:evenodd;fill:#FCCF4E;}
	.st138{clip-path:url(#SVGID_115_);}
	.st139{clip-path:url(#SVGID_116_);}
	.st140{fill:none;stroke:#FFFFFF;stroke-width:3.3578;stroke-miterlimit:10;}
	.st141{fill:none;stroke:#FFFFFF;stroke-width:0.6296;stroke-miterlimit:10;}
	.st142{fill:none;stroke:#FFFFFF;stroke-width:1.6789;stroke-miterlimit:10;}
	.st143{fill:none;stroke:#FFFFFF;stroke-width:1.4691;stroke-miterlimit:10;}
	.st144{fill:none;stroke:#FFFFFF;stroke-width:0.2099;stroke-miterlimit:10;}
	.st145{clip-path:url(#SVGID_119_);}
	.st146{clip-path:url(#SVGID_120_);}
	.st147{fill-rule:evenodd;clip-rule:evenodd;fill:none;stroke:#AA5D0A;stroke-width:0.9654;stroke-miterlimit:10;}
	.st148{fill-rule:evenodd;clip-rule:evenodd;fill:#272E35;}
	.st149{fill:#33383F;}
	.st150{fill-rule:evenodd;clip-rule:evenodd;fill:url(#SVGID_121_);}
	.st151{fill:#4F0000;}
	.st152{fill:url(#SVGID_122_);}
	.st153{clip-path:url(#SVGID_124_);}
	.st154{fill:#EF7031;}
	.st155{fill:#F9CC02;}
	.st156{fill:#929497;}
	.st157{fill:#FF4100;}
	.st158{fill:#231F20;}
	.st159{fill:#B3B3B3;}
	.st160{fill:#58595B;}
	.st161{fill-rule:evenodd;clip-rule:evenodd;fill:#FAB212;}
	.st162{fill-rule:evenodd;clip-rule:evenodd;fill:url(#SVGID_125_);}
	.st163{clip-path:url(#SVGID_128_);}
	.st164{clip-path:url(#SVGID_129_);}
	.st165{fill:none;stroke:#FFFFFF;stroke-width:3.7719;stroke-miterlimit:10;}
	.st166{fill:none;stroke:#FFFFFF;stroke-width:0.7072;stroke-miterlimit:10;}
	.st167{fill:none;stroke:#FFFFFF;stroke-width:1.8859;stroke-miterlimit:10;}
	.st168{fill:none;stroke:#FFFFFF;stroke-width:1.6502;stroke-miterlimit:10;}
	.st169{fill:none;stroke:#FFFFFF;stroke-width:0.2357;stroke-miterlimit:10;}
	.st170{clip-path:url(#SVGID_132_);}
	.st171{clip-path:url(#SVGID_133_);}
	.st172{fill:#FFD28C;}
	.st173{fill:#EEB96C;}
	.st174{fill:#DB84B5;}
	.st175{fill:#62B146;}
	.st176{fill:#A9C63D;}
	.st177{fill:#957F4B;}
	.st178{fill:#AD9568;}
	.st179{fill:#825F26;}
	.st180{fill:#CE7829;}
	.st181{fill:#AC5A26;}
	.st182{fill-rule:evenodd;clip-rule:evenodd;fill:none;stroke:#EAA211;stroke-width:5;stroke-miterlimit:10;}
	.st183{fill-rule:evenodd;clip-rule:evenodd;fill:url(#SVGID_134_);}
	.st184{fill:#FA852D;}
	.st185{fill:#F5752A;}
	.st186{fill:#F99E29;}
	.st187{fill-rule:evenodd;clip-rule:evenodd;fill:none;stroke:#FABA24;stroke-width:5;stroke-miterlimit:10;}
	.st188{fill-rule:evenodd;clip-rule:evenodd;fill:#EAA211;}
	.st189{fill-rule:evenodd;clip-rule:evenodd;fill:#FABA24;}
	.st190{fill:url(#SVGID_135_);}
	.st191{fill:url(#SVGID_136_);}
	.st192{filter:url(#Adobe_OpacityMaskFilter);}
	.st193{filter:url(#Adobe_OpacityMaskFilter_1_);}
	.st194{mask:url(#SVGID_137_);fill:url(#SVGID_138_);}
	.st195{opacity:0.14;fill:url(#SVGID_139_);}
	.st196{filter:url(#Adobe_OpacityMaskFilter_2_);}
	.st197{filter:url(#Adobe_OpacityMaskFilter_3_);}
	.st198{mask:url(#SVGID_140_);fill:url(#SVGID_141_);}
	.st199{opacity:0.14;fill:url(#SVGID_142_);}
	.st200{fill:url(#SVGID_143_);}
	.st201{fill:url(#SVGID_144_);}
	.st202{fill:url(#SVGID_145_);}
	.st203{fill:url(#SVGID_146_);}
	.st204{fill:#CBEAF6;}
	.st205{fill:#96D7ED;}
	.st206{fill:#F06888;}
	.st207{fill:#F395BE;}
	.st208{fill:#C84C27;}
	.st209{fill:#F16822;}
	.st210{fill:#F37940;}
	.st211{fill:#F37B4C;}
	.st212{fill:#4C3427;}
	.st213{fill:#9F3022;}
	.st214{fill-rule:evenodd;clip-rule:evenodd;fill:url(#SVGID_147_);}
	
		.st215{fill-rule:evenodd;clip-rule:evenodd;fill:none;stroke:#FAB010;stroke-width:10.343;stroke-linecap:round;stroke-linejoin:round;stroke-miterlimit:10;}
	
		.st216{fill-rule:evenodd;clip-rule:evenodd;fill:none;stroke:#FAB010;stroke-width:11;stroke-linecap:round;stroke-linejoin:round;stroke-miterlimit:10;}
	.st217{clip-path:url(#SVGID_150_);}
	.st218{clip-path:url(#SVGID_151_);}
	.st219{fill:none;stroke:#FFFFFF;stroke-width:4.33;stroke-miterlimit:10;}
	.st220{fill:none;stroke:#FFFFFF;stroke-width:0.8119;stroke-miterlimit:10;}
	.st221{fill:none;stroke:#FFFFFF;stroke-width:2.165;stroke-miterlimit:10;}
	.st222{fill:none;stroke:#FFFFFF;stroke-width:1.8944;stroke-miterlimit:10;}
	.st223{fill:none;stroke:#FFFFFF;stroke-width:0.2706;stroke-miterlimit:10;}
	.st224{clip-path:url(#SVGID_154_);}
	.st225{clip-path:url(#SVGID_155_);}
	.st226{fill:none;stroke:#A7A89E;stroke-width:0.2797;stroke-miterlimit:10;}
	
		.st227{fill-rule:evenodd;clip-rule:evenodd;fill:none;stroke:#FFFFFF;stroke-width:0.75;stroke-linecap:round;stroke-miterlimit:10;}
	.st228{fill-rule:evenodd;clip-rule:evenodd;fill:none;stroke:#FFFFFF;stroke-width:2.5187;stroke-miterlimit:10;}
	.st229{fill:#4F2706;}
	.st230{opacity:0.25;fill:#FFFFFF;}
	.st231{fill-rule:evenodd;clip-rule:evenodd;fill:#A7A89E;}
	.st232{fill-rule:evenodd;clip-rule:evenodd;fill:none;stroke:#42433E;stroke-width:0.9637;stroke-miterlimit:10;}
	.st233{opacity:0.5;fill:url(#SVGID_156_);}
	.st234{fill:#AEAFA3;}
	.st235{fill-rule:evenodd;clip-rule:evenodd;fill:url(#SVGID_157_);}
	.st236{fill:url(#SVGID_158_);}
	.st237{opacity:0.4;}
	.st238{fill:url(#SVGID_159_);}
	.st239{fill-rule:evenodd;clip-rule:evenodd;fill:none;stroke:#FAB011;stroke-width:5.3617;stroke-miterlimit:10;}
	
		.st240{fill-rule:evenodd;clip-rule:evenodd;fill:none;stroke:#FABA24;stroke-width:3;stroke-linecap:round;stroke-linejoin:round;stroke-miterlimit:10;}
	
		.st241{fill-rule:evenodd;clip-rule:evenodd;fill:none;stroke:#FABA24;stroke-width:2;stroke-linecap:round;stroke-linejoin:round;stroke-miterlimit:10;}
	
		.st242{fill-rule:evenodd;clip-rule:evenodd;fill:none;stroke:#FABA24;stroke-width:2.5;stroke-linecap:round;stroke-linejoin:round;stroke-miterlimit:10;}
	.st243{fill-rule:evenodd;clip-rule:evenodd;fill:url(#SVGID_160_);}
	.st244{fill-rule:evenodd;clip-rule:evenodd;fill:url(#SVGID_161_);}
	.st245{opacity:0.5;fill:#FFE3A3;}
	.st246{fill-rule:evenodd;clip-rule:evenodd;fill:#32383F;}
	.st247{fill:#32383F;}
	.st248{fill:url(#SVGID_162_);}
	.st249{filter:url(#Adobe_OpacityMaskFilter_4_);}
	.st250{filter:url(#Adobe_OpacityMaskFilter_5_);}
	.st251{mask:url(#SVGID_163_);fill:url(#SVGID_164_);}
	.st252{opacity:0.5;fill:url(#SVGID_165_);}
	.st253{filter:url(#Adobe_OpacityMaskFilter_6_);}
	.st254{filter:url(#Adobe_OpacityMaskFilter_7_);}
	.st255{mask:url(#SVGID_166_);fill:url(#SVGID_167_);}
	.st256{opacity:0.5;fill:url(#SVGID_168_);}
	.st257{fill:url(#SVGID_169_);}
	.st258{opacity:0.5;}
	.st259{fill:#FFFDF0;}
	.st260{fill-rule:evenodd;clip-rule:evenodd;fill:none;stroke:#32383F;stroke-width:2;stroke-linecap:round;stroke-miterlimit:10;}
	.st261{opacity:0.2;}
	.st262{fill:none;stroke:#FDFEFE;stroke-width:2;stroke-miterlimit:10;}
	.st263{fill:none;stroke:#FDFEFE;stroke-width:2;stroke-miterlimit:10;stroke-dasharray:1.0301,8.2408;}
</style>
<g id="Shape_9_15_" class="st0">
	<g>
		<path class="st1" d="M179.6,103c-6.7-17.3-16.1-27-33.4-33.2c-17.2-6.2-43.6-6.5-57.3,3.7c-12.9,9.7-34.4,30.6-27.3,67.3
			c3,15.4,6.2,34.5,23.5,42.4c16.8,7.7,34,22.5,45.3,23.6c14.3,1.3,34.1-2.8,47.1-29.1C188.4,155.7,189.2,128,179.6,103z"/>
	</g>
</g>
<path class="st189" d="M170.6,159.8c-4.1,2.2-6.4,1.3-1.6-3.5c-0.2-0.6-0.5-1.2-0.8-2.1c-1.6-5.4-0.1-8.2-0.1-8.2s1.6-1.6,2.1,0
	c0.5,1.6,0.9,5.8,0.9,5.8s-0.5-4,0.6-4.1c3.4-0.3,6.4,3.7,6.8,5.8c0.5,2,0.7,2.9-0.1,4.4c-0.2,0.5-1.1,0.8-2.2,0.8
	C177.1,160.5,171.6,163,170.6,159.8z"/>
<path class="st187" d="M161,182.6c6.2-2.4,9.3-6.9,11.9-11.9c2.7-5,3.6-8.7,1.5-14"/>
<radialGradient id="SVGID_1_" cx="137.478" cy="92.6616" r="35.476" gradientTransform="matrix(0.9906 0.1366 -0.1366 0.9906 11.6131 62.8622)" gradientUnits="userSpaceOnUse">
	<stop  offset="0" style="stop-color:#FCD253"/>
	<stop  offset="1" style="stop-color:#FAB010"/>
</radialGradient>
<path class="st2" d="M174.3,138.7c-4.2-28.3-19-40-36.6-39.2c-18.3,0.8-48.2,12.3-49.8,32.6c-2.3,29,15.8,52.9,35.1,63.2
	c18.7,10,31.9-3.4,37.4-8.3C165.4,182.6,178.5,167,174.3,138.7z"/>
<g>
	<g>
		<g>
			<linearGradient id="SVGID_4_" gradientUnits="userSpaceOnUse" x1="73.7273" y1="163.8647" x2="53.5606" y2="169.1981">
				<stop  offset="0" style="stop-color:#32383F"/>
				<stop  offset="1" style="stop-color:#000000"/>
			</linearGradient>
			<path style="fill:url(#SVGID_4_);" d="M94.5,181.7c0.1,0,0.1-0.1,0.1-0.2c0-0.4-0.2-0.7-0.4-0.9c0.1-0.6,0.1-1.1,0-1.7
				c0-0.2-0.1-0.4-0.1-0.6c0,0,0,0,0,0c-0.2-0.9-0.7-1.7-1.3-2.4c-0.2-0.2-0.5,0-0.5,0.3c-0.1,0.1-0.1,0.2,0,0.4
				c0.8,0.8,1.2,1.9,1.2,3.1c-0.3-0.9-0.7-1.7-1.2-2.5c0,0,0,0,0,0c-0.1-0.1-0.1-0.1-0.2-0.2c0,0-0.1-0.1-0.1-0.1
				c-0.2-0.1-0.6,0.1-0.4,0.4c0.5,0.8,0.8,1.6,0.9,2.4c0,0.1,0,0.3,0,0.4c0,0-0.1,0-0.1,0c0-0.1,0-0.1,0-0.2c-0.5-0.8-1-1.5-1.5-2.3
				c-0.5-1-1-1.9-1.7-2.7c0,0-0.1-0.1-0.1-0.1c-0.2-0.1-0.6,0.1-0.4,0.4c0.6,0.9,1.2,1.8,1.8,2.7c0.3,0.7,0.6,1.5,0.8,2.3
				c0,0,0,0,0,0.1c-0.1,0-0.2,0-0.4,0c-0.1,0-0.2,0-0.3,0c0,0,0,0,0,0c-0.4-0.8-0.9-1.6-1.3-2.3c-0.2-0.3-0.7,0-0.5,0.3
				c0.3,0.6,0.5,1.3,0.6,2c0,0,0,0-0.1,0c0,0,0,0,0,0c0,0,0,0,0,0c-0.1,0-0.3,0-0.4,0c0,0,0,0,0,0c0-0.2-0.1-0.3-0.3-0.3
				c-0.2,0-0.3,0.1-0.3,0.3c-1.1,0-2.2,0-3.3,0.2c0-0.2-0.1-0.4-0.1-0.6c0-0.2-0.2-0.3-0.4-0.2c-0.2,0-0.3,0.2-0.2,0.4
				c0,0.2,0.1,0.3,0.1,0.5c-0.1,0-0.1,0-0.2,0c-0.1-0.2-0.2-0.4-0.2-0.6c0-0.1-0.1-0.2-0.2-0.2c0-0.1-0.1-0.2-0.2-0.2l-0.4-0.2
				c0.4-0.7,0.8-1.3,1.3-2c0.4,0.2,0.7,0.4,1,0.7c0.3,0.3,0.7-0.2,0.4-0.4c-0.3-0.3-0.7-0.6-1.1-0.8c0-0.1,0.1-0.1,0.1-0.2
				c0,0,0.1-0.1,0.1-0.1c0,0,0,0,0,0c0.1-0.1,0.1-0.2,0.2-0.3c0,0,0,0,0,0c0.8,0.6,1.5,1.4,1.9,2.4c0,0.1,0.1,0.1,0.2,0.2
				c0.2,0.3,0.7,0,0.5-0.4c-0.4-0.9-0.9-1.7-1.5-2.5l0.1,0c0.4,0.2,0.8,0.4,1.1,0.7c0.1,0.2,0.3,0.3,0.4,0.5c0.2,0.3,0.8,0,0.5-0.3
				c0-0.1-0.1-0.2-0.1-0.2c0-0.1,0-0.1-0.1-0.2c0,0-0.1-0.1-0.1-0.1c-0.5-0.7-1-1.3-1.7-1.8c0,0,0.1-0.1,0.1-0.1c0,0,0,0,0,0
				c0,0,0.1,0.1,0.1,0.1c0.1,0.1,0.3,0,0.4-0.1c0,0,0,0,0.1,0c0,0,0,0-0.1,0c0,0,0,0,0,0c0.1-0.2,0-0.3-0.1-0.4l-0.1,0
				c0-0.1,0.1-0.1,0.2-0.2c0,0,0,0,0,0c0.2-0.3,0.4-0.6,0.6-0.9c0.6,0.4,1.2,0.9,1.6,1.5c0.2,0.3,0.7-0.1,0.5-0.4
				c-0.2-0.3-0.3-0.7-0.5-1c0,0,0,0,0-0.1c0-0.1-0.1-0.2-0.1-0.2c0.1-0.1,0.1-0.2,0-0.3c-0.1-0.3-0.3-0.5-0.6-0.7
				c0,0,0.1-0.1,0.1-0.1c0.8,0.6,1.5,1.4,2,2.3c0.3,0.7,0.5,1.4,0.6,2.1c0.1,0.4,0.7,0.2,0.6-0.2c-0.1-0.7-0.3-1.3-0.5-2
				c0-0.1,0-0.1,0-0.2c0,0,0-0.1,0-0.1c-0.4-1.1-1.1-2.1-1.9-3c0.1-0.2,0.3-0.3,0.4-0.5c0.2-0.2,0.1-0.6-0.1-0.9
				c-0.1-0.1-0.1-0.2-0.2-0.3c0,0,0-0.1,0-0.2c-0.2-0.4-0.6-0.6-1-0.7c-0.1-0.1-0.3-0.2-0.4-0.2c-0.2-0.1-0.4-0.1-0.6-0.2
				c-0.1-0.1-0.3-0.1-0.4-0.2c0.1,0,0.3-0.1,0.4-0.1c0.3-0.1,0.3-0.5,0-0.6c-0.2-0.1-0.5-0.1-0.7-0.2c0,0,0-0.1,0.1-0.1
				c0.2-0.4,0.2-0.9,0.1-1.4c-0.2-1-0.5-2-0.8-3c-0.1-0.4-0.3-0.8-0.4-1.2c-0.2-1.1-0.5-2.2-0.9-3.3c-0.2-0.5-0.4-1-0.8-1.4
				c-0.3-0.3-0.9-0.5-1.3-0.4c0,0-0.1,0-0.1,0.1c-0.4,0.2-0.4,0.7-0.1,1c0.3,0.4,0.7,0.7,1,1.1c0.3,0.3,0.6,0.6,0.9,0.9
				c0.3,0.7,0.6,1.4,0.9,2.1c0,0,0,0.1,0,0.1c0,0.1,0,0.1,0.1,0.2c0.1,0.2,0.1,0.3,0.2,0.5c0.3,0.9,0.6,1.8,0.8,2.7
				c0.1,0.5,0.4,1.5,0,1.9c-0.2,0-0.4-0.1-0.5-0.1c-0.1,0-0.2-0.1-0.3-0.1c-0.3-0.2-0.6-0.5-0.8-0.7c-2-2.5-4.6-4.6-7.5-6
				c-0.1-0.1-0.2-0.1-0.4-0.1c-0.2-0.1-0.4-0.2-0.7-0.3c-0.2-0.1-0.5-0.2-0.7-0.3c-0.7-0.3-1.4-0.6-2.2-0.8
				c-0.2-0.1-0.5-0.1-0.7-0.2c-0.3-0.1-0.5-0.1-0.8-0.2c0,0,0,0,0,0c-0.8-0.1-1.6-0.2-2.4-0.2c0,0,0,0,0,0c0,0,0,0,0,0
				c-0.8,0-1.6,0.1-2.4,0.2c-0.2,0-0.4,0.1-0.7,0.1c-0.1-0.1-0.2-0.2-0.3-0.2c-0.3-0.1-0.5-0.3-0.8-0.4c-0.2-0.2-0.4-0.4-0.5-0.5
				c-0.1-0.2-0.3-0.4-0.4-0.6c0-0.1,0-0.1-0.1-0.2c-0.1-0.2-0.1-0.3-0.1-0.5c0-0.2-0.2-0.4-0.3-0.6c-0.1-0.1-0.1-0.2-0.2-0.2
				c-0.2-0.1-0.3-0.3-0.4-0.5c-0.2-0.3-0.4-0.6-0.6-1c-0.1-0.2-0.3-0.4-0.5-0.5c-0.1-0.1-0.3-0.2-0.4-0.3c-0.2-0.2-0.5-0.3-0.8-0.5
				c0,0,0,0,0,0c0,0-0.1,0-0.1,0c0-0.2-0.1-0.4-0.1-0.5c0-0.2-0.2-0.3-0.3-0.1c-0.1,0.1-0.2,0.2-0.4,0.2c-0.1-0.1-0.2-0.1-0.3-0.2
				c0,0-0.1-0.1-0.1-0.1c0,0,0,0,0,0.1c-0.2-0.1-0.4-0.2-0.6-0.3c0-0.2,0-0.5,0.1-0.7c0.1-0.2-0.2-0.4-0.3-0.2
				c-0.2,0.3-0.5,0.4-0.8,0.3c-0.1-0.1-0.3-0.1-0.4-0.2c-0.1-0.1-0.2-0.3-0.2-0.5c0-0.1-0.1-0.2-0.2-0.2c-0.2,0-0.4,0.1-0.6,0.1
				c-0.4-0.2-0.8-0.5-1.3-0.7c-0.1-0.1-0.2,0-0.3,0.1c-0.1,0.2-0.3,0.3-0.5,0.3c-0.1-0.1-0.3-0.2-0.4-0.1c0,0,0,0-0.1,0
				c-0.1,0.1-0.1,0.3,0,0.3c0,0,0,0,0.1,0c0,0,0.1,0.1,0.1,0.1c0,0,0,0,0,0c0,0-0.1,0-0.1,0c0,0-0.1,0-0.1,0c-0.2,0-0.3-0.1-0.5-0.2
				c-0.1-0.1-0.3,0-0.3,0.2c0,0.1-0.2,0.2-0.3,0.1c-0.2-0.1-0.4,0.2-0.2,0.3c0.2,0.2,0.3,0.4,0.3,0.6c0,0.3-0.1,0.5-0.1,0.7
				c0,0.1,0,0.2,0,0.3c-0.1,0.1-0.1,0.2,0,0.3c0.3,0.2,0.4,0.5,0.3,0.8c0,0.1,0,0.2,0.1,0.2c0.1,0.1,0.2,0.2,0.3,0.3
				c0.1,0.1,0.2,0.2,0.3,0.3c0.5,0.6,1.1,1.1,1.6,1.7c0.1,0.1,0.2,0.3,0.2,0.4c0,0,0,0,0,0c-0.1-0.2-0.5-0.2-0.4-0.2c0,0,0,0-0.1,0
				c-1.1-1.2-2.2-2.4-3.4-3.5c-1.4-1.3-2.8-2.8-4.6-3.3c0,0-0.1,0-0.1,0c-0.1,0-0.2-0.1-0.3-0.1c0,0,0,0-0.1,0c0,0-0.1,0-0.1,0
				c0,0,0,0,0,0c-0.3,0-0.5,0-0.8,0.1c-0.2,0-0.3,0.2-0.1,0.3c0,0.1,0,0.1,0,0.2c-0.1,0.1-0.4,0.2-0.4,0.2c0,0-0.1,0-0.1,0
				c0,0,0,0,0,0.1c0,0,0,0,0.1,0l-0.6,0.3c-0.1,0.1-0.3,0.1-0.5,0.2c0,0,0,0,0,0c0,0,0,0,0,0.1c0,0,0,0,0,0.1
				c-0.1,0.2-0.2,0.4-0.5,0.4c-0.1,0-0.2,0.1-0.2,0.2c0,0.3-0.1,0.6-0.3,0.9c0,0-0.1,0-0.1,0c0,0.1,0,0.1,0,0.2
				c-0.2,0.2-0.4,0.4-0.5,0.6c-0.1,0.1-0.1,0.2,0,0.2c0.1,0.2,0,0.4-0.2,0.5c-0.1,0-0.1,0.1-0.1,0.1c-0.1,0.2-0.1,0.5-0.1,0.7
				c-0.1,0-0.1,0-0.2,0.1c0,0,0.1,0.1,0.1,0.1c0,0.2,0,0.5,0,0.7c-0.1,0.1-0.2,0.3-0.2,0.5c0,0.2,0.1,0.3,0.2,0.5c0,0.1,0,0.3,0,0.4
				c0,0.1-0.1,0.3-0.2,0.3c-0.1,0.1-0.1,0.2,0,0.3c0.1,0,0.2,0.1,0.3,0.2c0,0.2,0.1,0.3,0.2,0.5c0,0,0,0,0,0c-0.2,0.1-0.2,0.4,0,0.5
				c0.2,0.1,0.3,0,0.4-0.1c0.1,0.1,0.1,0.1,0.2,0.2c0.2,0.3,0.6,0.4,0.9,0.4c1.5,0.8,3.2,1.2,4.8,1.5c0,0,0,0,0,0
				c0.2,0,0.3,0.1,0.5,0.1c0,0,0,0,0,0c0.1,0,0.3,0,0.4,0.1c0.4,0.1,0.7,0.1,1.1,0.2c0.2,0.1,0.4,0.1,0.6,0.2
				c0.1,0.1,0.8,0.4,1.1,0.6c0.4,0.6,0.8,1.2,1.2,1.8c-0.1,0.1-0.2,0.4,0.1,0.5c0.1,0,0.1,0.1,0.2,0c0,0.1,0.1,0.1,0.1,0.1
				c0,0.1,0,0.3,0.1,0.3c0,0.1,0,0.2,0,0.2c0,0,0.1,0.1,0.1,0.1c0,0.1,0.1,0.1,0.2,0.1c0.1,0,0.1,0,0.2,0c0,0,0.1,0.1,0.1,0.1l0,0.1
				c0,0,0,0,0,0c-0.1,0.1-0.1,0.3,0.1,0.4c0.1,0.1,0.2,0.1,0.3,0c0,0,0,0,0,0c0,0-0.1,0-0.1,0.1c-0.1,0.1,0,0.3,0.1,0.4l0.1,0
				c0.1,0,0.2,0.1,0.3,0c0.1,0.1,0.2,0.2,0.2,0.4c0,0.1,0,0.1,0,0.1c0,0,0,0.1,0,0.1c-0.2,0.1-0.5,0.3-0.7,0.4
				c-0.1,0.1-0.2,0.2-0.1,0.3c-0.3,0.1-0.6,0.2-1,0.3c0,0,0,0,0,0c0,0,0,0,0,0c-0.1,0-0.2,0-0.2,0c0,0,0,0,0,0c-0.1,0-0.2,0-0.3,0
				c0,0,0,0,0,0c0,0,0,0,0,0c-0.2,0-0.4,0-0.6,0.1c-0.2,0-0.4,0-0.6,0c0,0,0,0-0.1,0c0,0,0,0,0,0c-0.1,0-0.1,0-0.1-0.1
				c0,0-0.1,0-0.1,0c-0.2,0-0.3,0.2-0.1,0.3c0.2,0.1,0.2,0.3,0.1,0.5c-0.1,0.1,0,0.3,0.1,0.3c0,0,0.1,0,0.1,0c0,0.1,0,0.2,0,0.3
				c-0.1,0-0.2,0.3,0,0.4c0.3,0.2,0.7,0.4,1,0.5c0,0,0.1,0,0.1,0c0,0,0,0,0.1,0c0.1,0,0.2,0,0.3-0.1c0.4-0.1,0.8-0.2,1.2-0.4
				c0,0,0,0,0.1,0c0.6-0.3,1.2-0.6,1.7-1c0,0,0.1,0,0.1-0.1c0.1,0,0.1-0.1,0.1-0.1c0.1-0.1,0.3-0.1,0.4,0c0,0,0,0,0,0l0.1,0
				c0.1,0,0.1,0,0.2,0l0,0c0,0.1,0.4,0.4,0.4,0.5c0.1,0.2,0.3,0.3,0.4,0.4c0,0.1-0.1,0.1-0.1,0.2c0,0.1,0.1,0.2,0.1,0.4
				c0,2.1,0.4,4.1,0.5,6.1c0.6,2,1.6,3.8,3,5.3c0.1,0.2,0.3,0.4,0.5,0.4c0.1,0.2,0.4,0.4,0.6,0.5c1,0.8,2.2,1.4,3.4,1.9
				c1.2,0.4,2.3,0.6,3.5,0.8c0.4,0.1,0.9,0.1,1.3,0.2c0,0,0,0,0-0.1c0,0,0,0-0.1,0c0.6,0,1.2,0.1,1.9,0.1c0,0,0,0,0,0
				c0.3,0,0.5,0,0.8,0c1.2,0,2.3,0,3.5-0.1c0.3,0.3,0.7,0.5,1.1,0.6c0.4,0.1,0.8,0,1.2,0c0.4-0.1,0.9-0.1,1.3-0.2
				c0.6-0.1,1.2-0.2,1.8-0.4c0.8-0.1,1.5-0.3,2.3-0.6c0,0,0.1,0,0.1,0c0.3,0,0.7-0.1,1-0.1c0.2,0,0.5-0.2,0.7-0.4
				c0.7-0.2,1.4-0.5,2.1-0.7c0.2-0.1,0.4-0.1,0.6-0.2c0.2-0.1,0.4-0.1,0.5-0.2c0.2,0,0.3-0.1,0.5-0.1c0,0,0,0,0,0
				c0.1,0,0.3,0,0.5-0.1c0.8-0.2,1.5-0.3,2.3-0.3c0.5,0.1,1,0.2,1.5,0.4c0.2,0.1,0.3,0.2,0.5,0.3C94.4,181.9,94.5,181.9,94.5,181.7z
				 M83.1,180.5c-0.3,0-0.5,0.1-0.8,0.2c0,0,0-0.1,0-0.1c0,0,0,0.1,0,0.1c-0.1,0-0.1,0-0.2,0c0.1-0.1,0.2-0.2,0.2-0.3
				c0.1-0.2,0.1-0.3,0.1-0.5c0-0.1,0.1-0.1,0.1-0.2c0,0,0,0,0,0l0.4,0.2c0,0,0,0,0,0c0,0,0,0,0,0C83,180.1,83,180.3,83.1,180.5z"/>
		</g>
	</g>
	<circle class="st64" cx="82.1" cy="169" r="0.6"/>
	<g id="Shape_9_32_" class="st237">
		<g>
			<path class="st1" d="M86.7,154.7c-0.3-1.1-1-1.9-2.4-2.6c-1.4-0.7-3.1-0.5-4.2,0c-1.1,0.5-2.4,1.4-2.3,3.6
				c0.1,2.3,1.7,3.7,3.3,4.1c1.2,0.3,2.9,0.5,4.4-0.8C86.7,158,87.1,156.4,86.7,154.7z"/>
		</g>
	</g>
	
		<radialGradient id="SVGID_5_" cx="81.3707" cy="150.8618" r="1.5996" gradientTransform="matrix(0.9763 0.2164 -0.2164 0.9763 35.9278 -8.6148)" gradientUnits="userSpaceOnUse">
		<stop  offset="0" style="stop-color:#FCD253"/>
		<stop  offset="1" style="stop-color:#FAB010"/>
	</radialGradient>
	<circle style="fill:url(#SVGID_5_);" cx="82.7" cy="156.3" r="1.6"/>
</g>
<path class="st3" d="M187.4,102.2c0,0-4.7,1.3-6.4,2.3c-1.7,1-3.4,3-3.4,3s3.2-0.1,4.5-1.2C183.4,105.3,187.4,102.2,187.4,102.2z"/>
<path class="st3" d="M179.7,83.8c0,0-4.7,4.8-6.3,7.2c-1.6,2.4-2.9,5.7-2.9,5.7s3.4-2.5,4.5-4.6C176.2,90.1,179.7,83.8,179.7,83.8z"
	/>
<path class="st3" d="M107.1,65.4c0,0,0,7,0.9,9.9c0.9,2.9,3.2,6.2,3.2,6.2s1.2-4.4,0.1-6.8C110.2,72.5,107.1,65.4,107.1,65.4z"/>
<path class="st3" d="M165,71.9c0,0-3.5,4.3-4.2,6.1c-0.6,1.6-0.6,3.7-0.6,3.7s2.2-1.3,2.6-2.7C163.1,78,165,71.9,165,71.9z"/>
<path class="st3" d="M80.4,98.6c0,0,4.7,4.2,6.7,5.2c1.8,0.9,4.1,1.3,4.1,1.3s-1.3-2.4-2.9-3C87.1,101.6,80.4,98.6,80.4,98.6z"/>
<path class="st3" d="M88.9,65.2c0,0,3.5,11.3,6.3,16.6c2.8,5.4,7.5,6.7,7.5,6.7s-0.3-4.7-2.5-8.9C98,75.5,88.9,65.2,88.9,65.2z"/>
<path class="st239" d="M120.3,88.1c2.2,4.9-1,13.3,1.8,18.3"/>
<path class="st239" d="M135.6,86.6c-1.1,5.2,3.9,12.8,2.2,18.3"/>
<g>
	<path class="st187" d="M114.3,183.8c5,9.2,0.2,19.7-2.4,20.5c-5.2,1.6-7-9.4-7.8-10.8c-0.3-1.1,0.7-2.2,0.7-2.2"/>
	<path class="st240" d="M110.4,190.6c-0.3-1.1-2.9-1.3-4-0.7c-1,0.5-0.8,2.1-0.8,3.2c0.1,1.1,0,1.9,0.7,2.8c0,0,3.6-0.7,4.1-2.8"/>
	<path class="st241" d="M103.2,191.1c0.8-1.6,1.1-3.5,1-5.3"/>
	<path class="st241" d="M103.1,193.1c0.1-1.8-0.2-3.6-1-5.3"/>
	<path class="st242" d="M104.1,192.7c1.4-2.4,2.3-5.1,2.6-7.9c0,0.1,0,0.1-0.1,0.2"/>
</g>
<linearGradient id="SVGID_8_" gradientUnits="userSpaceOnUse" x1="115.5943" y1="61.1734" x2="111.9401" y2="84.3169" gradientTransform="matrix(0.9475 -0.3196 0.3196 0.9475 -16.1923 42.1936)">
	<stop  offset="0" style="stop-color:#0E5480"/>
	<stop  offset="0.547" style="stop-color:#157EBF"/>
</linearGradient>
<path style="fill-rule:evenodd;clip-rule:evenodd;fill:url(#SVGID_8_);" d="M117.8,89.4c0,0-4.4-22.2-10.4-32.3c0,0-2.2-5.6-5.4-7.9
	c4.2,2.5,8.5,5.8,6.8,1.3c1.2,1.7,7.2,4.2,5.2-3.3c0,0,12.9,22.9,9.4,42.4C123.4,89.6,119.3,99.4,117.8,89.4z"/>
<linearGradient id="SVGID_9_" gradientUnits="userSpaceOnUse" x1="140.8293" y1="63.6683" x2="137.3889" y2="85.4579" gradientTransform="matrix(-1 0 0 1 275.0202 0)">
	<stop  offset="0" style="stop-color:#0E5480"/>
	<stop  offset="0.547" style="stop-color:#157EBF"/>
</linearGradient>
<path style="fill-rule:evenodd;clip-rule:evenodd;fill:url(#SVGID_9_);" d="M139.1,87.2c-0.4-4.9-1.8-15.2-0.8-25.6
	c0,0,0.7-8.8,1.2-12.7c-2.1,4.7-6.3,9.6-7.3,2.5c0.1,1.7-3.5,4.8-7.7-1c2.4,6.1,6.4,36.3,6.9,38.7C132.3,93.4,138.9,96.8,139.1,87.2
	z"/>
<path class="st245" d="M94.3,165.4c0,0-3.7-10.8,3.3-17.2c4.4-4,22.7-14.7,41.8-13.6c21.2,1.2,35.8,10,34.9,24.4l-0.4,2.2
	c1.3-16.1-12.5-22.5-33.7-23.8s-34.1,6.6-41.6,12.4c-7.5,5.8-3.5,17.2-3.5,17.2L94.3,165.4z"/>
<polygon class="st5" points="140.8,72.3 132.1,63.3 134.7,49 152.5,44.7 162.1,60.1 153.5,72.1 "/>
<polygon class="st6" points="137.7,80.3 132.5,74 134.5,63.4 145.6,59.5 151.3,70 145.8,79.4 "/>
<g>
	<path d="M123.1,167.4c1.2-0.7,2.7-0.8,4-0.5c1.4,0.2,2.7,0.7,3.9,1.4c0.6,0.3,1.2,0.7,1.8,1.1c0.5,0.4,1.1,0.8,1.6,1.3
		c0.5,0.5,1,0.9,1.5,1.4c0.4,0.5,0.9,1,1.3,1.5l-3.3-2.4l-1.7-1.1c-0.6-0.3-1.1-0.7-1.7-1c-1.1-0.7-2.4-1.1-3.6-1.5
		C125.7,167.3,124.4,167,123.1,167.4z"/>
</g>
<g>
	<path d="M142.7,174.4c0.8-0.9,1.8-1.7,2.8-2.5c1-0.7,2.1-1.4,3.3-1.8c1.2-0.4,2.5-0.8,3.9-0.2c0.6,0.3,1.1,0.9,1.3,1.5
		c0.2,0.6,0.2,1.3,0.2,1.9c-0.2-0.6-0.3-1.2-0.6-1.7c-0.3-0.5-0.7-0.9-1.2-1.1c-1-0.3-2.2,0-3.2,0.4c-1.1,0.4-2.2,1-3.2,1.6
		L142.7,174.4z"/>
</g>
<g>
	<path class="st9" d="M146.9,186.6c0.4,0,3.2-0.2,5.1,0.6c1.4,0.6,2.5,1.3,2.6,1.9c0.1,0.4-0.2,0.7-1,0.9c-0.1,0-0.2,0-0.3,0.1
		c-1.8,0.2-3.7-0.7-4.6-1c-1.1-0.4-2.1-1-2.7-1.6c-0.1-0.1-0.1-0.2-0.1-0.2C145.7,186.8,146.4,186.6,146.9,186.6
		C146.9,186.6,146.9,186.6,146.9,186.6"/>
</g>
<path class="st10" d="M120.5,183.9c4.6-2.3,11.1-2.4,13.6,0.1c1.2,1.3-0.7,3.4-5.1,4.8c-2.9,0.9-5.6,1.9-8.8,0.1
	C118.4,187.8,116.9,185.7,120.5,183.9z"/>
<path class="st246" d="M136.3,191.7c0,0,2.8,1,5.8-0.5c0,0,2.3,2.1-0.6,3.5S135.2,195.2,136.3,191.7z"/>
<path class="st64" d="M141.4,194.2c0,0.5-0.9,1.5-1.9,1.5s-1.9-0.9-1.9-1.5s0.9-1,1.9-1S141.4,193.7,141.4,194.2z"/>
<g>
	<path class="st9" d="M130.7,190.2c0.9,0,1.8,0.2,2.6,0.4c0.9,0.3,1.7,0.6,2.5,1.2c0.4,0.3,0.8,0.6,1,1.2c0.2,0.6,0,1.3-0.4,1.6
		c-0.7,0.7-1.6,1-2.4,1.2c0.7-0.5,1.4-1.1,1.9-1.7c0.2-0.3,0.2-0.6,0.1-0.9c-0.1-0.3-0.4-0.5-0.7-0.8c-0.6-0.5-1.4-0.8-2.2-1.2
		L130.7,190.2z"/>
</g>
<g>
	<path class="st9" d="M145.9,190.7c-0.5,0.3-1,0.5-1.4,0.8c-0.4,0.3-0.8,0.6-1,1c-0.2,0.4-0.3,0.8-0.3,1.2c0.1,0.4,0.4,0.8,1,1
		c-0.6,0.2-1.3-0.1-1.6-0.8c-0.3-0.6-0.2-1.4,0.2-2c0.4-0.6,0.9-1,1.5-1.2C144.7,190.6,145.3,190.6,145.9,190.7z"/>
</g>
<g>
	<g>
		<path class="st247" d="M153.9,175.1c-1-0.4-2.1-0.7-3.2-1c-4.6-1-9.5-1.1-14.2-1.2c-2.5-0.1-5.2-0.2-7.7-0.1
			c-1.4,0-2.9,0.2-4.3,0.6c-0.2,0-0.4,0.1-0.5,0.1c-2.4,0.6-3.9,2.6-3.6,4.7c0.2,1.4,0.4,2.8,0.6,4.2c0.2,1.1,0.7,2.2,1.7,3
			c1.2,0.9,2.8,1.6,4.3,2.1c0.2,0.1,0.3,0.1,0.5,0.2c0.9,0.3,1.9,0.5,2.9,0.3c1.5-0.2,2.6-1.2,3.5-2.1c1.1-1.2,2.1-2.4,3.2-3.5
			c0.4-0.4,0.9-1.2,1.6-1.1c0.1,0,0.2,0,0.4,0.1c0.7,0.2,1,0.7,1.4,1.2c0.5,0.6,1.1,1.3,1.6,1.9c0.7,0.8,1.4,1.6,2,2.4
			c0.9,1.1,2.1,2,3.6,2.2c1.3,0.2,2.5-0.2,3.7-0.5c0.7-0.2,1.3-0.4,2-0.7c0.6-0.3,1.3-0.5,1.8-0.9c0.8-0.7,1.3-1.5,1.4-2.5
			c0.2-1.3,0.5-2.6,0.7-4c0.1-1.3,0-2.4-0.9-3.6C155.7,176,154.9,175.4,153.9,175.1z"/>
		
			<linearGradient id="SVGID_10_" gradientUnits="userSpaceOnUse" x1="110.4616" y1="188.0418" x2="149.0304" y2="188.0418" gradientTransform="matrix(0.9994 3.583065e-02 -3.583065e-02 0.9994 15.7977 -11.7791)">
			<stop  offset="1.528620e-02" style="stop-color:#157EBF"/>
			<stop  offset="0.2408" style="stop-color:#1479B7"/>
			<stop  offset="0.5847" style="stop-color:#126BA2"/>
			<stop  offset="1" style="stop-color:#0E5480"/>
		</linearGradient>
		<path style="fill:url(#SVGID_10_);" d="M157,176.4c-0.7-0.9-1.7-1.5-2.8-2c-1.2-0.5-2.3-0.8-3.4-1c-2.5-0.5-5.3-0.8-8.8-1
			c-1.6-0.1-3.2-0.1-4.8-0.2l-0.8,0c-0.5,0-1,0-1.6-0.1c-2.1-0.1-4.2-0.2-6.2,0c-1.5,0-3,0.2-4.4,0.6c-0.2,0-0.4,0.1-0.6,0.1
			c-2.7,0.7-4.4,3-4.1,5.4c0,0.3,0.1,0.5,0.1,0.8c0.2,1.1,0.3,2.3,0.5,3.4c0.3,1.5,0.9,2.6,2,3.4c1.2,1,2.9,1.6,4.5,2.2
			c0.2,0.1,0.3,0.1,0.5,0.2c1.1,0.4,2.3,0.5,3.3,0.4c1.8-0.3,3.1-1.4,4-2.4c0.2-0.2,0.4-0.4,0.6-0.6c0.1,0,0.1,0,0.2,0
			c0.4,0,0.8-0.1,1.1-0.3c0.6-0.3,1.1-0.8,1.3-1.5c0.1-0.2,0.1-0.5,0.3-0.7c0.1-0.2,0.4-0.4,0.6-0.4c0.4,0,0.7,0.3,0.8,0.6
			c0.3,0.5,0.4,1.1,0.8,1.7c0.4,0.5,1,0.9,1.7,1.1c0.2,0.1,0.5,0.1,0.8,0.1c0.2,0.3,0.5,0.6,0.7,0.9c1.1,1.4,2.6,2.2,4.2,2.5
			c0.2,0,0.3,0,0.5,0c0,0,0,0,0,0c1.3,0.1,2.5-0.3,3.6-0.6c0.7-0.2,1.4-0.4,2.1-0.7l0.1,0c0.6-0.3,1.3-0.5,1.9-1
			c0.9-0.7,1.5-1.7,1.7-2.8c0.1-0.4,0.2-0.8,0.2-1.2c0.2-0.9,0.4-1.9,0.5-2.8C158.1,179.3,158.1,177.8,157,176.4z M156.4,180.3
			c-0.1,0.9-0.3,1.8-0.4,2.7c-0.1,0.4-0.2,0.8-0.2,1.2c-0.1,0.8-0.6,1.5-1.2,2.1c-0.4,0.3-0.9,0.5-1.5,0.8l-0.1,0
			c-0.6,0.3-1.2,0.5-1.9,0.6c-0.9,0.3-2,0.6-3,0.5c0,0,0,0,0,0c-0.1,0-0.2,0-0.3,0c-1.5-0.2-2.5-1.1-3.1-1.9
			c-0.5-0.6-0.9-1.1-1.4-1.7c-0.2-0.2-0.4-0.5-0.6-0.7l-1.6-1.9c-0.1-0.1-0.1-0.2-0.2-0.2c-0.3-0.4-0.8-1-1.6-1.2
			c-0.1,0-0.3-0.1-0.5-0.1c0,0-0.1,0-0.1,0c-1-0.1-1.6,0.7-2,1.1c-0.1,0.1-0.1,0.2-0.2,0.2c-0.6,0.7-1.2,1.3-1.8,2
			c-0.5,0.5-0.9,1-1.4,1.5c-0.7,0.8-1.7,1.7-3.1,1.9c-0.8,0.1-1.6,0-2.4-0.3c-0.2-0.1-0.3-0.1-0.5-0.2c-1.5-0.5-3-1.1-4-2
			c-0.7-0.6-1.2-1.4-1.4-2.6c-0.2-1.1-0.4-2.2-0.5-3.3c0-0.3-0.1-0.5-0.1-0.8c-0.3-1.8,1-3.5,3-4.1c0.2,0,0.3-0.1,0.5-0.1
			c1.3-0.3,2.7-0.5,4.1-0.5l0,0c2-0.1,4.1,0,6.1,0c0.5,0,1,0,1.6,0.1l0.8,0c1.6,0,3.2,0.1,4.8,0.2c3.5,0.2,6.1,0.5,8.5,1
			c1,0.2,2,0.5,3.1,0.9c0.8,0.3,1.6,0.8,2.1,1.5C156.4,178,156.6,178.9,156.4,180.3z"/>
	</g>
	<defs>
		<filter id="Adobe_OpacityMaskFilter" filterUnits="userSpaceOnUse" x="141.1" y="182.1" width="15.5" height="7.6">
			<feFlood  style="flood-color:white;flood-opacity:1" result="back"/>
			<feBlend  in="SourceGraphic" in2="back" mode="normal"/>
		</filter>
	</defs>
	<mask maskUnits="userSpaceOnUse" x="141.1" y="182.1" width="15.5" height="7.6" id="SVGID_13_">
		<g class="st192">
			<defs>
				<filter id="Adobe_OpacityMaskFilter_1_" filterUnits="userSpaceOnUse" x="141.1" y="182.1" width="15.5" height="7.6">
					<feFlood  style="flood-color:white;flood-opacity:1" result="back"/>
					<feBlend  in="SourceGraphic" in2="back" mode="normal"/>
				</filter>
			</defs>
			<mask maskUnits="userSpaceOnUse" x="141.1" y="182.1" width="15.5" height="7.6" id="SVGID_13_">
			</mask>
			
				<linearGradient id="SVGID_14_" gradientUnits="userSpaceOnUse" x1="110.4424" y1="192.9249" x2="149.1648" y2="192.9249" gradientTransform="matrix(0.9994 3.583065e-02 -3.583065e-02 0.9994 15.7977 -11.7791)">
				<stop  offset="4.444360e-03" style="stop-color:#000000"/>
				<stop  offset="9.062082e-02" style="stop-color:#0F0F0F"/>
				<stop  offset="0.2569" style="stop-color:#373737"/>
				<stop  offset="0.4865" style="stop-color:#777777"/>
				<stop  offset="0.7675" style="stop-color:#CECECE"/>
				<stop  offset="0.9145" style="stop-color:#FFFFFF"/>
			</linearGradient>
			<path style="mask:url(#SVGID_13_);fill:url(#SVGID_14_);" d="M150.5,184.5c-2.7-0.7-5.5-1.4-8.2-2.1c-0.4-0.1-0.8-0.2-1.2-0.3
				c0,0,0,0,0,0c0.5,0.6,1,1.2,1.4,1.9c0.2,0.3,0.3,0.6,0.3,0.8c0.1,0.4,0.1,0.9-0.1,1.3c0,0,0,0.1,0,0.1c0.2,0.3,0.6,0.8,0.7,0.9
				c1.1,1.4,2.6,2.3,4.2,2.5c0.2,0,0.3,0,0.5,0.1c0,0,0,0,0,0c1.3,0.1,2.5-0.3,3.6-0.6c0.7-0.2,1.4-0.5,2.1-0.7l0.1,0
				c0.6-0.3,1.3-0.5,1.9-1c0.4-0.3,0.7-0.7,1-1.2C154.6,185.6,152.6,185.1,150.5,184.5z"/>
		</g>
	</mask>
	
		<linearGradient id="SVGID_17_" gradientUnits="userSpaceOnUse" x1="110.4424" y1="192.9249" x2="149.1648" y2="192.9249" gradientTransform="matrix(0.9994 3.583065e-02 -3.583065e-02 0.9994 15.7977 -11.7791)">
		<stop  offset="4.444360e-03" style="stop-color:#000000"/>
		<stop  offset="0.9145" style="stop-color:#000000"/>
	</linearGradient>
	<path style="opacity:0.5;fill:url(#SVGID_17_);" d="M150.5,184.5c-2.7-0.7-5.5-1.4-8.2-2.1c-0.4-0.1-0.8-0.2-1.2-0.3c0,0,0,0,0,0
		c0.5,0.6,1,1.2,1.4,1.9c0.2,0.3,0.3,0.6,0.3,0.8c0.1,0.4,0.1,0.9-0.1,1.3c0,0,0,0.1,0,0.1c0.2,0.3,0.6,0.8,0.7,0.9
		c1.1,1.4,2.6,2.3,4.2,2.5c0.2,0,0.3,0,0.5,0.1c0,0,0,0,0,0c1.3,0.1,2.5-0.3,3.6-0.6c0.7-0.2,1.4-0.5,2.1-0.7l0.1,0
		c0.6-0.3,1.3-0.5,1.9-1c0.4-0.3,0.7-0.7,1-1.2C154.6,185.6,152.6,185.1,150.5,184.5z"/>
	<defs>
		<filter id="Adobe_OpacityMaskFilter_2_" filterUnits="userSpaceOnUse" x="119.5" y="176.6" width="17.6" height="12.1">
			<feFlood  style="flood-color:white;flood-opacity:1" result="back"/>
			<feBlend  in="SourceGraphic" in2="back" mode="normal"/>
		</filter>
	</defs>
	<mask maskUnits="userSpaceOnUse" x="119.5" y="176.6" width="17.6" height="12.1" id="SVGID_18_">
		<g class="st196">
			<defs>
				<filter id="Adobe_OpacityMaskFilter_3_" filterUnits="userSpaceOnUse" x="119.5" y="176.6" width="17.6" height="12.1">
					<feFlood  style="flood-color:white;flood-opacity:1" result="back"/>
					<feBlend  in="SourceGraphic" in2="back" mode="normal"/>
				</filter>
			</defs>
			<mask maskUnits="userSpaceOnUse" x="119.5" y="176.6" width="17.6" height="12.1" id="SVGID_18_">
			</mask>
			
				<linearGradient id="SVGID_19_" gradientUnits="userSpaceOnUse" x1="110.4622" y1="190.3849" x2="149.1399" y2="190.3849" gradientTransform="matrix(0.9994 3.583065e-02 -3.583065e-02 0.9994 15.7977 -11.7791)">
				<stop  offset="4.444360e-03" style="stop-color:#000000"/>
				<stop  offset="9.062082e-02" style="stop-color:#0F0F0F"/>
				<stop  offset="0.2569" style="stop-color:#373737"/>
				<stop  offset="0.4865" style="stop-color:#777777"/>
				<stop  offset="0.7675" style="stop-color:#CECECE"/>
				<stop  offset="0.9145" style="stop-color:#FFFFFF"/>
			</linearGradient>
			<path style="mask:url(#SVGID_18_);fill:url(#SVGID_19_);" d="M136.9,181.4c0.1-0.1,0.1-0.3,0.2-0.4c0,0,0,0,0,0
				c-1-0.3-2-0.6-3-0.8c-4.8-1.3-9.6-2.5-14.4-3.6c-0.1,0.5-0.2,1.1-0.1,1.7c0,0.3,0.1,0.5,0.1,0.8c0.2,1.1,0.3,2.3,0.5,3.4
				c0.3,1.5,0.9,2.6,2,3.4c1.2,1,2.9,1.6,4.5,2.2c0.2,0.1,0.3,0.1,0.5,0.2c1.1,0.4,2.3,0.5,3.3,0.4c1.8-0.3,3.1-1.4,4-2.4
				c0.2-0.2,0.4-0.4,0.6-0.6c0,0,0,0,0,0c0.4-1.3,0.9-2.5,1.6-3.7C136.8,181.8,136.9,181.6,136.9,181.4z"/>
		</g>
	</mask>
	
		<linearGradient id="SVGID_22_" gradientUnits="userSpaceOnUse" x1="110.4622" y1="190.3849" x2="149.1399" y2="190.3849" gradientTransform="matrix(0.9994 3.583065e-02 -3.583065e-02 0.9994 15.7977 -11.7791)">
		<stop  offset="4.444360e-03" style="stop-color:#000000"/>
		<stop  offset="0.9145" style="stop-color:#000000"/>
	</linearGradient>
	<path style="opacity:0.5;fill:url(#SVGID_22_);" d="M136.9,181.4c0.1-0.1,0.1-0.3,0.2-0.4c0,0,0,0,0,0c-1-0.3-2-0.6-3-0.8
		c-4.8-1.3-9.6-2.5-14.4-3.6c-0.1,0.5-0.2,1.1-0.1,1.7c0,0.3,0.1,0.5,0.1,0.8c0.2,1.1,0.3,2.3,0.5,3.4c0.3,1.5,0.9,2.6,2,3.4
		c1.2,1,2.9,1.6,4.5,2.2c0.2,0.1,0.3,0.1,0.5,0.2c1.1,0.4,2.3,0.5,3.3,0.4c1.8-0.3,3.1-1.4,4-2.4c0.2-0.2,0.4-0.4,0.6-0.6
		c0,0,0,0,0,0c0.4-1.3,0.9-2.5,1.6-3.7C136.8,181.8,136.9,181.6,136.9,181.4z"/>
</g>
<g>
	<g>
		<path class="st204" d="M194.3,143c1.8,1.3,4.1-1.3,2.1-2.6C194.7,139.3,192.5,141.8,194.3,143z"/>
		<path class="st205" d="M195,140.4c-0.9,0.2-1.5,1.3-0.8,2c0.3,0.3,0.7,0.6,1.1,0.7c0.4,0,0.9-0.1,1.2-0.5c0.5-0.5,0.7-1.5,0-2
			c-0.4-0.3-0.9-0.4-1.3-0.3C195.1,140.4,195,140.4,195,140.4z"/>
		<path class="st116" d="M195.8,141.1c0.1,0,0.1,0,0.2-0.1c0.3-0.3-0.2-0.7-0.4-0.4C195.5,140.8,195.6,141.1,195.8,141.1z"/>
	</g>
	<path class="st204" d="M194.1,141.6c-0.1-0.8,1.5-1.3,1.2-0.6C195.2,141.1,194.1,141.7,194.1,141.6z"/>
</g>
<g>
	<g>
		<path class="st204" d="M174.9,74c3.3,2.4,7.4-2.3,3.8-4.7C175.7,67.2,171.8,71.7,174.9,74z"/>
		<path class="st205" d="M176.2,69.2c-1.6,0.4-2.6,2.3-1.5,3.7c0.5,0.6,1.2,1.1,2,1.2c0.8,0.1,1.6-0.3,2.1-0.9c0.8-1,1.3-2.7,0-3.6
			c-0.7-0.5-1.6-0.7-2.4-0.5C176.3,69.2,176.3,69.2,176.2,69.2z"/>
		<path class="st116" d="M177.7,70.5c0.1,0,0.3,0,0.4-0.1c0.5-0.5-0.4-1.2-0.7-0.7C177.1,70,177.3,70.4,177.7,70.5z"/>
	</g>
	<path class="st204" d="M174.6,71.3c-0.3-1.4,2.7-2.4,2.2-1.2C176.7,70.5,174.7,71.6,174.6,71.3z"/>
</g>
<g>
	<g>
		<path class="st204" d="M175.4,182.2c0.9,0.6,2-0.6,1-1.2C175.6,180.4,174.6,181.6,175.4,182.2z"/>
		<path class="st205" d="M175.7,181c-0.4,0.1-0.7,0.6-0.4,1c0.1,0.2,0.3,0.3,0.5,0.3c0.2,0,0.4-0.1,0.6-0.2c0.2-0.3,0.3-0.7,0-0.9
			C176.3,181,176,180.9,175.7,181C175.8,181,175.8,181,175.7,181z"/>
		<path class="st116" d="M176.1,181.3c0,0,0.1,0,0.1,0c0.1-0.1-0.1-0.3-0.2-0.2C176,181.2,176.1,181.3,176.1,181.3z"/>
	</g>
	<path class="st204" d="M175.3,181.5c-0.1-0.4,0.7-0.6,0.6-0.3C175.9,181.3,175.3,181.6,175.3,181.5z"/>
</g>
<linearGradient id="SVGID_23_" gradientUnits="userSpaceOnUse" x1="132.0578" y1="139.4843" x2="147.7545" y2="139.4082">
	<stop  offset="0" style="stop-color:#781216"/>
	<stop  offset="0.3445" style="stop-color:#FF4100"/>
	<stop  offset="0.7785" style="stop-color:#A80000"/>
	<stop  offset="1" style="stop-color:#5C1C23"/>
</linearGradient>
<path style="fill:url(#SVGID_23_);" d="M139.5,161.8C139.5,161.8,147.4,161.8,139.5,161.8c-7.9,0-8.7-3.2-8.7-6.8l2.3-31.5
	c0-3.6,2.9-6.4,6.4-6.4l0,0c3.6,0,6.4,2.9,6.4,6.4l1.7,31.7C147.6,158.8,147.1,161.8,139.5,161.8z"/>
<g class="st258">
	<path class="st259" d="M133.9,155.2c0.1-1.1,0.5-2.1,1.2-2.9c0.4-0.4,0.8-0.8,1.3-1.1c0.5-0.3,1.1-0.5,1.7-0.6
		c1.1-0.1,2.2,0,3.3,0.4c1.1,0.5,1.9,1.3,2.2,2.4c-1-0.5-1.8-0.8-2.7-0.9c-0.8-0.1-1.7,0-2.6,0.1c-0.7,0.1-1.4,0.4-2.2,0.9
		C135.5,153.9,134.7,154.5,133.9,155.2z"/>
</g>
<g>
	<path class="st64" d="M132.8,126c0.3-1.6,1.2-3.1,2.6-4.2c0.7-0.5,1.5-0.9,2.3-1c0.8-0.1,1.7-0.1,2.5,0c1.6,0.2,3.4,0.6,4.6,2
		c0.6,0.7,0.9,1.5,1.1,2.3c0.1,0.8,0.2,1.6,0.1,2.5c-0.2-1.6-0.5-3.3-1.6-4.4c-1.1-1.1-2.7-1.5-4.3-1.6c-0.8-0.1-1.6-0.1-2.3,0
		c-0.8,0.1-1.5,0.4-2.1,0.8c-0.7,0.4-1.2,1-1.7,1.6C133.6,124.6,133.2,125.3,132.8,126z"/>
</g>
<g>
	<path class="st64" d="M132.2,136.9c0.3-1.7,1.2-3.5,2.8-4.6c0.8-0.6,1.7-1,2.6-1.2c0.9-0.2,1.9-0.2,2.8,0c0.9,0.1,1.8,0.3,2.7,0.6
		c0.9,0.3,1.7,0.8,2.4,1.6c0.6,0.7,1,1.7,1.1,2.6c0.1,0.9,0.2,1.8,0.1,2.7c-0.3-1.7-0.7-3.6-1.9-4.7c-0.6-0.6-1.3-1-2.1-1.2
		c-0.8-0.3-1.6-0.4-2.5-0.5c-0.9-0.1-1.7-0.1-2.5,0c-0.8,0.1-1.6,0.4-2.3,0.9C134,133.9,132.9,135.3,132.2,136.9z"/>
</g>
<g>
	<path class="st64" d="M130.9,152.5c0.2-2.1,1.2-4.1,3-5.5c0.9-0.7,2-1.2,3.1-1.4c1.1-0.2,2.3-0.2,3.3-0.1c1.1,0.1,2.1,0.3,3.2,0.8
		c1,0.4,2.1,1,2.8,2c0.8,0.9,1.1,2,1.3,3.1c0.1,1.1,0.1,2.1-0.1,3.1c-0.5-2-1-4-2.3-5.2c-1.3-1.2-3.2-1.6-5.1-1.8
		c-1-0.2-1.8-0.1-2.7-0.1c-0.9,0.1-1.7,0.4-2.5,0.9C133.2,149.2,131.9,150.7,130.9,152.5z"/>
</g>
<path class="st247" d="M137.5,157.8c0,0,1.9-1.7,3.6-0.4c0,0,0.8,1.7,0.2,2.2c-0.6,0.6-2.4,2-3.6,0.3
	C137.8,160,137.5,159.5,137.5,157.8z"/>
<path class="st64" d="M138.6,159.7c0,0-0.2,1.2,0.2,2.9c0.4,1.7,2.6,1.9,2.3-0.8C140.7,159.1,140.5,158.2,138.6,159.7z"/>
<path class="st260" d="M139.9,162.6c0,0,1.6,7.2,8.6,0.8s11.1-10.7,15.5-6.5s9.7,10.8,6.3,12.7c-3.4,1.9-10.7-1.1-6.2-3.9
	s15,7.4,6,16.3c-9,8.9-13,11.4-13,16.9c-0.1,5.5,3.2,5.3,4.1,3.1c0.9-2.2-4-7.9-10.2-3.5c-6.2,4.3-11.7,1.5-11.3-3.6"/>
<g class="st261">
	<g>
		<path class="st262" d="M139.9,162.6c0,0,0,0.2,0.1,0.5"/>
		<path class="st263" d="M146.5,165c0.6-0.4,1.2-0.9,1.9-1.5c7-6.4,11.1-10.7,15.5-6.5c4.4,4.2,9.7,10.8,6.3,12.7
			c-3.4,1.9-10.7-1.1-6.2-3.9s15,7.4,6,16.3s-13,11.4-13,16.9s3.2,5.3,4.1,3.1s-4-7.9-10.2-3.5c-4.1,2.8-7.9,2.6-9.8,0.6"/>
		<path class="st262" d="M139.5,195.4c0-0.2,0-0.3,0-0.5"/>
	</g>
</g>
</svg>
