<?xml version="1.0" encoding="utf-8"?>
<!-- Generator: Adobe Illustrator 22.0.0, SVG Export Plug-In . SVG Version: 6.00 Build 0)  -->
<svg version="1.1" id="mascotte" xmlns="http://www.w3.org/2000/svg" xmlns:xlink="http://www.w3.org/1999/xlink" x="0px" y="0px"
	 viewBox="0 0 245.8 245.8" style="enable-background:new 0 0 245.8 245.8;" xml:space="preserve">
<style type="text/css">
	.st0{opacity:0.6;}
	.st1{fill-rule:evenodd;clip-rule:evenodd;fill:#FFDF43;}
	.st2{fill-rule:evenodd;clip-rule:evenodd;fill:url(#SVGID_1_);}
	.st3{fill-rule:evenodd;clip-rule:evenodd;fill:#FAB010;}
	.st4{fill-rule:evenodd;clip-rule:evenodd;fill:#157EBF;}
	.st5{opacity:0.6;fill:#FFE565;}
	.st6{opacity:0.6;fill:#FCDE48;}
	.st7{fill-rule:evenodd;clip-rule:evenodd;fill:#AA5D0A;}
	.st8{fill-rule:evenodd;clip-rule:evenodd;fill:#FDFEFE;}
	.st9{fill:#C8650D;}
	.st10{fill-rule:evenodd;clip-rule:evenodd;fill:#C8650D;}
	.st11{fill-rule:evenodd;clip-rule:evenodd;}
	.st12{clip-path:url(#SVGID_4_);}
	.st13{clip-path:url(#SVGID_5_);}
	.st14{fill:none;stroke:#FFFFFF;stroke-width:4;stroke-miterlimit:10;}
	.st15{fill:none;stroke:#FFFFFF;stroke-width:0.75;stroke-miterlimit:10;}
	.st16{fill:none;stroke:#FFFFFF;stroke-width:2;stroke-miterlimit:10;}
	.st17{fill:none;stroke:#FFFFFF;stroke-width:1.75;stroke-miterlimit:10;}
	.st18{fill:none;stroke:#FFFFFF;stroke-width:0.25;stroke-miterlimit:10;}
	.st19{clip-path:url(#SVGID_8_);}
	.st20{clip-path:url(#SVGID_9_);}
	.st21{fill-rule:evenodd;clip-rule:evenodd;fill:url(#SVGID_10_);}
	.st22{clip-path:url(#SVGID_13_);}
	.st23{clip-path:url(#SVGID_14_);}
	.st24{clip-path:url(#SVGID_17_);}
	.st25{clip-path:url(#SVGID_18_);}
	.st26{fill-rule:evenodd;clip-rule:evenodd;fill:url(#SVGID_19_);}
	.st27{clip-path:url(#SVGID_22_);}
	.st28{clip-path:url(#SVGID_23_);}
	.st29{clip-path:url(#SVGID_26_);}
	.st30{clip-path:url(#SVGID_27_);}
	.st31{fill:none;}
	.st32{fill:#4D2200;}
	.st33{fill:#3B5172;}
	.st34{fill:#60BFBB;}
	.st35{fill:#B3E5E2;}
	.st36{fill:#9BFFF8;}
	.st37{fill:url(#XMLID_7_);}
	.st38{fill:url(#XMLID_8_);}
	.st39{fill:url(#XMLID_9_);}
	.st40{fill:url(#XMLID_10_);}
	.st41{fill:url(#XMLID_11_);}
	.st42{fill:url(#XMLID_12_);}
	.st43{fill:url(#XMLID_13_);}
	.st44{fill:url(#XMLID_15_);}
	.st45{fill:url(#XMLID_16_);}
	.st46{fill:url(#XMLID_18_);}
	.st47{fill:url(#XMLID_20_);}
	.st48{fill:url(#XMLID_21_);}
	.st49{fill:url(#XMLID_22_);}
	.st50{fill:url(#XMLID_23_);}
	.st51{fill:url(#XMLID_25_);}
	.st52{fill:url(#XMLID_26_);}
	.st53{fill:url(#XMLID_27_);}
	.st54{fill-rule:evenodd;clip-rule:evenodd;fill:url(#SVGID_28_);}
	.st55{fill:#C95534;}
	.st56{fill:url(#SVGID_29_);}
	.st57{fill:#A2CBF1;}
	.st58{fill:#157EBF;}
	.st59{clip-path:url(#SVGID_31_);fill:none;stroke:#2B89E0;stroke-width:2.8631;stroke-miterlimit:10;}
	.st60{fill:url(#SVGID_32_);}
	.st61{clip-path:url(#SVGID_34_);fill:none;stroke:#2B89E0;stroke-width:2.8631;stroke-miterlimit:10;}
	.st62{fill:#CC5D3F;}
	.st63{fill:#FFC66B;}
	.st64{fill:#FFE3A3;}
	.st65{fill:#2B89E0;}
	.st66{fill-rule:evenodd;clip-rule:evenodd;fill:#FAB315;}
	.st67{clip-path:url(#SVGID_37_);}
	.st68{clip-path:url(#SVGID_38_);}
	.st69{clip-path:url(#SVGID_41_);}
	.st70{clip-path:url(#SVGID_42_);}
	.st71{fill-rule:evenodd;clip-rule:evenodd;fill:url(#SVGID_43_);}
	.st72{clip-path:url(#SVGID_46_);}
	.st73{clip-path:url(#SVGID_47_);}
	.st74{clip-path:url(#SVGID_50_);}
	.st75{clip-path:url(#SVGID_51_);}
	.st76{fill-rule:evenodd;clip-rule:evenodd;fill:url(#SVGID_52_);}
	.st77{fill-rule:evenodd;clip-rule:evenodd;fill:#42433E;}
	.st78{clip-path:url(#SVGID_54_);}
	.st79{fill-rule:evenodd;clip-rule:evenodd;fill:#FFFFFF;}
	.st80{clip-path:url(#SVGID_57_);}
	.st81{clip-path:url(#SVGID_58_);}
	.st82{clip-path:url(#SVGID_61_);}
	.st83{clip-path:url(#SVGID_62_);}
	.st84{fill-rule:evenodd;clip-rule:evenodd;fill:url(#SVGID_63_);}
	.st85{clip-path:url(#SVGID_65_);}
	.st86{fill:#FAB010;}
	.st87{clip-path:url(#SVGID_68_);}
	.st88{clip-path:url(#SVGID_69_);}
	.st89{clip-path:url(#SVGID_72_);}
	.st90{clip-path:url(#SVGID_73_);}
	.st91{fill-rule:evenodd;clip-rule:evenodd;fill:url(#SVGID_74_);}
	.st92{fill:#AA5D0A;}
	.st93{clip-path:url(#SVGID_77_);}
	.st94{clip-path:url(#SVGID_78_);}
	.st95{clip-path:url(#SVGID_81_);}
	.st96{clip-path:url(#SVGID_82_);}
	.st97{fill-rule:evenodd;clip-rule:evenodd;fill:url(#SVGID_83_);}
	.st98{fill-rule:evenodd;clip-rule:evenodd;fill:#E9AB48;}
	.st99{fill-rule:evenodd;clip-rule:evenodd;fill:#AA2C0A;}
	.st100{fill-rule:evenodd;clip-rule:evenodd;fill:#FFE565;}
	.st101{fill-rule:evenodd;clip-rule:evenodd;fill:#753E22;}
	.st102{fill-rule:evenodd;clip-rule:evenodd;fill:#3CB13C;}
	.st103{clip-path:url(#SVGID_86_);}
	.st104{clip-path:url(#SVGID_87_);}
	.st105{clip-path:url(#SVGID_90_);}
	.st106{clip-path:url(#SVGID_91_);}
	.st107{fill-rule:evenodd;clip-rule:evenodd;fill:url(#SVGID_92_);}
	.st108{clip-path:url(#SVGID_95_);}
	.st109{clip-path:url(#SVGID_96_);}
	.st110{clip-path:url(#SVGID_99_);}
	.st111{clip-path:url(#SVGID_100_);}
	.st112{fill-rule:evenodd;clip-rule:evenodd;fill:url(#SVGID_101_);}
	.st113{fill:#A7A89E;}
	.st114{fill:none;stroke:#A7A89E;stroke-width:0.25;stroke-miterlimit:10;}
	.st115{fill:#FDBA1D;}
	.st116{fill:#FFFFFF;}
	.st117{fill:#42433E;}
	.st118{fill:#2B2B28;}
	.st119{fill:#111110;}
	.st120{clip-path:url(#SVGID_104_);}
	.st121{clip-path:url(#SVGID_105_);}
	.st122{clip-path:url(#SVGID_108_);}
	.st123{clip-path:url(#SVGID_109_);}
	.st124{fill-rule:evenodd;clip-rule:evenodd;fill:#33383F;}
	.st125{fill:#272E35;}
	.st126{fill-rule:evenodd;clip-rule:evenodd;fill:url(#SVGID_110_);}
	.st127{fill-rule:evenodd;clip-rule:evenodd;fill:#434E5B;}
	.st128{opacity:0.5;fill-rule:evenodd;clip-rule:evenodd;fill:#FDFEFE;}
	.st129{fill-rule:evenodd;clip-rule:evenodd;fill:#FF4100;}
	.st130{fill-rule:evenodd;clip-rule:evenodd;fill:#7A1A00;}
	.st131{fill-rule:evenodd;clip-rule:evenodd;fill:#11A700;}
	.st132{fill-rule:evenodd;clip-rule:evenodd;fill:#165500;}
	.st133{fill-rule:evenodd;clip-rule:evenodd;fill:#0072CC;}
	.st134{fill-rule:evenodd;clip-rule:evenodd;fill:#00446F;}
	.st135{fill-rule:evenodd;clip-rule:evenodd;fill:url(#SVGID_111_);}
	.st136{fill-rule:evenodd;clip-rule:evenodd;fill:url(#SVGID_112_);}
	.st137{fill-rule:evenodd;clip-rule:evenodd;fill:#FCCF4E;}
	.st138{clip-path:url(#SVGID_115_);}
	.st139{clip-path:url(#SVGID_116_);}
	.st140{fill:none;stroke:#FFFFFF;stroke-width:3.3578;stroke-miterlimit:10;}
	.st141{fill:none;stroke:#FFFFFF;stroke-width:0.6296;stroke-miterlimit:10;}
	.st142{fill:none;stroke:#FFFFFF;stroke-width:1.6789;stroke-miterlimit:10;}
	.st143{fill:none;stroke:#FFFFFF;stroke-width:1.4691;stroke-miterlimit:10;}
	.st144{fill:none;stroke:#FFFFFF;stroke-width:0.2099;stroke-miterlimit:10;}
	.st145{clip-path:url(#SVGID_119_);}
	.st146{clip-path:url(#SVGID_120_);}
	.st147{fill-rule:evenodd;clip-rule:evenodd;fill:none;stroke:#AA5D0A;stroke-width:0.9654;stroke-miterlimit:10;}
	.st148{fill-rule:evenodd;clip-rule:evenodd;fill:#272E35;}
	.st149{fill:#33383F;}
	.st150{fill-rule:evenodd;clip-rule:evenodd;fill:url(#SVGID_121_);}
	.st151{fill:#4F0000;}
	.st152{fill:url(#SVGID_122_);}
	.st153{clip-path:url(#SVGID_124_);}
	.st154{fill:#EF7031;}
	.st155{fill:#F9CC02;}
	.st156{fill:#929497;}
	.st157{fill:#FF4100;}
	.st158{fill:#231F20;}
	.st159{fill:#B3B3B3;}
	.st160{fill:#58595B;}
	.st161{fill-rule:evenodd;clip-rule:evenodd;fill:#FAB212;}
	.st162{fill-rule:evenodd;clip-rule:evenodd;fill:url(#SVGID_125_);}
	.st163{clip-path:url(#SVGID_128_);}
	.st164{clip-path:url(#SVGID_129_);}
	.st165{fill:none;stroke:#FFFFFF;stroke-width:3.7719;stroke-miterlimit:10;}
	.st166{fill:none;stroke:#FFFFFF;stroke-width:0.7072;stroke-miterlimit:10;}
	.st167{fill:none;stroke:#FFFFFF;stroke-width:1.8859;stroke-miterlimit:10;}
	.st168{fill:none;stroke:#FFFFFF;stroke-width:1.6502;stroke-miterlimit:10;}
	.st169{fill:none;stroke:#FFFFFF;stroke-width:0.2357;stroke-miterlimit:10;}
	.st170{clip-path:url(#SVGID_132_);}
	.st171{clip-path:url(#SVGID_133_);}
	.st172{fill:#FFD28C;}
	.st173{fill:#EEB96C;}
	.st174{fill:#DB84B5;}
	.st175{fill:#62B146;}
	.st176{fill:#A9C63D;}
	.st177{fill:#957F4B;}
	.st178{fill:#AD9568;}
	.st179{fill:#825F26;}
	.st180{fill:#CE7829;}
	.st181{fill:#AC5A26;}
	.st182{fill-rule:evenodd;clip-rule:evenodd;fill:none;stroke:#EAA211;stroke-width:5;stroke-miterlimit:10;}
	.st183{fill-rule:evenodd;clip-rule:evenodd;fill:url(#SVGID_134_);}
	.st184{fill:#FA852D;}
	.st185{fill:#F5752A;}
	.st186{fill:#F99E29;}
	.st187{fill-rule:evenodd;clip-rule:evenodd;fill:none;stroke:#FABA24;stroke-width:5;stroke-miterlimit:10;}
	.st188{fill-rule:evenodd;clip-rule:evenodd;fill:#EAA211;}
	.st189{fill-rule:evenodd;clip-rule:evenodd;fill:#FABA24;}
	.st190{fill:url(#SVGID_135_);}
	.st191{fill:url(#SVGID_136_);}
	.st192{filter:url(#Adobe_OpacityMaskFilter);}
	.st193{filter:url(#Adobe_OpacityMaskFilter_1_);}
	.st194{mask:url(#SVGID_137_);fill:url(#SVGID_138_);}
	.st195{opacity:0.14;fill:url(#SVGID_139_);}
	.st196{filter:url(#Adobe_OpacityMaskFilter_2_);}
	.st197{filter:url(#Adobe_OpacityMaskFilter_3_);}
	.st198{mask:url(#SVGID_140_);fill:url(#SVGID_141_);}
	.st199{opacity:0.14;fill:url(#SVGID_142_);}
	.st200{fill:url(#SVGID_143_);}
	.st201{fill:url(#SVGID_144_);}
	.st202{fill:url(#SVGID_145_);}
	.st203{fill:url(#SVGID_146_);}
	.st204{fill:#CBEAF6;}
	.st205{fill:#96D7ED;}
	.st206{fill:#F06888;}
	.st207{fill:#F395BE;}
	.st208{fill:#C84C27;}
	.st209{fill:#F16822;}
	.st210{fill:#F37940;}
	.st211{fill:#F37B4C;}
	.st212{fill:#4C3427;}
	.st213{fill:#9F3022;}
	.st214{fill-rule:evenodd;clip-rule:evenodd;fill:url(#SVGID_147_);}
	
		.st215{fill-rule:evenodd;clip-rule:evenodd;fill:none;stroke:#FAB010;stroke-width:10.343;stroke-linecap:round;stroke-linejoin:round;stroke-miterlimit:10;}
	
		.st216{fill-rule:evenodd;clip-rule:evenodd;fill:none;stroke:#FAB010;stroke-width:11;stroke-linecap:round;stroke-linejoin:round;stroke-miterlimit:10;}
	.st217{clip-path:url(#SVGID_150_);}
	.st218{clip-path:url(#SVGID_151_);}
	.st219{fill:none;stroke:#FFFFFF;stroke-width:4.33;stroke-miterlimit:10;}
	.st220{fill:none;stroke:#FFFFFF;stroke-width:0.8119;stroke-miterlimit:10;}
	.st221{fill:none;stroke:#FFFFFF;stroke-width:2.165;stroke-miterlimit:10;}
	.st222{fill:none;stroke:#FFFFFF;stroke-width:1.8944;stroke-miterlimit:10;}
	.st223{fill:none;stroke:#FFFFFF;stroke-width:0.2706;stroke-miterlimit:10;}
	.st224{clip-path:url(#SVGID_154_);}
	.st225{clip-path:url(#SVGID_155_);}
	.st226{fill:none;stroke:#A7A89E;stroke-width:0.2797;stroke-miterlimit:10;}
	
		.st227{fill-rule:evenodd;clip-rule:evenodd;fill:none;stroke:#FFFFFF;stroke-width:0.75;stroke-linecap:round;stroke-miterlimit:10;}
	.st228{fill-rule:evenodd;clip-rule:evenodd;fill:none;stroke:#FFFFFF;stroke-width:2.5187;stroke-miterlimit:10;}
	.st229{fill:#4F2706;}
	.st230{opacity:0.25;fill:#FFFFFF;}
	.st231{fill-rule:evenodd;clip-rule:evenodd;fill:#A7A89E;}
	.st232{fill-rule:evenodd;clip-rule:evenodd;fill:none;stroke:#42433E;stroke-width:0.9637;stroke-miterlimit:10;}
	.st233{opacity:0.5;fill:url(#SVGID_156_);}
	.st234{fill:#AEAFA3;}
	.st235{fill-rule:evenodd;clip-rule:evenodd;fill:url(#SVGID_157_);}
	.st236{fill:url(#SVGID_158_);}
	.st237{opacity:0.4;}
	.st238{fill:url(#SVGID_159_);}
	.st239{fill-rule:evenodd;clip-rule:evenodd;fill:none;stroke:#FAB011;stroke-width:5.3617;stroke-miterlimit:10;}
	
		.st240{fill-rule:evenodd;clip-rule:evenodd;fill:none;stroke:#FABA24;stroke-width:3;stroke-linecap:round;stroke-linejoin:round;stroke-miterlimit:10;}
	
		.st241{fill-rule:evenodd;clip-rule:evenodd;fill:none;stroke:#FABA24;stroke-width:2;stroke-linecap:round;stroke-linejoin:round;stroke-miterlimit:10;}
	
		.st242{fill-rule:evenodd;clip-rule:evenodd;fill:none;stroke:#FABA24;stroke-width:2.5;stroke-linecap:round;stroke-linejoin:round;stroke-miterlimit:10;}
	.st243{fill-rule:evenodd;clip-rule:evenodd;fill:url(#SVGID_160_);}
	.st244{fill-rule:evenodd;clip-rule:evenodd;fill:url(#SVGID_161_);}
	.st245{opacity:0.5;fill:#FFE3A3;}
	.st246{fill-rule:evenodd;clip-rule:evenodd;fill:#32383F;}
	.st247{fill:#32383F;}
	.st248{fill:url(#SVGID_162_);}
	.st249{filter:url(#Adobe_OpacityMaskFilter_4_);}
	.st250{filter:url(#Adobe_OpacityMaskFilter_5_);}
	.st251{mask:url(#SVGID_163_);fill:url(#SVGID_164_);}
	.st252{opacity:0.5;fill:url(#SVGID_165_);}
	.st253{filter:url(#Adobe_OpacityMaskFilter_6_);}
	.st254{filter:url(#Adobe_OpacityMaskFilter_7_);}
	.st255{mask:url(#SVGID_166_);fill:url(#SVGID_167_);}
	.st256{opacity:0.5;fill:url(#SVGID_168_);}
	.st257{fill:url(#SVGID_169_);}
	.st258{opacity:0.5;}
	.st259{fill:#FFFDF0;}
	.st260{fill-rule:evenodd;clip-rule:evenodd;fill:none;stroke:#32383F;stroke-width:2;stroke-linecap:round;stroke-miterlimit:10;}
	.st261{opacity:0.2;}
	.st262{fill:none;stroke:#FDFEFE;stroke-width:2;stroke-miterlimit:10;}
	.st263{fill:none;stroke:#FDFEFE;stroke-width:2;stroke-miterlimit:10;stroke-dasharray:1.0301,8.2408;}
</style>
<g>
	<g id="Shape_9" class="st0">
		<g>
			<path class="st1" d="M179,100.7c-7.8-12.8-16-23.3-36.2-27.9c-20.1-4.6-42.4,1.8-55.1,10.7c-12.6,8.9-35.9,36.4-27.5,63.6
				c8.3,27.2,43.1,28,59.7,27.3c16.7-0.7,42.8-1.8,58-21.2C190.5,136.9,190.2,119.2,179,100.7z"/>
		</g>
	</g>
	<g>
		<radialGradient id="SVGID_1_" cx="117.4219" cy="99.5724" r="52.434" gradientUnits="userSpaceOnUse">
			<stop  offset="0" style="stop-color:#FCD253"/>
			<stop  offset="1" style="stop-color:#FAB010"/>
		</radialGradient>
		<path class="st2" d="M114.8,85c-7.3,1.6-28.4,8.9-38.1,32.8c-9.6,23.9-0.3,38.7,18.1,44.8c19.2,6.3,57.4,3.4,69.1-12
			c16.6-22,7.9-42.5-6.8-58C142.9,77.7,122.8,83.2,114.8,85z"/>
	</g>
	<path class="st3" d="M183.1,153.7c0,0-3.8-3.1-5.6-3.9c-1.9-0.8-4.4-1-4.4-1s2,2.6,3.6,3C178.2,152.3,183.1,153.7,183.1,153.7z"/>
	<path class="st3" d="M184.8,92.9c0,0-6.6,1.5-9.2,2.6c-2.6,1.1-5.5,3.2-5.5,3.2s4.2-0.2,6.3-1.3C178.5,96.2,184.8,92.9,184.8,92.9z
		"/>
	<path class="st3" d="M116.4,59.3c0,0-1.5,6.9-1.2,9.9c0.3,3,1.8,6.7,1.8,6.7s2.1-4.1,1.6-6.6C118,66.8,116.4,59.3,116.4,59.3z"/>
	<path class="st3" d="M150,66.4c0,0-3.5,4.3-4.2,6.1c-0.6,1.6-0.6,3.7-0.6,3.7s2.2-1.3,2.6-2.7C148.1,72.5,150,66.4,150,66.4z"/>
	<path class="st3" d="M53,152.7c0,0,6.3-0.8,8.3-1.6c1.9-0.7,3.7-2.2,3.7-2.2s-2.7-0.6-4.2,0.2C59.7,149.5,53,152.7,53,152.7z"/>
	<path class="st3" d="M84.9,58c0,0,3.5,11.3,6.3,16.6c2.8,5.4,7.5,6.7,7.5,6.7s-0.3-4.7-2.5-8.9C94,68.4,84.9,58,84.9,58z"/>
	<g>
		<path class="st3" d="M55.2,128.2c0,0,0.3,5.9,5.9,6.6c5.5,0.7,13.2-3.9,13.2-3.9s2.1-1.5,3.3,0.2c1.1,1.6,0,2.4-1.2,3.1
			c-1.2,0.8-9.2,6.3-16.6,4.8c-8.2-1.6-10.4-11.2-10.4-11.2s-8.4-2.5-1.6-4.6C53.9,121.5,59,128.4,55.2,128.2z"/>
	</g>
	<g>
		<path class="st3" d="M196.5,125.2c6.8,2-2.7,4.5-2.7,4.5s-0.5,7.5-8.7,9.1c-7.3,1.5-15.3-4-16.6-4.8c-1.2-0.8-2.3-1.5-1.2-3.1
			c1.2-1.7,3.3-0.2,3.3-0.2s7.7,4.6,13.2,3.9c5.7-0.8,4.4-6,4.4-6C185.8,127.7,190.4,123.4,196.5,125.2z"/>
	</g>
	<path class="st4" d="M137,181.4c-2.5,0.1-8.6,1.4-2.7,3.7c5.3,2.1,11.4,3,14.7,3c4,0,8.9-4,5.3-4.6s-6.1-1-8.8-1.2
		C142,182,139,181.3,137,181.4z"/>
	<path class="st4" d="M96.9,184.1c2.7,0.1,9,1.5,2,4c-6.2,2.3-13.1,3.2-16.7,3.3c-4.4,0-8.6-4.4-4.6-5c4-0.6,6.8-1.1,9.9-1.3
		C91.4,184.8,94.8,184,96.9,184.1z"/>
	<path class="st3" d="M139.6,161.8c3.1,3.4,7.1,7.1,5.6,10.7c-0.8,2.1-2.9,6.1-3.8,7.6c-0.9,1.6,3.4,1.5,6.1,2
		c1.4,0.2,3.5,0.6,4.6,1.1c0.3,0.1,0.5,0.3,0.7,0.4c0.1,0.1,0.1,0.2,0.2,0.2c0,0,0,0.1,0,0.1c0,0,0,0.1,0,0.1
		c-0.1,0.3-0.7,0.7-1.9,1.2c-0.6,0.2-1.3,0.4-2,0.4c-0.4,0-0.8,0.1-1.2,0.1c-0.2,0-0.4,0-0.6,0c-0.1,0-0.2,0-0.3,0
		c-0.1,0-0.2,0-0.3,0c-1.7,0-3.6-0.2-5.6-0.5c-3.8-0.6-6.8-1.5-6.5-2.8c0.6-2.2,2.9-4.8,4.6-7.5c2.4-4.2,1.6-5.9-2.8-10.7
		c-1-1.1-1.3-2-1.2-2.6c0-0.1,0-0.2,0-0.2c0-0.1,0-0.1,0.1-0.2c0.1-0.1,0.1-0.2,0.2-0.3c0.2-0.2,0.4-0.4,0.6-0.5
		c0.2-0.1,0.5-0.2,0.8-0.2c0.3,0,0.6,0.1,0.9,0.2C138.4,160.7,139.1,161.2,139.6,161.8z"/>
	<path class="st3" d="M101.9,161.7c-3.1,3.6-8.9,8-8.4,12c0.3,2.3,0.7,6.9,0.8,8.7c0.1,1.8-4.8,1.9-8.4,2.5s-10.2,1.6-5.2,3.6
		c2.4,0.9,6.5,0.7,11,0c4.5-0.7,8.2-1.7,8.4-3.2c0.4-2.6-0.4-5.6-0.8-8.8c-0.6-4.9,0.8-6.9,5.6-12
		C109.2,159.6,104.3,158.9,101.9,161.7z"/>
	<path class="st4" d="M140.4,185.6c0,0,0.7-2,2.6-3c3.1-1.7,5.2-1.4,7.2-0.9c1.9,0.5,1.7,1.6,1.7,1.6s-1.1-0.3-2.9,0
		c-1.8,0.3-2.8,1.7-3,2.8C144.1,186.8,140.4,185.6,140.4,185.6z"/>
	<path class="st4" d="M92.3,188.8c0,0-0.3-2.1-2.1-3.3c-3-1.8-5.3-1.5-7.5-1c-2.2,0.5-2.3,1.7-2.3,1.7s1.3-0.3,3.1,0
		s2.6,1.9,2.5,3.1C87.9,190,92.3,188.8,92.3,188.8z"/>
	<polygon class="st5" points="80.7,92.9 69.7,98.9 56.6,92.6 57.2,74.3 74.6,69.1 83.9,80.6 	"/>
	<polygon class="st6" points="87.5,98 80.1,101.4 70.4,96.6 69.6,84.9 81.3,82.1 88.8,89.9 	"/>
	<g>
		<path class="st98" d="M69.7,127.6c0.7,0.4,1.6,1.1,1.3,2.1c-1.2,2-7.5-0.7-9.2-1c-4.5-0.8-20.5-3.7-24.2-6.6
			c-1.6-1.3-5.5-2.8-4.9-5.4c1.2-5.6,5.6-3.5,9.8-3.9c3.1-0.3,9.9-1.7,12.6,0.2c1.5,1.1-0.4,3.3,0.6,4.7c2.4,3.2,10.5,8.4,13.8,9.7"
			/>
		<g>
			<path class="st99" d="M61.3,127.1c-1.2,0.1-2-0.4-4.8-1c-1.5-0.3-1.8-1.5-3.4-1.9c-1.6-0.4-3.3-0.1-4.8-0.6
				c-1.4-0.5-2-1.8-3.1-2.3c-1.4-0.6-2.2,0.2-3.5-0.7c-1.2-0.8-5.5-0.8-5.1-2.7c0.4-1.8,4.4-1,5.7-1.6c2.4-1,13-1.2,15.6,0.2
				c1.3,0.7,0.8,2.1,2.3,2.9c0.8,0.4,2.8,1.4,4.4,2.6c1.2,1,2,2.1,2.6,2.4c2.1,0.7,2.1,1.9,3.4,2.9c-0.7,2.2-3.2,0.7-4.6,0.7
				C64.5,128,63.1,126.9,61.3,127.1z"/>
		</g>
		<path class="st100" d="M69,124.8c-0.8,0.3-1.7,0.7-2.5,1c-0.1,0.1-0.1,0.3-0.2,0.4c1.1,1.8,5-0.7,3.5-1.6
			C69.5,124.6,69.2,124.7,69,124.8C69,124.8,69,124.8,69,124.8z"/>
		<path class="st100" d="M66.6,123.4c-0.5-0.8-2.9-1.4-2.6,0.1c0.2,0.6,2.2,1.6,2.8,0.9c-0.1-0.4-0.2-0.8-0.4-1.2c0,0,0,0-0.1,0"/>
		<path class="st100" d="M64,120.6c-0.6-0.3-2.3-1-2.8-0.1c0,0.2,0,0.3,0,0.5c0.3,0.6,2.5,1.1,2.9,0.3
			C64.1,121.1,64.1,120.8,64,120.6C64,120.6,63.9,120.6,64,120.6C63.9,120.6,63.9,120.6,64,120.6C63.9,120.6,63.9,120.6,64,120.6z"
			/>
		<path class="st100" d="M61.6,122.9c-0.9,0.6-4.4,0.4-3.4,2.1C60.2,128.4,64.6,122.2,61.6,122.9C61.6,122.9,61.6,122.9,61.6,122.9z
			"/>
		<path class="st100" d="M55.5,122.4c-0.8-0.4-4.5-0.7-4.4,0.9c0,0,0,0,0,0.1c1.5,0.2,3.1,0.4,4.6,0.7c0.1-0.2,0.2-0.3,0.3-0.5
			c-0.2-0.4-0.5-0.7-0.7-1.1C55.4,122.5,55.4,122.5,55.5,122.4C55.4,122.5,55.5,122.4,55.5,122.4z"/>
		<path class="st100" d="M48.9,122.3c-0.2-1.7-3-2.4-2.8-1.7c0.7,0.8,1.4,1.7,2.1,2.5c0.2,0,0.4-0.1,0.5-0.1
			c0.1-0.3,0.1-0.5,0.2-0.8"/>
		<path class="st100" d="M42,117.2c-0.7-0.1-3.2-2.5-3.7-0.4c-0.2,0.9,3.2,1.5,3.8,1.1c0.1-0.2,0.1-0.3,0.2-0.5
			c-0.1-0.1-0.3-0.1-0.4-0.2c0,0,0,0,0,0"/>
		<path class="st100" d="M44,118.5c-0.9,0.5-3.8,0.1-3.8,1.4c0.4,1.7,5.1-0.5,4.5-1.3C44.5,118.6,44.2,118.5,44,118.5
			C44,118.5,44,118.5,44,118.5C44,118.5,44,118.5,44,118.5z"/>
		<path class="st100" d="M46.5,117.1c0-1.1-2.2-2.4-3-1.2c0,0.1,0,0.2,0,0.4C43.5,116.3,46.5,118.3,46.5,117.1
			C46.5,117.1,46.5,117.1,46.5,117.1C46.5,117.1,46.5,117.1,46.5,117.1z"/>
		<path class="st100" d="M50.5,115c-0.5,0.2-2.4-0.2-2.3,0.7c0.5,1.6,4.4,0.2,3.3-0.8c-0.4,0-0.8,0-1.2,0"/>
		<path class="st100" d="M51.7,117.8c-0.8-0.1-2.8-1.5-3.4-0.3c0,0.1,0,0.2,0,0.2c0.3,0.9,3.4,1.5,3.9,0.6
			C52,118.1,51.8,117.9,51.7,117.8C51.7,117.8,51.7,117.8,51.7,117.8z"/>
		<path class="st100" d="M56.9,115.9c-0.4,0.3-5.6,2.4-4,0c0.5-0.6,4-1.7,4.2-0.4C57.1,115.6,57,115.8,56.9,115.9
			C56.9,115.9,56.9,115.9,56.9,115.9z"/>
		<path class="st100" d="M55.8,118.1c0.6,0.4,4.6,1.7,4.4-0.2c0-0.5-4.7-1.1-4.7-0.2C55.7,117.9,55.8,118.1,55.8,118.1
			C55.9,118.2,55.9,118.2,55.8,118.1z"/>
		<path class="st100" d="M59.3,120.8c-0.4-0.2-2.8-1.3-2.6,0.1c0.2,0.6,3,2.1,3.4,1c-0.3-0.4-0.6-0.8-0.9-1.1"/>
		<path class="st100" d="M53.9,119.3c-1.1,0.3-2.3,0.6-3.4,0.9c-0.9,1.5,4.8,0.9,4.1-0.7C54.3,119.4,54.1,119.4,53.9,119.3
			C53.9,119.3,53.9,119.3,53.9,119.3z"/>
	</g>
	<g>
		<path class="st98" d="M206.2,123.1c-0.4,6.1-27.1,8-26.6-1.7C180,115.1,207.9,115.3,206.2,123.1c0-0.1,0-0.1-0.1-0.1
			C206.2,123,206.2,123.1,206.2,123.1z"/>
		<g>
			<path class="st100" d="M205.4,122.5c-1.8,2.7-5.4,1.9-6.9,3.2c-1,1.5,0.8,7.4-1.1,8.1c-0.1,0-0.2,0-0.2,0c-1.5-1.3,1.9-6.6,0-7.9
				c-1.4-0.8-11-0.7-12.7-1.1c-1.7-0.4-1.3-2-2.5-2.6c-1.2-0.6-1.2-0.6-2.3-1.3c-1.1-0.8,0.1-1.3,0.1-2c2.2-4.1,15.3-2.9,18.9-2.2
				c1.9,0.4,5.5,0.4,6.6,2.1C207.2,119.1,206.7,120.4,205.4,122.5z"/>
			<path class="st101" d="M203.1,121.3c-2.1,0.4-1,0.8-2.3,2c-0.2,0.1-0.4,0.2-0.6,0.3c-1-0.2-2-0.3-2.9-0.5c-0.9,0.3-1.8,0.7-2.6,1
				c-0.4-0.5-0.7-0.9-1.1-1.4c-0.9-1.1-3.2,1.7-4.8,0.8c-0.3-0.5-0.6-1.1-0.9-1.6c-1.6-1-2.7-0.1-4.2-1.3c-0.9-0.5-1.7,0.7-2.4-0.6
				c-0.4-1.2-0.8-0.2-1.6-1.2c-0.1-0.4-0.2-0.8-0.3-1.3c0.6-0.9,0.9-3.1,1.6-3.5c0.8-0.4,8.6-1.5,9.1-1.3c0.4,0.3,0.8,0.6,1.2,0.9
				c1-0.3,2.2-2,3-0.7c0.3,0.3,0.6,0.5,0.9,0.8c0.5-0.2,1.1-0.3,1.6-0.5c0.4,0.4,0.8,0.9,1.2,1.3c1.1-0.3,2.3-0.6,3.4-0.9
				c0.7,0.5,2.1,1.4,2.7,2c0,0.1,0,0.2,0.1,0.4c-0.1,0.1-0.2,0.3-0.3,0.4c0.7,0.3,1.3,0.6,2,0.8c0,0.4,0,0.9,0,1.3
				c-0.4,0.2-0.8,0.4-1.2,0.6c0.1,0.7,0.2,1.3,0.4,2c-0.7,1.4-1.4-0.3-2.2,0.3C203,121.4,203.1,121.4,203.1,121.3z"/>
			<path class="st102" d="M204.1,117.2c-2,0-1.5,1.4-1.9,2.5c-0.2,0.1-0.4,0.2-0.6,0.2c-2.5-0.3-2.4,1.4-4,1.4c-0.2,0-0.4,0-0.6-0.1
				c-0.2-0.1-0.4-0.2-0.6-0.3c-0.8-0.7-0.9-2.2-2.2-1.2c0.1,0.4,0.3,0.8,0.4,1.2c-0.3,0-0.7,0.1-1,0.1c-1.1-0.4-2.2-0.9-3.3-1.4
				c-0.1,0.1-0.3,0.2-0.4,0.2c0.2,0.4,0.4,0.7,0.7,1c-0.2,0-0.4,0-0.6,0c-1.4-0.7-2.7-1.5-3.7-2.4c-0.5,0.2-0.9,0.3-1.4,0.5
				c-0.8,0.9-1.3-0.9-2.1-1.5c-1.2-0.6-2.5,1.6-3.3-1c0-0.3,0-0.7,0-1c0.1,0,0.2-0.1,0.3-0.1c0.3,0.2,0.5,0.5,0.8,0.7
				c0.3-0.5,0.6-1,0.9-1.5c-0.3-0.3-0.5-0.5-0.8-0.7c-0.2-1,2.2-1.6,2.7-1.4c0.2,0.4,0.4,0.8,0.7,1.2c1.7,0.7,3.5-2,5-1.7
				c0.4,0.3,0.9,0.5,1.4,0.9c1-0.3,2-0.6,3.1-0.9c0,0.3,0.1,0.6,0.2,1c0.7,0.2,1.6-0.1,2.5-0.3c0.4-0.1,0.9-0.2,1.2-0.2
				c0.4,0,0.7,0.1,0.9,0.4c0.1,0.4,0.3,0.8,0.4,1.2c1.2-0.3,2.4-0.6,3.4-1.1c0.5,0.7,1.1,1.5,1.6,2.2c-0.2,0.1-0.5,0.3-0.7,0.4
				c1.2,1.5,2.1-0.7,3-0.4c0.1,0.1,0.2,0.2,0.2,0.3c0.1,0.6,0.2,1.2,0.3,1.7c-0.6,1.1-1.7,0.6-2.7,0.4
				C204.1,117.3,204.1,117.2,204.1,117.2L204.1,117.2z"/>
			<path class="st98" d="M206.8,114.3c-0.4,7.6-27.6,4-27.2-1.5c0.7-10.1,17.7-10.7,23.9-6.1c2.6,1.9,4.1,4,3.4,7.1
				C206.9,113.9,206.8,114.1,206.8,114.3C206.8,114.3,206.8,114.3,206.8,114.3z"/>
		</g>
		<path class="st100" d="M204.8,105.8c-0.5,0.6-1,1.2-1.5,1.9c0,0.2,0,0.4,0.1,0.6c0.1,0,0.1,0,0.2,0.1c0.8-0.3,2.6-1.9,1.5-2.8
			c-0.1,0-0.2,0-0.3-0.1c-0.1,0.1-0.3,0.1-0.4,0.2"/>
		<path class="st100" d="M203.5,110.5c-0.9-0.1-2.5,0.8-2.3,1.9c0,0.1,0.1,0.1,0.1,0.2c0.2,0,0.3,0.1,0.5,0.1
			c1.2-0.2,1.9-1.1,2.1-2.2c-0.3,0-0.5-0.1-0.8-0.1"/>
		<path class="st100" d="M193.4,112.9c0.4,0.7,0.7,1.3,1.1,2c0.2,0,0.4,0.1,0.6,0.1c0.2-0.3,0.3-0.5,0.5-0.8
			c-0.8-0.6-1.5-1.3-2.3-1.9c0,0.1,0,0.1,0,0.2"/>
		<path class="st100" d="M184.4,109.8c-0.5,0.7-0.9,1.4-1.4,2.1c0.8,0.4,2.6-1.6,1.7-2.2c-0.3,0.1-0.5,0.1-0.8,0.2"/>
		<path class="st100" d="M189.2,103.6c-0.4,0.6-0.7,1.2-1.1,1.8c0.2,0.1,0.3,0.1,0.5,0.2c0.8-0.2,1.7-0.9,1.7-1.8
			c0-0.1-0.1-0.1-0.1-0.2c-0.1,0-0.3-0.1-0.4-0.1c-0.1,0.1-0.3,0.2-0.4,0.3C189.3,103.7,189.3,103.6,189.2,103.6z"/>
		<path class="st100" d="M186.7,106.6c-0.7-0.5-1.5-1-2.2-1.5c-0.2,0.2-0.4,0.5-0.6,0.7c0.4,0.9,1.8,1,2.7,1
			C186.6,106.8,186.7,106.7,186.7,106.6c0.1,0,0.1-0.1,0.1-0.1C186.8,106.5,186.8,106.6,186.7,106.6z"/>
		<path class="st100" d="M192.5,105c-0.7,0.3-1.3,0.5-2,0.8c0,0.1,0,0.2,0,0.3c0.6,0.7,2.5-0.1,2.6-0.9c-0.3-0.1-0.6-0.2-0.9-0.3
			C192.3,104.9,192.4,104.9,192.5,105z"/>
		<path class="st100" d="M195.3,103.3c-0.3,0.7-0.2,1.5,0.4,2c0.1,0,0.2,0.1,0.4,0.1c0.2-0.3,0.3-0.7,0.5-1
			C196.1,104,195.7,103.6,195.3,103.3C195.3,103.3,195.3,103.3,195.3,103.3z"/>
		<path class="st100" d="M201.2,106.5c-0.7,0.3-1.3,0.7-2,1c0,0,0,0.1,0,0.1c0.2,0.1,0.5,0.2,0.7,0.3c0.5-0.4,1.1-0.9,1.6-1.3
			c-0.2-0.1-0.5-0.2-0.7-0.2"/>
		<path class="st100" d="M196,109.1c-0.7-0.2-1.3-0.4-2-0.6c-0.1,0.2-0.1,0.4-0.2,0.7c0.2,1,1.7,1.4,2.6,1.5
			c0.1-0.1,0.1-0.1,0.2-0.2c0-0.1,0-0.2,0.1-0.3c-0.4-0.4-0.7-0.7-1.1-1.1"/>
		<path class="st100" d="M189.4,109.2c-0.6,0.6-1.1,1.2-1.7,1.7c0.3,0.1,0.6,0.2,0.9,0.3c0.9-0.2,1.9-1.2,1.9-2.1
			c-0.1-0.1-0.1-0.2-0.2-0.3C190,109,189.6,109,189.4,109.2c-0.1-0.1-0.2-0.1-0.3-0.1"/>
	</g>
	<g>
		<path d="M97.3,84.7c3.3-0.6,6.6-1.1,9.9-1.4c1.7-0.2,3.4-0.2,5-0.2c1.7,0,3.3-0.1,4.7-0.8c0.7-0.3,1.5-0.7,2.3-1
			c0.8-0.4,1.6-0.7,2.4-0.9c1.6-0.6,3.2-1.1,4.8-1.6c3.2-1,6.4-1.9,9.7-2.7l-4.7,1.7l-4.7,1.7c-1.6,0.6-3.1,1.1-4.7,1.7
			c-0.8,0.3-1.5,0.6-2.3,0.9c-0.8,0.4-1.5,0.7-2.3,1.1c-0.8,0.3-1.7,0.6-2.5,0.7c-0.9,0.1-1.7,0.1-2.6,0.1c-1.7,0-3.3,0-5,0.1
			c-1.7,0.1-3.3,0.2-5,0.3L97.3,84.7z"/>
	</g>
	<g>
		<path class="st9" d="M101.4,93.2c-0.4,0-3.2,0.3-4.9,1.5c-1.2,0.9-2.1,1.9-2.1,2.7c0,0.5,0.4,0.8,1.2,0.9c0.1,0,0.2,0,0.4,0
			c1.8,0,3.5-1.4,4.4-1.9c1-0.6,1.9-1.5,2.3-2.2c0.1-0.1,0.1-0.2,0.1-0.3C102.6,93.4,101.8,93.2,101.4,93.2
			C101.4,93.2,101.4,93.2,101.4,93.2"/>
	</g>
	<path class="st10" d="M142.4,86.1c-5.1-1.9-11.6-1-13.4,2.3c-0.9,1.6,1.6,3.8,6.3,4.7c3.1,0.6,6.1,1.3,8.7-1.3
		C145.5,90.3,146.4,87.6,142.4,86.1z"/>
	<path class="st11" d="M143,78L93.3,88.2c0,0-1.4,8.8,7.1,7.4c8.6-1.4,13.9-9.9,13.9-9.9s2.4,8.1,13.6,6.4C139.1,90.3,143,78,143,78
		z"/>
	<g>
		<defs>
			<path id="SVGID_84_" d="M115.1,84.8l0.2,0.7c0.1,0.3,2.3,7.3,12.5,5.7c8-1.3,12.1-8.5,13.6-11.8L115.1,84.8z"/>
		</defs>
		<defs>
			<path id="SVGID_85_" d="M115.1,84.8l0.2,0.7c0.1,0.3,2.3,7.3,12.5,5.7c8-1.3,12.1-8.5,13.6-11.8L115.1,84.8z"/>
		</defs>
		<clipPath id="SVGID_4_">
			<use xlink:href="#SVGID_84_"  style="overflow:visible;"/>
		</clipPath>
		<clipPath id="SVGID_5_" class="st12">
			<use xlink:href="#SVGID_85_"  style="overflow:visible;"/>
		</clipPath>
		<g class="st13">
			<line class="st14" x1="128.5" y1="78.1" x2="112.9" y2="105.6"/>
			<line class="st14" x1="128.5" y1="78.1" x2="112.9" y2="105.6"/>
			<line class="st15" x1="120.1" y1="80.6" x2="105.7" y2="105.6"/>
			<line class="st15" x1="120.1" y1="80.6" x2="105.7" y2="105.6"/>
			<line class="st16" x1="123.2" y1="79.3" x2="108.2" y2="105.6"/>
			<line class="st16" x1="123.2" y1="79.3" x2="108.2" y2="105.6"/>
			<line class="st17" x1="140.5" y1="77.1" x2="124.3" y2="105.6"/>
			<line class="st17" x1="140.5" y1="77.1" x2="124.3" y2="105.6"/>
			<line class="st18" x1="142.7" y1="77.1" x2="126.4" y2="105.6"/>
			<line class="st18" x1="142.7" y1="77.1" x2="126.4" y2="105.6"/>
		</g>
	</g>
	<g>
		<defs>
			<path id="SVGID_88_" d="M94.2,89.1c-0.1,1.1,0,3.3,1.3,4.6c1,1,2.6,1.3,4.7,1c8-1.3,13.2-9.4,13.2-9.4l0.1-0.2L94.2,89.1z"/>
		</defs>
		<defs>
			<path id="SVGID_89_" d="M94.2,89.1c-0.1,1.1,0,3.3,1.3,4.6c1,1,2.6,1.3,4.7,1c8-1.3,13.2-9.4,13.2-9.4l0.1-0.2L94.2,89.1z"/>
		</defs>
		<clipPath id="SVGID_8_">
			<use xlink:href="#SVGID_88_"  style="overflow:visible;"/>
		</clipPath>
		<clipPath id="SVGID_9_" class="st19">
			<use xlink:href="#SVGID_89_"  style="overflow:visible;"/>
		</clipPath>
		<g class="st20">
			<line class="st14" x1="106.7" y1="82.3" x2="93.4" y2="105.6"/>
			<line class="st14" x1="106.7" y1="82.3" x2="93.4" y2="105.6"/>
			<line class="st15" x1="110.6" y1="82.3" x2="97.3" y2="105.6"/>
			<line class="st15" x1="110.6" y1="82.3" x2="97.3" y2="105.6"/>
		</g>
	</g>
	<g>
		<g>
			<g>
				<path class="st92" d="M123.8,92.5c-1.4,0.3-2.7,0.8-3.8,1.5c-1.2,0.7-2.2,1.5-2.9,2.6c-0.7,1.1-1.1,2.4-0.9,3.7
					c0.2,1.3,1.4,2.3,2.6,2.8c-1.4-0.2-2.8-1.1-3.2-2.6c-0.4-1.5,0.1-3,0.8-4.2c0.8-1.3,2-2.2,3.3-2.7
					C121,92.8,122.4,92.5,123.8,92.5z"/>
			</g>
		</g>
		<g>
			<g>
				<path class="st92" d="M115.1,99.2c-1.2,0.8-2.6,1.3-4,1.6c-1.4,0.3-2.9,0.4-4.3,0.1c-0.7-0.1-1.4-0.3-2.1-0.6
					c-0.3-0.2-0.7-0.4-0.9-0.7c-0.3-0.3-0.5-0.7-0.5-1.2c0-0.5,0.4-0.9,0.8-1c0.4-0.1,0.8-0.1,1.1-0.1c0.7,0,1.4,0,2.1-0.3
					c-0.2,0.3-0.6,0.3-1,0.4c-0.3,0.1-0.7,0.1-1.1,0.2c-0.4,0-0.7,0.1-1,0.2c-0.3,0.1-0.4,0.3-0.4,0.6c0.1,0.5,0.6,0.9,1.2,1.2
					c0.6,0.3,1.3,0.4,1.9,0.5c1.4,0.2,2.7,0.2,4.1,0C112.4,100,113.8,99.7,115.1,99.2z"/>
			</g>
		</g>
	</g>
</g>
</svg>
