<?xml version="1.0" encoding="utf-8"?>
<!-- Generator: Adobe Illustrator 22.0.0, SVG Export Plug-In . SVG Version: 6.00 Build 0)  -->
<svg version="1.1" id="mascotte" xmlns="http://www.w3.org/2000/svg" xmlns:xlink="http://www.w3.org/1999/xlink" x="0px" y="0px"
	 viewBox="0 0 245.8 245.8" style="enable-background:new 0 0 245.8 245.8;" xml:space="preserve">
<style type="text/css">
	.st0{opacity:0.6;}
	.st1{fill-rule:evenodd;clip-rule:evenodd;fill:#FFDF43;}
	.st2{fill-rule:evenodd;clip-rule:evenodd;fill:url(#SVGID_1_);}
	.st3{fill-rule:evenodd;clip-rule:evenodd;fill:#FAB010;}
	.st4{fill-rule:evenodd;clip-rule:evenodd;fill:#157EBF;}
	.st5{opacity:0.6;fill:#FFE565;}
	.st6{opacity:0.6;fill:#FCDE48;}
	.st7{fill-rule:evenodd;clip-rule:evenodd;fill:#AA5D0A;}
	.st8{fill-rule:evenodd;clip-rule:evenodd;fill:#FDFEFE;}
	.st9{fill:#C8650D;}
	.st10{fill-rule:evenodd;clip-rule:evenodd;fill:#C8650D;}
	.st11{fill-rule:evenodd;clip-rule:evenodd;}
	.st12{clip-path:url(#SVGID_4_);}
	.st13{clip-path:url(#SVGID_5_);}
	.st14{fill:none;stroke:#FFFFFF;stroke-width:4;stroke-miterlimit:10;}
	.st15{fill:none;stroke:#FFFFFF;stroke-width:0.75;stroke-miterlimit:10;}
	.st16{fill:none;stroke:#FFFFFF;stroke-width:2;stroke-miterlimit:10;}
	.st17{fill:none;stroke:#FFFFFF;stroke-width:1.75;stroke-miterlimit:10;}
	.st18{fill:none;stroke:#FFFFFF;stroke-width:0.25;stroke-miterlimit:10;}
	.st19{clip-path:url(#SVGID_8_);}
	.st20{clip-path:url(#SVGID_9_);}
	.st21{fill-rule:evenodd;clip-rule:evenodd;fill:url(#SVGID_10_);}
	.st22{clip-path:url(#SVGID_13_);}
	.st23{clip-path:url(#SVGID_14_);}
	.st24{clip-path:url(#SVGID_17_);}
	.st25{clip-path:url(#SVGID_18_);}
	.st26{fill-rule:evenodd;clip-rule:evenodd;fill:url(#SVGID_19_);}
	.st27{clip-path:url(#SVGID_22_);}
	.st28{clip-path:url(#SVGID_23_);}
	.st29{clip-path:url(#SVGID_26_);}
	.st30{clip-path:url(#SVGID_27_);}
	.st31{fill:none;}
	.st32{fill:#4D2200;}
	.st33{fill:#3B5172;}
	.st34{fill:#60BFBB;}
	.st35{fill:#B3E5E2;}
	.st36{fill:#9BFFF8;}
	.st37{fill:url(#XMLID_7_);}
	.st38{fill:url(#XMLID_8_);}
	.st39{fill:url(#XMLID_9_);}
	.st40{fill:url(#XMLID_10_);}
	.st41{fill:url(#XMLID_11_);}
	.st42{fill:url(#XMLID_12_);}
	.st43{fill:url(#XMLID_13_);}
	.st44{fill:url(#XMLID_15_);}
	.st45{fill:url(#XMLID_16_);}
	.st46{fill:url(#XMLID_18_);}
	.st47{fill:url(#XMLID_20_);}
	.st48{fill:url(#XMLID_21_);}
	.st49{fill:url(#XMLID_22_);}
	.st50{fill:url(#XMLID_23_);}
	.st51{fill:url(#XMLID_25_);}
	.st52{fill:url(#XMLID_26_);}
	.st53{fill:url(#XMLID_27_);}
	.st54{fill-rule:evenodd;clip-rule:evenodd;fill:url(#SVGID_28_);}
	.st55{fill:#C95534;}
	.st56{fill:url(#SVGID_29_);}
	.st57{fill:#A2CBF1;}
	.st58{fill:#157EBF;}
	.st59{clip-path:url(#SVGID_31_);fill:none;stroke:#2B89E0;stroke-width:2.8631;stroke-miterlimit:10;}
	.st60{fill:url(#SVGID_32_);}
	.st61{clip-path:url(#SVGID_34_);fill:none;stroke:#2B89E0;stroke-width:2.8631;stroke-miterlimit:10;}
	.st62{fill:#CC5D3F;}
	.st63{fill:#FFC66B;}
	.st64{fill:#FFE3A3;}
	.st65{fill:#2B89E0;}
	.st66{fill-rule:evenodd;clip-rule:evenodd;fill:#FAB315;}
	.st67{clip-path:url(#SVGID_37_);}
	.st68{clip-path:url(#SVGID_38_);}
	.st69{clip-path:url(#SVGID_41_);}
	.st70{clip-path:url(#SVGID_42_);}
	.st71{fill-rule:evenodd;clip-rule:evenodd;fill:url(#SVGID_43_);}
	.st72{clip-path:url(#SVGID_46_);}
	.st73{clip-path:url(#SVGID_47_);}
	.st74{clip-path:url(#SVGID_50_);}
	.st75{clip-path:url(#SVGID_51_);}
	.st76{fill-rule:evenodd;clip-rule:evenodd;fill:url(#SVGID_52_);}
	.st77{fill-rule:evenodd;clip-rule:evenodd;fill:#42433E;}
	.st78{clip-path:url(#SVGID_54_);}
	.st79{fill-rule:evenodd;clip-rule:evenodd;fill:#FFFFFF;}
	.st80{clip-path:url(#SVGID_57_);}
	.st81{clip-path:url(#SVGID_58_);}
	.st82{clip-path:url(#SVGID_61_);}
	.st83{clip-path:url(#SVGID_62_);}
	.st84{fill-rule:evenodd;clip-rule:evenodd;fill:url(#SVGID_63_);}
	.st85{clip-path:url(#SVGID_65_);}
	.st86{fill:#FAB010;}
	.st87{clip-path:url(#SVGID_68_);}
	.st88{clip-path:url(#SVGID_69_);}
	.st89{clip-path:url(#SVGID_72_);}
	.st90{clip-path:url(#SVGID_73_);}
	.st91{fill-rule:evenodd;clip-rule:evenodd;fill:url(#SVGID_74_);}
	.st92{fill:#AA5D0A;}
	.st93{clip-path:url(#SVGID_77_);}
	.st94{clip-path:url(#SVGID_78_);}
	.st95{clip-path:url(#SVGID_81_);}
	.st96{clip-path:url(#SVGID_82_);}
	.st97{fill-rule:evenodd;clip-rule:evenodd;fill:url(#SVGID_83_);}
	.st98{fill-rule:evenodd;clip-rule:evenodd;fill:#E9AB48;}
	.st99{fill-rule:evenodd;clip-rule:evenodd;fill:#AA2C0A;}
	.st100{fill-rule:evenodd;clip-rule:evenodd;fill:#FFE565;}
	.st101{fill-rule:evenodd;clip-rule:evenodd;fill:#753E22;}
	.st102{fill-rule:evenodd;clip-rule:evenodd;fill:#3CB13C;}
	.st103{clip-path:url(#SVGID_86_);}
	.st104{clip-path:url(#SVGID_87_);}
	.st105{clip-path:url(#SVGID_90_);}
	.st106{clip-path:url(#SVGID_91_);}
	.st107{fill-rule:evenodd;clip-rule:evenodd;fill:url(#SVGID_92_);}
	.st108{clip-path:url(#SVGID_95_);}
	.st109{clip-path:url(#SVGID_96_);}
	.st110{clip-path:url(#SVGID_99_);}
	.st111{clip-path:url(#SVGID_100_);}
	.st112{fill-rule:evenodd;clip-rule:evenodd;fill:url(#SVGID_101_);}
	.st113{fill:#A7A89E;}
	.st114{fill:none;stroke:#A7A89E;stroke-width:0.25;stroke-miterlimit:10;}
	.st115{fill:#FDBA1D;}
	.st116{fill:#FFFFFF;}
	.st117{fill:#42433E;}
	.st118{fill:#2B2B28;}
	.st119{fill:#111110;}
	.st120{clip-path:url(#SVGID_104_);}
	.st121{clip-path:url(#SVGID_105_);}
	.st122{clip-path:url(#SVGID_108_);}
	.st123{clip-path:url(#SVGID_109_);}
	.st124{fill-rule:evenodd;clip-rule:evenodd;fill:#33383F;}
	.st125{fill:#272E35;}
	.st126{fill-rule:evenodd;clip-rule:evenodd;fill:url(#SVGID_110_);}
	.st127{fill-rule:evenodd;clip-rule:evenodd;fill:#434E5B;}
	.st128{opacity:0.5;fill-rule:evenodd;clip-rule:evenodd;fill:#FDFEFE;}
	.st129{fill-rule:evenodd;clip-rule:evenodd;fill:#FF4100;}
	.st130{fill-rule:evenodd;clip-rule:evenodd;fill:#7A1A00;}
	.st131{fill-rule:evenodd;clip-rule:evenodd;fill:#11A700;}
	.st132{fill-rule:evenodd;clip-rule:evenodd;fill:#165500;}
	.st133{fill-rule:evenodd;clip-rule:evenodd;fill:#0072CC;}
	.st134{fill-rule:evenodd;clip-rule:evenodd;fill:#00446F;}
	.st135{fill-rule:evenodd;clip-rule:evenodd;fill:url(#SVGID_111_);}
	.st136{fill-rule:evenodd;clip-rule:evenodd;fill:url(#SVGID_112_);}
	.st137{fill-rule:evenodd;clip-rule:evenodd;fill:#FCCF4E;}
	.st138{clip-path:url(#SVGID_115_);}
	.st139{clip-path:url(#SVGID_116_);}
	.st140{fill:none;stroke:#FFFFFF;stroke-width:3.3578;stroke-miterlimit:10;}
	.st141{fill:none;stroke:#FFFFFF;stroke-width:0.6296;stroke-miterlimit:10;}
	.st142{fill:none;stroke:#FFFFFF;stroke-width:1.6789;stroke-miterlimit:10;}
	.st143{fill:none;stroke:#FFFFFF;stroke-width:1.4691;stroke-miterlimit:10;}
	.st144{fill:none;stroke:#FFFFFF;stroke-width:0.2099;stroke-miterlimit:10;}
	.st145{clip-path:url(#SVGID_119_);}
	.st146{clip-path:url(#SVGID_120_);}
	.st147{fill-rule:evenodd;clip-rule:evenodd;fill:none;stroke:#AA5D0A;stroke-width:0.9654;stroke-miterlimit:10;}
	.st148{fill-rule:evenodd;clip-rule:evenodd;fill:#272E35;}
	.st149{fill:#33383F;}
	.st150{fill-rule:evenodd;clip-rule:evenodd;fill:url(#SVGID_121_);}
	.st151{fill:#4F0000;}
	.st152{fill:url(#SVGID_122_);}
	.st153{clip-path:url(#SVGID_124_);}
	.st154{fill:#EF7031;}
	.st155{fill:#F9CC02;}
	.st156{fill:#929497;}
	.st157{fill:#FF4100;}
	.st158{fill:#231F20;}
	.st159{fill:#B3B3B3;}
	.st160{fill:#58595B;}
	.st161{fill-rule:evenodd;clip-rule:evenodd;fill:#FAB212;}
	.st162{fill-rule:evenodd;clip-rule:evenodd;fill:url(#SVGID_125_);}
	.st163{clip-path:url(#SVGID_128_);}
	.st164{clip-path:url(#SVGID_129_);}
	.st165{fill:none;stroke:#FFFFFF;stroke-width:3.7719;stroke-miterlimit:10;}
	.st166{fill:none;stroke:#FFFFFF;stroke-width:0.7072;stroke-miterlimit:10;}
	.st167{fill:none;stroke:#FFFFFF;stroke-width:1.8859;stroke-miterlimit:10;}
	.st168{fill:none;stroke:#FFFFFF;stroke-width:1.6502;stroke-miterlimit:10;}
	.st169{fill:none;stroke:#FFFFFF;stroke-width:0.2357;stroke-miterlimit:10;}
	.st170{clip-path:url(#SVGID_132_);}
	.st171{clip-path:url(#SVGID_133_);}
	.st172{fill:#FFD28C;}
	.st173{fill:#EEB96C;}
	.st174{fill:#DB84B5;}
	.st175{fill:#62B146;}
	.st176{fill:#A9C63D;}
	.st177{fill:#957F4B;}
	.st178{fill:#AD9568;}
	.st179{fill:#825F26;}
	.st180{fill:#CE7829;}
	.st181{fill:#AC5A26;}
	.st182{fill-rule:evenodd;clip-rule:evenodd;fill:none;stroke:#EAA211;stroke-width:5;stroke-miterlimit:10;}
	.st183{fill-rule:evenodd;clip-rule:evenodd;fill:url(#SVGID_134_);}
	.st184{fill:#FA852D;}
	.st185{fill:#F5752A;}
	.st186{fill:#F99E29;}
	.st187{fill-rule:evenodd;clip-rule:evenodd;fill:none;stroke:#FABA24;stroke-width:5;stroke-miterlimit:10;}
	.st188{fill-rule:evenodd;clip-rule:evenodd;fill:#EAA211;}
	.st189{fill-rule:evenodd;clip-rule:evenodd;fill:#FABA24;}
	.st190{fill:url(#SVGID_135_);}
	.st191{fill:url(#SVGID_136_);}
	.st192{filter:url(#Adobe_OpacityMaskFilter);}
	.st193{filter:url(#Adobe_OpacityMaskFilter_1_);}
	.st194{mask:url(#SVGID_137_);fill:url(#SVGID_138_);}
	.st195{opacity:0.14;fill:url(#SVGID_139_);}
	.st196{filter:url(#Adobe_OpacityMaskFilter_2_);}
	.st197{filter:url(#Adobe_OpacityMaskFilter_3_);}
	.st198{mask:url(#SVGID_140_);fill:url(#SVGID_141_);}
	.st199{opacity:0.14;fill:url(#SVGID_142_);}
	.st200{fill:url(#SVGID_143_);}
	.st201{fill:url(#SVGID_144_);}
	.st202{fill:url(#SVGID_145_);}
	.st203{fill:url(#SVGID_146_);}
	.st204{fill:#CBEAF6;}
	.st205{fill:#96D7ED;}
	.st206{fill:#F06888;}
	.st207{fill:#F395BE;}
	.st208{fill:#C84C27;}
	.st209{fill:#F16822;}
	.st210{fill:#F37940;}
	.st211{fill:#F37B4C;}
	.st212{fill:#4C3427;}
	.st213{fill:#9F3022;}
	.st214{fill-rule:evenodd;clip-rule:evenodd;fill:url(#SVGID_147_);}
	
		.st215{fill-rule:evenodd;clip-rule:evenodd;fill:none;stroke:#FAB010;stroke-width:10.343;stroke-linecap:round;stroke-linejoin:round;stroke-miterlimit:10;}
	
		.st216{fill-rule:evenodd;clip-rule:evenodd;fill:none;stroke:#FAB010;stroke-width:11;stroke-linecap:round;stroke-linejoin:round;stroke-miterlimit:10;}
	.st217{clip-path:url(#SVGID_150_);}
	.st218{clip-path:url(#SVGID_151_);}
	.st219{fill:none;stroke:#FFFFFF;stroke-width:4.33;stroke-miterlimit:10;}
	.st220{fill:none;stroke:#FFFFFF;stroke-width:0.8119;stroke-miterlimit:10;}
	.st221{fill:none;stroke:#FFFFFF;stroke-width:2.165;stroke-miterlimit:10;}
	.st222{fill:none;stroke:#FFFFFF;stroke-width:1.8944;stroke-miterlimit:10;}
	.st223{fill:none;stroke:#FFFFFF;stroke-width:0.2706;stroke-miterlimit:10;}
	.st224{clip-path:url(#SVGID_154_);}
	.st225{clip-path:url(#SVGID_155_);}
	.st226{fill:none;stroke:#A7A89E;stroke-width:0.2797;stroke-miterlimit:10;}
	
		.st227{fill-rule:evenodd;clip-rule:evenodd;fill:none;stroke:#FFFFFF;stroke-width:0.75;stroke-linecap:round;stroke-miterlimit:10;}
	.st228{fill-rule:evenodd;clip-rule:evenodd;fill:none;stroke:#FFFFFF;stroke-width:2.5187;stroke-miterlimit:10;}
	.st229{fill:#4F2706;}
	.st230{opacity:0.25;fill:#FFFFFF;}
	.st231{fill-rule:evenodd;clip-rule:evenodd;fill:#A7A89E;}
	.st232{fill-rule:evenodd;clip-rule:evenodd;fill:none;stroke:#42433E;stroke-width:0.9637;stroke-miterlimit:10;}
	.st233{opacity:0.5;fill:url(#SVGID_156_);}
	.st234{fill:#AEAFA3;}
	.st235{fill-rule:evenodd;clip-rule:evenodd;fill:url(#SVGID_157_);}
	.st236{fill:url(#SVGID_158_);}
	.st237{opacity:0.4;}
	.st238{fill:url(#SVGID_159_);}
	.st239{fill-rule:evenodd;clip-rule:evenodd;fill:none;stroke:#FAB011;stroke-width:5.3617;stroke-miterlimit:10;}
	
		.st240{fill-rule:evenodd;clip-rule:evenodd;fill:none;stroke:#FABA24;stroke-width:3;stroke-linecap:round;stroke-linejoin:round;stroke-miterlimit:10;}
	
		.st241{fill-rule:evenodd;clip-rule:evenodd;fill:none;stroke:#FABA24;stroke-width:2;stroke-linecap:round;stroke-linejoin:round;stroke-miterlimit:10;}
	
		.st242{fill-rule:evenodd;clip-rule:evenodd;fill:none;stroke:#FABA24;stroke-width:2.5;stroke-linecap:round;stroke-linejoin:round;stroke-miterlimit:10;}
	.st243{fill-rule:evenodd;clip-rule:evenodd;fill:url(#SVGID_160_);}
	.st244{fill-rule:evenodd;clip-rule:evenodd;fill:url(#SVGID_161_);}
	.st245{opacity:0.5;fill:#FFE3A3;}
	.st246{fill-rule:evenodd;clip-rule:evenodd;fill:#32383F;}
	.st247{fill:#32383F;}
	.st248{fill:url(#SVGID_162_);}
	.st249{filter:url(#Adobe_OpacityMaskFilter_4_);}
	.st250{filter:url(#Adobe_OpacityMaskFilter_5_);}
	.st251{mask:url(#SVGID_163_);fill:url(#SVGID_164_);}
	.st252{opacity:0.5;fill:url(#SVGID_165_);}
	.st253{filter:url(#Adobe_OpacityMaskFilter_6_);}
	.st254{filter:url(#Adobe_OpacityMaskFilter_7_);}
	.st255{mask:url(#SVGID_166_);fill:url(#SVGID_167_);}
	.st256{opacity:0.5;fill:url(#SVGID_168_);}
	.st257{fill:url(#SVGID_169_);}
	.st258{opacity:0.5;}
	.st259{fill:#FFFDF0;}
	.st260{fill-rule:evenodd;clip-rule:evenodd;fill:none;stroke:#32383F;stroke-width:2;stroke-linecap:round;stroke-miterlimit:10;}
	.st261{opacity:0.2;}
	.st262{fill:none;stroke:#FDFEFE;stroke-width:2;stroke-miterlimit:10;}
	.st263{fill:none;stroke:#FDFEFE;stroke-width:2;stroke-miterlimit:10;stroke-dasharray:1.0301,8.2408;}
</style>
<g>
	<g id="Shape_9_2_" class="st0">
		<g>
			<path class="st1" d="M191.3,107.7c-5.8-13.8-12.2-25.5-31.6-33.1c-19.2-7.6-42.2-4.7-56,2.2c-13.8,6.8-41,30.6-36.9,58.7
				c4.1,28.2,38.3,34.2,54.9,36.1c16.7,1.9,42.6,4.7,60.5-12.2C197.2,145.2,199.6,127.7,191.3,107.7z"/>
		</g>
	</g>
	<g>
		
			<radialGradient id="SVGID_1_" cx="124.6335" cy="96.599" r="52.434" gradientTransform="matrix(0.9884 0.1517 -0.1517 0.9884 22.0701 -17.1668)" gradientUnits="userSpaceOnUse">
			<stop  offset="0" style="stop-color:#FCD253"/>
			<stop  offset="1" style="stop-color:#FAB010"/>
		</radialGradient>
		<path class="st2" d="M130.2,82.4c-7.5,0.5-29.5,4.5-42.6,26.7c-13.1,22.2-6.1,38.3,11.1,47c18,9.2,56.3,12.1,70.1-1.3
			c19.8-19.2,14.3-40.8,2.1-58.4C159.1,79.4,138.4,81.9,130.2,82.4z"/>
	</g>
	<path class="st3" d="M201,136.7c0,0-4.3-2.2-6.3-2.6c-2-0.4-4.5-0.1-4.5-0.1s2.5,2.1,4.1,2.2C195.9,136.3,201,136.7,201,136.7z"/>
	<path class="st3" d="M198.2,100.8c0,0-6.7,0.5-9.5,1.2c-2.8,0.7-5.9,2.3-5.9,2.3s4.2,0.4,6.4-0.4
		C191.5,103.1,198.2,100.8,198.2,100.8z"/>
	<path class="st3" d="M135.7,57.2c0,0-2.5,6.6-2.7,9.6c-0.2,3,0.8,6.9,0.8,6.9s2.7-3.7,2.5-6.3C136.1,64.9,135.7,57.2,135.7,57.2z"
		/>
	<path class="st3" d="M167.9,69.4c0,0-4.1,3.7-5,5.4c-0.9,1.5-1.2,3.5-1.2,3.5s2.4-0.9,3-2.2C165.1,75.1,167.9,69.4,167.9,69.4z"/>
	<path class="st3" d="M58.5,126.3c0,0,6.2,1,8.4,0.8c2-0.2,4.2-1.1,4.2-1.1s-2.4-1.3-4.1-1C65.9,125.2,58.5,126.3,58.5,126.3z"/>
	<path class="st3" d="M104.7,51.2c0,0,1.8,11.7,3.7,17.4c1.9,5.7,6.4,7.7,6.4,7.7s0.4-4.7-1.1-9.1C112.2,62.8,104.7,51.2,104.7,51.2
		z"/>
	<path class="st3" d="M81.1,163c1.5-2.2,6.1-9,8.1-10.5c1.6-1.2,6.2-0.4,9.8,0.1c3.6,0.4,10.3,1.4,5.9-2.3
		c-2.1-1.8-6.2-2.8-10.8-3.4c-4.5-0.7-7.1-0.8-8.9,0.9c-2.1,1.9-5.5,7.1-7.5,10.1C74.9,162,78.5,166.6,81.1,163z"/>
	<path class="st4" d="M85.7,163.5c-0.4,2.3-3.3,7.5-7.2,1.5c-3.5-5.4-4.7-11.2-4.4-14.3c0.3-3.7,8.3-7,9.1-3.6
		c0.8,3.4,1.4,5.8,1.6,8.4C85,158.7,86.1,161.7,85.7,163.5z"/>
	<g>
		<path class="st3" d="M128.3,160.5c2.6,2,3.4,4.4,3.7,6.9c0.5,3.5-0.4,4.1-3.2,7.1c-2.8,3-3.5,4.4-5.8,5c-5,1.4-0.8-3,1.3-5.5
			c2.2-2.4,3.3-4.1,2.8-5.8c-0.9-2.7-3.1-4.9-4.9-6.5C119.1,159.1,124.8,157.7,128.3,160.5z"/>
	</g>
	<path class="st4" d="M120.2,179.7c1.9-1.8,4-3.1,6.9-5.1c2.9-2,6.6,5.8,4.3,8.8c-1.9,2.4-6.7,6-12.9,7.6c-7,1.8-5.6-4-4.3-5.9
		C115,183.4,117.8,182,120.2,179.7z"/>
	<g>
		<path class="st3" d="M88.2,108.1c-2.4-1.3-7.7-3.9-11.4-7.3c-3.6-3.3-4.5-5-4.5-5s1.2-1.3,0.9-3c-0.3-1.7,1.7-2.4,2.7-2.3
			c1,0.1,0.2-2.8-2.3-2.1c-2.5,0.7-3,2.1-3,2.1s-0.5-1.9-2-2.1c-0.6-0.1-1,0.6-1.9,0.9c-0.4,0.1-0.3-0.9-1.7-0.6
			c-2.1,0.3-1.2,2.6-1.2,2.6s-1.6-1-2.7-1.8c-1.1-0.7-2.6,0.6-0.6,2.1c1.7,1.3,2.2,2.6,3.8,4.5c1.6,1.9,4.5,5.3,9.5,9.5
			c5,4.2,9.2,5.8,11.9,7.2"/>
	</g>
	<path class="st3" d="M175.2,140.9c-1.1-0.1,5.3,3.9,9.3,6c2.9,1.5,8.7,2.5,11.8,2.9c4.8,0.8,6.2,1.2,7,1.3c5,0.8,4.6,3,4.6,3
		s-0.1,1.1-1.6,0.9c-1.5-0.2-4-1.4-4-1.4s3.8,2.7,2.8,3.3c-0.4,0.3-2.6-0.5-2.4-0.3c0.5,0.8-0.4,1.2-0.8,1c-1.8-0.6-2.3-2-7.6-2.3
		c-1.7,0-6.7-0.1-12.9-2.6c-7.6-3-9.7-6.8-9.7-6.8L175.2,140.9z"/>
	<polygon class="st5" points="95.3,85.1 83.6,89.3 71.6,81.1 74.9,63.1 92.9,60.6 100.3,73.4 	"/>
	<polygon class="st6" points="101.3,91.1 93.4,93.3 84.6,87.1 85.6,75.4 97.5,74.5 103.8,83.4 	"/>
	<g>
		<path class="st77" d="M116.1,172.2c-15-9.5-23.6-15-41.5-22.2c-11.9-4.8-24.9-5.5-24.9-5.5s5.5,11,13.8,20.5
			c8.3,9.4,21.2,17.6,37,25.6c12.9,6.5,30.6,11.5,30.6,11.5s0.8,7.4,5.1,10.6c4.2,3.3,2.6,0.9,1.2-3.2c-1.4-4.1-0.1-5.7-0.1-5.7
			l10.7,3.2l5.8-8.2C153.8,198.7,136,184.9,116.1,172.2z"/>
	</g>
	<g>
		<defs>
			<path id="SVGID_53_" d="M116.1,172.2c-15-9.5-23.6-15-41.5-22.2c-11.9-4.8-24.9-5.5-24.9-5.5s5.5,11,13.8,20.5
				c8.3,9.4,21.2,17.6,37,25.6c12.9,6.5,30.6,11.5,30.6,11.5s0.8,7.4,5.1,10.6c4.2,3.3,2.6,0.9,1.2-3.2c-1.4-4.1-0.1-5.7-0.1-5.7
				l10.7,3.2l5.8-8.2C153.8,198.7,136,184.9,116.1,172.2z"/>
		</defs>
		<clipPath id="SVGID_4_">
			<use xlink:href="#SVGID_53_"  style="overflow:visible;"/>
		</clipPath>
		<g class="st12">
			<path class="st79" d="M153,203.9c0,0-10.1-15-24.2-22c-12.7-6.3-25.9-7-25.9-7s2.2-2.2,7.3-2.7c5-0.5,10.9,2.6,10.9,2.6
				s-7.1-6.9-12.6-7c-5.5-0.1-9.5,3.6-9.5,3.6s-1-3.5,4.6-7.1c5.5-3.5,12.2-3.4,12.2-3.4s-8.3-4.1-14.9-1
				c-6.8,3.2-10.3,11.5-10.3,11.5s-2.5-1.3-1.9-5.8c0.6-4.5,4.3-6.6,4.3-6.6s-7.6,0.6-9,6.7c-1.4,6.2,1.1,8.5,1.1,8.5
				s-5.7,2.3-6.8,8.2c-1.2,6,0.7,8.9,0.7,8.9s-0.1-3.8,4.2-8.7c4.2-4.8,5.8-4.7,5.8-4.7s-6.4,8-2.4,14.2c4,6.3,14.5,7.4,14.5,7.4
				s-7.4-4.2-9-8.5c-1.6-4.2,3.1-9,3.1-9s-0.6,4,3.4,6.7c2.4,1.6,5,2.3,7.1,2.5c2.1,0.2,5.4-1.1,5.4-1.1s-4.2-0.2-6.9-4.1
				c-2.7-3.9-1.6-7.4-1.6-7.4s10.6,0.6,21.6,6.1c3.7,1.9,6.6,4.2,10.8,7.1c1.6,0.4,3.1,1.4,6.6,4.1c1.9,1.5-0.9,3.1-0.8,3.2
				c6.1,6.9,7.4,12.2,7.4,12.2L153,203.9z"/>
		</g>
	</g>
	<path class="st4" d="M61.5,167c0,0-2.5-2.5-8.9-4.4s-8.9,3.2-8.9,3.2s-1.4,2.8,0.5,4.8c0,0,3.4,2.7,6.1-0.7
		C52.6,166.8,55.5,165.1,61.5,167z"/>
	<path class="st4" d="M50.8,157.1c0,0-0.5-3-5.1-4.3c-4.6-1.3-4.9,2.3-4.9,2.3s0.4,4.2,3.8,2.2C46,156.4,46.6,154.5,50.8,157.1z"/>
	<g>
		<path d="M113.4,83.1c1.8-1,3.6-1.8,5.4-2.7l2.7-1.3l2.7-1.4c-1.3,1.6-3.1,2.7-4.9,3.5c-0.9,0.4-1.9,0.8-2.8,1.1
			C115.4,82.8,114.4,83,113.4,83.1z"/>
	</g>
	<g>
		<path d="M131.8,77.9c1.7-0.9,3.5-1.6,5.3-1.9c1.9-0.4,3.9-0.5,5.8,0.1c1,0.3,1.9,0.9,2.6,1.4c0.8,0.6,1.5,1.1,2.3,1.7
			c0.4,0.3,0.7,0.6,1,1c0.3,0.4,0.6,0.8,0.8,1.3c0.1,0.5-0.1,1.1-0.4,1.5c-0.3,0.4-0.7,0.6-1.1,0.9c0.3-0.3,0.7-0.7,0.9-1
			c0.2-0.4,0.3-0.8,0.1-1.2c-0.1-0.4-0.4-0.7-0.8-1c-0.3-0.3-0.7-0.6-1.1-0.9c-0.8-0.5-1.5-1-2.3-1.6c-0.8-0.5-1.5-1-2.4-1.2
			c-0.8-0.3-1.7-0.4-2.6-0.4c-0.9-0.1-1.8,0-2.7,0.1C135.4,77,133.6,77.4,131.8,77.9z"/>
	</g>
	<g>
		<path class="st7" d="M131.6,91l1.8-0.7c0,0-0.1,2.4-0.9,4c-1,2-3,3.9-5.5,4c-2.4,0.1-3.7-0.6-4.1-1.6c-0.5-1,0.1-1.5,0.3-1.7
			c0.2-0.2,2.3-2.6,2.3-2.6"/>
		<path class="st8" d="M123.1,94.3c0,0-1,2,0.8,2.8c1.8,0.8,3.5,1.4,5.3,0.1c1.8-1.3,2.9-2.5,3.2-3.6s0.1-1.9,0.1-1.9
			s-5,2.9-6.5,2.9c-1.5,0-1.7,0-1.7,0L123.1,94.3z"/>
		<path class="st8" d="M121.5,91.9c0,0,0.1,3.3,2.1,3.7s2.8,0.6,4.1,0.4c1.3-0.2,3.7-1.8,4.6-2.9c0.9-1.1,0.9-2.5,0.9-2.5
			s-2.6,1.6-5.1,1.9C126.5,92.6,123.6,92.6,121.5,91.9z"/>
		<path class="st7" d="M120.1,91.5c0,0,4.5,1.2,8.1,0.4c3.6-0.8,5.6-1.7,5.6-1.7s-4.8,2.6-6.4,2.8C125.7,93.1,123,92.6,120.1,91.5z"
			/>
		<g>
			<path class="st9" d="M115.7,88.5c-0.4-0.1-3.3-0.2-5.1,0.7c-1.4,0.7-2.4,1.6-2.5,2.3c-0.1,0.5,0.2,0.8,1.1,1.1
				c0.1,0,0.2,0.1,0.3,0.1c1.8,0.3,3.7-0.8,4.6-1.2c1-0.5,2.1-1.2,2.6-1.9c0.1-0.1,0.1-0.2,0.1-0.3
				C116.9,88.9,116.2,88.6,115.7,88.5C115.7,88.5,115.7,88.5,115.7,88.5"/>
		</g>
		<path class="st10" d="M157.3,87.7c-4.7-2.7-11.3-2.8-13.6,0.2c-1.1,1.5,1,4,5.5,5.6c2.9,1,5.8,2.3,8.8,0.1
			C159.7,92.3,161.1,89.8,157.3,87.7z"/>
		<path class="st11" d="M159.1,79.8l-50.6,2.6c0,0-2.8,8.5,5.9,8.4c8.7-0.1,15.3-7.7,15.3-7.7s1.2,8.4,12.5,8.3
			C153.4,91.4,159.1,79.8,159.1,79.8z"/>
		<g>
			<defs>
				<path id="SVGID_55_" d="M130.6,82.2l0.1,0.7c0,0.3,1.2,7.5,11.5,7.5c8.1-0.1,13.2-6.6,15.2-9.6L130.6,82.2z"/>
			</defs>
			<defs>
				<path id="SVGID_56_" d="M130.6,82.2l0.1,0.7c0,0.3,1.2,7.5,11.5,7.5c8.1-0.1,13.2-6.6,15.2-9.6L130.6,82.2z"/>
			</defs>
			<clipPath id="SVGID_5_">
				<use xlink:href="#SVGID_55_"  style="overflow:visible;"/>
			</clipPath>
			<clipPath id="SVGID_8_" class="st13">
				<use xlink:href="#SVGID_56_"  style="overflow:visible;"/>
			</clipPath>
			<g class="st19">
				<line class="st14" x1="144.8" y1="77.7" x2="125.2" y2="102.5"/>
				<line class="st14" x1="144.8" y1="77.7" x2="125.2" y2="102.5"/>
				<line class="st15" x1="136.1" y1="78.8" x2="118.1" y2="101.4"/>
				<line class="st15" x1="136.1" y1="78.8" x2="118.1" y2="101.4"/>
				<line class="st16" x1="139.4" y1="78.1" x2="120.6" y2="101.8"/>
				<line class="st16" x1="139.4" y1="78.1" x2="120.6" y2="101.8"/>
				<line class="st17" x1="156.8" y1="78.5" x2="136.4" y2="104.2"/>
				<line class="st17" x1="156.8" y1="78.5" x2="136.4" y2="104.2"/>
				<line class="st18" x1="159" y1="78.9" x2="138.6" y2="104.5"/>
				<line class="st18" x1="159" y1="78.9" x2="138.6" y2="104.5"/>
			</g>
		</g>
		<g>
			<defs>
				<path id="SVGID_59_" d="M109.3,83.3c-0.2,1.1-0.5,3.3,0.6,4.8c0.8,1.1,2.4,1.7,4.5,1.7c8.1-0.1,14.5-7.2,14.5-7.3l0.1-0.1
					L109.3,83.3z"/>
			</defs>
			<defs>
				<path id="SVGID_60_" d="M109.3,83.3c-0.2,1.1-0.5,3.3,0.6,4.8c0.8,1.1,2.4,1.7,4.5,1.7c8.1-0.1,14.5-7.2,14.5-7.3l0.1-0.1
					L109.3,83.3z"/>
			</defs>
			<clipPath id="SVGID_9_">
				<use xlink:href="#SVGID_59_"  style="overflow:visible;"/>
			</clipPath>
			<clipPath id="SVGID_10_" class="st20">
				<use xlink:href="#SVGID_60_"  style="overflow:visible;"/>
			</clipPath>
			<g style="clip-path:url(#SVGID_10_);">
				<line class="st14" x1="122.7" y1="78.5" x2="106" y2="99.5"/>
				<line class="st14" x1="122.7" y1="78.5" x2="106" y2="99.5"/>
				<line class="st15" x1="126.5" y1="79.1" x2="109.8" y2="100.1"/>
				<line class="st15" x1="126.5" y1="79.1" x2="109.8" y2="100.1"/>
			</g>
		</g>
	</g>
</g>
</svg>
