<?xml version="1.0" encoding="utf-8"?>
<!-- Generator: Adobe Illustrator 22.0.0, SVG Export Plug-In . SVG Version: 6.00 Build 0)  -->
<svg version="1.1" id="mascotte" xmlns="http://www.w3.org/2000/svg" xmlns:xlink="http://www.w3.org/1999/xlink" x="0px" y="0px"
	 viewBox="0 0 245.8 245.8" style="enable-background:new 0 0 245.8 245.8;" xml:space="preserve">
<style type="text/css">
	.st0{opacity:0.6;}
	.st1{fill-rule:evenodd;clip-rule:evenodd;fill:#FFDF43;}
	.st2{fill-rule:evenodd;clip-rule:evenodd;fill:url(#SVGID_1_);}
	.st3{fill-rule:evenodd;clip-rule:evenodd;fill:#FAB010;}
	.st4{fill-rule:evenodd;clip-rule:evenodd;fill:#157EBF;}
	.st5{opacity:0.6;fill:#FFE565;}
	.st6{opacity:0.6;fill:#FCDE48;}
	.st7{fill-rule:evenodd;clip-rule:evenodd;fill:#AA5D0A;}
	.st8{fill-rule:evenodd;clip-rule:evenodd;fill:#FDFEFE;}
	.st9{fill:#C8650D;}
	.st10{fill-rule:evenodd;clip-rule:evenodd;fill:#C8650D;}
	.st11{fill-rule:evenodd;clip-rule:evenodd;}
	.st12{clip-path:url(#SVGID_4_);}
	.st13{clip-path:url(#SVGID_5_);}
	.st14{fill:none;stroke:#FFFFFF;stroke-width:4;stroke-miterlimit:10;}
	.st15{fill:none;stroke:#FFFFFF;stroke-width:0.75;stroke-miterlimit:10;}
	.st16{fill:none;stroke:#FFFFFF;stroke-width:2;stroke-miterlimit:10;}
	.st17{fill:none;stroke:#FFFFFF;stroke-width:1.75;stroke-miterlimit:10;}
	.st18{fill:none;stroke:#FFFFFF;stroke-width:0.25;stroke-miterlimit:10;}
	.st19{clip-path:url(#SVGID_8_);}
	.st20{clip-path:url(#SVGID_9_);}
	.st21{fill-rule:evenodd;clip-rule:evenodd;fill:url(#SVGID_10_);}
	.st22{clip-path:url(#SVGID_13_);}
	.st23{clip-path:url(#SVGID_14_);}
	.st24{clip-path:url(#SVGID_17_);}
	.st25{clip-path:url(#SVGID_18_);}
	.st26{fill-rule:evenodd;clip-rule:evenodd;fill:url(#SVGID_19_);}
	.st27{clip-path:url(#SVGID_22_);}
	.st28{clip-path:url(#SVGID_23_);}
	.st29{clip-path:url(#SVGID_26_);}
	.st30{clip-path:url(#SVGID_27_);}
	.st31{fill:none;}
	.st32{fill:#4D2200;}
	.st33{fill:#3B5172;}
	.st34{fill:#60BFBB;}
	.st35{fill:#B3E5E2;}
	.st36{fill:#9BFFF8;}
	.st37{fill:url(#XMLID_7_);}
	.st38{fill:url(#XMLID_8_);}
	.st39{fill:url(#XMLID_9_);}
	.st40{fill:url(#XMLID_10_);}
	.st41{fill:url(#XMLID_11_);}
	.st42{fill:url(#XMLID_12_);}
	.st43{fill:url(#XMLID_13_);}
	.st44{fill:url(#XMLID_15_);}
	.st45{fill:url(#XMLID_16_);}
	.st46{fill:url(#XMLID_18_);}
	.st47{fill:url(#XMLID_20_);}
	.st48{fill:url(#XMLID_21_);}
	.st49{fill:url(#XMLID_22_);}
	.st50{fill:url(#XMLID_23_);}
	.st51{fill:url(#XMLID_25_);}
	.st52{fill:url(#XMLID_26_);}
	.st53{fill:url(#XMLID_27_);}
	.st54{fill-rule:evenodd;clip-rule:evenodd;fill:url(#SVGID_28_);}
	.st55{fill:#C95534;}
	.st56{fill:url(#SVGID_29_);}
	.st57{fill:#A2CBF1;}
	.st58{fill:#157EBF;}
	.st59{clip-path:url(#SVGID_31_);fill:none;stroke:#2B89E0;stroke-width:2.8631;stroke-miterlimit:10;}
	.st60{fill:url(#SVGID_32_);}
	.st61{clip-path:url(#SVGID_34_);fill:none;stroke:#2B89E0;stroke-width:2.8631;stroke-miterlimit:10;}
	.st62{fill:#CC5D3F;}
	.st63{fill:#FFC66B;}
	.st64{fill:#FFE3A3;}
	.st65{fill:#2B89E0;}
	.st66{fill-rule:evenodd;clip-rule:evenodd;fill:#FAB315;}
	.st67{clip-path:url(#SVGID_37_);}
	.st68{clip-path:url(#SVGID_38_);}
	.st69{clip-path:url(#SVGID_41_);}
	.st70{clip-path:url(#SVGID_42_);}
	.st71{fill-rule:evenodd;clip-rule:evenodd;fill:url(#SVGID_43_);}
	.st72{clip-path:url(#SVGID_46_);}
	.st73{clip-path:url(#SVGID_47_);}
	.st74{clip-path:url(#SVGID_50_);}
	.st75{clip-path:url(#SVGID_51_);}
	.st76{fill-rule:evenodd;clip-rule:evenodd;fill:url(#SVGID_52_);}
	.st77{fill-rule:evenodd;clip-rule:evenodd;fill:#42433E;}
	.st78{clip-path:url(#SVGID_54_);}
	.st79{fill-rule:evenodd;clip-rule:evenodd;fill:#FFFFFF;}
	.st80{clip-path:url(#SVGID_57_);}
	.st81{clip-path:url(#SVGID_58_);}
	.st82{clip-path:url(#SVGID_61_);}
	.st83{clip-path:url(#SVGID_62_);}
	.st84{fill-rule:evenodd;clip-rule:evenodd;fill:url(#SVGID_63_);}
	.st85{clip-path:url(#SVGID_65_);}
	.st86{fill:#FAB010;}
	.st87{clip-path:url(#SVGID_68_);}
	.st88{clip-path:url(#SVGID_69_);}
	.st89{clip-path:url(#SVGID_72_);}
	.st90{clip-path:url(#SVGID_73_);}
	.st91{fill-rule:evenodd;clip-rule:evenodd;fill:url(#SVGID_74_);}
	.st92{fill:#AA5D0A;}
	.st93{clip-path:url(#SVGID_77_);}
	.st94{clip-path:url(#SVGID_78_);}
	.st95{clip-path:url(#SVGID_81_);}
	.st96{clip-path:url(#SVGID_82_);}
	.st97{fill-rule:evenodd;clip-rule:evenodd;fill:url(#SVGID_83_);}
	.st98{fill-rule:evenodd;clip-rule:evenodd;fill:#E9AB48;}
	.st99{fill-rule:evenodd;clip-rule:evenodd;fill:#AA2C0A;}
	.st100{fill-rule:evenodd;clip-rule:evenodd;fill:#FFE565;}
	.st101{fill-rule:evenodd;clip-rule:evenodd;fill:#753E22;}
	.st102{fill-rule:evenodd;clip-rule:evenodd;fill:#3CB13C;}
	.st103{clip-path:url(#SVGID_86_);}
	.st104{clip-path:url(#SVGID_87_);}
	.st105{clip-path:url(#SVGID_90_);}
	.st106{clip-path:url(#SVGID_91_);}
	.st107{fill-rule:evenodd;clip-rule:evenodd;fill:url(#SVGID_92_);}
	.st108{clip-path:url(#SVGID_95_);}
	.st109{clip-path:url(#SVGID_96_);}
	.st110{clip-path:url(#SVGID_99_);}
	.st111{clip-path:url(#SVGID_100_);}
	.st112{fill-rule:evenodd;clip-rule:evenodd;fill:url(#SVGID_101_);}
	.st113{fill:#A7A89E;}
	.st114{fill:none;stroke:#A7A89E;stroke-width:0.25;stroke-miterlimit:10;}
	.st115{fill:#FDBA1D;}
	.st116{fill:#FFFFFF;}
	.st117{fill:#42433E;}
	.st118{fill:#2B2B28;}
	.st119{fill:#111110;}
	.st120{clip-path:url(#SVGID_104_);}
	.st121{clip-path:url(#SVGID_105_);}
	.st122{clip-path:url(#SVGID_108_);}
	.st123{clip-path:url(#SVGID_109_);}
	.st124{fill-rule:evenodd;clip-rule:evenodd;fill:#33383F;}
	.st125{fill:#272E35;}
	.st126{fill-rule:evenodd;clip-rule:evenodd;fill:url(#SVGID_110_);}
	.st127{fill-rule:evenodd;clip-rule:evenodd;fill:#434E5B;}
	.st128{opacity:0.5;fill-rule:evenodd;clip-rule:evenodd;fill:#FDFEFE;}
	.st129{fill-rule:evenodd;clip-rule:evenodd;fill:#FF4100;}
	.st130{fill-rule:evenodd;clip-rule:evenodd;fill:#7A1A00;}
	.st131{fill-rule:evenodd;clip-rule:evenodd;fill:#11A700;}
	.st132{fill-rule:evenodd;clip-rule:evenodd;fill:#165500;}
	.st133{fill-rule:evenodd;clip-rule:evenodd;fill:#0072CC;}
	.st134{fill-rule:evenodd;clip-rule:evenodd;fill:#00446F;}
	.st135{fill-rule:evenodd;clip-rule:evenodd;fill:url(#SVGID_111_);}
	.st136{fill-rule:evenodd;clip-rule:evenodd;fill:url(#SVGID_112_);}
	.st137{fill-rule:evenodd;clip-rule:evenodd;fill:#FCCF4E;}
	.st138{clip-path:url(#SVGID_115_);}
	.st139{clip-path:url(#SVGID_116_);}
	.st140{fill:none;stroke:#FFFFFF;stroke-width:3.3578;stroke-miterlimit:10;}
	.st141{fill:none;stroke:#FFFFFF;stroke-width:0.6296;stroke-miterlimit:10;}
	.st142{fill:none;stroke:#FFFFFF;stroke-width:1.6789;stroke-miterlimit:10;}
	.st143{fill:none;stroke:#FFFFFF;stroke-width:1.4691;stroke-miterlimit:10;}
	.st144{fill:none;stroke:#FFFFFF;stroke-width:0.2099;stroke-miterlimit:10;}
	.st145{clip-path:url(#SVGID_119_);}
	.st146{clip-path:url(#SVGID_120_);}
	.st147{fill-rule:evenodd;clip-rule:evenodd;fill:none;stroke:#AA5D0A;stroke-width:0.9654;stroke-miterlimit:10;}
	.st148{fill-rule:evenodd;clip-rule:evenodd;fill:#272E35;}
	.st149{fill:#33383F;}
	.st150{fill-rule:evenodd;clip-rule:evenodd;fill:url(#SVGID_121_);}
	.st151{fill:#4F0000;}
	.st152{fill:url(#SVGID_122_);}
	.st153{clip-path:url(#SVGID_124_);}
	.st154{fill:#EF7031;}
	.st155{fill:#F9CC02;}
	.st156{fill:#929497;}
	.st157{fill:#FF4100;}
	.st158{fill:#231F20;}
	.st159{fill:#B3B3B3;}
	.st160{fill:#58595B;}
	.st161{fill-rule:evenodd;clip-rule:evenodd;fill:#FAB212;}
	.st162{fill-rule:evenodd;clip-rule:evenodd;fill:url(#SVGID_125_);}
	.st163{clip-path:url(#SVGID_128_);}
	.st164{clip-path:url(#SVGID_129_);}
	.st165{fill:none;stroke:#FFFFFF;stroke-width:3.7719;stroke-miterlimit:10;}
	.st166{fill:none;stroke:#FFFFFF;stroke-width:0.7072;stroke-miterlimit:10;}
	.st167{fill:none;stroke:#FFFFFF;stroke-width:1.8859;stroke-miterlimit:10;}
	.st168{fill:none;stroke:#FFFFFF;stroke-width:1.6502;stroke-miterlimit:10;}
	.st169{fill:none;stroke:#FFFFFF;stroke-width:0.2357;stroke-miterlimit:10;}
	.st170{clip-path:url(#SVGID_132_);}
	.st171{clip-path:url(#SVGID_133_);}
	.st172{fill:#FFD28C;}
	.st173{fill:#EEB96C;}
	.st174{fill:#DB84B5;}
	.st175{fill:#62B146;}
	.st176{fill:#A9C63D;}
	.st177{fill:#957F4B;}
	.st178{fill:#AD9568;}
	.st179{fill:#825F26;}
	.st180{fill:#CE7829;}
	.st181{fill:#AC5A26;}
	.st182{fill-rule:evenodd;clip-rule:evenodd;fill:none;stroke:#EAA211;stroke-width:5;stroke-miterlimit:10;}
	.st183{fill-rule:evenodd;clip-rule:evenodd;fill:url(#SVGID_134_);}
	.st184{fill:#FA852D;}
	.st185{fill:#F5752A;}
	.st186{fill:#F99E29;}
	.st187{fill-rule:evenodd;clip-rule:evenodd;fill:none;stroke:#FABA24;stroke-width:5;stroke-miterlimit:10;}
	.st188{fill-rule:evenodd;clip-rule:evenodd;fill:#EAA211;}
	.st189{fill-rule:evenodd;clip-rule:evenodd;fill:#FABA24;}
	.st190{fill:url(#SVGID_135_);}
	.st191{fill:url(#SVGID_136_);}
	.st192{filter:url(#Adobe_OpacityMaskFilter);}
	.st193{filter:url(#Adobe_OpacityMaskFilter_1_);}
	.st194{mask:url(#SVGID_137_);fill:url(#SVGID_138_);}
	.st195{opacity:0.14;fill:url(#SVGID_139_);}
	.st196{filter:url(#Adobe_OpacityMaskFilter_2_);}
	.st197{filter:url(#Adobe_OpacityMaskFilter_3_);}
	.st198{mask:url(#SVGID_140_);fill:url(#SVGID_141_);}
	.st199{opacity:0.14;fill:url(#SVGID_142_);}
	.st200{fill:url(#SVGID_143_);}
	.st201{fill:url(#SVGID_144_);}
	.st202{fill:url(#SVGID_145_);}
	.st203{fill:url(#SVGID_146_);}
	.st204{fill:#CBEAF6;}
	.st205{fill:#96D7ED;}
	.st206{fill:#F06888;}
	.st207{fill:#F395BE;}
	.st208{fill:#C84C27;}
	.st209{fill:#F16822;}
	.st210{fill:#F37940;}
	.st211{fill:#F37B4C;}
	.st212{fill:#4C3427;}
	.st213{fill:#9F3022;}
	.st214{fill-rule:evenodd;clip-rule:evenodd;fill:url(#SVGID_147_);}
	
		.st215{fill-rule:evenodd;clip-rule:evenodd;fill:none;stroke:#FAB010;stroke-width:10.343;stroke-linecap:round;stroke-linejoin:round;stroke-miterlimit:10;}
	
		.st216{fill-rule:evenodd;clip-rule:evenodd;fill:none;stroke:#FAB010;stroke-width:11;stroke-linecap:round;stroke-linejoin:round;stroke-miterlimit:10;}
	.st217{clip-path:url(#SVGID_150_);}
	.st218{clip-path:url(#SVGID_151_);}
	.st219{fill:none;stroke:#FFFFFF;stroke-width:4.33;stroke-miterlimit:10;}
	.st220{fill:none;stroke:#FFFFFF;stroke-width:0.8119;stroke-miterlimit:10;}
	.st221{fill:none;stroke:#FFFFFF;stroke-width:2.165;stroke-miterlimit:10;}
	.st222{fill:none;stroke:#FFFFFF;stroke-width:1.8944;stroke-miterlimit:10;}
	.st223{fill:none;stroke:#FFFFFF;stroke-width:0.2706;stroke-miterlimit:10;}
	.st224{clip-path:url(#SVGID_154_);}
	.st225{clip-path:url(#SVGID_155_);}
	.st226{fill:none;stroke:#A7A89E;stroke-width:0.2797;stroke-miterlimit:10;}
	
		.st227{fill-rule:evenodd;clip-rule:evenodd;fill:none;stroke:#FFFFFF;stroke-width:0.75;stroke-linecap:round;stroke-miterlimit:10;}
	.st228{fill-rule:evenodd;clip-rule:evenodd;fill:none;stroke:#FFFFFF;stroke-width:2.5187;stroke-miterlimit:10;}
	.st229{fill:#4F2706;}
	.st230{opacity:0.25;fill:#FFFFFF;}
	.st231{fill-rule:evenodd;clip-rule:evenodd;fill:#A7A89E;}
	.st232{fill-rule:evenodd;clip-rule:evenodd;fill:none;stroke:#42433E;stroke-width:0.9637;stroke-miterlimit:10;}
	.st233{opacity:0.5;fill:url(#SVGID_156_);}
	.st234{fill:#AEAFA3;}
	.st235{fill-rule:evenodd;clip-rule:evenodd;fill:url(#SVGID_157_);}
	.st236{fill:url(#SVGID_158_);}
	.st237{opacity:0.4;}
	.st238{fill:url(#SVGID_159_);}
	.st239{fill-rule:evenodd;clip-rule:evenodd;fill:none;stroke:#FAB011;stroke-width:5.3617;stroke-miterlimit:10;}
	
		.st240{fill-rule:evenodd;clip-rule:evenodd;fill:none;stroke:#FABA24;stroke-width:3;stroke-linecap:round;stroke-linejoin:round;stroke-miterlimit:10;}
	
		.st241{fill-rule:evenodd;clip-rule:evenodd;fill:none;stroke:#FABA24;stroke-width:2;stroke-linecap:round;stroke-linejoin:round;stroke-miterlimit:10;}
	
		.st242{fill-rule:evenodd;clip-rule:evenodd;fill:none;stroke:#FABA24;stroke-width:2.5;stroke-linecap:round;stroke-linejoin:round;stroke-miterlimit:10;}
	.st243{fill-rule:evenodd;clip-rule:evenodd;fill:url(#SVGID_160_);}
	.st244{fill-rule:evenodd;clip-rule:evenodd;fill:url(#SVGID_161_);}
	.st245{opacity:0.5;fill:#FFE3A3;}
	.st246{fill-rule:evenodd;clip-rule:evenodd;fill:#32383F;}
	.st247{fill:#32383F;}
	.st248{fill:url(#SVGID_162_);}
	.st249{filter:url(#Adobe_OpacityMaskFilter_4_);}
	.st250{filter:url(#Adobe_OpacityMaskFilter_5_);}
	.st251{mask:url(#SVGID_163_);fill:url(#SVGID_164_);}
	.st252{opacity:0.5;fill:url(#SVGID_165_);}
	.st253{filter:url(#Adobe_OpacityMaskFilter_6_);}
	.st254{filter:url(#Adobe_OpacityMaskFilter_7_);}
	.st255{mask:url(#SVGID_166_);fill:url(#SVGID_167_);}
	.st256{opacity:0.5;fill:url(#SVGID_168_);}
	.st257{fill:url(#SVGID_169_);}
	.st258{opacity:0.5;}
	.st259{fill:#FFFDF0;}
	.st260{fill-rule:evenodd;clip-rule:evenodd;fill:none;stroke:#32383F;stroke-width:2;stroke-linecap:round;stroke-miterlimit:10;}
	.st261{opacity:0.2;}
	.st262{fill:none;stroke:#FDFEFE;stroke-width:2;stroke-miterlimit:10;}
	.st263{fill:none;stroke:#FDFEFE;stroke-width:2;stroke-miterlimit:10;stroke-dasharray:1.0301,8.2408;}
</style>
<g>
	<path class="st31" d="M49.3,77.8c-0.8-0.2-3,0.8-1.4,2.4c0.8,0.8,1.8,0.5,2.5-0.1c0.4-0.3,0.7-0.6,1-1C50.6,78.5,49.8,78,49.3,77.8
		z"/>
	<path class="st32" d="M214.2,74.6C214.1,74.6,214.1,74.6,214.2,74.6C214.1,74.6,214.1,74.6,214.2,74.6
		C214.1,74.6,214.1,74.6,214.2,74.6z"/>
	<path class="st33" d="M39.4,103.2c-0.2-0.4-1.3-2.9-3.6-3.6c-2.4-0.7-4.7,1.1-4.9,1.3c-2.8,2.2-2.6,6.2-4.4,6.3
		c-0.5,0-0.9-0.2-0.9-0.2c-0.9-0.5-0.7-1.5-1.6-3.1c-0.4-0.8-0.8-1.5-1.6-1.8c-1.1-0.4-2.3,0.5-2.6,0.7l0.4,2.1
		c0.8-0.6,1.3-0.6,1.6-0.5c0.5,0.2,0.5,0.7,1.2,1.8c0.3,0.5,0.8,1.1,1.6,1.6c0.3,0.2,1,0.5,1.9,0.5c0.2,0,1-0.1,1.8-0.6
		c1-0.7,0.9-1.4,1.8-2.7c0.3-0.5,1.4-2,3.3-2.7c0.6-0.2,1.6-0.6,2.7-0.3c1.3,0.3,2,1.3,2.2,1.5c0.8,1,0.9,2.2,1.2,4.4
		c0.1,0.5,0.1,0.8,0.2,1.3c0.2,0.6,0.6,1.7,1.6,2.2c0.8,0.4,1.6,0.1,1.7,0.1c1.3-0.4,1.3-1.6,2.9-3.8c0.9-1.2,1.7-2.2,3-2.8
		c1.2-0.5,2.3-0.4,2.9-0.4c1.8,0.1,3.1,0.9,3.7,1.3l0.9-1.8c-0.8-0.6-3-2.1-5.5-1.6c-2.1,0.4-4.4,2.2-5.5,4.4
		c-0.4,0.8-0.6,1.5-1.3,1.9c-1,0.5-2.5,0.2-3.2-0.7c-0.3-0.4-0.4-0.7-0.7-1.8C40,104.9,39.6,103.7,39.4,103.2z M55.4,105
		C55.4,105,55.4,105,55.4,105C55.4,105,55.4,105,55.4,105C55.4,105,55.4,105,55.4,105z"/>
	<path class="st33" d="M159.7,41.3c0.2-0.2,2.8-2.8,6.3-2.3c1.9,0.2,3.2,1.3,3.7,1.8l1.5,5.4c-0.2-0.6-0.7-1.8-1.8-2.7
		c-1.8-1.5-4.5-1.9-6.8-0.8c-0.4,0.2-2.9,1.4-3.5,3.7c-0.3,1.2,0.2,2.5,1,5c0.7,2.2,1.1,2.4,1.1,3.4c0,1.8-1.1,3.5-2.1,4.5l-2.5-1.1
		c0.6-0.5,1.7-1.7,2.2-3.5c0.3-1.2,0.2-2.2,0-3c-0.4-2.5-1.3-2.7-1.5-4.3C157,45,158.3,42.7,159.7,41.3z"/>
	<path class="st32" d="M216.3,144.6c0.1,0.3,0.9,3.9-1.4,6.6c-1.2,1.5-2.8,2-3.4,2.2l-5.4-1.5c0.7,0.2,1.9,0.3,3.2-0.1
		c2.2-0.7,4-2.8,4.3-5.4c0-0.4,0.4-3.2-1.3-4.9c-0.8-0.9-2.2-1.2-4.8-1.8c-2.2-0.5-2.6-0.4-3.4-0.9c-1.6-0.9-2.3-2.8-2.7-4.2
		l2.3-1.5c0.1,0.7,0.5,2.4,1.8,3.7c0.9,0.9,1.8,1.3,2.6,1.6c2.3,1,3,0.3,4.5,1C214.5,140.4,215.8,142.7,216.3,144.6z"/>
	<path class="st34" d="M50.5,64.7c2.1,4.2,2.5,9.1,1.8,12.3c0.8,0.6,1.6,1.4,2.3,2.3c0.1-0.2,0.2-0.5,0.3-0.7
		c2.4-7-0.8-13.2-3.7-16.8c-1.3-1.7-3.6-2-6.1-1.8C47.2,60.7,49.2,62.1,50.5,64.7z"/>
	<path class="st35" d="M36.8,61.8c2.2-0.6,5.4-1.6,8.3-1.9c-2.2-0.8-4.5-0.8-6.2-0.4c-3.2,0.7-6.6,0.6-9.1-1.8
		c-2.5-2.4-0.7-7.1-0.7-7.1S23.8,55,26.3,59C28.8,63,32.6,62.9,36.8,61.8z"/>
	<path class="st35" d="M52.3,77c-1.6-1.2-3.2-1.7-4.1-1.4c-2.4,0.9-3.1,3-1.5,5.2c1,1.4,4.2,2.6,6.5,0.4c0.3,0.4,0.5,0.9,0.6,1.4
		c0.6,2.3,0.1,5.3,0.1,5.3l3.9-0.3c-0.3-3.5-1.6-6.4-3.2-8.5C53.9,78.4,53.1,77.6,52.3,77z M50.4,80.1c-0.8,0.5-1.7,0.8-2.5,0.1
		c-1.6-1.6,0.6-2.6,1.4-2.4c0.5,0.1,1.3,0.6,2.1,1.3C51.1,79.5,50.8,79.9,50.4,80.1z"/>
	<g id="XMLID_41_">
		<polygon id="XMLID_59_" class="st36" points="220.8,119.3 218.2,123.8 214.3,124 217.1,118.5 		"/>
		<polygon id="XMLID_58_" class="st36" points="215.6,108.1 216.9,110.6 213.5,111.7 		"/>
		
			<linearGradient id="XMLID_7_" gradientUnits="userSpaceOnUse" x1="175.5301" y1="113.535" x2="175.5301" y2="117.5418" gradientTransform="matrix(0.9589 0.2839 -0.2839 0.9589 28.7563 -49.3902)">
			<stop  offset="0.4894" style="stop-color:#84FFF7"/>
			<stop  offset="0.6366" style="stop-color:#7EFFF7"/>
			<stop  offset="0.8376" style="stop-color:#6CFFF5"/>
			<stop  offset="1" style="stop-color:#59FFF4"/>
		</linearGradient>
		<polygon id="XMLID_57_" class="st37" points="164.4,109.2 165.7,111.6 162.3,112.7 		"/>
		<polygon id="XMLID_56_" class="st32" points="159.6,77.8 160.9,80.3 157.5,81.4 		"/>
		
			<linearGradient id="XMLID_8_" gradientUnits="userSpaceOnUse" x1="143.8732" y1="103.5576" x2="143.8732" y2="107.5645" gradientTransform="matrix(0.9589 0.2839 -0.2839 0.9589 28.7563 -49.3902)">
			<stop  offset="0.4894" style="stop-color:#84FFF7"/>
			<stop  offset="0.6366" style="stop-color:#7EFFF7"/>
			<stop  offset="0.8376" style="stop-color:#6CFFF5"/>
			<stop  offset="1" style="stop-color:#59FFF4"/>
		</linearGradient>
		<polygon id="XMLID_55_" class="st38" points="136.8,90.6 138.2,93.1 134.8,94.2 		"/>
		
			<linearGradient id="XMLID_9_" gradientUnits="userSpaceOnUse" x1="208.5554" y1="72.2287" x2="208.5554" y2="80.3069" gradientTransform="matrix(0.9589 0.2839 -0.2839 0.9589 28.7563 -49.3902)">
			<stop  offset="0.4011" style="stop-color:#AFFFFA"/>
			<stop  offset="1" style="stop-color:#8BFFF7"/>
		</linearGradient>
		<polygon id="XMLID_54_" class="st39" points="208.1,79 208.9,85.2 205.4,86.7 205,81.5 		"/>
		<polygon id="XMLID_53_" class="st33" points="201.9,96.4 199.3,99.1 196.8,94.4 198.8,91 		"/>
		
			<linearGradient id="XMLID_10_" gradientUnits="userSpaceOnUse" x1="201.6978" y1="111.2131" x2="201.6978" y2="117.4869" gradientTransform="matrix(0.9589 0.2839 -0.2839 0.9589 28.7563 -49.3902)">
			<stop  offset="0.4011" style="stop-color:#AFFFFA"/>
			<stop  offset="1" style="stop-color:#8BFFF7"/>
		</linearGradient>
		<polygon id="XMLID_52_" class="st40" points="193,115.2 190,120.6 186.4,119.8 189.1,115.3 		"/>
		<polygon id="XMLID_51_" class="st33" points="193.1,78.1 191.4,81.2 189.3,80.7 190.9,78.2 		"/>
		
			<linearGradient id="XMLID_11_" gradientUnits="userSpaceOnUse" x1="170.6665" y1="121.1753" x2="170.6665" y2="124.7462" gradientTransform="matrix(0.9589 0.2839 -0.2839 0.9589 28.7563 -49.3902)">
			<stop  offset="0.5738" style="stop-color:#4F6380"/>
			<stop  offset="0.8929" style="stop-color:#001D47"/>
		</linearGradient>
		<polygon id="XMLID_50_" class="st41" points="159.4,115.7 157.7,118.7 155.6,118.3 157.2,115.7 		"/>
		<polygon id="XMLID_49_" class="st32" points="180.5,90 176.5,93.8 175.8,90.3 		"/>
		<polygon id="XMLID_48_" class="st32" points="183.6,104 183,107.1 179.3,106.6 180.2,103.6 		"/>
		
			<linearGradient id="XMLID_12_" gradientUnits="userSpaceOnUse" x1="186.9631" y1="73.3053" x2="186.9631" y2="78.6882" gradientTransform="matrix(0.9589 0.2839 -0.2839 0.9589 28.7563 -49.3902)">
			<stop  offset="0.4011" style="stop-color:#AFFFFA"/>
			<stop  offset="1" style="stop-color:#8BFFF7"/>
		</linearGradient>
		<polygon id="XMLID_47_" class="st42" points="190.6,75.7 185.4,79 182.6,76.6 187.1,73.9 		"/>
		<polygon id="XMLID_46_" class="st36" points="173.3,74.8 173.2,77.9 169.2,76.8 171.2,75.4 		"/>
		
			<linearGradient id="XMLID_13_" gradientUnits="userSpaceOnUse" x1="168.9019" y1="69.1619" x2="168.9019" y2="73.3053" gradientTransform="matrix(0.9589 0.2839 -0.2839 0.9589 28.7563 -49.3902)">
			<stop  offset="0.4011" style="stop-color:#AFFFFA"/>
			<stop  offset="1" style="stop-color:#8BFFF7"/>
		</linearGradient>
		<polygon id="XMLID_45_" class="st43" points="172.2,67.3 169.1,68.6 169.4,64.4 		"/>
		<polygon id="XMLID_44_" class="st33" points="167.7,49.1 169.3,52.6 166.5,51.7 		"/>
		<polygon id="XMLID_43_" class="st36" points="145.1,66.1 146.7,69.5 143.8,68.6 		"/>
		
			<linearGradient id="XMLID_15_" gradientUnits="userSpaceOnUse" x1="159.9822" y1="76.7094" x2="159.9822" y2="80.3069" gradientTransform="matrix(0.9589 0.2839 -0.2839 0.9589 28.7563 -49.3902)">
			<stop  offset="0.4011" style="stop-color:#AFFFFA"/>
			<stop  offset="1" style="stop-color:#8BFFF7"/>
		</linearGradient>
		<polygon id="XMLID_42_" class="st44" points="162,71.4 161.4,73.6 157.4,72.4 160.4,69.6 		"/>
	</g>
	<g id="XMLID_2_">
		
			<linearGradient id="XMLID_16_" gradientUnits="userSpaceOnUse" x1="76.9669" y1="164.8163" x2="76.9669" y2="168.8232" gradientTransform="matrix(0.1138 -0.9935 0.9935 0.1138 -39.7088 143.3105)">
			<stop  offset="0.4894" style="stop-color:#84FFF7"/>
			<stop  offset="0.6366" style="stop-color:#7EFFF7"/>
			<stop  offset="0.8376" style="stop-color:#6CFFF5"/>
			<stop  offset="1" style="stop-color:#59FFF4"/>
		</linearGradient>
		<polygon id="XMLID_40_" class="st45" points="132.7,86.1 134.9,84.4 136.6,87.5 		"/>
		<polygon id="XMLID_39_" class="st32" points="102.1,92 103.7,90.8 104.9,93 		"/>
		
			<linearGradient id="XMLID_18_" gradientUnits="userSpaceOnUse" x1="45.31" y1="154.839" x2="45.31" y2="158.8459" gradientTransform="matrix(0.1138 -0.9935 0.9935 0.1138 -39.7088 143.3105)">
			<stop  offset="0.4894" style="stop-color:#84FFF7"/>
			<stop  offset="0.6366" style="stop-color:#7EFFF7"/>
			<stop  offset="0.8376" style="stop-color:#6CFFF5"/>
			<stop  offset="1" style="stop-color:#59FFF4"/>
		</linearGradient>
		<polygon id="XMLID_38_" class="st46" points="119.2,116.4 121.4,114.7 123.1,117.8 		"/>
		
			<linearGradient id="XMLID_20_" gradientUnits="userSpaceOnUse" x1="109.9922" y1="123.51" x2="109.9922" y2="131.5882" gradientTransform="matrix(0.1138 -0.9935 0.9935 0.1138 -39.7088 143.3105)">
			<stop  offset="0.4011" style="stop-color:#AFFFFA"/>
			<stop  offset="1" style="stop-color:#8BFFF7"/>
		</linearGradient>
		<polygon id="XMLID_37_" class="st47" points="95.5,48.2 101.4,46.4 103.5,49.5 98.4,50.8 		"/>
		
			<linearGradient id="XMLID_21_" gradientUnits="userSpaceOnUse" x1="111.0763" y1="95.1265" x2="111.0763" y2="99.2926" gradientTransform="matrix(0.1138 -0.9935 0.9935 0.1138 -39.7088 143.3105)">
			<stop  offset="0.4011" style="stop-color:#AFFFFA"/>
			<stop  offset="1" style="stop-color:#8BFFF7"/>
		</linearGradient>
		<polygon id="XMLID_36_" class="st48" points="67.6,42.4 71.3,42.5 71.4,45.4 68,45.6 		"/>
		<polygon id="XMLID_35_" class="st33" points="113.6,51.4 116.8,53.5 112.6,56.6 108.9,55.3 		"/>
		
			<linearGradient id="XMLID_22_" gradientUnits="userSpaceOnUse" x1="103.1346" y1="162.4945" x2="103.1346" y2="168.7682" gradientTransform="matrix(0.1138 -0.9935 0.9935 0.1138 -39.7088 143.3105)">
			<stop  offset="0.4011" style="stop-color:#AFFFFA"/>
			<stop  offset="1" style="stop-color:#8BFFF7"/>
		</linearGradient>
		<polygon id="XMLID_34_" class="st49" points="133.8,56.8 139.6,58.8 139.4,62.6 134.5,60.7 		"/>
		<polygon id="XMLID_33_" class="st33" points="97.2,63.1 100.5,64.3 100.4,66.4 97.7,65.3 		"/>
		
			<linearGradient id="XMLID_23_" gradientUnits="userSpaceOnUse" x1="72.1033" y1="172.4567" x2="72.1033" y2="176.0276" gradientTransform="matrix(0.1138 -0.9935 0.9935 0.1138 -39.7088 143.3105)">
			<stop  offset="0.5738" style="stop-color:#4F6380"/>
			<stop  offset="0.8929" style="stop-color:#001D47"/>
		</linearGradient>
		<polygon id="XMLID_32_" class="st50" points="140,89.9 143.3,91 143.2,93.1 140.4,92 		"/>
		<polygon id="XMLID_31_" class="st32" points="108.2,80.2 112.6,83.6 109.3,84.8 		"/>
		<polygon id="XMLID_29_" class="st32" points="128.3,65.5 131.5,65.6 131.6,69.3 128.5,69 		"/>
		
			<linearGradient id="XMLID_25_" gradientUnits="userSpaceOnUse" x1="86.562" y1="130.331" x2="86.562" y2="135.7139" gradientTransform="matrix(0.1138 -0.9935 0.9935 0.1138 -39.7088 143.3105)">
			<stop  offset="0.4011" style="stop-color:#AFFFFA"/>
			<stop  offset="1" style="stop-color:#8BFFF7"/>
		</linearGradient>
		<polygon id="XMLID_24_" class="st51" points="100.7,68.5 104.9,73.1 103,76.3 99.6,72.3 		"/>
		<polygon id="XMLID_19_" class="st32" points="68.8,74.2 72.2,75.7 71.1,78.5 67.9,77.3 		"/>
		<polygon id="XMLID_17_" class="st36" points="98.1,86.6 101.2,86.2 100.7,90.4 99,88.7 		"/>
		
			<linearGradient id="XMLID_26_" gradientUnits="userSpaceOnUse" x1="70.3387" y1="120.4433" x2="70.3387" y2="124.5866" gradientTransform="matrix(0.1138 -0.9935 0.9935 0.1138 -39.7088 143.3105)">
			<stop  offset="0.4011" style="stop-color:#AFFFFA"/>
			<stop  offset="1" style="stop-color:#8BFFF7"/>
		</linearGradient>
		<polygon id="XMLID_14_" class="st52" points="90.1,85.6 92,88.5 87.8,88.9 		"/>
		<polygon id="XMLID_6_" class="st33" points="42.3,86.8 45.6,88.4 44.6,91.1 41.4,89.9 		"/>
		<polygon id="XMLID_5_" class="st33" points="73,93.2 76.1,91 75.8,93.9 		"/>
		<polygon id="XMLID_4_" class="st36" points="93.6,112.6 96.7,110.3 96.4,113.3 		"/>
		
			<linearGradient id="XMLID_27_" gradientUnits="userSpaceOnUse" x1="61.4189" y1="127.9908" x2="61.4189" y2="131.5882" gradientTransform="matrix(0.1138 -0.9935 0.9935 0.1138 -39.7088 143.3105)">
			<stop  offset="0.4011" style="stop-color:#AFFFFA"/>
			<stop  offset="1" style="stop-color:#8BFFF7"/>
		</linearGradient>
		<polygon id="XMLID_3_" class="st53" points="96,94.9 98.3,95.2 97.8,99.3 94.4,96.9 		"/>
	</g>
	<g id="Shape_9_23_" class="st0">
		<g>
			<path class="st1" d="M189.6,100.7c-7.8-12.8-16-23.3-36.2-27.9c-20.1-4.6-42.4,1.8-55.1,10.7c-12.6,8.9-35.9,36.4-27.5,63.6
				c8.3,27.2,43.1,28,59.7,27.3c16.7-0.7,42.8-1.8,58-21.2C201.2,136.9,200.9,119.2,189.6,100.7z"/>
		</g>
	</g>
	<g>
		<radialGradient id="SVGID_1_" cx="128.0864" cy="99.5724" r="52.434" gradientUnits="userSpaceOnUse">
			<stop  offset="0" style="stop-color:#FCD253"/>
			<stop  offset="1" style="stop-color:#FAB010"/>
		</radialGradient>
		<path class="st2" d="M125.5,85c-7.3,1.6-28.4,8.9-38.1,32.8c-9.6,23.9-0.3,38.7,18.1,44.8c19.2,6.3,57.4,3.4,69.1-12
			c16.6-22,7.9-42.5-6.8-58C153.6,77.7,133.5,83.2,125.5,85z"/>
	</g>
	<path class="st3" d="M203.6,127.9c0,0-4.6-1.5-6.7-1.6c-2-0.1-4.5,0.6-4.5,0.6s2.7,1.7,4.4,1.5
		C198.6,128.3,203.6,127.9,203.6,127.9z"/>
	<path class="st3" d="M195.5,92.9c0,0-6.6,1.5-9.2,2.6c-2.6,1.1-5.5,3.2-5.5,3.2s4.2-0.2,6.3-1.3C189.1,96.2,195.5,92.9,195.5,92.9z
		"/>
	<path class="st3" d="M149,58.7c0,0,1.5,6.9,1.2,9.9c-0.3,3-1.8,6.7-1.8,6.7s-2.1-4.1-1.6-6.6C147.4,66.3,149,58.7,149,58.7z"/>
	<path class="st3" d="M115.4,65.8c0,0,3.5,4.3,4.2,6.1c0.6,1.6,0.6,3.7,0.6,3.7s-2.2-1.3-2.6-2.7C117.3,71.9,115.4,65.8,115.4,65.8z
		"/>
	<path class="st3" d="M75.6,168.2c0,0,6-2,7.8-3.2c1.7-1.1,3.2-2.9,3.2-2.9s-2.7,0-4.1,1C81.6,163.8,75.6,168.2,75.6,168.2z"/>
	<path class="st3" d="M180.5,57.5c0,0-3.5,11.3-6.3,16.6c-2.8,5.4-7.5,6.7-7.5,6.7s0.3-4.7,2.5-8.9
		C171.4,67.8,180.5,57.5,180.5,57.5z"/>
	<g>
		<path class="st4" d="M148,180.4c-2.5,0.1-8.6,1.4-2.7,3.7c5.3,2.1,11.4,3,14.7,3c4,0,8.9-4,5.3-4.6c-3.6-0.6-6.1-1-8.8-1.2
			C153,181,150,180.4,148,180.4z"/>
		<path class="st3" d="M150.6,160.9c3.1,3.4,7.1,7.1,5.6,10.7c-0.8,2.1-2.9,6.1-3.8,7.6c-0.9,1.6,3.4,1.5,6.1,2
			c1.4,0.2,3.5,0.6,4.6,1.1c0.3,0.1,0.5,0.3,0.7,0.4c0.1,0.1,0.1,0.2,0.2,0.2c0,0,0,0.1,0,0.1c0,0,0,0.1,0,0.1
			c-0.1,0.3-0.7,0.7-1.9,1.2c-0.6,0.2-1.3,0.4-2,0.4c-0.4,0-0.8,0.1-1.2,0.1c-0.2,0-0.4,0-0.6,0c-0.1,0-0.2,0-0.3,0
			c-0.1,0-0.2,0-0.3,0c-1.7,0-3.6-0.2-5.6-0.5c-3.8-0.6-6.8-1.5-6.5-2.8c0.6-2.2,2.9-4.8,4.6-7.5c2.4-4.2,1.6-5.9-2.8-10.7
			c-1-1.1-1.3-2-1.2-2.6c0-0.1,0-0.2,0-0.2c0-0.1,0-0.1,0.1-0.2c0.1-0.1,0.1-0.2,0.2-0.3c0.2-0.2,0.4-0.4,0.6-0.5
			c0.2-0.1,0.5-0.2,0.8-0.2c0.3,0,0.6,0.1,0.9,0.2C149.4,159.8,150,160.2,150.6,160.9z"/>
		<path class="st4" d="M148.9,184.7c0,0,0.7-2,2.6-3c3.1-1.7,5.2-1.4,7.2-0.9c1.9,0.5,1.7,1.6,1.7,1.6s-1.1-0.3-2.9,0
			c-1.8,0.3-2.8,1.7-3,2.8C152.7,185.8,148.9,184.7,148.9,184.7z"/>
	</g>
	<path class="st3" d="M114.1,187.4c-0.5-3.1-2.3-12.5-2-15.4c0.3-2.3,4.3-5.2,7.2-7.7c3-2.5,8.6-6.9,2.6-6.6
		c-2.9,0.2-6.7,2.6-10.5,5.6c-3.8,3-5.8,4.9-5.9,7.8c-0.1,3.3,1.3,10.3,2.2,14.6C108.9,191.4,115,192.6,114.1,187.4z"/>
	<path class="st4" d="M115.9,187.7c1.4,2.3,3.7,8.2-3.7,6.2c-6.7-1.8-11.9-5.9-14.1-8.7c-2.6-3.4,0.8-12.5,3.9-10.2
		c3.2,2.3,4.6,5,6.7,7.1C111.3,184.6,114.8,185.9,115.9,187.7z"/>
	<polygon class="st5" points="192.7,111.5 200.1,121.6 214.6,121.4 221.9,104.6 208.3,92.5 195,99.1 	"/>
	<polygon class="st6" points="183.6,113.4 189.3,120 200.9,119.7 207,108.8 196.9,100.8 186,105 	"/>
	<g>
		<path class="st55" d="M65.8,61.8l0.8,0c0.1,0,0.3-0.1,0.2-0.3l-0.1-2c0-0.1-0.1-0.3-0.3-0.2l-0.8,0c-0.1,0-0.3,0.1-0.2,0.3l0.1,2
			C65.6,61.7,65.7,61.8,65.8,61.8z"/>
		
			<linearGradient id="SVGID_4_" gradientUnits="userSpaceOnUse" x1="92.203" y1="46.1546" x2="92.203" y2="59.0316" gradientTransform="matrix(0.9978 -6.694150e-02 6.694150e-02 0.9978 -29.7938 5.8409)">
			<stop  offset="0.4011" style="stop-color:#FFBC52"/>
			<stop  offset="1" style="stop-color:#FF9D00"/>
		</linearGradient>
		<path style="fill:url(#SVGID_4_);" d="M66.2,58.6c0,0,6.9-4.6-0.9-12.8C58.7,54.9,66.2,58.6,66.2,58.6z"/>
		<g>
			<path class="st57" d="M59.4,67c-0.5,0-1.1,0-1.6,0.1c-0.1,0.4-0.1,0.8-0.1,1.3c0,0.9,0.7,1.7,1.7,2.3c0.4,0.3,1.5,0.4,2.3,1.1
				c0.8,0.7,1,2,1,3.1l0.5,8.7c0.2,2.9,1.8,4.3,4.3,4.2c2.4-0.1,4.1-1.7,3.9-4.6l-0.9-16.2c-1.2,0.7-2.5,1.3-3.8,1.4
				C64.2,68.6,61.9,67.1,59.4,67z"/>
			<path class="st58" d="M66.1,61.4c-0.6,0-1.6,0.4-2.5,1c-1.7,1.2-2.2,1.7-3.8,2.5c-1.3,0.7-1.9,1.4-2.1,2.2
				c0.5-0.1,1.1-0.2,1.6-0.1c2.5,0.1,4.8,1.6,7.3,1.3c1.4-0.1,2.6-0.7,3.8-1.4l0-0.7C70.3,62.9,69,61.3,66.1,61.4z"/>
		</g>
		<g>
			<defs>
				<path id="SVGID_30_" d="M59.4,67c-0.5,0-1.1,0-1.6,0.1c-0.1,0.4-0.1,0.8-0.1,1.3c0,0.9,0.7,1.7,1.7,2.3c0.4,0.3,1.5,0.4,2.3,1.1
					c0.8,0.7,1,2,1,3.1l0.5,8.7c0.2,2.9,1.8,4.3,4.3,4.2c2.4-0.1,4.1-1.7,3.9-4.6l-0.9-16.2c-1.2,0.7-2.5,1.3-3.8,1.4
					C64.2,68.6,61.9,67.1,59.4,67z"/>
			</defs>
			<clipPath id="SVGID_5_">
				<use xlink:href="#SVGID_30_"  style="overflow:visible;"/>
			</clipPath>
			<path style="clip-path:url(#SVGID_5_);fill:none;stroke:#2B89E0;stroke-width:2.8631;stroke-miterlimit:10;" d="M80.4,48.6
				c-2.3,3.9-5.8,6.8-9,9.9C64.6,64.9,58.5,71.9,52.5,79c-2.6,3-5.2,6.1-7.4,9.5c-1,1.6-1.9,3.6-1.2,5.4c0.4,0.9,1.1,1.6,1.6,2.5
				c0.8,1.4,0.9,3.1,0.4,4.6c7.7-16.7,21.3-29.7,34.6-42.4c1.6,1.8,3.3,3.6,4.9,5.4c-11.9,11.7-22.9,24.4-32.8,37.8
				c2.4,0.7,4.6,1.9,6.5,3.6c0.9-1.8,2.1-3.4,3.4-4.9c10.9-13.6,23-26.4,35.9-38.1"/>
		</g>
	</g>
	<g>
		<path class="st55" d="M84.6,61.8l0.8,0c0.1,0,0.3-0.1,0.3-0.3l0.1-2c0-0.1-0.1-0.3-0.3-0.3l-0.8,0c-0.1,0-0.3,0.1-0.3,0.3l-0.1,2
			C84.3,61.7,84.4,61.8,84.6,61.8z"/>
		
			<linearGradient id="SVGID_8_" gradientUnits="userSpaceOnUse" x1="109.7173" y1="50.7671" x2="109.7173" y2="63.6521" gradientTransform="matrix(0.9974 -7.258312e-02 7.258312e-02 0.9974 -29.0821 3.1873)">
			<stop  offset="0.4011" style="stop-color:#FFBC52"/>
			<stop  offset="1" style="stop-color:#FF9D00"/>
		</linearGradient>
		<path style="fill:url(#SVGID_8_);" d="M85,58.7c0,0,6.9-4.7-0.9-12.9C77.5,55.1,85,58.7,85,58.7z"/>
		<path class="st31" d="M84.9,69.1c-1.6,0-2.3,1.7-2.4,5.1l-0.1,2.4c-0.1,2.4,0.8,4.2,2.1,4.2s2.3-2.2,2.4-6.2
			C87,70,85.8,69.2,84.9,69.1z"/>
		<path class="st57" d="M83.2,67.4c-2.1,0-4.1-1-6.1-1.4c0,0-0.1,0-0.1,0c-1.2,2.1-2,4.9-2.1,8.7c-0.2,7.7,3.1,13.6,9.3,13.7
			c6.7,0.2,9.9-5.9,10.1-13.3c0.1-3.7-0.5-6.7-1.7-9C89.6,65.5,86.4,67.5,83.2,67.4z M84.5,80.9c-1.3,0-2.2-1.8-2.1-4.2l0.1-2.4
			c0.1-3.4,0.8-5.1,2.4-5.1c0.9,0,2.1,0.9,2,5.6C86.8,78.7,85.8,80.9,84.5,80.9z"/>
		<path class="st58" d="M84.9,61.3c-3-0.1-6,1.4-7.9,4.7c0,0,0.1,0,0.1,0c2,0.4,4,1.3,6.1,1.4c3.2,0.1,6.4-1.9,9.4-1.3
			C91,63.1,88.4,61.4,84.9,61.3z"/>
		<g>
			<defs>
				<path id="SVGID_33_" d="M83.2,67.4c-2.1,0-4.1-1-6.1-1.4c0,0-0.1,0-0.1,0c-1.2,2.1-2,4.9-2.1,8.7c-0.2,7.7,3.1,13.6,9.3,13.7
					c6.7,0.2,9.9-5.9,10.1-13.3c0.1-3.7-0.5-6.7-1.7-9C89.6,65.5,86.4,67.5,83.2,67.4z M84.5,80.9c-1.3,0-2.2-1.8-2.1-4.2l0.1-2.4
					c0.1-3.4,0.8-5.1,2.4-5.1c0.9,0,2.1,0.9,2,5.6C86.8,78.7,85.8,80.9,84.5,80.9z"/>
			</defs>
			<clipPath id="SVGID_9_">
				<use xlink:href="#SVGID_33_"  style="overflow:visible;"/>
			</clipPath>
			<path style="clip-path:url(#SVGID_9_);fill:none;stroke:#2B89E0;stroke-width:2.8631;stroke-miterlimit:10;" d="M98.9,48.3
				c-2.6,3.7-6.3,6.4-9.8,9.2c-7.3,5.8-13.9,12.3-20.5,18.9c-2.9,2.8-5.7,5.7-8.1,8.9c-1.1,1.5-2.2,3.5-1.7,5.3
				c0.3,0.9,1,1.7,1.4,2.6c0.7,1.4,0.7,3.2,0,4.6c9-16,23.6-28,37.9-39.5c1.5,1.9,3,3.8,4.5,5.8C89.8,74.8,77.9,86.6,66.9,99.2
				c2.3,0.8,4.5,2.3,6.2,4.1c1-1.7,2.4-3.2,3.7-4.7c12-12.7,25-24.5,38.8-35.1"/>
		</g>
	</g>
	<g>
		<path class="st31" d="M56.6,109.2L56.6,109.2c2.2-0.7,4.7-1.3,7.4-2C61.3,107.9,58.8,108.5,56.6,109.2z"/>
		<path class="st31" d="M56.7,90.8L56.7,90.8c-0.2,0-0.3,0-0.5,0C56.3,90.8,56.5,90.8,56.7,90.8L56.7,90.8z"/>
		<path class="st31" d="M89.1,90.4c0.6-0.1,1-0.2,1.4-0.4C90.1,90.2,89.7,90.3,89.1,90.4c-0.3,0-0.5,0-0.8,0
			C88.6,90.4,88.8,90.4,89.1,90.4z"/>
		<polygon class="st31" points="65.1,104.9 65.1,104.9 65.1,104.9 		"/>
		<path class="st31" d="M63.6,104.2C63.6,104.2,63.6,104.2,63.6,104.2L63.6,104.2C63.6,104.2,63.6,104.2,63.6,104.2
			C63.6,104.2,63.6,104.2,63.6,104.2z"/>
		<path class="st31" d="M51,93.7c-0.2,0.1-0.3,0.2-0.5,0.3C50.6,93.9,50.8,93.8,51,93.7z"/>
		<path class="st62" d="M56.7,90.8L56.7,90.8c-0.2,0-0.3,0-0.5,0c-0.2,0-0.4,0-0.6,0c-1.3,0.1-2,0.6-2.6,1.2
			c-0.3,0.2-0.5,0.5-0.8,0.8c-0.3,0.3-0.7,0.7-1.1,0.9c-0.2,0.1-0.3,0.2-0.5,0.3c-0.1,0-0.2,0.1-0.2,0.1l1.8,6.1L56.7,90.8z"/>
		<path class="st62" d="M76.6,105.3c0.2,0,0.3,0,0.5-0.1c2.4-0.2,4.6-0.4,6.7-0.5c0.7,0,1.4,0,2.1-0.1L94.7,87c-2,0.5-2.4,2.2-4.1,3
			c-0.4,0.2-0.9,0.3-1.4,0.4c-0.3,0-0.5,0-0.8,0c-0.5,0-0.9-0.1-1.2-0.3c-0.9-0.3-1.5-1-2.3-1.4L76.6,105.3z"/>
		<path class="st62" d="M94.9,104.9c1.8,0.1,3.4,0.3,4.9,0.5l1.2-12.7L94.9,104.9z"/>
		<path class="st62" d="M56.6,109.2c2.2-0.7,4.7-1.3,7.4-2c0.9-0.2,1.9-0.4,2.9-0.6l7.5-15.1c-2.1-0.5-2.7-2.4-5.5-2.1
			c-0.5,0-0.9,0.1-1.2,0.3c-1,0.4-1.6,1.1-2.3,1.8L56.6,109.2z M63.6,104.2C63.6,104.2,63.6,104.2,63.6,104.2
			C63.6,104.2,63.6,104.2,63.6,104.2C63.6,104.2,63.6,104.2,63.6,104.2L63.6,104.2z M65.1,104.9C65.1,104.9,65.1,104.9,65.1,104.9
			C65.1,104.9,65.1,104.9,65.1,104.9C65.1,104.9,65.1,104.9,65.1,104.9z"/>
		<path class="st63" d="M80.9,144.1c-13.7,1.3-26.6-0.7-26.6-0.7l1.3,3.4c0,0,8.5,2.7,25.7,1c17.2-1.7,25-6,25-6l0.6-3.5l0,0
			C106.9,138.2,94.6,142.8,80.9,144.1z"/>
		<path class="st62" d="M80.3,137.7c-13.9,1.4-28.4-0.5-28.4-0.5l2.4,6.2c0,0,12.9,2,26.6,0.7c13.7-1.3,26-5.9,26-5.9l0,0l1.1-6.5
			l0,0C108,131.7,94.2,136.3,80.3,137.7z"/>
		<path class="st64" d="M103.3,114.4c-1.3,0.4-1.3,1.9-3.4,3.3c-0.8,0.5-2.1,1.4-3.2,1c-1.2-0.4-0.9-1.8-2.3-3.2
			c-1-1.1-3-2.1-4.4-1.6c-1.3,0.5-1,1.9-2.8,4c-0.8,1-2.4,2.9-3.9,2.6c-1.6-0.3-1.3-2.9-4-5.5c-1.2-1.1-3.3-2.6-4.5-2
			c-1,0.5-0.4,2.2-1.8,3.5c-0.1,0.1-1.4,1.3-2.4,0.9c-1.1-0.4-0.8-2.1-2-2.9c-1-0.6-2.8-0.3-3.7,0.6c-1.5,1.7,0.9,4.3,0.2,9.2
			c-0.3,2-1,4.7-2.1,4.7c-0.7,0-1.1-1.2-3.8-6c-1.1-2-1.7-2.9-2.8-3.9c-0.7-0.6-2.5-2.2-3.9-1.6c-1.6,0.7-1,3.8-2.6,4.5
			c-1,0.4-3.2-0.4-4.2-1.2l6.2,16.2c0,0,14.5,1.8,28.4,0.5c13.9-1.4,27.7-6,27.7-6l0,0l2.4-13.8C108.1,113.6,104,114.2,103.3,114.4z
			 M51.3,127c-0.1-1.2,0.7-2.2,1.9-2.3c1.2-0.1,2.2,0.7,2.3,1.9c0.1,1.2-0.7,2.2-1.9,2.3C52.5,129.1,51.4,128.2,51.3,127z
			 M87.9,125.1c-0.1-1.1,0.7-2.1,1.8-2.2c1.1-0.1,2.1,0.7,2.2,1.8c0.1,1.1-0.7,2.1-1.8,2.2C89,127,88,126.2,87.9,125.1z M77.1,119.7
			c0.1,0.7-0.5,1.4-1.2,1.4s-1.4-0.5-1.4-1.2c-0.1-0.7,0.5-1.4,1.2-1.4S77,119,77.1,119.7z M101.8,125c-0.7,0.1-1.4-0.5-1.4-1.2
			c-0.1-0.7,0.5-1.4,1.2-1.4c0.7-0.1,1.4,0.5,1.4,1.2C103,124.3,102.5,125,101.8,125z M66.6,130.9c-0.1-1.1,0.7-2.1,1.8-2.2
			c1.1-0.1,2.1,0.7,2.2,1.8c0.1,1.1-0.7,2.1-1.8,2.2C67.7,132.8,66.7,132,66.6,130.9z M76.7,128.6c-0.1-0.7,0.5-1.4,1.2-1.4
			c0.7-0.1,1.4,0.5,1.4,1.2c0.1,0.7-0.5,1.4-1.2,1.4C77.4,129.8,76.7,129.3,76.7,128.6z M99.8,131.7c-0.7,0.1-1.4-0.5-1.4-1.2
			s0.5-1.4,1.2-1.4s1.4,0.5,1.4,1.2S100.5,131.6,99.8,131.7z"/>
		<path class="st65" d="M101.5,122.4c-0.7,0.1-1.2,0.7-1.2,1.4c0.1,0.7,0.7,1.2,1.4,1.2c0.7-0.1,1.2-0.7,1.2-1.4
			C102.9,122.9,102.2,122.3,101.5,122.4z"/>
		<path class="st65" d="M99.5,129.1c-0.7,0.1-1.2,0.7-1.2,1.4s0.7,1.2,1.4,1.2s1.2-0.7,1.2-1.4S100.2,129,99.5,129.1z"/>
		<path class="st65" d="M90.1,126.9c1.1-0.1,1.9-1.1,1.8-2.2c-0.1-1.1-1.1-1.9-2.2-1.8c-1.1,0.1-1.9,1.1-1.8,2.2
			C88,126.2,89,127,90.1,126.9z"/>
		<path class="st65" d="M79.3,128.3c-0.1-0.7-0.7-1.2-1.4-1.2c-0.7,0.1-1.2,0.7-1.2,1.4c0.1,0.7,0.7,1.2,1.4,1.2
			C78.8,129.7,79.3,129.1,79.3,128.3z"/>
		<path class="st65" d="M75.7,118.6c-0.7,0.1-1.2,0.7-1.2,1.4c0.1,0.7,0.7,1.2,1.4,1.2s1.2-0.7,1.2-1.4S76.4,118.5,75.7,118.6z"/>
		<path class="st65" d="M70.6,130.5c-0.1-1.1-1.1-1.9-2.2-1.8c-1.1,0.1-1.9,1.1-1.8,2.2c0.1,1.1,1.1,1.9,2.2,1.8
			C69.9,132.6,70.7,131.6,70.6,130.5z"/>
		<path class="st65" d="M53.7,128.9c1.2-0.1,2-1.2,1.9-2.3c-0.1-1.2-1.2-2-2.3-1.9c-1.2,0.1-2,1.2-1.9,2.3
			C51.4,128.2,52.5,129.1,53.7,128.9z"/>
		<path class="st55" d="M94.9,104.9c-2.7-0.2-5.7-0.3-8.9-0.2c-0.7,0-1.4,0-2.1,0.1c-2.1,0.1-4.4,0.2-6.7,0.5c-0.2,0-0.3,0-0.5,0.1
			c-3.5,0.4-6.8,0.8-9.7,1.4c-1,0.2-1.9,0.4-2.9,0.6c-2.8,0.6-5.2,1.3-7.4,2c-0.6,0.2-1.2,0.4-1.7,0.6c-4.6,1.5-7.7,3-9.6,4
			c-1.3,0.7-1.9,1.1-1.9,1.1l2.3,6.1c1,0.8,3.2,1.6,4.2,1.2c1.6-0.7,1-3.9,2.6-4.5c1.3-0.5,3.2,1,3.9,1.6c1.1,0.9,1.7,1.8,2.8,3.9
			c2.7,4.9,3.1,6.1,3.8,6c1-0.1,1.8-2.8,2.1-4.7c0.6-4.9-1.7-7.5-0.2-9.2c0.9-1,2.7-1.2,3.7-0.6c1.2,0.7,0.9,2.5,2,2.9
			c1.1,0.4,2.3-0.8,2.4-0.9c1.4-1.3,0.8-3,1.8-3.5c1.1-0.6,3.3,0.9,4.5,2c2.7,2.6,2.4,5.2,4,5.5c1.5,0.3,3-1.6,3.9-2.6
			c1.8-2.1,1.5-3.5,2.8-4c1.4-0.6,3.4,0.5,4.4,1.6c1.4,1.4,1.1,2.8,2.3,3.2c1.1,0.4,2.5-0.5,3.2-1c2.1-1.4,2.1-2.9,3.4-3.3
			c0.7-0.2,4.9-0.7,7.2,3.5l1.7-9.7c0,0-0.2-0.1-0.7-0.2c-1.2-0.4-3.9-1.3-8-2c-1.1-0.2-2.3-0.4-3.6-0.5c0,0-0.1,0-0.1,0
			C98.2,105.2,96.6,105,94.9,104.9z"/>
		<path class="st65" d="M72.6,83.2c-1.2,0.1-2.3,0.3-3.4,0.5c-3,0.5-5.7,1-8,1.7c-0.8,0.2-1.5,0.4-2.2,0.6c-0.9,0.3-1.7,0.5-2.4,0.8
			c-5.2,1.8-7.6,3.5-7.6,3.5l1.1,3.9h0c0.1,0,0.2-0.1,0.2-0.1c0.2-0.1,0.4-0.2,0.5-0.3c0.4-0.3,0.8-0.6,1.1-0.9
			c0.3-0.3,0.5-0.5,0.8-0.8c0.6-0.6,1.4-1.1,2.6-1.2c0.2,0,0.4,0,0.6,0c0.2,0,0.4,0,0.5,0c1.4,0.2,2.2,1.1,3.3,1.7
			c0.6,0.3,1.4,0.6,2.5,0.5c1.4-0.1,2.2-0.8,2.9-1.4c0.7-0.7,1.2-1.4,2.3-1.8c0.3-0.1,0.8-0.2,1.2-0.3c2.8-0.3,3.4,1.7,5.5,2.1
			c0.4,0.1,0.9,0.1,1.4,0.1c0.6-0.1,1.1-0.2,1.5-0.4c1.3-0.6,1.8-1.7,2.9-2.4c0.1-0.1,0.3-0.2,0.4-0.2c0.3-0.1,0.6-0.2,1-0.3
			c0.2,0,0.4-0.1,0.6-0.1c1.2-0.1,2,0.2,2.6,0.6c0.8,0.5,1.4,1.1,2.3,1.4c0.4,0.1,0.8,0.2,1.2,0.3c0.2,0,0.5,0,0.8,0
			c0.6-0.1,1-0.2,1.4-0.4c1.7-0.8,2.1-2.4,4.1-3c0.2-0.1,0.5-0.1,0.8-0.2c2.9-0.3,3.5,1.9,5.8,2.2l0.4-4c0,0-1.7-0.8-5.3-1.5
			c-0.8-0.2-1.8-0.3-2.8-0.5c-1.4-0.2-3-0.4-4.7-0.5c-0.3,0-0.6,0-1-0.1c-2.6-0.1-5.7-0.1-9.1,0.1c-0.5,0-1,0.1-1.5,0.1
			c-0.8,0.1-1.5,0.1-2.3,0.2C74.1,83,73.4,83.1,72.6,83.2z"/>
		<path class="st57" d="M95.5,86.9c-0.3,0-0.6,0.1-0.8,0.2l-8.7,17.7c3.3-0.1,6.3,0,8.9,0.2l6.1-12.3l0.1-0.1l0.3-3.5
			C99,88.7,98.4,86.6,95.5,86.9z"/>
		<path class="st57" d="M66.9,106.7c3-0.6,6.2-1.1,9.7-1.4l8.2-16.6c-0.7-0.4-1.5-0.7-2.6-0.6c-0.2,0-0.4,0.1-0.6,0.1
			c-0.4,0.1-0.7,0.2-1,0.3c-0.1,0.1-0.3,0.1-0.4,0.2c-1.1,0.7-1.7,1.8-2.9,2.4c-0.4,0.2-0.9,0.4-1.5,0.4c-0.6,0.1-1,0-1.4-0.1
			L66.9,106.7z"/>
		<path class="st57" d="M56.6,109.2L56.6,109.2l8.7-17.7c-0.7,0.7-1.4,1.3-2.9,1.4c-1.1,0.1-1.9-0.1-2.5-0.5
			c-1.1-0.6-1.9-1.5-3.3-1.7l0,0l-4.6,9.4l2.8,9.6C55.4,109.6,56,109.4,56.6,109.2z"/>
	</g>
	<g>
		<path class="st10" d="M55.8,139c-0.1-0.3-0.4-0.4-0.7-0.4c0,0-0.1,0-0.1,0c0.2-0.1,0.3-0.3,0.4-0.4c0.1-0.2,0.2-0.5,0.1-0.7
			c-0.1-0.3-0.5-0.4-0.8-0.5c-1-0.2-2.1-0.3-3.1,0.1l-0.4,0.3c-0.3,0.4-0.4,0.6-0.4,0.8c0,0.3,0.1,0.5,0.3,0.7
			c0.2,0.2,0.4,0.3,0.7,0.4c-0.1,0.2-0.1,0.3-0.2,0.5c0,0.2,0.1,0.5,0.3,0.6c0.2,0.2,0.4,0.2,0.6,0.3c0.1,0,0.2,0,0.2,0.1
			c-0.2,0.1-0.3,0.2-0.4,0.3c-0.1,0.1,0,0.3,0.1,0.5c0.1,0.1,0.2,0.3,0.3,0.4c0.3,0.2,0.6,0.5,1,0.5c0.3,0.1,0.6,0,0.9-0.1
			c0.1,0,0.3-0.1,0.4-0.1c0.1-0.1,0.2-0.2,0.2-0.4c0-0.2-0.2-0.4-0.4-0.5c-0.3-0.2-0.7-0.4-1.1-0.6c0.1,0,0.2,0,0.2,0
			c0.5-0.1,0.8-0.4,1.2-0.7c0.2-0.1,0.4-0.3,0.5-0.4C55.9,139.5,55.9,139.2,55.8,139z"/>
		<path class="st9" d="M55.8,139c-0.2-0.3-0.5-0.4-0.8-0.4l0,0l0,0c0.4-0.2,0.7-0.7,0.5-1.1c-0.2-0.4-0.8-0.4-1.2-0.5
			c-0.9-0.1-1.8-0.1-2.6,0.3l0,0l-0.4,0.4l0,0c-0.1,0.2-0.2,0.3-0.3,0.5c0,0.1,0,0.2,0,0.2c0,0.1,0,0.1,0,0.2
			c0.1,0.3,0.4,0.5,0.8,0.6l0.3,0.1l-0.2,0.3c-0.1,0.1-0.1,0.2-0.1,0.4c0,0.1,0,0.2,0.1,0.3c0.2,0.2,0.5,0.3,0.8,0.4l0.6,0.2
			l-0.5,0.3c-0.2,0.1-0.3,0.2-0.3,0.4c0,0.2,0.2,0.3,0.4,0.5c0.4,0.3,0.8,0.6,1.3,0.5c0.2,0,0.5-0.1,0.7-0.1
			c0.2-0.1,0.2-0.3,0.1-0.5c-0.3-0.3-0.8-0.6-1.3-0.8l-0.2-0.1l0.2,0c0.5,0,0.9-0.3,1.3-0.6c0.2-0.1,0.4-0.3,0.6-0.5
			C55.8,139.5,55.9,139.2,55.8,139z M55.8,139c0.1,0.2,0,0.5-0.1,0.7c-0.2,0.2-0.4,0.3-0.6,0.5c-0.4,0.3-0.8,0.6-1.3,0.7l0-0.1
			c0.5,0.2,1,0.4,1.4,0.8c0.1,0.1,0.2,0.2,0.2,0.4c0,0.2-0.1,0.3-0.3,0.4c-0.3,0.1-0.5,0.2-0.8,0.2c-0.6,0.1-1.2-0.1-1.6-0.5
			c-0.2-0.2-0.5-0.4-0.6-0.7c-0.1-0.2,0-0.4,0.1-0.6c0.1-0.2,0.3-0.3,0.4-0.3l0.1,0.4c-0.3-0.1-0.7-0.2-1-0.5
			c-0.1-0.2-0.2-0.4-0.2-0.7c0-0.2,0.1-0.4,0.2-0.6l0.1,0.3c-0.4-0.1-0.9-0.4-1.1-0.9c0-0.1-0.1-0.3,0-0.4c0-0.1,0-0.2,0.1-0.3
			c0.1-0.2,0.2-0.4,0.4-0.6l0,0l0,0l0.4-0.3l0,0l0,0c0.9-0.4,1.9-0.3,2.8-0.1c0.4,0.1,1,0.2,1.2,0.6c0.2,0.5-0.2,0.9-0.5,1.2l0,0
			C55.3,138.6,55.7,138.7,55.8,139z"/>
	</g>
	<path class="st66" d="M51.7,137.1c0.9-0.4,2-0.4,3.1-0.1c0.3,0.1,0.7,0.2,0.8,0.5c0.1,0.2,0,0.5-0.1,0.7s-0.3,0.4-0.5,0.5
		c-0.4,0.3-0.8,0.6-1.4,0.8c-0.6,0.1-1.2,0.1-1.7-0.1c-0.2-0.1-0.5-0.2-0.7-0.4c-0.2-0.2-0.3-0.4-0.3-0.7c0-0.3,0.1-0.4,0.4-0.8
		L51.7,137.1z"/>
	<path class="st66" d="M52.4,138.7c0.8-0.4,1.8-0.3,2.7-0.1c0.3,0.1,0.6,0.2,0.7,0.4c0.1,0.2,0,0.4-0.1,0.6
		c-0.1,0.2-0.3,0.3-0.5,0.4c-0.4,0.3-0.8,0.6-1.2,0.7c-0.5,0.1-1,0.1-1.5-0.1c-0.2-0.1-0.4-0.2-0.6-0.3c-0.2-0.2-0.3-0.4-0.3-0.6
		s0.1-0.4,0.3-0.7L52.4,138.7z"/>
	<path class="st66" d="M53.1,140.6c0.6,0,1.3,0.4,1.8,0.8c0.2,0.1,0.4,0.3,0.4,0.5c0,0.1-0.1,0.3-0.2,0.4c-0.1,0.1-0.3,0.1-0.4,0.1
		c-0.3,0.1-0.6,0.1-0.9,0.1c-0.4-0.1-0.7-0.3-1-0.5c-0.1-0.1-0.3-0.2-0.3-0.4c-0.1-0.1-0.1-0.3-0.1-0.5s0.1-0.2,0.4-0.3L53.1,140.6z
		"/>
	<g>
		<path class="st10" d="M123.1,143.7c-7.4,0.1-9.2-1-13.4-1.8c-3.2-0.6-9.6-2.8-12.6-3.6c-4.8-1.2-6.2-1.4-6.9-1.6
			c-4.9-1.3-5.4,0.9-5.4,0.9s-0.3,1.1,1.1,1.4c1.5,0.4,4.2,0.3,4.2,0.3s-4.5,0.9-3.9,1.9c0.2,0.4,2.6,0.5,2.3,0.7
			c-0.8,0.5-0.1,1.2,0.3,1.3c1.9,0.2,2.9-0.9,7.9,0.9c1.5,0.7,7.7,2.7,14.3,3.7c7.1,1.2,11.4,0,11.8-0.3L123.1,143.7z"/>
		<path class="st9" d="M123.1,143.7c-3.3,0.1-6.6,0-9.9-0.8l-2.4-0.5c-0.8-0.2-1.6-0.3-2.4-0.5c-1.6-0.4-3.2-0.8-4.8-1.3l-4.8-1.4
			c-1.6-0.5-3.2-0.8-4.8-1.2l-4.8-1.1c-0.8-0.2-1.6-0.2-2.3-0.1c-0.4,0.1-0.7,0.1-1,0.3c-0.3,0.1-0.5,0.4-0.6,0.6l0,0l0,0
			c0,0.3,0.1,0.6,0.4,0.7c0.3,0.2,0.9,0.2,1.4,0.3c1,0.1,2,0.1,3.1,0.1l4.9-0.1l-4.8,1c-0.7,0.1-1.3,0.3-2,0.5
			c-0.3,0.1-0.6,0.2-0.9,0.4c-0.3,0.1-0.6,0.3-0.7,0.4c0,0,0,0,0-0.1c0,0,0,0,0,0c0,0-0.1-0.1-0.1-0.1c0,0,0.2,0.1,0.3,0.1
			c0.3,0.1,0.6,0.1,1,0.2c0.2,0,0.3,0.1,0.6,0.1c0.1,0,0.1,0,0.2,0.1l0.1,0c0,0,0.1,0,0.1,0.1c0,0,0.2,0.2,0.2,0.4
			c0,0.1-0.1,0.3-0.1,0.3c0,0-0.1,0.1-0.1,0.1c-0.1,0.1-0.1,0.1-0.1,0.1c0,0.1,0,0,0,0.1c0,0,0,0.1,0.1,0.2c0,0,0.1,0.1,0.1,0.1
			c0,0,0,0,0,0c0,0,0,0,0.1,0c0.2,0,0.3,0,0.5,0c0.3,0,0.7,0,1-0.1c0.7-0.1,1.5-0.1,2.2,0c1.5,0.1,2.9,0.6,4.2,1l0,0l0,0
			c2,0.8,4.2,1.4,6.3,2c2.1,0.6,4.3,1.1,6.5,1.5c2.2,0.4,4.4,0.7,6.6,0.8c1.1,0,2.2,0,3.3-0.1c1.1-0.1,2.2-0.2,3.2-0.6l0,0.1
			L123.1,143.7z M123.1,143.7l-0.1,3.8l0,0.1l0,0c-1.1,0.5-2.2,0.6-3.3,0.8c-1.1,0.1-2.2,0.2-3.4,0.2c-2.2,0-4.5-0.3-6.7-0.7
			c-2.2-0.4-4.4-0.8-6.6-1.4c-2.2-0.6-4.3-1.2-6.4-2l0,0c-1.3-0.5-2.7-0.9-4-1c-0.7-0.1-1.3,0-2,0c-0.3,0-0.7,0.1-1.1,0.1
			c-0.2,0-0.4,0-0.6,0c0,0-0.1,0-0.2,0c-0.1,0-0.1,0-0.2-0.1c-0.1-0.1-0.2-0.1-0.3-0.2c-0.2-0.2-0.4-0.4-0.4-0.7
			c-0.1-0.3,0.1-0.7,0.3-0.9c0.1-0.1,0.2-0.2,0.3-0.2c0,0-0.1,0-0.1,0.1c0,0-0.1,0.2-0.1,0.3c0,0.2,0.2,0.4,0.2,0.3c0,0,0.1,0,0.1,0
			c0,0,0,0,0,0l-0.1,0c-0.1,0-0.3-0.1-0.5-0.1c-0.3-0.1-0.7-0.1-1.1-0.2c-0.2-0.1-0.4-0.1-0.7-0.3c-0.1,0-0.2-0.2-0.2-0.3
			c0-0.1-0.1-0.2-0.1-0.3c0-0.2,0.1-0.4,0.2-0.6c0.4-0.5,0.7-0.6,1.1-0.8c0.3-0.2,0.7-0.3,1-0.4c0.7-0.2,1.4-0.4,2.1-0.5l0.1,1
			c-1.1,0-2.1,0-3.2-0.2c-0.5-0.1-1.1-0.1-1.7-0.4c-0.3-0.1-0.6-0.4-0.8-0.7c-0.2-0.4-0.2-0.7-0.1-1.1l0,0c0.4-1.2,1.5-1.5,2.4-1.6
			c0.9-0.1,1.8,0,2.6,0.2l4.8,1.2c3.2,0.7,6.4,1.8,9.5,2.8c1.6,0.5,3.1,1,4.7,1.4c0.8,0.2,1.6,0.3,2.4,0.5c0.8,0.2,1.6,0.4,2.4,0.6
			C116.5,143.3,119.8,143.6,123.1,143.7z"/>
	</g>
	<path class="st66" d="M123.8,143.1c-7.4,0.1-9.8-0.5-14-1.3c-3.2-0.6-9.6-2.8-12.6-3.6c-4.8-1.2-6.2-1.4-6.9-1.6
		c-4.9-1.3-5.4,0.9-5.4,0.9s-0.3,1.1,1.1,1.4c1.5,0.4,4.2,0.3,4.2,0.3s-4.5,0.9-3.9,1.9c0.2,0.4,2.6,0.5,2.3,0.7
		c-0.8,0.5-0.1,1.2,0.3,1.3c1.9,0.2,2.9-0.9,7.9,0.9c1.5,0.7,7.7,2.7,14.3,3.7c7.1,1.2,13.2,0.1,13.6-0.2L123.8,143.1z"/>
	<g>
		<path d="M123.4,86.7c0.3-1.3,0.8-2.6,1.5-3.8c0.7-1.2,1.5-2.3,2.5-3.3c1-0.9,2.2-1.7,3.6-2.1c1.4-0.4,2.8-0.3,4.1,0.1
			c-1.4,0-2.6,0.2-3.8,0.7c-1.2,0.5-2.2,1.2-3.2,2.1c-1,0.9-1.8,1.9-2.5,2.9C124.8,84.4,124.1,85.5,123.4,86.7z"/>
	</g>
	<g>
		<path d="M148.8,78.1c1.5-0.3,3.1-0.2,4.6,0.3c1.5,0.5,2.9,1.4,3.9,2.7c1,1.3,1.6,2.8,1.9,4.3c0.1,0.8,0.2,1.6,0.2,2.3
			c-0.1,0.8-0.1,1.5-0.2,2.3c-0.1-0.8-0.2-1.5-0.3-2.3c-0.2-0.7-0.3-1.5-0.5-2.2c-0.4-1.4-1-2.8-1.9-3.9c-0.9-1.1-2.1-2-3.4-2.6
			c-0.3-0.2-0.7-0.2-1-0.4c-0.4-0.1-0.7-0.2-1.1-0.3C150.3,78.2,149.5,78.2,148.8,78.1z"/>
	</g>
	<g>
		<path class="st7" d="M138.1,96.2l1.9-0.4c0,0-0.5,2.4-1.5,3.8c-1.3,1.8-3.7,3.3-6.1,3c-2.4-0.3-3.5-1.2-3.8-2.3
			c-0.3-1.1,0.4-1.4,0.5-1.6s2.7-2.1,2.7-2.1"/>
		<path class="st8" d="M129.1,98c0,0-1.3,1.8,0.3,2.9c1.6,1.1,3.2,2,5.2,1c2-1,3.3-2,3.8-3c0.5-1,0.4-1.9,0.4-1.9s-5.5,2-6.9,1.7
			c-1.5-0.2-1.7-0.3-1.7-0.3L129.1,98z"/>
		<path class="st8" d="M128,95.3c0,0-0.4,3.3,1.4,4s2.6,1,3.9,1.1c1.3,0,4-1.2,5-2.1s1.3-2.3,1.3-2.3s-2.9,1.1-5.4,1
			C132.7,96.8,129.9,96.3,128,95.3z"/>
		<path class="st7" d="M126.7,94.7c0,0,4.2,2,7.9,1.8c3.7-0.2,5.8-0.7,5.8-0.7s-5.2,1.7-6.8,1.6S129.3,96.2,126.7,94.7z"/>
		<g>
			<path class="st9" d="M122.8,91c-0.3-0.1-3.2-0.8-5.1-0.2c-1.5,0.4-2.6,1.1-2.9,1.8c-0.1,0.4,0.1,0.9,0.9,1.2
				c0.1,0,0.2,0.1,0.3,0.1c1.7,0.6,3.8-0.2,4.7-0.4c1.1-0.3,2.3-0.8,2.9-1.4c0.1-0.1,0.1-0.2,0.2-0.2
				C123.9,91.5,123.2,91.1,122.8,91C122.8,91,122.8,91,122.8,91"/>
		</g>
		<path class="st10" d="M164,97.4c-4.2-3.4-10.7-4.7-13.4-2.1c-1.4,1.3,0.2,4.1,4.4,6.5c2.7,1.5,5.3,3.2,8.7,1.6
			C165.5,102.4,167.3,100.1,164,97.4z"/>
		<path class="st11" d="M167.1,89.9l-50.3-6.2c0,0-4.2,7.9,4.4,9.3c8.6,1.4,16.4-4.9,16.4-4.9s-0.3,8.5,10.8,10.4
			C159.5,100.3,167.1,89.9,167.1,89.9z"/>
		<g>
			<defs>
				<path id="SVGID_35_" d="M138.5,87.4l0,0.8c0,0.3-0.1,7.6,10,9.3c8,1.4,14.2-4.2,16.6-6.8L138.5,87.4z"/>
			</defs>
			<defs>
				<path id="SVGID_36_" d="M138.5,87.4l0,0.8c0,0.3-0.1,7.6,10,9.3c8,1.4,14.2-4.2,16.6-6.8L138.5,87.4z"/>
			</defs>
			<clipPath id="SVGID_10_">
				<use xlink:href="#SVGID_35_"  style="overflow:visible;"/>
			</clipPath>
			<clipPath id="SVGID_13_" style="clip-path:url(#SVGID_10_);">
				<use xlink:href="#SVGID_36_"  style="overflow:visible;"/>
			</clipPath>
			<g class="st22">
				<line class="st14" x1="153.4" y1="85.4" x2="129.7" y2="106.4"/>
				<line class="st14" x1="153.4" y1="85.4" x2="129.7" y2="106.4"/>
				<line class="st15" x1="144.6" y1="85" x2="123" y2="104.1"/>
				<line class="st15" x1="144.6" y1="85" x2="123" y2="104.1"/>
				<line class="st16" x1="147.9" y1="84.8" x2="125.3" y2="104.9"/>
				<line class="st16" x1="147.9" y1="84.8" x2="125.3" y2="104.9"/>
				<line class="st17" x1="165.1" y1="88.3" x2="140.5" y2="110"/>
				<line class="st17" x1="165.1" y1="88.3" x2="140.5" y2="110"/>
				<line class="st18" x1="167.1" y1="89" x2="142.6" y2="110.7"/>
				<line class="st18" x1="167.1" y1="89" x2="142.6" y2="110.7"/>
			</g>
		</g>
		<g>
			<defs>
				<path id="SVGID_39_" d="M117.4,84.8c-0.4,1-1.1,3.2-0.2,4.8c0.6,1.3,2,2.1,4.2,2.4c8,1.3,15.5-4.6,15.6-4.7l0.2-0.1L117.4,84.8z
					"/>
			</defs>
			<defs>
				<path id="SVGID_40_" d="M117.4,84.8c-0.4,1-1.1,3.2-0.2,4.8c0.6,1.3,2,2.1,4.2,2.4c8,1.3,15.5-4.6,15.6-4.7l0.2-0.1L117.4,84.8z
					"/>
			</defs>
			<clipPath id="SVGID_14_">
				<use xlink:href="#SVGID_39_"  style="overflow:visible;"/>
			</clipPath>
			<clipPath id="SVGID_17_" class="st23">
				<use xlink:href="#SVGID_40_"  style="overflow:visible;"/>
			</clipPath>
			<g class="st24">
				<line class="st14" x1="131.4" y1="82.3" x2="111.3" y2="100.1"/>
				<line class="st14" x1="131.4" y1="82.3" x2="111.3" y2="100.1"/>
				<line class="st15" x1="135.1" y1="83.6" x2="115" y2="101.4"/>
				<line class="st15" x1="135.1" y1="83.6" x2="115" y2="101.4"/>
			</g>
		</g>
	</g>
</g>
</svg>
