<?xml version="1.0" encoding="utf-8"?>
<!-- Generator: Adobe Illustrator 21.0.0, SVG Export Plug-In . SVG Version: 6.00 Build 0)  -->
<svg version="1.1" id="Layer_1" xmlns="http://www.w3.org/2000/svg" xmlns:xlink="http://www.w3.org/1999/xlink" x="0px" y="0px"
	 viewBox="0 0 595.3 90" style="enable-background:new 0 0 595.3 90;" xml:space="preserve">
<style type="text/css">
	.st0{fill:#4A5D75;}
	.st1{fill:#94AEBD;}
</style>
<path class="st0" d="M15.4,63.6c1.5,0.6,3.1,0.7,4.4,0.7c6.3,0,8-3.6,8-9.5v-34h7V57c0,6.9-3.2,13.4-13.7,13.4
	c-2.2,0-4.2-0.3-5.7-0.8V63.6z"/>
<path class="st0" d="M77.2,49.4c0,13.7-6.9,21.1-19,21.1c-12,0-19-7.4-19-21.1V20.7h7v27.7c0,9.4,2.9,15.8,12,15.8
	c9,0,12-6.4,12-15.8V20.7h7V49.4z"/>
<path class="st0" d="M156.8,61.9c-2.5,1.5-7.1,2.4-10.6,2.4c-10.2,0-18.4-7.6-18.4-19.1c0-11,7.5-19.1,18.8-19.1
	c3.6,0,7,0.9,10.1,2.7l0.6-6.8c-3.5-1.5-7.2-2.1-11-2.1c-12.6,0-22.3,7.1-25.1,18.4c-2.8-11.1-13-17.6-25.3-17.6H81.4v48.9h14.4
	c13.5,0,22.7-6,25.3-17.6c2.7,11.4,12,18.4,25,18.4c2.9,0,7.4-0.2,11.1-1.8L156.8,61.9z M95.7,63.4h-7.4V26.9h8.2
	c10.1,0,17.9,6.7,17.9,18.1C114.4,57.6,107.8,63.4,95.7,63.4z"/>
<path class="st0" d="M172.9,33c10.9,0,18.1,7.8,18.1,18.7c0,10.2-7.4,18.7-18.1,18.7c-10.8,0-18.2-8.5-18.2-18.7
	C154.7,40.9,161.9,33,172.9,33z M172.9,65.1c7.7,0,11.1-7,11.1-13.4c0-6.8-4.1-13.4-11.1-13.4c-7.1,0-11.2,6.6-11.2,13.4
	C161.7,58.1,165.1,65.1,172.9,65.1z"/>
<path class="st0" d="M191.9,33.9h6.4v5.7h0.1c2-4.1,6.7-6.5,11.7-6.5c9.2,0,13.4,5.7,13.4,15.3v21.2h-6.6V51.1
	c0-8.3-1.8-12.4-7.6-12.7c-7.5,0-10.9,6-10.9,14.7v16.5h-6.6V33.9z"/>
<path class="st1" d="M232.4,62.1c2.5-2.2,5.7-5,8.8-7.8c5.4-5,14.1-13,14.1-20.9c0-4.6-4.1-7.8-9.4-7.8c-4.3,0-8.5,1.7-11.2,3.2
	l-0.7-6c4.1-1.8,8.4-2.9,12.8-2.9c8.8,0,15.9,4.8,15.9,13.9c0,8.1-8.8,16.8-14.1,22.2c-2.7,2.7-6.2,5.7-8.6,7.8h23.5v5.7h-30.9V62.1
	z"/>
<path class="st1" d="M284.2,19.9c13.5,0,16.6,14.6,16.6,25.3s-3.1,25.3-16.6,25.3c-13.5,0-16.6-14.6-16.6-25.3
	S270.7,19.9,284.2,19.9z M284.2,64.7c8.4,0,9.2-13.4,9.2-19.5c0-6.2-1.1-19.5-9.2-19.5S275,39,275,45.2
	C275,51.2,275.8,64.7,284.2,64.7z"/>
<path class="st1" d="M315,28.8l-7.5,6.4l-3.7-4.7l12-9.8h6.2v48.9h-7V28.8z"/>
<path class="st1" d="M361.2,26.5l-18.1,43.1h-7.7L354,26.5h-23.8v-5.7h30.9V26.5z"/>
<path class="st0" d="M375.8,41.7H368v-7.8h7.8V41.7z M368,61.7h7.8v7.8H368V61.7z"/>
<g>
	<path class="st0" d="M384.4,19.3h12.3c9.9,0,19.5,1.6,19.5,13.6c0,6.1-4.5,10.4-10.4,11.4v0.1c2.2,0.9,3.3,1.9,4.9,5l9.5,20h-8.2
		l-7.7-17.4c-2.2-4.9-4.6-4.9-8.4-4.9h-4.3v22.3h-7.2V19.3z M391.6,40.9h6.1c6.8,0,10.9-3,10.9-7.8c0-4.5-3.5-7.4-10.1-7.4h-6.9
		V40.9z"/>
	<path class="st0" d="M432.7,24.6H425V17h7.6V24.6z M425.5,32.8h6.8v36.7h-6.8V32.8z"/>
	<path class="st0" d="M458,69.5h-8.1l-13.2-36.7h7.4l9.9,30h0.1l10.2-30h6.8L458,69.5z"/>
	<path class="st0" d="M482.9,24.6h-7.6V17h7.6V24.6z M475.7,32.8h6.8v36.7h-6.8V32.8z"/>
	<path class="st0" d="M519.8,68c-2.6,0.9-5.5,2.4-11.6,2.4c-13,0-19-7.9-19-19.9c0-10.9,6.8-18.6,17.2-18.6
		c12.2,0,16.2,8.9,16.2,20.7h-26.2c0,7.3,5.7,12.2,12.1,12.2c4.5,0,9.6-2.3,11.3-3.7V68z M515.4,47.7c0-5.6-3.3-10.2-9.1-10.2
		c-6.6,0-9.4,5.5-9.9,10.2H515.4z"/>
	<path class="st0" d="M528.8,32.8h6.3v5.7h0.1c1.8-3.8,5.7-6.6,9.6-6.6c2,0,3,0.2,4.5,0.5v6c-1.2-0.5-2.6-0.6-3.7-0.6
		c-6,0-10,5.8-10,15v16.7h-6.8V32.8z"/>
	<path class="st0" d="M555.2,35.4c3.4-2,7.4-3.5,12.1-3.5c10.5,0,14.8,5.2,14.8,15.2v15.2c0,4.2,0.1,6.1,0.3,7.2H576v-4.8h-0.1
		c-1.6,2.2-5.2,5.6-11.4,5.6C556.6,70.4,551,67,551,59c0-9.2,10.1-12.1,17.1-12.1c2.7,0,4.5,0,7.2,0.1c0-6.3-2.3-9.6-9.1-9.6
		c-3.8,0-7.9,1.4-10.7,3.7L555.2,35.4z M575.3,52c-1.4,0-2.9-0.1-4.3-0.1c-3.7,0-12.7,0.6-12.7,7.1c0,3.9,3.7,6,6.8,6
		c6.7,0,10.2-4.2,10.2-9.6V52z"/>
</g>
</svg>
