<svg xmlns="http://www.w3.org/2000/svg" width="160.807" height="19.961" viewBox="0 0 160.807 19.961">
  <g id="JUDCon2018_riviera_logo_color" transform="translate(-15.4 -17)">
    <path id="Tracé_208" data-name="Tracé 208" d="M15.4,36.769a4.428,4.428,0,0,0,1.642.261c2.351,0,2.985-1.343,2.985-3.544V20.8h2.612V34.306c0,2.574-1.194,5-5.111,5a6.951,6.951,0,0,1-2.127-.3Z" transform="translate(0 -2.382)" fill="#fff"/>
    <path id="Tracé_209" data-name="Tracé 209" d="M53.378,31.408c0,5.111-2.574,7.872-7.089,7.872-4.477,0-7.089-2.761-7.089-7.872V20.7h2.612V31.035c0,3.507,1.082,5.9,4.477,5.9,3.358,0,4.477-2.388,4.477-5.9V20.7h2.612Z" transform="translate(-14.92 -2.32)" fill="#fff"/>
    <path id="Tracé_210" data-name="Tracé 210" d="M109.532,35.57a8.826,8.826,0,0,1-3.955.9,6.776,6.776,0,0,1-6.865-7.126,6.768,6.768,0,0,1,7.014-7.126,7.407,7.407,0,0,1,3.768,1.007l.224-2.537a10.3,10.3,0,0,0-4.1-.784c-4.7,0-8.32,2.649-9.365,6.865C95.2,22.624,91.4,20.2,86.81,20.2H81.4V38.443h5.373c5.037,0,8.469-2.239,9.439-6.567,1.007,4.253,4.477,6.865,9.328,6.865a10.886,10.886,0,0,0,4.141-.672Zm-22.8.56H83.974V22.512h3.059a6.363,6.363,0,0,1,6.679,6.753C93.712,33.966,91.25,36.13,86.735,36.13Z" transform="translate(-41.375 -1.818)" fill="#fff"/>
    <path id="Tracé_211" data-name="Tracé 211" d="M161.49,33c4.067,0,6.753,2.91,6.753,6.977a6.775,6.775,0,1,1-13.544,0C154.7,35.948,157.386,33,161.49,33Zm0,11.977c2.873,0,4.141-2.612,4.141-5,0-2.537-1.53-5-4.141-5-2.649,0-4.179,2.462-4.179,5C157.312,42.365,158.58,44.977,161.49,44.977Z" transform="translate(-87.327 -10.03)" fill="#fff"/>
    <path id="Tracé_212" data-name="Tracé 212" d="M191.837,33.4h2.388v2.127h.037a4.768,4.768,0,0,1,4.365-2.425c3.433,0,5,2.127,5,5.708v7.91h-2.462v-6.9c0-3.1-.672-4.626-2.836-4.738-2.8,0-4.067,2.239-4.067,5.485v6.156H191.8V33.4Z" transform="translate(-110.585 -10.093)" fill="#fff"/>
    <g id="Groupe_79" data-name="Groupe 79" transform="translate(102.333 17)">
      <path id="Tracé_213" data-name="Tracé 213" d="M386.4,19.3h4.589c3.694,0,7.275.6,7.275,5.074a4.344,4.344,0,0,1-3.88,4.253v.037a3.191,3.191,0,0,1,1.828,1.866l3.544,7.462H396.7L393.825,31.5c-.821-1.828-1.716-1.828-3.134-1.828h-1.6v8.32H386.4Zm2.686,8.059h2.276c2.537,0,4.067-1.119,4.067-2.91,0-1.679-1.306-2.761-3.768-2.761h-2.574Z" transform="translate(-386.4 -18.442)" fill="#fff"/>
      <path id="Tracé_214" data-name="Tracé 214" d="M429.873,19.836H427V17h2.836v2.836ZM427.187,22.9h2.537V36.588h-2.537Z" transform="translate(-411.852 -17)" fill="#fff"/>
      <path id="Tracé_215" data-name="Tracé 215" d="M446.647,46.493h-3.022L438.7,32.8h2.761l3.694,11.193h.037L449,32.8h2.537Z" transform="translate(-419.187 -26.905)" fill="#fff"/>
      <path id="Tracé_216" data-name="Tracé 216" d="M480.136,19.836H477.3V17h2.836ZM477.449,22.9h2.537V36.588h-2.537Z" transform="translate(-443.385 -17)" fill="#fff"/>
      <path id="Tracé_217" data-name="Tracé 217" d="M502.617,45.369a10.63,10.63,0,0,1-4.328.9c-4.85,0-7.089-2.947-7.089-7.425,0-4.067,2.537-6.94,6.417-6.94,4.552,0,6.044,3.321,6.044,7.723h-9.775a4.467,4.467,0,0,0,4.515,4.552,7.989,7.989,0,0,0,4.216-1.38ZM500.975,37.8c0-2.089-1.231-3.806-3.4-3.806-2.462,0-3.507,2.052-3.694,3.806Z" transform="translate(-452.099 -26.341)" fill="#fff"/>
      <path id="Tracé_218" data-name="Tracé 218" d="M530.8,32.236h2.351v2.127h.037A4.206,4.206,0,0,1,536.77,31.9a7.2,7.2,0,0,1,1.679.187v2.239a3.688,3.688,0,0,0-1.38-.224c-2.239,0-3.731,2.164-3.731,5.6v6.231H530.8Z" transform="translate(-476.924 -26.341)" fill="#fff"/>
      <path id="Tracé_219" data-name="Tracé 219" d="M554.567,33.206a8.791,8.791,0,0,1,4.515-1.306c3.918,0,5.522,1.94,5.522,5.671v5.671a17.632,17.632,0,0,0,.112,2.686h-2.388V44.138h-.037a5.137,5.137,0,0,1-4.253,2.089C555.089,46.264,553,45,553,42.011c0-3.433,3.768-4.515,6.38-4.515,1.007,0,1.679,0,2.686.037,0-2.351-.858-3.582-3.4-3.582a6.549,6.549,0,0,0-3.992,1.38Zm7.5,6.193c-.522,0-1.082-.037-1.6-.037-1.38,0-4.738.224-4.738,2.649a2.4,2.4,0,0,0,2.537,2.239,3.451,3.451,0,0,0,3.806-3.582Z" transform="translate(-490.841 -26.341)" fill="#fff"/>
    </g>
    <path id="Tracé_220" data-name="Tracé 220" d="M372.91,36.81H370V33.9h2.91ZM370,44.272h2.91v2.91H370Z" transform="translate(-273.786 -10.595)" fill="#fff"/>
  </g>
</svg>
