<svg xmlns="http://www.w3.org/2000/svg" xmlns:xlink="http://www.w3.org/1999/xlink" width="240.074" height="73.754" viewBox="0 0 240.074 73.754">
  <defs>
    <linearGradient id="linear-gradient" x1="0.5" y1="0.242" x2="0.5" y2="1.081" gradientUnits="objectBoundingBox">
      <stop offset="0" stop-color="#00a9f4"/>
      <stop offset="1" stop-color="#006a99"/>
    </linearGradient>
  </defs>
  <g id="logo_RD_black" transform="translate(-62.081 -56.55)">
    <path id="Tracé_1" data-name="Tracé 1" d="M284.624,484.188a4.83,4.83,0,0,0-.8,2.884v4.2a14.6,14.6,0,0,1-.087,1.6,5.4,5.4,0,0,1-.3,1.316,2.039,2.039,0,0,1-.518.8,1.022,1.022,0,0,1-.717.239h-.548v2.589h.548a1.022,1.022,0,0,1,.716.239,2.038,2.038,0,0,1,.518.8,5.4,5.4,0,0,1,.3,1.316,14.619,14.619,0,0,1,.087,1.6v4.14a4.83,4.83,0,0,0,.8,2.884h0a2.8,2.8,0,0,0,2.4,1.184h2.054v-2.589H287.93a.7.7,0,0,1-.439-.128,1.211,1.211,0,0,1-.352-.439,2.808,2.808,0,0,1-.237-.776,6.075,6.075,0,0,1-.082-1.007V501.1a7.007,7.007,0,0,0-.3-2.154,6.341,6.341,0,0,0-.7-1.511,4.253,4.253,0,0,0-.782-.923,4.248,4.248,0,0,0,.782-.923,6.341,6.341,0,0,0,.7-1.507,7,7,0,0,0,.3-2.156v-3.976a5.83,5.83,0,0,1,.082-.987,3.009,3.009,0,0,1,.24-.786,1.186,1.186,0,0,1,.348-.447.7.7,0,0,1,.439-.128h1.15V483h-2.054A2.809,2.809,0,0,0,284.624,484.188Z" transform="translate(-195.497 -379.68)" fill="#fdba1d"/>
    <path id="Tracé_2" data-name="Tracé 2" d="M2190.278,495.225a1.021,1.021,0,0,1-.717-.239,2.033,2.033,0,0,1-.518-.8,5.375,5.375,0,0,1-.3-1.316,14.619,14.619,0,0,1-.087-1.6V487.1a4.835,4.835,0,0,0-.8-2.884h0a2.806,2.806,0,0,0-2.4-1.185h-2.054v2.589h1.151a.7.7,0,0,1,.439.128,1.188,1.188,0,0,1,.349.447,3.007,3.007,0,0,1,.24.786,5.814,5.814,0,0,1,.082.987v3.975a7,7,0,0,0,.3,2.155,6.339,6.339,0,0,0,.7,1.511,4.239,4.239,0,0,0,.782.923,4.249,4.249,0,0,0-.782.923,6.348,6.348,0,0,0-.7,1.511,7.011,7.011,0,0,0-.3,2.155v3.948a6.048,6.048,0,0,1-.082,1.007,2.817,2.817,0,0,1-.236.777,1.212,1.212,0,0,1-.352.439.7.7,0,0,1-.439.128h-1.15v2.585h2.054a2.806,2.806,0,0,0,2.4-1.184,4.833,4.833,0,0,0,.8-2.884V501.77a14.679,14.679,0,0,1,.087-1.6,5.376,5.376,0,0,1,.3-1.316,2.029,2.029,0,0,1,.517-.8,1.02,1.02,0,0,1,.717-.239h.548v-2.587Z" transform="translate(-1888.665 -379.706)" fill="#fdba1d"/>
    <path id="Tracé_3" data-name="Tracé 3" d="M386.611,495.015a6.613,6.613,0,0,0,3.786-1.1,3.643,3.643,0,0,0,1.742-3.1,3.928,3.928,0,0,0-1.288-3.1,4.7,4.7,0,0,0-3.29-1.136H381.5v23.319H377.41V482.9h10.45a8.4,8.4,0,0,1,6.1,2.234,7.42,7.42,0,0,1,2.274,5.641,7.312,7.312,0,0,1-1.552,4.732,7.393,7.393,0,0,1-3.822,2.461l6.205,11.923h-4.771l-5.679-11.355Z" transform="translate(-280.745 -379.591)" fill="#3f3f3f"/>
    <path id="Tracé_4" data-name="Tracé 4" d="M586.56,510.193V483.24h4.089v26.953Z" transform="translate(-466.957 -379.893)" fill="#3f3f3f"/>
    <path id="Tracé_5" data-name="Tracé 5" d="M666.479,510.193H663.3L654.44,483.24h4.24l6.209,19.612L671.1,483.24h4.316Z" transform="translate(-527.392 -379.893)" fill="#3f3f3f"/>
    <path id="Tracé_6" data-name="Tracé 6" d="M876.22,510.193V483.24h4.089v26.953Z" transform="translate(-724.849 -379.893)" fill="#3f3f3f"/>
    <path id="Tracé_7" data-name="Tracé 7" d="M943.18,510.193V483.24h17.227v3.673H947.27v7.875h11.206v3.635H947.27v8.1h13.138v3.669Z" transform="translate(-784.465 -379.893)" fill="#3f3f3f"/>
    <path id="Tracé_8" data-name="Tracé 8" d="M1138.923,495.015a6.613,6.613,0,0,0,3.786-1.1,3.655,3.655,0,0,0,1.738-3.11,3.928,3.928,0,0,0-1.288-3.1,4.7,4.7,0,0,0-3.29-1.136h-6.061v23.324h-4.089V482.9h10.45a8.4,8.4,0,0,1,6.1,2.234,7.427,7.427,0,0,1,2.271,5.642,7.123,7.123,0,0,1-5.376,7.194l6.212,11.922H1144.6l-5.679-11.358Z" transform="translate(-950.547 -379.591)" fill="#3f3f3f"/>
    <path id="Tracé_9" data-name="Tracé 9" d="M1351.74,483.143l9.9,26.961H1357.3l-1.206-3.474-.68-1.926L1350.2,489.22l-4.192,11.972h4.834l1.207,3.51h-7.3l-1.847,5.4h-4.343l9.895-26.964Z" transform="translate(-1136.482 -379.804)" fill="#3f3f3f"/>
    <path id="Tracé_10" data-name="Tracé 10" d="M1595.3,485.77a9.379,9.379,0,0,0-6.939-2.54h-9.479v26.955h4.1V486.907h4.967a5.8,5.8,0,0,1,4.551,1.821q1.44,1.592,1.441,7.811,0,6.56-1.441,8.152a5.794,5.794,0,0,1-4.551,1.821h-1.9v3.673h2.313a9.379,9.379,0,0,0,6.939-2.54,9.049,9.049,0,0,0,2.464-5.194,43.667,43.667,0,0,0,.265-5.915,40.79,40.79,0,0,0-.265-5.763A9.044,9.044,0,0,0,1595.3,485.77Z" transform="translate(-1350.445 -379.884)" fill="#008ed3"/>
    <path id="Tracé_11" data-name="Tracé 11" d="M1819.33,482.88l-6.219,19.64-6.219-19.64H1783.12v27h17.252V506.2h-13.156v-8.115h11.223v-3.64h-11.223v-7.887h16.64l7.664,23.319h3.185l8.948-27Z" transform="translate(-1532.286 -379.573)" fill="#008ed3"/>
    <path id="Tracé_12" data-name="Tracé 12" d="M104.833,73.283a1.085,1.085,0,0,0-.054-.2c-.034-.092-.071-.177-.11-.258-.073-.161-.15-.315-.219-.458-.146-.291-.308-.59-.48-.891a20.009,20.009,0,0,0-1.1-1.7,18.6,18.6,0,0,0-1.269-1.577,14.915,14.915,0,0,0-1.46-1.413,11.828,11.828,0,0,0-1.671-1.181,9.789,9.789,0,0,0-1.878-.849A9.025,9.025,0,0,0,95.59,64.5l-.242-.047-.257-.041c-.059-.01-.118-.016-.178-.023l-.08-.01c-.092-.012-.182-.02-.264-.026a9.085,9.085,0,0,0-2.07.068c-.329.049-.671.117-1.011.2-.182.047-.368.1-.556.159-.069-.219-.151-.451-.248-.7-.14-.353-.3-.713-.488-1.069s-.377-.691-.585-1.016c-.1-.152-.2-.313-.329-.491l-.171-.237-.175-.231c-.241-.308-.5-.608-.768-.889a11.273,11.273,0,0,0-.854-.807c-.3-.253-.611-.495-.934-.719a10.336,10.336,0,0,0-1.007-.616,11.654,11.654,0,0,0-1.057-.5c-.072-.032-.146-.06-.219-.089l-.06-.023-.089-.034c-.063-.024-.125-.048-.19-.07l-.144-.049c-.134-.046-.272-.093-.41-.132l-.093-.027-.192-.056-.415-.11-.439-.1c-.2-.038-.388-.071-.579-.1l-.28-.039c-.089-.013-.2-.027-.3-.037l-.141-.014c-.144-.015-.292-.031-.439-.038l-.284-.019c-.066,0-.131-.007-.2-.008h-.1l-.291-.009h-.576l-.581.022-.579.041-.614.063h-.071a.691.691,0,0,0-.17.057.7.7,0,0,0-.39.548.69.69,0,0,0,0,.084v.022a.564.564,0,0,0,.005.065.679.679,0,0,0,.046.173.9.9,0,0,0,.479.411h0l.039.013c.1.034.208.077.339.129s.264.11.394.168c.254.11.518.237.784.368.237.117.49.248.768.4s.525.293.761.432c.081.046.161.1.24.145l.129.08c.122.073.243.152.363.23l.014.009c.12.077.231.15.343.228l.132.09c.076.052.15.1.219.157l.351.254.068.052c.092.069.185.139.279.214.2.155.41.329.665.548.2.172.406.363.632.583.19.184.383.387.591.619.19.211.372.431.543.658s.338.462.486.694a7.992,7.992,0,0,1,.748,1.5q.055.148.1.3-.219-.206-.456-.407c-.548-.467-1.066-.872-1.585-1.235A18.439,18.439,0,0,0,82.241,63.2c-.265-.143-.579-.308-.9-.455s-.626-.282-.929-.4c-.081-.032-.162-.064-.242-.092l-.054-.02c-.063-.023-.125-.046-.185-.066l-.718-.226-.49-.127c-.059-.016-.12-.029-.18-.041l-.08-.016a11.447,11.447,0,0,0-2.025-.247,10.429,10.429,0,0,0-2.045.125,10.883,10.883,0,0,0-1.974.512c-.128.043-.25.092-.367.14l-.116.047-.076.031c-.056.022-.11.045-.166.07l-.45.207-.239.125-.15.079c-.1.052-.2.1-.3.162l-.184.11c-.219.134-.456.271-.671.423l-.307.207-.61.456-.585.483-.11.094-.169.154c-.189.17-.384.347-.565.532l-.124.123c-.077.076-.155.151-.236.235l-.5.537a1.5,1.5,0,0,0-.11.131l-.376.439c-.082.091-.156.184-.228.274l-.1.122-.32.382-.15.2c-.151.2-.3.4-.455.611l-.285.406-.088.124c-.067.093-.135.191-.2.288l-.317.481c-.076.11-.155.235-.227.354l-.283.458c-.079.127-.161.26-.236.392l-.3.514c-.066.11-.135.23-.2.348l-.41.747a1.462,1.462,0,0,0-.079.154.656.656,0,0,0-.026.07.2.2,0,0,1-.012.041l-.007.029h0c0,.02-.009.046-.011.069a.625.625,0,0,0,0,.069v.021a.718.718,0,0,0,.071.3.711.711,0,0,0,1.064.258.719.719,0,0,0,.2-.235l.047-.09a6.149,6.149,0,0,1,.424-.548q.242-.283.5-.542c.058-.06.118-.118.179-.175l.148-.14c.067-.063.134-.125.2-.184l.073-.064c.068-.059.135-.118.208-.178l.287-.233.3-.227c.089-.068.182-.132.28-.2l.014-.01.06-.042c.029-.02.057-.041.09-.06l.165-.11c.081-.055.166-.11.254-.159l.058-.035c.1-.06.2-.117.315-.181l.16-.09.167-.086c.208-.11.424-.209.658-.314l.344-.145c.072-.029.146-.056.219-.083l.134-.05c.092-.036.188-.067.29-.1l.046-.014.116-.037c.079-.026.155-.05.235-.071l.358-.1.231-.054.308-.07.313-.055.229-.039.439-.056.1-.012.559-.043.379-.01c.166-.008.329,0,.511,0l.23.005c.07,0,.146.007.225.013l.126.01.339.026a1.626,1.626,0,0,0,.213.038l.219.024q.2.022.389.049c.134.02.26.038.393.064.115.02.23.044.344.067l.038.008c.1.021.2.045.3.068l.083.02.14.036c.08.021.161.042.238.064l.138.039c.081.023.162.046.242.071l.136.043.242.078.374.131.384.145c.078.029.155.06.231.092l.133.055c.116.047.241.1.363.155l.363.161.033.015a9.423,9.423,0,0,0-1.212.487,11.516,11.516,0,0,0-1.09.606l-.01.007-.138.091c-.124.081-.251.166-.374.257l-.082.059c-.058.041-.115.082-.17.125l-.234.181c-.069.052-.132.11-.193.157l-.137.116c-.053.044-.11.088-.163.14l-.548.511-.538.558-.008.008c-.046.05-.09.1-.134.154l-.066.076a16.644,16.644,0,0,0-1.486,1.974l-.329.514c-.069.11-.135.229-.2.344l-.11.184-.149.26c-.035.061-.068.124-.1.188l-.048.092-.28.537c-.06.118-.117.239-.173.36l-.092.2-.079.167c-.06.127-.123.258-.178.392l-.118.29c-.118.274-.24.557-.345.841l-.219.56-.3.862-.282.87c-.219.7-.427,1.438-.653,2.329-.038.141-.07.283-.1.419-.013.059-.027.117-.042.179l-.167.739a.719.719,0,0,0,.016.378.727.727,0,0,0,.548.492.714.714,0,0,0,.2.011.223.223,0,0,0,.077-.01h.024a.7.7,0,0,0,.086-.024.749.749,0,0,0,.3-.205,1.864,1.864,0,0,0,.172-.231l.043-.065c.42-.634.871-1.308,1.345-1.974.491-.688.961-1.306,1.433-1.892.534-.658,1.042-1.245,1.552-1.784a20.955,20.955,0,0,1,1.7-1.619,11.893,11.893,0,0,1,1.89-1.327,7.02,7.02,0,0,1,1.028-.469c.178-.066.364-.118.524-.16a4.594,4.594,0,0,1,.531-.1h.016c.05-.008.11-.011.167-.015l.091-.007H80.2a3.3,3.3,0,0,1,.529.053,2.6,2.6,0,0,1,.261.057l-.161.181c-.536.611-1.348,1.535-2.314,2.733a42,42,0,0,0-3.279,4.594,33.95,33.95,0,0,0-2.426,4.794,61.674,61.674,0,0,0-4.1,25.123,77.828,77.828,0,0,0,2.04,13.389c.146.658.416,1.316.587,2H76.4v-.01a1.241,1.241,0,0,0-.033-.143c-.012-.043-.018-.06-.024-.079l-.694-2.12c-.259-.8-.524-1.645-.79-2.508-.563-1.838-5.12-19.645-.573-34,.191-.564.409-1.149.668-1.79.2-.5.439-1.029.736-1.666.259-.537.525-1.056.8-1.548.039-.076.083-.152.127-.228l.075-.133.042-.072c.054-.1.11-.191.165-.285l.417-.693a46.03,46.03,0,0,1,3.2-4.5c.852-1.07,1.571-1.916,2.095-2.533L82.8,77.5l.1-.125a.768.768,0,0,0,.155-.439.589.589,0,0,0-.193-.42,2,2,0,0,0-.446-.315h0c-.023-.012-.219-.116-.329-.16a4.817,4.817,0,0,0-1.122-.339,4.982,4.982,0,0,0-1.172-.059,5.922,5.922,0,0,0-1.15.2l-.268.079c-.059.019-.118.039-.177.06l-.082.029c-.066.022-.126.045-.186.069l-.083.033c-.058.023-.117.048-.177.073l-.091.039a9.431,9.431,0,0,0-1,.52,13.879,13.879,0,0,0-1.787,1.281c-.288.242-.565.487-.819.728s-.52.5-.776.768c-.239.247-.481.507-.741.8-.078.087-.154.173-.23.261l-.483.563-.35.416-.337.421c-.159.2-.3.385-.43.555l.133-.413.282-.8c.03-.083.061-.166.093-.248l.054-.141.055-.144c.08-.209.163-.428.254-.636l.087-.206c.081-.2.159-.379.247-.564l.1-.207c.087-.191.169-.371.263-.548l.086-.17c.1-.2.193-.386.3-.575l.206-.375c.038-.072.083-.145.129-.219l.079-.131.219-.359.227-.345.086-.129c.047-.072.094-.144.144-.213l.375-.518c.023-.032.047-.061.071-.092l.048-.061.27-.339c.052-.068.11-.135.173-.205l.086-.1.275-.313a13.359,13.359,0,0,1,1.2-1.132,10.34,10.34,0,0,1,1.337-.943,8.657,8.657,0,0,1,1.473-.691c.233-.084.487-.161.768-.234.263-.064.531-.11.794-.149l.219-.029a1.607,1.607,0,0,0,.268-.054.711.711,0,0,0,.4-.29.7.7,0,0,0,.1-.251.5.5,0,0,0,.01-.058V70.6a.736.736,0,0,0-.008-.14.709.709,0,0,0-.268-.451L81.251,70a.427.427,0,0,0-.049-.033l-.548-.3c-8.615-4.928-14.235-.717-14.235-.717l-.156.089-.1.056c-.052.03-.1.058-.154.089.212-.29.424-.569.637-.836.337-.427.707-.857,1.1-1.278s.8-.819,1.2-1.176a13.106,13.106,0,0,1,2.729-1.9,9.788,9.788,0,0,1,3.118-1l.155-.019c.088-.011.174-.021.258-.029l.315-.024h.054l.478-.012h.129l.473.016.12.011.075.007L77,62.96c.087.008.172.015.252.026l.43.065c.059.008.123.021.184.034l.207.043a11.188,11.188,0,0,1,1.594.457,14.265,14.265,0,0,1,1.529.667,17.07,17.07,0,0,1,2.811,1.825c.454.361.877.732,1.272,1.1.191.18.385.373.594.59.18.189.368.39.53.592a.694.694,0,0,0,.336.276.677.677,0,0,0,.122.035.655.655,0,0,0,.069.01h.043a.68.68,0,0,0,.131-.009.669.669,0,0,0,.11-.029.7.7,0,0,0,.46-.52.845.845,0,0,0,.014-.093.612.612,0,0,0,0-.11l-.012-.439a2.193,2.193,0,0,0-.015-.228l-.038-.37-.1-.591c-.011-.056-.025-.11-.039-.167-.007-.023-.012-.047-.019-.075l-.087-.341c-.008-.029-.018-.057-.027-.086l-.143-.475-.219-.548-.258-.531-.238-.42c-.039-.07-.08-.141-.125-.208l-.25-.385c-.059-.089-.121-.172-.181-.252l-.094-.128L85.71,62.5l-.161-.2-.1-.122c-.064-.079-.128-.157-.2-.24l-.155-.17c-.152-.169-.31-.343-.478-.5l-.11-.11c-.07-.071-.144-.145-.219-.219l-.329-.3c-.1-.1-.205-.182-.306-.267l-.412-.332-.372-.287c-.12-.092-.243-.189-.366-.275-.219-.159-.457-.329-.758-.526-.506-.329-1.034-.658-1.573-.953l-.032-.018.6.054.467.063c.3.048.612.1.921.179l.089.02c.046.01.092.021.134.032l.463.129c.045.013.089.029.133.043l.081.027.127.043c.11.036.211.07.315.11l.228.09c.065.024.134.052.2.083l.16.072c.091.041.182.081.265.123l.422.219.4.237c.083.053.166.11.249.161l.143.093c.3.208.534.387.745.565l.354.3c.036.033.071.067.11.1l.229.219c.205.2.411.43.63.691.2.245.395.495.568.745A11.3,11.3,0,0,1,89.119,64c.136.288.257.579.36.863.052.141.1.29.144.439.007.022.016.069.03.127.11.488.161.658.271.768a.707.707,0,0,0,.6.2.721.721,0,0,0,.149-.038l.417-.152.072-.023c.134-.043.267-.086.392-.123L91.8,66c.07-.019.15-.041.229-.056l.11-.025c.127-.027.247-.054.373-.071l.245-.041.253-.029c.11-.015.23-.022.354-.03l.139-.009h.475a7.754,7.754,0,0,1,.966.086l.1.015q.072.01.141.023l.366.077.358.1c.048.013.1.03.143.045l.083.027.093.031c.044.014.088.027.137.047l.283.11.059.023.349.155c.041.019.084.042.127.064l.084.044.227.11.073.038a1.426,1.426,0,0,1,.125.069l.439.268c.086.055.17.11.26.177l.158.11c.11.07.208.15.317.236l.277.219c.036.027.07.058.11.089l.071.061.247.219c.041.035.081.07.124.11l.366.352c.073.076.147.152.219.229l.128.135.329.37.064.072.1.11.321.395.205.268q.13.164.247.329l.084.118c.072.1.14.2.205.3l.08.12.031.045q-.349-.2-.7-.385c-.429-.229-.869-.431-1.206-.583-.366-.156-.8-.329-1.242-.483s-.877-.279-1.292-.388a12.186,12.186,0,0,0-1.311-.269c-.417-.069-.866-.12-1.337-.151a13.29,13.29,0,0,0-4.027.349l-.548.137a.767.767,0,0,0-.183.067.728.728,0,0,0,.1,1.336c.453.15.832.281,1.215.428a21.474,21.474,0,0,1,2.342,1.036c.135.068.267.14.4.219l.427.242.273.165c.329.2.674.432,1.05.707a12.089,12.089,0,0,1,.976.8c.135.12.263.246.4.378l.092.093c.135.14.262.274.385.417a10.129,10.129,0,0,1,.758.978l.092.157.007.082.077.091a8.118,8.118,0,0,1,1.357,4.972v.03a4.754,4.754,0,0,1,0,.556v.042a14.225,14.225,0,0,1-.374,2.5,19.033,19.033,0,0,1-.761,2.43c-.2.52-.43,1.053-.687,1.59a13.668,13.668,0,0,0,.132-1.681,11.479,11.479,0,0,0-.245-2.59l-.068-.31c-.016-.072-.036-.144-.056-.219-.01-.034-.019-.068-.03-.11s-.019-.067-.027-.1c-.019-.07-.038-.144-.063-.219l-.11-.352c-.011-.035-.023-.071-.039-.117l-.168-.439c-.026-.069-.057-.138-.088-.207l-.046-.1-.044-.1c-.03-.068-.059-.136-.091-.2a11.592,11.592,0,0,0-1.384-2.193c-.241-.3-.514-.612-.864-.974-.307-.308-.627-.6-.954-.877a13.366,13.366,0,0,0-2.14-1.459c-.181-.1-.375-.2-.589-.3a1.516,1.516,0,0,0-.185-.073,1,1,0,0,0-.257-.056.693.693,0,0,0-.431.11l-.02.014-.05.038-.024.022-.041.038-.07.083a.748.748,0,0,0-.052.083.73.73,0,0,0-.042.591l.134.365.066.18c.05.136.1.264.138.4l.188.586.166.6c.026.09.048.185.069.281l.069.3c.009.038.018.076.026.11.014.058.027.117.038.178l.056.306a13.629,13.629,0,0,1,.226,2.413,11.186,11.186,0,0,1-.26,2.39,10.5,10.5,0,0,1-.781,2.265l-.049.11c-.026.056-.052.11-.075.155l-.154.257-.068.123c-.076.139-.148.27-.228.388l-.219.336c-.038.06-.075.117-.118.174l-.363.5a14.576,14.576,0,0,1-1.657,1.864,15.459,15.459,0,0,1-1.946,1.371c-.11.072-.219.139-.334.211l-.133.08a12.749,12.749,0,0,0,.976-12.855c-.147-.329-.318-.658-.51-.995l-.035-.06c-.035-.06-.07-.121-.11-.179l-.011-.018c-.022-.035-.044-.07-.07-.11l-.014-.022a.97.97,0,0,0-.1-.136.714.714,0,0,0-.626-.227H84.6a.755.755,0,0,0-.548.41.667.667,0,0,0-.041.542.6.6,0,0,0,.067.11c.1.139.3.475.36.59,4.2,7.639-1.807,13.9-2.041,14.156l-.208.228-.059.065c-.015.018-.023.026-.039.047a.736.736,0,0,0-.057.087.712.712,0,0,0,.51,1.053.689.689,0,0,0,.1.009h.114l.12-.03.083-.026h.012c.226-.076.439-.16.609-.234.2-.082.393-.169.583-.259.378-.177.759-.372,1.132-.579s.747-.432,1.087-.658.668-.449,1.043-.728a16.235,16.235,0,0,0,1.909-1.689,14.061,14.061,0,0,0,1.6-2c.131-.2.238-.371.341-.554l.3-.548.276-.574c.039-.078.07-.155.1-.219.012-.03.023-.059.038-.093l.12-.3a12.132,12.132,0,0,0,.674-2.486l.067-.464c.005-.041.009-.081.012-.123v-.055c.005-.073.012-.146.019-.219.012-.136.024-.272.033-.408l.018-.63v-.183l-.013-.474a16.342,16.342,0,0,0-.322-2.531c-.1-.447-.213-.9-.348-1.358a12.261,12.261,0,0,1,1.508,1.183,10.826,10.826,0,0,1,1.908,2.313c.152.252.268.461.365.658a7.017,7.017,0,0,1,.308.677l.157.4.014.035.088.273c.014.046.029.091.044.137.024.073.048.147.066.214l.139.558c.008.035.014.07.021.11s.009.048.012.069l.069.381.047.362a1.225,1.225,0,0,0,.016.14c.009.078.019.155.025.233l.025.46c.005.1.011.192.008.288v.562l-.013.2a13.81,13.81,0,0,1-.521,2.983,19.522,19.522,0,0,1-1.08,2.86l-.205.439a.679.679,0,0,0-.066.228.7.7,0,0,0,.5.751.684.684,0,0,0,.488-.033.916.916,0,0,0,.283-.219c.05-.056.094-.11.146-.174l.168-.219c.1-.133.209-.27.314-.412.149-.205.3-.423.458-.65a28.77,28.77,0,0,0,1.635-2.72,25.81,25.81,0,0,0,1.316-2.9c.189-.5.36-1.012.508-1.517l.11-.378c.024-.087.045-.171.066-.257.011-.044.021-.088.032-.128.058-.219.11-.445.15-.658l.024-.11c.022-.1.038-.194.054-.286l.021-.123c.008-.045.014-.088.022-.132.015-.087.031-.175.043-.267l.021-.155c.027-.209.056-.426.072-.638l.018-.2.033-.6v-.814a11.017,11.017,0,0,0-.559-3.186,9.761,9.761,0,0,0-.644-1.5l-.185-.344-.005-.01q-.067-.115-.138-.227l-.068-.11c-.11-.179-.219-.342-.329-.5l-.12-.17c-.046-.069-.094-.128-.136-.18l-.245-.307c-.043-.054-.09-.11-.139-.167l-.265-.3-.042-.046c-.033-.037-.067-.075-.1-.11l-.417-.417-.009-.008c-.064-.06-.129-.118-.194-.178l-.248-.219-.536-.45-.11-.091-.468-.345c-.053-.041-.11-.079-.179-.126l-.489-.329-.157-.1c-.177-.11-.353-.219-.531-.321l-.011-.005-.238-.132c-.151-.084-.3-.169-.456-.249-.464-.242-.944-.472-1.448-.69q.183-.014.367-.022a12.392,12.392,0,0,1,1.9.064l.483.061.469.078c.383.073.672.138.939.208a15.174,15.174,0,0,1,1.827.6,16.1,16.1,0,0,1,1.742.82,18.71,18.71,0,0,1,1.66,1.01c.09.058.179.122.272.188l.12.086.021.014c.128.09.249.175.37.269l.3.228.022.016a1.092,1.092,0,0,0,.11.079.7.7,0,0,0,1.007-.379.691.691,0,0,0,.033-.137A.617.617,0,0,0,104.833,73.283Z" transform="translate(0)" fill="url(#linear-gradient)"/>
  </g>
</svg>
