<?xml version="1.0" encoding="UTF-8" standalone="no"?>
<!-- Generator: Adobe Illustrator 27.2.0, SVG Export Plug-In . SVG Version: 6.00 Build 0)  -->

<svg
   version="1.1"
   id="Layer_1"
   x="0px"
   y="0px"
   viewBox="0 0 215 113"
   style="enable-background:new 0 0 215 113;"
   xml:space="preserve"
   sodipodi:docname="quarkus_world_tour_white.svg"
   inkscape:version="1.1.2 (0a00cf5339, 2022-02-04)"
   xmlns:inkscape="http://www.inkscape.org/namespaces/inkscape"
   xmlns:sodipodi="http://sodipodi.sourceforge.net/DTD/sodipodi-0.dtd"
   xmlns="http://www.w3.org/2000/svg"
   xmlns:svg="http://www.w3.org/2000/svg"><defs
   id="defs117">
	
	
	
	
	
	
</defs><sodipodi:namedview
   id="namedview115"
   pagecolor="#ffffff"
   bordercolor="#666666"
   borderopacity="1.0"
   inkscape:pageshadow="2"
   inkscape:pageopacity="0.0"
   inkscape:pagecheckerboard="0"
   showgrid="false"
   inkscape:zoom="7.8"
   inkscape:cx="107.5"
   inkscape:cy="56.474359"
   inkscape:window-width="1846"
   inkscape:window-height="1136"
   inkscape:window-x="0"
   inkscape:window-y="0"
   inkscape:window-maximized="1"
   inkscape:current-layer="Layer_1" />
<style
   type="text/css"
   id="style80">
	.st0{fill:#FFFFFF;}
</style>
<g
   id="g4194"><path
     class="st0"
     d="M 31.5,30.9 C 28,28 24.4,25.1 20.9,22.2 20.6,22 20.3,21.7 20,21.5 c -0.3,0.4 -0.6,0.7 -0.9,1.1 -3.5,4.2 -6.9,8.4 -10.3,12.7 -0.1,0.2 -0.2,0.3 -0.4,0.5 0,0.2 0,0.4 0,0.5 0,9.4 0,18.9 0,28.3 0,0.2 0,0.4 0,0.5 0.1,0.1 0.2,0.2 0.4,0.3 4.2,3.3 8.3,6.6 12.5,10 0.3,0.2 0.6,0.5 0.9,0.7 0.3,-0.4 0.6,-0.7 0.9,-1.1 1.8,-2.2 3.6,-4.4 5.4,-6.5 0.3,-0.3 0.6,-0.7 0.9,-1 -0.3,-0.2 -0.6,-0.5 -0.9,-0.7 -0.6,-0.5 -1.2,-1.1 -1.8,-1.6 1.6,-1.9 3.2,-3.7 4.9,-5.6 0.1,-0.1 0.3,-0.3 0.4,-0.4 0,-0.2 0,-0.4 0,-0.5 0,-9 0,-17.9 0,-26.9 0,-0.2 0,-0.4 0,-0.5 -0.3,-0.2 -0.4,-0.3 -0.5,-0.4 z m -9.7,25.7 c -0.9,1.1 -1.9,2.3 -2.8,3.4 -0.2,-0.2 -0.5,-0.4 -0.7,-0.5 0,-8.1 0,-16.3 0,-24.4 1.2,0.9 2.3,1.9 3.5,2.8 0,6.2 0,12.5 0,18.7 z"
     id="path84" /><path
     class="st0"
     d="m 182.4,63.4 c -1.7,-2.1 -3.3,-4.2 -5,-6.3 0,-8.9 0,-17.7 0,-26.6 0.9,-0.8 1.7,-1.5 2.6,-2.3 0.3,-0.3 0.6,-0.5 0.9,-0.8 -0.3,-0.3 -0.6,-0.7 -0.9,-1 -2.3,-2.7 -4.5,-5.3 -6.8,-7.9 -0.3,-0.3 -0.6,-0.7 -0.9,-1 -0.3,0.3 -0.6,0.5 -0.9,0.8 -2,1.8 -4.1,3.5 -6.1,5.3 -2,-2.3 -4.1,-4.7 -6.2,-7 -0.3,-0.3 -0.6,-0.7 -0.9,-1 -0.3,0.3 -0.6,0.5 -0.9,0.8 -2.3,2 -4.6,4.1 -6.9,6.1 -0.3,0.3 -0.6,0.5 -0.9,0.8 0.3,0.3 0.6,0.7 0.9,1 0.9,1 1.8,2 2.7,3 0,9.4 0,18.8 0,28.3 0,0.2 0,0.4 0,0.5 0.1,0.1 0.2,0.3 0.4,0.4 3.3,3.7 6.7,7.4 10,11.1 0.3,0.3 0.6,0.7 0.9,1 0.3,-0.3 0.6,-0.5 0.9,-0.8 1.7,-1.4 3.3,-2.8 5,-4.2 1.7,1.9 3.3,3.7 5,5.6 0.3,0.3 0.6,0.7 0.9,1 0.3,-0.2 0.6,-0.5 0.9,-0.7 1.8,-1.5 3.5,-2.9 5.3,-4.4 0.3,-0.2 0.6,-0.5 0.9,-0.7 -0.3,-0.3 -0.6,-0.6 -0.9,-1 z M 167.3,51.9 c -1.1,1 -2.2,1.9 -3.3,2.9 -0.2,-0.3 -0.4,-0.5 -0.6,-0.8 0,-8.5 0,-17 0,-25.5 0.7,-0.6 1.3,-1.2 2,-1.8 0.7,0.8 1.3,1.5 2,2.3 -0.1,7.7 -0.1,15.3 -0.1,22.9 z"
     id="path86" /><path
     class="st0"
     d="m 189.9,37 c 0,-2 0,-3.9 0,-5.9 2.5,3 4.9,6 7.4,9 0.3,0.4 0.6,0.7 0.9,1.1 0.3,-0.2 0.6,-0.5 0.9,-0.7 1.6,-1.3 3.3,-2.6 4.9,-3.9 0.3,-0.2 0.6,-0.5 0.9,-0.7 -0.3,-0.4 -0.6,-0.7 -0.9,-1.1 -3.5,-4.3 -6.9,-8.5 -10.4,-12.6 -0.3,-0.4 -0.6,-0.7 -0.9,-1.1 -0.3,0.2 -0.6,0.5 -0.9,0.7 -3.6,3 -7.2,6 -10.8,9.1 -0.1,0.1 -0.2,0.2 -0.4,0.3 0,0.2 0,0.3 0,0.5 0,2.5 0,5 0,7.4 0,0.2 0,0.4 0,0.5 0.1,0.1 0.2,0.3 0.4,0.4 4.9,5.8 9.9,11.7 14.8,17.7 -0.7,0.6 -1.4,1.1 -2.2,1.7 -1.7,-2.1 -3.5,-4.2 -5.2,-6.4 -0.3,-0.4 -0.6,-0.7 -0.9,-1.1 -0.3,0.3 -0.6,0.5 -0.9,0.8 -1.8,1.5 -3.6,3 -5.4,4.6 -0.3,0.3 -0.6,0.5 -0.9,0.8 0.3,0.3 0.6,0.7 0.9,1 3.7,4.3 7.4,8.7 11.1,13.2 0.3,0.4 0.6,0.7 0.9,1.1 0.3,-0.2 0.6,-0.5 0.9,-0.7 3.3,-2.6 6.6,-5.3 9.9,-7.8 0.1,-0.1 0.2,-0.2 0.4,-0.3 0,-0.2 0,-0.4 0,-0.5 0,-3 0,-6 0,-9 0,-0.2 0,-0.4 0,-0.5 -0.1,-0.2 -0.2,-0.3 -0.4,-0.5 -4.7,-5.8 -9.4,-11.5 -14.1,-17.1 z"
     id="path88" /><path
     class="st0"
     d="m 150.7,57.6 c -0.9,-1 -1.7,-2 -2.6,-3 0,-3.7 0,-7.5 0,-11.2 0,-0.2 0,-0.4 0,-0.5 -0.1,-0.1 -0.2,-0.3 -0.4,-0.4 -2.5,-2.8 -5.1,-5.5 -7.6,-8.2 2.5,-2.3 5.1,-4.7 7.6,-6.9 0.1,-0.1 0.2,-0.2 0.4,-0.3 0,-0.2 0,-0.4 0,-0.5 0,-3.3 0,-6.7 0,-10 0,-1 0,-2 0,-3.1 -0.7,0.7 -1.5,1.3 -2.2,2 -4,3.6 -8,7.3 -12,11 0,-3.7 0,-7.3 0,-11 0,-1 0,-2 0,-3.1 -0.7,0.7 -1.5,1.4 -2.2,2 -2.5,2.4 -5.1,4.8 -7.6,7.2 -0.1,0.1 -0.3,0.2 -0.4,0.4 0,0.2 0,0.4 0,0.5 0,10.2 0,20.4 0,30.6 -0.9,0.8 -1.7,1.6 -2.6,2.5 -0.9,-0.9 -1.7,-1.8 -2.6,-2.6 0,-3.7 0,-7.5 0,-11.2 0,-0.2 0,-0.3 0,-0.5 -0.1,-0.1 -0.2,-0.3 -0.4,-0.4 -1.6,-1.6 -3.1,-3.3 -4.7,-4.9 1.5,-1.4 2.9,-2.9 4.4,-4.3 0.1,-0.1 0.3,-0.2 0.4,-0.4 0,-0.2 0,-0.4 0,-0.5 0,-2.5 0,-5.1 0,-7.6 0,-0.2 0,-0.4 0,-0.5 -0.1,-0.1 -0.3,-0.3 -0.4,-0.4 -2.9,-2.9 -5.8,-5.8 -8.6,-8.6 -0.1,-0.1 -0.3,-0.2 -0.4,-0.4 -0.2,0 -0.4,0 -0.5,0 -3.4,0 -6.8,0 -10.2,0.1 -0.2,0 -0.4,0 -0.5,0 -0.1,0.1 -0.3,0.3 -0.4,0.4 -2,2.1 -4.1,4.1 -6.1,6.2 -0.3,0.3 -0.6,0.6 -0.9,1 0.3,0.3 0.6,0.6 0.9,0.9 1,0.9 2,1.8 2.9,2.7 0,9.5 0,19 0,28.5 -0.9,0.9 -1.8,1.9 -2.7,2.8 0,0 0,0 0,0.1 0,0 0,0 0,0 -0.9,-0.9 -1.7,-1.7 -2.6,-2.6 0,-9.3 0,-18.5 0,-27.8 0,-0.2 0,-0.4 0,-0.5 -0.1,-0.1 -0.3,-0.2 -0.4,-0.4 -3.5,-3.3 -7,-6.6 -10.4,-9.8 -0.3,-0.3 -0.6,-0.6 -0.9,-0.8 -0.3,0.3 -0.6,0.6 -0.9,1 -3.8,4 -7.6,8.1 -11.4,12.2 -0.1,0.1 -0.3,0.3 -0.4,0.4 0,0.2 0,0.4 0,0.5 0,9 0,18 0,27 -0.8,0.9 -1.6,1.8 -2.5,2.7 -1.1,-1.1 -2.2,-2.2 -3.4,-3.3 0,-8.9 0,-17.7 0,-26.6 0.9,-1 1.7,-2 2.6,-3 0.3,-0.3 0.6,-0.7 0.9,-1 -0.3,-0.3 -0.6,-0.5 -0.9,-0.8 -2.3,-2 -4.5,-4.1 -6.8,-6.1 -0.3,-0.3 -0.6,-0.5 -0.9,-0.8 -0.3,0.3 -0.6,0.7 -0.9,1 -2.1,2.3 -4.1,4.7 -6.1,7 -2,-1.8 -4.1,-3.5 -6.1,-5.3 -0.3,-0.3 -0.6,-0.5 -0.9,-0.8 -0.3,0.3 -0.6,0.7 -0.9,1 -2.3,2.6 -4.6,5.3 -6.8,8 -0.3,0.4 -0.6,0.7 -0.9,1.1 0.3,0.2 0.6,0.5 0.9,0.7 0.9,0.7 1.8,1.5 2.7,2.2 0,9.4 0,18.8 0,28.3 0,0.2 0,0.4 0,0.5 0.1,0.1 0.2,0.2 0.4,0.3 3.3,2.8 6.6,5.6 10,8.4 0.3,0.3 0.6,0.5 0.9,0.8 0.3,-0.3 0.6,-0.7 0.9,-1 1.7,-1.9 3.3,-3.7 5,-5.6 1.7,1.4 3.3,2.8 5,4.3 0.3,0.3 0.6,0.5 0.9,0.8 0.3,-0.3 0.6,-0.7 0.9,-1 1.7,-1.9 3.4,-3.8 5.2,-5.7 1.7,1.5 3.4,3.1 5.1,4.7 0.3,0.3 0.6,0.6 0.9,0.8 0.3,-0.3 0.6,-0.7 0.9,-1 2.1,-2.2 4.2,-4.5 6.2,-6.7 2,1.9 4.1,3.9 6.1,5.8 0.3,0.3 0.6,0.6 0.9,0.9 0.3,-0.3 0.6,-0.6 0.9,-1 2.3,-2.4 4.6,-4.8 6.9,-7.2 0,0 0,0 0.1,-0.1 0,0 0,0 0,0 2.3,2.2 4.5,4.4 6.8,6.7 0.3,0.3 0.6,0.6 0.9,0.9 0.3,-0.3 0.6,-0.6 0.9,-0.9 2.1,-2.1 4.2,-4.2 6.3,-6.3 2.1,2.1 4.1,4.2 6.2,6.3 0.3,0.3 0.6,0.6 0.9,0.9 0.3,-0.3 0.6,-0.6 0.9,-0.9 2.2,-2.2 4.5,-4.4 6.7,-6.5 2.2,2.3 4.5,4.6 6.7,7 0.3,0.3 0.6,0.6 0.9,1 0.3,-0.3 0.6,-0.6 0.9,-0.9 2.1,-2 4.2,-3.9 6.2,-5.8 2,2.2 4.1,4.4 6.1,6.6 0.3,0.3 0.6,0.7 0.9,1 0.3,-0.3 0.6,-0.6 0.9,-0.8 2.3,-2.1 4.6,-4.2 6.9,-6.2 0.3,-0.3 0.6,-0.5 0.9,-0.8 -0.3,-0.5 -0.6,-0.8 -0.8,-1.2 z M 48.4,51.8 c -1.1,1.3 -2.2,2.5 -3.3,3.8 -0.2,-0.2 -0.4,-0.4 -0.6,-0.6 0,-8.5 0,-17 0,-25.5 0.7,-0.8 1.3,-1.5 2,-2.3 0.7,0.6 1.3,1.2 2,1.8 -0.1,7.6 -0.1,15.2 -0.1,22.8 z m 30.1,2 c -0.7,0.7 -1.3,1.4 -2,2.2 -0.7,-0.6 -1.3,-1.3 -2,-1.9 0,-1.5 0,-2.9 0,-4.4 1.3,-0.1 2.6,-0.2 4,-0.3 0,1.4 0,2.9 0,4.4 z m 0,-14.9 c -1.3,0.1 -2.6,0.2 -4,0.3 0,-4 0,-7.9 0,-11.9 1.3,1.2 2.6,2.5 4,3.7 0,2.6 0,5.3 0,7.9 z m 29.8,13.9 c -0.7,0.7 -1.3,1.4 -2,2.1 -0.7,-0.7 -1.4,-1.4 -2,-2.1 0,-3.7 0,-7.4 0,-11 1.3,1.3 2.7,2.7 4,4.1 0,2.3 0,4.6 0,6.9 z m -4.5,-21 c 0,-2.9 0,-5.9 0,-8.8 1.5,1.5 3,2.9 4.5,4.4 -1.5,1.5 -3,3 -4.5,4.4 z m 34,22 c -0.7,0.6 -1.3,1.3 -2,1.9 -0.7,-0.7 -1.3,-1.4 -2,-2.1 0,-3.7 0,-7.3 0,-11 1.3,1.4 2.6,2.8 4,4.2 0,2.4 0,4.7 0,7 z"
     id="path90" /><g
     id="g110"
     style="fill:#ffffff">
		<path
   d="M 33,110.4 H 26.1 L 24,101 c -0.1,-0.4 -0.3,-1.2 -0.5,-2.4 -0.2,-1.2 -0.4,-2.2 -0.5,-2.9 -0.1,0.6 -0.2,1.4 -0.4,2.4 -0.2,1 -0.4,1.8 -0.5,2.6 -0.2,0.8 -0.9,4 -2.2,9.7 H 13 L 7.8,88.8 h 5.6 l 2.4,10.9 c 0.5,2.4 0.9,4.3 1.1,5.7 0.1,-1 0.4,-2.4 0.7,-4.1 0.3,-1.7 0.6,-3.2 0.9,-4.3 l 1.9,-8.2 h 5.4 l 1.9,8.2 c 0.3,1.3 0.6,2.8 1,4.5 0.3,1.7 0.5,3 0.7,3.8 0.1,-1.1 0.5,-3 1.1,-5.7 l 2.4,-10.9 h 5.6 z"
   id="path92"
   style="fill:#ffffff" />
		<path
   d="m 59.6,99.6 c 0,3.6 -0.9,6.4 -2.7,8.3 -1.8,1.9 -4.4,2.8 -7.8,2.8 -3.4,0 -6,-1 -7.8,-2.9 -1.8,-1.9 -2.7,-4.7 -2.7,-8.3 0,-3.6 0.9,-6.4 2.7,-8.3 1.8,-1.9 4.4,-2.9 7.9,-2.9 3.4,0 6.1,0.9 7.8,2.8 1.7,2 2.6,4.8 2.6,8.5 z m -14.9,0 c 0,4.2 1.5,6.3 4.4,6.3 1.5,0 2.6,-0.5 3.3,-1.5 0.7,-1 1.1,-2.6 1.1,-4.8 0,-2.2 -0.4,-3.8 -1.1,-4.8 -0.7,-1 -1.8,-1.5 -3.2,-1.5 -3.1,-0.1 -4.5,2 -4.5,6.3 z"
   id="path94"
   style="fill:#ffffff" />
		<path
   d="m 67.5,102.5 v 7.9 H 61.7 V 88.8 h 7.1 c 5.9,0 8.8,2.1 8.8,6.4 0,2.5 -1.2,4.4 -3.7,5.8 l 6.3,9.4 H 73.6 L 69,102.5 Z m 0,-4.4 h 1.1 c 2,0 3.1,-0.9 3.1,-2.7 0,-1.5 -1,-2.2 -3,-2.2 h -1.2 z"
   id="path96"
   style="fill:#ffffff" />
		<path
   d="M 80.4,110.4 V 88.8 h 5.8 v 16.9 h 8.3 v 4.7 H 80.4 Z"
   id="path98"
   style="fill:#ffffff" />
		<path
   d="m 114.6,99.1 c 0,3.6 -1,6.4 -3,8.4 -2,2 -4.8,2.9 -8.4,2.9 h -7 V 88.8 h 7.5 c 3.5,0 6.2,0.9 8,2.7 1.9,1.7 2.9,4.3 2.9,7.6 z m -6.1,0.2 c 0,-2 -0.4,-3.5 -1.2,-4.4 -0.8,-1 -2,-1.4 -3.6,-1.4 H 102 v 12.1 h 1.3 c 1.8,0 3.1,-0.5 3.9,-1.5 0.9,-1.1 1.3,-2.6 1.3,-4.8 z"
   id="path100"
   style="fill:#ffffff" />
		<path
   d="m 134.7,110.4 h -5.8 V 93.5 h -5.3 V 88.7 H 140 v 4.8 h -5.3 z"
   id="path102"
   style="fill:#ffffff" />
		<path
   d="m 161.5,99.6 c 0,3.6 -0.9,6.4 -2.7,8.3 -1.8,1.9 -4.4,2.8 -7.8,2.8 -3.4,0 -6,-1 -7.8,-2.9 -1.8,-1.9 -2.7,-4.7 -2.7,-8.3 0,-3.6 0.9,-6.4 2.7,-8.3 1.8,-1.9 4.4,-2.9 7.9,-2.9 3.4,0 6.1,0.9 7.8,2.8 1.7,2 2.6,4.8 2.6,8.5 z m -14.9,0 c 0,4.2 1.5,6.3 4.4,6.3 1.5,0 2.6,-0.5 3.3,-1.5 0.7,-1 1.1,-2.6 1.1,-4.8 0,-2.2 -0.4,-3.8 -1.1,-4.8 -0.7,-1 -1.8,-1.5 -3.2,-1.5 -3.1,-0.1 -4.5,2 -4.5,6.3 z"
   id="path104"
   style="fill:#ffffff" />
		<path
   d="m 182,88.8 v 13 c 0,2.8 -0.8,5 -2.4,6.6 -1.6,1.6 -3.9,2.3 -6.9,2.3 -3,0 -5.2,-0.8 -6.8,-2.3 -1.6,-1.5 -2.4,-3.7 -2.4,-6.5 V 88.8 h 5.9 v 12.7 c 0,1.5 0.3,2.6 0.9,3.3 0.6,0.7 1.4,1 2.5,1 1.2,0 2.1,-0.3 2.6,-1 0.5,-0.7 0.8,-1.8 0.8,-3.4 V 88.8 Z"
   id="path106"
   style="fill:#ffffff" />
		<path
   d="m 190.5,102.5 v 7.9 h -5.8 V 88.8 h 7.1 c 5.9,0 8.8,2.1 8.8,6.4 0,2.5 -1.2,4.4 -3.7,5.8 l 6.3,9.4 h -6.6 l -4.6,-7.9 z m 0,-4.4 h 1.1 c 2,0 3.1,-0.9 3.1,-2.7 0,-1.5 -1,-2.2 -3,-2.2 h -1.2 z"
   id="path108"
   style="fill:#ffffff" />
	</g></g>
</svg>
