<?xml version="1.0" encoding="utf-8"?>
<!-- Generator: Adobe Illustrator 27.2.0, SVG Export Plug-In . SVG Version: 6.00 Build 0)  -->
<svg version="1.1" id="Layer_1" xmlns="http://www.w3.org/2000/svg" xmlns:xlink="http://www.w3.org/1999/xlink" x="0px" y="0px"
	 viewBox="0 0 215 113" style="enable-background:new 0 0 215 113;" xml:space="preserve">
<style type="text/css">
	.st0{fill:#FFFFFF;}
</style>
<g>
	<path d="M201.3,44.7c0.2-0.2,0.5-0.4,0.7-0.6c1.6-1.3,3.3-2.6,4.9-3.9c1.3-1,2.6-2,3.9-3c-1.3-1.6-2.6-3.2-3.9-4.9
		c-3.5-4.3-6.9-8.5-10.4-12.7c-1.3-1.6-2.6-3.2-3.9-4.7c-1.3,1.1-2.6,2.2-3.9,3.2c-2.1,1.7-4.1,3.5-6.2,5.2
		c-2.1-2.5-4.2-4.9-6.3-7.4c-1.3-1.5-2.6-3.1-4-4.6c-1.3,1.1-2.6,2.3-4,3.4c-1,0.9-2.1,1.8-3.1,2.7c-1-1.2-2.1-2.3-3.1-3.5
		c-1.3-1.5-2.6-3-4-4.5c-1.3,1.2-2.6,2.3-4,3.5c-0.6,0.6-1.3,1.1-1.9,1.7c0-3.8,0-7.6,0-11.3c-3.2,2.8-6.4,5.7-9.6,8.6
		c-1.5,1.4-3.1,2.8-4.6,4.2c0-0.2,0-0.4,0-0.6c0-4.5,0-8.9,0-13.4c-3.2,2.9-6.4,5.9-9.6,8.9c-2.5,2.4-5.1,4.8-7.7,7.2
		c-0.2,0.2-0.3,0.3-0.5,0.5c-2.7-2.8-5.5-5.6-8.2-8.3c-0.5-0.5-1.1-1.1-1.6-1.6c-0.8,0-1.5,0-2.3,0c-3.4,0-6.8,0-10.2,0.1
		c-0.8,0-1.6,0-2.3,0.1c-0.5,0.6-1.1,1.1-1.6,1.7c-2,2.1-4,4.2-6.1,6.3c-0.2,0.2-0.4,0.4-0.6,0.6c-2.2-2.1-4.4-4.1-6.5-6.2
		C79.6,10.2,78.3,9,77,7.8c-1.3,1.4-2.6,2.8-4,4.2c-2.6,2.8-5.3,5.6-7.9,8.5c-0.3-0.3-0.6-0.6-1-0.9c-2.3-2.1-4.5-4.1-6.8-6.1
		c-1.3-1.2-2.6-2.4-4-3.5c-1.3,1.5-2.6,3-4,4.5c-1,1.2-2.1,2.4-3.1,3.5c-1-0.9-2.1-1.8-3.1-2.7c-1.3-1.1-2.6-2.3-3.9-3.4
		c-1.3,1.5-2.6,3.1-4,4.6c-1.9,2.2-3.8,4.5-5.8,6.8c-1.9-1.6-3.8-3.2-5.7-4.7c-1.3-1.1-2.6-2.1-3.9-3.2c-1.3,1.6-2.6,3.2-3.9,4.8
		c-3.4,4.2-6.9,8.5-10.3,12.8c-0.5,0.7-1.1,1.3-1.6,2c0,0.8,0,1.5,0,2.3c0,9.4,0,18.9,0,28.3c0,0.8,0,1.5,0,2.3
		c0.5,0.4,1.1,0.8,1.6,1.3c4.2,3.3,8.3,6.6,12.5,9.9c1.3,1.1,2.6,2.1,4,3.2c1.3-1.6,2.6-3.2,3.9-4.8c1.8-2.2,3.6-4.3,5.4-6.5
		c1.2-1.4,2.4-2.9,3.6-4.3c2.2,1.8,4.3,3.6,6.5,5.5c1.3,1.1,2.6,2.2,3.9,3.4c1.3-1.5,2.6-3,3.9-4.4c0.7-0.7,1.3-1.5,2-2.2
		c0.6,0.6,1.3,1.1,1.9,1.7c1.3,1.1,2.6,2.2,3.9,3.4c1.3-1.4,2.6-2.9,3.9-4.3c0.7-0.8,1.4-1.5,2.1-2.3c0.7,0.6,1.4,1.3,2.1,1.9
		c1.3,1.2,2.6,2.4,4,3.6c1.3-1.4,2.7-2.9,4-4.3c1-1.1,2.1-2.2,3.1-3.4c1,1,2,1.9,3.1,2.9c1.3,1.3,2.6,2.5,4,3.8
		c1.3-1.4,2.7-2.8,4-4.2c1.3-1.3,2.6-2.7,3.9-4c1.3,1.2,2.5,2.4,3.8,3.7c1.3,1.3,2.6,2.6,4,3.9c1.3-1.4,2.7-2.7,4-4
		c1.1-1.1,2.1-2.1,3.2-3.2c1.1,1.1,2.1,2.1,3.2,3.2c1.3,1.3,2.6,2.7,4,4c1.3-1.3,2.7-2.6,4-3.9c1.2-1.2,2.4-2.4,3.7-3.5
		c1.2,1.2,2.4,2.5,3.6,3.8c1.3,1.4,2.6,2.8,4,4.2c1.3-1.3,2.7-2.5,4-3.8c1.1-1,2.1-2,3.1-2.9c1,1.1,2,2.2,3.1,3.3
		c1.3,1.4,2.6,2.9,4,4.3c1.3-1.2,2.7-2.4,4-3.6c2.3-2.1,4.6-4.1,6.8-6.2c2.3,2.5,4.6,5,6.8,7.6c1.3,1.5,2.6,2.9,3.9,4.4
		c1.3-1.1,2.6-2.3,3.9-3.4c0.7-0.6,1.3-1.1,2-1.7c0.6,0.7,1.3,1.5,1.9,2.2c1.3,1.5,2.6,3,3.9,4.4c1.3-1.1,2.6-2.2,3.9-3.2
		c1.5-1.3,3.1-2.5,4.6-3.8c1.5,1.8,3.1,3.6,4.6,5.5c1.3,1.5,2.6,3.1,3.9,4.7c1.3-1,2.6-2.1,3.9-3.1c3.3-2.6,6.6-5.2,9.9-7.8
		c0.5-0.4,1.1-0.8,1.6-1.3c0-0.8,0-1.5,0-2.3c0-3,0-6,0-9c0-0.8,0-1.5,0-2.3c-0.5-0.7-1.1-1.3-1.6-2C205.1,49.4,203.2,47,201.3,44.7
		z M148.8,37.7c-0.9-1-1.8-1.9-2.7-2.9c0.9-0.8,1.8-1.6,2.7-2.4C148.8,34.2,148.8,36,148.8,37.7z M183.5,49.3
		c-0.6,0.5-1.2,1-1.8,1.5c0-1.3,0-2.5,0-3.8C182.3,47.8,183,48.5,183.5,49.3C183.6,49.2,183.6,49.2,183.5,49.3z"/>
	<path class="st0" d="M31.5,30.9c-3.5-2.9-7.1-5.8-10.6-8.7c-0.3-0.2-0.6-0.5-0.9-0.7c-0.3,0.4-0.6,0.7-0.9,1.1
		c-3.5,4.2-6.9,8.4-10.3,12.7c-0.1,0.2-0.2,0.3-0.4,0.5c0,0.2,0,0.4,0,0.5c0,9.4,0,18.9,0,28.3c0,0.2,0,0.4,0,0.5
		c0.1,0.1,0.2,0.2,0.4,0.3c4.2,3.3,8.3,6.6,12.5,10c0.3,0.2,0.6,0.5,0.9,0.7c0.3-0.4,0.6-0.7,0.9-1.1c1.8-2.2,3.6-4.4,5.4-6.5
		c0.3-0.3,0.6-0.7,0.9-1c-0.3-0.2-0.6-0.5-0.9-0.7c-0.6-0.5-1.2-1.1-1.8-1.6c1.6-1.9,3.2-3.7,4.9-5.6c0.1-0.1,0.3-0.3,0.4-0.4
		c0-0.2,0-0.4,0-0.5c0-9,0-17.9,0-26.9c0-0.2,0-0.4,0-0.5C31.7,31.1,31.6,31,31.5,30.9z M21.8,56.6c-0.9,1.1-1.9,2.3-2.8,3.4
		c-0.2-0.2-0.5-0.4-0.7-0.5c0-8.1,0-16.3,0-24.4c1.2,0.9,2.3,1.9,3.5,2.8C21.8,44.1,21.8,50.4,21.8,56.6z"/>
	<path class="st0" d="M182.4,63.4c-1.7-2.1-3.3-4.2-5-6.3c0-8.9,0-17.7,0-26.6c0.9-0.8,1.7-1.5,2.6-2.3c0.3-0.3,0.6-0.5,0.9-0.8
		c-0.3-0.3-0.6-0.7-0.9-1c-2.3-2.7-4.5-5.3-6.8-7.9c-0.3-0.3-0.6-0.7-0.9-1c-0.3,0.3-0.6,0.5-0.9,0.8c-2,1.8-4.1,3.5-6.1,5.3
		c-2-2.3-4.1-4.7-6.2-7c-0.3-0.3-0.6-0.7-0.9-1c-0.3,0.3-0.6,0.5-0.9,0.8c-2.3,2-4.6,4.1-6.9,6.1c-0.3,0.3-0.6,0.5-0.9,0.8
		c0.3,0.3,0.6,0.7,0.9,1c0.9,1,1.8,2,2.7,3c0,9.4,0,18.8,0,28.3c0,0.2,0,0.4,0,0.5c0.1,0.1,0.2,0.3,0.4,0.4c3.3,3.7,6.7,7.4,10,11.1
		c0.3,0.3,0.6,0.7,0.9,1c0.3-0.3,0.6-0.5,0.9-0.8c1.7-1.4,3.3-2.8,5-4.2c1.7,1.9,3.3,3.7,5,5.6c0.3,0.3,0.6,0.7,0.9,1
		c0.3-0.2,0.6-0.5,0.9-0.7c1.8-1.5,3.5-2.9,5.3-4.4c0.3-0.2,0.6-0.5,0.9-0.7C183,64.1,182.7,63.8,182.4,63.4z M167.3,51.9
		c-1.1,1-2.2,1.9-3.3,2.9c-0.2-0.3-0.4-0.5-0.6-0.8c0-8.5,0-17,0-25.5c0.7-0.6,1.3-1.2,2-1.8c0.7,0.8,1.3,1.5,2,2.3
		C167.3,36.7,167.3,44.3,167.3,51.9z"/>
	<path class="st0" d="M189.9,37c0-2,0-3.9,0-5.9c2.5,3,4.9,6,7.4,9c0.3,0.4,0.6,0.7,0.9,1.1c0.3-0.2,0.6-0.5,0.9-0.7
		c1.6-1.3,3.3-2.6,4.9-3.9c0.3-0.2,0.6-0.5,0.9-0.7c-0.3-0.4-0.6-0.7-0.9-1.1c-3.5-4.3-6.9-8.5-10.4-12.6c-0.3-0.4-0.6-0.7-0.9-1.1
		c-0.3,0.2-0.6,0.5-0.9,0.7c-3.6,3-7.2,6-10.8,9.1c-0.1,0.1-0.2,0.2-0.4,0.3c0,0.2,0,0.3,0,0.5c0,2.5,0,5,0,7.4c0,0.2,0,0.4,0,0.5
		c0.1,0.1,0.2,0.3,0.4,0.4c4.9,5.8,9.9,11.7,14.8,17.7c-0.7,0.6-1.4,1.1-2.2,1.7c-1.7-2.1-3.5-4.2-5.2-6.4c-0.3-0.4-0.6-0.7-0.9-1.1
		c-0.3,0.3-0.6,0.5-0.9,0.8c-1.8,1.5-3.6,3-5.4,4.6c-0.3,0.3-0.6,0.5-0.9,0.8c0.3,0.3,0.6,0.7,0.9,1c3.7,4.3,7.4,8.7,11.1,13.2
		c0.3,0.4,0.6,0.7,0.9,1.1c0.3-0.2,0.6-0.5,0.9-0.7c3.3-2.6,6.6-5.3,9.9-7.8c0.1-0.1,0.2-0.2,0.4-0.3c0-0.2,0-0.4,0-0.5c0-3,0-6,0-9
		c0-0.2,0-0.4,0-0.5c-0.1-0.2-0.2-0.3-0.4-0.5C199.3,48.3,194.6,42.6,189.9,37z"/>
	<path class="st0" d="M150.7,57.6c-0.9-1-1.7-2-2.6-3c0-3.7,0-7.5,0-11.2c0-0.2,0-0.4,0-0.5c-0.1-0.1-0.2-0.3-0.4-0.4
		c-2.5-2.8-5.1-5.5-7.6-8.2c2.5-2.3,5.1-4.7,7.6-6.9c0.1-0.1,0.2-0.2,0.4-0.3c0-0.2,0-0.4,0-0.5c0-3.3,0-6.7,0-10c0-1,0-2,0-3.1
		c-0.7,0.7-1.5,1.3-2.2,2c-4,3.6-8,7.3-12,11c0-3.7,0-7.3,0-11c0-1,0-2,0-3.1c-0.7,0.7-1.5,1.4-2.2,2c-2.5,2.4-5.1,4.8-7.6,7.2
		c-0.1,0.1-0.3,0.2-0.4,0.4c0,0.2,0,0.4,0,0.5c0,10.2,0,20.4,0,30.6c-0.9,0.8-1.7,1.6-2.6,2.5c-0.9-0.9-1.7-1.8-2.6-2.6
		c0-3.7,0-7.5,0-11.2c0-0.2,0-0.3,0-0.5c-0.1-0.1-0.2-0.3-0.4-0.4c-1.6-1.6-3.1-3.3-4.7-4.9c1.5-1.4,2.9-2.9,4.4-4.3
		c0.1-0.1,0.3-0.2,0.4-0.4c0-0.2,0-0.4,0-0.5c0-2.5,0-5.1,0-7.6c0-0.2,0-0.4,0-0.5c-0.1-0.1-0.3-0.3-0.4-0.4
		c-2.9-2.9-5.8-5.8-8.6-8.6c-0.1-0.1-0.3-0.2-0.4-0.4c-0.2,0-0.4,0-0.5,0c-3.4,0-6.8,0-10.2,0.1c-0.2,0-0.4,0-0.5,0
		c-0.1,0.1-0.3,0.3-0.4,0.4c-2,2.1-4.1,4.1-6.1,6.2c-0.3,0.3-0.6,0.6-0.9,1c0.3,0.3,0.6,0.6,0.9,0.9c1,0.9,2,1.8,2.9,2.7
		c0,9.5,0,19,0,28.5c-0.9,0.9-1.8,1.9-2.7,2.8c0,0,0,0,0,0.1c0,0,0,0,0,0c-0.9-0.9-1.7-1.7-2.6-2.6c0-9.3,0-18.5,0-27.8
		c0-0.2,0-0.4,0-0.5c-0.1-0.1-0.3-0.2-0.4-0.4c-3.5-3.3-7-6.6-10.4-9.8c-0.3-0.3-0.6-0.6-0.9-0.8c-0.3,0.3-0.6,0.6-0.9,1
		c-3.8,4-7.6,8.1-11.4,12.2c-0.1,0.1-0.3,0.3-0.4,0.4c0,0.2,0,0.4,0,0.5c0,9,0,18,0,27c-0.8,0.9-1.6,1.8-2.5,2.7
		c-1.1-1.1-2.2-2.2-3.4-3.3c0-8.9,0-17.7,0-26.6c0.9-1,1.7-2,2.6-3c0.3-0.3,0.6-0.7,0.9-1c-0.3-0.3-0.6-0.5-0.9-0.8
		c-2.3-2-4.5-4.1-6.8-6.1c-0.3-0.3-0.6-0.5-0.9-0.8c-0.3,0.3-0.6,0.7-0.9,1c-2.1,2.3-4.1,4.7-6.1,7c-2-1.8-4.1-3.5-6.1-5.3
		c-0.3-0.3-0.6-0.5-0.9-0.8c-0.3,0.3-0.6,0.7-0.9,1c-2.3,2.6-4.6,5.3-6.8,8c-0.3,0.4-0.6,0.7-0.9,1.1c0.3,0.2,0.6,0.5,0.9,0.7
		c0.9,0.7,1.8,1.5,2.7,2.2c0,9.4,0,18.8,0,28.3c0,0.2,0,0.4,0,0.5c0.1,0.1,0.2,0.2,0.4,0.3c3.3,2.8,6.6,5.6,10,8.4
		c0.3,0.3,0.6,0.5,0.9,0.8c0.3-0.3,0.6-0.7,0.9-1c1.7-1.9,3.3-3.7,5-5.6c1.7,1.4,3.3,2.8,5,4.3c0.3,0.3,0.6,0.5,0.9,0.8
		c0.3-0.3,0.6-0.7,0.9-1c1.7-1.9,3.4-3.8,5.2-5.7c1.7,1.5,3.4,3.1,5.1,4.7c0.3,0.3,0.6,0.6,0.9,0.8c0.3-0.3,0.6-0.7,0.9-1
		c2.1-2.2,4.2-4.5,6.2-6.7c2,1.9,4.1,3.9,6.1,5.8c0.3,0.3,0.6,0.6,0.9,0.9c0.3-0.3,0.6-0.6,0.9-1c2.3-2.4,4.6-4.8,6.9-7.2
		c0,0,0,0,0.1-0.1c0,0,0,0,0,0c2.3,2.2,4.5,4.4,6.8,6.7c0.3,0.3,0.6,0.6,0.9,0.9c0.3-0.3,0.6-0.6,0.9-0.9c2.1-2.1,4.2-4.2,6.3-6.3
		c2.1,2.1,4.1,4.2,6.2,6.3c0.3,0.3,0.6,0.6,0.9,0.9c0.3-0.3,0.6-0.6,0.9-0.9c2.2-2.2,4.5-4.4,6.7-6.5c2.2,2.3,4.5,4.6,6.7,7
		c0.3,0.3,0.6,0.6,0.9,1c0.3-0.3,0.6-0.6,0.9-0.9c2.1-2,4.2-3.9,6.2-5.8c2,2.2,4.1,4.4,6.1,6.6c0.3,0.3,0.6,0.7,0.9,1
		c0.3-0.3,0.6-0.6,0.9-0.8c2.3-2.1,4.6-4.2,6.9-6.2c0.3-0.3,0.6-0.5,0.9-0.8C151.2,58.3,150.9,58,150.7,57.6z M48.4,51.8
		c-1.1,1.3-2.2,2.5-3.3,3.8c-0.2-0.2-0.4-0.4-0.6-0.6c0-8.5,0-17,0-25.5c0.7-0.8,1.3-1.5,2-2.3c0.7,0.6,1.3,1.2,2,1.8
		C48.4,36.6,48.4,44.2,48.4,51.8z M78.5,53.8c-0.7,0.7-1.3,1.4-2,2.2c-0.7-0.6-1.3-1.3-2-1.9c0-1.5,0-2.9,0-4.4
		c1.3-0.1,2.6-0.2,4-0.3C78.5,50.8,78.5,52.3,78.5,53.8z M78.5,38.9c-1.3,0.1-2.6,0.2-4,0.3c0-4,0-7.9,0-11.9c1.3,1.2,2.6,2.5,4,3.7
		C78.5,33.6,78.5,36.3,78.5,38.9z M108.3,52.8c-0.7,0.7-1.3,1.4-2,2.1c-0.7-0.7-1.4-1.4-2-2.1c0-3.7,0-7.4,0-11
		c1.3,1.3,2.7,2.7,4,4.1C108.3,48.2,108.3,50.5,108.3,52.8z M103.8,31.8c0-2.9,0-5.9,0-8.8c1.5,1.5,3,2.9,4.5,4.4
		C106.8,28.9,105.3,30.4,103.8,31.8z M137.8,53.8c-0.7,0.6-1.3,1.3-2,1.9c-0.7-0.7-1.3-1.4-2-2.1c0-3.7,0-7.3,0-11
		c1.3,1.4,2.6,2.8,4,4.2C137.8,49.2,137.8,51.5,137.8,53.8z"/>
	<g>
		<path d="M33,110.4h-6.9L24,101c-0.1-0.4-0.3-1.2-0.5-2.4c-0.2-1.2-0.4-2.2-0.5-2.9c-0.1,0.6-0.2,1.4-0.4,2.4
			c-0.2,1-0.4,1.8-0.5,2.6c-0.2,0.8-0.9,4-2.2,9.7h-6.9L7.8,88.8h5.6l2.4,10.9c0.5,2.4,0.9,4.3,1.1,5.7c0.1-1,0.4-2.4,0.7-4.1
			c0.3-1.7,0.6-3.2,0.9-4.3l1.9-8.2h5.4l1.9,8.2c0.3,1.3,0.6,2.8,1,4.5c0.3,1.7,0.5,3,0.7,3.8c0.1-1.1,0.5-3,1.1-5.7l2.4-10.9h5.6
			L33,110.4z"/>
		<path d="M59.6,99.6c0,3.6-0.9,6.4-2.7,8.3c-1.8,1.9-4.4,2.8-7.8,2.8c-3.4,0-6-1-7.8-2.9c-1.8-1.9-2.7-4.7-2.7-8.3
			c0-3.6,0.9-6.4,2.7-8.3c1.8-1.9,4.4-2.9,7.9-2.9c3.4,0,6.1,0.9,7.8,2.8C58.7,93.1,59.6,95.9,59.6,99.6z M44.7,99.6
			c0,4.2,1.5,6.3,4.4,6.3c1.5,0,2.6-0.5,3.3-1.5c0.7-1,1.1-2.6,1.1-4.8c0-2.2-0.4-3.8-1.1-4.8c-0.7-1-1.8-1.5-3.2-1.5
			C46.1,93.2,44.7,95.3,44.7,99.6z"/>
		<path d="M67.5,102.5v7.9h-5.8V88.8h7.1c5.9,0,8.8,2.1,8.8,6.4c0,2.5-1.2,4.4-3.7,5.8l6.3,9.4h-6.6l-4.6-7.9H67.5z M67.5,98.1h1.1
			c2,0,3.1-0.9,3.1-2.7c0-1.5-1-2.2-3-2.2h-1.2V98.1z"/>
		<path d="M80.4,110.4V88.8h5.8v16.9h8.3v4.7H80.4z"/>
		<path d="M114.6,99.1c0,3.6-1,6.4-3,8.4c-2,2-4.8,2.9-8.4,2.9h-7V88.8h7.5c3.5,0,6.2,0.9,8,2.7C113.6,93.2,114.6,95.8,114.6,99.1z
			 M108.5,99.3c0-2-0.4-3.5-1.2-4.4c-0.8-1-2-1.4-3.6-1.4H102v12.1h1.3c1.8,0,3.1-0.5,3.9-1.5C108.1,103,108.5,101.5,108.5,99.3z"/>
		<path d="M134.7,110.4h-5.8V93.5h-5.3v-4.8h16.4v4.8h-5.3V110.4z"/>
		<path d="M161.5,99.6c0,3.6-0.9,6.4-2.7,8.3c-1.8,1.9-4.4,2.8-7.8,2.8c-3.4,0-6-1-7.8-2.9c-1.8-1.9-2.7-4.7-2.7-8.3
			c0-3.6,0.9-6.4,2.7-8.3c1.8-1.9,4.4-2.9,7.9-2.9c3.4,0,6.1,0.9,7.8,2.8C160.6,93.1,161.5,95.9,161.5,99.6z M146.6,99.6
			c0,4.2,1.5,6.3,4.4,6.3c1.5,0,2.6-0.5,3.3-1.5c0.7-1,1.1-2.6,1.1-4.8c0-2.2-0.4-3.8-1.1-4.8c-0.7-1-1.8-1.5-3.2-1.5
			C148,93.2,146.6,95.3,146.6,99.6z"/>
		<path d="M182,88.8v13c0,2.8-0.8,5-2.4,6.6c-1.6,1.6-3.9,2.3-6.9,2.3c-3,0-5.2-0.8-6.8-2.3c-1.6-1.5-2.4-3.7-2.4-6.5V88.8h5.9v12.7
			c0,1.5,0.3,2.6,0.9,3.3c0.6,0.7,1.4,1,2.5,1c1.2,0,2.1-0.3,2.6-1c0.5-0.7,0.8-1.8,0.8-3.4V88.8H182z"/>
		<path d="M190.5,102.5v7.9h-5.8V88.8h7.1c5.9,0,8.8,2.1,8.8,6.4c0,2.5-1.2,4.4-3.7,5.8l6.3,9.4h-6.6l-4.6-7.9H190.5z M190.5,98.1
			h1.1c2,0,3.1-0.9,3.1-2.7c0-1.5-1-2.2-3-2.2h-1.2V98.1z"/>
	</g>
</g>
</svg>
