<?xml version="1.0" encoding="utf-8"?>
<!-- Generator: Adobe Illustrator 27.2.0, SVG Export Plug-In . SVG Version: 6.00 Build 0)  -->
<svg version="1.1" id="Layer_1" xmlns="http://www.w3.org/2000/svg" xmlns:xlink="http://www.w3.org/1999/xlink" x="0px" y="0px"
	 viewBox="0 0 150 113" style="enable-background:new 0 0 150 113;" xml:space="preserve">
<style type="text/css">
	.st0{fill:#FFFFFF;}
	.st1{fill:#EE1C4F;}
</style>
<g>
	<g>
		<polygon points="100.6,31.7 100.6,28.3 74.8,2.4 49.4,27.8 49.4,31.7 3.5,31.4 49.4,77.3 49.4,86.2 73.6,110.6 79.2,105.1 
			84.7,110.6 102.9,92.4 97.5,87 100.6,83.9 100.6,77.3 146.5,31.4 		"/>
		<polygon class="st0" points="14.6,36 16.3,37.8 22.4,43.8 22.7,44.1 23.1,44.1 49.6,44.1 50.6,44.1 50.6,43.1 50.6,37.2 
			50.6,36.2 49.6,36.2 17,36.1 14.6,36 		"/>
		<polygon class="st0" points="50.6,54 49.6,54 35,54 32.6,54 34.3,55.8 48.9,70.3 50.6,72.1 50.6,69.6 50.6,55.1 50.6,54 		"/>
		<polygon class="st0" points="50.6,45.2 49.6,45.2 26.2,45.2 23.8,45.2 25.5,46.9 31.2,52.7 31.5,53 31.9,53 49.6,53 50.6,53 
			50.6,51.9 50.6,46.2 50.6,45.2 		"/>
		<polygon class="st0" points="135.4,36 133,36.1 100.4,36.2 99.4,36.2 99.4,37.2 99.4,43.1 99.4,44.1 100.4,44.1 126.9,44.1 
			127.3,44.1 127.6,43.8 133.7,37.8 135.4,36 		"/>
		<polygon class="st0" points="117.4,54 115,54 100.4,54 99.4,54 99.4,55.1 99.4,69.6 99.4,72.1 101.1,70.3 115.7,55.8 117.4,54 		
			"/>
		<polygon class="st0" points="126.2,45.2 123.8,45.2 100.4,45.2 99.4,45.2 99.4,46.2 99.4,51.9 99.4,53 100.4,53 118.1,53 
			118.5,53 118.8,52.7 124.5,46.9 126.2,45.2 		"/>
		<path class="st0" d="M95.8,91.7L91.1,87l4.7-4.6l0.3-0.3v-0.4v-51v-0.4l-0.3-0.3L75.5,9.6l-0.7-0.7l-0.7,0.7L54.2,29.4l-0.3,0.3
			v0.4v53.8v0.4l0.3,0.3l18.7,18.8l0.7,0.7l0.7-0.7l4.8-4.8l4.8,4.8l0.7,0.7l0.7-0.7l10.4-10.4l0.7-0.7L95.8,91.7z M79.7,74.8
			l-0.4,0.4l-4.8-4.8l-1.7-1.7v2.4v10.4L70.2,79V28.6l9.5,9.5V74.8z"/>
		<polygon class="st1" points="49.6,43.1 49.6,37.2 17,37.1 23.1,43.1 		"/>
		<polygon class="st1" points="35,55.1 49.6,69.6 49.6,55.1 		"/>
		<polygon class="st1" points="49.6,51.9 49.6,46.2 26.2,46.2 31.9,51.9 		"/>
		<polygon class="st1" points="100.4,43.1 100.4,37.2 133,37.1 126.9,43.1 		"/>
		<polygon class="st1" points="115,55.1 100.4,69.6 100.4,55.1 		"/>
		<polygon class="st1" points="100.4,51.9 100.4,46.2 123.8,46.2 118.1,51.9 		"/>
		<path class="st1" d="M95.1,30.6L74.8,10.3L54.9,30.1v53.8l18.7,18.8l5.6-5.5l5.5,5.5l10.4-10.4L89.6,87l5.4-5.4V30.6z M73.8,71.1
			v11L72.9,83l-3.7-3.6V26.2l11.6,11.6v37.5l-1.4,1.4L73.8,71.1z"/>
		<g>
			<polygon class="st0" points="81.2,88.9 82.3,88.3 82.3,87.1 81.2,87.7 			"/>
			<polygon class="st0" points="81.3,89 82.3,89.6 82.3,88.4 			"/>
			<g>
				<polygon class="st0" points="82.2,86.8 82.2,85.7 81.2,86.3 				"/>
				<polygon class="st0" points="81.1,86.3 80.1,87 81.1,87.6 82.2,87 				"/>
				<polygon class="st0" points="81,86.3 80.1,85.7 80.1,86.8 				"/>
			</g>
			<polygon class="st0" points="82.4,87.1 82.4,88.2 83.4,87.7 			"/>
			<polygon class="st0" points="81.1,88.9 81.1,87.7 80,87.1 80,87.1 80,88.3 80,88.3 80,88.3 			"/>
			<polygon class="st0" points="79.9,87.1 78.9,87.7 79.9,88.2 			"/>
			<polygon class="st0" points="80,88.4 80,89.6 81,89 			"/>
			<path class="st0" d="M83.5,84.5h-4.7c-0.6,0-1.2,0.5-1.2,1.2v4.7c0,0.6,0.5,1.2,1.2,1.2H82l-0.9-2.1l-0.6,1.3h-1.7
				c-0.2,0-0.4-0.2-0.4-0.4v-4.7c0-0.2,0.2-0.4,0.4-0.4h4.7c0.2,0,0.4,0.2,0.4,0.4v4.7c0,0.2-0.2,0.4-0.4,0.4h-1l0.3,0.8h0.7
				c0.6,0,1.2-0.5,1.2-1.2v-4.7C84.6,85,84.1,84.5,83.5,84.5z"/>
		</g>
	</g>
	<g>
		<g>
			<path d="M24.5,70.8C24.5,70.8,24.5,70.8,24.5,70.8c0-1.3,0-2.6,0-4c-2.2,0.5-4.3,0.9-6.5,1.5c1.3,1,2.6,2,3.9,3.1
				c-1.3,1.6-2.6,3.2-3.9,4.9c3.5-0.8,7-1.6,10.4-2.3l0,0C27.1,72.9,25.8,71.9,24.5,70.8C24.5,70.8,24.5,70.8,24.5,70.8z"/>
			<path d="M125,70.2c-33-6.9-67-6.9-100,0c0-2.6,0-5.3,0-7.9c33-6.9,67-6.9,100,0C125,64.9,125,67.6,125,70.2z"/>
			<path d="M28.4,70c-1.1,0.2-2.2,0.4-3.3,0.7c1.1,0.9,2.2,1.8,3.3,2.7C28.4,72.3,28.4,71.2,28.4,70z"/>
			<path d="M125.5,70.8C125.5,70.8,125.5,70.8,125.5,70.8c0-1.3,0-2.6,0-4c2.2,0.5,4.3,0.9,6.5,1.5c-1.3,1-2.6,2-3.9,3.1
				c1.3,1.6,2.6,3.2,3.9,4.9c-3.5-0.8-7-1.6-10.4-2.3c0,0,0,0,0,0C122.9,72.9,124.2,71.9,125.5,70.8
				C125.5,70.8,125.5,70.8,125.5,70.8z"/>
			<path d="M121.6,70c1.1,0.2,2.2,0.4,3.3,0.7c-1.1,0.9-2.2,1.8-3.3,2.7C121.6,72.3,121.6,71.2,121.6,70z"/>
		</g>
		<g>
			<path class="st0" d="M36.2,64c0,0.7-0.2,1.3-0.7,1.6c0.3,0.3,0.5,0.5,0.8,0.8c-0.4,0.1-0.7,0.1-1.1,0.2c-0.2-0.2-0.4-0.4-0.6-0.6
				c0,0,0,0,0,0c0,0,0,0,0,0c0,0,0,0,0,0c-0.5,0.1-0.9,0-1.2-0.2c-0.3-0.2-0.4-0.6-0.4-1.2c0-0.5,0.1-1,0.4-1.3
				c0.3-0.3,0.7-0.5,1.2-0.6c0.5-0.1,0.9,0,1.2,0.2C36.1,63,36.2,63.4,36.2,64z M34,64.3c0,0.6,0.2,0.9,0.7,0.8
				c0.2,0,0.4-0.1,0.5-0.3c0.1-0.2,0.2-0.4,0.2-0.7c0-0.3-0.1-0.6-0.2-0.7c-0.1-0.1-0.3-0.2-0.5-0.2C34.2,63.3,34,63.7,34,64.3z"/>
			<path class="st0" d="M40.2,61.7c0,0.7,0,1.3,0,2c0,0.4-0.1,0.8-0.4,1c-0.2,0.3-0.6,0.4-1,0.5c-0.4,0.1-0.8,0-1-0.2
				c-0.2-0.2-0.4-0.5-0.4-0.9c0-0.7,0-1.3,0-2c0.3,0,0.6-0.1,0.9-0.1c0,0.6,0,1.3,0,1.9c0,0.2,0,0.4,0.1,0.5
				c0.1,0.1,0.2,0.1,0.4,0.1c0.2,0,0.3-0.1,0.4-0.2c0.1-0.1,0.1-0.3,0.1-0.5c0-0.6,0-1.3,0-1.9C39.6,61.8,39.9,61.8,40.2,61.7z"/>
			<path class="st0" d="M43.6,64.5c-0.1-0.2-0.1-0.4-0.2-0.6c-0.4,0-0.7,0.1-1.1,0.1c-0.1,0.2-0.1,0.4-0.2,0.6c-0.3,0-0.6,0.1-1,0.1
				c0.4-1.1,0.7-2.3,1.1-3.4c0.4-0.1,0.8-0.1,1.2-0.2c0.4,1,0.7,2.1,1.1,3.1C44.2,64.5,43.9,64.5,43.6,64.5z M43.2,63.3
				c0-0.2-0.1-0.3-0.1-0.5c0-0.1-0.1-0.3-0.1-0.4c0-0.2-0.1-0.3-0.1-0.4c0,0.1,0,0.2-0.1,0.4c0,0.2-0.1,0.5-0.3,1.1
				C42.7,63.3,43,63.3,43.2,63.3z"/>
			<path class="st0" d="M46.4,63c0,0.4,0,0.8,0,1.2c-0.3,0-0.6,0.1-0.9,0.1c0-1.1,0-2.2,0-3.3c0.4,0,0.7-0.1,1.1-0.1
				c0.9-0.1,1.3,0.2,1.3,0.8c0,0.4-0.2,0.7-0.6,0.9c0.3,0.4,0.6,0.9,1,1.3c-0.3,0-0.7,0.1-1,0.1c-0.2-0.4-0.5-0.7-0.7-1.1
				C46.6,63,46.5,63,46.4,63z M46.4,62.3c0.1,0,0.1,0,0.2,0c0.3,0,0.5-0.2,0.5-0.5c0-0.2-0.2-0.3-0.5-0.3c-0.1,0-0.1,0-0.2,0
				C46.4,61.8,46.4,62.1,46.4,62.3z"/>
			<path class="st0" d="M52.1,63.6c-0.3,0-0.7,0.1-1,0.1c-0.2-0.4-0.4-0.8-0.6-1.2c-0.1,0.1-0.2,0.1-0.3,0.2c0,0.4,0,0.7,0,1.1
				c-0.3,0-0.6,0.1-0.9,0.1c0-1.1,0-2.2,0-3.3c0.3,0,0.6-0.1,0.9-0.1c0,0.5,0,0.9,0,1.4c0-0.1,0.1-0.2,0.3-0.4
				c0.2-0.4,0.5-0.7,0.7-1.1c0.3,0,0.6-0.1,1-0.1c-0.3,0.5-0.7,1-1,1.6C51.4,62.5,51.7,63,52.1,63.6z"/>
			<path class="st0" d="M55.9,60c0,0.7,0,1.3,0,2c0,0.4-0.1,0.8-0.4,1c-0.2,0.3-0.6,0.4-1.1,0.4c-0.4,0-0.8,0-1-0.3
				c-0.2-0.2-0.4-0.5-0.4-1c0-0.7,0-1.3,0-2c0.3,0,0.6-0.1,0.9-0.1c0,0.6,0,1.3,0,1.9c0,0.2,0,0.4,0.1,0.5c0.1,0.1,0.2,0.1,0.4,0.1
				c0.2,0,0.3-0.1,0.4-0.2c0.1-0.1,0.1-0.3,0.1-0.5c0-0.6,0-1.3,0-1.9C55.3,60,55.6,60,55.9,60z"/>
			<path class="st0" d="M59.4,62c0,0.2-0.1,0.4-0.2,0.6c-0.1,0.2-0.3,0.3-0.4,0.4c-0.2,0.1-0.4,0.2-0.7,0.2c-0.2,0-0.4,0-0.6,0
				c-0.1,0-0.3-0.1-0.5-0.1c0-0.3,0-0.5,0-0.8c0.2,0.1,0.3,0.1,0.5,0.2c0.2,0,0.4,0,0.5,0c0.1,0,0.2,0,0.3-0.1
				c0.1,0,0.1-0.1,0.1-0.2c0,0,0-0.1,0-0.1c0,0-0.1-0.1-0.1-0.1c-0.1,0-0.2-0.1-0.4-0.2c-0.2-0.1-0.4-0.2-0.5-0.2
				c-0.1-0.1-0.2-0.2-0.2-0.3c-0.1-0.1-0.1-0.3-0.1-0.4c0-0.3,0.1-0.5,0.3-0.7c0.2-0.2,0.5-0.3,0.9-0.3c0.3,0,0.7,0,1,0.2
				c-0.1,0.2-0.2,0.5-0.3,0.7c-0.3-0.1-0.6-0.2-0.8-0.2c-0.1,0-0.2,0-0.3,0.1c-0.1,0-0.1,0.1-0.1,0.2c0,0.1,0,0.1,0.1,0.2
				c0.1,0,0.2,0.1,0.5,0.2c0.3,0.1,0.5,0.2,0.6,0.4C59.3,61.6,59.4,61.8,59.4,62z"/>
			<path class="st0" d="M65.9,62.7c-0.4,0-0.7,0-1.1,0c-0.1-0.5-0.2-0.9-0.3-1.4c0-0.1,0-0.2-0.1-0.4c0-0.2-0.1-0.3-0.1-0.4
				c0,0.1,0,0.2-0.1,0.4c0,0.1-0.1,0.3-0.1,0.4c0,0.1-0.1,0.6-0.3,1.5c-0.4,0-0.7,0-1.1,0c-0.3-1.1-0.5-2.2-0.8-3.2
				c0.3,0,0.6,0,0.9,0c0.1,0.5,0.2,1.1,0.4,1.6c0.1,0.4,0.1,0.6,0.2,0.9c0-0.2,0.1-0.4,0.1-0.6c0.1-0.3,0.1-0.5,0.1-0.7
				c0.1-0.4,0.2-0.8,0.3-1.3c0.3,0,0.5,0,0.8,0c0.1,0.4,0.2,0.8,0.3,1.2c0,0.2,0.1,0.4,0.1,0.7c0,0.3,0.1,0.5,0.1,0.6
				c0-0.2,0.1-0.5,0.2-0.9c0.1-0.6,0.2-1.1,0.4-1.7c0.3,0,0.6,0,0.9,0C66.5,60.5,66.2,61.6,65.9,62.7z"/>
			<path class="st0" d="M70.9,60.9c0,0.6-0.1,1-0.4,1.3c-0.3,0.3-0.7,0.4-1.2,0.5c-0.5,0-0.9-0.1-1.2-0.4c-0.3-0.3-0.4-0.7-0.4-1.2
				c0-0.5,0.1-1,0.4-1.3c0.3-0.3,0.7-0.4,1.2-0.5c0.5,0,0.9,0.1,1.2,0.4C70.8,59.9,70.9,60.4,70.9,60.9z M68.6,61
				c0,0.6,0.2,0.9,0.7,0.9c0.2,0,0.4-0.1,0.5-0.2c0.1-0.2,0.2-0.4,0.2-0.7c0-0.3-0.1-0.6-0.2-0.7c-0.1-0.2-0.3-0.2-0.5-0.2
				C68.8,60,68.6,60.3,68.6,61z"/>
			<path class="st0" d="M73,61.3c0,0.4,0,0.8,0,1.2c-0.3,0-0.6,0-0.9,0c0-1.1,0-2.2,0-3.3c0.4,0,0.7,0,1.1,0c0.9,0,1.3,0.3,1.3,1
				c0,0.4-0.2,0.7-0.6,0.9c0.3,0.5,0.6,0.9,1,1.4c-0.3,0-0.7,0-1,0c-0.2-0.4-0.5-0.8-0.7-1.2C73.2,61.3,73.1,61.3,73,61.3z M73,60.7
				c0.1,0,0.1,0,0.2,0c0.3,0,0.5-0.1,0.5-0.4c0-0.2-0.2-0.3-0.5-0.3c-0.1,0-0.1,0-0.2,0C73,60.2,73,60.4,73,60.7z"/>
			<path class="st0" d="M75.9,62.5c0-1.1,0-2.2,0-3.3c0.3,0,0.6,0,0.9,0c0,0.9,0,1.7,0,2.6c0.4,0,0.8,0,1.3,0c0,0.2,0,0.5,0,0.7
				C77.3,62.5,76.6,62.5,75.9,62.5z"/>
			<path class="st0" d="M82,60.9c0,0.5-0.2,1-0.5,1.3c-0.3,0.3-0.7,0.4-1.3,0.4c-0.4,0-0.7,0-1.1,0c0-1.1,0-2.2,0-3.3
				c0.4,0,0.8,0,1.1,0c0.5,0,0.9,0.2,1.2,0.4C81.9,60,82,60.4,82,60.9z M81.1,60.9c0-0.3-0.1-0.5-0.2-0.7c-0.1-0.1-0.3-0.2-0.5-0.2
				c-0.1,0-0.2,0-0.3,0c0,0.6,0,1.2,0,1.8c0.1,0,0.1,0,0.2,0c0.3,0,0.5-0.1,0.6-0.2C81,61.5,81.1,61.2,81.1,60.9z"/>
			<path class="st0" d="M86.6,62.8c-0.3,0-0.6,0-0.9,0c0-0.9,0-1.7,0-2.6c-0.3,0-0.5,0-0.8,0c0-0.2,0-0.5,0-0.7
				c0.8,0,1.7,0.1,2.5,0.1c0,0.2,0,0.5,0,0.7c-0.3,0-0.5,0-0.8,0C86.6,61.1,86.6,61.9,86.6,62.8z"/>
			<path class="st0" d="M91.6,61.4c0,0.6-0.1,1-0.4,1.2c-0.3,0.3-0.7,0.4-1.2,0.4c-0.5,0-0.9-0.2-1.2-0.5c-0.3-0.3-0.4-0.7-0.4-1.3
				c0-0.5,0.1-1,0.4-1.2c0.3-0.3,0.7-0.4,1.2-0.4c0.5,0,0.9,0.2,1.2,0.5C91.4,60.5,91.6,60.9,91.6,61.4z M89.3,61.3
				c0,0.6,0.2,1,0.7,1c0.2,0,0.4-0.1,0.5-0.2c0.1-0.1,0.2-0.4,0.2-0.7c0-0.3-0.1-0.6-0.2-0.7c-0.1-0.2-0.3-0.3-0.5-0.3
				C89.5,60.3,89.3,60.7,89.3,61.3z"/>
			<path class="st0" d="M95.6,60.1c0,0.7,0,1.3,0,2c0,0.4-0.1,0.7-0.4,1c-0.2,0.2-0.6,0.3-1.1,0.3c-0.4,0-0.8-0.2-1-0.4
				c-0.2-0.2-0.4-0.6-0.4-1c0-0.7,0-1.3,0-2c0.3,0,0.6,0,0.9,0.1c0,0.6,0,1.3,0,1.9c0,0.2,0,0.4,0.1,0.5c0.1,0.1,0.2,0.2,0.4,0.2
				c0.2,0,0.3,0,0.4-0.1c0.1-0.1,0.1-0.3,0.1-0.5c0-0.6,0-1.3,0-1.9C95,60.1,95.3,60.1,95.6,60.1z"/>
			<path class="st0" d="M97.8,62.4c0,0.4,0,0.8,0,1.2c-0.3,0-0.6-0.1-0.9-0.1c0-1.1,0-2.2,0-3.3c0.4,0,0.7,0.1,1.1,0.1
				c0.9,0.1,1.3,0.5,1.3,1.1c0,0.4-0.2,0.7-0.6,0.8c0.3,0.5,0.6,1,1,1.5c-0.3,0-0.7-0.1-1-0.1c-0.2-0.4-0.5-0.8-0.7-1.3
				C98,62.4,97.9,62.4,97.8,62.4z M97.8,61.7c0.1,0,0.1,0,0.2,0c0.3,0,0.5-0.1,0.5-0.4c0-0.2-0.2-0.4-0.5-0.4c-0.1,0-0.1,0-0.2,0
				C97.8,61.2,97.8,61.5,97.8,61.7z"/>
			<path class="st0" d="M104.7,64.3c-0.8-0.1-1.6-0.2-2.4-0.3c0-0.2,0-0.4,0-0.6c0.3-0.2,0.5-0.5,0.8-0.7c0.2-0.2,0.4-0.4,0.4-0.4
				c0.1-0.1,0.1-0.1,0.1-0.2c0-0.1,0-0.1,0-0.2c0-0.1,0-0.2-0.1-0.2c-0.1-0.1-0.1-0.1-0.2-0.1c-0.1,0-0.2,0-0.3,0.1
				c-0.1,0-0.2,0.1-0.4,0.2c-0.2-0.2-0.3-0.4-0.5-0.6c0.2-0.1,0.3-0.2,0.4-0.3c0.1-0.1,0.2-0.1,0.4-0.1c0.1,0,0.3,0,0.5,0
				c0.2,0,0.4,0.1,0.6,0.2c0.2,0.1,0.3,0.2,0.4,0.4c0.1,0.1,0.1,0.3,0.1,0.5c0,0.1,0,0.2,0,0.4c0,0.1-0.1,0.2-0.1,0.3
				c-0.1,0.1-0.2,0.2-0.3,0.3c-0.1,0.1-0.3,0.3-0.7,0.6c0,0,0,0,0,0c0.4,0,0.8,0.1,1.2,0.1C104.7,63.8,104.7,64.1,104.7,64.3z"/>
			<path class="st0" d="M108,63.1c0,0.6-0.1,1-0.3,1.2c-0.2,0.2-0.5,0.3-0.9,0.3c-0.4-0.1-0.7-0.2-0.9-0.5c-0.2-0.3-0.3-0.7-0.3-1.3
				c0-0.6,0.1-1,0.3-1.2c0.2-0.2,0.5-0.3,0.9-0.3c0.4,0.1,0.7,0.2,0.9,0.5C107.9,62.1,108,62.6,108,63.1z M106.6,62.9
				c0,0.4,0,0.6,0.1,0.8c0,0.1,0.1,0.2,0.2,0.2c0.1,0,0.2,0,0.2-0.2c0-0.1,0.1-0.4,0.1-0.7c0-0.4,0-0.6-0.1-0.8
				c0-0.2-0.1-0.2-0.2-0.2c-0.1,0-0.2,0-0.2,0.2C106.6,62.3,106.6,62.6,106.6,62.9z"/>
			<path class="st0" d="M111.3,65.2c-0.8-0.1-1.6-0.2-2.4-0.3c0-0.2,0-0.4,0-0.6c0.3-0.2,0.5-0.5,0.8-0.7c0.2-0.2,0.4-0.3,0.4-0.4
				c0.1-0.1,0.1-0.1,0.1-0.2c0-0.1,0-0.1,0-0.2c0-0.1,0-0.2-0.1-0.2c-0.1-0.1-0.1-0.1-0.2-0.1c-0.1,0-0.2,0-0.3,0
				c-0.1,0-0.2,0.1-0.4,0.2c-0.2-0.2-0.3-0.4-0.5-0.6c0.2-0.1,0.3-0.2,0.4-0.3c0.1,0,0.2-0.1,0.4-0.1c0.1,0,0.3,0,0.5,0
				c0.2,0,0.4,0.1,0.6,0.2c0.2,0.1,0.3,0.2,0.4,0.4c0.1,0.2,0.1,0.3,0.1,0.5c0,0.1,0,0.2,0,0.3c0,0.1-0.1,0.2-0.1,0.3
				c-0.1,0.1-0.2,0.2-0.3,0.3c-0.1,0.1-0.3,0.3-0.7,0.6c0,0,0,0,0,0c0.4,0.1,0.8,0.1,1.2,0.2C111.3,64.7,111.3,65,111.3,65.2z"/>
			<path class="st0" d="M114.6,63.2c0,0.2-0.1,0.4-0.2,0.5c-0.1,0.1-0.3,0.2-0.5,0.2c0,0,0,0,0,0c0.5,0.2,0.8,0.5,0.8,0.9
				c0,0.3-0.1,0.5-0.4,0.7c-0.2,0.1-0.6,0.2-1,0.1c-0.2,0-0.3-0.1-0.5-0.1c-0.1,0-0.3-0.1-0.5-0.2c0-0.2,0-0.5,0-0.7
				c0.1,0.1,0.3,0.2,0.4,0.2c0.1,0.1,0.3,0.1,0.4,0.1c0.2,0,0.3,0,0.4,0c0.1,0,0.1-0.1,0.1-0.2c0-0.1,0-0.2-0.1-0.2
				c0-0.1-0.1-0.1-0.2-0.1c-0.1,0-0.2-0.1-0.4-0.1c-0.1,0-0.1,0-0.2,0c0-0.2,0-0.4,0-0.7c0.1,0,0.1,0,0.2,0c0.4,0.1,0.7,0,0.7-0.2
				c0-0.1,0-0.2-0.1-0.2c-0.1-0.1-0.2-0.1-0.3-0.1c-0.2,0-0.4,0-0.6,0.1c-0.1-0.2-0.2-0.4-0.4-0.6c0.2-0.1,0.3-0.2,0.5-0.2
				c0.2,0,0.4,0,0.6,0c0.3,0.1,0.6,0.2,0.8,0.3C114.5,62.7,114.6,62.9,114.6,63.2z"/>
		</g>
	</g>
</g>
</svg>
