<?xml version="1.0" encoding="UTF-8" standalone="no"?>
<svg
   xmlns:dc="http://purl.org/dc/elements/1.1/"
   xmlns:cc="http://creativecommons.org/ns#"
   xmlns:rdf="http://www.w3.org/1999/02/22-rdf-syntax-ns#"
   xmlns:svg="http://www.w3.org/2000/svg"
   xmlns="http://www.w3.org/2000/svg"
   xmlns:xlink="http://www.w3.org/1999/xlink"
   xmlns:sodipodi="http://sodipodi.sourceforge.net/DTD/sodipodi-0.dtd"
   xmlns:inkscape="http://www.inkscape.org/namespaces/inkscape"
   width="1034.481"
   height="582"
   viewBox="0 0 1034.4809 582"
   version="1.1"
   id="svg4023"
   sodipodi:docname="fishmarket.svg"
   inkscape:version="0.92.3 (2405546, 2018-03-11)">
  <metadata
     id="metadata4027">
    <rdf:RDF>
      <cc:Work
         rdf:about="">
        <dc:format>image/svg+xml</dc:format>
        <dc:type
           rdf:resource="http://purl.org/dc/dcmitype/StillImage" />
        <dc:title />
      </cc:Work>
    </rdf:RDF>
  </metadata>
  <sodipodi:namedview
     pagecolor="#ffffff"
     bordercolor="#666666"
     borderopacity="1"
     objecttolerance="10"
     gridtolerance="10"
     guidetolerance="10"
     inkscape:pageopacity="0"
     inkscape:pageshadow="2"
     inkscape:window-width="1920"
     inkscape:window-height="1026"
     id="namedview4025"
     showgrid="false"
     inkscape:zoom="1.0270692"
     inkscape:cx="641.62201"
     inkscape:cy="380.25865"
     inkscape:window-x="0"
     inkscape:window-y="27"
     inkscape:window-maximized="1"
     inkscape:current-layer="Groupe_37" />
  <defs
     id="defs3946">
    <linearGradient
       id="linear-gradient"
       x1="0.949"
       y1="0.066"
       x2="0.5"
       y2="1"
       gradientUnits="objectBoundingBox">
      <stop
         offset="0"
         stop-color="#1dc9f2"
         id="stop3890" />
      <stop
         offset="0.553"
         stop-color="#60d9e3"
         id="stop3892" />
      <stop
         offset="1"
         stop-color="#00c6be"
         id="stop3894" />
    </linearGradient>
    <filter
       id="Tracé_32"
       x="230.388"
       y="0"
       width="889.26801"
       height="823.703"
       filterUnits="userSpaceOnUse">
      <feOffset
         dy="20"
         input="SourceAlpha"
         id="feOffset3897" />
      <feGaussianBlur
         stdDeviation="10"
         result="blur"
         id="feGaussianBlur3899" />
      <feFlood
         flood-opacity="0.161"
         id="feFlood3901" />
      <feComposite
         operator="in"
         in2="blur"
         id="feComposite3903"
         result="result1" />
      <feComposite
         in="SourceGraphic"
         in2="result1"
         id="feComposite3905" />
    </filter>
    <filter
       id="Tracé_30"
       x="608.20801"
       y="271.79099"
       width="675.03601"
       height="513.04498"
       filterUnits="userSpaceOnUse">
      <feOffset
         dx="10"
         dy="20"
         input="SourceAlpha"
         id="feOffset3908" />
      <feGaussianBlur
         stdDeviation="10"
         result="blur-2"
         id="feGaussianBlur3910" />
      <feFlood
         flood-opacity="0.161"
         id="feFlood3912" />
      <feComposite
         operator="in"
         in2="blur-2"
         id="feComposite3914"
         result="result1" />
      <feComposite
         in="SourceGraphic"
         in2="result1"
         id="feComposite3916" />
    </filter>
    <filter
       id="Tracé_29"
       x="107.131"
       y="201.231"
       width="813.961"
       height="428.117"
       filterUnits="userSpaceOnUse">
      <feOffset
         dy="5"
         input="SourceAlpha"
         id="feOffset3919" />
      <feGaussianBlur
         stdDeviation="10"
         result="blur-3"
         id="feGaussianBlur3921" />
      <feFlood
         flood-opacity="0.161"
         id="feFlood3923" />
      <feComposite
         operator="in"
         in2="blur-3"
         id="feComposite3925"
         result="result1" />
      <feComposite
         in="SourceGraphic"
         in2="result1"
         id="feComposite3927" />
    </filter>
    <linearGradient
       id="linear-gradient-2"
       x1="0.5"
       x2="0.5"
       y2="1"
       gradientUnits="objectBoundingBox">
      <stop
         offset="0"
         stop-color="#fdba1d"
         id="stop3930" />
      <stop
         offset="1"
         stop-color="#fdb41d"
         id="stop3932" />
    </linearGradient>
    <filter
       id="Rectangle_6"
       x="109.36"
       y="252.55901"
       width="275.056"
       height="68.577003"
       filterUnits="userSpaceOnUse">
      <feOffset
         dy="3"
         input="SourceAlpha"
         id="feOffset3935" />
      <feGaussianBlur
         stdDeviation="3"
         result="blur-4"
         id="feGaussianBlur3937" />
      <feFlood
         flood-opacity="0.161"
         id="feFlood3939" />
      <feComposite
         operator="in"
         in2="blur-4"
         id="feComposite3941"
         result="result1" />
      <feComposite
         in="SourceGraphic"
         in2="result1"
         id="feComposite3943" />
    </filter>
    <linearGradient
       inkscape:collect="always"
       xlink:href="#linear-gradient"
       id="linearGradient4029"
       gradientUnits="userSpaceOnUse"
       x1="702.18396"
       y1="48.834713"
       x2="369.95993"
       y2="739.91986"
       gradientTransform="scale(1.3980986,0.71525713)" />
    <linearGradient
       inkscape:collect="always"
       xlink:href="#linear-gradient"
       id="linearGradient4031"
       gradientUnits="userSpaceOnUse"
       x1="702.18396"
       y1="48.834713"
       x2="369.95993"
       y2="739.91986"
       gradientTransform="scale(1.3980986,0.71525713)" />
  </defs>
  <g
     id="Groupe_37"
     data-name="Groupe 37"
     transform="translate(26,187.43014)">
    <g
       id="Rectangle_2"
       data-name="Rectangle 2"
       transform="matrix(1,0,0,1.0997047,-26,-187.43014)"
       style="fill:url(#linearGradient4031);stroke:#d3d3d3;stroke-width:1">
      <rect
         width="1034.481"
         height="529.23297"
         id="rect3948"
         style="fill:url(#linearGradient4029);stroke:none"
         x="0"
         y="0" />
      <rect
         x="0.5"
         y="0.5"
         width="1033.481"
         height="528.23297"
         id="rect3950"
         style="fill:none" />
    </g>
    <g
       transform="matrix(1.0375713,0,0,1.0764939,-62.071539,-339.88321)"
       id="g3954">
      <path
         id="Tracé_32-2"
         data-name="Tracé 32"
         d="m 526.059,-611.47 c 0,0 129.836,-77.982 244.7,45.32 16.98,18.227 32.821,43 48.8,71.313 122.923,217.781 -715.759,732.401 205.961,471.757 2.057,-1.077 279.291,18.529 281.654,17.08 108.342,-66.421 0,-570.718 0,-570.718 0,0 -80.844,-2.867 -107.792,-37.386 -26.948,-34.519 0,-100.691 0,-100.691 z"
         transform="translate(-265.67,724.79)"
         inkscape:connector-curvature="0"
         style="opacity:0.09899998;fill:#ffffff" />
    </g>
    <g
       transform="translate(-26,-280.7)"
       id="g3957">
      <path
         id="Tracé_30-2"
         data-name="Tracé 30"
         d="m 1249.827,564.469 c 0,0 -32.735,60.077 -59.229,72.779 -26.494,12.702 0,66.354 0,66.354 l 603.26,-8.746 c 0,0 -241.175,-161.969 -267.724,-271.309 -26.549,-109.34 54.51,-118.318 21.368,-157.306 -33.142,-38.988 -105.376,7 -105.376,7 z"
         transform="translate(-550.61,31.23)"
         inkscape:connector-curvature="0"
         style="opacity:0.15100002;fill:#ffffff" />
    </g>
    <path
       id="Tracé_24"
       data-name="Tracé 24"
       d="m 368.493,176.479 a 7.768,7.768 0 0 0 -0.385,-1.4 c -0.244,-0.66 -0.511,-1.266 -0.786,-1.847 -0.527,-1.155 -1.077,-2.256 -1.572,-3.286 -1.045,-2.083 -2.209,-4.229 -3.443,-6.383 a 143.412,143.412 0 0 0 -7.861,-12.16 133.277,133.277 0 0 0 -9.095,-11.3 106.9,106.9 0 0 0 -10.462,-10.124 84.784,84.784 0 0 0 -11.979,-8.466 70.164,70.164 0 0 0 -13.457,-6.084 64.7,64.7 0 0 0 -7.208,-1.918 l -1.737,-0.338 -1.839,-0.291 c -0.424,-0.071 -0.849,-0.118 -1.273,-0.165 l -0.574,-0.071 c -0.66,-0.086 -1.3,-0.142 -1.894,-0.189 a 65.117,65.117 0 0 0 -14.833,0.487 c -2.358,0.354 -4.811,0.841 -7.247,1.446 -1.3,0.338 -2.641,0.715 -3.985,1.14 -0.5,-1.572 -1.085,-3.231 -1.776,-4.991 -1.006,-2.531 -2.177,-5.109 -3.5,-7.664 -1.323,-2.555 -2.7,-4.952 -4.19,-7.279 -0.692,-1.093 -1.462,-2.24 -2.358,-3.522 l -1.226,-1.7 -1.258,-1.659 c -1.729,-2.209 -3.577,-4.355 -5.5,-6.375 a 80.811,80.811 0 0 0 -6.123,-5.785 c -2.13,-1.816 -4.378,-3.545 -6.7,-5.157 a 74.086,74.086 0 0 0 -7.216,-4.418 83.533,83.533 0 0 0 -7.578,-3.6 c -0.519,-0.228 -1.045,-0.432 -1.572,-0.637 l -0.432,-0.165 -0.637,-0.244 c -0.448,-0.173 -0.9,-0.346 -1.36,-0.5 l -1.03,-0.354 c -0.959,-0.33 -1.949,-0.668 -2.94,-0.943 l -0.668,-0.2 -1.376,-0.4 -2.971,-0.786 -3.144,-0.684 c -1.446,-0.275 -2.783,-0.511 -4.15,-0.739 l -2,-0.283 c -0.637,-0.094 -1.4,-0.2 -2.146,-0.267 l -1.014,-0.1 c -1.03,-0.11 -2.091,-0.22 -3.144,-0.275 l -2.036,-0.134 c -0.472,0 -0.935,-0.047 -1.407,-0.055 h -0.723 L 186.6,56.55 h -4.127 l -4.166,0.157 -4.15,0.291 -4.4,0.448 h -0.511 a 4.951,4.951 0 0 0 -1.218,0.409 5.023,5.023 0 0 0 -2.8,3.93 4.95,4.95 0 0 0 0,0.605 v 0.157 a 4.041,4.041 0 0 0 0.039,0.464 4.866,4.866 0 0 0 0.33,1.242 c 0.731,1.8 2.987,2.775 3.435,2.948 v 0 l 0.283,0.094 c 0.731,0.244 1.493,0.55 2.429,0.928 0.936,0.378 1.894,0.786 2.822,1.2 1.824,0.786 3.71,1.7 5.62,2.641 1.7,0.841 3.514,1.776 5.5,2.861 1.986,1.085 3.765,2.1 5.455,3.1 0.582,0.33 1.156,0.684 1.721,1.038 l 0.928,0.574 c 0.873,0.527 1.745,1.093 2.6,1.651 l 0.1,0.063 c 0.857,0.55 1.659,1.077 2.46,1.635 l 0.943,0.645 c 0.542,0.369 1.077,0.731 1.572,1.124 l 2.515,1.824 0.487,0.369 c 0.66,0.5 1.328,1 2,1.533 1.431,1.108 2.94,2.358 4.763,3.93 1.423,1.234 2.908,2.6 4.528,4.182 1.36,1.321 2.743,2.775 4.237,4.433 1.36,1.509 2.665,3.089 3.891,4.716 1.226,1.627 2.421,3.309 3.482,4.976 a 57.278,57.278 0 0 1 5.361,10.745 q 0.393,1.061 0.739,2.138 -1.572,-1.478 -3.27,-2.916 c -3.93,-3.349 -7.64,-6.249 -11.359,-8.851 a 132.171,132.171 0 0 0 -12.27,-7.656 c -1.9,-1.022 -4.15,-2.209 -6.438,-3.262 -2.288,-1.053 -4.488,-2.02 -6.658,-2.853 -0.582,-0.228 -1.163,-0.456 -1.737,-0.66 l -0.385,-0.142 c -0.448,-0.165 -0.9,-0.33 -1.328,-0.472 l -5.149,-1.619 -3.514,-0.912 c -0.424,-0.118 -0.857,-0.2 -1.289,-0.291 l -0.574,-0.118 a 82.041,82.041 0 0 0 -14.511,-1.769 74.739,74.739 0 0 0 -14.66,0.9 77.992,77.992 0 0 0 -14.149,3.671 c -0.92,0.307 -1.792,0.66 -2.633,1.006 l -0.833,0.338 -0.542,0.22 c -0.4,0.157 -0.786,0.322 -1.187,0.5 l -3.223,1.486 -1.714,0.9 -1.077,0.566 c -0.707,0.369 -1.407,0.731 -2.154,1.163 l -1.321,0.786 c -1.572,0.959 -3.27,1.942 -4.811,3.034 l -2.2,1.486 -4.37,3.27 -4.19,3.459 -0.786,0.676 -1.211,1.1 c -1.352,1.218 -2.751,2.484 -4.048,3.812 l -0.888,0.88 c -0.55,0.542 -1.108,1.085 -1.69,1.682 l -3.592,3.852 a 10.769,10.769 0 0 0 -0.786,0.935 l -2.7,3.144 c -0.59,0.652 -1.116,1.321 -1.635,1.965 l -0.7,0.872 -2.3,2.735 -1.077,1.423 c -1.085,1.438 -2.177,2.877 -3.262,4.378 l -2.044,2.908 -0.629,0.888 c -0.479,0.668 -0.967,1.368 -1.415,2.067 l -2.259,3.449 c -0.542,0.786 -1.108,1.682 -1.627,2.539 l -2.028,3.286 c -0.566,0.912 -1.155,1.863 -1.69,2.806 l -2.146,3.687 c -0.472,0.786 -0.967,1.651 -1.415,2.492 l -2.94,5.353 a 10.494,10.494 0 0 0 -0.566,1.1 4.7,4.7 0 0 0 -0.189,0.5 1.411,1.411 0 0 1 -0.086,0.291 l -0.047,0.2 v 0 c 0,0.141 -0.063,0.33 -0.079,0.5 a 4.5,4.5 0 0 0 0,0.5 v 0.149 a 5.149,5.149 0 0 0 0.511,2.122 5.094,5.094 0 0 0 7.626,1.844 5.157,5.157 0 0 0 1.438,-1.682 L 72,176.673 a 44.069,44.069 0 0 1 3.042,-3.93 q 1.737,-2.028 3.592,-3.883 c 0.417,-0.432 0.849,-0.849 1.281,-1.258 l 1.061,-1.006 c 0.48,-0.448 0.959,-0.9 1.446,-1.321 l 0.527,-0.456 c 0.487,-0.424 0.967,-0.849 1.494,-1.273 l 2.059,-1.666 2.138,-1.627 c 0.637,-0.487 1.3,-0.943 2,-1.431 l 0.1,-0.071 0.432,-0.3 c 0.2,-0.141 0.409,-0.291 0.645,-0.432 L 93,157.236 c 0.582,-0.393 1.187,-0.786 1.824,-1.14 l 0.417,-0.252 c 0.7,-0.432 1.431,-0.841 2.256,-1.3 l 1.148,-0.645 1.195,-0.613 c 1.493,-0.786 3.042,-1.5 4.716,-2.248 L 107.027,150 c 0.519,-0.2 1.045,-0.4 1.572,-0.6 l 0.959,-0.362 c 0.66,-0.259 1.344,-0.48 2.075,-0.715 l 0.33,-0.1 0.833,-0.267 c 0.566,-0.189 1.108,-0.362 1.682,-0.511 l 2.563,-0.707 c 0.55,-0.134 1.1,-0.259 1.659,-0.385 l 2.209,-0.5 2.24,-0.393 1.643,-0.283 3.144,-0.4 0.731,-0.086 4.009,-0.307 2.72,-0.071 c 1.187,-0.055 2.358,0 3.663,0 l 1.651,0.039 c 0.5,0 1.046,0.047 1.611,0.094 l 0.9,0.071 2.429,0.189 a 11.648,11.648 0 0 0 1.525,0.275 l 1.572,0.173 q 1.415,0.157 2.791,0.354 c 0.959,0.141 1.863,0.275 2.814,0.456 0.825,0.141 1.651,0.314 2.468,0.48 l 0.275,0.055 c 0.715,0.149 1.431,0.322 2.146,0.487 l 0.6,0.141 1.006,0.259 c 0.574,0.149 1.155,0.3 1.706,0.456 l 0.99,0.283 c 0.582,0.165 1.163,0.33 1.737,0.511 l 0.975,0.307 1.737,0.558 2.68,0.935 2.751,1.038 c 0.558,0.2 1.108,0.432 1.659,0.66 l 0.951,0.393 c 0.833,0.338 1.729,0.707 2.6,1.108 l 2.6,1.156 0.236,0.11 a 67.538,67.538 0 0 0 -8.686,3.49 82.529,82.529 0 0 0 -7.813,4.347 l -0.071,0.047 -0.99,0.652 c -0.888,0.582 -1.8,1.187 -2.68,1.839 l -0.59,0.424 c -0.417,0.291 -0.825,0.59 -1.218,0.9 l -1.674,1.3 c -0.5,0.369 -0.943,0.786 -1.383,1.124 l -0.983,0.833 c -0.377,0.314 -0.786,0.629 -1.171,1.006 l -3.93,3.663 -3.86,4 -0.055,0.055 c -0.33,0.362 -0.645,0.731 -0.959,1.1 l -0.472,0.542 a 119.3,119.3 0 0 0 -10.651,14.149 l -2.358,3.687 c -0.5,0.786 -0.967,1.643 -1.438,2.468 l -0.786,1.321 -1.069,1.863 c -0.252,0.44 -0.487,0.888 -0.723,1.344 l -0.346,0.66 -2,3.852 c -0.432,0.849 -0.841,1.714 -1.242,2.578 l -0.66,1.4 -0.566,1.195 c -0.432,0.912 -0.88,1.847 -1.273,2.806 l -0.849,2.075 c -0.849,1.965 -1.721,3.993 -2.476,6.029 l -1.572,4.017 -2.177,6.178 -2.02,6.233 c -1.572,4.984 -3.058,10.305 -4.677,16.7 -0.275,1.014 -0.5,2.028 -0.731,3 -0.094,0.425 -0.2,0.841 -0.3,1.281 l -1.195,5.3 a 5.157,5.157 0 0 0 0.118,2.712 5.212,5.212 0 0 0 3.93,3.529 5.116,5.116 0 0 0 1.4,0.079 1.6,1.6 0 0 0 0.55,-0.071 h 0.173 a 5.03,5.03 0 0 0 0.613,-0.173 5.369,5.369 0 0 0 2.185,-1.47 13.364,13.364 0 0 0 1.234,-1.659 l 0.307,-0.464 c 3.011,-4.543 6.241,-9.378 9.637,-14.149 3.522,-4.929 6.886,-9.362 10.274,-13.559 3.828,-4.716 7.468,-8.922 11.123,-12.789 a 150.19,150.19 0 0 1 12.184,-11.6 85.233,85.233 0 0 1 13.544,-9.511 50.308,50.308 0 0 1 7.365,-3.364 c 1.273,-0.472 2.61,-0.849 3.757,-1.148 a 32.93,32.93 0 0 1 3.8,-0.692 h 0.118 c 0.362,-0.055 0.786,-0.079 1.195,-0.11 l 0.652,-0.047 h 1.942 a 23.625,23.625 0 0 1 3.789,0.377 18.678,18.678 0 0 1 1.871,0.409 l -1.155,1.3 c -3.844,4.378 -9.661,11 -16.586,19.589 a 301.057,301.057 0 0 0 -23.5,32.928 243.324,243.324 0 0 0 -17.388,34.359 c -1.659,3.993 -35.372,85.727 -29.4,180.062 0.369,5.77 1.438,36.89 14.621,95.962 1.045,4.716 2.979,9.433 4.205,14.33 h 36.339 v -0.071 a 8.892,8.892 0 0 0 -0.236,-1.022 c -0.086,-0.307 -0.126,-0.432 -0.173,-0.566 l -4.976,-15.194 c -1.855,-5.73 -3.757,-11.791 -5.66,-17.977 -4.032,-13.174 -36.693,-140.8 -4.1,-243.677 1.368,-4.04 2.932,-8.238 4.787,-12.828 1.439,-3.569 3.144,-7.373 5.274,-11.94 1.855,-3.852 3.765,-7.57 5.7,-11.091 0.283,-0.542 0.6,-1.093 0.912,-1.635 l 0.535,-0.951 0.3,-0.519 c 0.385,-0.684 0.786,-1.368 1.179,-2.044 l 2.987,-4.968 a 329.9,329.9 0 0 1 22.937,-32.228 c 6.108,-7.672 11.256,-13.732 15.014,-18.158 l 1.344,-1.572 0.747,-0.9 a 5.5,5.5 0 0 0 1.108,-3.144 4.221,4.221 0 0 0 -1.383,-3.011 14.346,14.346 0 0 0 -3.2,-2.256 v 0 c -0.165,-0.087 -1.572,-0.833 -2.358,-1.148 a 34.523,34.523 0 0 0 -8.041,-2.429 35.71,35.71 0 0 0 -8.4,-0.424 42.444,42.444 0 0 0 -8.246,1.4 l -1.918,0.566 c -0.424,0.134 -0.849,0.283 -1.266,0.432 l -0.59,0.2 c -0.472,0.157 -0.9,0.322 -1.336,0.5 l -0.6,0.236 c -0.417,0.165 -0.841,0.346 -1.266,0.527 l -0.652,0.283 a 67.6,67.6 0 0 0 -7.145,3.714 99.467,99.467 0 0 0 -12.8,9.181 c -2.067,1.737 -4.048,3.49 -5.872,5.219 -1.824,1.729 -3.726,3.592 -5.565,5.5 -1.714,1.769 -3.451,3.632 -5.314,5.7 -0.558,0.621 -1.1,1.242 -1.651,1.871 l -3.458,4.035 -2.508,2.979 -2.413,3.018 c -1.14,1.454 -2.154,2.759 -3.081,3.977 l 0.951,-2.963 2.02,-5.746 c 0.212,-0.6 0.44,-1.187 0.668,-1.776 l 0.385,-1.014 0.393,-1.03 c 0.574,-1.5 1.171,-3.066 1.824,-4.559 l 0.621,-1.478 c 0.582,-1.4 1.14,-2.72 1.769,-4.04 l 0.684,-1.486 c 0.621,-1.368 1.21,-2.657 1.887,-3.93 l 0.613,-1.218 c 0.715,-1.423 1.383,-2.767 2.154,-4.119 l 1.478,-2.688 c 0.275,-0.519 0.6,-1.038 0.928,-1.572 l 0.566,-0.935 1.572,-2.57 1.627,-2.476 0.613,-0.928 c 0.338,-0.519 0.676,-1.03 1.03,-1.525 l 2.688,-3.71 c 0.165,-0.228 0.338,-0.44 0.511,-0.66 l 0.346,-0.44 1.934,-2.429 c 0.369,-0.487 0.786,-0.967 1.242,-1.47 l 0.613,-0.7 1.973,-2.24 a 95.742,95.742 0 0 1 8.572,-8.114 74.11,74.11 0 0 1 9.582,-6.76 62.046,62.046 0 0 1 10.557,-4.952 c 1.666,-0.605 3.49,-1.155 5.5,-1.674 1.887,-0.456 3.8,-0.786 5.691,-1.069 l 1.572,-0.2 a 11.521,11.521 0 0 0 1.918,-0.385 5.094,5.094 0 0 0 2.885,-2.075 4.983,4.983 0 0 0 0.731,-1.8 3.552,3.552 0 0 0 0.071,-0.417 v -0.377 a 5.268,5.268 0 0 0 -0.055,-1.006 5.078,5.078 0 0 0 -1.918,-3.231 l -0.063,-0.047 a 3.06,3.06 0 0 0 -0.354,-0.236 l -3.93,-2.177 C 133.442,115.235 93.165,145.411 93.165,145.411 l -1.116,0.637 -0.7,0.4 c -0.369,0.212 -0.739,0.417 -1.1,0.637 C 91.77,145 93.295,143 94.82,141.09 c 2.413,-3.058 5.07,-6.139 7.861,-9.158 2.791,-3.019 5.722,-5.872 8.6,-8.427 a 93.933,93.933 0 0 1 19.557,-13.6 70.155,70.155 0 0 1 22.348,-7.161 l 1.108,-0.134 c 0.629,-0.079 1.25,-0.149 1.847,-0.2 l 2.256,-0.173 h 0.385 l 3.427,-0.086 h 0.928 l 3.388,0.118 0.857,0.079 0.535,0.047 1.124,0.1 c 0.621,0.055 1.234,0.11 1.808,0.189 l 3.081,0.464 c 0.424,0.055 0.88,0.149 1.321,0.244 l 1.486,0.307 a 80.191,80.191 0 0 1 11.421,3.278 102.242,102.242 0 0 1 10.958,4.779 122.345,122.345 0 0 1 20.147,13.08 c 3.254,2.586 6.288,5.243 9.118,7.908 1.368,1.289 2.759,2.673 4.26,4.229 1.289,1.352 2.641,2.8 3.8,4.245 a 4.976,4.976 0 0 0 2.405,1.981 4.854,4.854 0 0 0 0.872,0.252 4.709,4.709 0 0 0 0.5,0.071 h 0.307 a 4.876,4.876 0 0 0 0.935,-0.063 4.788,4.788 0 0 0 0.786,-0.2 4.991,4.991 0 0 0 3.294,-3.726 6.047,6.047 0 0 0 0.1,-0.668 4.377,4.377 0 0 0 0,-0.786 l -0.086,-3.144 a 15.719,15.719 0 0 0 -0.11,-1.635 l -0.275,-2.649 -0.715,-4.237 c -0.079,-0.4 -0.181,-0.786 -0.283,-1.195 -0.047,-0.165 -0.086,-0.338 -0.134,-0.535 l -0.621,-2.445 c -0.055,-0.2 -0.126,-0.409 -0.2,-0.613 l -1.022,-3.4 -1.572,-3.93 -1.847,-3.8 -1.706,-3.011 c -0.283,-0.5 -0.574,-1.014 -0.9,-1.493 l -1.792,-2.759 c -0.424,-0.637 -0.865,-1.234 -1.3,-1.808 l -0.676,-0.92 -0.967,-1.313 -1.155,-1.4 -0.715,-0.873 c -0.456,-0.566 -0.92,-1.124 -1.438,-1.721 l -1.108,-1.218 c -1.093,-1.211 -2.225,-2.46 -3.427,-3.616 l -0.786,-0.786 c -0.5,-0.511 -1.03,-1.038 -1.572,-1.572 l -2.358,-2.154 c -0.723,-0.684 -1.47,-1.3 -2.193,-1.91 l -2.956,-2.382 -2.665,-2.059 c -0.857,-0.66 -1.745,-1.352 -2.625,-1.973 -1.572,-1.14 -3.278,-2.358 -5.432,-3.773 -3.624,-2.358 -7.413,-4.716 -11.272,-6.831 l -0.228,-0.126 4.315,0.385 3.349,0.448 c 2.13,0.346 4.386,0.731 6.6,1.281 l 0.637,0.141 c 0.33,0.071 0.66,0.149 0.959,0.228 l 3.317,0.928 c 0.322,0.094 0.637,0.2 0.951,0.307 l 0.582,0.2 0.912,0.307 c 0.786,0.259 1.509,0.5 2.256,0.786 l 1.635,0.645 c 0.464,0.173 0.959,0.369 1.438,0.6 l 1.148,0.519 c 0.652,0.291 1.3,0.582 1.9,0.88 l 3.031,1.547 2.9,1.7 c 0.6,0.377 1.187,0.786 1.784,1.155 l 1.022,0.668 c 2.146,1.494 3.828,2.775 5.337,4.048 l 2.539,2.185 c 0.259,0.236 0.511,0.48 0.786,0.715 l 1.643,1.572 c 1.47,1.462 2.948,3.081 4.512,4.952 1.462,1.753 2.83,3.545 4.072,5.337 a 80.955,80.955 0 0 1 6.736,11.634 c 0.975,2.067 1.839,4.15 2.578,6.186 0.369,1.014 0.715,2.075 1.03,3.144 0.047,0.157 0.118,0.5 0.212,0.912 0.786,3.5 1.156,4.716 1.942,5.5 a 5.07,5.07 0 0 0 4.315,1.446 5.163,5.163 0 0 0 1.069,-0.275 l 2.989,-1.085 0.519,-0.165 c 0.959,-0.307 1.91,-0.613 2.806,-0.88 l 1.792,-0.479 c 0.5,-0.134 1.077,-0.291 1.643,-0.4 l 0.786,-0.181 c 0.912,-0.2 1.769,-0.385 2.673,-0.511 l 1.753,-0.291 1.816,-0.2 c 0.786,-0.11 1.651,-0.157 2.539,-0.212 l 1,-0.063 h 3.4 a 55.558,55.558 0 0 1 6.925,0.613 l 0.692,0.11 q 0.519,0.071 1.014,0.165 l 2.625,0.55 2.563,0.684 c 0.346,0.094 0.684,0.212 1.022,0.322 l 0.6,0.2 0.668,0.22 c 0.314,0.1 0.629,0.2 0.983,0.338 l 2.028,0.786 0.424,0.165 2.5,1.108 c 0.291,0.134 0.605,0.3 0.912,0.456 l 0.605,0.314 1.627,0.786 0.527,0.275 a 10.215,10.215 0 0 1 0.9,0.5 l 3.144,1.918 c 0.613,0.393 1.218,0.786 1.863,1.266 l 1.132,0.786 c 0.786,0.5 1.494,1.077 2.272,1.69 l 1.989,1.572 c 0.259,0.2 0.5,0.417 0.786,0.637 l 0.511,0.44 1.769,1.572 c 0.291,0.252 0.582,0.5 0.888,0.786 l 2.625,2.523 c 0.527,0.542 1.053,1.093 1.572,1.643 l 0.92,0.967 2.358,2.649 0.456,0.519 c 0.236,0.267 0.479,0.535 0.707,0.786 l 2.3,2.83 1.47,1.918 q 0.932,1.179 1.769,2.358 l 0.605,0.849 c 0.519,0.715 1.006,1.4 1.47,2.115 l 0.574,0.857 0.22,0.322 q -2.5,-1.446 -5,-2.759 c -3.074,-1.643 -6.226,-3.089 -8.647,-4.182 -2.625,-1.116 -5.73,-2.358 -8.9,-3.459 -3.17,-1.101 -6.288,-2 -9.26,-2.783 a 87.346,87.346 0 0 0 -9.393,-1.926 c -2.987,-0.5 -6.21,-0.857 -9.582,-1.085 a 93.75,93.75 0 0 0 -9.684,-0.149 94.72,94.72 0 0 0 -19.176,2.636 l -3.93,0.983 a 5.5,5.5 0 0 0 -1.313,0.479 5.219,5.219 0 0 0 0.747,9.574 c 3.246,1.077 5.966,2.012 8.709,3.066 a 153.9,153.9 0 0 1 16.782,7.428 c 0.967,0.487 1.91,1.006 2.9,1.572 l 3.058,1.737 1.957,1.179 c 2.358,1.438 4.834,3.1 7.522,5.07 a 86.65,86.65 0 0 1 7,5.723 c 0.967,0.857 1.886,1.761 2.861,2.712 l 0.66,0.668 c 0.967,1.006 1.879,1.965 2.759,2.987 a 72.6,72.6 0 0 1 5.432,7.012 l 0.66,1.124 0.047,0.59 0.55,0.652 c 0.094,0.118 9.716,11.791 9.723,35.632 v 0.212 a 34.045,34.045 0 0 1 0,3.985 v 0.3 a 101.948,101.948 0 0 1 -2.68,17.891 136.416,136.416 0 0 1 -5.455,17.419 c -1.439,3.726 -3.081,7.546 -4.921,11.4 a 97.961,97.961 0 0 0 0.943,-12.05 82.272,82.272 0 0 0 -1.753,-18.567 l -0.487,-2.225 c -0.118,-0.519 -0.259,-1.03 -0.4,-1.572 -0.071,-0.244 -0.134,-0.487 -0.212,-0.786 -0.078,-0.299 -0.134,-0.48 -0.2,-0.715 -0.134,-0.5 -0.275,-1.03 -0.448,-1.572 l -0.786,-2.523 c -0.079,-0.252 -0.165,-0.511 -0.283,-0.841 l -1.2,-3.144 c -0.189,-0.5 -0.409,-0.99 -0.629,-1.486 l -0.33,-0.747 -0.314,-0.7 c -0.212,-0.487 -0.424,-0.975 -0.652,-1.423 a 83.09,83.09 0 0 0 -9.92,-15.721 c -1.729,-2.177 -3.687,-4.386 -6.194,-6.98 -2.2,-2.209 -4.5,-4.315 -6.839,-6.288 A 95.79,95.79 0 0 0 277.122,198.9 c -1.3,-0.692 -2.688,-1.431 -4.221,-2.122 a 10.863,10.863 0 0 0 -1.328,-0.527 7.2,7.2 0 0 0 -1.839,-0.4 4.968,4.968 0 0 0 -3.089,0.786 l -0.142,0.1 -0.362,0.275 -0.173,0.157 -0.291,0.275 -0.5,0.6 a 5.361,5.361 0 0 0 -0.369,0.6 5.235,5.235 0 0 0 -0.3,4.237 l 0.959,2.618 c 0.157,0.432 0.314,0.857 0.472,1.289 0.362,0.975 0.7,1.894 0.99,2.853 l 1.344,4.2 1.187,4.3 c 0.189,0.645 0.346,1.328 0.5,2.012 l 0.5,2.146 c 0.063,0.275 0.126,0.542 0.189,0.786 0.1,0.417 0.2,0.841 0.275,1.273 l 0.4,2.193 a 97.687,97.687 0 0 1 1.619,17.293 80.176,80.176 0 0 1 -1.863,17.128 75.285,75.285 0 0 1 -5.6,16.232 l -0.354,0.786 c -0.189,0.4 -0.37,0.786 -0.535,1.108 l -1.1,1.839 -0.487,0.88 c -0.542,1 -1.061,1.934 -1.635,2.783 l -1.58,2.4 c -0.275,0.432 -0.535,0.841 -0.849,1.25 l -2.6,3.569 a 104.469,104.469 0 0 1 -11.877,13.363 c -4.213,3.749 -8.89,6.556 -13.945,9.826 -0.786,0.519 -1.572,1 -2.4,1.509 l -0.951,0.574 c 3.286,-5.133 30.24,-42.879 7,-92.134 -1.053,-2.358 -2.28,-4.716 -3.655,-7.129 l -0.252,-0.432 c -0.252,-0.432 -0.5,-0.865 -0.786,-1.281 l -0.079,-0.126 c -0.157,-0.252 -0.314,-0.5 -0.5,-0.786 l -0.1,-0.157 a 6.95,6.95 0 0 0 -0.715,-0.975 5.117,5.117 0 0 0 -4.488,-1.627 h -0.118 a 5.408,5.408 0 0 0 -3.93,2.94 4.779,4.779 0 0 0 -0.291,3.883 4.262,4.262 0 0 0 0.479,0.786 c 0.731,1 2.115,3.4 2.578,4.229 30.137,54.749 -12.954,99.593 -14.629,101.456 l -1.494,1.635 -0.424,0.464 c -0.11,0.126 -0.165,0.189 -0.283,0.338 a 5.279,5.279 0 0 0 -0.409,0.621 5.1,5.1 0 0 0 3.655,7.546 4.95,4.95 0 0 0 0.739,0.063 h 0.5 a 2.573,2.573 0 0 0 0.314,0 l 0.857,-0.212 0.6,-0.189 h 0.086 c 1.619,-0.542 3.144,-1.148 4.363,-1.674 1.407,-0.59 2.814,-1.211 4.182,-1.855 2.712,-1.266 5.439,-2.665 8.112,-4.15 2.673,-1.485 5.353,-3.1 7.79,-4.716 2.437,-1.616 4.787,-3.215 7.475,-5.219 a 116.367,116.367 0 0 0 13.685,-12.105 100.77,100.77 0 0 0 11.471,-14.311 c 0.935,-1.431 1.706,-2.657 2.445,-3.97 l 2.122,-3.93 1.981,-4.111 c 0.283,-0.558 0.5,-1.108 0.7,-1.572 0.087,-0.212 0.165,-0.424 0.275,-0.668 l 0.857,-2.114 a 86.953,86.953 0 0 0 4.834,-17.82 l 0.479,-3.325 c 0.039,-0.291 0.063,-0.582 0.086,-0.88 v -0.393 c 0.039,-0.527 0.086,-1.045 0.134,-1.572 0.086,-0.975 0.173,-1.949 0.236,-2.924 l 0.126,-4.512 v -1.313 l -0.094,-3.4 a 117.131,117.131 0 0 0 -2.311,-18.142 c -0.7,-3.207 -1.525,-6.422 -2.492,-9.731 a 87.876,87.876 0 0 1 10.808,8.482 77.589,77.589 0 0 1 13.677,16.578 c 1.093,1.808 1.918,3.3 2.618,4.716 a 50.318,50.318 0 0 1 2.209,4.85 l 1.124,2.846 0.1,0.252 0.629,1.957 c 0.1,0.33 0.2,0.652 0.314,0.983 0.173,0.527 0.346,1.053 0.472,1.533 l 1,4 c 0.055,0.252 0.1,0.5 0.149,0.786 0.049,0.286 0.063,0.346 0.086,0.5 l 0.5,2.728 0.338,2.594 a 8.777,8.777 0 0 0 0.118,1.006 c 0.063,0.558 0.134,1.108 0.181,1.666 l 0.181,3.294 c 0.039,0.707 0.079,1.376 0.055,2.067 v 4.025 l -0.094,1.415 a 98.976,98.976 0 0 1 -3.743,21.378 139.915,139.915 0 0 1 -7.743,20.5 l -1.47,3.144 a 4.867,4.867 0 0 0 -0.472,1.635 5.031,5.031 0 0 0 3.561,5.385 4.905,4.905 0 0 0 3.5,-0.236 6.562,6.562 0 0 0 2.028,-1.572 c 0.362,-0.4 0.676,-0.786 1.045,-1.25 l 1.2,-1.572 c 0.739,-0.951 1.5,-1.934 2.248,-2.956 1.069,-1.47 2.17,-3.034 3.286,-4.661 a 206.186,206.186 0 0 0 11.72,-19.494 185,185 0 0 0 9.433,-20.752 c 1.352,-3.608 2.578,-7.255 3.639,-10.871 l 0.786,-2.712 c 0.173,-0.621 0.322,-1.226 0.472,-1.839 0.079,-0.314 0.149,-0.629 0.228,-0.92 0.417,-1.572 0.786,-3.191 1.077,-4.716 l 0.173,-0.786 c 0.157,-0.7 0.275,-1.391 0.385,-2.052 0.047,-0.283 0.094,-0.558 0.149,-0.88 0.055,-0.322 0.1,-0.629 0.157,-0.943 0.11,-0.621 0.22,-1.258 0.307,-1.91 l 0.149,-1.108 c 0.2,-1.5 0.4,-3.05 0.519,-4.575 l 0.126,-1.407 0.236,-4.315 v -5.833 a 78.957,78.957 0 0 0 -4.009,-22.835 69.96,69.96 0 0 0 -4.614,-10.785 l -1.328,-2.468 -0.039,-0.071 q -0.483,-0.825 -0.99,-1.627 l -0.487,-0.786 c -0.786,-1.281 -1.572,-2.452 -2.358,-3.592 l -0.857,-1.218 c -0.33,-0.5 -0.676,-0.92 -0.975,-1.289 l -1.753,-2.2 c -0.307,-0.385 -0.645,-0.786 -1,-1.195 l -1.9,-2.122 -0.3,-0.33 c -0.236,-0.267 -0.48,-0.535 -0.731,-0.786 l -2.987,-2.987 -0.063,-0.055 c -0.456,-0.432 -0.927,-0.849 -1.391,-1.273 l -1.776,-1.572 -3.844,-3.223 c -0.252,-0.2 -0.5,-0.417 -0.786,-0.652 l -3.356,-2.476 c -0.377,-0.291 -0.786,-0.566 -1.281,-0.9 l -3.506,-2.358 -1.124,-0.692 c -1.266,-0.786 -2.531,-1.572 -3.8,-2.3 l -0.079,-0.039 -1.706,-0.943 c -1.085,-0.605 -2.17,-1.211 -3.27,-1.784 -3.325,-1.737 -6.768,-3.38 -10.376,-4.944 q 1.313,-0.1 2.633,-0.157 a 88.816,88.816 0 0 1 13.63,0.456 l 3.459,0.44 3.364,0.558 c 2.743,0.527 4.819,0.99 6.729,1.494 a 108.751,108.751 0 0 1 13.1,4.3 115.352,115.352 0 0 1 12.483,5.88 134.083,134.083 0 0 1 11.9,7.24 c 0.645,0.417 1.281,0.873 1.949,1.344 l 0.857,0.613 0.149,0.1 c 0.92,0.645 1.784,1.258 2.649,1.926 l 2.169,1.635 0.157,0.118 a 7.813,7.813 0 0 0 0.786,0.566 5.007,5.007 0 0 0 7.216,-2.72 4.946,4.946 0 0 0 0.236,-0.983 4.415,4.415 0 0 0 -0.026,-1.386 z"
       transform="translate(-53.147,-194.448)"
       inkscape:connector-curvature="0"
       style="opacity:0.10800003;fill:#ffffff" />
    <g
       id="logo_RD_full_white"
       transform="translate(726.489,334.65)"
       style="opacity:0.78800001">
      <path
         id="Tracé_13"
         data-name="Tracé 13"
         d="m 284.824,484.268 a 5.155,5.155 0 0 0 -0.85,3.078 v 4.478 a 15.594,15.594 0 0 1 -0.092,1.709 5.761,5.761 0 0 1 -0.318,1.4 2.175,2.175 0 0 1 -0.552,0.856 1.091,1.091 0 0 1 -0.766,0.255 h -0.585 v 2.763 h 0.585 a 1.091,1.091 0 0 1 0.764,0.255 2.176,2.176 0 0 1 0.552,0.856 5.762,5.762 0 0 1 0.318,1.4 15.609,15.609 0 0 1 0.092,1.709 v 4.419 a 5.155,5.155 0 0 0 0.85,3.078 v 0 a 2.992,2.992 0 0 0 2.563,1.264 h 2.192 v -2.763 h -1.227 a 0.747,0.747 0 0 1 -0.468,-0.137 1.293,1.293 0 0 1 -0.376,-0.468 3,3 0 0 1 -0.253,-0.829 6.48,6.48 0 0 1 -0.088,-1.074 v -4.212 a 7.481,7.481 0 0 0 -0.317,-2.3 6.769,6.769 0 0 0 -0.742,-1.613 4.54,4.54 0 0 0 -0.835,-0.986 4.532,4.532 0 0 0 0.835,-0.986 6.77,6.77 0 0 0 0.742,-1.608 7.476,7.476 0 0 0 0.318,-2.3 v -4.243 a 6.217,6.217 0 0 1 0.088,-1.053 3.211,3.211 0 0 1 0.256,-0.839 1.266,1.266 0 0 1 0.371,-0.478 0.747,0.747 0 0 1 0.468,-0.137 h 1.228 V 483 h -2.192 a 3,3 0 0 0 -2.561,1.268 z"
         transform="translate(-281.66,-482.986)"
         inkscape:connector-curvature="0"
         style="fill:#ffffff" />
      <path
         id="Tracé_14"
         data-name="Tracé 14"
         d="m 2190.741,496.044 a 1.089,1.089 0 0 1 -0.766,-0.255 2.167,2.167 0 0 1 -0.552,-0.856 5.728,5.728 0 0 1 -0.318,-1.4 15.608,15.608 0 0 1 -0.093,-1.709 v -4.448 a 5.159,5.159 0 0 0 -0.85,-3.078 v 0 a 3,3 0 0 0 -2.563,-1.264 h -2.192 v 2.763 h 1.228 a 0.747,0.747 0 0 1 0.469,0.137 1.273,1.273 0 0 1 0.372,0.478 3.227,3.227 0 0 1 0.256,0.839 6.191,6.191 0 0 1 0.088,1.053 v 4.242 a 7.478,7.478 0 0 0 0.319,2.3 6.77,6.77 0 0 0 0.742,1.613 4.514,4.514 0 0 0 0.835,0.986 4.531,4.531 0 0 0 -0.835,0.986 6.772,6.772 0 0 0 -0.742,1.613 7.466,7.466 0 0 0 -0.325,2.3 v 4.214 a 6.518,6.518 0 0 1 -0.088,1.074 3.011,3.011 0 0 1 -0.251,0.829 1.294,1.294 0 0 1 -0.376,0.468 0.747,0.747 0 0 1 -0.468,0.137 h -1.231 v 2.759 h 2.192 a 3,3 0 0 0 2.563,-1.264 5.157,5.157 0 0 0 0.85,-3.078 v -4.453 a 15.732,15.732 0 0 1 0.092,-1.709 5.776,5.776 0 0 1 0.32,-1.4 2.166,2.166 0 0 1 0.552,-0.856 1.089,1.089 0 0 1 0.765,-0.255 h 0.585 v -2.761 z"
         transform="translate(-1960.808,-483.013)"
         inkscape:connector-curvature="0"
         style="fill:#ffffff" />
      <path
         id="Tracé_15"
         data-name="Tracé 15"
         d="m 387.229,495.829 a 7.058,7.058 0 0 0 4.04,-1.17 3.888,3.888 0 0 0 1.859,-3.314 4.192,4.192 0 0 0 -1.374,-3.314 5.017,5.017 0 0 0 -3.511,-1.213 h -6.469 v 24.886 H 377.41 V 482.9 h 11.152 a 8.961,8.961 0 0 1 6.505,2.384 7.919,7.919 0 0 1 2.426,6.02 7.8,7.8 0 0 1 -1.656,5.051 7.89,7.89 0 0 1 -4.079,2.627 l 6.623,12.724 h -5.091 l -6.061,-12.118 z"
         transform="translate(-366.203,-482.898)"
         inkscape:connector-curvature="0"
         style="fill:#ffffff" />
      <path
         id="Tracé_16"
         data-name="Tracé 16"
         d="M 586.56,512.005 V 483.24 h 4.363 v 28.765 z"
         transform="translate(-550.872,-483.198)"
         inkscape:connector-curvature="0"
         style="fill:#ffffff" />
      <path
         id="Tracé_17"
         data-name="Tracé 17"
         d="m 667.288,512.005 h -3.394 L 654.44,483.24 h 4.525 l 6.626,20.93 6.626,-20.93 h 4.606 z"
         transform="translate(-610.808,-483.198)"
         inkscape:connector-curvature="0"
         style="fill:#ffffff" />
      <path
         id="Tracé_18"
         data-name="Tracé 18"
         d="M 876.22,512.005 V 483.24 h 4.363 v 28.765 z"
         transform="translate(-806.629,-483.198)"
         inkscape:connector-curvature="0"
         style="fill:#ffffff" />
      <path
         id="Tracé_19"
         data-name="Tracé 19"
         d="M 943.18,512.005 V 483.24 h 18.385 v 3.92 h -14.02 v 8.4 H 959.5 v 3.879 h -11.96 v 8.647 h 14.021 v 3.915 z"
         transform="translate(-865.752,-483.198)"
         inkscape:connector-curvature="0"
         style="fill:#ffffff" />
      <path
         id="Tracé_20"
         data-name="Tracé 20"
         d="m 1139.542,495.829 a 7.058,7.058 0 0 0 4.04,-1.17 3.9,3.9 0 0 0 1.855,-3.319 4.192,4.192 0 0 0 -1.374,-3.314 5.016,5.016 0 0 0 -3.511,-1.213 h -6.468 v 24.892 h -4.364 V 482.9 h 11.152 a 8.961,8.961 0 0 1 6.505,2.384 7.926,7.926 0 0 1 2.424,6.021 7.6,7.6 0 0 1 -5.738,7.677 l 6.63,12.723 h -5.093 l -6.061,-12.121 z"
         transform="translate(-1030.458,-482.898)"
         inkscape:connector-curvature="0"
         style="fill:#ffffff" />
      <path
         id="Tracé_21"
         data-name="Tracé 21"
         d="m 1352.626,483.144 10.566,28.774 h -4.635 l -1.288,-3.708 -0.726,-2.055 -5.562,-16.525 -4.474,12.777 h 5.159 l 1.288,3.746 h -7.788 l -1.971,5.766 h -4.635 l 10.56,-28.777 z"
         transform="translate(-1214.854,-483.11)"
         inkscape:connector-curvature="0"
         style="fill:#ffffff" />
      <path
         id="Tracé_22"
         data-name="Tracé 22"
         d="m 1596.4,485.941 a 10.009,10.009 0 0 0 -7.4,-2.711 h -10.12 V 512 h 4.37 v -24.845 h 5.3 a 6.184,6.184 0 0 1 4.856,1.943 q 1.537,1.7 1.538,8.336 0,7 -1.538,8.7 a 6.184,6.184 0 0 1 -4.856,1.943 h -2.024 V 512 H 1589 a 10.009,10.009 0 0 0 7.406,-2.711 9.658,9.658 0 0 0 2.63,-5.543 46.624,46.624 0 0 0 0.283,-6.312 43.565,43.565 0 0 0 -0.283,-6.151 9.653,9.653 0 0 0 -2.636,-5.342 z"
         transform="translate(-1427.045,-483.189)"
         inkscape:connector-curvature="0"
         style="fill:#ffffff" />
      <path
         id="Tracé_23"
         data-name="Tracé 23"
         d="m 1821.765,482.88 -6.637,20.961 -6.636,-20.961 h -25.372 v 28.811 h 18.411 v -3.925 h -14.041 v -8.66 h 11.977 v -3.885 H 1787.49 V 486.8 h 17.758 l 8.179,24.887 h 3.4 l 9.55,-28.811 z"
         transform="translate(-1607.38,-482.88)"
         inkscape:connector-curvature="0"
         style="fill:#ffffff" />
    </g>
  </g>
</svg>
