<?xml version="1.0" standalone="no"?>
<!DOCTYPE svg PUBLIC "-//W3C//DTD SVG 1.1//EN" "http://www.w3.org/Graphics/SVG/1.1/DTD/svg11.dtd" >
<svg xmlns="http://www.w3.org/2000/svg">
<metadata>
This is a custom SVG webfont generated by Font Squirrel.
Copyright   : Copyright c 2009 by Tino Meinert All rights reserved
Designer    : Tino Meinert
Foundry     : Tino Meinert
</metadata>
<defs>
<font id="webfontL7RsX8Rf" horiz-adv-x="1331" >
<font-face units-per-em="2048" ascent="1556" descent="-492" />
<missing-glyph horiz-adv-x="500" />
<glyph unicode=" " />
<glyph unicode="!" d="M481 0v358h369v-358h-369zM481 457v946h369v-946h-369z" />
<glyph unicode="&#x22;" d="M270 1014v575h338v-575h-338zM721 1014v575h338v-575h-338z" />
<glyph unicode="#" d="M72 201v297h202v133h-202v307h202v201h338v-201h107v201h338v-201h213v-307h-213v-133h213v-297h-213v-201h-338v201h-107v-201h-338v201h-202zM592 477h147v174h-147v-174z" />
<glyph unicode="$" d="M133 348v37l369 92v-55q0 -78 92 -78h143q92 0 92 78v45q0 78 -92 78h-215q-389 0 -389 360v137q0 170 116 264.5t251 94.5h2v137h327v-137h2q154 0 260.5 -88t106.5 -260v-27l-369 -92v51q0 78 -92 78h-143q-92 0 -92 -78v-31q0 -78 92 -77h213q391 0 391 -357v-162 q0 -170 -113.5 -264t-253.5 -94h-2v-137h-327v137h-2q-158 0 -262.5 87t-104.5 261z" />
<glyph unicode="%" d="M209 416v231l911 340v-231zM209 1090v194q0 94 64.5 154.5t170.5 60.5h105q106 0 170.5 -60.5t64.5 -154.5v-194q0 -94 -64.5 -155t-170.5 -61h-105q-106 0 -170.5 61t-64.5 155zM444 1139q0 -41 39 -41h29q39 0 39 41v102q0 39 -39 39h-29q-39 0 -39 -39v-102zM545 117 v194q0 94 64.5 154.5t170.5 60.5h105q106 0 170.5 -60t64.5 -155v-194q0 -94 -64.5 -154.5t-170.5 -60.5h-105q-106 0 -170.5 60.5t-64.5 154.5zM780 166q0 -41 39 -41h29q39 0 39 41v102q0 39 -39 39h-29q-39 0 -39 -39v-102z" />
<glyph unicode="&#x26;" d="M51 348v113q0 74 44 146.5t134 99.5q-90 27 -134 99.5t-44 145.5v101q0 178 108.5 263t301.5 85h266q188 0 299 -84t111 -238v-8l-369 -76v11q0 27 -19.5 42t-50.5 15h-186q-92 0 -92 -78v-47q0 -84 92 -84h78v-297h-78q-92 0 -92 -78v-57q0 -78 92 -78h184q92 0 92 78 v145h-122v277h102v76l369 75v-151h143v-277h-143v-219q0 -178 -108.5 -263t-301.5 -85h-266q-193 0 -301.5 85t-108.5 263z" />
<glyph unicode="'" d="M496 1014v575h338v-575h-338z" />
<glyph unicode="(" d="M358 0v1300q0 178 108.5 263.5t301.5 85.5h215v-349h-164q-92 0 -92 -77v-1145q0 -78 92 -78h164v-348h-215q-193 0 -301.5 85t-108.5 263z" />
<glyph unicode=")" d="M348 0h164q92 0 92 78v1145q0 78 -92 77h-164v349h215q193 0 301.5 -85t108.5 -264v-1300q0 -178 -108.5 -263t-301.5 -85h-215v348z" />
<glyph unicode="*" d="M125 1329l213 207l184 -115l6 4l-6 299l287 -82l-6 -217l6 -4l254 156l74 -289l-193 -102v-8l262 -144l-213 -207l-184 115l-6 -4l6 -299l-287 82l6 215l-6 4l-254 -154l-73 289l192 103v8z" />
<glyph unicode="+" d="M170 473v338h328v348h368v-348h328v-338h-328v-348h-368v348h-328z" />
<glyph unicode="," d="M438 -184h62q68 0 110.5 44t42.5 109v31h-182v369h389v-392q0 -141 -74.5 -228t-216.5 -87h-69z" />
<glyph unicode="-" d="M315 473v338h701v-338h-701z" />
<glyph unicode="." d="M471 0v369h389v-369h-389z" />
<glyph unicode="/" d="M180 -186l604 1742h365l-604 -1742h-365z" />
<glyph unicode="0" d="M123 348v705q0 178 108.5 263t300.5 85h267q193 0 301 -85t108 -263v-705q0 -178 -108.5 -263t-300.5 -85h-267q-193 0 -301 85t-108 263zM492 422q0 -78 92 -78h164q92 0 92 78v563q0 78 -92 78h-164q-92 0 -92 -78v-563z" />
<glyph unicode="1" d="M190 0v344h363v719h-303v338h672v-1057h340v-344h-1072z" />
<glyph unicode="2" d="M123 0v297l665 555q51 45 52 90v43q0 78 -92 78h-164q-92 0 -92 -78v-113l-369 93v88q0 178 108.5 263t300.5 85h267q193 0 301 -85t108 -263v-135q0 -158 -151 -275l-361 -293v-6h512v-344h-1085z" />
<glyph unicode="3" d="M123 348v62l369 92v-80q0 -78 92 -78h164q92 0 92 78v43q0 78 -92 78h-164v327h164q92 0 92 84v31q0 78 -92 78h-164q-92 0 -92 -78v-72l-369 93v47q0 178 108.5 263t300.5 85h267q193 0 301 -85t108 -263v-101q0 -74 -44 -146.5t-134 -98.5q90 -27 134 -99.5t44 -146.5 v-113q0 -178 -108.5 -263t-300.5 -85h-267q-193 0 -301 85t-108 263z" />
<glyph unicode="4" d="M59 289v332l580 780h451v-774h182v-338h-182v-289h-369v289h-662zM496 627h225v319z" />
<glyph unicode="5" d="M154 348v39l368 90v-55q0 -78 92 -78h144q92 0 92 78v104q0 78 -92 78h-127q-47 0 -78 -17.5t-31 -47.5h-368v862h1020v-338h-652v-182q90 55 226 55h73q168 0 283 -86t115 -264v-238q0 -178 -109 -263t-301 -85h-246q-193 0 -301 85t-108 263z" />
<glyph unicode="6" d="M143 348v705q0 348 400 348h276q193 0 301.5 -85t108.5 -263v-27l-369 -82v41q0 78 -92 78h-164q-92 0 -92 -78v-145q61 55 225 55h92q399 0 400 -365v-182q0 -178 -108.5 -263t-301.5 -85h-266q-193 0 -301.5 85t-108.5 263zM512 422q0 -78 92 -78h164q92 0 92 78v63 q0 78 -92 78h-147q-109 0 -109 -78v-63z" />
<glyph unicode="7" d="M125 1063v338h1079v-322l-452 -1079h-410l467 1063h-684z" />
<glyph unicode="8" d="M133 348v113q0 72 41 145.5t117 100.5q-76 27 -117 100.5t-41 144.5v101q0 178 108.5 263t301.5 85h245q193 0 301.5 -85t108.5 -263v-101q0 -72 -41 -145.5t-117 -99.5q76 -27 117 -101t41 -145v-113q0 -178 -108.5 -263t-301.5 -85h-245q-193 0 -301.5 85t-108.5 263z M502 422q0 -78 92 -78h143q92 0 92 78v41q0 78 -92 78h-143q-92 0 -92 -78v-41zM502 950q0 -78 92 -78h143q92 0 92 78v35q0 78 -92 78h-143q-92 0 -92 -78v-35z" />
<glyph unicode="9" d="M102 348v19l369 98v-43q0 -78 92 -78h164q92 0 92 78v137q-45 -41 -233 -41h-105q-201 0 -290 83t-89 267v185q0 178 108.5 263t301.5 85h266q193 0 301.5 -85t108.5 -263v-705q0 -178 -108.5 -263t-301.5 -85h-266q-193 0 -301.5 85t-108.5 263zM471 928q0 -78 92 -78 h164q41 0 66.5 20.5t25.5 57.5v57q0 78 -92 78h-164q-92 0 -92 -78v-57z" />
<glyph unicode=":" d="M471 0v369h389v-369h-389zM471 698v369h389v-369h-389z" />
<glyph unicode=";" d="M438 -184h62q68 0 110.5 44t42.5 109v31h-182v369h389v-392q0 -141 -74.5 -228t-216.5 -87h-69zM471 698v369h389v-369h-389z" />
<glyph unicode="&#x3c;" d="M221 502v278l887 426v-375l-434 -188v-4l434 -188v-375z" />
<glyph unicode="=" d="M211 246v338h909v-338h-909zM211 696v338h909v-338h-909z" />
<glyph unicode="&#x3e;" d="M221 76v375l434 188v4l-434 188v375l887 -426v-278z" />
<glyph unicode="?" d="M102 1026v27q0 178 108.5 263t301.5 85h246q195 0 312.5 -90t117.5 -269v-137q0 -166 -88 -253t-201 -87h-41q-82 0 -82 -71v-37h-368v139q0 139 73.5 220t198.5 81h47q92 0 92 66v22q0 78 -92 78h-164q-92 0 -92 -78v-51zM408 0v358h368v-358h-368z" />
<glyph unicode="@" d="M8 -33v856q0 152 102.5 234t266.5 82h596q164 0 256 -72t92 -223v-498q0 -76 -11.5 -133t-39 -108.5t-84 -78t-139.5 -26.5h-60q-164 0 -215 82h-6q-49 -82 -180 -82h-43q-199 0 -199 215v365q0 215 199 215h43q113 0 157 -72h7l26 72h205v-523q0 -47 37 -47t37 47v512 q0 98 -117 99h-520q-59 0 -101.5 -35t-42.5 -84v-737q0 -49 42 -84t102 -35h882l-88 -256h-835q-164 0 -266.5 81.5t-102.5 233.5zM610 317q0 -51 41 -51h17q20 0 33.5 25.5t13.5 60.5v101q0 35 -13.5 60.5t-33.5 25.5h-17q-41 0 -41 -52v-170z" />
<glyph unicode="A" d="M70 0v375l405 1026h381l406 -1026v-375h-369v319v7h-455v-7v-319h-368zM547 653h235l-110 326h-13z" />
<glyph unicode="B" d="M164 0v1401h635q193 0 301 -85t108 -263v-95q0 -74 -44 -146.5t-134 -98.5q90 -27 134 -99.5t44 -146.5v-119q0 -178 -108.5 -263t-300.5 -85h-635zM532 344h216q92 0 92 78v45q0 78 -92 78h-216v-201zM532 877h216q92 0 92 84v24q0 78 -92 78h-216v-186z" />
<glyph unicode="C" d="M123 348v705q0 178 108.5 263t300.5 85h267q193 0 301 -85t108 -263v-129l-368 -93v154q0 78 -92 78h-164q-92 0 -92 -78v-563q0 -78 92 -78h164q92 0 92 78v178l368 -102v-150q0 -178 -108.5 -263t-300.5 -85h-267q-193 0 -301 85t-108 263z" />
<glyph unicode="D" d="M123 0v1401h686q399 0 399 -348v-705q0 -348 -399 -348h-686zM492 344h256q92 0 92 78v563q0 78 -92 78h-256v-719z" />
<glyph unicode="E" d="M158 0v1401h1003v-338h-635v-178h504v-332h-504v-209h635v-344h-1003z" />
<glyph unicode="F" d="M188 0v1401h1024v-338h-655v-244h545v-332h-545v-487h-369z" />
<glyph unicode="G" d="M127 348v705q0 178 108.5 263t301.5 85h278q389 0 389 -348v-68l-368 -92v92q0 78 -93 78h-155q-92 0 -92 -78v-563q0 -78 92 -78h180q43 0 60.5 15.5t17.5 52.5v100h-150v287h508v-451q0 -178 -108.5 -263t-300.5 -85h-258q-410 0 -410 348z" />
<glyph unicode="H" d="M106 0v1401h369v-527h379v527h369v-1401h-369v543h-379v-543h-369z" />
<glyph unicode="I" d="M133 0v344h348v719h-327v338h1024v-338h-328v-719h348v-344h-1065z" />
<glyph unicode="J" d="M123 348v170l369 103v-199q0 -78 92 -78h123q92 0 92 78v641h-594v338h962v-1053q0 -178 -108.5 -263t-300.5 -85h-226q-193 0 -301 85t-108 263z" />
<glyph unicode="K" d="M98 0v1401h369v-473h10l352 473h474l-457 -553l364 -365v-483h-358v322l-236 247l-149 -155v-414h-369z" />
<glyph unicode="L" d="M133 0v1401h369v-1057h717v-344h-1086z" />
<glyph unicode="M" d="M51 0v1401h389l226 -502l225 502h389v-1401h-369v752h-12l-119 -332h-229l-119 332h-12v-752h-369z" />
<glyph unicode="N" d="M102 0v1401h355l387 -719h16v719h369v-1401h-359l-383 688h-16v-688h-369z" />
<glyph unicode="O" d="M102 348v705q0 178 108.5 263t301.5 85h307q193 0 301.5 -85t108.5 -263v-705q0 -178 -108.5 -263t-301.5 -85h-307q-193 0 -301.5 85t-108.5 263zM471 422q0 -78 92 -78h205q92 0 92 78v563q0 78 -92 78h-205q-92 0 -92 -78v-563z" />
<glyph unicode="P" d="M184 0v1401h635q193 0 301.5 -85t108.5 -263v-234q0 -178 -108.5 -263t-301.5 -85h-266v-471h-369zM553 803h215q43 0 67.5 28.5t24.5 69.5v84q0 78 -92 78h-215v-260z" />
<glyph unicode="Q" d="M109 348v705q0 178 108.5 263t300.5 85h287q193 0 301 -85t108 -263v-705q0 -168 -104 -260l256 -299h-420l-168 211h-260q-193 0 -301 85t-108 263zM477 422q0 -78 92 -78h185q92 0 92 78v563q0 78 -92 78h-185q-92 0 -92 -78v-563z" />
<glyph unicode="R" d="M141 0v1401h656q193 0 302 -85t109 -263v-203q0 -92 -53 -171t-129 -114l182 -227v-338h-368v252l-172 219h-158v-471h-369zM510 803h238q92 0 92 78v104q0 78 -92 78h-238v-260z" />
<glyph unicode="S" d="M133 348v37l369 92v-55q0 -78 92 -78h143q92 0 92 78v45q0 78 -92 78h-215q-389 0 -389 360v137q0 178 118 268.5t312 90.5h225q193 0 301.5 -85t108.5 -263v-27l-369 -92v51q0 78 -92 78h-143q-92 0 -92 -78v-31q0 -78 92 -77h213q391 0 391 -357v-162 q0 -178 -117.5 -268t-312.5 -90h-225q-193 0 -301.5 85t-108.5 263z" />
<glyph unicode="T" d="M72 1063v338h1188v-338h-410v-1063h-369v1063h-409z" />
<glyph unicode="U" d="M123 348v1053h369v-979q0 -78 92 -78h164q92 0 92 78v979h368v-1053q0 -178 -108.5 -263t-300.5 -85h-267q-193 0 -301 85t-108 263z" />
<glyph unicode="V" d="M70 987v414h368v-365l224 -618h8l223 618v365h369v-414l-396 -987h-401z" />
<glyph unicode="W" d="M41 1028v373h338v-295l63 -490h21l88 367h229l88 -367h21l63 490v295h338v-373l-180 -1028h-332l-104 356h-17l-104 -356h-332z" />
<glyph unicode="X" d="M98 0v393l324 338l-285 279v391h369v-279l160 -178l159 178v279h369v-391l-285 -279l324 -338v-393h-369v274l-198 226l-199 -226v-274h-369z" />
<glyph unicode="Y" d="M80 987v414h369v-279l217 -235l217 235v279h368v-414l-399 -395v-592h-369v592z" />
<glyph unicode="Z" d="M117 0v324l622 739h-596v338h1059v-322l-624 -735h634v-344h-1095z" />
<glyph unicode="[" d="M358 -348v1997h625v-349h-256v-1300h256v-348h-625z" />
<glyph unicode="\" d="M180 1556h365l604 -1742h-365z" />
<glyph unicode="]" d="M348 0h256v1300h-256v349h625v-1997h-625v348z" />
<glyph unicode="^" d="M63 815l480 639h245l480 -639h-408l-194 277l-195 -277h-408z" />
<glyph unicode="_" d="M57 0v344h1217v-344h-1217z" />
<glyph unicode="`" d="M381 1563h352l217 -277h-352z" />
<glyph unicode="a" d="M137 330v78q0 168 91 247.5t249 79.5h39q190 0 281 -67h6v82q0 92 -103 92h-100q-63 0 -63 -49v-27l-349 82v26q0 119 103.5 192t279.5 73h160q188 0 304 -99.5t116 -279.5v-760h-348v74h-6q-90 -74 -260 -74h-60q-340 0 -340 330zM485 367q0 -63 82 -64h92q143 0 144 64 v18q0 63 -144 64h-92q-82 0 -82 -64v-18z" />
<glyph unicode="b" d="M174 0v1401h369v-357h6q84 94 260 95h94q158 0 247 -90.5t89 -268.5v-422q0 -180 -89 -269t-247 -89h-94q-176 0 -260 94h-6v-94h-369zM543 504q0 -76 47 -118t115 -42h53q113 0 112 129v199q0 129 -112 129h-53q-68 0 -115 -42t-47 -118v-137z" />
<glyph unicode="c" d="M147 348v443q0 178 109 263t301 85h215q193 0 301.5 -85t108.5 -263v-68l-369 -92v92q0 78 -92 78h-113q-92 0 -92 -78v-301q0 -78 92 -78h113q92 0 92 78v72l369 -103v-43q0 -178 -108.5 -263t-301.5 -85h-215q-193 0 -301.5 85t-108.5 263z" />
<glyph unicode="d" d="M92 358v422q0 178 89 268.5t247 90.5h94q176 0 260 -95h6v357h369v-1401h-369v94h-6q-84 -94 -260 -94h-94q-158 0 -247 89t-89 269zM461 473q0 -129 112 -129h54q68 0 114.5 42t46.5 118v137q0 76 -47 118t-114 42h-54q-113 0 -112 -129v-199z" />
<glyph unicode="e" d="M164 348v443q0 178 108.5 263t300.5 85h183q188 0 298.5 -97.5t110.5 -277.5v-322h-653v-57q0 -82 92 -82h113q100 0 100 57v46l348 -62v-41q0 -166 -113.5 -234.5t-316.5 -68.5h-162q-193 0 -301 85t-108 263zM512 719h305v39q0 41 -18.5 62.5t-73.5 21.5h-121 q-55 0 -73.5 -20.5t-18.5 -59.5v-43z" />
<glyph unicode="f" d="M111 520v332h264v201q0 178 108.5 263t300.5 85h406l-80 -338h-274q-92 0 -93 -78v-133h349v-332h-349v-520h-368v520h-264z" />
<glyph unicode="g" d="M113 -131l368 92v-47q0 -78 92 -78h144q92 0 92 78v180h-6q-84 -94 -260 -94h-94q-158 0 -247 89t-89 269v422q0 178 89 268.5t247 90.5h94q176 0 260 -95h6v95h369v-1282q0 -176 -120 -262.5t-317 -86.5h-221q-190 0 -298.5 83t-108.5 255v23zM481 473q0 -129 113 -129 h53q68 0 115 42t47 118v137q0 76 -47 118t-115 42h-53q-113 0 -113 -129v-199z" />
<glyph unicode="h" d="M154 0v1401h368v-357h6q84 94 260 95h95q158 0 247 -90.5t89 -268.5v-780h-369v672q0 129 -113 129h-53q-68 0 -115 -42t-47 -118v-641h-368z" />
<glyph unicode="i" d="M152 0v344h401v457h-363v338h732v-795h340v-344h-1110zM553 1286v328h369v-328h-369z" />
<glyph unicode="j" d="M113 2l368 102v-190q0 -78 92 -78h103q92 0 92 78v887h-475v338h844v-1282q0 -176 -120 -262.5t-317 -86.5h-180q-190 0 -298.5 83t-108.5 255v156zM768 1286v328h369v-328h-369z" />
<glyph unicode="k" d="M98 0v1401h369v-629h4l313 367h490l-418 -408l313 -328v-403h-368v291l-187 194l-147 -155v-330h-369z" />
<glyph unicode="l" d="M131 0v344h401v719h-362v338h731v-1057h340v-344h-1110z" />
<glyph unicode="m" d="M43 0v1139h293v-113h6q43 113 188 113h80q80 0 115 -29t51 -84h4q43 113 189 113h75q131 0 187.5 -85t56.5 -268v-786h-323v739q0 72 -39 72h-56q-47 0 -47 -115v-696h-315v760q0 51 -35 51h-59q-47 0 -47 -115v-696h-324z" />
<glyph unicode="n" d="M133 0v1139h369v-95h6q84 94 260 95h94q158 0 247 -90.5t89 -268.5v-780h-369v672q0 129 -112 129h-53q-68 0 -115 -42t-47 -118v-641h-369z" />
<glyph unicode="o" d="M143 348v443q0 178 108.5 263t301.5 85h225q193 0 301.5 -85t108.5 -263v-443q0 -178 -108.5 -263t-301.5 -85h-225q-193 0 -301.5 85t-108.5 263zM512 422q0 -78 92 -78h123q92 0 92 78v301q0 78 -92 78h-123q-92 0 -92 -78v-301z" />
<glyph unicode="p" d="M154 -412v1551h368v-95h6q84 94 260 95h95q158 0 247 -90.5t89 -268.5v-422q0 -180 -89.5 -269t-246.5 -89h-95q-176 0 -260 94h-6v-506h-368zM522 504q0 -76 47 -118t115 -42h53q113 0 113 129v199q0 129 -113 129h-53q-68 0 -115 -42t-47 -118v-137z" />
<glyph unicode="q" d="M113 358v422q0 178 89 268.5t247 90.5h94q176 0 260 -95h6v95h369v-1551h-369v506h-6q-84 -94 -260 -94h-94q-158 0 -247 89t-89 269zM481 473q0 -129 113 -129h53q68 0 115 42t47 118v137q0 76 -47 118t-115 42h-53q-113 0 -113 -129v-199z" />
<glyph unicode="r" d="M199 0v1139h368v-95h6q84 94 261 95h84q158 0 246.5 -90.5t88.5 -268.5v-88l-368 -92v86q0 66 -21.5 90.5t-77.5 24.5h-55q-70 0 -117 -42t-47 -118v-641h-368z" />
<glyph unicode="s" d="M176 270v43l348 78v-41q0 -25 16.5 -36t67.5 -11h117q82 0 82 53v21q0 59 -113 59h-139q-203 0 -291 73t-88 241v65q0 170 112.5 247t301.5 77h184q381 0 381 -271v-22l-348 -84v33q0 25 -16.5 36t-67.5 11h-117q-82 0 -82 -45v-23q0 -27 24.5 -39t88.5 -12h119 q399 0 399 -338v-61q0 -170 -112.5 -247t-301.5 -77h-184q-381 0 -381 270z" />
<glyph unicode="t" d="M70 807v332h305v262h368v-262h400v-332h-400v-385q0 -78 93 -78h284l60 -344h-396q-410 0 -409 342v465h-305z" />
<glyph unicode="u" d="M133 358v781h369v-666q0 -129 112 -129h54q68 0 114.5 42t46.5 118v635h369v-1139h-369v94h-6q-84 -94 -260 -94h-94q-158 0 -247 89t-89 269z" />
<glyph unicode="v" d="M115 725v414h368v-355l179 -407h8l178 407v355h369v-414l-351 -725h-401z" />
<glyph unicode="w" d="M43 770v369h348v-346l51 -238h15l104 363h209l104 -363h15l51 238v346h348v-369l-219 -770h-303l-94 324h-13l-94 -324h-303z" />
<glyph unicode="x" d="M127 0v330l297 272l-258 229v308h369v-203l131 -135l131 135v203h368v-308l-258 -229l297 -272v-330h-368v219l-170 166l-170 -166v-219h-369z" />
<glyph unicode="y" d="M133 -131l369 92v-47q0 -78 92 -78h143q92 0 92 78v180h-6q-84 -94 -260 -94h-94q-158 0 -247 89t-89 269v781h369v-666q0 -129 112 -129h54q68 0 114.5 42t46.5 118v635h369v-1282q0 -176 -120 -262.5t-316 -86.5h-221q-190 0 -299 83t-109 255v23z" />
<glyph unicode="z" d="M147 0v301l529 506v4h-502v328h997v-297l-522 -504v-4h533v-334h-1035z" />
<glyph unicode="{" d="M299 543v327h59q92 0 93 78v352q0 178 108.5 263.5t300.5 85.5h178v-349h-127q-92 0 -92 -77v-291q0 -98 -28.5 -149.5t-108.5 -71.5v-9q80 -20 108.5 -71t28.5 -150v-403q0 -78 92 -78h129v-348h-180q-193 0 -301 85t-108 263v465q0 78 -93 78h-59z" />
<glyph unicode="|" d="M481 -186v1742h369v-1742h-369z" />
<glyph unicode="}" d="M289 1300v349h180q193 0 301.5 -85t108.5 -264v-352q0 -78 92 -78h59v-327h-59q-92 0 -92 -78v-465q0 -178 -108.5 -263t-301.5 -85h-178v348h127q92 0 92 78v403q0 98 28.5 149.5t108.5 71.5v9q-80 20 -108.5 71.5t-28.5 149.5v291q0 78 -92 77h-129z" />
<glyph unicode="~" d="M117 829q0 190 99 312.5t292 122.5q98 0 186 -42t103 -42q76 0 75 94h342q0 -190 -99 -312t-292 -122q-98 0 -186 42t-102 42q-76 0 -76 -95h-342z" />
<glyph unicode="&#xa0;" />
<glyph unicode="&#xa1;" d="M481 -264v946h369v-946h-369zM481 780v359h369v-359h-369z" />
<glyph unicode="&#xa2;" d="M143 348v443q0 172 107.5 260t259.5 88h2v143h307v-143h2q154 0 260.5 -88t106.5 -260v-68l-369 -92v92q0 78 -92 78h-123q-92 0 -92 -78v-301q0 -78 92 -78h123q92 0 92 78v72l369 -103v-43q0 -174 -105.5 -261t-261.5 -87h-2v-143h-307v143h-2q-154 0 -260.5 88 t-106.5 260z" />
<glyph unicode="&#xa3;" d="M39 522v332h156v199q0 178 108.5 263t300.5 85h266q193 0 301.5 -85t108.5 -263v-58l-369 -92v82q0 78 -92 78h-164q-92 0 -92 -78v-131h287l-92 -332h-195v-178h656v-344h-1024v522h-156z" />
<glyph unicode="&#xa4;" d="M102 377l166 166q-33 74 -32.5 172t32.5 172l-166 166l226 225l170 -170q86 31 168 31t168 -31l170 170l225 -225l-166 -166q33 -82 33 -172t-33 -172l166 -166l-225 -225l-170 170q-76 -31 -168.5 -31t-167.5 31l-170 -170zM553 715q0 -51 30.5 -82t82 -31t82 31 t30.5 82t-30.5 81.5t-82 30.5t-82 -30.5t-30.5 -81.5z" />
<glyph unicode="&#xa5;" d="M80 987v414h369v-275l217 -239l217 239v275h368v-414l-313 -272v-4h240l-82 -236h-246v-74h219l-82 -235h-137v-166h-369v166h-137l-82 235h219v74h-245l-82 236h239v4z" />
<glyph unicode="&#xa6;" d="M481 -186v749h369v-749h-369zM481 840v716h369v-716h-369z" />
<glyph unicode="&#xa7;" d="M156 121v35l368 92v-41q0 -66 92 -66h144q92 0 92 66v22q0 39 -21.5 53.5t-70.5 14.5h-203q-190 0 -295.5 82t-105.5 246v47q0 193 141 262q-141 70 -141 237v48q0 170 117.5 253.5t312.5 83.5h225q186 0 298 -81.5t112 -225.5v-26l-369 -93v44q0 66 -92 65h-144 q-92 0 -92 -65v-25q0 -39 21.5 -53.5t70.5 -14.5h203q190 0 296 -81.5t106 -245.5v-47q0 -190 -142 -263q141 -72 142 -237v-55q0 -170 -118 -254t-312 -84h-226q-186 0 -297.5 82t-111.5 225zM524 672q0 -68 92 -68h144q92 0 92 68v35q0 68 -92 67h-144q-92 0 -92 -67v-35z " />
<glyph unicode="&#xa8;" d="M287 1286v277h317v-277h-317zM727 1286v277h317v-277h-317z" />
<glyph unicode="&#xa9;" d="M31 348v705q0 178 108.5 263t300.5 85h451q193 0 301 -85t108 -263v-705q0 -178 -108.5 -263t-300.5 -85h-451q-193 0 -301 85t-108 263zM328 436q0 -68 40 -108.5t103 -40.5h389q63 0 103.5 41t40.5 108v529q0 68 -40 108.5t-104 40.5h-389q-63 0 -103 -41t-40 -108 v-529zM399 606v199q0 125 50.5 175t185.5 50h70q135 0 182 -47t47 -166v-35l-205 -51v35q0 39 -45 39h-22q-47 0 -48 -39v-141q0 -37 48 -37h22q45 0 45 37v63l205 -53v-47q0 -125 -51.5 -175.5t-188.5 -50.5h-59q-137 0 -186.5 52.5t-49.5 191.5z" />
<glyph unicode="&#xaa;" d="M317 965v34q0 109 48.5 159t158.5 50h47q100 0 170 -43h9v39q0 55 -50 56h-51q-39 0 -39 -25v-8l-256 51v14q0 70 60.5 116t150.5 46h209q240 0 240 -217v-469h-264v53h-9q-59 -68 -180 -67h-37q-111 0 -159 51t-48 160zM565 979q0 -31 49 -31h45q39 0 62.5 11.5 t23.5 25.5v8q0 14 -23.5 25.5t-62.5 11.5h-45q-49 0 -49 -33v-18z" />
<glyph unicode="&#xab;" d="M94 172l248 449l-248 448h367l256 -448l-256 -449h-367zM627 172l247 449l-247 448h366l256 -448l-256 -449h-366z" />
<glyph unicode="&#xac;" d="M160 473v338h1011v-682h-378v344h-633z" />
<glyph unicode="&#xad;" d="M315 473v338h701v-338h-701z" />
<glyph unicode="&#xae;" d="M117 909v555q0 135 83 201t230 66h471q147 0 230 -66t83 -201v-555q0 -133 -83.5 -199.5t-229.5 -66.5h-471q-145 0 -229 66.5t-84 199.5zM362 948q0 -35 25 -57.5t68 -22.5h422q41 0 66.5 22.5t25.5 57.5v477q0 35 -27 57.5t-65 22.5h-422q-43 0 -68 -22.5t-25 -57.5 v-477zM438 930v512h320q145 0 145 -129v-74q0 -39 -20.5 -69.5t-48.5 -43.5v-4l69 -82v-110h-174v76l-61 84h-56v-160h-174zM612 1223h86q31 0 31 26v23q0 27 -31 26h-86v-75z" />
<glyph unicode="&#xaf;" d="M330 1294v260h671v-260h-671z" />
<glyph unicode="&#xb0;" d="M236 1253.5q0 184.5 121.5 304t308 119.5t308.5 -119.5t122 -304t-122 -304.5t-308.5 -120t-308 120t-121.5 304.5zM553 1253.5q0 -53.5 30.5 -83t82 -29.5t82 29.5t30.5 83t-30.5 83t-82 29.5t-82 -29.5t-30.5 -83z" />
<glyph unicode="&#xb1;" d="M205 61v338h921v-338h-921zM205 735v338h276v266h369v-266h276v-338h-276v-266h-369v266h-276z" />
<glyph unicode="&#xb2;" d="M354 1233v57q0 82 59.5 123t153.5 41h211q88 0 140.5 -49t52.5 -133v-64q0 -63 -16.5 -98t-63.5 -72l-139 -104h225v-217h-596v184l301 234q35 23 35 55v8q0 43 -49 43h-33q-43 0 -43 -31v-34z" />
<glyph unicode="&#xb3;" d="M352 881v63l238 43v-22q0 -31 43 -31h47q45 0 45 33v8q0 31 -45 31h-57v165h57q45 0 45 31v6q0 18 -9 25.5t-36 7.5h-47q-43 0 -43 -31v-20l-238 43v57q0 82 59.5 123t153.5 41h221q88 0 140.5 -49t52.5 -133v-68q0 -35 -20.5 -69.5t-61.5 -47.5q41 -10 61.5 -44.5 t20.5 -69.5v-72q0 -86 -52.5 -135t-140.5 -49h-221q-94 0 -153.5 41t-59.5 123z" />
<glyph unicode="&#xb4;" d="M381 1286l217 277h352l-217 -277h-352z" />
<glyph unicode="&#xb5;" d="M147 -348v1487h369v-635q0 -76 47 -118t115 -42h53q113 0 113 129v666h368v-781q0 -180 -89 -269t-246 -89h-95q-176 0 -260 94h-6v-442h-369z" />
<glyph unicode="&#xb7;" d="M471 473v369h389v-369h-389z" />
<glyph unicode="&#xb8;" d="M395 -348l94 231h111q49 0 49 43v33h287v-68q0 -117 -62.5 -178t-211.5 -61h-267z" />
<glyph unicode="&#xb9;" d="M399 717v217h140v307h-138v213h392v-520h139v-217h-533z" />
<glyph unicode="&#xba;" d="M309 942v287q0 225 264 225h185q264 0 264 -225v-287q0 -225 -264 -225h-185q-264 0 -264 225zM567 985q0 -51 60 -51h78q59 0 59 51v205q0 51 -59 51h-78q-59 0 -60 -51v-205z" />
<glyph unicode="&#xbb;" d="M82 621l256 448h367l-248 -448l248 -449h-367zM614 621l256 448h367l-248 -448l248 -449h-367z" />
<glyph unicode="&#xbc;" d="M0 717v217h119v307h-117v213h371v-520h119v-217h-492zM35 80l1081 1397l170 -136l-1081 -1394zM621 57v209l348 424h280v-418h82v-215h-82v-104h-237v104h-391zM901 272h111v129h-11z" />
<glyph unicode="&#xbd;" d="M0 717v217h119v307h-117v213h371v-520h119v-217h-492zM35 80l1081 1397l170 -136l-1081 -1394zM729 449v77q0 82 59.5 123t153.5 41h191q88 0 140 -49t52 -133v-64q0 -63 -16.5 -98t-63.5 -72l-139 -104h225v-217h-596v184l301 234q35 23 35 55v8q0 43 -49 43h-33 q-43 0 -43 -31v-34z" />
<glyph unicode="&#xbe;" d="M-6 881v63l207 43v-22q0 -31 43 -31h67q45 0 45 33v18q0 31 -45 31h-78v145h78q45 0 45 31v16q0 18 -9 25.5t-36 7.5h-67q-43 0 -43 -31v-20l-207 43v57q0 82 59.5 123t153.5 41h190q88 0 140.5 -49t52.5 -133v-68q0 -35 -20.5 -69.5t-61.5 -47.5q41 -10 61.5 -44.5 t20.5 -69.5v-72q0 -86 -52.5 -135t-140.5 -49h-190q-94 0 -153.5 41t-59.5 123zM82 80l1081 1397l170 -136l-1081 -1394zM621 57v209l348 424h280v-418h82v-215h-82v-104h-237v104h-391zM901 272h111v129h-11z" />
<glyph unicode="&#xbf;" d="M143 10v137q0 166 88 253t201 87h41q82 0 82 72v37h369v-139q0 -139 -74 -220t-199 -81h-47q-92 0 -92 -66v-22q0 -78 92 -78h164q92 0 92 78v51l369 -92v-27q0 -178 -108.5 -263t-301.5 -85h-246q-195 0 -312.5 90t-117.5 268zM555 694v359h369v-359h-369z" />
<glyph unicode="&#xc0;" d="M70 0v375l405 1026h381l406 -1026v-375h-369v319v7h-455v-7v-319h-368zM319 1788h353l217 -277h-352zM547 653h235l-110 326h-13z" />
<glyph unicode="&#xc1;" d="M70 0v375l405 1026h381l406 -1026v-375h-369v319v7h-455v-7v-319h-368zM442 1511l217 277h353l-217 -277h-353zM547 653h235l-110 326h-13z" />
<glyph unicode="&#xc2;" d="M70 0v375l405 1026h381l406 -1026v-375h-369v319v7h-455v-7v-319h-368zM281 1501l239 297h291l240 -297h-326l-47 84h-25l-47 -84h-325zM547 653h235l-110 326h-13z" />
<glyph unicode="&#xc3;" d="M70 0v375l405 1026h381l406 -1026v-375h-369v319v7h-455v-7v-319h-368zM262 1491q0 137 72 227t215 90q68 0 126 -28.5t73 -28.5q53 0 53 57h266q0 -137 -71.5 -227t-215.5 -90q-68 0 -126 28.5t-72 28.5q-53 0 -54 -57h-266zM547 653h235l-110 326h-13z" />
<glyph unicode="&#xc4;" d="M70 0v375l405 1026h381l406 -1026v-375h-369v319v7h-455v-7v-319h-368zM287 1511v277h317v-277h-317zM547 653h235l-110 326h-13zM727 1511v277h317v-277h-317z" />
<glyph unicode="&#xc5;" d="M70 0v375l405 1026h381l406 -1026v-375h-369v319v7h-455v-7v-319h-368zM428 1671.5q0 100.5 66.5 165t169 64.5t169 -64.5t66.5 -165t-66.5 -165t-169 -64.5t-169 64.5t-66.5 165zM547 653h235l-110 326h-13zM602 1671q0 -29 16.5 -45t45.5 -16q61 0 61 61.5t-61.5 61 t-61.5 -61.5z" />
<glyph unicode="&#xc6;" d="M8 0v399l520 1002h779v-338h-308v-178h218v-332h-218v-209h308v-344h-676v334h-254v-15v-319h-369zM500 621h131v251h-19z" />
<glyph unicode="&#xc7;" d="M123 348v705q0 178 108.5 263t300.5 85h267q193 0 301 -85t108 -263v-129l-368 -93v154q0 78 -92 78h-164q-92 0 -92 -78v-563q0 -78 92 -78h164q92 0 92 78v178l368 -102v-150q0 -178 -108.5 -263t-300.5 -85h-267q-193 0 -301 85t-108 263zM307 -348h266 q150 0 212.5 61.5t62.5 177.5v68h-287v-33q0 -43 -49 -43h-111z" />
<glyph unicode="&#xc8;" d="M158 0v1401h1003v-338h-635v-178h504v-332h-504v-209h635v-344h-1003zM319 1788h353l217 -277h-352z" />
<glyph unicode="&#xc9;" d="M158 0v1401h1003v-338h-635v-178h504v-332h-504v-209h635v-344h-1003zM442 1511l217 277h353l-217 -277h-353z" />
<glyph unicode="&#xca;" d="M158 0v1401h1003v-338h-635v-178h504v-332h-504v-209h635v-344h-1003zM281 1501l239 297h291l240 -297h-326l-47 84h-25l-47 -84h-325z" />
<glyph unicode="&#xcb;" d="M158 0v1401h1003v-338h-635v-178h504v-332h-504v-209h635v-344h-1003zM287 1511v277h317v-277h-317zM727 1511v277h317v-277h-317z" />
<glyph unicode="&#xcc;" d="M133 0v344h348v719h-327v338h1024v-338h-328v-719h348v-344h-1065zM319 1788h353l217 -277h-352z" />
<glyph unicode="&#xcd;" d="M133 0v344h348v719h-327v338h1024v-338h-328v-719h348v-344h-1065zM442 1511l217 277h353l-217 -277h-353z" />
<glyph unicode="&#xce;" d="M133 0v344h348v719h-327v338h1024v-338h-328v-719h348v-344h-1065zM281 1501l239 297h291l240 -297h-326l-47 84h-25l-47 -84h-325z" />
<glyph unicode="&#xcf;" d="M133 0v344h348v719h-327v338h1024v-338h-328v-719h348v-344h-1065zM287 1511v277h317v-277h-317zM727 1511v277h317v-277h-317z" />
<glyph unicode="&#xd0;" d="M45 543v327h115v531h665q399 0 400 -348v-705q0 -348 -400 -348h-665v543h-115zM528 344h236q92 0 92 78v563q0 78 -92 78h-236v-193h193v-327h-193v-199z" />
<glyph unicode="&#xd1;" d="M102 0v1401h355l387 -719h16v719h369v-1401h-359l-383 688h-16v-688h-369zM262 1491q0 137 72 227t215 90q68 0 126 -28.5t73 -28.5q53 0 53 57h266q0 -137 -71.5 -227t-215.5 -90q-68 0 -126 28.5t-72 28.5q-53 0 -54 -57h-266z" />
<glyph unicode="&#xd2;" d="M102 348v705q0 178 108.5 263t301.5 85h307q193 0 301.5 -85t108.5 -263v-705q0 -178 -108.5 -263t-301.5 -85h-307q-193 0 -301.5 85t-108.5 263zM319 1788h353l217 -277h-352zM471 422q0 -78 92 -78h205q92 0 92 78v563q0 78 -92 78h-205q-92 0 -92 -78v-563z" />
<glyph unicode="&#xd3;" d="M102 348v705q0 178 108.5 263t301.5 85h307q193 0 301.5 -85t108.5 -263v-705q0 -178 -108.5 -263t-301.5 -85h-307q-193 0 -301.5 85t-108.5 263zM442 1511l217 277h353l-217 -277h-353zM471 422q0 -78 92 -78h205q92 0 92 78v563q0 78 -92 78h-205q-92 0 -92 -78v-563z " />
<glyph unicode="&#xd4;" d="M102 348v705q0 178 108.5 263t301.5 85h307q193 0 301.5 -85t108.5 -263v-705q0 -178 -108.5 -263t-301.5 -85h-307q-193 0 -301.5 85t-108.5 263zM281 1501l239 297h291l240 -297h-326l-47 84h-25l-47 -84h-325zM471 422q0 -78 92 -78h205q92 0 92 78v563q0 78 -92 78 h-205q-92 0 -92 -78v-563z" />
<glyph unicode="&#xd5;" d="M102 348v705q0 178 108.5 263t301.5 85h307q193 0 301.5 -85t108.5 -263v-705q0 -178 -108.5 -263t-301.5 -85h-307q-193 0 -301.5 85t-108.5 263zM262 1491q0 137 72 227t215 90q68 0 126 -28.5t73 -28.5q53 0 53 57h266q0 -137 -71.5 -227t-215.5 -90q-68 0 -126 28.5 t-72 28.5q-53 0 -54 -57h-266zM471 422q0 -78 92 -78h205q92 0 92 78v563q0 78 -92 78h-205q-92 0 -92 -78v-563z" />
<glyph unicode="&#xd6;" d="M102 348v705q0 178 108.5 263t301.5 85h307q193 0 301.5 -85t108.5 -263v-705q0 -178 -108.5 -263t-301.5 -85h-307q-193 0 -301.5 85t-108.5 263zM287 1511v277h317v-277h-317zM471 422q0 -78 92 -78h205q92 0 92 78v563q0 78 -92 78h-205q-92 0 -92 -78v-563zM727 1511 v277h317v-277h-317z" />
<glyph unicode="&#xd7;" d="M176 391l256 256l-256 258l232 232l256 -256l258 256l231 -232l-256 -258l256 -256l-231 -231l-258 256l-256 -256z" />
<glyph unicode="&#xd8;" d="M-8 -168l166 285q-76 82 -76 231v705q0 178 109.5 263t300.5 85h348q23 0 63 -4l101 172h335l-165 -285q76 -88 75 -231v-705q0 -180 -109.5 -264t-299.5 -84h-348q-45 0 -66 2l-98 -170h-336zM461 637l254 436h-53h-109q-92 0 -92 -78v-286v-72zM623 338h77h78 q92 0 92 78v332v16z" />
<glyph unicode="&#xd9;" d="M123 348v1053h369v-979q0 -78 92 -78h164q92 0 92 78v979h368v-1053q0 -178 -108.5 -263t-300.5 -85h-267q-193 0 -301 85t-108 263zM319 1788h353l217 -277h-352z" />
<glyph unicode="&#xda;" d="M123 348v1053h369v-979q0 -78 92 -78h164q92 0 92 78v979h368v-1053q0 -178 -108.5 -263t-300.5 -85h-267q-193 0 -301 85t-108 263zM442 1511l217 277h353l-217 -277h-353z" />
<glyph unicode="&#xdb;" d="M123 348v1053h369v-979q0 -78 92 -78h164q92 0 92 78v979h368v-1053q0 -178 -108.5 -263t-300.5 -85h-267q-193 0 -301 85t-108 263zM281 1501l239 297h291l240 -297h-326l-47 84h-25l-47 -84h-325z" />
<glyph unicode="&#xdc;" d="M123 348v1053h369v-979q0 -78 92 -78h164q92 0 92 78v979h368v-1053q0 -178 -108.5 -263t-300.5 -85h-267q-193 0 -301 85t-108 263zM287 1511v277h317v-277h-317zM727 1511v277h317v-277h-317z" />
<glyph unicode="&#xdd;" d="M78 987v414h368v-279l218 -235l217 235v279h368v-414l-399 -395v-592h-369v592zM442 1511l217 277h353l-217 -277h-353z" />
<glyph unicode="&#xde;" d="M174 0v1401h369v-207h266q193 0 301.5 -85t108.5 -263v-234q0 -178 -109 -263t-301 -85h-266v-264h-369zM543 596h215q43 0 67.5 28.5t24.5 69.5v84q0 78 -92 78h-215v-260z" />
<glyph unicode="&#xdf;" d="M70 543v327h106v183q0 178 108.5 263t301.5 85h266q193 0 301.5 -85t108.5 -263v-101q0 -193 -179 -245q90 -27 134.5 -99.5t44.5 -146.5v-113q0 -178 -109 -263t-301 -85h-121l-90 344h160q92 0 92 78v43q0 78 -92 78h-113v327h113q92 0 92 84v31q0 78 -92 78h-164 q-92 0 -92 -78v-985h-369v543h-106z" />
<glyph unicode="&#xe0;" d="M137 330v78q0 168 91 247.5t249 79.5h39q190 0 281 -67h6v82q0 92 -103 92h-100q-63 0 -63 -49v-27l-349 82v26q0 119 103.5 192t279.5 73h160q188 0 304 -99.5t116 -279.5v-760h-348v74h-6q-90 -74 -260 -74h-60q-340 0 -340 330zM319 1522h353l217 -277h-352zM485 367 q0 -63 82 -64h92q143 0 144 64v18q0 63 -144 64h-92q-82 0 -82 -64v-18z" />
<glyph unicode="&#xe1;" d="M137 330v78q0 168 91 247.5t249 79.5h39q190 0 281 -67h6v82q0 92 -103 92h-100q-63 0 -63 -49v-27l-349 82v26q0 119 103.5 192t279.5 73h160q188 0 304 -99.5t116 -279.5v-760h-348v74h-6q-90 -74 -260 -74h-60q-340 0 -340 330zM442 1245l217 277h353l-217 -277h-353z M485 367q0 -63 82 -64h92q143 0 144 64v18q0 63 -144 64h-92q-82 0 -82 -64v-18z" />
<glyph unicode="&#xe2;" d="M137 330v78q0 168 91 247.5t249 79.5h39q190 0 281 -67h6v82q0 92 -103 92h-100q-63 0 -63 -49v-27l-349 82v26q0 119 103.5 192t279.5 73h160q188 0 304 -99.5t116 -279.5v-760h-348v74h-6q-90 -74 -260 -74h-60q-340 0 -340 330zM281 1235l239 297h291l240 -297h-326 l-47 84h-25l-47 -84h-325zM485 367q0 -63 82 -64h92q143 0 144 64v18q0 63 -144 64h-92q-82 0 -82 -64v-18z" />
<glyph unicode="&#xe3;" d="M137 330v78q0 168 91 247.5t249 79.5h39q190 0 281 -67h6v82q0 92 -103 92h-100q-63 0 -63 -49v-27l-349 82v26q0 119 103.5 192t279.5 73h160q188 0 304 -99.5t116 -279.5v-760h-348v74h-6q-90 -74 -260 -74h-60q-340 0 -340 330zM262 1225q0 137 72 227t215 90 q68 0 126 -28.5t73 -28.5q53 0 53 57h266q0 -137 -71.5 -227t-215.5 -90q-68 0 -126 28.5t-72 28.5q-53 0 -54 -57h-266zM485 367q0 -63 82 -64h92q143 0 144 64v18q0 63 -144 64h-92q-82 0 -82 -64v-18z" />
<glyph unicode="&#xe4;" d="M137 330v78q0 168 91 247.5t249 79.5h39q190 0 281 -67h6v82q0 92 -103 92h-100q-63 0 -63 -49v-27l-349 82v26q0 119 103.5 192t279.5 73h160q188 0 304 -99.5t116 -279.5v-760h-348v74h-6q-90 -74 -260 -74h-60q-340 0 -340 330zM287 1245v277h317v-277h-317zM485 367 q0 -63 82 -64h92q143 0 144 64v18q0 63 -144 64h-92q-82 0 -82 -64v-18zM727 1245v277h317v-277h-317z" />
<glyph unicode="&#xe5;" d="M137 330v78q0 168 91 247.5t249 79.5h39q190 0 281 -67h6v82q0 92 -103 92h-100q-63 0 -63 -49v-27l-349 82v26q0 119 103.5 192t279.5 73h160q188 0 304 -99.5t116 -279.5v-760h-348v74h-6q-90 -74 -260 -74h-60q-340 0 -340 330zM428 1425.5q0 100.5 66.5 165t169 64.5 t169 -64.5t66.5 -165t-66.5 -165t-169 -64.5t-169 64.5t-66.5 165zM485 367q0 -63 82 -64h92q143 0 144 64v18q0 63 -144 64h-92q-82 0 -82 -64v-18zM602 1425q0 -29 16.5 -45t45.5 -16q61 0 61 61.5t-61.5 61t-61.5 -61.5z" />
<glyph unicode="&#xe6;" d="M25 336v94q0 176 79.5 241.5t282.5 63.5h117v39q0 37 -14.5 52.5t-57.5 15.5h-35q-53 0 -53 -43v-23l-299 84v14q0 115 72.5 190t222.5 75h117q160 0 219 -101h8q59 100 223 101h74q176 0 252 -102.5t76 -295.5v-292h-447v-68q0 -78 45 -78h62q51 0 51 70v30l289 -86v-8 q0 -147 -58.5 -228t-228.5 -81h-104q-86 0 -147.5 28.5t-86.5 71.5h-8q-59 -100 -219 -100h-101q-172 0 -251.5 78t-79.5 258zM350 362q0 -33 11.5 -46t48.5 -13h41q66 0 65 72v74h-94q-72 0 -72 -54v-33zM862 735h158v33q0 39 -12.5 56.5t-46.5 17.5h-33q-66 0 -66 -72v-35 z" />
<glyph unicode="&#xe7;" d="M143 348v443q0 178 108.5 263t301.5 85h215q193 0 301.5 -85t108.5 -263v-68l-369 -92v92q0 78 -92 78h-113q-92 0 -92 -78v-301q0 -78 92 -78h113q92 0 92 78v72l369 -103v-43q0 -178 -108.5 -263t-301.5 -85h-215q-193 0 -301.5 85t-108.5 263zM307 -348h266 q150 0 212.5 61.5t62.5 177.5v68h-287v-33q0 -43 -49 -43h-111z" />
<glyph unicode="&#xe8;" d="M160 348v443q0 178 108.5 263t300.5 85h183q188 0 298.5 -97.5t110.5 -277.5v-322h-653v-57q0 -82 92 -82h113q100 0 100 57v46l348 -62v-41q0 -166 -113.5 -234.5t-316.5 -68.5h-162q-193 0 -301 85t-108 263zM319 1522h353l217 -277h-352zM508 719h305v39 q0 41 -18.5 62.5t-73.5 21.5h-121q-55 0 -73.5 -20.5t-18.5 -59.5v-43z" />
<glyph unicode="&#xe9;" d="M160 348v443q0 178 108.5 263t300.5 85h183q188 0 298.5 -97.5t110.5 -277.5v-322h-653v-57q0 -82 92 -82h113q100 0 100 57v46l348 -62v-41q0 -166 -113.5 -234.5t-316.5 -68.5h-162q-193 0 -301 85t-108 263zM442 1245l217 277h353l-217 -277h-353zM508 719h305v39 q0 41 -18.5 62.5t-73.5 21.5h-121q-55 0 -73.5 -20.5t-18.5 -59.5v-43z" />
<glyph unicode="&#xea;" d="M160 348v443q0 178 108.5 263t300.5 85h183q188 0 298.5 -97.5t110.5 -277.5v-322h-653v-57q0 -82 92 -82h113q100 0 100 57v46l348 -62v-41q0 -166 -113.5 -234.5t-316.5 -68.5h-162q-193 0 -301 85t-108 263zM281 1235l239 297h291l240 -297h-326l-47 84h-25l-47 -84 h-325zM508 719h305v39q0 41 -18.5 62.5t-73.5 21.5h-121q-55 0 -73.5 -20.5t-18.5 -59.5v-43z" />
<glyph unicode="&#xeb;" d="M160 348v443q0 178 108.5 263t300.5 85h183q188 0 298.5 -97.5t110.5 -277.5v-322h-653v-57q0 -82 92 -82h113q100 0 100 57v46l348 -62v-41q0 -166 -113.5 -234.5t-316.5 -68.5h-162q-193 0 -301 85t-108 263zM287 1245v277h317v-277h-317zM508 719h305v39 q0 41 -18.5 62.5t-73.5 21.5h-121q-55 0 -73.5 -20.5t-18.5 -59.5v-43zM727 1245v277h317v-277h-317z" />
<glyph unicode="&#xec;" d="M111 0v344h401v457h-362v338h731v-795h340v-344h-1110zM319 1522h353l217 -277h-352z" />
<glyph unicode="&#xed;" d="M111 0v344h401v457h-362v338h731v-795h340v-344h-1110zM442 1245l217 277h353l-217 -277h-353z" />
<glyph unicode="&#xee;" d="M111 0v344h401v457h-362v338h731v-795h340v-344h-1110zM281 1235l239 297h291l240 -297h-326l-47 84h-25l-47 -84h-325z" />
<glyph unicode="&#xef;" d="M111 0v344h401v457h-362v338h731v-795h340v-344h-1110zM287 1245v277h317v-277h-317zM727 1245v277h317v-277h-317z" />
<glyph unicode="&#xf0;" d="M154 348v279q0 178 108.5 263t300.5 85h88q35 0 51 -4l3 2l-48 90h-204l-134 254h211l-69 137h366l66 -137h160l123 -254h-162l116 -242q47 -98 48 -194v-279q0 -178 -108.5 -263t-301.5 -85h-205q-409 0 -409 348zM522 422q0 -78 92 -78h103q92 0 92 78v147q0 78 -92 78 h-103q-92 0 -92 -78v-147z" />
<glyph unicode="&#xf1;" d="M133 0v1139h369v-95h6q84 94 260 95h94q158 0 247 -90.5t89 -268.5v-780h-369v672q0 129 -112 129h-53q-68 0 -115 -42t-47 -118v-641h-369zM262 1225q0 137 72 227t215 90q68 0 126 -28.5t73 -28.5q53 0 53 57h266q0 -137 -71.5 -227t-215.5 -90q-68 0 -126 28.5 t-72 28.5q-53 0 -54 -57h-266z" />
<glyph unicode="&#xf2;" d="M143 348v443q0 178 108.5 263t301.5 85h225q193 0 301.5 -85t108.5 -263v-443q0 -178 -108.5 -263t-301.5 -85h-225q-193 0 -301.5 85t-108.5 263zM319 1522h353l217 -277h-352zM512 422q0 -78 92 -78h123q92 0 92 78v301q0 78 -92 78h-123q-92 0 -92 -78v-301z" />
<glyph unicode="&#xf3;" d="M143 348v443q0 178 108.5 263t301.5 85h225q193 0 301.5 -85t108.5 -263v-443q0 -178 -108.5 -263t-301.5 -85h-225q-193 0 -301.5 85t-108.5 263zM442 1245l217 277h353l-217 -277h-353zM512 422q0 -78 92 -78h123q92 0 92 78v301q0 78 -92 78h-123q-92 0 -92 -78v-301z " />
<glyph unicode="&#xf4;" d="M143 348v443q0 178 108.5 263t301.5 85h225q193 0 301.5 -85t108.5 -263v-443q0 -178 -108.5 -263t-301.5 -85h-225q-193 0 -301.5 85t-108.5 263zM281 1235l239 297h291l240 -297h-326l-47 84h-25l-47 -84h-325zM512 422q0 -78 92 -78h123q92 0 92 78v301q0 78 -92 78 h-123q-92 0 -92 -78v-301z" />
<glyph unicode="&#xf5;" d="M143 348v443q0 178 108.5 263t301.5 85h225q193 0 301.5 -85t108.5 -263v-443q0 -178 -108.5 -263t-301.5 -85h-225q-193 0 -301.5 85t-108.5 263zM262 1225q0 137 72 227t215 90q68 0 126 -28.5t73 -28.5q53 0 53 57h266q0 -137 -71.5 -227t-215.5 -90q-68 0 -126 28.5 t-72 28.5q-53 0 -54 -57h-266zM512 422q0 -78 92 -78h123q92 0 92 78v301q0 78 -92 78h-123q-92 0 -92 -78v-301z" />
<glyph unicode="&#xf6;" d="M143 348v443q0 178 108.5 263t301.5 85h225q193 0 301.5 -85t108.5 -263v-443q0 -178 -108.5 -263t-301.5 -85h-225q-193 0 -301.5 85t-108.5 263zM287 1245v277h317v-277h-317zM512 422q0 -78 92 -78h123q92 0 92 78v301q0 78 -92 78h-123q-92 0 -92 -78v-301zM727 1245 v277h317v-277h-317z" />
<glyph unicode="&#xf7;" d="M119 473v338h1093v-338h-1093zM471 35v358h389v-358h-389zM471 891v358h389v-358h-389z" />
<glyph unicode="&#xf8;" d="M-20 -168l208 297q-66 82 -65 219v443q0 348 409 348h267q51 0 94 -6l123 174h336l-209 -297q66 -88 65 -219v-443q0 -178 -108.5 -263t-300.5 -85h-267q-49 0 -96 6l-121 -174h-335zM471 530l211 301h-39h-80q-92 0 -92 -77v-168v-56zM655 317h56h57q92 0 92 78v142v69z " />
<glyph unicode="&#xf9;" d="M133 358v781h369v-666q0 -129 112 -129h54q68 0 114.5 42t46.5 118v635h369v-1139h-369v94h-6q-84 -94 -260 -94h-94q-158 0 -247 89t-89 269zM319 1522h353l217 -277h-352z" />
<glyph unicode="&#xfa;" d="M133 358v781h369v-666q0 -129 112 -129h54q68 0 114.5 42t46.5 118v635h369v-1139h-369v94h-6q-84 -94 -260 -94h-94q-158 0 -247 89t-89 269zM442 1245l217 277h353l-217 -277h-353z" />
<glyph unicode="&#xfb;" d="M133 358v781h369v-666q0 -129 112 -129h54q68 0 114.5 42t46.5 118v635h369v-1139h-369v94h-6q-84 -94 -260 -94h-94q-158 0 -247 89t-89 269zM281 1235l239 297h291l240 -297h-326l-47 84h-25l-47 -84h-325z" />
<glyph unicode="&#xfc;" d="M133 358v781h369v-666q0 -129 112 -129h54q68 0 114.5 42t46.5 118v635h369v-1139h-369v94h-6q-84 -94 -260 -94h-94q-158 0 -247 89t-89 269zM287 1245v277h317v-277h-317zM727 1245v277h317v-277h-317z" />
<glyph unicode="&#xfd;" d="M133 -131v-23q0 -172 108.5 -255t299.5 -83h221q197 0 316.5 86.5t119.5 262.5v1282h-369v-635q0 -76 -47 -118t-114 -42h-54q-113 0 -112 129v666h-369v-781q0 -180 89 -269t247 -89h94q176 0 260 94h6v-180q0 -78 -92 -78h-143q-92 0 -92 78v47zM442 1245l217 277h353 l-217 -277h-353z" />
<glyph unicode="&#xfe;" d="M184 -348v1749h369v-357h6q84 94 260 95h94q158 0 247 -90.5t89 -268.5v-422q0 -180 -89 -269t-247 -89h-94q-176 0 -260 94h-6v-442h-369zM553 504q0 -76 47 -118t115 -42h53q113 0 113 129v199q0 129 -113 129h-53q-68 0 -115 -42t-47 -118v-137z" />
<glyph unicode="&#xff;" d="M133 -131v-23q0 -172 108.5 -255t299.5 -83h221q197 0 316.5 86.5t119.5 262.5v1282h-369v-635q0 -76 -47 -118t-114 -42h-54q-113 0 -112 129v666h-369v-781q0 -180 89 -269t247 -89h94q176 0 260 94h6v-180q0 -78 -92 -78h-143q-92 0 -92 78v47zM287 1245v277h317v-277 h-317zM727 1245v277h317v-277h-317z" />
<glyph unicode="&#x152;" d="M29 348v705q0 170 105.5 259t279.5 89h30q162 0 222 -80h6v80h635v-338h-308v-178h218v-332h-218v-209h308v-344h-635v80h-6q-59 -80 -222 -80h-30q-174 0 -279.5 89t-105.5 259zM397 422q0 -78 92 -78h31q131 0 131 178v357q0 82 -30.5 133t-90.5 51h-41q-92 0 -92 -78 v-563z" />
<glyph unicode="&#x153;" d="M25 338v453q0 186 77.5 267t259.5 81h84q170 0 230 -101h8q59 100 223 101h74q176 0 252 -102.5t76 -295.5v-292h-447v-68q0 -78 45 -78h62q51 0 51 70v30l289 -86v-8q0 -147 -58.5 -228t-228.5 -81h-104q-86 0 -147.5 28.5t-86.5 71.5h-8q-59 -100 -230 -100h-79 q-184 0 -263 77t-79 261zM328 375q0 -39 16 -55.5t55 -16.5h31q39 0 60.5 27.5t21.5 75.5v333q0 47 -21.5 75t-60.5 28h-31q-39 0 -55 -16.5t-16 -55.5v-395zM862 735h158v33q0 39 -12.5 56.5t-46.5 17.5h-33q-66 0 -66 -72v-35z" />
<glyph unicode="&#x178;" d="M80 987v414h369v-279l217 -235l217 235v279h368v-414l-399 -395v-592h-369v592zM287 1511v277h317v-277h-317zM727 1511v277h317v-277h-317z" />
<glyph unicode="&#x2c6;" d="M281 1276l239 297h291l240 -297h-326l-47 84h-25l-47 -84h-325z" />
<glyph unicode="&#x2dc;" d="M262 1266q0 137 72 227t215 90q68 0 126 -28.5t73 -28.5q53 0 53 57h266q0 -137 -71.5 -227t-215.5 -90q-68 0 -126 28.5t-72 28.5q-53 0 -54 -57h-266z" />
<glyph unicode="&#x2000;" horiz-adv-x="950" />
<glyph unicode="&#x2001;" horiz-adv-x="1900" />
<glyph unicode="&#x2002;" horiz-adv-x="950" />
<glyph unicode="&#x2003;" horiz-adv-x="1900" />
<glyph unicode="&#x2004;" horiz-adv-x="632" />
<glyph unicode="&#x2005;" horiz-adv-x="475" />
<glyph unicode="&#x2006;" horiz-adv-x="315" />
<glyph unicode="&#x2007;" horiz-adv-x="315" />
<glyph unicode="&#x2008;" horiz-adv-x="237" />
<glyph unicode="&#x2009;" horiz-adv-x="378" />
<glyph unicode="&#x200a;" horiz-adv-x="104" />
<glyph unicode="&#x2010;" d="M315 473v338h701v-338h-701z" />
<glyph unicode="&#x2011;" d="M315 473v338h701v-338h-701z" />
<glyph unicode="&#x2012;" d="M315 473v338h701v-338h-701z" />
<glyph unicode="&#x2013;" d="M221 473v338h889v-338h-889z" />
<glyph unicode="&#x2014;" d="M152 473v338h1028v-338h-1028z" />
<glyph unicode="&#x2018;" d="M455 1032v391q0 141 74.5 228.5t215.5 87.5h70l62 -154h-62q-68 0 -110.5 -44t-42.5 -109v-31h182v-369h-389z" />
<glyph unicode="&#x2019;" d="M438 1016h62q68 0 110.5 44t42.5 109v31h-182v369h389v-391q0 -141 -74.5 -228.5t-216.5 -87.5h-69z" />
<glyph unicode="&#x201a;" d="M438 -184h62q68 0 110.5 44t42.5 109v31h-182v369h389v-392q0 -141 -74.5 -228t-216.5 -87h-69z" />
<glyph unicode="&#x201c;" d="M229 1032v391q0 141 75 228.5t216 87.5h70l61 -154h-61q-68 0 -111 -44t-43 -109v-31h182v-369h-389zM713 1032v391q0 141 74.5 228.5t216.5 87.5h69l62 -154h-62q-68 0 -110.5 -44t-42.5 -109v-31h182v-369h-389z" />
<glyph unicode="&#x201d;" d="M197 1016h61q68 0 111 44t43 109v31h-183v369h389v-391q0 -141 -74.5 -228.5t-215.5 -87.5h-70zM680 1016h61q68 0 111 44t43 109v31h-182v369h389v-391q0 -141 -75 -228.5t-216 -87.5h-70z" />
<glyph unicode="&#x201e;" d="M197 -184h61q68 0 111 44t43 109v31h-183v369h389v-392q0 -141 -74.5 -228t-215.5 -87h-70zM680 -184h61q68 0 111 44t43 109v31h-182v369h389v-392q0 -141 -75 -228t-216 -87h-70z" />
<glyph unicode="&#x2022;" d="M379 510v289q0 74 31.5 105.5t105.5 31.5h299q74 0 105.5 -32t31.5 -105v-289q0 -74 -31.5 -105.5t-105.5 -31.5h-299q-74 0 -105.5 31.5t-31.5 105.5z" />
<glyph unicode="&#x2026;" d="M0 0v369h389v-369h-389zM471 0v369h389v-369h-389zM942 0v369h389v-369h-389z" />
<glyph unicode="&#x202f;" horiz-adv-x="378" />
<glyph unicode="&#x2039;" d="M360 172l248 449l-248 448h367l256 -448l-256 -449h-367z" />
<glyph unicode="&#x203a;" d="M348 621l256 448h367l-248 -448l248 -449h-367z" />
<glyph unicode="&#x205f;" horiz-adv-x="475" />
<glyph unicode="&#x20ac;" d="M33 459v211h139v49h-139v211h139v123q0 178 108.5 263t301.5 85h266q193 0 301 -85t108 -263v-47l-368 -93v72q0 78 -92 78h-164q-92 0 -92 -78v-55h274l-51 -211h-223v-49h213l-52 -211h-161v-37q0 -78 92 -78h164q92 0 92 78v76l368 -103v-47q0 -178 -108.5 -263 t-300.5 -85h-266q-193 0 -301.5 85t-108.5 263v111h-139z" />
<glyph unicode="&#x2122;" d="M6 1464v260h823l115 -194h8l113 194h262v-753h-250v321h-12l-82 -159h-72l-82 159h-12v-321h-250v493h-127v-493h-250v493h-184z" />
<glyph unicode="&#xe000;" horiz-adv-x="1140" d="M0 1140h1140v-1140h-1140v1140z" />
<glyph unicode="&#xfb01;" horiz-adv-x="2662" d="M1483 0v344h401v457h-363v338h732v-795h340v-344h-1110zM1884 1286v328h369v-328h-369zM111 520v332h264v201q0 178 108.5 263t300.5 85h406l-80 -338h-274q-92 0 -93 -78v-133h349v-332h-349v-520h-368v520h-264z" />
<glyph unicode="&#xfb02;" horiz-adv-x="2662" d="M1462 0v344h401v719h-362v338h731v-1057h340v-344h-1110zM111 520v332h264v201q0 178 108.5 263t300.5 85h406l-80 -338h-274q-92 0 -93 -78v-133h349v-332h-349v-520h-368v520h-264z" />
<glyph unicode="&#xfb03;" horiz-adv-x="3993" d="M2814 0v344h401v457h-363v338h732v-795h340v-344h-1110zM3215 1286v328h369v-328h-369zM1442 520v332h264v201q0 178 108.5 263t300.5 85h406l-80 -338h-274q-92 0 -93 -78v-133h349v-332h-349v-520h-368v520h-264zM111 520v332h264v201q0 178 108.5 263t300.5 85h406 l-80 -338h-274q-92 0 -93 -78v-133h349v-332h-349v-520h-368v520h-264z" />
<glyph unicode="&#xfb04;" horiz-adv-x="3993" d="M2793 0v344h401v719h-362v338h731v-1057h340v-344h-1110zM1442 520v332h264v201q0 178 108.5 263t300.5 85h406l-80 -338h-274q-92 0 -93 -78v-133h349v-332h-349v-520h-368v520h-264zM111 520v332h264v201q0 178 108.5 263t300.5 85h406l-80 -338h-274q-92 0 -93 -78 v-133h349v-332h-349v-520h-368v520h-264z" />
</font>
</defs>
</svg>
