<?xml version="1.0" encoding="iso-8859-1"?>
<!-- Generator: Adobe Illustrator 19.0.0, SVG Export Plug-In . SVG Version: 6.00 Build 0)  -->
<svg version="1.1" id="Layer_1" xmlns="http://www.w3.org/2000/svg" xmlns:xlink="http://www.w3.org/1999/xlink" x="0px" y="0px"
	 viewBox="0 0 512 512" style="enable-background:new 0 0 512 512;" xml:space="preserve">
<path style="fill:#57C7ED;" d="M256,0C114.616,0,0,114.616,0,256s114.616,256,256,256s256-114.616,256-256S397.384,0,256,0z"/>
<path style="fill:#79D2F1;" d="M276.48,51.195H204.8c-5.652,0-10.24,4.588-10.24,10.24s4.588,10.24,10.24,10.24h10.24v0.015
	c4.163,0.092,7.521,3.482,7.521,7.665c0,4.188-3.354,7.578-7.521,7.665v0.015h-40.96c-5.652,0-10.24,4.588-10.24,10.24
	s4.588,10.24,10.24,10.24h76.8c5.652,0,10.24-4.588,10.24-10.24s-4.588-10.24-10.24-10.24c-4.239,0-7.68-3.441-7.68-7.68
	s3.441-7.68,7.68-7.68h25.6c5.652,0,10.24-4.588,10.24-10.24S282.132,51.195,276.48,51.195z"/>
<path style="fill:#53BDE1;" d="M359.194,157.829c-9.856-9.866-34.57-1.126-46.397,10.716l-45,45.03
	c-4.408-4.086-113.7-43.054-117.632-39.137L135.9,188.677c-3.942,3.937-3.942,10.317,0,14.249l79.908,62.669l-31.488,31.508
	c-2.396,2.396-5.402,6.083-8.576,10.476l-1.254-1.254c-2.012-2.007-30.705-5.632-32.717-3.625l-7.27,7.255
	c-2.007,2.002-2.007,5.248,0,7.255l3.584,3.569l19.22,19.185c-3.809,9.498-5.217,17.746-1.536,21.427
	c3.681,3.691,11.935,2.273,21.443-1.551l18.939,18.898l3.768,3.758c2.007,2.007,5.258,2.007,7.27,0l7.27-7.25
	c2.007-2.012-1.628-30.648-3.635-32.65l-1.239-1.234c4.367-3.164,8.028-6.159,10.414-8.545l31.488-31.514l62.7,79.657
	c3.942,3.932,10.327,3.932,14.264,0l14.264-14.244c3.937-3.932-35.169-113.234-39.204-117.473l44.959-44.989
	C360.315,192.425,369.05,167.69,359.194,157.829L359.194,157.829z M359.194,157.829c-9.856-9.866-34.57-1.126-46.397,10.716
	l-45,45.03c-4.408-4.086-113.7-43.054-117.632-39.137L135.9,188.677c-3.942,3.937-3.942,10.317,0,14.249l79.908,62.669
	l-31.488,31.508c-2.396,2.396-5.402,6.083-8.576,10.476l-1.254-1.254c-2.012-2.007-30.705-5.632-32.717-3.625l-7.27,7.255
	c-2.007,2.002-2.007,5.248,0,7.255l3.584,3.569l19.22,19.185c-3.809,9.498-5.217,17.746-1.536,21.427
	c3.681,3.691,11.935,2.273,21.443-1.551l18.939,18.898l3.768,3.758c2.007,2.007,5.258,2.007,7.27,0l7.27-7.25
	c2.007-2.012-1.628-30.648-3.635-32.65l-1.239-1.234c4.367-3.164,8.028-6.159,10.414-8.545l31.488-31.514l62.7,79.657
	c3.942,3.932,10.327,3.932,14.264,0l14.264-14.244c3.937-3.932-35.169-113.234-39.204-117.473l44.959-44.989
	C360.315,192.425,369.05,167.69,359.194,157.829L359.194,157.829z"/>
<path style="fill:#676767;" d="M199.68,163.835c-5.652,0-10.24,4.588-10.24,10.24s4.588,10.24,10.24,10.24s10.24-4.588,10.24-10.24
	S205.332,163.835,199.68,163.835z M230.4,174.075c-5.652,0-10.24,4.588-10.24,10.24s4.588,10.24,10.24,10.24
	s10.24-4.588,10.24-10.24S236.052,174.075,230.4,174.075z M343.04,281.595c0-5.652-4.588-10.24-10.24-10.24
	s-10.24,4.587-10.24,10.24c0,5.652,4.588,10.24,10.24,10.24C338.452,291.835,343.04,287.252,343.04,281.595z M343.04,302.075
	c-5.652,0-10.24,4.587-10.24,10.24c0,5.652,4.588,10.24,10.24,10.24c5.652,0,10.24-4.588,10.24-10.24
	C353.28,306.662,348.692,302.075,343.04,302.075z M199.68,163.835c-5.652,0-10.24,4.588-10.24,10.24s4.588,10.24,10.24,10.24
	s10.24-4.588,10.24-10.24S205.332,163.835,199.68,163.835z M230.4,174.075c-5.652,0-10.24,4.588-10.24,10.24
	s4.588,10.24,10.24,10.24s10.24-4.588,10.24-10.24S236.052,174.075,230.4,174.075z M343.04,281.595c0-5.652-4.588-10.24-10.24-10.24
	s-10.24,4.587-10.24,10.24c0,5.652,4.588,10.24,10.24,10.24C338.452,291.835,343.04,287.252,343.04,281.595z M343.04,302.075
	c-5.652,0-10.24,4.587-10.24,10.24c0,5.652,4.588,10.24,10.24,10.24c5.652,0,10.24-4.588,10.24-10.24
	C353.28,306.662,348.692,302.075,343.04,302.075z"/>
<path style="fill:#8AD8F2;" d="M512,256c0-34.452-6.851-67.287-19.185-97.285H445.44c-5.652,0-10.24,4.588-10.24,10.24
	s4.588,10.24,10.24,10.24h30.72c4.239,0,7.68,3.436,7.68,7.68c0,4.239-3.441,7.68-7.68,7.68h-7.68c-7.071,0-12.8,5.729-12.8,12.8
	s5.729,12.8,12.8,12.8h23.04c4.239,0,7.68,3.441,7.68,7.68c0,4.239-3.441,7.68-7.68,7.68H435.2c-8.484,0-15.36,6.881-15.36,15.36
	c0,8.484,6.876,15.36,15.36,15.36h76.539C511.877,262.835,512,259.436,512,256z"/>
<g>
	<path style="fill:#70CFF0;" d="M223.78,193.055l-7.24-7.24L28.672,373.678c1.644,3.164,3.348,6.287,5.115,9.37L223.78,193.055z
		 M20.157,355.727L193.065,182.82l-7.24-7.245L16.056,345.339C17.357,348.836,18.703,352.307,20.157,355.727L20.157,355.727z
		 M341.54,326.18l-7.24-7.24L159.939,493.297c3.461,1.403,6.948,2.744,10.486,3.999L341.54,326.18L341.54,326.18z M132.193,480.082
		c3.128,1.731,6.298,3.374,9.503,4.982L321.055,305.7l-7.24-7.235L132.193,480.082L132.193,480.082z"/>
</g>
<g>
	<path style="fill:#66C3E3;" d="M221.42,195.415c-3.533-1.249-7.122-2.509-10.726-3.753l-39.188,39.188l8.115,6.364L221.42,195.415
		L221.42,195.415z M148.552,212.844l8.115,6.369l34.232-34.232c-3.789-1.239-7.47-2.422-10.972-3.523
		C179.927,181.458,148.552,212.844,148.552,212.844z M284.068,342.687l36.992-36.992l-7.24-7.235l-36.127,36.127L284.068,342.687z
		 M334.5,333.22c-1.121-3.517-2.319-7.173-3.564-10.916l-35.2,35.195l6.38,8.105L334.5,333.22z"/>
</g>
<path style="fill:#EAEAEA;" d="M184.735,296.09l36.347,36.275c2.007,2.002,5.642,30.638,3.635,32.65l-7.27,7.25
	c-2.012,2.007-5.263,2.007-7.27,0l-3.768-3.758l-28.831-28.769l-29.24-29.189l-3.584-3.569c-2.007-2.007-2.007-5.253,0-7.255
	l7.27-7.255C154.03,290.458,182.723,294.083,184.735,296.09L184.735,296.09z M278.088,203.372l35.661,35.604
	c3.937,3.937,43.167,113.572,39.224,117.504l-14.264,14.244c-3.942,3.932-10.327,3.932-14.264,0l-78.582-99.835l-99.717-78.198
	c-3.942-3.937-3.942-10.317,0-14.249l14.264-14.239C164.352,160.271,274.15,199.434,278.088,203.372z"/>
<path style="fill:#FFFFFF;" d="M369.434,147.589c9.856,9.861,1.121,34.596-10.706,46.423L230.257,322.586
	c-11.827,11.837-54.385,38.436-64.236,28.57c-9.856-9.861,16.722-52.449,28.544-64.287l128.476-128.563
	C334.863,146.463,359.578,137.723,369.434,147.589L369.434,147.589z"/>
<path style="fill:#DEDEDE;" d="M206.326,239.887l20.291,15.908l51.948-51.948l-0.476-0.476c-1.142-1.137-11.156-5.228-24.883-10.363
	L206.326,239.887L206.326,239.887z"/>
<path style="fill:#F2F2F2;" d="M204.805,297.108l128.476-128.563c9.692-9.702,28.017-17.3,39.747-14.316
	c-0.655-2.586-1.812-4.859-3.589-6.641c-9.856-9.866-34.57-1.126-46.397,10.716L194.565,286.868
	c-11.827,11.837-38.4,54.426-28.544,64.287c1.782,1.787,4.654,2.345,8.197,2.043C175.555,337.132,195.113,306.811,204.805,297.108
	L204.805,297.108z"/>
<g>
</g>
<g>
</g>
<g>
</g>
<g>
</g>
<g>
</g>
<g>
</g>
<g>
</g>
<g>
</g>
<g>
</g>
<g>
</g>
<g>
</g>
<g>
</g>
<g>
</g>
<g>
</g>
<g>
</g>
</svg>
