<?xml version="1.0" encoding="iso-8859-1"?>
<!-- Generator: Adobe Illustrator 19.0.0, SVG Export Plug-In . SVG Version: 6.00 Build 0)  -->
<svg version="1.1" id="Layer_1" xmlns="http://www.w3.org/2000/svg" xmlns:xlink="http://www.w3.org/1999/xlink" x="0px" y="0px"
	 viewBox="0 0 297 297" style="enable-background:new 0 0 297 297;" xml:space="preserve">
<g>
	<g>
		<g>
			<circle style="fill:#79302A;" cx="148.5" cy="148.5" r="148.5"/>
		</g>
	</g>
	<path style="fill:#591B18;" d="M228.664,103.188L61.707,210.712l86.281,86.281c0.171,0,0.341,0.006,0.512,0.006
		c75.343,0,137.573-56.111,147.2-128.824L228.664,103.188z"/>
	<g>
		<path style="fill:#C63C22;" d="M68.791,170.436h159.418c4.82,0,8.727-3.907,8.727-8.727l0,0c0-4.82-3.907-8.727-8.727-8.727
			H68.791c-4.82,0-8.727,3.907-8.727,8.727l0,0C60.064,166.529,63.971,170.436,68.791,170.436z"/>
	</g>
	<g>
		<path style="fill:#D35400;" d="M68.791,187.636h159.418c4.82,0,8.727-3.907,8.727-8.727l0,0c0-4.82-3.907-8.727-8.727-8.727
			H68.791c-4.82,0-8.727,3.907-8.727,8.727l0,0C60.064,183.729,63.971,187.636,68.791,187.636z"/>
	</g>
	<g>
		<path style="fill:#B2301F;" d="M228.209,152.982h-79.542v17.454h79.542c4.82,0,8.727-3.907,8.727-8.727l0,0
			C236.936,156.889,233.029,152.982,228.209,152.982z"/>
	</g>
	<g>
		<path style="fill:#BA4504;" d="M228.209,170.182h-79.542v17.454h79.542c4.82,0,8.727-3.907,8.727-8.727
			C236.936,174.089,233.029,170.182,228.209,170.182z"/>
	</g>
	<g>
		<path style="fill:#E59A51;" d="M68.791,212.655h159.418c8.033,0,14.545-6.512,14.545-14.545l0,0
			c0-8.033-6.512-14.545-14.545-14.545H68.791c-8.033,0-14.545,6.512-14.545,14.545l0,0
			C54.245,206.142,60.758,212.655,68.791,212.655z"/>
	</g>
	<g>
		<path style="fill:#CC8244;" d="M228.209,183.563h-79.542v29.091h79.542c8.033,0,14.545-6.512,14.545-14.545
			S236.242,183.563,228.209,183.563z"/>
	</g>
	<g>
		<path style="fill:#FFCF6D;" d="M203.65,156.718l-23.031,46.063c-1.248,2.495-4.808,2.495-6.056,0l-23.031-46.063
			c-1.125-2.251,0.511-4.899,3.028-4.899h46.063C203.139,151.818,204.776,154.467,203.65,156.718z"/>
	</g>
	<g>
		<path style="fill:#E59A51;" d="M244.5,134.946c0.267-31.672-42.835-57.524-96-57.6c-53.019-0.076-96,25.788-96,57.6
			c0,0.085,0,0.169,0.001,0.253c0.081,11.184,9.398,20.11,20.583,20.11h150.833c11.185,0,20.501-8.926,20.583-20.11
			C244.5,135.114,244.499,135.03,244.5,134.946z"/>
	</g>
	<g>
		<path style="fill:#CC8244;" d="M148.667,77.347v77.962h75.249c11.185,0,20.501-8.926,20.583-20.11
			c0.001-0.084,0-0.169,0.001-0.253C244.767,103.306,201.755,77.477,148.667,77.347z"/>
	</g>
</g>
<g>
</g>
<g>
</g>
<g>
</g>
<g>
</g>
<g>
</g>
<g>
</g>
<g>
</g>
<g>
</g>
<g>
</g>
<g>
</g>
<g>
</g>
<g>
</g>
<g>
</g>
<g>
</g>
<g>
</g>
</svg>
