<svg id="baseline-directions_bus-24px" xmlns="http://www.w3.org/2000/svg" viewBox="0 0 70.641 70.641">
  <defs>
    <style>
      .cls-1 {
        fill: none;
      }

      .cls-2 {
        fill: #969695;
      }
    </style>
  </defs>
  <path id="Tracé_2506" data-name="Tracé 2506" class="cls-1" d="M0,0H70.641V70.641H0Z"/>
  <path id="Tracé_2507" data-name="Tracé 2507" class="cls-2" d="M4,50.953a9.933,9.933,0,0,0,3.995,7.762v6.224a3.782,3.782,0,0,0,3.995,3.5h3.995a3.782,3.782,0,0,0,3.995-3.5v-3.5H51.935v3.5a3.782,3.782,0,0,0,3.995,3.5h3.995a3.782,3.782,0,0,0,3.995-3.5V58.715a9.933,9.933,0,0,0,3.995-7.763V15.986C67.913,3.748,53.612,2,35.956,2S4,3.748,4,15.986Zm13.981,3.5c-3.315,0-5.992-2.343-5.992-5.245s2.676-5.245,5.992-5.245S23.973,46.3,23.973,49.2,21.3,54.449,17.981,54.449Zm35.951,0c-3.315,0-5.992-2.343-5.992-5.245s2.676-5.245,5.992-5.245S59.924,46.3,59.924,49.2,57.247,54.449,53.932,54.449Zm5.992-20.98H11.989V15.986H59.924Z" transform="translate(-0.636 -0.318)"/>
</svg>
