<svg id="baseline-directions_car-24px" xmlns="http://www.w3.org/2000/svg" viewBox="0 0 84 84">
  <defs>
    <style>
      .cls-1 {
        fill: #969695;
      }

      .cls-2 {
        fill: none;
      }
    </style>
  </defs>
  <path id="Tracé_2508" data-name="Tracé 2508" class="cls-1" d="M58.72,8.535A5.23,5.23,0,0,0,53.75,5H15.25a5.263,5.263,0,0,0-4.97,3.535L3,29.5v28A3.51,3.51,0,0,0,6.5,61H10a3.51,3.51,0,0,0,3.5-3.5V54h42v3.5A3.51,3.51,0,0,0,59,61h3.5A3.51,3.51,0,0,0,66,57.5v-28ZM15.25,43.5a5.25,5.25,0,1,1,5.25-5.25A5.243,5.243,0,0,1,15.25,43.5Zm38.5,0A5.25,5.25,0,1,1,59,38.25,5.243,5.243,0,0,1,53.75,43.5ZM10,26l5.25-15.75h38.5L59,26Z" transform="translate(7.5 12.5)"/>
  <path id="Tracé_2509" data-name="Tracé 2509" class="cls-2" d="M0,0H84V84H0Z"/>
</svg>
