<?xml version="1.0" encoding="iso-8859-1"?>
<!-- Generator: Adobe Illustrator 19.0.0, SVG Export Plug-In . SVG Version: 6.00 Build 0)  -->
<svg version="1.1" id="Layer_1" xmlns="http://www.w3.org/2000/svg" xmlns:xlink="http://www.w3.org/1999/xlink" x="0px" y="0px"
	 viewBox="0 0 297 297" style="enable-background:new 0 0 297 297;" xml:space="preserve">
<g>
	<g>
		<g>
			<circle style="fill:#E67E22;" cx="148.5" cy="148.5" r="148.5"/>
		</g>
	</g>
	<path style="fill:#AD481C;" d="M225.204,110.291l-177.411,97.16l89.116,89.101c3.825,0.295,7.691,0.448,11.592,0.448
		c71.575,0,131.318-50.64,145.368-118.044L225.204,110.291z"/>
	<g>
		<path style="fill:#682421;" d="M65.503,159.1c0,37.305,54.598,48.247,108.557,48.247s65.134-20.592,65.134-57.897
			s-22.031-57.897-75.99-57.897S65.503,121.795,65.503,159.1z"/>
	</g>
	<g>
		<path style="fill:#F0DEB4;" d="M52.533,92.896l21.814,15.902l5.301-7.272L57.834,85.624c2.928-4.016,2.046-9.645-1.97-12.573
			c-4.016-2.927-9.645-2.045-12.573,1.971c-0.967,1.326-1.51,2.828-1.67,4.351c-1.4,0.618-2.665,1.595-3.631,2.921
			c-2.928,4.016-2.046,9.645,1.97,12.573S49.605,96.913,52.533,92.896z"/>
	</g>
	<g>
		<path style="fill:#5B1D1D;" d="M163.204,91.554c-4.536,0-8.998,0.219-13.37,0.632v114.362c7.964,0.549,16.102,0.799,24.226,0.799
			c53.959,0,65.134-20.592,65.134-57.897S217.163,91.554,163.204,91.554z"/>
	</g>
	<g>
		<path style="fill:#823733;" d="M129.258,109.85c12.048,8.782,8.166,20.434-0.618,32.483c-8.784,12.049-19.143,19.931-31.19,11.149
			c-12.048-8.782-36.508-41.571-27.724-53.62S117.211,101.067,129.258,109.85z"/>
	</g>
	<g>
		<path style="fill:#C0392B;" d="M197.087,179.644c0-10.659,10.211-16.375,22.808-16.375c12.596,0,22.808,5.716,22.808,16.375
			s-10.211,19.299-22.808,19.299S197.087,190.303,197.087,179.644z"/>
	</g>
	<g>
		<path style="fill:#C0392B;" d="M65.503,179.644c0-10.659,10.211-16.375,22.808-16.375s22.808,5.716,22.808,16.375
			s-10.211,19.299-22.808,19.299S65.503,190.303,65.503,179.644z"/>
	</g>
	<g>
		<circle style="fill:#6AAC4B;" cx="187.73" cy="186.077" r="5.263"/>
	</g>
	<g>
		<circle style="fill:#6AAC4B;" cx="167.261" cy="186.077" r="5.263"/>
	</g>
	<g>
		<circle style="fill:#59913C;" cx="176.033" cy="186.077" r="5.263"/>
	</g>
	<g>
		<path style="fill:#F0DEB4;" d="M54.684,210.347h192.405c5.329,0,9.649-4.32,9.649-9.649l0,0c0-5.329-4.32-9.649-9.649-9.649
			H54.684c-5.329,0-9.649,4.32-9.649,9.649l0,0C45.034,206.027,49.355,210.347,54.684,210.347z"/>
	</g>
	<g>
		<path style="fill:#D6C299;" d="M247.089,191.048h-97.255v19.299h97.255c5.329,0,9.65-4.32,9.65-9.649l0,0
			C256.738,195.368,252.418,191.048,247.089,191.048z"/>
	</g>
</g>
<g>
</g>
<g>
</g>
<g>
</g>
<g>
</g>
<g>
</g>
<g>
</g>
<g>
</g>
<g>
</g>
<g>
</g>
<g>
</g>
<g>
</g>
<g>
</g>
<g>
</g>
<g>
</g>
<g>
</g>
</svg>
