<?xml version="1.0" encoding="iso-8859-1"?>
<!-- Generator: Adobe Illustrator 19.0.0, SVG Export Plug-In . SVG Version: 6.00 Build 0)  -->
<svg version="1.1" id="Layer_1" xmlns="http://www.w3.org/2000/svg" xmlns:xlink="http://www.w3.org/1999/xlink" x="0px" y="0px"
	 viewBox="0 0 297 297" style="enable-background:new 0 0 297 297;" xml:space="preserve">
<g>
	<g>
		<g>
			<circle style="fill:#345F41;" cx="148.5" cy="148.5" r="148.5"/>
		</g>
	</g>
	<path style="fill:#1F4427;" d="M150.167,262.5l-47.007,5.177l28.386,28.354c5.565,0.633,11.22,0.969,16.954,0.969
		c82.014,0,148.5-66.486,148.5-148.5c0-4.071-0.171-8.101-0.492-12.089l-69.234-69.39l-77.107,42.105L150.167,262.5"/>
	<g>
		<path style="fill:#ECF0F1;" d="M189.513,258.5H154v-84.7l73.495-102.893c1.467-2.054-0.001-4.907-2.525-4.907H72.03
			c-2.524,0-3.992,2.853-2.525,4.907L143,173.8v84.7h-35.513c-2.872,0-5.438,2.099-5.711,4.959c-0.313,3.28,2.258,6.041,5.474,6.041
			h82.5c3.216,0,5.788-2.761,5.474-6.041C194.951,260.599,192.385,258.5,189.513,258.5z"/>
	</g>
	<g>
		<path style="fill:#E3E5E4;" d="M227.495,70.907c1.467-2.054-0.001-4.907-2.525-4.907h-76.303v203.5h41.083
			c3.216,0,5.788-2.761,5.474-6.041c-0.273-2.859-2.839-4.959-5.711-4.959H154v-84.7L227.495,70.907z"/>
	</g>
	<g>
		<path style="fill:#BFF796;" d="M102,83.777c-10.259-7.647-12.376-22.162-4.729-32.421s22.162-12.376,32.421-4.729L102,83.777z"/>
		<path style="fill:#2ECC71;" d="M102.103,84.478l-0.401-0.3c-10.464-7.8-12.631-22.658-4.83-33.121
			c7.8-10.462,22.656-12.628,33.12-4.831l0.401,0.299L102.103,84.478z M115.875,42.543c-6.921,0-13.758,3.149-18.203,9.111
			c-7.37,9.888-5.448,23.872,4.229,31.419l27.088-36.34C125.022,43.908,120.43,42.543,115.875,42.543z"/>
	</g>
	<g>
		<polygon style="fill:#BFF796;" points="115.576,65.565 115.586,65.552 115.564,65.555 		"/>
		<polygon style="fill:#2ECC71;" points="115.681,66.248 114.349,65.269 116.752,64.831 		"/>
	</g>
	<path style="fill:#2ECC71;" d="M115.564,67.556c-0.44,0-0.872-0.146-1.226-0.419l-18.3-14.189c-0.837-0.649-1.02-1.834-0.431-2.702
		c0.021-0.031,0.043-0.063,0.064-0.091c3.958-5.31,9.75-8.798,16.305-9.817c0.526-0.082,1.065,0.05,1.495,0.367
		s0.715,0.793,0.792,1.321l3.374,23.141c0.076,0.525-0.06,1.06-0.378,1.485l-0.072,0.097c-0.302,0.405-0.747,0.68-1.244,0.771
		l-0.021,0.004C115.804,67.545,115.684,67.556,115.564,67.556z M100.109,51.043l12.883,9.987l-2.382-16.336
		C106.543,45.726,102.911,47.92,100.109,51.043z"/>
	<path style="fill:#BFF796;" d="M112.284,42.314c-5.786,0.9-11.237,3.976-15.013,9.042c-0.003,0.004-0.005,0.008-0.008,0.011
		c-4.032,5.416-5.342,12.016-4.174,18.166c1.045,5.498,4.07,10.636,8.911,14.244l13.576-18.213l-0.012-0.009l0.021-0.004
		l0.072-0.097l14.034-18.827C124.499,42.756,118.216,41.391,112.284,42.314z"/>
	<path style="fill:#2ECC71;" d="M133.604,44.727c0.317-0.425,0.452-0.959,0.376-1.484c-0.077-0.524-0.359-0.997-0.784-1.314
		c-12.833-9.566-31.057-6.908-40.623,5.925s-6.908,31.057,5.925,40.624c0.358,0.268,0.778,0.396,1.193,0.396
		c0.61,0,1.213-0.278,1.605-0.805L133.604,44.727z M96.703,66.862c-0.352-4.01,0.531-7.965,2.566-11.409l11.505,8.919L96.703,66.862
		z M101.64,52.229c2.489-2.735,5.683-4.659,9.252-5.604l2.1,14.405L101.64,52.229z M102.809,79.345
		c-2.537-2.33-4.36-5.272-5.35-8.553l13.509-2.391L102.809,79.345z M116.94,60.388l-2.098-14.392
		c3.812-0.204,7.557,0.718,10.833,2.673L116.94,60.388z"/>
	<g>
		<polygon style="fill:#BFF796;" points="148.5,167.85 190.893,108.5 106.107,108.5 		"/>
	</g>
	<g>
		<polygon style="fill:#A3DD76;" points="148.667,108.5 148.667,167.616 190.893,108.5 		"/>
	</g>
</g>
<g>
</g>
<g>
</g>
<g>
</g>
<g>
</g>
<g>
</g>
<g>
</g>
<g>
</g>
<g>
</g>
<g>
</g>
<g>
</g>
<g>
</g>
<g>
</g>
<g>
</g>
<g>
</g>
<g>
</g>
</svg>
