<?xml version="1.0" encoding="iso-8859-1"?>
<!-- Generator: Adobe Illustrator 19.0.0, SVG Export Plug-In . SVG Version: 6.00 Build 0)  -->
<svg version="1.1" id="Layer_1" xmlns="http://www.w3.org/2000/svg" xmlns:xlink="http://www.w3.org/1999/xlink" x="0px" y="0px"
	 viewBox="0 0 512 512" style="enable-background:new 0 0 512 512;" xml:space="preserve">
<g>
	<path style="fill:#663310;" d="M408.487,503.095c0,4.917-3.987,8.904-8.904,8.904H110.191c-4.917,0-8.904-3.987-8.904-8.904
		c0-4.917,3.987-8.904,8.904-8.904h289.391C404.501,494.191,408.487,498.178,408.487,503.095z"/>
	<path style="fill:#663310;" d="M375.803,243.983h-27.857v-17.171h-93.378h-92.741v131.906c0,52.909,41.878,96.199,93.059,96.199
		c51.188,0,93.059-43.291,93.059-96.199v-6.217h27.857c19.249,0,34.909-15.661,34.909-34.909v-38.699
		C410.713,259.644,395.052,243.983,375.803,243.983z M387.44,317.591c0,6.417-5.22,11.637-11.637,11.637h-27.857v-61.972h27.857
		c6.417,0,11.637,5.22,11.637,11.637L387.44,317.591L387.44,317.591z"/>
</g>
<path style="fill:#874D20;" d="M266.526,226.812v131.906c0,37.84-21.423,70.749-52.349,86.432
	c-30.925-15.682-52.351-48.592-52.351-86.432V226.812h11.321h81.42H266.526z"/>
<path style="fill:#FFBB5E;" d="M238.949,94.981c-13.626,21.782-14.073,55.92-0.941,71.622c3.155,3.772,2.655,9.389-1.116,12.543
	c-1.667,1.394-3.693,2.075-5.708,2.075c-2.547,0-5.074-1.086-6.835-3.192c-19.969-23.876-16.38-67.1-0.498-92.492
	c13.154-21.031,13.397-55.496,0.498-70.92c-3.154-3.772-2.655-9.389,1.117-12.543c3.772-3.155,9.387-2.655,12.543,1.117
	C257.684,26.716,254.296,70.446,238.949,94.981z M286.464,94.981c15.347-24.536,18.736-68.266-0.937-91.789
	c-3.155-3.772-8.771-4.273-12.543-1.117c-3.772,3.154-4.273,8.771-1.117,12.543c12.898,15.421,12.655,49.888-0.5,70.919
	c-15.885,25.392-19.475,68.617,0.501,92.493c1.762,2.106,4.289,3.191,6.834,3.191c2.016,0,4.043-0.681,5.709-2.075
	c3.771-3.155,4.271-8.772,1.115-12.544C272.388,150.901,272.836,116.764,286.464,94.981z"/>
<g>
</g>
<g>
</g>
<g>
</g>
<g>
</g>
<g>
</g>
<g>
</g>
<g>
</g>
<g>
</g>
<g>
</g>
<g>
</g>
<g>
</g>
<g>
</g>
<g>
</g>
<g>
</g>
<g>
</g>
</svg>
