<?xml version="1.0" encoding="iso-8859-1"?>
<!-- Generator: Adobe Illustrator 18.0.0, SVG Export Plug-In . SVG Version: 6.00 Build 0)  -->
<!DOCTYPE svg PUBLIC "-//W3C//DTD SVG 1.1//EN" "http://www.w3.org/Graphics/SVG/1.1/DTD/svg11.dtd">
<svg version="1.1" id="Capa_1" xmlns="http://www.w3.org/2000/svg" xmlns:xlink="http://www.w3.org/1999/xlink" x="0px" y="0px"
	 viewBox="0 0 311.011 311.011" style="enable-background:new 0 0 311.011 311.011;" xml:space="preserve">
<g>
	<path d="M221.805,91.867h63.423c0.348,0,0.66-0.209,0.794-0.53c0.133-0.321,0.059-0.69-0.186-0.936
		c-4.526-4.527-10.665-7.07-17.067-7.07h-5.201c1.038-0.916,1.706-2.241,1.706-3.735c0-2.762-2.238-5-5-5h-13.514
		c-2.762,0-5,2.238-5,5c0,1.493,0.668,2.819,1.706,3.735h-5.201c-6.4,0-12.539,2.543-17.066,7.07
		c-0.246,0.246-0.319,0.615-0.186,0.936C221.144,91.658,221.457,91.867,221.805,91.867z"/>
	<path d="M245.394,113.443c6.09,0,11.17,4.578,11.85,10.585c1.09,9.658-3.622,20.152-14.529,27.028h23.018
		c10.346,0,18.94-7.981,19.704-18.299l1.031-13.92h6.369c2.762,0,5-2.238,5-5c0-2.762-2.238-5-5-5h-5.628l0.242-3.275
		c0.072-0.975-0.265-1.935-0.93-2.652c-0.665-0.716-1.598-1.123-2.576-1.123h-60.856c-0.977,0-1.911,0.407-2.576,1.123
		c-0.665,0.716-1.002,1.677-0.93,2.652l0.243,3.275h-5.627c-2.62,0-4.744,2.021-4.958,4.586c0.004,0.007,0.008,0.014,0.012,0.021
		H245.394z"/>
	<path d="M84.754,296.011c0,8.284,6.716,15,15,15c8.284,0,15-6.716,15-15v-89.306h-30V296.011z"/>
	<path d="M121.649,296.011c0,8.284,6.716,15,15,15c8.284,0,15-6.716,15-15v-89.306h-30V296.011z"/>
	<polygon points="109.241,83.409 127.316,83.409 131.421,59.947 105.136,59.947 	"/>
	<path d="M288.082,161.303H154.49c1.067-0.268,2.116-0.677,3.119-1.245l28.188-15.804c-5.275-6.16-7.356-13.519-6.58-20.252
		c0.684-5.941,5.738-10.558,11.847-10.558h6.606c-9.194-15.718-13.888-23.684-18.208-30.995
		c-5.096-8.637-12.705-21.524-27.915-22.443v-0.057h-9.974l-4.526,25.87c6.315,25.414,4.131,16.625,9.91,39.884l4.589-2.6
		c0-14.603,0-13.821,0-36.82c3.217,3.19,15.85,25.503,21.931,35.888l-28.191,16.136c-6.127,3.471-8.027,11.191-4.715,17.037
		c1.761,3.109,4.655,5.162,7.869,5.96H87.954c3.213-0.798,6.108-2.852,7.87-5.96c3.313-5.847,1.411-13.566-4.714-17.037
		l-28.191-16.136c17.588-30.04,19.346-33.127,21.656-35.597c0,35.49,0,20.559,0,36.373l4.698,2.662
		c5.681-22.409,4.451-17.558,10.176-40.141l-4.464-25.519h-10.41v0.079C69.551,61.084,62,73.864,56.935,82.448
		c-11.144,18.859-21.195,36.117-22.32,38.03c-3.551,6.088-1.438,13.903,4.687,17.375l39.483,22.204
		c1.004,0.568,2.053,0.977,3.119,1.245H22.928c-9.776,0-17.701,7.925-17.701,17.701s7.925,17.701,17.701,17.701h265.154
		c9.776,0,17.701-7.925,17.701-17.701S297.858,161.303,288.082,161.303z"/>
	<path d="M118.571,50.783c13.97,0,25.391-11.338,25.391-25.391C143.962,11.368,132.594,0,118.571,0
		C104.548,0,93.18,11.368,93.18,25.391C93.18,39.387,104.534,50.783,118.571,50.783z"/>
	<path d="M247.395,126.658c0-0.509-0.032-1.011-0.088-1.509c-0.11-0.974-0.932-1.706-1.913-1.706h-54.331
		c-0.977,0-1.801,0.732-1.912,1.702c-0.057,0.499-0.09,1.002-0.09,1.512c0,8.052,6.211,15.053,15.347,18.626h-0.266v3.382
		c0,1.063,0.862,1.925,1.925,1.925h24.324c1.063,0,1.924-0.862,1.924-1.925v-3.382h-0.265
		C241.185,141.712,247.395,134.71,247.395,126.658z"/>
</g>
<g>
</g>
<g>
</g>
<g>
</g>
<g>
</g>
<g>
</g>
<g>
</g>
<g>
</g>
<g>
</g>
<g>
</g>
<g>
</g>
<g>
</g>
<g>
</g>
<g>
</g>
<g>
</g>
<g>
</g>
</svg>
