<?xml version="1.0" encoding="iso-8859-1"?>
<!-- Generator: Adobe Illustrator 19.0.0, SVG Export Plug-In . SVG Version: 6.00 Build 0)  -->
<svg version="1.1" id="Layer_1" xmlns="http://www.w3.org/2000/svg" xmlns:xlink="http://www.w3.org/1999/xlink" x="0px" y="0px"
	 viewBox="0 0 297 297" style="enable-background:new 0 0 297 297;" xml:space="preserve">
<g>
	<g>
		<g>
			<circle style="fill:#5E4534;" cx="148.5" cy="148.5" r="148.5"/>
		</g>
	</g>
	<path style="fill:#503B2C;" d="M220.82,74.68l-38.578,31.482c2.645,9.094,5.643,18.12,12.259,25.337
		c-19.586,26.115-50.482,41.784-82.138,40.531l-38.386,36.183l88.157,88.157c74.828-6.812,133.61-69.127,134.836-145.439
		L220.82,74.68z"/>
	<g>
		<path style="fill:#D68B58;" d="M90.727,173.578c0,0-16.407-11.672-34.681-10.216s-2.929,32.574,26.657,45.469
			S90.727,173.578,90.727,173.578z"/>
	</g>
	<g>
		<path style="fill:#BF7645;" d="M198.633,110.318c0,0-2.172-20.018,8.024-35.252s29.855,13.354,26.657,45.469
			S198.633,110.318,198.633,110.318z"/>
	</g>
	<g>
		<path style="fill:#D87830;" d="M203.83,88.833c-8.899-2.667-17.843,1.802-20.608,10.585c-5.899,18.736-18.579,35.5-36.98,46.288
			c-17.498,10.259-37.188,13.37-55.617,10.211c-9.744-1.67-18.355,4.811-19.466,14.873l-2.372,21.488
			c-0.91,8.247,3.492,16.701,10.885,20.624c31.56,16.748,71.094,17.122,104.515-2.471c35.592-20.866,54.804-58.841,53.12-96.962
			c-0.385-8.715-6.459-16.54-14.599-18.979L203.83,88.833z"/>
	</g>
	<g>
		<path style="fill:#C46627;" d="M237.308,113.469c-0.385-8.714-6.459-16.54-14.599-18.979l-18.879-5.657
			c-8.899-2.667-17.843,1.802-20.609,10.585c-5.581,17.724-17.236,33.675-34.055,44.479v79.608
			c12.006-2.223,23.855-6.528,35.021-13.074C219.78,189.565,238.992,151.59,237.308,113.469z"/>
	</g>
	<g>
		<path style="fill:#B76629;" d="M143.254,140.859c-6.12,3.588-12.406,6.57-18.777,8.973c-5.126,1.934-8.118,7.211-6.767,12.02
			l18.714,66.612c1.332,4.742,6.41,7.316,11.611,5.957c13.69-3.577,27.26-9.122,40.257-16.742
			c12.884-7.553,24.264-16.594,34.015-26.685c3.711-3.841,3.984-9.487,0.565-12.984l-48.335-49.437
			c-3.553-3.634-9.726-3.564-13.982,0.04C155.263,133.094,149.489,137.204,143.254,140.859z"/>
	</g>
	<g>
		<path style="fill:#A05827;" d="M222.872,178.011l-48.335-49.438c-3.553-3.634-9.726-3.564-13.982,0.04
			c-3.572,3.024-7.382,5.863-11.387,8.524v96.967c13.306-3.584,26.487-9.016,39.125-16.425
			c12.884-7.553,24.264-16.594,34.015-26.685C226.017,187.154,226.291,181.508,222.872,178.011z"/>
	</g>
</g>
<g>
</g>
<g>
</g>
<g>
</g>
<g>
</g>
<g>
</g>
<g>
</g>
<g>
</g>
<g>
</g>
<g>
</g>
<g>
</g>
<g>
</g>
<g>
</g>
<g>
</g>
<g>
</g>
<g>
</g>
</svg>
