<?xml version="1.0" encoding="iso-8859-1"?>
<!-- Generator: Adobe Illustrator 18.0.0, SVG Export Plug-In . SVG Version: 6.00 Build 0)  -->
<!DOCTYPE svg PUBLIC "-//W3C//DTD SVG 1.1//EN" "http://www.w3.org/Graphics/SVG/1.1/DTD/svg11.dtd">
<svg version="1.1" id="Capa_1" xmlns="http://www.w3.org/2000/svg" xmlns:xlink="http://www.w3.org/1999/xlink" x="0px" y="0px"
	 viewBox="0 0 58 58" style="enable-background:new 0 0 58 58;" xml:space="preserve">
<g>
	<path style="fill:#D2D5D7;" d="M22.489,31c-0.553,0-1-0.447-1-1V1c0-0.553,0.447-1,1-1s1,0.447,1,1v29
		C23.489,30.553,23.042,31,22.489,31z"/>
	<path style="fill:#A46F3E;" d="M22.489,58L22.489,58c-1.65,0-3-1.35-3-3V33c0-1.65,1.35-3,3-3h0c1.65,0,3,1.35,3,3v22
		C25.489,56.65,24.139,58,22.489,58z"/>
	<path style="fill:#D2D5D7;" d="M22.489,36L22.489,36c-0.55,0-1-0.45-1-1v0c0-0.55,0.45-1,1-1h0c0.55,0,1,0.45,1,1v0
		C23.489,35.55,23.039,36,22.489,36z"/>
	<path style="fill:#D2D5D7;" d="M22.489,40L22.489,40c-0.55,0-1-0.45-1-1v0c0-0.55,0.45-1,1-1h0c0.55,0,1,0.45,1,1v0
		C23.489,39.55,23.039,40,22.489,40z"/>
	<path style="fill:#D2D5D7;" d="M22.489,19c-2.757,0-5-2.243-5-5V1c0-0.553,0.447-1,1-1s1,0.447,1,1v13c0,1.654,1.346,3,3,3
		s3-1.346,3-3V1c0-0.553,0.447-1,1-1s1,0.447,1,1v13C27.489,16.757,25.246,19,22.489,19z"/>
	<path style="fill:#D2D5D7;" d="M37.5,32c3.078-3.078,3-10.268,3-18s0.542-13-6-13v31H37.5z"/>
	<path style="fill:#A46F3E;" d="M36.5,58L36.5,58c-1.65,0-3-1.35-3-3V33c0-1.65,1.35-3,3-3h0c1.65,0,3,1.35,3,3v22
		C39.5,56.65,38.15,58,36.5,58z"/>
	<path style="fill:#D2D5D7;" d="M36.5,36L36.5,36c-0.55,0-1-0.45-1-1v0c0-0.55,0.45-1,1-1h0c0.55,0,1,0.45,1,1v0
		C37.5,35.55,37.05,36,36.5,36z"/>
	<path style="fill:#D2D5D7;" d="M36.5,40L36.5,40c-0.55,0-1-0.45-1-1v0c0-0.55,0.45-1,1-1h0c0.55,0,1,0.45,1,1v0
		C37.5,39.55,37.05,40,36.5,40z"/>
</g>
<g>
</g>
<g>
</g>
<g>
</g>
<g>
</g>
<g>
</g>
<g>
</g>
<g>
</g>
<g>
</g>
<g>
</g>
<g>
</g>
<g>
</g>
<g>
</g>
<g>
</g>
<g>
</g>
<g>
</g>
</svg>
