<svg xmlns="http://www.w3.org/2000/svg" xmlns:xlink="http://www.w3.org/1999/xlink" width="34.767" height="33.383" viewBox="0 0 34.767 33.383"><defs><style>.a{fill:#fff;}.b{filter:url(#a);}</style><filter id="a" x="0" y="0" width="34.767" height="33.383" filterUnits="userSpaceOnUse"><feOffset dy="3" input="SourceAlpha"/><feGaussianBlur stdDeviation="3" result="b"/><feFlood flood-opacity="0.161"/><feComposite operator="in" in2="b"/><feComposite in="SourceGraphic"/></filter></defs><g transform="translate(-782 -1236)"><g class="b" transform="matrix(1, 0, 0, 1, 782, 1236)"><path class="a" d="M10.383,18.383,9.168,17.277C4.85,13.362,2,10.78,2,7.611A4.566,4.566,0,0,1,6.611,3a5.02,5.02,0,0,1,3.772,1.752A5.02,5.02,0,0,1,14.156,3a4.566,4.566,0,0,1,4.611,4.611c0,3.169-2.85,5.751-7.168,9.674Z" transform="translate(7 3)"/></g></g></svg>