<?xml version="1.0" encoding="iso-8859-1"?>
<!-- Generator: Adobe Illustrator 19.0.0, SVG Export Plug-In . SVG Version: 6.00 Build 0)  -->
<svg version="1.1" id="Layer_1" xmlns="http://www.w3.org/2000/svg" xmlns:xlink="http://www.w3.org/1999/xlink" x="0px" y="0px"
	 viewBox="0 0 511.999 511.999" style="enable-background:new 0 0 511.999 511.999;" xml:space="preserve">
<path style="fill:#DBDDF6;" d="M403.393,403.393c47.053,0,85.333-38.28,85.333-85.333s-38.28-85.333-85.333-85.333h-31.03H62.061
	c-6.972,0-13.577,3.126-17.999,8.518c-4.42,5.392-6.189,12.482-4.822,19.319l40.979,204.889H46.545
	c-12.853,0-23.273,10.42-23.273,23.273c0,12.853,10.42,23.273,23.273,23.273h62.06h217.211h62.06
	c12.853,0,23.273-10.42,23.273-23.273c0-12.853-10.42-23.273-23.273-23.273h-33.672l12.412-62.06H403.393z M442.181,318.06
	c0,21.388-17.4,38.788-38.788,38.788h-27.466l15.515-77.576h11.951C424.78,279.272,442.181,296.672,442.181,318.06z"/>
<path style="fill:#ECB45C;" d="M186.181,186.18c-12.853,0-23.273-10.42-23.273-23.273c0-13.082-5.046-18.679-16.457-30.09
	c-12.701-12.698-30.093-30.088-30.088-62.999c-0.005-32.914,17.392-50.305,30.093-63.004c9.09-9.087,23.825-9.086,32.914,0.003
	c9.086,9.09,9.084,23.827-0.005,32.912c-11.413,11.41-16.458,17.006-16.457,30.088c-0.002,13.082,5.042,18.677,16.452,30.085
	c12.701,12.699,30.093,30.09,30.093,63.004C209.454,175.76,199.034,186.18,186.181,186.18z"/>
<path style="fill:#C4C8F2;" d="M403.393,403.393c47.053,0,85.333-38.28,85.333-85.333s-38.28-85.333-85.333-85.333h-31.03H224.969
	v279.272h100.848h62.06c12.853,0,23.273-10.42,23.273-23.273c0-12.853-10.42-23.273-23.273-23.273h-33.672l12.412-62.06H403.393z
	 M391.44,279.272h11.951c21.388,0,38.788,17.4,38.788,38.788s-17.4,38.788-38.788,38.788h-27.466L391.44,279.272z"/>
<path style="fill:#D5851F;" d="M294.787,186.18c-12.853,0-23.273-10.42-23.273-23.273c0-13.082-5.046-18.679-16.457-30.09
	c-12.701-12.698-30.092-30.088-30.088-62.999c-0.005-32.914,17.392-50.305,30.093-63.004c9.09-9.087,23.825-9.086,32.914,0.003
	c9.086,9.09,9.084,23.827-0.005,32.912c-11.413,11.41-16.458,17.006-16.457,30.088c-0.002,13.082,5.042,18.677,16.452,30.085
	c12.701,12.699,30.093,30.09,30.093,63.004C318.06,175.76,307.64,186.18,294.787,186.18z"/>
<g>
</g>
<g>
</g>
<g>
</g>
<g>
</g>
<g>
</g>
<g>
</g>
<g>
</g>
<g>
</g>
<g>
</g>
<g>
</g>
<g>
</g>
<g>
</g>
<g>
</g>
<g>
</g>
<g>
</g>
</svg>
