<svg id="instagram" xmlns="http://www.w3.org/2000/svg" viewBox="0 0 50 50">
  <defs>
    <style>
      .cls-1 {
        fill: #fff;
      }
    </style>
  </defs>
  <path id="Tracé_291" data-name="Tracé 291" class="cls-1" d="M42.841,23.88h-14.8a4.289,4.289,0,0,0-4.284,4.284v14.8a4.289,4.289,0,0,0,4.284,4.284h14.8a4.289,4.289,0,0,0,4.284-4.284v-14.8A4.289,4.289,0,0,0,42.841,23.88Zm-7.4,19.375a7.692,7.692,0,1,1,7.692-7.692A7.7,7.7,0,0,1,35.442,43.255Zm7.94-13.794a1.82,1.82,0,1,1,1.82-1.82A1.822,1.822,0,0,1,43.382,29.462Z" transform="translate(-10.442 -10.495)"/>
  <path id="Tracé_292" data-name="Tracé 292" class="cls-1" d="M41.291,36.971a4.442,4.442,0,1,0,4.441,4.441A4.447,4.447,0,0,0,41.291,36.971Z" transform="translate(-16.291 -16.345)"/>
  <path id="Tracé_293" data-name="Tracé 293" class="cls-1" d="M25,0A25,25,0,1,0,50,25,25,25,0,0,0,25,0ZM40.038,32.519a7.6,7.6,0,0,1-7.587,7.587h-14.9a7.6,7.6,0,0,1-7.587-7.587v-14.9a7.6,7.6,0,0,1,7.587-7.587h14.9a7.6,7.6,0,0,1,7.587,7.587Z"/>
</svg>
