<svg xmlns="http://www.w3.org/2000/svg" viewBox="0 0 29.422 26.843">
  <defs>
    <style>
      .cls-1 {
        fill: #fdba1d;
      }
    </style>
  </defs>
  <g id="Groupe_316" data-name="Groupe 316" transform="translate(0.015 -0.098)">
    <path id="Tracé_289" data-name="Tracé 289" class="cls-1" d="M14.837,26.941c-1.887-1.833-3.679-3.531-5.431-5.269q-3.456-3.436-6.859-6.94A8.484,8.484,0,0,1,4.811.974a8.343,8.343,0,0,1,9.258,1.24c.175.135.337.283.526.445A8.686,8.686,0,0,1,20.726.1,8.495,8.495,0,0,1,28.663,5.34a8.188,8.188,0,0,1-1.738,9.338c-3.638,3.787-7.411,7.438-11.117,11.158C15.443,26.214,15.106,26.631,14.837,26.941Zm-.283-2.992c.162-.094.216-.108.243-.135,3.571-3.571,7.155-7.129,10.7-10.713a5.941,5.941,0,0,0,1.711-4.07,6.452,6.452,0,0,0-11.05-4.865c-.526.512-1.011,1.051-1.59,1.657-.606-.647-1.1-1.226-1.657-1.752a6.407,6.407,0,0,0-8.84-.027,6.274,6.274,0,0,0-.35,8.759C7.25,16.592,10.943,20.244,14.554,23.95Z" transform="translate(0 0)"/>
  </g>
</svg>
