<?xml version="1.0" encoding="iso-8859-1"?>
<!-- Generator: Adobe Illustrator 19.0.0, SVG Export Plug-In . SVG Version: 6.00 Build 0)  -->
<svg version="1.1" id="Layer_1" xmlns="http://www.w3.org/2000/svg" xmlns:xlink="http://www.w3.org/1999/xlink" x="0px" y="0px"
	 viewBox="0 0 512 512" style="enable-background:new 0 0 512 512;" xml:space="preserve">
<circle style="fill:#273B7A;" cx="256" cy="256" r="256"/>
<path style="fill:#121149;" d="M262.415,511.919C400.834,508.514,512,395.242,512,256c0-4.044-0.105-8.063-0.291-12.06
	l-90.221-92.241l-4.886,14.365l-16.558-14.365l-2.943,14.658l0.664,4.267l-18.904-18.665l-0.641,44.997l18.882,12.278l0.279,33.427
	l-60.245-56.475v17.208l-105.993,59.385L120.718,152.354l-14.412,167.717l6.211,6.211l-6.211,28.853L262.415,511.919z"/>
<circle style="fill:#FFC61B;" cx="254.19" cy="256" r="108.418"/>
<path style="fill:#EAA22F;" d="M362.603,256c0-59.27-47.566-107.399-106.605-108.373v216.745
	C315.037,363.399,362.603,315.27,362.603,256z"/>
<circle style="fill:#FFEDB5;" cx="254.19" cy="256" r="72.278"/>
<path style="fill:#FEE187;" d="M326.465,256c0-39.31-31.387-71.268-70.465-72.233v144.467
	C295.077,327.268,326.465,295.31,326.465,256z"/>
<rect x="393.516" y="209.23" style="fill:#FFC61B;" width="7.98" height="59.009"/>
<path style="fill:#FF7F4F;" d="M397.512,356.776L397.512,356.776c6.666,0,12.071-5.404,12.071-12.071v-79.136
	c0-6.666-5.404-12.071-12.071-12.071l0,0c-6.666,0-12.071,5.404-12.071,12.071v79.136
	C385.441,351.372,390.846,356.776,397.512,356.776z"/>
<path style="fill:#FFFFFF;" d="M423.034,196.922v-41.656c0-2.431-1.82-4.61-4.248-4.736c-2.589-0.136-4.73,1.924-4.73,4.482v34.432
	c0,2.019-1.638,3.655-3.656,3.651c-1.629-0.003-3.543-0.007-5.17-0.009c-2.014-0.003-3.641-1.638-3.641-3.651v-34.17
	c0-2.431-1.82-4.61-4.248-4.736c-2.589-0.136-4.73,1.924-4.73,4.482v34.423c0,2.014-1.627,3.648-3.641,3.651
	c-1.627,0.002-3.541,0.005-5.17,0.009c-2.019,0.003-3.656-1.633-3.656-3.651v-34.178c0-2.431-1.82-4.61-4.248-4.736
	c-2.589-0.136-4.73,1.924-4.73,4.482v41.91c0,10.916,8.849,19.765,19.765,19.765h6.165c0.002,0,0.003,0,0.005,0s0.003,0,0.005,0
	h6.165C414.186,216.685,423.034,207.838,423.034,196.922z"/>
<rect x="107.279" y="208.368" style="fill:#FFC61B;" width="7.995" height="59.13"/>
<path style="fill:#FFFFFF;" d="M81.701,193.577c0-16.331,13.238-44.353,29.568-44.353s29.568,28.022,29.568,44.353
	s-13.238,29.568-29.568,29.568S81.701,209.908,81.701,193.577z"/>
<path style="fill:#FF7F4F;" d="M111.269,356.205L111.269,356.205c6.68,0,12.097-5.417,12.097-12.097v-79.298
	c0-6.68-5.417-12.097-12.097-12.097l0,0c-6.68,0-12.097,5.417-12.097,12.097v79.298C99.173,350.789,104.589,356.205,111.269,356.205
	z"/>
<g>
</g>
<g>
</g>
<g>
</g>
<g>
</g>
<g>
</g>
<g>
</g>
<g>
</g>
<g>
</g>
<g>
</g>
<g>
</g>
<g>
</g>
<g>
</g>
<g>
</g>
<g>
</g>
<g>
</g>
</svg>
