<?xml version="1.0" encoding="iso-8859-1"?>
<!-- Generator: Adobe Illustrator 19.0.0, SVG Export Plug-In . SVG Version: 6.00 Build 0)  -->
<svg version="1.1" id="Layer_1" xmlns="http://www.w3.org/2000/svg" xmlns:xlink="http://www.w3.org/1999/xlink" x="0px" y="0px"
	 viewBox="0 0 511.999 511.999" style="enable-background:new 0 0 511.999 511.999;" xml:space="preserve">
<g>
	<g>
		<path d="M297.607,4.825H196.939c-9.024,0-16.339,7.316-16.339,16.339c0,10.57,0,92.615,0,106.756L89.01,310.019l120.683-46.653
			c4.103-1.586,8.673-1.45,12.677,0.377l76.878,35.096l-85.97-170.919v-25.596h84.328c9.024,0,16.339-7.316,16.339-16.339V21.165
			C313.946,12.141,306.63,4.825,297.607,4.825z"/>
	</g>
</g>
<g>
	<g>
		<path d="M392.12,483.493c-15.622-31.061-53.925-107.224-69.417-138.024l-107.645-49.142L67.135,353.511L1.759,483.493
			c-5.454,10.845,2.437,23.681,14.596,23.681h361.168C389.66,507.174,397.584,494.355,392.12,483.493z"/>
	</g>
</g>
<g>
	<g>
		<path d="M510.239,483.493L392.12,248.656c-6.028-11.988-23.177-11.965-29.194,0l-26.167,52.031
			c32.068,63.755,12.981,25.806,84.556,168.123c6.114,12.155,6.867,25.909,2.423,38.364h71.905
			C507.785,507.174,515.702,494.352,510.239,483.493z"/>
	</g>
</g>
<g>
</g>
<g>
</g>
<g>
</g>
<g>
</g>
<g>
</g>
<g>
</g>
<g>
</g>
<g>
</g>
<g>
</g>
<g>
</g>
<g>
</g>
<g>
</g>
<g>
</g>
<g>
</g>
<g>
</g>
</svg>
