<?xml version="1.0" encoding="iso-8859-1"?>
<!-- Generator: Adobe Illustrator 19.0.0, SVG Export Plug-In . SVG Version: 6.00 Build 0)  -->
<svg version="1.1" id="Layer_1" xmlns="http://www.w3.org/2000/svg" xmlns:xlink="http://www.w3.org/1999/xlink" x="0px" y="0px"
	 viewBox="0 0 511.997 511.997" style="enable-background:new 0 0 511.997 511.997;" xml:space="preserve">
<g>
	<g>
		<path d="M43.669,173.382l-0.006-0.01c-6.16-5.136-15.086-5.221-21.333-0.345c-7.136,5.577-8.92,16.159-2.805,23.995l25.905,33.167
			v-36.573c0-4.97,1.469-9.602,3.988-13.494C45.949,175.682,45.429,174.855,43.669,173.382z"/>
	</g>
</g>
<g>
	<g>
		<path d="M253.975,225.631c-4.903-12.227-15.567-36.313-24.623-54.939c-6.446-13.256-20.139-21.822-34.884-21.822
			c-7.531,0-51.125,0-82.382,0c-13.901,0-26.964,7.615-33.827,19.835c10.229,0.001,95.71,0.001,105.939,0.001
			c13.736,0,24.91,11.175,24.91,24.91v13.907c2.714,5.977,5.038,11.229,6.949,15.62l-6.949,3.061v26.885h23.212l12.735-5.61
			C253.436,243.787,257.364,234.102,253.975,225.631z"/>
	</g>
</g>
<g>
	<g>
		<path d="M150.543,67.268c-19.436,0-35.193,15.756-35.193,35.193c0,19.553,15.9,35.193,35.193,35.193
			c19.407,0,35.193-15.731,35.193-35.193C185.736,83.024,169.979,67.268,150.543,67.268z"/>
	</g>
</g>
<g>
	<g>
		<path d="M129.359,401.057l-12.139-78.498H78.785l13.038,84.303c1.606,10.383,11.327,17.469,21.67,15.866
			C123.859,421.124,130.961,411.423,129.359,401.057z"/>
	</g>
</g>
<g>
	<g>
		<path d="M179.053,322.558l1.184,0.689l-12.032,77.809c-1.603,10.366,5.5,20.067,15.866,21.67
			c10.349,1.602,20.066-5.488,21.671-15.866l13.037-84.303H179.053z"/>
	</g>
</g>
<g>
	<g>
		<path d="M276.108,225.603c-3.095,7.733-0.125,16.567,7.013,20.861l10.419,6.266v-66.883
			C286.482,201.09,279.626,216.812,276.108,225.603z"/>
	</g>
</g>
<g>
	<g>
		<path d="M327.634,149.691c-10.427,2.223-19.654,8.716-25.223,17.918h40.845C336.752,162.952,331.38,156.816,327.634,149.691z"/>
	</g>
</g>
<g>
	<g>
		<path d="M418.768,148.91c-3.758,7.458-9.281,13.873-16.022,18.7h47.38C443.483,156.639,431.638,149.532,418.768,148.91z"/>
	</g>
</g>
<g>
	<g>
		<path d="M476.434,225.603c-0.261-0.652-6.152-15.325-17.079-38.996v64.438l8.159-3.594
			C475.892,243.762,479.807,234.035,476.434,225.603z"/>
	</g>
</g>
<g>
	<g>
		<circle cx="373.007" cy="125.95" r="35.193"/>
	</g>
</g>
<g>
	<g>
		<path d="M351.819,401.029l-12.14-78.498h-38.434l13.038,84.303c1.605,10.383,11.327,17.469,21.67,15.866
			C346.318,421.096,353.421,411.394,351.819,401.029z"/>
	</g>
</g>
<g>
	<g>
		<path d="M402.846,322.53l-12.183,78.497c-1.784,11.531,7.157,21.908,18.791,21.896c9.207,0,17.293-6.709,18.745-16.091
			l13.038-84.303H402.846z"/>
	</g>
</g>
<g>
	<g>
		<path d="M505.07,268.339c-7.533,0-57.817,0-68.454,0c3.3-1.296,5.639-4.501,5.639-8.261v-66.491c0-4.904-3.976-8.88-8.88-8.88
			H319.518c-4.904,0-8.88,3.976-8.88,8.88v66.491c0,3.759,2.339,6.965,5.639,8.261c-109.754,0-10.819,0.028-128.84,0.028
			c3.299-1.296,5.639-4.502,5.639-8.261v-66.491c0-4.904-3.976-8.88-8.88-8.88H70.339c-4.904,0-8.88,3.976-8.88,8.88v66.491
			c0,3.759,2.339,6.965,5.639,8.261H46.844H6.93c-3.827,0-6.93,3.103-6.93,6.93v25.053c0,3.827,3.103,6.93,6.93,6.93h10.923
			c0,4.861,0,118.496,0,123.347c0,7.789,6.314,14.102,14.101,14.102s14.101-6.314,14.101-14.102c0-4.85,0-118.487,0-123.347
			c0,0,201.639-0.028,202.805-0.028c0,3.166,0,119.006,0,123.375c0,7.789,6.314,14.102,14.101,14.102
			c7.789,0,14.101-6.314,14.101-14.102c0-4.844,0-118.525,0-123.375h184.48c0,4.855,0,118.525,0,123.375
			c0,7.789,6.314,14.102,14.102,14.102c7.789,0,14.101-6.314,14.101-14.102c0-4.844,0-118.525,0-123.375h15.321
			c3.827,0,6.93-3.103,6.93-6.93v-25.053C512,271.442,508.897,268.339,505.07,268.339z M127.269,239.789
			c-7.139,0-12.927-5.787-12.927-12.927c0.001-7.14,5.788-12.927,12.927-12.927s12.927,5.787,12.927,12.927
			C140.196,234.001,134.409,239.789,127.269,239.789z M376.447,239.761c-7.139,0-12.927-5.787-12.927-12.927
			c0-7.139,5.788-12.927,12.927-12.927c7.139,0,12.927,5.787,12.927,12.927C389.374,233.973,383.587,239.761,376.447,239.761z"/>
	</g>
</g>
<g>
</g>
<g>
</g>
<g>
</g>
<g>
</g>
<g>
</g>
<g>
</g>
<g>
</g>
<g>
</g>
<g>
</g>
<g>
</g>
<g>
</g>
<g>
</g>
<g>
</g>
<g>
</g>
<g>
</g>
</svg>
