<?xml version="1.0" encoding="iso-8859-1"?>
<!-- Generator: Adobe Illustrator 19.0.0, SVG Export Plug-In . SVG Version: 6.00 Build 0)  -->
<svg version="1.1" id="Layer_1" xmlns="http://www.w3.org/2000/svg" xmlns:xlink="http://www.w3.org/1999/xlink" x="0px" y="0px"
	 viewBox="0 0 297 297" style="enable-background:new 0 0 297 297;" xml:space="preserve">
<g>
	<g>
		<g>
			<circle style="fill:#C0392B;" cx="148.5" cy="148.5" r="148.5"/>
		</g>
	</g>
	<path style="fill:#A0251F;" d="M296.419,135.411L230.57,69.496l-84.89,191.728l32.243,32.855C245.843,280.427,297,220.44,297,148.5
		C297,144.088,296.796,139.725,296.419,135.411z"/>
	<g>
		<path style="fill:#D5C295;" d="M63.5,92.019c16.848-29.507,48.589-49.413,85-49.413s68.152,19.905,85,49.413l-78.839,165.908
			c-2.467,5.192-9.855,5.192-12.322,0L63.5,92.019z"/>
	</g>
	<g>
		<path style="fill:#C4AC7C;" d="M148.5,42.607c-0.111,0-0.222,0.005-0.333,0.006V261.8c2.573,0.123,5.205-1.159,6.494-3.872
			L233.5,92.019C216.652,62.512,184.911,42.607,148.5,42.607z"/>
	</g>
	<g>
		<circle style="fill:#79302A;" cx="115.5" cy="115.5" r="16.5"/>
	</g>
	<g>
		<circle style="fill:#6B2420;" cx="165" cy="165" r="16.5"/>
	</g>
	<g>
		<circle style="fill:#6B2420;" cx="181.5" cy="82.5" r="16.5"/>
	</g>
	<g>
		<path style="fill:#F0DEB4;" d="M138.009,141.446c-5.553-4.976-14.088-4.508-19.063,1.045c-3.334,3.721-0.177,4.268,3.938,5.72
			l-5.93,6.617c-1.099,1.227-0.996,3.113,0.231,4.212l5.611,5.028c1.227,1.099,3.113,0.996,4.212-0.231l5.93-6.617
			c1.893,3.932,2.782,7.01,6.116,3.29C144.03,154.956,143.562,146.421,138.009,141.446z"/>
	</g>
	<g>
		<path style="fill:#F0DEB4;" d="M180.546,111.833c-6.581,3.503-9.076,11.678-5.573,18.26c2.348,4.41,3.946,1.634,6.725-1.731
			l4.175,7.844c0.774,1.454,2.581,2.006,4.035,1.232l6.65-3.539c1.454-0.774,2.006-2.58,1.231-4.035l-4.175-7.844
			c4.343-0.425,7.539-0.201,5.191-4.611C195.303,110.827,187.128,108.331,180.546,111.833z"/>
	</g>
	<g>
		<path style="fill:#F0DEB4;" d="M126.527,70.819c-3.558-2.686-8.62-1.979-11.307,1.58c-1.8,2.385,0.108,2.552,2.633,3.211
			l-3.202,4.241c-0.594,0.786-0.438,1.905,0.349,2.499l3.595,2.714c0.786,0.594,1.905,0.437,2.498-0.349l3.202-4.241
			c1.325,2.248,2.009,4.038,3.809,1.653C130.791,78.568,130.085,73.505,126.527,70.819z"/>
	</g>
	<g>
		<path style="fill:#F0DEB4;" d="M160.736,216.395c-3.558-2.686-8.62-1.979-11.307,1.58c-1.8,2.385,0.108,2.552,2.633,3.211
			l-3.202,4.241c-0.594,0.786-0.438,1.905,0.349,2.499l3.595,2.714c0.786,0.594,1.905,0.437,2.498-0.349l3.202-4.241
			c1.325,2.248,2.009,4.038,3.809,1.653C165,224.144,164.294,219.081,160.736,216.395z"/>
	</g>
	<g>
		<path style="fill:#8EB021;" d="M143.028,95.75h-5.556c-1.227,0-2.222-0.995-2.222-2.222v-5.556c0-1.227,0.995-2.222,2.222-2.222
			h5.556c1.227,0,2.222,0.995,2.222,2.222v5.556C145.25,94.755,144.255,95.75,143.028,95.75z"/>
	</g>
	<g>
		<path style="fill:#8EB021;" d="M162.778,142h-5.556c-1.227,0-2.222-0.995-2.222-2.222v-5.556c0-1.227,0.995-2.222,2.222-2.222
			h5.556c1.227,0,2.222,0.995,2.222,2.222v5.556C165,141.005,164.005,142,162.778,142z"/>
	</g>
	<g>
		<path style="fill:#8EB021;" d="M212.278,109h-5.556c-1.227,0-2.222-0.995-2.222-2.222v-5.556c0-1.227,0.995-2.222,2.222-2.222
			h5.556c1.227,0,2.222,0.995,2.222,2.222v5.556C214.5,108.005,213.505,109,212.278,109z"/>
	</g>
	<g>
		<path style="fill:#8EB021;" d="M106.778,148.5h-5.556c-1.227,0-2.222-0.995-2.222-2.222v-5.556c0-1.227,0.995-2.222,2.222-2.222
			h5.556c1.227,0,2.222,0.995,2.222,2.222v5.556C109,147.505,108.005,148.5,106.778,148.5z"/>
	</g>
	<g>
		<path style="fill:#8EB021;" d="M148.833,205.067l-4.271,3.553c-0.943,0.785-2.345,0.656-3.129-0.287l-3.553-4.271
			c-0.785-0.943-0.656-2.345,0.287-3.129l4.271-3.553c0.943-0.785,2.345-0.656,3.129,0.287l3.553,4.271
			C149.905,202.881,149.777,204.282,148.833,205.067z"/>
	</g>
	<g>
		<path style="fill:#8E725E;" d="M244.858,98.042c-3.065,2.32-7.436,1.557-9.565-1.644c-18.668-28.064-50.56-46.572-86.793-46.572
			S80.375,68.333,61.707,96.398c-2.129,3.201-6.5,3.964-9.565,1.644l0,0c-2.777-2.102-3.467-5.991-1.582-8.92
			c20.713-32.181,56.825-53.509,97.94-53.509s77.227,21.328,97.94,53.509C248.325,92.05,247.635,95.94,244.858,98.042
			L244.858,98.042z"/>
	</g>
	<g>
		<path style="fill:#7F5F49;" d="M246.44,89.122c-20.713-32.181-56.825-53.509-97.94-53.509c-0.111,0-0.222,0.005-0.333,0.005
			v14.214c0.111,0,0.222-0.005,0.333-0.005c36.233,0,68.125,18.507,86.793,46.572c2.129,3.201,6.5,3.964,9.565,1.644
			C247.635,95.94,248.325,92.05,246.44,89.122z"/>
	</g>
</g>
<g>
</g>
<g>
</g>
<g>
</g>
<g>
</g>
<g>
</g>
<g>
</g>
<g>
</g>
<g>
</g>
<g>
</g>
<g>
</g>
<g>
</g>
<g>
</g>
<g>
</g>
<g>
</g>
<g>
</g>
</svg>
