<svg xmlns="http://www.w3.org/2000/svg" width="44.73" height="39.83" viewBox="0 0 44.73 39.83">
  <g id="_" data-name=" " transform="translate(-6.58 -2.93)">
    <g id="Groupe_472" data-name="Groupe 472">
      <path id="Tracé_2773" data-name="Tracé 2773" d="M26.11,16.51a27.354,27.354,0,0,1-2.625,12.075,29.2,29.2,0,0,1-7.945,9.8Q10.22,42.76,8.75,42.76a1.826,1.826,0,0,1-1.54-.945,3.114,3.114,0,0,1-.63-1.645l.21-.56q11.479-7.35,11.48-17.64,0-3.219-1.12-3.22l-.84.21a3.793,3.793,0,0,1-1.4.349,7.131,7.131,0,0,1-5.495-2.415,8.355,8.355,0,0,1-2.2-5.844A7.824,7.824,0,0,1,9.59,5.309,7.827,7.827,0,0,1,15.33,2.93a9.454,9.454,0,0,1,7.735,3.85A15.2,15.2,0,0,1,26.11,16.51Zm25.2,0a27.354,27.354,0,0,1-2.625,12.075,29.2,29.2,0,0,1-7.945,9.8Q35.42,42.76,33.95,42.76a1.894,1.894,0,0,1-1.575-.989,3.227,3.227,0,0,1-.665-1.721.582.582,0,0,1,.28-.579q11.48-7.3,11.48-17.52,0-3.2-1.12-3.2l-.84.21a3.8,3.8,0,0,1-1.4.349,7.131,7.131,0,0,1-5.495-2.415A8.355,8.355,0,0,1,32.41,11.05a7.824,7.824,0,0,1,2.38-5.741A7.827,7.827,0,0,1,40.53,2.93a9.454,9.454,0,0,1,7.735,3.85A15.2,15.2,0,0,1,51.31,16.51Z" fill="#19a9d5"/>
    </g>
  </g>
</svg>
