<svg xmlns="http://www.w3.org/2000/svg" width="44.73" height="39.9" viewBox="0 0 44.73 39.9">
  <g id="Groupe_471" data-name="Groupe 471" transform="translate(-4.19 -1.11)">
    <path id="Tracé_2772" data-name="Tracé 2772" d="M23.51,4.26Q12.029,11.61,12.03,21.97q0,3.221,1.12,3.22l.77-.21a4.35,4.35,0,0,1,1.47-.35,7.174,7.174,0,0,1,5.495,2.39,8.383,8.383,0,0,1,2.2,5.9,7.757,7.757,0,0,1-2.38,5.73,7.865,7.865,0,0,1-5.74,2.355,9.443,9.443,0,0,1-7.735-3.857A15.133,15.133,0,0,1,4.19,27.475a27.816,27.816,0,0,1,2.59-12.06,29.051,29.051,0,0,1,7.91-9.888q5.319-4.416,6.79-4.417a1.877,1.877,0,0,1,1.61.945A3.111,3.111,0,0,1,23.72,3.7Zm25.2,0Q37.229,11.61,37.229,21.97q0,3.221,1.121,3.22l.77-.21a4.35,4.35,0,0,1,1.47-.35,7.207,7.207,0,0,1,5.46,2.39,8.31,8.31,0,0,1,2.24,5.9,7.757,7.757,0,0,1-2.38,5.73,7.865,7.865,0,0,1-5.74,2.355,9.443,9.443,0,0,1-7.735-3.857,15.133,15.133,0,0,1-3.045-9.678A27.9,27.9,0,0,1,32.015,15.31a28.828,28.828,0,0,1,7.91-9.852Q45.21,1.109,46.68,1.11a1.877,1.877,0,0,1,1.61.945A3.111,3.111,0,0,1,48.92,3.7Z" fill="#19a9d5"/>
  </g>
</svg>
