<?xml version="1.0" encoding="iso-8859-1"?>
<!-- Generator: Adobe Illustrator 19.0.0, SVG Export Plug-In . SVG Version: 6.00 Build 0)  -->
<svg version="1.1" id="Layer_1" xmlns="http://www.w3.org/2000/svg" xmlns:xlink="http://www.w3.org/1999/xlink" x="0px" y="0px"
	 viewBox="0 0 512 512" style="enable-background:new 0 0 512 512;" xml:space="preserve">
<path style="fill:#324D5B;" d="M256,0C114.616,0,0,114.616,0,256c0,141.389,114.616,256,256,256c141.379,0,256-114.611,256-256
	C512,114.616,397.379,0,256,0z"/>
<path style="fill:#EFC75E;" d="M276.449,240.532c13.599,13.619,13.599,35.712,0,49.331c-13.599,13.629-53.228,31.252-66.826,17.623
	c-13.599-13.629,3.988-53.335,17.587-66.954C240.809,226.903,262.851,226.903,276.449,240.532L276.449,240.532z"/>
<path style="fill:#DEB957;" d="M235.581,234.342l-0.061,1.178c0,25.446,20.634,46.08,46.08,46.08l0.988-0.051
	c6.989-13.184,4.951-29.916-6.139-41.021C265.38,229.443,248.73,227.379,235.581,234.342z"/>
<path style="fill:#26A6D1;" d="M7.506,317.573c24.346,98.575,105.774,174.612,207.227,191.063
	C208.993,402.079,120.791,317.44,12.8,317.44C11.023,317.44,9.272,317.532,7.506,317.573L7.506,317.573z"/>
<g>
	<path style="fill:#1795BF;" d="M63.457,424.612c16.21-2.237,28.703-16.108,28.703-32.932c0-18.386-14.899-33.28-33.28-33.28
		c-12.58,0-23.526,6.984-29.184,17.285C39.045,393.324,50.406,409.718,63.457,424.612z"/>
	<circle style="fill:#1795BF;" cx="148.48" cy="430.08" r="20.48"/>
</g>
<path style="fill:#EFC75E;" d="M76.805,30.73c-3.072,27.638-18.432,43.003-46.08,46.08c27.648,3.072,43.008,18.437,46.08,46.08
	c3.072-27.643,18.437-43.008,46.085-46.08C95.242,73.733,79.877,58.368,76.805,30.73z M368.64,378.89
	c-2.391,21.494-14.331,33.444-35.84,35.84c21.509,2.386,33.449,14.336,35.84,35.84c2.391-21.504,14.341-33.454,35.85-35.84
	C382.981,412.334,371.031,400.384,368.64,378.89z"/>
<path style="fill:#5B717C;" d="M455.68,230.405c-1.7,15.355-10.24,23.895-25.6,25.605c15.36,1.7,23.9,10.24,25.6,25.595
	c1.71-15.355,10.24-23.895,25.6-25.595C465.92,254.3,457.39,245.76,455.68,230.405z M97.28,220.16
	c-1.367,12.283-8.192,19.118-20.48,20.48c12.288,1.367,19.113,8.197,20.48,20.48c1.367-12.278,8.192-19.108,20.48-20.48
	C105.477,239.278,98.647,232.443,97.28,220.16z M240.64,363.52c-1.705,15.36-10.24,23.9-25.6,25.605
	c15.36,1.705,23.895,10.245,25.6,25.6c1.705-15.355,10.24-23.895,25.6-25.6C250.88,387.42,242.35,378.88,240.64,363.52z"/>
<path style="fill:#F26C4F;" d="M347.94,164.055c41.692,41.697,50.038,100.951,10.419,140.575l-18.708,18.714
	c-39.619,39.613-12.18-55.424-53.878-97.121c-41.692-41.697-136.735-14.259-97.111-53.878l18.714-18.714
	C246.994,114.017,306.237,122.363,347.94,164.055L347.94,164.055z"/>
<path style="fill:#F4F0D3;" d="M486.231,25.769c12.672,12.672,7.101,93.015-70.799,170.921
	c-50.734,50.729-82.78,68.475-82.78,68.475c-33.93,22.784-50.34,7.224-71.69-14.126c-21.504-21.509-37.233-37.78-14.126-71.69
	c0,0,17.987-32.282,68.48-82.775C393.149,18.729,473.508,13.051,486.231,25.769L486.231,25.769z"/>
<path style="fill:#8BA0AB;" d="M383.892,154.829c-7.178,0-13.932-2.796-19.011-7.875c-10.481-10.481-10.47-27.535,0-38.016
	c5.079-5.074,11.832-7.869,19.011-7.869s13.932,2.796,19.011,7.869c5.079,5.079,7.869,11.832,7.869,19.011
	c0,7.178-2.79,13.932-7.869,19.005C397.824,152.028,391.071,154.829,383.892,154.829z"/>
<path style="fill:#324D5B;" d="M383.892,104.909c6.149,0,11.94,2.396,16.292,6.743c4.362,4.357,6.748,10.138,6.748,16.297
	c0,6.154-2.391,11.94-6.748,16.292c-4.352,4.352-10.138,6.748-16.292,6.748c-6.159,0-11.94-2.396-16.292-6.748
	c-8.98-8.98-8.98-23.603,0-32.589C371.947,107.305,377.728,104.909,383.892,104.909 M383.892,97.229
	c-7.859,0-15.729,2.995-21.719,8.996c-12.001,12.001-12.001,31.452,0,43.448c5.99,5.996,13.86,8.996,21.719,8.996
	c7.859,0,15.718-3,21.719-8.996c12.001-11.996,12.001-31.447,0-43.448C399.611,100.229,391.752,97.229,383.892,97.229z"/>
<path style="fill:#1483A8;" d="M143.36,419.84c11.31,0,20.48,9.17,20.48,20.48c0,1.239-0.154,2.442-0.364,3.62
	c3.374-3.656,5.484-8.494,5.484-13.86c0-11.31-9.17-20.48-20.48-20.48c-10.071,0-18.401,7.286-20.116,16.86
	C132.106,422.415,137.416,419.84,143.36,419.84z M58.88,358.4c-12.6,0-23.48,7.06-29.128,17.388l1.085,2.12
	c5.965-5.709,14.008-9.267,22.922-9.267c18.381,0,33.28,14.894,33.28,33.28c0,3.292-0.497,6.467-1.388,9.467
	c4.07-5.519,6.508-12.324,6.508-19.707C92.16,373.294,77.261,358.4,58.88,358.4z"/>
<path style="fill:#F26C4F;" d="M416.338,30.162c3.389,15.468,12.012,31.462,25.528,44.959
	c11.709,11.694,25.288,19.707,38.779,23.854c14.06-37.504,12.708-66.074,5.581-73.206C479.288,18.831,452.178,17.403,416.338,30.162
	L416.338,30.162z"/>
<path style="fill:#DAD3AF;" d="M348.278,254.751c-35.738,24.003-53.028,7.613-75.51-14.879
	c-22.656-22.651-39.229-39.793-14.889-75.52c0,0,2.386-4.255,7.695-11.955c-13.266,17.157-18.749,26.952-18.749,26.952
	c-23.107,33.915-7.378,50.186,14.126,71.69c21.35,21.35,37.76,36.91,71.69,14.126c0,0,5.908-3.287,16.609-10.988L348.278,254.751z"
	/>
<path style="fill:#F26C4F;" d="M336.369,180.746c6.118,6.113-5.499,27.648-35.062,57.206
	c-29.558,29.558-47.396,37.489-53.519,31.375c-6.113-6.113,1.818-23.962,31.375-53.519S330.26,174.628,336.369,180.746z"/>
<g>
</g>
<g>
</g>
<g>
</g>
<g>
</g>
<g>
</g>
<g>
</g>
<g>
</g>
<g>
</g>
<g>
</g>
<g>
</g>
<g>
</g>
<g>
</g>
<g>
</g>
<g>
</g>
<g>
</g>
</svg>
