<svg xmlns="http://www.w3.org/2000/svg" viewBox="0 0 84.112 105.906">
  <defs>
    <style>
      .cls-1 {
        fill: #fdba1d;
        stroke: #fdba1d;
      }
    </style>
  </defs>
  <g id="Groupe_95" data-name="Groupe 95" transform="translate(0.434 0.502)">
    <path id="Tracé_115" data-name="Tracé 115" class="cls-1" d="M41.06,129.235a1.394,1.394,0,0,0,1.393-1.393c0-2.979.048-5.718-.048-8.457,0-.577-.721-1.153-1.2-1.634-2.306-2.258-2.354-5.045-.192-7.208a4.594,4.594,0,0,1,6.679.192c2.018,2.018,1.826,4.805-.336,7.015a4.842,4.842,0,0,0-1.3,2.787c-.144,2.354-.1,4.757-.048,7.352a1.394,1.394,0,0,0,1.393,1.393H79.788c3.6,0,3.988.673,2.883,4.18-2.595,7.976-5.093,16-7.64,23.977a8.156,8.156,0,0,1-.961,2.691,2.529,2.529,0,0,1-.961.769,1.382,1.382,0,0,1-1.97-.673,3.989,3.989,0,0,1-.288-1.009,6.887,6.887,0,0,1,.625-2.306c2.306-7.3,4.661-14.607,6.967-21.959l.144-.432a1.42,1.42,0,0,0-1.345-1.778H6.223a1.365,1.365,0,0,0-1.3,1.826c1.2,3.364,2.354,6.583,3.556,9.8,1.682,4.661,3.508,9.274,5.045,13.983.288.913.048,2.691-.529,3.027-1.538.817-2.162-.577-2.643-1.826-3.267-9.033-6.583-18.019-9.9-27.052-.913-2.547-.384-3.364,2.451-3.364,10.571-.048,21.142,0,31.713,0C36.687,129.235,38.8,129.235,41.06,129.235Zm3.7-13.983a1.37,1.37,0,0,0-.24-2.4,1.708,1.708,0,0,0-.481-.1.581.581,0,0,0-.432.288,1.383,1.383,0,0,0,.144,1.97,1.615,1.615,0,0,0,.673.384A1.742,1.742,0,0,0,44.76,115.252Z" transform="translate(0 -56.728)"/>
    <path id="Tracé_116" data-name="Tracé 116" class="cls-1" d="M56.8,17.057A17.279,17.279,0,0,1,74,0C83.468.1,91.4,8.023,91.3,17.3A17.6,17.6,0,0,1,73.521,34.4C64.488,34.259,56.752,26.234,56.8,17.057ZM74,3.459a13.231,13.231,0,0,0-13.742,13.31c-.144,7.976,5.574,14.079,13.118,14.175,8.265.1,14.223-5.478,14.319-13.454C87.84,9.369,82.17,3.555,74,3.459Z" transform="translate(-29.482 0)"/>
    <path id="Tracé_117" data-name="Tracé 117" class="cls-1" d="M67.263,87.3a79.194,79.194,0,0,1,9.562.577,15.829,15.829,0,0,1,13.262,14.9q.288,5.766,0,11.532a1.1,1.1,0,0,1-.144.529,1.763,1.763,0,0,1-3.075-.048,1.28,1.28,0,0,1-.144-.577c-.192-3.508-.048-7.015-.1-10.571-.144-7.592-5.093-12.541-12.733-12.685-4.421-.1-8.793-.1-13.214,0-7.592.144-12.733,5.43-12.733,12.974v10.091c0,1.3-.288,2.691-1.826,2.4-.673-.1-1.49-1.538-1.538-2.4q-.216-5.406,0-10.811A16.183,16.183,0,0,1,60.536,87.492C62.794,87.4,67.263,87.348,67.263,87.3Z" transform="translate(-23.08 -45.353)"/>
  </g>
</svg>
