<?xml version="1.0" encoding="iso-8859-1"?>
<!-- Generator: Adobe Illustrator 16.0.0, SVG Export Plug-In . SVG Version: 6.00 Build 0)  -->
<!DOCTYPE svg PUBLIC "-//W3C//DTD SVG 1.1//EN" "http://www.w3.org/Graphics/SVG/1.1/DTD/svg11.dtd">
<svg version="1.1" id="Capa_1" xmlns="http://www.w3.org/2000/svg" xmlns:xlink="http://www.w3.org/1999/xlink" x="0px" y="0px"
	 width="45.692px" height="45.691px" viewBox="0 0 45.692 45.691" style="enable-background:new 0 0 45.692 45.691;"
	 xml:space="preserve">
<g>
	<g>
		<path d="M29.43,26.645c-0.369-0.425-0.906-0.785-1.47-0.785H17.789c-0.564,0-1.101,0.36-1.471,0.785
			c-0.369,0.426-0.535,1.049-0.456,1.607l1.701,11.917c0.137,0.958,0.957,1.692,1.924,1.692h6.773c0.967,0,1.789-0.705,1.924-1.664
			l1.701-11.948C29.964,27.691,29.797,27.07,29.43,26.645z"/>
		<path d="M14.066,30.428c-0.618-0.271-1.333-0.205-1.889,0.178l-4.554,3.141c-0.885,0.609-1.106,1.82-0.497,2.703l3.931,5.701
			c0.568,0.824,1.671,1.082,2.547,0.594l1.701-0.948c0.698-0.39,1.088-1.168,0.979-1.961l-1.078-7.892
			C15.117,31.275,14.684,30.701,14.066,30.428z"/>
		<path d="M7.784,39.855c-0.217-0.291-0.585-0.427-0.939-0.346c-0.353,0.081-0.627,0.361-0.698,0.717l-0.878,4.361
			c-0.072,0.357,0.074,0.723,0.37,0.934c0.299,0.211,0.69,0.227,1.004,0.041l2.87-1.707c0.225-0.133,0.383-0.355,0.434-0.611
			c0.052-0.258-0.009-0.523-0.166-0.732L7.784,39.855z"/>
		<path d="M38.067,33.746l-4.555-3.141c-0.557-0.383-1.271-0.451-1.89-0.178c-0.617,0.271-1.049,0.848-1.142,1.516l-1.077,7.892
			c-0.108,0.793,0.28,1.571,0.979,1.961l1.7,0.948c0.876,0.488,1.979,0.23,2.547-0.594l3.931-5.701
			C39.172,35.566,38.95,34.355,38.067,33.746z"/>
		<path d="M40.422,44.587l-0.878-4.36c-0.071-0.357-0.345-0.637-0.698-0.718s-0.723,0.056-0.938,0.345l-1.996,2.655
			c-0.156,0.209-0.218,0.476-0.166,0.731c0.051,0.257,0.209,0.479,0.435,0.613l2.869,1.707c0.313,0.186,0.705,0.17,1.004-0.041
			C40.35,45.311,40.495,44.943,40.422,44.587z"/>
		<path d="M23.018,23.945c1.433,0,13.988-0.123,13.988-4.41c0-1.91-2.495-2.993-5.389-3.606c0.112-0.185,0.218-0.376,0.317-0.57
			l1.985-0.178c1.593-0.038,2.921-1.236,3.099-2.799l0.398-3.402c0.102-0.881-0.156-1.604-0.79-2.314
			c-0.728-0.813-1.726-0.768-2.387-0.768h-0.907l0.195-2.796c0.002-0.014,0.002-0.056,0.003-0.069
			c0.001-0.023,0.003-0.062,0.003-0.085C33.534,1.324,28.825,0,23.017,0S12.502,1.314,12.502,2.939c0,0.024,0,0.046,0.003,0.069
			c0,0.014,0,0.026,0.002,0.039l0.632,8.844c0.104,1.476,0.56,2.848,1.278,4.039c-2.891,0.614-5.388,1.697-5.388,3.606
			C9.03,23.822,21.586,23.945,23.018,23.945z M32.897,12.007L33.2,7.906h1.333c0.832,0,1.086,0.811,1.053,1.103l-0.411,3.287
			c-0.078,0.667-0.602,0.945-1.296,0.973c-0.298,0.012-1.19,0.082-1.19,0.082C32.811,12.849,32.858,12.541,32.897,12.007z
			 M23.018,2.14c3.808,0,6.894,0.646,6.894,1.444c0,0.8-3.086,1.446-6.894,1.446c-3.806,0-6.894-0.646-6.894-1.446
			C16.124,2.787,19.211,2.14,23.018,2.14z M16.242,17.885c1.596,1.384,3.676,2.009,5.938,2.009h1.675
			c2.264,0,4.344-0.625,5.939-2.009c2.51,0.411,4.122,1.1,4.645,1.547c-0.899,0.771-5.034,2.003-11.42,2.003
			c-6.384,0-10.521-1.252-11.418-2.024C12.119,18.963,13.73,18.296,16.242,17.885z"/>
	</g>
</g>
<g>
</g>
<g>
</g>
<g>
</g>
<g>
</g>
<g>
</g>
<g>
</g>
<g>
</g>
<g>
</g>
<g>
</g>
<g>
</g>
<g>
</g>
<g>
</g>
<g>
</g>
<g>
</g>
<g>
</g>
</svg>
