<?xml version="1.0" encoding="iso-8859-1"?>
<!-- Generator: Adobe Illustrator 18.0.0, SVG Export Plug-In . SVG Version: 6.00 Build 0)  -->
<!DOCTYPE svg PUBLIC "-//W3C//DTD SVG 1.1//EN" "http://www.w3.org/Graphics/SVG/1.1/DTD/svg11.dtd">
<svg version="1.1" id="Capa_1" xmlns="http://www.w3.org/2000/svg" xmlns:xlink="http://www.w3.org/1999/xlink" x="0px" y="0px"
	 viewBox="0 0 460.008 460.008" style="enable-background:new 0 0 460.008 460.008;" xml:space="preserve">
<g id="XMLID_452_">
	<circle id="XMLID_459_" cx="92.2" cy="37.417" r="37.417"/>
	<path id="XMLID_475_" d="M36.803,173.667l0.222-44.213l0-0.002c0.011-1.975,1.617-3.568,3.592-3.563
		c1.975,0.006,3.572,1.608,3.572,3.583v44.195c11.008,0,84.913,0,95.629,0v-44.388c0-2.087,1.692-3.779,3.779-3.779
		s3.779,1.692,3.779,3.779c0,0.058,0,0.116-0.001,0.175l0.222,44.213h19.945c6.165,0,11.815,2.234,16.193,5.93l-0.253-50.325
		c-0.118-23.44-19.284-42.51-42.724-42.51h-17.762l-23.168,60.085l5.418-25.52c0.375-1.766,0.103-3.609-0.767-5.191l-7.34-13.35
		l6.337-12.091c0.452-0.822,0.436-1.822-0.041-2.63c-0.478-0.808-1.346-1.303-2.285-1.303H83.256c-0.938,0-1.807,0.496-2.285,1.303
		c-0.478,0.808-0.493,1.808-0.041,2.63l6.701,12.116l-7.354,13.374c-0.854,1.552-1.132,3.356-0.787,5.094l4.693,25.567
		L61.761,86.762H43.642c-23.44,0-42.606,19.07-42.724,42.51l-0.246,49.01c4.099-2.902,9.097-4.615,14.49-4.615H36.803z"/>
	<path id="XMLID_477_" d="M34.564,248.776C34.564,234.012,46.576,222,61.34,222h62.077c14.764,0,26.776,12.012,26.776,26.776v27.246
		c6.637-4.552,14.268-7.748,22.493-9.21v-68.001c0-2.836-2.308-5.144-5.144-5.144H15.162c-2.836,0-5.144,2.308-5.144,5.144v81.046
		c0,2.836,2.308,5.144,5.144,5.144h19.402V248.776z"/>
	<circle id="XMLID_478_" cx="366.997" cy="324.182" r="37.866"/>
	<g id="XMLID_109_">
		<path id="XMLID_468_" d="M459.123,417.139c-0.119-23.721-19.515-43.02-43.237-43.02c-10.17,0-87.895,0-98.086,0
			c-22.351,0-40.854,17.134-43.019,38.955c-1.986-22.18-20.74-39.369-43.053-39.369c-10.17,0-87.895,0-98.086,0
			c-23.722,0-43.118,19.299-43.237,43.02L90.202,460c13.17-0.016,25.343,0.024,36.537,0l0.207-43.093c0,0,0-0.001,0-0.002
			c0.01-1.945,1.592-3.515,3.537-3.509s3.518,1.584,3.518,3.529V460c61.058-0.145,91.144,0,96.776,0v-43.188
			c0-2.112,1.712-3.824,3.824-3.824s3.824,1.712,3.824,3.824c0,0.032,0,0.063,0,0.095L238.638,460c26.711,0,46.667,0,72.254,0
			l0.212-42.678c0,0,0-0.001,0-0.002c0.01-1.945,1.592-3.515,3.537-3.509c1.945,0.005,3.518,1.584,3.518,3.529V460h96.776v-42.507
			c0-2.079,1.66-3.777,3.739-3.824c2.078-0.047,3.815,1.574,3.908,3.651c0,0.001,0,0.001,0,0.001L422.794,460h36.542
			L459.123,417.139z"/>
		<path id="XMLID_469_" d="M133.339,353.712c-5.223-8.602-8.367-18.949-8.367-29.944c0-8.549,1.878-16.662,5.22-23.972v-51.019
			c0-3.742-3.034-6.776-6.776-6.776H61.34c-3.742,0-6.776,3.034-6.776,6.776v184.17H31.298c-3.742,0-6.776,3.034-6.776,6.776v13.502
			c0,3.742,3.034,6.776,6.776,6.776c13.747,0,26.702,0.01,38.904,0l0.204-43.376C70.579,382.052,98.759,353.876,133.339,353.712z"/>
	</g>
	<path id="XMLID_903_" d="M182.839,285.901c-20.911,0-37.866,16.951-37.866,37.866c0,11.449,5.143,22.533,14.692,29.936h0
		c6.406,4.966,14.442,7.93,23.174,7.93c20.768,0,37.866-16.821,37.866-37.866C220.705,302.868,203.766,285.901,182.839,285.901z"/>
</g>
<g>
</g>
<g>
</g>
<g>
</g>
<g>
</g>
<g>
</g>
<g>
</g>
<g>
</g>
<g>
</g>
<g>
</g>
<g>
</g>
<g>
</g>
<g>
</g>
<g>
</g>
<g>
</g>
<g>
</g>
</svg>
