<?xml version="1.0" encoding="iso-8859-1"?>
<!-- Generator: Adobe Illustrator 16.0.0, SVG Export Plug-In . SVG Version: 6.00 Build 0)  -->
<svg version="1.1" id="Capa_1" xmlns="http://www.w3.org/2000/svg" xmlns:xlink="http://www.w3.org/1999/xlink" x="0px" y="0px"
	 viewBox="0 0 512 512" style="enable-background:new 0 0 512 512;" xml:space="preserve">
	<defs><style>.a{fill:#d3d3d3;}</style></defs>
	<path class="a" d="M400,86.153c38.232,0,72.547-20.811,96-36.553v297.845C472.547,363.188,438.232,384,400,384s-72.547-11.335-96-27.078
		c-23.454-15.74-57.768-27.074-96-27.074c-38.233,0-72.545,19.457-96,35.197V67.2C135.455,51.458,169.767,32,208,32
		c38.232,0,72.546,11.334,96,27.076C327.453,74.818,361.768,86.153,400,86.153z M48,0c17.673,0,32,14.327,32,32v480H16V32
		C16,14.327,30.327,0,48,0z"/>
</svg>
