<svg xmlns="http://www.w3.org/2000/svg" width="9.091" height="13.132" viewBox="0 0 9.091 13.132"><defs><style>.a{fill:#d3d3d3;}</style></defs><g transform="translate(-1364.384 -3984.568)"><g transform="translate(1364.384 3984.568)"><path class="a" d="M148.7,9.091a2.532,2.532,0,0,0,2.525-2.525V2.525a2.431,2.431,0,0,0-.742-1.784,2.515,2.515,0,0,0-3.567,0,2.432,2.432,0,0,0-.742,1.784v4.04A2.532,2.532,0,0,0,148.7,9.091Z" transform="translate(-144.159)"/><path class="a" d="M82.028,182.874a.5.5,0,0,0-.86.355v1.01a3.535,3.535,0,0,1-7.071,0v-1.01a.505.505,0,0,0-1.01,0v1.01a4.545,4.545,0,0,0,4.041,4.514v1.042h-2.02a.505.505,0,0,0,0,1.01h5.05a.505.505,0,0,0,0-1.01h-2.02v-1.042a4.545,4.545,0,0,0,4.041-4.514v-1.01A.485.485,0,0,0,82.028,182.874Z" transform="translate(-73.087 -177.673)"/></g></g></svg>