<svg id="baseline-directions_transit-24px" xmlns="http://www.w3.org/2000/svg" viewBox="0 0 70.641 70.641">
  <defs>
    <style>
      .cls-1 {
        fill: none;
      }

      .cls-2 {
        fill: #969695;
      }
    </style>
  </defs>
  <path id="Tracé_2504" data-name="Tracé 2504" class="cls-1" d="M0,0H70.641V70.641H0Z"/>
  <path id="Tracé_2505" data-name="Tracé 2505" class="cls-2" d="M35.956,2C18.3,2,4,3.748,4,15.986V49.2c0,6.748,6.271,12.238,13.981,12.238l-5.992,5.245v1.748H59.924V66.688l-5.992-5.245c7.71,0,13.981-5.49,13.981-12.238V15.986C67.913,3.748,53.612,2,35.956,2ZM17.981,54.449c-3.315,0-5.992-2.343-5.992-5.245s2.676-5.245,5.992-5.245S23.973,46.3,23.973,49.2,21.3,54.449,17.981,54.449ZM31.962,33.47H11.989V15.986H31.962Zm21.97,20.98c-3.315,0-5.992-2.343-5.992-5.245s2.676-5.245,5.992-5.245S59.924,46.3,59.924,49.2,57.247,54.449,53.932,54.449Zm5.992-20.98H39.951V15.986H59.924Z" transform="translate(-0.636 -0.318)"/>
</svg>
