<svg xmlns="http://www.w3.org/2000/svg" viewBox="0 0 34.836 43.723">
  <defs>
    <style>
      .cls-1 {
        fill: #fdba1d;
        stroke: #fdba1d;
      }
    </style>
  </defs>
  <g id="Groupe_88" data-name="Groupe 88" transform="translate(0.443 0.502)">
    <path id="Tracé_115" data-name="Tracé 115" class="cls-1" d="M16.747,117.355a.568.568,0,0,0,.567-.567c0-1.213.02-2.328-.02-3.444,0-.235-.293-.47-.489-.665a1.921,1.921,0,0,1-.078-2.935,1.871,1.871,0,0,1,2.72.078,1.923,1.923,0,0,1-.137,2.857,1.972,1.972,0,0,0-.528,1.135c-.059.959-.039,1.937-.02,2.994a.568.568,0,0,0,.567.567H32.517c1.467,0,1.624.274,1.174,1.7-1.057,3.248-2.074,6.515-3.111,9.763a3.321,3.321,0,0,1-.391,1.1,1.03,1.03,0,0,1-.391.313.563.563,0,0,1-.8-.274,1.624,1.624,0,0,1-.117-.411,2.8,2.8,0,0,1,.254-.939c.939-2.974,1.9-5.948,2.837-8.941l.059-.176a.578.578,0,0,0-.548-.724H2.562a.556.556,0,0,0-.528.743c.489,1.37.959,2.68,1.448,3.991.685,1.9,1.428,3.776,2.054,5.694.117.372.02,1.1-.215,1.233-.626.333-.88-.235-1.076-.743-1.33-3.678-2.68-7.337-4.031-11.015-.372-1.037-.157-1.37,1-1.37,4.3-.02,8.609,0,12.913,0C14.967,117.355,15.828,117.355,16.747,117.355Zm1.507-5.694a.558.558,0,0,0-.1-.978.7.7,0,0,0-.2-.039.237.237,0,0,0-.176.117.563.563,0,0,0,.059.8.657.657,0,0,0,.274.157A.709.709,0,0,0,18.254,111.662Z" transform="translate(0 -87.832)"/>
    <path id="Tracé_116" data-name="Tracé 116" class="cls-1" d="M56.8,6.944A7.036,7.036,0,0,1,63.8,0a7.141,7.141,0,0,1,7.044,7.044,7.024,7.024,0,0,1-14.048-.1Zm7-5.537a5.387,5.387,0,0,0-5.6,5.42A5.588,5.588,0,1,0,69.38,7.12,5.4,5.4,0,0,0,63.8,1.407Z" transform="translate(-45.648 0)"/>
    <path id="Tracé_117" data-name="Tracé 117" class="cls-1" d="M53.754,87.3a32.247,32.247,0,0,1,3.894.235,6.445,6.445,0,0,1,5.4,6.065q.117,2.348,0,4.7a.446.446,0,0,1-.059.215.718.718,0,0,1-1.252-.02.521.521,0,0,1-.059-.235c-.078-1.428-.02-2.857-.039-4.3a4.956,4.956,0,0,0-5.185-5.165c-1.8-.039-3.58-.039-5.381,0a5.04,5.04,0,0,0-5.185,5.283v4.109c0,.528-.117,1.1-.743.978-.274-.039-.607-.626-.626-.978q-.088-2.2,0-4.4a6.59,6.59,0,0,1,6.5-6.4C51.934,87.339,53.754,87.32,53.754,87.3Z" transform="translate(-35.735 -70.221)"/>
  </g>
</svg>
