<svg xmlns="http://www.w3.org/2000/svg" viewBox="0 0 33.685 33.711">
  <defs>
    <style>
      .cls-1 {
        fill: #fdba1d;
      }
    </style>
  </defs>
  <g id="Groupe_92" data-name="Groupe 92" transform="translate(0.004 0.015)">
    <path id="Tracé_119" data-name="Tracé 119" class="cls-1" d="M4.446,5.383c-1,0-1.91.017-2.823-.008A1.447,1.447,0,0,1,.278,4.486,1.462,1.462,0,0,1,.453,2.917a1.484,1.484,0,0,1,1.22-.606c2.175-.008,4.342-.017,6.517,0A1.465,1.465,0,0,1,9.677,3.664c.2,2.009.39,4.018.556,6.028a1.536,1.536,0,0,1-3.064.232C7.1,9.285,7.062,8.621,7,7.957c-.017-.2-.05-.4-.083-.673a13.63,13.63,0,0,0-2.69,4,13.1,13.1,0,0,0-1.1,6.808,13.391,13.391,0,0,0,8.1,11.267A13.743,13.743,0,0,0,23.3,4.685,13.125,13.125,0,0,0,15.115,3.2a1.582,1.582,0,0,1-1.934-1.918A1.535,1.535,0,0,1,14.534.16a15.813,15.813,0,0,1,8,.839,16.413,16.413,0,0,1,10.793,12.57,16.535,16.535,0,0,1-8.452,17.975A16.312,16.312,0,0,1,6.9,30.365,15.794,15.794,0,0,1,.2,19.372,16.444,16.444,0,0,1,4.23,5.657C4.289,5.6,4.33,5.532,4.446,5.383Z" transform="translate(0 0)"/>
    <path id="Tracé_120" data-name="Tracé 120" class="cls-1" d="M184.294,71.317v-4.94a1.539,1.539,0,1,1,3.064.017c.008,2.922,0,5.837.017,8.759a1.027,1.027,0,0,0,.266.639c1.494,1.519,3.006,3.014,4.517,4.525A1.538,1.538,0,1,1,190,82.492q-2.74-2.715-5.455-5.463a.966.966,0,0,1-.249-.606c-.017-1.7-.008-3.4,0-5.106Z" transform="translate(-168.988 -59.342)"/>
  </g>
</svg>
