<svg xmlns="http://www.w3.org/2000/svg" viewBox="0 0 133.83 104.567">
  <defs>
    <style>
      .cls-1 {
        fill: #fdba1d;
      }
    </style>
  </defs>
  <g id="Groupe_96" data-name="Groupe 96" transform="translate(0.016 0.001)">
    <path id="Tracé_127" data-name="Tracé 127" class="cls-1" d="M46.1,67.646c0-2.668-.062-5.336,0-8A10,10,0,0,1,53.3,49.9c1.489-.5,2.978-.869,4.468-1.365,3.289-1.117,6.639-2.3,8.687,1.675,1.862-1.055,3.785-3.04,5.088-2.73a44.879,44.879,0,0,1,12.844,4.964c1.924,1.179,2.73,4.654,3.289,7.26.558,2.544.124,5.212.372,8.067,1.862-3.723,4.964-4.219,8.439-3.785,4.84.558,9-.31,11.417-5.088.062-.186.31-.31.434-.434,4.592-9.37,13.093-7.074,20.787-6.7,2.73.124,4.53,2.3,4.592,5.088.124,10.611.186,21.283-.124,31.894-.124,4.9-4.716,8.439-10.176,8.563-4.157.124-8.253.124-12.41,0-2.11-.062-3.1.5-3.723,2.606-1.986,6.515-4.406,12.906-6.391,19.422-.745,2.42-1.986,3.289-4.468,3.165-2.854-.186-5.771,0-8.687-.062-3.723,0-4.281-.683-3.475-4.468.807-3.661,1.675-7.26,2.42-10.859L90.4,90.171c1.427-6.391,5.026-9.37,11.541-9.37H112.8V74.038a8.421,8.421,0,0,0-2.792.372c-5.833,3.661-12.286,1.737-18.491,1.986-9.494.372-18.987.124-28.481.124-7.756,0-15.451-.062-23.207-.062a33.827,33.827,0,0,0-4.344-.062c-4.344.5-8.439.31-12.224-2.234a6.966,6.966,0,0,0-2.234-.434c-.124,2.358-.248,4.53-.372,7.074H32.136c5.957.062,9.68,2.978,11.045,8.811,2.172,9.432,4.281,18.925,6.329,28.419.869,3.785.31,4.468-3.475,4.468-2.978,0-6.019-.124-9,.062-2.234.124-3.351-.745-4.033-2.854-1.986-6.329-4.344-12.534-6.143-18.863-.807-2.854-2.172-3.723-5.026-3.537-3.723.248-7.446.124-11.169.062C4.276,97.12.118,93.087.056,86.51c-.124-9.494-.062-18.925,0-28.419.062-4.344,2.11-6.453,6.453-6.577,3.723-.124,7.446-.186,11.169.062a5.67,5.67,0,0,1,3.6,1.862c2.482,2.668,4.716,5.522,6.95,8.315,1.241,1.551,2.544,2.482,4.716,2.172,1.924-.248,3.909-.062,5.895-.124A7.548,7.548,0,0,1,46.1,67.646Zm-.683,50.819c-.248-1.427-.372-2.42-.558-3.351-1.8-8.191-3.6-16.319-5.46-24.51-.993-4.344-2.916-5.833-7.384-5.895q-6.05-.093-12.1,0c-2.048,0-3.1-.745-3.04-2.916.062-3.6-.062-7.26.062-10.859.062-2.606,1.489-3.413,3.971-2.358,2.234.993,4.406,2.544,6.763,2.854a97.756,97.756,0,0,0,12.782.372c.5,0,1.3-1.117,1.3-1.737a2.238,2.238,0,0,0-1.365-1.613,16.156,16.156,0,0,0-5.15-.5c-4.654.558-8.377-.434-10.983-4.84-3.227-5.522-7.57-9.494-14.768-7.756a4.154,4.154,0,0,1-1.241,0c-3.723.062-4.157.434-4.157,4.033V85.7c0,5.212,2.358,7.508,7.632,7.57,4.53.062,9.121.124,13.651-.062,2.544-.124,3.661.869,4.406,3.227,2.048,6.577,4.281,13.155,6.577,19.67.31.869,1.241,2.11,2.048,2.172A42.3,42.3,0,0,0,45.415,118.466Zm42.815.062a35.514,35.514,0,0,1,5.212.062c2.73.372,3.847-.869,4.592-3.351,1.8-5.895,4.033-11.728,5.771-17.684.931-3.227,2.358-4.592,5.833-4.344,4.406.31,8.873.124,13.341.062,4.033-.062,6.763-2.358,6.826-6.143.124-9.618.124-19.174,0-28.791,0-.931-1.179-2.73-1.8-2.73-5.895,0-12.534-2.358-16.319,4.9-.807,1.613-2.482,2.792-3.537,4.281a6.245,6.245,0,0,1-6.267,3.04,45.533,45.533,0,0,0-7.694.124A2.852,2.852,0,0,0,92.139,70,2.919,2.919,0,0,0,94,72.114c4.468-.124,9.059,1.241,13.341-1.3a30.892,30.892,0,0,1,6.329-2.358c2.234-.683,3.289.248,3.289,2.606-.062,3.475-.124,7.012,0,10.487.062,2.358-.993,3.1-3.165,3.04-3.909-.062-7.88-.062-11.79,0-4.654.062-6.515,1.613-7.632,6.081-.5,2.234-1.055,4.406-1.551,6.639C91.394,104.194,89.905,111.082,88.23,118.528Zm-8.5-45.669c1.489-.745,3.537-1.3,3.537-1.862a96.269,96.269,0,0,0-.372-14.023c-.124-1.241-2.3-2.482-3.723-3.289-1.179-.683-2.792-.745-4.1-1.3-2.234-.869-4.1-.807-5.647,1.365-1.613,2.172-3.413,2.172-5.026,0-1.489-1.986-3.165-2.358-5.4-1.427a33.252,33.252,0,0,1-3.537,1.055c-3.847,1.179-5.522,3.413-5.585,7.508-.062,2.668,0,5.336,0,8,0,3.661.248,3.847,4.654,2.978a34.487,34.487,0,0,1,.124-5.647c.124-.807,1.365-1.427,2.11-2.172.558.807,1.489,1.551,1.613,2.42a43.3,43.3,0,0,1,.062,5.709H75.509a26.246,26.246,0,0,1,.124-5.46c.186-.993,1.365-1.8,2.11-2.668a9.333,9.333,0,0,1,1.551,2.73C79.6,68.453,79.543,70.253,79.729,72.859Z" transform="translate(0 -18.006)"/>
    <path id="Tracé_128" data-name="Tracé 128" class="cls-1" d="M.1,19.234A12.183,12.183,0,0,1,12.572,6.7,12.237,12.237,0,0,1,24.92,19.11,12.328,12.328,0,0,1,12.572,31.582,12.367,12.367,0,0,1,.1,19.234Zm12.534,8.315A8.441,8.441,0,1,0,4.009,19.3,8.53,8.53,0,0,0,12.634,27.549Z" transform="translate(-0.044 -2.543)"/>
    <path id="Tracé_129" data-name="Tracé 129" class="cls-1" d="M200.32,19.01a12.411,12.411,0,0,1-24.82.248,12.411,12.411,0,1,1,24.82-.248Zm-12.472,8.5a8.471,8.471,0,0,0,.248-16.94,8.317,8.317,0,0,0-8.5,8.315A8.335,8.335,0,0,0,187.848,27.511Z" transform="translate(-66.607 -2.505)"/>
    <path id="Tracé_130" data-name="Tracé 130" class="cls-1" d="M100.4,0a12.238,12.238,0,0,1,12.286,12.472A12.441,12.441,0,0,1,87.8,12.41,12.22,12.22,0,0,1,100.4,0Zm-.124,20.787a8.369,8.369,0,0,0,8.377-8.5,8.541,8.541,0,0,0-8.5-8.439,8.47,8.47,0,0,0,.124,16.94Z" transform="translate(-33.326)"/>
  </g>
</svg>
